<?xml version="1.0" encoding="utf-8" standalone="no"?>
<!DOCTYPE svg PUBLIC "-//W3C//DTD SVG 1.1//EN"
  "http://www.w3.org/Graphics/SVG/1.1/DTD/svg11.dtd">
<svg xmlns:xlink="http://www.w3.org/1999/xlink" width="460.8pt" height="345.6pt" viewBox="0 0 460.8 345.6" xmlns="http://www.w3.org/2000/svg" version="1.1">
 <metadata>
  <rdf:RDF xmlns:dc="http://purl.org/dc/elements/1.1/" xmlns:cc="http://creativecommons.org/ns#" xmlns:rdf="http://www.w3.org/1999/02/22-rdf-syntax-ns#">
   <cc:Work>
    <dc:type rdf:resource="http://purl.org/dc/dcmitype/StillImage"/>
    <dc:date>2025-09-08T22:39:06.262888</dc:date>
    <dc:format>image/svg+xml</dc:format>
    <dc:creator>
     <cc:Agent>
      <dc:title>Matplotlib v3.9.2, https://matplotlib.org/</dc:title>
     </cc:Agent>
    </dc:creator>
   </cc:Work>
  </rdf:RDF>
 </metadata>
 <defs>
  <style type="text/css">*{stroke-linejoin: round; stroke-linecap: butt}</style>
 </defs>
 <g id="figure_1">
  <g id="patch_1">
   <path d="M 0 345.6 
L 460.8 345.6 
L 460.8 0 
L 0 0 
z
" style="fill: #ffffff"/>
  </g>
  <g id="axes_1">
   <g id="patch_2">
    <path d="M 57.6 307.584 
L 414.72 307.584 
L 414.72 41.472 
L 57.6 41.472 
z
" style="fill: #ffffff"/>
   </g>
   <g id="matplotlib.axis_1">
    <g id="xtick_1">
     <g id="line2d_1">
      <path d="M 73.832727 307.584 
L 73.832727 41.472 
" clip-path="url(#pc7b206e20a)" style="fill: none; stroke: #b0b0b0; stroke-width: 0.8; stroke-linecap: square"/>
     </g>
     <g id="line2d_2">
      <defs>
       <path id="mc59b83d4b9" d="M 0 0 
L 0 3.5 
" style="stroke: #000000; stroke-width: 0.8"/>
      </defs>
      <g>
       <use xlink:href="#mc59b83d4b9" x="73.832727" y="307.584" style="stroke: #000000; stroke-width: 0.8"/>
      </g>
     </g>
     <g id="text_1">
      <!-- 0 -->
      <g transform="translate(70.651477 322.182437) scale(0.1 -0.1)">
       <defs>
        <path id="DejaVuSans-30" d="M 2034 4250 
Q 1547 4250 1301 3770 
Q 1056 3291 1056 2328 
Q 1056 1369 1301 889 
Q 1547 409 2034 409 
Q 2525 409 2770 889 
Q 3016 1369 3016 2328 
Q 3016 3291 2770 3770 
Q 2525 4250 2034 4250 
z
M 2034 4750 
Q 2819 4750 3233 4129 
Q 3647 3509 3647 2328 
Q 3647 1150 3233 529 
Q 2819 -91 2034 -91 
Q 1250 -91 836 529 
Q 422 1150 422 2328 
Q 422 3509 836 4129 
Q 1250 4750 2034 4750 
z
" transform="scale(0.015625)"/>
       </defs>
       <use xlink:href="#DejaVuSans-30"/>
      </g>
     </g>
    </g>
    <g id="xtick_2">
     <g id="line2d_3">
      <path d="M 127.959861 307.584 
L 127.959861 41.472 
" clip-path="url(#pc7b206e20a)" style="fill: none; stroke: #b0b0b0; stroke-width: 0.8; stroke-linecap: square"/>
     </g>
     <g id="line2d_4">
      <g>
       <use xlink:href="#mc59b83d4b9" x="127.959861" y="307.584" style="stroke: #000000; stroke-width: 0.8"/>
      </g>
     </g>
     <g id="text_2">
      <!-- 500 -->
      <g transform="translate(118.416111 322.182437) scale(0.1 -0.1)">
       <defs>
        <path id="DejaVuSans-35" d="M 691 4666 
L 3169 4666 
L 3169 4134 
L 1269 4134 
L 1269 2991 
Q 1406 3038 1543 3061 
Q 1681 3084 1819 3084 
Q 2600 3084 3056 2656 
Q 3513 2228 3513 1497 
Q 3513 744 3044 326 
Q 2575 -91 1722 -91 
Q 1428 -91 1123 -41 
Q 819 9 494 109 
L 494 744 
Q 775 591 1075 516 
Q 1375 441 1709 441 
Q 2250 441 2565 725 
Q 2881 1009 2881 1497 
Q 2881 1984 2565 2268 
Q 2250 2553 1709 2553 
Q 1456 2553 1204 2497 
Q 953 2441 691 2322 
L 691 4666 
z
" transform="scale(0.015625)"/>
       </defs>
       <use xlink:href="#DejaVuSans-35"/>
       <use xlink:href="#DejaVuSans-30" x="63.623047"/>
       <use xlink:href="#DejaVuSans-30" x="127.246094"/>
      </g>
     </g>
    </g>
    <g id="xtick_3">
     <g id="line2d_5">
      <path d="M 182.086994 307.584 
L 182.086994 41.472 
" clip-path="url(#pc7b206e20a)" style="fill: none; stroke: #b0b0b0; stroke-width: 0.8; stroke-linecap: square"/>
     </g>
     <g id="line2d_6">
      <g>
       <use xlink:href="#mc59b83d4b9" x="182.086994" y="307.584" style="stroke: #000000; stroke-width: 0.8"/>
      </g>
     </g>
     <g id="text_3">
      <!-- 1000 -->
      <g transform="translate(169.361994 322.182437) scale(0.1 -0.1)">
       <defs>
        <path id="DejaVuSans-31" d="M 794 531 
L 1825 531 
L 1825 4091 
L 703 3866 
L 703 4441 
L 1819 4666 
L 2450 4666 
L 2450 531 
L 3481 531 
L 3481 0 
L 794 0 
L 794 531 
z
" transform="scale(0.015625)"/>
       </defs>
       <use xlink:href="#DejaVuSans-31"/>
       <use xlink:href="#DejaVuSans-30" x="63.623047"/>
       <use xlink:href="#DejaVuSans-30" x="127.246094"/>
       <use xlink:href="#DejaVuSans-30" x="190.869141"/>
      </g>
     </g>
    </g>
    <g id="xtick_4">
     <g id="line2d_7">
      <path d="M 236.214127 307.584 
L 236.214127 41.472 
" clip-path="url(#pc7b206e20a)" style="fill: none; stroke: #b0b0b0; stroke-width: 0.8; stroke-linecap: square"/>
     </g>
     <g id="line2d_8">
      <g>
       <use xlink:href="#mc59b83d4b9" x="236.214127" y="307.584" style="stroke: #000000; stroke-width: 0.8"/>
      </g>
     </g>
     <g id="text_4">
      <!-- 1500 -->
      <g transform="translate(223.489127 322.182437) scale(0.1 -0.1)">
       <use xlink:href="#DejaVuSans-31"/>
       <use xlink:href="#DejaVuSans-35" x="63.623047"/>
       <use xlink:href="#DejaVuSans-30" x="127.246094"/>
       <use xlink:href="#DejaVuSans-30" x="190.869141"/>
      </g>
     </g>
    </g>
    <g id="xtick_5">
     <g id="line2d_9">
      <path d="M 290.34126 307.584 
L 290.34126 41.472 
" clip-path="url(#pc7b206e20a)" style="fill: none; stroke: #b0b0b0; stroke-width: 0.8; stroke-linecap: square"/>
     </g>
     <g id="line2d_10">
      <g>
       <use xlink:href="#mc59b83d4b9" x="290.34126" y="307.584" style="stroke: #000000; stroke-width: 0.8"/>
      </g>
     </g>
     <g id="text_5">
      <!-- 2000 -->
      <g transform="translate(277.61626 322.182437) scale(0.1 -0.1)">
       <defs>
        <path id="DejaVuSans-32" d="M 1228 531 
L 3431 531 
L 3431 0 
L 469 0 
L 469 531 
Q 828 903 1448 1529 
Q 2069 2156 2228 2338 
Q 2531 2678 2651 2914 
Q 2772 3150 2772 3378 
Q 2772 3750 2511 3984 
Q 2250 4219 1831 4219 
Q 1534 4219 1204 4116 
Q 875 4013 500 3803 
L 500 4441 
Q 881 4594 1212 4672 
Q 1544 4750 1819 4750 
Q 2544 4750 2975 4387 
Q 3406 4025 3406 3419 
Q 3406 3131 3298 2873 
Q 3191 2616 2906 2266 
Q 2828 2175 2409 1742 
Q 1991 1309 1228 531 
z
" transform="scale(0.015625)"/>
       </defs>
       <use xlink:href="#DejaVuSans-32"/>
       <use xlink:href="#DejaVuSans-30" x="63.623047"/>
       <use xlink:href="#DejaVuSans-30" x="127.246094"/>
       <use xlink:href="#DejaVuSans-30" x="190.869141"/>
      </g>
     </g>
    </g>
    <g id="xtick_6">
     <g id="line2d_11">
      <path d="M 344.468394 307.584 
L 344.468394 41.472 
" clip-path="url(#pc7b206e20a)" style="fill: none; stroke: #b0b0b0; stroke-width: 0.8; stroke-linecap: square"/>
     </g>
     <g id="line2d_12">
      <g>
       <use xlink:href="#mc59b83d4b9" x="344.468394" y="307.584" style="stroke: #000000; stroke-width: 0.8"/>
      </g>
     </g>
     <g id="text_6">
      <!-- 2500 -->
      <g transform="translate(331.743394 322.182437) scale(0.1 -0.1)">
       <use xlink:href="#DejaVuSans-32"/>
       <use xlink:href="#DejaVuSans-35" x="63.623047"/>
       <use xlink:href="#DejaVuSans-30" x="127.246094"/>
       <use xlink:href="#DejaVuSans-30" x="190.869141"/>
      </g>
     </g>
    </g>
    <g id="xtick_7">
     <g id="line2d_13">
      <path d="M 398.595527 307.584 
L 398.595527 41.472 
" clip-path="url(#pc7b206e20a)" style="fill: none; stroke: #b0b0b0; stroke-width: 0.8; stroke-linecap: square"/>
     </g>
     <g id="line2d_14">
      <g>
       <use xlink:href="#mc59b83d4b9" x="398.595527" y="307.584" style="stroke: #000000; stroke-width: 0.8"/>
      </g>
     </g>
     <g id="text_7">
      <!-- 3000 -->
      <g transform="translate(385.870527 322.182437) scale(0.1 -0.1)">
       <defs>
        <path id="DejaVuSans-33" d="M 2597 2516 
Q 3050 2419 3304 2112 
Q 3559 1806 3559 1356 
Q 3559 666 3084 287 
Q 2609 -91 1734 -91 
Q 1441 -91 1130 -33 
Q 819 25 488 141 
L 488 750 
Q 750 597 1062 519 
Q 1375 441 1716 441 
Q 2309 441 2620 675 
Q 2931 909 2931 1356 
Q 2931 1769 2642 2001 
Q 2353 2234 1838 2234 
L 1294 2234 
L 1294 2753 
L 1863 2753 
Q 2328 2753 2575 2939 
Q 2822 3125 2822 3475 
Q 2822 3834 2567 4026 
Q 2313 4219 1838 4219 
Q 1578 4219 1281 4162 
Q 984 4106 628 3988 
L 628 4550 
Q 988 4650 1302 4700 
Q 1616 4750 1894 4750 
Q 2613 4750 3031 4423 
Q 3450 4097 3450 3541 
Q 3450 3153 3228 2886 
Q 3006 2619 2597 2516 
z
" transform="scale(0.015625)"/>
       </defs>
       <use xlink:href="#DejaVuSans-33"/>
       <use xlink:href="#DejaVuSans-30" x="63.623047"/>
       <use xlink:href="#DejaVuSans-30" x="127.246094"/>
       <use xlink:href="#DejaVuSans-30" x="190.869141"/>
      </g>
     </g>
    </g>
    <g id="text_8">
     <!-- Samples -->
     <g transform="translate(214.806875 335.860562) scale(0.1 -0.1)">
      <defs>
       <path id="DejaVuSans-53" d="M 3425 4513 
L 3425 3897 
Q 3066 4069 2747 4153 
Q 2428 4238 2131 4238 
Q 1616 4238 1336 4038 
Q 1056 3838 1056 3469 
Q 1056 3159 1242 3001 
Q 1428 2844 1947 2747 
L 2328 2669 
Q 3034 2534 3370 2195 
Q 3706 1856 3706 1288 
Q 3706 609 3251 259 
Q 2797 -91 1919 -91 
Q 1588 -91 1214 -16 
Q 841 59 441 206 
L 441 856 
Q 825 641 1194 531 
Q 1563 422 1919 422 
Q 2459 422 2753 634 
Q 3047 847 3047 1241 
Q 3047 1584 2836 1778 
Q 2625 1972 2144 2069 
L 1759 2144 
Q 1053 2284 737 2584 
Q 422 2884 422 3419 
Q 422 4038 858 4394 
Q 1294 4750 2059 4750 
Q 2388 4750 2728 4690 
Q 3069 4631 3425 4513 
z
" transform="scale(0.015625)"/>
       <path id="DejaVuSans-61" d="M 2194 1759 
Q 1497 1759 1228 1600 
Q 959 1441 959 1056 
Q 959 750 1161 570 
Q 1363 391 1709 391 
Q 2188 391 2477 730 
Q 2766 1069 2766 1631 
L 2766 1759 
L 2194 1759 
z
M 3341 1997 
L 3341 0 
L 2766 0 
L 2766 531 
Q 2569 213 2275 61 
Q 1981 -91 1556 -91 
Q 1019 -91 701 211 
Q 384 513 384 1019 
Q 384 1609 779 1909 
Q 1175 2209 1959 2209 
L 2766 2209 
L 2766 2266 
Q 2766 2663 2505 2880 
Q 2244 3097 1772 3097 
Q 1472 3097 1187 3025 
Q 903 2953 641 2809 
L 641 3341 
Q 956 3463 1253 3523 
Q 1550 3584 1831 3584 
Q 2591 3584 2966 3190 
Q 3341 2797 3341 1997 
z
" transform="scale(0.015625)"/>
       <path id="DejaVuSans-6d" d="M 3328 2828 
Q 3544 3216 3844 3400 
Q 4144 3584 4550 3584 
Q 5097 3584 5394 3201 
Q 5691 2819 5691 2113 
L 5691 0 
L 5113 0 
L 5113 2094 
Q 5113 2597 4934 2840 
Q 4756 3084 4391 3084 
Q 3944 3084 3684 2787 
Q 3425 2491 3425 1978 
L 3425 0 
L 2847 0 
L 2847 2094 
Q 2847 2600 2669 2842 
Q 2491 3084 2119 3084 
Q 1678 3084 1418 2786 
Q 1159 2488 1159 1978 
L 1159 0 
L 581 0 
L 581 3500 
L 1159 3500 
L 1159 2956 
Q 1356 3278 1631 3431 
Q 1906 3584 2284 3584 
Q 2666 3584 2933 3390 
Q 3200 3197 3328 2828 
z
" transform="scale(0.015625)"/>
       <path id="DejaVuSans-70" d="M 1159 525 
L 1159 -1331 
L 581 -1331 
L 581 3500 
L 1159 3500 
L 1159 2969 
Q 1341 3281 1617 3432 
Q 1894 3584 2278 3584 
Q 2916 3584 3314 3078 
Q 3713 2572 3713 1747 
Q 3713 922 3314 415 
Q 2916 -91 2278 -91 
Q 1894 -91 1617 61 
Q 1341 213 1159 525 
z
M 3116 1747 
Q 3116 2381 2855 2742 
Q 2594 3103 2138 3103 
Q 1681 3103 1420 2742 
Q 1159 2381 1159 1747 
Q 1159 1113 1420 752 
Q 1681 391 2138 391 
Q 2594 391 2855 752 
Q 3116 1113 3116 1747 
z
" transform="scale(0.015625)"/>
       <path id="DejaVuSans-6c" d="M 603 4863 
L 1178 4863 
L 1178 0 
L 603 0 
L 603 4863 
z
" transform="scale(0.015625)"/>
       <path id="DejaVuSans-65" d="M 3597 1894 
L 3597 1613 
L 953 1613 
Q 991 1019 1311 708 
Q 1631 397 2203 397 
Q 2534 397 2845 478 
Q 3156 559 3463 722 
L 3463 178 
Q 3153 47 2828 -22 
Q 2503 -91 2169 -91 
Q 1331 -91 842 396 
Q 353 884 353 1716 
Q 353 2575 817 3079 
Q 1281 3584 2069 3584 
Q 2775 3584 3186 3129 
Q 3597 2675 3597 1894 
z
M 3022 2063 
Q 3016 2534 2758 2815 
Q 2500 3097 2075 3097 
Q 1594 3097 1305 2825 
Q 1016 2553 972 2059 
L 3022 2063 
z
" transform="scale(0.015625)"/>
       <path id="DejaVuSans-73" d="M 2834 3397 
L 2834 2853 
Q 2591 2978 2328 3040 
Q 2066 3103 1784 3103 
Q 1356 3103 1142 2972 
Q 928 2841 928 2578 
Q 928 2378 1081 2264 
Q 1234 2150 1697 2047 
L 1894 2003 
Q 2506 1872 2764 1633 
Q 3022 1394 3022 966 
Q 3022 478 2636 193 
Q 2250 -91 1575 -91 
Q 1294 -91 989 -36 
Q 684 19 347 128 
L 347 722 
Q 666 556 975 473 
Q 1284 391 1588 391 
Q 1994 391 2212 530 
Q 2431 669 2431 922 
Q 2431 1156 2273 1281 
Q 2116 1406 1581 1522 
L 1381 1569 
Q 847 1681 609 1914 
Q 372 2147 372 2553 
Q 372 3047 722 3315 
Q 1072 3584 1716 3584 
Q 2034 3584 2315 3537 
Q 2597 3491 2834 3397 
z
" transform="scale(0.015625)"/>
      </defs>
      <use xlink:href="#DejaVuSans-53"/>
      <use xlink:href="#DejaVuSans-61" x="63.476562"/>
      <use xlink:href="#DejaVuSans-6d" x="124.755859"/>
      <use xlink:href="#DejaVuSans-70" x="222.167969"/>
      <use xlink:href="#DejaVuSans-6c" x="285.644531"/>
      <use xlink:href="#DejaVuSans-65" x="313.427734"/>
      <use xlink:href="#DejaVuSans-73" x="374.951172"/>
     </g>
    </g>
   </g>
   <g id="matplotlib.axis_2">
    <g id="ytick_1">
     <g id="line2d_15">
      <path d="M 57.6 293.701759 
L 414.72 293.701759 
" clip-path="url(#pc7b206e20a)" style="fill: none; stroke: #b0b0b0; stroke-width: 0.8; stroke-linecap: square"/>
     </g>
     <g id="line2d_16">
      <defs>
       <path id="m16a78514ee" d="M 0 0 
L -3.5 0 
" style="stroke: #000000; stroke-width: 0.8"/>
      </defs>
      <g>
       <use xlink:href="#m16a78514ee" x="57.6" y="293.701759" style="stroke: #000000; stroke-width: 0.8"/>
      </g>
     </g>
     <g id="text_9">
      <!-- −4 -->
      <g transform="translate(35.857813 297.500977) scale(0.1 -0.1)">
       <defs>
        <path id="DejaVuSans-2212" d="M 678 2272 
L 4684 2272 
L 4684 1741 
L 678 1741 
L 678 2272 
z
" transform="scale(0.015625)"/>
        <path id="DejaVuSans-34" d="M 2419 4116 
L 825 1625 
L 2419 1625 
L 2419 4116 
z
M 2253 4666 
L 3047 4666 
L 3047 1625 
L 3713 1625 
L 3713 1100 
L 3047 1100 
L 3047 0 
L 2419 0 
L 2419 1100 
L 313 1100 
L 313 1709 
L 2253 4666 
z
" transform="scale(0.015625)"/>
       </defs>
       <use xlink:href="#DejaVuSans-2212"/>
       <use xlink:href="#DejaVuSans-34" x="83.789062"/>
      </g>
     </g>
    </g>
    <g id="ytick_2">
     <g id="line2d_17">
      <path d="M 57.6 241.617915 
L 414.72 241.617915 
" clip-path="url(#pc7b206e20a)" style="fill: none; stroke: #b0b0b0; stroke-width: 0.8; stroke-linecap: square"/>
     </g>
     <g id="line2d_18">
      <g>
       <use xlink:href="#m16a78514ee" x="57.6" y="241.617915" style="stroke: #000000; stroke-width: 0.8"/>
      </g>
     </g>
     <g id="text_10">
      <!-- −2 -->
      <g transform="translate(35.857813 245.417134) scale(0.1 -0.1)">
       <use xlink:href="#DejaVuSans-2212"/>
       <use xlink:href="#DejaVuSans-32" x="83.789062"/>
      </g>
     </g>
    </g>
    <g id="ytick_3">
     <g id="line2d_19">
      <path d="M 57.6 189.534071 
L 414.72 189.534071 
" clip-path="url(#pc7b206e20a)" style="fill: none; stroke: #b0b0b0; stroke-width: 0.8; stroke-linecap: square"/>
     </g>
     <g id="line2d_20">
      <g>
       <use xlink:href="#m16a78514ee" x="57.6" y="189.534071" style="stroke: #000000; stroke-width: 0.8"/>
      </g>
     </g>
     <g id="text_11">
      <!-- 0 -->
      <g transform="translate(44.2375 193.33329) scale(0.1 -0.1)">
       <use xlink:href="#DejaVuSans-30"/>
      </g>
     </g>
    </g>
    <g id="ytick_4">
     <g id="line2d_21">
      <path d="M 57.6 137.450228 
L 414.72 137.450228 
" clip-path="url(#pc7b206e20a)" style="fill: none; stroke: #b0b0b0; stroke-width: 0.8; stroke-linecap: square"/>
     </g>
     <g id="line2d_22">
      <g>
       <use xlink:href="#m16a78514ee" x="57.6" y="137.450228" style="stroke: #000000; stroke-width: 0.8"/>
      </g>
     </g>
     <g id="text_12">
      <!-- 2 -->
      <g transform="translate(44.2375 141.249447) scale(0.1 -0.1)">
       <use xlink:href="#DejaVuSans-32"/>
      </g>
     </g>
    </g>
    <g id="ytick_5">
     <g id="line2d_23">
      <path d="M 57.6 85.366384 
L 414.72 85.366384 
" clip-path="url(#pc7b206e20a)" style="fill: none; stroke: #b0b0b0; stroke-width: 0.8; stroke-linecap: square"/>
     </g>
     <g id="line2d_24">
      <g>
       <use xlink:href="#m16a78514ee" x="57.6" y="85.366384" style="stroke: #000000; stroke-width: 0.8"/>
      </g>
     </g>
     <g id="text_13">
      <!-- 4 -->
      <g transform="translate(44.2375 89.165603) scale(0.1 -0.1)">
       <use xlink:href="#DejaVuSans-34"/>
      </g>
     </g>
    </g>
    <g id="text_14">
     <!-- Amplitude -->
     <g transform="translate(29.778125 200.150656) rotate(-90) scale(0.1 -0.1)">
      <defs>
       <path id="DejaVuSans-41" d="M 2188 4044 
L 1331 1722 
L 3047 1722 
L 2188 4044 
z
M 1831 4666 
L 2547 4666 
L 4325 0 
L 3669 0 
L 3244 1197 
L 1141 1197 
L 716 0 
L 50 0 
L 1831 4666 
z
" transform="scale(0.015625)"/>
       <path id="DejaVuSans-69" d="M 603 3500 
L 1178 3500 
L 1178 0 
L 603 0 
L 603 3500 
z
M 603 4863 
L 1178 4863 
L 1178 4134 
L 603 4134 
L 603 4863 
z
" transform="scale(0.015625)"/>
       <path id="DejaVuSans-74" d="M 1172 4494 
L 1172 3500 
L 2356 3500 
L 2356 3053 
L 1172 3053 
L 1172 1153 
Q 1172 725 1289 603 
Q 1406 481 1766 481 
L 2356 481 
L 2356 0 
L 1766 0 
Q 1100 0 847 248 
Q 594 497 594 1153 
L 594 3053 
L 172 3053 
L 172 3500 
L 594 3500 
L 594 4494 
L 1172 4494 
z
" transform="scale(0.015625)"/>
       <path id="DejaVuSans-75" d="M 544 1381 
L 544 3500 
L 1119 3500 
L 1119 1403 
Q 1119 906 1312 657 
Q 1506 409 1894 409 
Q 2359 409 2629 706 
Q 2900 1003 2900 1516 
L 2900 3500 
L 3475 3500 
L 3475 0 
L 2900 0 
L 2900 538 
Q 2691 219 2414 64 
Q 2138 -91 1772 -91 
Q 1169 -91 856 284 
Q 544 659 544 1381 
z
M 1991 3584 
L 1991 3584 
z
" transform="scale(0.015625)"/>
       <path id="DejaVuSans-64" d="M 2906 2969 
L 2906 4863 
L 3481 4863 
L 3481 0 
L 2906 0 
L 2906 525 
Q 2725 213 2448 61 
Q 2172 -91 1784 -91 
Q 1150 -91 751 415 
Q 353 922 353 1747 
Q 353 2572 751 3078 
Q 1150 3584 1784 3584 
Q 2172 3584 2448 3432 
Q 2725 3281 2906 2969 
z
M 947 1747 
Q 947 1113 1208 752 
Q 1469 391 1925 391 
Q 2381 391 2643 752 
Q 2906 1113 2906 1747 
Q 2906 2381 2643 2742 
Q 2381 3103 1925 3103 
Q 1469 3103 1208 2742 
Q 947 2381 947 1747 
z
" transform="scale(0.015625)"/>
      </defs>
      <use xlink:href="#DejaVuSans-41"/>
      <use xlink:href="#DejaVuSans-6d" x="68.408203"/>
      <use xlink:href="#DejaVuSans-70" x="165.820312"/>
      <use xlink:href="#DejaVuSans-6c" x="229.296875"/>
      <use xlink:href="#DejaVuSans-69" x="257.080078"/>
      <use xlink:href="#DejaVuSans-74" x="284.863281"/>
      <use xlink:href="#DejaVuSans-75" x="324.072266"/>
      <use xlink:href="#DejaVuSans-64" x="387.451172"/>
      <use xlink:href="#DejaVuSans-65" x="450.927734"/>
     </g>
    </g>
    <g id="text_15">
     <!-- 1e6 -->
     <g transform="translate(57.6 38.472) scale(0.1 -0.1)">
      <defs>
       <path id="DejaVuSans-36" d="M 2113 2584 
Q 1688 2584 1439 2293 
Q 1191 2003 1191 1497 
Q 1191 994 1439 701 
Q 1688 409 2113 409 
Q 2538 409 2786 701 
Q 3034 994 3034 1497 
Q 3034 2003 2786 2293 
Q 2538 2584 2113 2584 
z
M 3366 4563 
L 3366 3988 
Q 3128 4100 2886 4159 
Q 2644 4219 2406 4219 
Q 1781 4219 1451 3797 
Q 1122 3375 1075 2522 
Q 1259 2794 1537 2939 
Q 1816 3084 2150 3084 
Q 2853 3084 3261 2657 
Q 3669 2231 3669 1497 
Q 3669 778 3244 343 
Q 2819 -91 2113 -91 
Q 1303 -91 875 529 
Q 447 1150 447 2328 
Q 447 3434 972 4092 
Q 1497 4750 2381 4750 
Q 2619 4750 2861 4703 
Q 3103 4656 3366 4563 
z
" transform="scale(0.015625)"/>
      </defs>
      <use xlink:href="#DejaVuSans-31"/>
      <use xlink:href="#DejaVuSans-65" x="63.623047"/>
      <use xlink:href="#DejaVuSans-36" x="125.146484"/>
     </g>
    </g>
   </g>
   <g id="line2d_25">
    <path d="M 73.832727 257.123145 
L 74.049236 246.604162 
L 74.265744 247.159219 
L 74.482253 233.329136 
L 74.698761 240.444492 
L 74.91527 271.362581 
L 75.131778 236.77055 
L 75.348287 233.272286 
L 75.564796 247.869252 
L 75.781304 257.251297 
L 75.997813 254.387597 
L 76.214321 254.517911 
L 76.43083 253.793347 
L 76.647338 235.409078 
L 76.863847 246.983098 
L 77.080355 229.348211 
L 77.296864 254.051422 
L 77.513372 259.223192 
L 77.729881 248.830902 
L 77.946389 255.045416 
L 78.162898 259.448454 
L 78.487661 245.943817 
L 78.595915 245.943817 
L 78.812424 255.425472 
L 79.028932 242.2049 
L 79.245441 251.505251 
L 79.678458 242.21141 
L 79.894966 241.796146 
L 80.111475 259.511788 
L 80.436238 249.243693 
L 80.544492 249.243693 
L 80.761 254.010432 
L 80.977509 238.748225 
L 81.194017 248.927075 
L 81.410526 232.483919 
L 81.627034 245.897045 
L 81.843543 246.424368 
L 82.060052 252.053877 
L 82.384814 262.300696 
L 82.493069 262.300696 
L 82.817831 229.67923 
L 82.926086 229.67923 
L 83.142594 254.810258 
L 83.359103 236.999849 
L 83.575611 246.715126 
L 83.900374 261.133992 
L 84.008628 261.133992 
L 84.225137 260.350026 
L 84.441645 251.635096 
L 84.658154 246.673095 
L 84.874662 249.065983 
L 85.091171 257.201687 
L 85.30768 236.578308 
L 85.524188 251.82489 
L 85.740697 251.348792 
L 85.957205 242.70092 
L 86.173714 242.486335 
L 86.390222 250.041904 
L 86.606731 243.446084 
L 86.823239 241.394762 
L 87.039748 260.853208 
L 87.256256 245.755534 
L 87.472765 253.766263 
L 87.689273 244.638648 
L 87.905782 268.170363 
L 88.12229 258.959439 
L 88.338799 253.141309 
L 88.555308 252.918156 
L 88.771816 247.851648 
L 88.988325 246.311398 
L 89.204833 238.857107 
L 89.421342 257.698125 
L 89.63785 240.188604 
L 89.854359 230.190876 
L 90.070867 242.44873 
L 90.287376 242.987017 
L 90.612139 255.529145 
L 90.720393 255.529145 
L 90.936901 256.341965 
L 91.15341 250.676103 
L 91.369918 254.197856 
L 91.586427 241.630597 
L 91.802936 244.879718 
L 92.019444 245.358707 
L 92.235953 272.049697 
L 92.452461 273.173406 
L 92.66897 249.693853 
L 92.885478 252.822296 
L 93.101987 248.555353 
L 93.318495 246.88367 
L 93.535004 256.679703 
L 93.751512 260.29914 
L 93.968021 248.46681 
L 94.184529 258.733682 
L 94.401038 227.757102 
L 94.942309 252.900317 
L 95.050564 252.900317 
L 95.267072 265.287886 
L 95.483581 231.940945 
L 95.700089 237.02662 
L 96.024852 248.803506 
L 96.133106 248.803506 
L 96.457869 239.814356 
L 96.566123 239.814356 
L 96.99914 249.284474 
L 97.215649 256.537905 
L 97.432157 257.269032 
L 97.648666 246.613954 
L 97.865174 240.899288 
L 98.081683 239.995217 
L 98.298192 264.940487 
L 98.5147 254.772966 
L 98.731209 252.454271 
L 98.947717 242.088883 
L 99.164226 242.659201 
L 99.380734 235.450068 
L 99.597243 238.082255 
L 99.813751 247.589536 
L 100.03026 252.766305 
L 100.246768 248.303918 
L 100.463277 250.049794 
L 100.679785 259.187228 
L 100.896294 243.926531 
L 101.112802 254.287909 
L 101.329311 243.909083 
L 101.54582 260.480782 
L 101.870582 244.228852 
L 101.978837 244.228852 
L 102.195345 257.274631 
L 102.520108 239.438727 
L 102.628362 239.438727 
L 102.953125 256.592958 
L 103.061379 256.592958 
L 103.277888 255.859851 
L 103.494396 251.572361 
L 103.710905 252.994172 
L 103.927413 257.938518 
L 104.143922 243.046184 
L 104.36043 246.09111 
L 104.576939 236.67021 
L 104.793448 242.654383 
L 105.009956 262.45127 
L 105.226465 253.443187 
L 105.442973 248.601343 
L 105.659482 253.588761 
L 105.87599 237.615454 
L 106.092499 240.868038 
L 106.309007 259.124831 
L 106.525516 229.24394 
L 106.742024 253.026178 
L 106.958533 246.745856 
L 107.175041 267.474783 
L 107.39155 247.195027 
L 107.608058 248.386367 
L 107.824567 227.191237 
L 108.041076 244.860238 
L 108.257584 251.410459 
L 108.474093 235.044569 
L 108.690601 250.621154 
L 109.123618 262.06262 
L 109.340127 240.168812 
L 109.556635 237.197611 
L 109.773144 242.298182 
L 109.989652 259.914787 
L 110.206161 235.827468 
L 110.422669 258.518497 
L 110.747432 236.637137 
L 110.855686 236.637137 
L 111.072195 249.630155 
L 111.288704 235.870567 
L 111.505212 231.247709 
L 111.721721 244.242446 
L 111.938229 254.691012 
L 112.154738 236.511719 
L 112.371246 250.101462 
L 112.587755 237.961785 
L 112.804263 248.292225 
L 113.020772 254.760466 
L 113.23728 260.330676 
L 113.453789 240.628869 
L 113.778552 255.828341 
L 113.886806 255.828341 
L 114.103314 240.851944 
L 114.319823 255.504431 
L 114.536332 238.222569 
L 114.75284 262.67359 
L 114.969349 247.906701 
L 115.185857 261.541287 
L 115.402366 250.995246 
L 115.618874 249.970992 
L 115.835383 243.171029 
L 116.160146 255.669198 
L 116.2684 255.669198 
L 116.484908 235.812129 
L 116.701417 259.874943 
L 116.917925 229.063339 
L 117.134434 244.586173 
L 117.350942 223.058228 
L 117.675705 247.20284 
L 117.78396 247.20284 
L 118.000468 254.669579 
L 118.216977 242.181801 
L 118.541739 238.318924 
L 118.649994 238.318924 
L 119.083011 261.640429 
L 119.299519 250.682405 
L 119.516028 249.505362 
L 119.732536 243.129544 
L 119.949045 253.690143 
L 120.165553 243.986454 
L 120.382062 246.572547 
L 120.59857 257.226427 
L 120.815079 245.381754 
L 121.031587 244.75193 
L 121.35635 238.778825 
L 121.464605 238.778825 
L 121.681113 259.570695 
L 122.005876 228.675471 
L 122.11413 228.675471 
L 122.330639 253.95452 
L 122.547147 233.901798 
L 122.763656 252.540496 
L 123.088419 240.199672 
L 123.196673 240.199672 
L 123.413181 239.217423 
L 123.62969 246.281164 
L 123.846198 243.127539 
L 124.062707 251.722884 
L 124.38747 236.85753 
L 124.495724 236.85753 
L 124.712233 238.100667 
L 124.928741 246.389186 
L 125.253504 247.529171 
L 125.361758 247.529171 
L 125.578267 250.835844 
L 125.794775 242.095784 
L 126.011284 249.570415 
L 126.227792 242.234379 
L 126.444301 252.964224 
L 126.660809 247.690631 
L 126.877318 253.900848 
L 127.202081 241.740989 
L 127.310335 241.740989 
L 127.526843 233.84573 
L 127.743352 245.089928 
L 127.959861 242.82225 
L 128.176369 232.692333 
L 128.392878 251.170483 
L 128.609386 234.854229 
L 128.825895 244.200883 
L 129.042403 236.401484 
L 129.258912 249.434111 
L 129.47542 259.133529 
L 129.691929 263.06474 
L 130.124946 246.893097 
L 130.341454 251.336916 
L 130.557963 235.484339 
L 130.774471 257.904038 
L 130.99098 271.324742 
L 131.207489 259.235119 
L 131.423997 249.523878 
L 131.640506 248.844392 
L 131.857014 232.427617 
L 132.073523 226.279119 
L 132.398285 256.962701 
L 132.50654 256.962701 
L 132.723048 237.593865 
L 132.939557 229.81207 
L 133.156065 260.065752 
L 133.372574 243.02858 
L 133.589082 241.764219 
L 133.805591 252.600627 
L 134.022099 234.849333 
L 134.238608 271.795606 
L 134.455117 262.606584 
L 134.671625 80.520478 
L 134.888134 72.172271 
L 135.104642 86.259049 
L 135.321151 76.275931 
L 135.537659 74.048201 
L 135.754168 84.254316 
L 136.078931 53.568 
L 136.187185 53.568 
L 136.403693 68.531688 
L 136.620202 78.959629 
L 136.83671 79.193616 
L 137.053219 60.463042 
L 137.269727 81.535566 
L 137.486236 60.869868 
L 137.702745 66.383412 
L 137.919253 58.97511 
L 138.135762 64.349304 
L 138.35227 59.548892 
L 138.677033 66.618414 
L 138.785287 66.618414 
L 139.001796 63.144162 
L 139.218304 60.191398 
L 139.434813 74.008252 
L 139.651321 62.295481 
L 139.86783 63.286402 
L 140.084338 72.524878 
L 140.300847 65.202046 
L 140.517355 61.709356 
L 140.733864 62.218501 
L 140.950373 61.532271 
L 141.166881 61.078516 
L 141.38339 62.633792 
L 141.599898 62.004255 
L 141.816407 61.936493 
L 142.032915 61.270732 
L 142.357678 85.801467 
L 142.465932 85.801467 
L 142.682441 63.713594 
L 142.898949 61.238882 
L 143.223712 65.245015 
L 143.331966 65.245015 
L 143.548475 63.303512 
L 143.764983 65.10629 
L 143.981492 73.110119 
L 144.198001 62.360794 
L 144.414509 72.516206 
L 144.631018 67.732566 
L 144.847526 69.760268 
L 145.064035 68.98388 
L 145.280543 63.361403 
L 145.497052 69.071381 
L 145.71356 69.792352 
L 145.930069 62.649521 
L 146.146577 62.842492 
L 146.363086 79.993337 
L 146.579594 64.944387 
L 146.796103 62.778429 
L 147.012611 70.425275 
L 147.22912 61.388207 
L 147.445629 64.275292 
L 147.662137 74.196535 
L 147.9869 60.953463 
L 148.095154 60.953463 
L 148.311663 69.405837 
L 148.528171 69.419562 
L 148.74468 64.995273 
L 148.961188 61.779773 
L 149.177697 64.690062 
L 149.394205 65.894918 
L 149.610714 65.256396 
L 149.827222 75.662878 
L 150.043731 65.258713 
L 150.368494 69.317191 
L 150.476748 69.317191 
L 150.693257 73.559941 
L 150.909765 75.767514 
L 151.126274 62.577698 
L 151.342782 75.503658 
L 151.559291 63.415284 
L 151.775799 64.473341 
L 151.992308 64.417065 
L 152.208816 63.746277 
L 152.425325 66.930058 
L 152.641833 63.523983 
L 152.858342 64.084561 
L 153.07485 81.407335 
L 153.291359 66.065362 
L 153.507867 62.152485 
L 153.724376 65.234182 
L 153.940885 62.141782 
L 154.265647 69.542766 
L 154.373902 69.542766 
L 154.59041 67.910484 
L 154.806919 62.500796 
L 155.023427 77.959723 
L 155.239936 75.411912 
L 155.456444 65.310771 
L 155.781207 80.441935 
L 155.889461 80.441935 
L 156.10597 64.342064 
L 156.322478 64.46019 
L 156.538987 76.806873 
L 156.755495 65.447622 
L 156.972004 63.786043 
L 157.188513 65.071081 
L 157.405021 64.276126 
L 157.62153 66.256301 
L 157.838038 64.493341 
L 158.054547 66.122993 
L 158.271055 64.363757 
L 158.487564 80.031931 
L 158.704072 68.227701 
L 159.028835 81.08116 
L 159.137089 81.08116 
L 159.353598 64.56803 
L 159.570106 65.488039 
L 159.786615 64.529462 
L 160.003123 69.621673 
L 160.327886 66.126378 
L 160.436141 66.126378 
L 160.652649 64.96806 
L 160.869158 65.416059 
L 161.085666 69.219534 
L 161.302175 68.513329 
L 161.518683 65.131837 
L 161.735192 65.506086 
L 161.9517 64.798423 
L 162.168209 65.392517 
L 162.384717 76.609345 
L 162.601226 66.748884 
L 162.817734 64.479513 
L 163.034243 67.528579 
L 163.250751 66.756905 
L 163.575514 65.060925 
L 163.683769 65.060925 
L 163.900277 66.36724 
L 164.116786 64.591051 
L 164.333294 68.702028 
L 164.549803 65.224286 
L 164.766311 68.669945 
L 164.98282 65.021419 
L 165.199328 67.133966 
L 165.415837 65.431293 
L 165.632345 81.378637 
L 165.848854 80.646156 
L 166.065362 66.197681 
L 166.281871 81.604551 
L 166.498379 72.702875 
L 166.714888 65.304391 
L 166.931397 66.848364 
L 167.147905 77.691049 
L 167.364414 67.803556 
L 167.580922 65.231161 
L 167.797431 70.219517 
L 168.013939 65.612884 
L 168.230448 67.033392 
L 168.446956 65.36835 
L 168.663465 67.745769 
L 168.879973 65.934293 
L 169.204736 67.889755 
L 169.31299 67.889755 
L 169.529499 69.653053 
L 169.854262 86.818768 
L 169.962516 86.818768 
L 170.179025 67.785613 
L 170.395533 69.835711 
L 170.612042 68.000277 
L 170.82855 67.551522 
L 171.045059 67.719128 
L 171.261567 70.35931 
L 171.478076 68.054887 
L 171.694584 70.345378 
L 172.019347 65.264964 
L 172.127601 65.264964 
L 172.34411 76.832941 
L 172.560618 75.711628 
L 172.777127 77.939775 
L 172.993635 77.03237 
L 173.210144 78.768143 
L 173.426653 67.167769 
L 173.643161 70.804627 
L 173.967924 77.556699 
L 174.076178 77.556699 
L 174.509195 67.04196 
L 174.725704 71.781329 
L 174.942212 66.493231 
L 175.158721 68.363457 
L 175.375229 75.631888 
L 175.591738 69.009688 
L 175.808246 66.324557 
L 176.241263 74.251692 
L 176.457772 68.982995 
L 176.674281 75.571393 
L 176.890789 69.405994 
L 177.107298 66.012575 
L 177.43206 72.197245 
L 177.540315 72.197245 
L 177.756823 72.612275 
L 177.973332 66.550471 
L 178.18984 80.347741 
L 178.406349 67.324515 
L 178.622857 68.223196 
L 178.839366 75.828348 
L 179.055874 70.895513 
L 179.272383 67.358057 
L 179.488891 68.751404 
L 179.7054 67.576132 
L 179.921909 67.978245 
L 180.138417 76.94039 
L 180.354926 69.164142 
L 180.571434 67.339984 
L 180.787943 68.108325 
L 181.112705 77.338545 
L 181.22096 77.338545 
L 181.437468 68.425073 
L 181.653977 68.030824 
L 181.870485 68.207597 
L 182.086994 84.762681 
L 182.303502 69.473989 
L 182.520011 67.704727 
L 182.736519 74.505497 
L 182.953028 75.062143 
L 183.169537 74.917897 
L 183.386045 75.236415 
L 183.602554 79.507499 
L 183.819062 68.333301 
L 184.035571 69.00612 
L 184.252079 71.17187 
L 184.468588 78.343555 
L 184.685096 71.915419 
L 184.901605 68.779738 
L 185.118113 69.56274 
L 185.334622 67.690118 
L 185.767639 77.451724 
L 185.984147 70.735903 
L 186.200656 67.494725 
L 186.525419 75.460506 
L 186.633673 75.460506 
L 186.850182 74.175572 
L 187.06669 73.502857 
L 187.391453 68.598902 
L 187.499707 68.598902 
L 187.716216 70.814341 
L 187.932724 81.71937 
L 188.149233 79.302158 
L 188.365741 82.050232 
L 188.798758 67.496574 
L 189.015267 71.861252 
L 189.231775 71.660078 
L 189.448284 71.714402 
L 189.664793 68.277337 
L 189.881301 71.522343 
L 190.09781 68.283847 
L 190.314318 71.191532 
L 190.530827 68.790154 
L 190.747335 70.392983 
L 190.963844 69.852066 
L 191.180352 70.411316 
L 191.396861 69.314534 
L 191.613369 73.51468 
L 191.829878 74.924589 
L 192.046386 76.0877 
L 192.262895 75.053862 
L 192.479403 69.272946 
L 192.695912 70.43853 
L 192.912421 76.153169 
L 193.128929 70.09212 
L 193.345438 69.690814 
L 193.561946 70.119959 
L 193.778455 95.685652 
L 193.994963 72.825663 
L 194.211472 69.239612 
L 194.42798 84.966016 
L 194.644489 71.465337 
L 194.860997 79.309684 
L 195.077506 71.835106 
L 195.294014 78.381264 
L 195.510523 75.521028 
L 195.727031 74.039607 
L 195.94354 72.76324 
L 196.160049 78.96278 
L 196.376557 73.098816 
L 196.593066 79.092078 
L 196.809574 74.46659 
L 197.026083 82.407553 
L 197.242591 74.964954 
L 197.4591 67.736628 
L 197.675608 74.65904 
L 197.892117 80.623265 
L 198.108625 74.659092 
L 198.325134 70.47478 
L 198.541642 74.311042 
L 198.758151 67.516782 
L 198.974659 73.645358 
L 199.191168 68.517964 
L 199.407676 79.429686 
L 199.624185 77.252529 
L 199.840694 90.019815 
L 200.165456 73.785594 
L 200.273711 73.785594 
L 200.490219 75.521496 
L 200.706728 71.544921 
L 200.923236 71.205985 
L 201.139745 78.893482 
L 201.356253 72.68225 
L 201.572762 71.030958 
L 201.78927 74.139009 
L 202.005779 87.655938 
L 202.222287 72.894439 
L 202.438796 70.530197 
L 202.655304 73.161369 
L 202.871813 70.406889 
L 203.088322 72.59566 
L 203.30483 81.009337 
L 203.521339 73.354001 
L 203.737847 70.097823 
L 203.954356 81.284001 
L 204.170864 70.867623 
L 204.387373 72.270579 
L 204.603881 71.530285 
L 204.82039 72.620192 
L 205.036898 77.40615 
L 205.253407 72.640088 
L 205.469915 71.963987 
L 205.686424 78.204543 
L 205.902932 72.180318 
L 206.119441 76.742263 
L 206.33595 72.428315 
L 206.552458 72.120734 
L 206.768967 79.483671 
L 206.985475 72.518472 
L 207.201984 72.377195 
L 207.418492 72.39769 
L 207.635001 73.285615 
L 207.851509 72.639437 
L 208.068018 72.295293 
L 208.284526 72.602145 
L 208.501035 72.161229 
L 208.717543 75.738113 
L 208.934052 76.944166 
L 209.15056 72.737485 
L 209.367069 73.86023 
L 209.583578 72.845298 
L 209.800086 73.572597 
L 210.016595 72.762745 
L 210.233103 72.721729 
L 210.449612 80.026514 
L 210.66612 73.223297 
L 210.882629 73.467856 
L 211.207392 72.525217 
L 211.532154 72.622093 
L 211.748663 75.292926 
L 211.965171 73.524706 
L 212.18168 72.170943 
L 212.398188 76.25205 
L 212.614697 72.619463 
L 212.831206 89.635697 
L 213.047714 80.384799 
L 213.264223 72.868241 
L 213.480731 82.616878 
L 213.69724 79.620495 
L 213.913748 78.292357 
L 214.130257 74.014424 
L 214.346765 72.974076 
L 214.563274 73.976247 
L 214.779782 89.399887 
L 214.996291 80.424982 
L 215.212799 72.889752 
L 215.645816 80.414747 
L 215.862325 74.114634 
L 216.078834 73.150197 
L 216.295342 76.014027 
L 216.511851 73.157333 
L 216.728359 73.982236 
L 216.944868 73.881897 
L 217.161376 87.84831 
L 217.377885 75.018887 
L 217.594393 82.784849 
L 217.810902 74.559846 
L 218.02741 73.437257 
L 218.352173 79.298955 
L 218.460427 79.298955 
L 218.676936 79.911461 
L 218.893444 73.0528 
L 219.109953 86.554339 
L 219.326462 74.065258 
L 219.54297 73.871897 
L 219.759479 88.333471 
L 219.975987 85.12896 
L 220.192496 84.18718 
L 220.409004 88.886315 
L 220.625513 75.812411 
L 220.842021 73.240354 
L 221.275038 80.84134 
L 221.491547 77.344014 
L 221.708055 88.051853 
L 221.924564 76.358015 
L 222.141072 72.770428 
L 222.682344 95.495963 
L 222.790598 95.495963 
L 223.007107 74.312318 
L 223.223615 79.644479 
L 223.440124 73.831584 
L 223.656632 75.083758 
L 223.873141 75.153941 
L 224.089649 84.170461 
L 224.306158 79.398357 
L 224.522666 79.281351 
L 224.739175 88.807382 
L 224.955683 89.345121 
L 225.172192 76.36739 
L 225.3887 77.22094 
L 225.821718 78.83856 
L 226.038226 77.355316 
L 226.254735 80.083989 
L 226.471243 82.622347 
L 226.687752 73.875439 
L 226.90426 76.682549 
L 227.120769 78.389519 
L 227.445532 74.437163 
L 227.553786 74.437163 
L 227.770294 76.479839 
L 227.986803 74.334349 
L 228.203311 76.386583 
L 228.41982 74.755786 
L 228.636328 76.114757 
L 228.852837 74.682738 
L 229.069346 75.951084 
L 229.285854 88.182037 
L 229.502363 75.952386 
L 229.718871 75.270192 
L 229.93538 79.353773 
L 230.151888 75.677878 
L 230.368397 75.46074 
L 230.584905 76.154133 
L 230.801414 92.042856 
L 231.017922 77.254847 
L 231.234431 83.306208 
L 231.450939 77.830607 
L 231.667448 78.477385 
L 231.883956 77.377895 
L 232.100465 83.207431 
L 232.316974 78.539156 
L 232.533482 76.964115 
L 232.749991 78.444728 
L 232.966499 73.976169 
L 233.183008 89.054806 
L 233.399516 75.18941 
L 233.616025 77.0581 
L 233.832533 84.439943 
L 234.049042 77.306618 
L 234.26555 77.719643 
L 234.482059 83.48272 
L 234.698567 76.529605 
L 234.915076 83.426001 
L 235.131584 77.352816 
L 235.348093 75.510559 
L 235.564602 77.439822 
L 235.78111 75.46522 
L 235.997619 78.167017 
L 236.214127 78.332487 
L 236.430636 78.047927 
L 236.647144 85.304248 
L 236.863653 78.319102 
L 237.080161 83.086388 
L 237.29667 80.249433 
L 237.513178 80.249511 
L 237.729687 79.238876 
L 237.946195 83.752853 
L 238.162704 88.13037 
L 238.379212 76.527105 
L 238.703975 90.262057 
L 238.81223 90.262057 
L 239.028738 79.541432 
L 239.245247 75.069044 
L 239.461755 79.031218 
L 239.678264 74.516799 
L 239.894772 86.027641 
L 240.219535 79.229918 
L 240.327789 79.229918 
L 240.544298 75.237119 
L 240.760806 87.418696 
L 240.977315 97.168453 
L 241.193823 79.700574 
L 241.410332 81.196344 
L 241.843349 75.205009 
L 242.168112 85.23969 
L 242.276366 85.23969 
L 242.492875 79.477707 
L 242.709383 75.969495 
L 242.925892 79.03713 
L 243.1424 75.79452 
L 243.358909 80.463107 
L 243.575417 81.387986 
L 243.791926 87.935602 
L 244.008434 76.971458 
L 244.224943 88.042791 
L 244.441451 83.974235 
L 244.65796 85.301436 
L 244.874468 78.383425 
L 245.199231 79.232366 
L 245.307486 79.232366 
L 245.523994 78.212903 
L 245.740503 92.275228 
L 245.957011 79.069578 
L 246.17352 78.01712 
L 246.390028 86.167043 
L 246.606537 86.831555 
L 246.823045 79.331768 
L 247.039554 86.111105 
L 247.256062 79.97417 
L 247.472571 76.29877 
L 247.689079 83.942907 
L 247.905588 86.879316 
L 248.122096 79.953753 
L 248.338605 77.243727 
L 248.555114 79.755366 
L 248.771622 76.840806 
L 248.988131 90.426773 
L 249.204639 90.775943 
L 249.529402 78.092225 
L 249.637656 78.092225 
L 249.854165 79.144448 
L 250.070673 78.057276 
L 250.287182 84.366869 
L 250.50369 83.338135 
L 250.720199 79.126115 
L 250.936707 78.754471 
L 251.153216 78.957025 
L 251.369724 78.651136 
L 251.586233 78.848716 
L 251.802742 78.913847 
L 252.01925 82.262552 
L 252.344013 78.858222 
L 252.452267 78.858222 
L 252.668776 79.354346 
L 252.993538 78.805331 
L 253.101793 78.805331 
L 253.318301 80.350085 
L 253.53481 78.366811 
L 253.751318 84.257129 
L 253.967827 87.983025 
L 254.184335 79.663412 
L 254.400844 78.301393 
L 254.617352 83.205296 
L 254.833861 98.9642 
L 255.05037 80.460191 
L 255.266878 78.724783 
L 255.483387 80.542639 
L 255.699895 78.322826 
L 255.916404 86.062511 
L 256.132912 81.790568 
L 256.349421 86.176991 
L 256.565929 78.915306 
L 256.782438 84.522548 
L 256.998946 79.503514 
L 257.215455 84.943776 
L 257.431963 80.108182 
L 257.648472 79.342002 
L 257.86498 90.378465 
L 258.081489 83.142769 
L 258.297998 84.759113 
L 258.514506 79.436457 
L 258.731015 80.43157 
L 258.947523 78.906373 
L 259.164032 80.853814 
L 259.38054 102.631554 
L 259.597049 81.569967 
L 259.813557 78.94515 
L 260.030066 86.270221 
L 260.246574 78.392436 
L 260.679591 87.369269 
L 261.004354 78.510718 
L 261.112608 78.510718 
L 261.329117 82.031143 
L 261.545626 78.243346 
L 261.762134 87.699142 
L 261.978643 91.705196 
L 262.195151 86.678559 
L 262.41166 94.471291 
L 262.628168 83.367406 
L 262.844677 86.544052 
L 263.061185 85.67295 
L 263.277694 79.560442 
L 263.494202 84.086398 
L 263.710711 79.823986 
L 263.927219 81.038009 
L 264.143728 80.376856 
L 264.360236 87.945863 
L 264.576745 83.000215 
L 264.793254 84.422547 
L 265.009762 81.382283 
L 265.226271 97.065171 
L 265.442779 81.641166 
L 265.659288 80.829986 
L 265.875796 81.733693 
L 266.092305 86.691345 
L 266.308813 85.787456 
L 266.525322 80.723631 
L 266.74183 88.384643 
L 266.958339 79.929821 
L 267.174847 95.728569 
L 267.391356 85.700997 
L 267.824373 81.467127 
L 268.040882 80.682771 
L 268.25739 92.383536 
L 268.473899 93.917953 
L 268.690407 82.268724 
L 268.906916 80.701964 
L 269.231678 82.988861 
L 269.339933 82.988861 
L 269.556441 89.888851 
L 269.77295 82.63555 
L 269.989458 83.738868 
L 270.205967 90.56542 
L 270.422475 89.634734 
L 270.638984 84.534006 
L 270.855492 86.233372 
L 271.072001 82.700733 
L 271.28851 87.500312 
L 271.505018 83.857463 
L 271.721527 80.439331 
L 271.938035 91.424881 
L 272.154544 93.159482 
L 272.371052 83.728712 
L 272.587561 95.310857 
L 272.804069 84.265723 
L 273.020578 81.88872 
L 273.237086 84.170175 
L 273.453595 81.943044 
L 273.670103 83.988428 
L 273.886612 83.348422 
L 274.10312 84.034028 
L 274.319629 80.241048 
L 274.644392 88.544879 
L 274.752646 88.544879 
L 274.969155 87.902685 
L 275.185663 81.874449 
L 275.402172 86.664574 
L 275.61868 81.490122 
L 275.835189 82.217525 
L 276.051697 82.26112 
L 276.268206 104.000057 
L 276.484714 82.722661 
L 276.701223 83.992413 
L 276.917731 93.939177 
L 277.13424 82.084165 
L 277.350748 91.576836 
L 277.567257 82.932949 
L 277.783765 83.130998 
L 278.000274 82.889693 
L 278.216783 82.883313 
L 278.433291 82.717009 
L 278.6498 82.971517 
L 278.866308 87.905342 
L 279.082817 82.158957 
L 279.299325 83.499074 
L 279.515834 83.524882 
L 279.732342 83.317588 
L 279.948851 82.155415 
L 280.165359 83.722957 
L 280.381868 93.956807 
L 280.598376 83.7984 
L 280.814885 82.074373 
L 281.031393 84.1252 
L 281.247902 85.882457 
L 281.464411 84.078872 
L 281.680919 88.302246 
L 281.897428 85.554772 
L 282.113936 83.345245 
L 282.330445 86.496369 
L 282.546953 82.960918 
L 282.763462 83.864885 
L 282.97997 82.482033 
L 283.412987 84.021866 
L 283.629496 102.67059 
L 283.846004 87.662735 
L 284.062513 82.712322 
L 284.387276 98.914017 
L 284.49553 98.914017 
L 284.712039 91.223161 
L 284.928547 83.926787 
L 285.145056 84.721977 
L 285.361564 83.074617 
L 285.578073 90.376199 
L 285.794581 88.46691 
L 286.01109 97.66252 
L 286.227598 84.060773 
L 286.444107 83.083992 
L 286.660615 84.551611 
L 286.877124 84.411089 
L 287.093632 90.551513 
L 287.310141 82.987637 
L 287.526649 84.875833 
L 287.743158 98.919304 
L 287.959667 84.882552 
L 288.176175 82.9386 
L 288.392684 84.849921 
L 288.717446 97.153349 
L 288.825701 97.153349 
L 289.042209 84.187857 
L 289.258718 84.824921 
L 289.475226 85.160497 
L 289.691735 94.212981 
L 289.908243 84.560725 
L 290.34126 84.996745 
L 290.557769 83.586992 
L 290.774277 85.0406 
L 290.990786 90.551539 
L 291.315549 84.137857 
L 291.423803 84.137857 
L 291.640312 85.040808 
L 291.85682 84.178743 
L 292.073329 87.963493 
L 292.289837 83.886708 
L 292.506346 85.34391 
L 292.722854 84.390281 
L 292.939363 91.391053 
L 293.155871 84.288535 
L 293.37238 85.163987 
L 293.588888 100.402339 
L 293.805397 84.956979 
L 294.021905 84.507652 
L 294.238414 94.691398 
L 294.454923 89.42731 
L 294.671431 89.258792 
L 294.88794 85.145575 
L 295.104448 85.725008 
L 295.320957 88.882669 
L 295.537465 86.125376 
L 295.753974 84.830025 
L 295.970482 85.632923 
L 296.186991 83.992439 
L 296.620008 91.474986 
L 296.836516 86.527203 
L 297.053025 83.739493 
L 297.269533 92.690961 
L 297.486042 98.091613 
L 297.702551 87.278981 
L 297.919059 95.49164 
L 298.135568 87.751616 
L 298.352076 86.832128 
L 298.568585 87.830836 
L 298.785093 94.744002 
L 299.001602 95.03463 
L 299.21811 83.491548 
L 299.434619 88.367117 
L 299.651127 90.130311 
L 299.867636 87.862503 
L 300.084144 87.230986 
L 300.300653 88.268288 
L 300.517161 83.857802 
L 300.841924 92.649216 
L 300.950179 92.649216 
L 301.166687 93.812118 
L 301.383196 84.354968 
L 301.599704 87.02502 
L 301.816213 85.143856 
L 302.032721 86.80106 
L 302.24923 85.174742 
L 302.682247 97.705385 
L 302.898755 96.522978 
L 303.115264 86.483479 
L 303.440027 85.864775 
L 303.764789 85.780399 
L 303.981298 86.755487 
L 304.197807 108.051893 
L 304.414315 86.092824 
L 304.630824 86.9239 
L 304.847332 100.175045 
L 305.063841 86.11509 
L 305.280349 91.03868 
L 305.496858 87.063562 
L 305.713366 99.743166 
L 305.929875 86.278841 
L 306.146383 86.186497 
L 306.362892 87.391977 
L 306.5794 86.153449 
L 306.795909 99.646342 
L 307.012417 85.943473 
L 307.228926 94.216836 
L 307.445435 102.244831 
L 307.661943 87.462915 
L 307.878452 85.969099 
L 308.09496 87.172704 
L 308.311469 92.231894 
L 308.527977 87.122287 
L 308.744486 89.74437 
L 308.960994 87.682865 
L 309.177503 87.184475 
L 309.394011 107.208916 
L 309.61052 87.443931 
L 309.827028 86.870462 
L 310.043537 87.912868 
L 310.260045 86.493895 
L 310.476554 87.513827 
L 310.693063 86.592568 
L 310.909571 88.191074 
L 311.12608 86.449676 
L 311.342588 87.851721 
L 311.559097 86.357748 
L 311.775605 87.632422 
L 311.992114 99.632357 
L 312.208622 97.67463 
L 312.425131 87.060411 
L 312.641639 90.384611 
L 312.858148 87.879638 
L 313.074656 96.479775 
L 313.291165 101.023569 
L 313.507673 89.228896 
L 313.724182 89.449315 
L 313.940691 97.425617 
L 314.157199 89.753641 
L 314.373708 89.075926 
L 314.590216 90.984929 
L 314.806725 88.728527 
L 315.023233 92.424683 
L 315.239742 93.415995 
L 315.45625 91.786473 
L 315.672759 91.207874 
L 315.889267 93.310889 
L 316.105776 103.097183 
L 316.322284 93.44774 
L 316.538793 89.311397 
L 316.755301 94.597308 
L 316.97181 113.365252 
L 317.188319 94.51374 
L 317.404827 90.706333 
L 317.621336 95.666485 
L 317.837844 94.650538 
L 318.054353 100.785884 
L 318.270861 91.582982 
L 318.48737 103.394478 
L 318.703878 96.133104 
L 319.028641 95.433488 
L 319.136895 95.433488 
L 319.353404 96.435139 
L 319.569912 103.109657 
L 319.786421 96.218965 
L 320.002929 94.588949 
L 320.219438 104.332013 
L 320.435947 94.152538 
L 320.652455 96.884284 
L 320.868964 95.383331 
L 321.193726 100.168456 
L 321.301981 100.168456 
L 321.518489 99.065138 
L 321.734998 110.344416 
L 321.951506 103.513281 
L 322.168015 101.568757 
L 322.384523 102.127512 
L 322.601032 97.544551 
L 322.81754 98.354559 
L 323.034049 98.86972 
L 323.250557 104.969571 
L 323.467066 98.940215 
L 323.683575 104.862148 
L 323.900083 108.908438 
L 324.116592 90.862428 
L 324.3331 96.662641 
L 324.549609 92.534449 
L 324.766117 101.878812 
L 324.982626 87.956358 
L 325.199134 98.167812 
L 325.415643 259.313453 
L 325.632151 267.260119 
L 325.84866 261.888895 
L 326.065168 269.839884 
L 326.389931 252.165232 
L 326.498185 252.165232 
L 326.714694 269.214409 
L 326.931203 279.769955 
L 327.147711 273.238147 
L 327.36422 280.14061 
L 327.580728 263.769773 
L 327.797237 267.500799 
L 328.013745 270.456895 
L 328.230254 283.202854 
L 328.446762 264.955774 
L 328.663271 284.808468 
L 328.879779 266.448757 
L 329.096288 269.170893 
L 329.312796 259.27314 
L 329.529305 271.753054 
L 329.745813 265.324293 
L 329.962322 274.461804 
L 330.178831 267.73489 
L 330.395339 278.95401 
L 330.611848 279.6611 
L 330.828356 265.828543 
L 331.044865 276.599508 
L 331.261373 267.043086 
L 331.477882 271.260836 
L 331.69439 269.621835 
L 331.910899 255.147553 
L 332.127407 261.815431 
L 332.343916 256.33332 
L 332.668679 279.59123 
L 332.776933 279.59123 
L 332.993441 274.956731 
L 333.20995 278.564996 
L 333.426459 273.67237 
L 333.642967 275.759656 
L 333.859476 268.255468 
L 334.075984 290.906497 
L 334.292493 266.825323 
L 334.509001 275.56257 
L 334.72551 278.967552 
L 335.050273 265.733229 
L 335.158527 265.733229 
L 335.375035 265.529139 
L 335.591544 259.367855 
L 336.024561 271.124011 
L 336.241069 287.232034 
L 336.674087 269.344775 
L 336.890595 292.695082 
L 337.107104 260.206509 
L 337.323612 269.47311 
L 337.540121 267.960751 
L 337.756629 278.153195 
L 337.973138 279.599797 
L 338.189646 279.84019 
L 338.406155 279.7517 
L 338.622663 275.986741 
L 338.839172 279.211356 
L 339.05568 268.63107 
L 339.380443 273.869689 
L 339.488697 273.869689 
L 339.705206 267.506294 
L 339.921715 267.841115 
L 340.138223 273.943726 
L 340.354732 266.828188 
L 340.57124 275.258817 
L 340.787749 275.312828 
L 341.004257 275.185848 
L 341.220766 266.435945 
L 341.437274 278.662471 
L 341.653783 280.011624 
L 341.870291 284.727556 
L 342.0868 269.73569 
L 342.303308 259.635878 
L 342.519817 268.498048 
L 342.84458 275.654368 
L 342.952834 275.654368 
L 343.169343 276.841359 
L 343.385851 286.575282 
L 343.60236 270.128351 
L 343.818868 274.430841 
L 344.035377 268.403021 
L 344.251885 263.226929 
L 344.576648 283.422882 
L 344.684902 283.422882 
L 344.901411 266.226541 
L 345.117919 270.721924 
L 345.334428 295.488 
L 345.550936 263.554718 
L 345.767445 265.336793 
L 345.983953 285.404776 
L 346.200462 276.383646 
L 346.416971 279.677507 
L 346.633479 267.969475 
L 346.849988 275.714187 
L 347.066496 282.763943 
L 347.283005 278.416583 
L 347.499513 291.458273 
L 347.716022 284.505106 
L 347.93253 282.83186 
L 348.149039 269.988401 
L 348.582056 264.05238 
L 348.798564 273.671979 
L 349.015073 263.216616 
L 349.231581 264.283371 
L 349.44809 262.257049 
L 349.664599 265.893465 
L 349.881107 285.823478 
L 350.097616 278.691976 
L 350.314124 286.008142 
L 350.530633 256.487878 
L 350.747141 276.218306 
L 350.96365 272.875252 
L 351.180158 273.030228 
L 351.396667 281.641224 
L 351.613175 260.604247 
L 351.829684 289.662396 
L 352.262701 266.792485 
L 352.479209 280.541317 
L 352.695718 276.188019 
L 352.912226 272.524259 
L 353.128735 258.69139 
L 353.345244 270.201476 
L 353.561752 272.008421 
L 353.778261 293.739988 
L 353.994769 267.264859 
L 354.211278 273.914586 
L 354.427786 279.868967 
L 354.752549 266.488914 
L 354.860803 266.488914 
L 355.077312 259.150535 
L 355.29382 274.554045 
L 355.510329 258.406803 
L 355.726837 273.219188 
L 355.943346 260.867036 
L 356.159854 277.428136 
L 356.376363 273.007493 
L 356.592872 273.181531 
L 356.80938 269.796863 
L 357.025889 275.163113 
L 357.242397 275.099415 
L 357.458906 271.130782 
L 357.675414 284.191379 
L 357.891923 253.059173 
L 358.216686 274.111176 
L 358.32494 274.111176 
L 358.541448 270.258378 
L 358.757957 277.914625 
L 358.974465 258.213677 
L 359.190974 273.231975 
L 359.407482 280.590849 
L 359.623991 279.611074 
L 359.948754 271.667064 
L 360.057008 271.667064 
L 360.273517 257.626535 
L 360.490025 277.101179 
L 360.706534 273.258668 
L 360.923042 259.080456 
L 361.139551 286.510542 
L 361.356059 275.308531 
L 361.572568 277.374411 
L 361.789076 268.152003 
L 362.005585 275.899397 
L 362.222093 270.522261 
L 362.438602 274.73962 
L 362.65511 263.149272 
L 362.979873 269.21868 
L 363.088128 269.21868 
L 363.304636 271.372712 
L 363.521145 278.531532 
L 363.737653 273.265933 
L 363.954162 277.151883 
L 364.17067 253.621027 
L 364.387179 270.329342 
L 364.711942 255.462087 
L 364.820196 255.462087 
L 365.036704 269.440974 
L 365.253213 267.536164 
L 365.469721 274.316412 
L 365.68623 271.38378 
L 365.902738 273.228199 
L 366.119247 273.71211 
L 366.335756 277.6978 
L 366.552264 272.789861 
L 366.768773 270.722862 
L 366.985281 282.599592 
L 367.310044 273.380205 
L 367.418298 273.380205 
L 367.634807 270.721273 
L 367.851315 277.296181 
L 368.067824 256.790876 
L 368.284332 253.689101 
L 368.500841 257.998596 
L 368.717349 271.900139 
L 368.933858 265.817241 
L 369.150366 274.126775 
L 369.366875 281.676328 
L 369.583384 265.550389 
L 369.799892 274.682458 
L 370.016401 283.247516 
L 370.232909 271.777924 
L 370.449418 270.881691 
L 370.665926 282.085811 
L 370.882435 262.12697 
L 371.315452 274.050759 
L 371.53196 268.74003 
L 371.748469 269.648945 
L 371.964977 278.400567 
L 372.181486 260.547293 
L 372.397994 283.611582 
L 372.722757 262.517937 
L 372.831012 262.517937 
L 373.04752 270.314368 
L 373.264029 258.966132 
L 373.480537 278.524865 
L 373.697046 268.852427 
L 373.913554 268.757217 
L 374.130063 284.555575 
L 374.346571 273.090567 
L 374.56308 270.474656 
L 374.779588 284.482423 
L 374.996097 273.551665 
L 375.212605 267.008242 
L 375.645622 273.442003 
L 375.862131 262.822758 
L 376.07864 281.745964 
L 376.295148 265.684817 
L 376.511657 279.573105 
L 376.728165 269.345348 
L 376.944674 272.740564 
L 377.161182 272.499155 
L 377.377691 264.841424 
L 377.594199 274.451987 
L 377.810708 274.958216 
L 378.027216 268.687842 
L 378.243725 264.867518 
L 378.460233 279.998968 
L 378.676742 266.841105 
L 378.89325 278.462391 
L 379.109759 259.288661 
L 379.326268 262.901665 
L 379.542776 278.722289 
L 379.759285 267.399418 
L 379.975793 277.448032 
L 380.192302 265.611405 
L 380.40881 272.291471 
L 380.625319 274.398028 
L 380.841827 264.003759 
L 381.058336 278.618876 
L 381.274844 275.407621 
L 381.491353 279.690033 
L 381.707861 265.086921 
L 381.92437 263.947457 
L 382.140878 264.587072 
L 382.357387 268.881021 
L 382.573896 272.32457 
L 382.790404 259.855385 
L 383.006913 265.663437 
L 383.223421 263.602453 
L 383.548184 276.217004 
L 383.656438 276.217004 
L 383.872947 260.287265 
L 384.089455 266.387455 
L 384.305964 262.682236 
L 384.522472 261.213862 
L 384.738981 274.241412 
L 384.955489 260.010621 
L 385.171998 274.288209 
L 385.388506 276.411146 
L 385.605015 270.433848 
L 385.821524 289.187105 
L 386.038032 273.779793 
L 386.254541 271.571698 
L 386.471049 280.626188 
L 386.687558 263.127344 
L 386.904066 265.100359 
L 387.120575 279.733861 
L 387.337083 266.772484 
L 387.553592 276.924068 
L 387.7701 281.632734 
L 387.986609 276.206717 
L 388.203117 281.488175 
L 388.419626 271.126173 
L 388.636134 263.393206 
L 388.852643 260.326666 
L 389.069152 260.632554 
L 389.28566 270.362546 
L 389.502169 271.645345 
L 389.718677 266.798839 
L 389.935186 271.934462 
L 390.368203 278.836118 
L 390.584711 275.920517 
L 390.80122 280.265976 
L 391.234237 262.664345 
L 391.450745 261.452588 
L 391.667254 282.529436 
L 391.992017 258.101045 
L 392.100271 258.101045 
L 392.31678 265.618384 
L 392.533288 264.372305 
L 392.749797 265.734271 
L 392.966305 246.80794 
L 393.182814 271.984072 
L 393.399322 273.942398 
L 393.615831 269.932932 
L 393.832339 268.21841 
L 394.048848 262.125095 
L 394.265356 257.536508 
L 394.481865 258.026982 
L 394.698373 252.116924 
L 395.023136 273.111114 
L 395.13139 273.111114 
L 395.347899 263.257216 
L 395.564408 274.130291 
L 395.780916 258.751911 
L 395.997425 284.042107 
L 396.213933 265.185385 
L 396.430442 261.584569 
L 396.64695 273.199943 
L 396.863459 251.881062 
L 397.079967 267.526112 
L 397.296476 263.421149 
L 397.512984 271.788914 
L 397.729493 278.559839 
L 397.946001 277.799545 
L 398.16251 260.622606 
L 398.487273 278.542834 
L 398.487273 278.542834 
" clip-path="url(#pc7b206e20a)" style="fill: none; stroke: #0000ff; stroke-opacity: 0.5; stroke-width: 1.5; stroke-linecap: square"/>
   </g>
   <g id="line2d_26">
    <path d="M 73.832727 248.792881 
L 73.940982 248.792881 
L 74.15749 249.667707 
L 74.807016 248.60952 
L 75.023524 248.031936 
L 75.240033 249.514685 
L 75.564796 246.871612 
L 75.67305 246.871612 
L 75.889558 246.529395 
L 76.106067 246.462442 
L 76.43083 247.55253 
L 76.539084 247.55253 
L 76.755592 247.867039 
L 76.972101 247.441696 
L 77.18861 247.79209 
L 77.621627 247.868132 
L 77.838135 248.373606 
L 78.054644 248.324257 
L 78.271152 247.909904 
L 78.812424 248.344257 
L 78.920678 248.344257 
L 79.137186 249.444763 
L 79.353695 249.532446 
L 79.570203 248.543452 
L 79.786712 249.146609 
L 80.00322 249.591821 
L 80.219729 249.289344 
L 80.436238 249.401924 
L 80.652746 249.43346 
L 80.869255 249.170775 
L 81.085763 249.181583 
L 81.302272 249.347887 
L 81.735289 249.600884 
L 82.060052 248.557332 
L 82.168306 248.557332 
L 82.384814 248.717828 
L 82.817831 248.895877 
L 83.250848 247.741803 
L 83.467357 247.711178 
L 83.79212 247.21336 
L 83.900374 247.21336 
L 84.116883 247.41693 
L 84.441645 249.283433 
L 84.5499 249.283433 
L 84.874662 248.475404 
L 85.199425 248.46655 
L 85.415934 248.625484 
L 85.632442 248.51741 
L 85.848951 248.661734 
L 86.065459 249.601301 
L 86.390222 249.245985 
L 86.714985 249.145775 
L 87.039748 247.490889 
L 87.148002 247.490889 
L 87.472765 248.966164 
L 87.797528 248.914158 
L 88.338799 250.661571 
L 88.447053 250.661571 
L 88.663562 250.263494 
L 88.88007 249.893361 
L 89.096579 249.704921 
L 89.313087 249.6869 
L 89.529596 249.178458 
L 89.746104 249.203172 
L 89.962613 249.382991 
L 90.179122 248.305507 
L 90.39563 247.862247 
L 90.612139 247.876492 
L 90.936901 248.432773 
L 91.045156 248.432773 
L 91.261664 249.075045 
L 91.478173 249.537316 
L 91.694681 249.205854 
L 92.127698 248.557801 
L 92.344207 248.59366 
L 92.560715 248.786891 
L 92.777224 249.494815 
L 92.993732 249.323095 
L 93.643258 249.381871 
L 93.859767 250.269536 
L 94.292784 250.811364 
L 94.509292 252.232941 
L 94.725801 251.501215 
L 94.942309 251.024778 
L 95.375326 250.850011 
L 95.591835 251.295562 
L 95.808343 250.362454 
L 96.024852 249.507263 
L 96.24136 249.50393 
L 96.457869 249.699348 
L 96.674378 249.678775 
L 96.890886 248.073317 
L 97.107395 246.540828 
L 97.323903 246.520437 
L 97.75692 247.13948 
L 97.973429 247.126042 
L 98.298192 245.328863 
L 98.406446 245.328863 
L 98.622954 246.14934 
L 98.839463 245.952072 
L 99.055971 247.18211 
L 99.27248 247.613833 
L 99.488988 247.383258 
L 99.813751 245.1592 
L 99.922006 245.1592 
L 100.246768 246.72247 
L 100.355023 246.72247 
L 100.571531 247.058177 
L 100.78804 247.120261 
L 101.004548 247.829538 
L 101.437565 248.626239 
L 101.654074 248.358528 
L 101.870582 248.554884 
L 102.195345 248.323111 
L 102.303599 248.323111 
L 102.520108 249.138692 
L 102.736616 249.557967 
L 102.953125 248.28785 
L 103.169634 247.883211 
L 103.386142 248.089333 
L 103.602651 248.775199 
L 104.252176 251.081836 
L 104.576939 250.52308 
L 104.685193 250.52308 
L 104.901702 249.943674 
L 105.11821 249.575363 
L 105.551227 250.211879 
L 105.767736 249.928674 
L 105.984244 250.410762 
L 106.200753 249.271974 
L 106.417262 248.568113 
L 106.63377 249.309996 
L 106.850279 247.91394 
L 107.175041 248.507592 
L 107.283296 248.507592 
L 107.499804 249.544842 
L 107.716313 249.07679 
L 107.932821 248.704573 
L 108.14933 247.490264 
L 108.365838 247.085156 
L 108.690601 246.361529 
L 108.798855 246.361529 
L 109.015364 246.58713 
L 109.340127 248.427747 
L 109.448381 248.427747 
L 109.66489 247.317971 
L 109.881398 246.508874 
L 110.097907 246.194939 
L 110.314415 246.51002 
L 110.530924 246.420957 
L 110.747432 247.300028 
L 110.963941 246.853539 
L 111.180449 247.221772 
L 111.613466 246.510984 
L 111.829975 244.706695 
L 112.046483 244.559663 
L 112.371246 245.337847 
L 112.4795 245.337847 
L 112.696009 245.598892 
L 112.912518 244.929093 
L 113.129026 245.588891 
L 113.453789 246.099443 
L 113.562043 246.099443 
L 113.778552 245.031959 
L 114.211569 246.266268 
L 114.644586 245.974598 
L 115.077603 246.300825 
L 115.294111 246.188585 
L 115.51062 247.428935 
L 115.727128 247.496931 
L 115.943637 248.199203 
L 116.160146 248.793037 
L 116.376654 249.034186 
L 116.593163 249.08291 
L 116.809671 249.048066 
L 117.02618 249.534815 
L 117.242688 249.091634 
L 117.459197 248.907075 
L 117.675705 247.328153 
L 117.892214 245.912879 
L 118.216977 246.656089 
L 118.325231 246.656089 
L 118.541739 245.976421 
L 118.758248 245.958973 
L 118.974756 245.103053 
L 119.191265 245.452848 
L 119.407774 245.401416 
L 119.624282 245.539646 
L 119.840791 244.940213 
L 120.057299 244.548465 
L 120.273808 244.733675 
L 120.490316 244.7743 
L 120.706825 244.649195 
L 120.923333 244.726748 
L 121.139842 245.203367 
L 121.35635 244.450156 
L 121.572859 245.118809 
L 121.789367 244.829587 
L 122.005876 246.648068 
L 122.222384 247.305653 
L 122.438893 246.382884 
L 122.655401 246.347284 
L 122.87191 245.93491 
L 123.088419 246.534474 
L 123.304927 246.967394 
L 123.521436 246.716064 
L 123.737944 245.599308 
L 124.062707 245.062454 
L 124.170961 245.062454 
L 124.38747 245.490453 
L 124.712233 244.782217 
L 124.820487 244.782217 
L 125.14525 243.820541 
L 125.470012 243.899057 
L 126.119538 244.618283 
L 126.336047 244.120231 
L 126.552555 243.976636 
L 126.769064 245.186335 
L 126.985572 244.874353 
L 127.202081 245.870405 
L 127.526843 245.422353 
L 127.635098 245.422353 
L 127.851606 245.105892 
L 128.068115 245.398369 
L 128.609386 244.678856 
L 128.71764 244.678856 
L 128.934149 244.093929 
L 129.150657 244.459662 
L 129.367166 244.375025 
L 129.583675 244.526694 
L 129.908437 245.906811 
L 130.016692 245.906811 
L 130.2332 246.287362 
L 130.449709 246.526296 
L 130.666217 246.614266 
L 130.882726 246.278091 
L 131.099234 246.524109 
L 131.315743 247.701204 
L 131.532251 247.966883 
L 131.74876 248.002196 
L 131.965268 248.355976 
L 132.181777 248.28535 
L 132.398285 247.348492 
L 132.614794 247.203933 
L 132.831303 248.412721 
L 133.047811 247.736543 
L 133.26432 247.48542 
L 133.480828 248.275558 
L 133.697337 248.605614 
L 133.913845 248.223631 
L 134.130354 247.898263 
L 134.346862 246.492989 
L 134.671625 247.93894 
L 134.779879 247.93894 
L 134.996388 239.431487 
L 135.321151 222.749058 
L 135.429405 222.749058 
L 135.645913 213.034692 
L 135.862422 203.811529 
L 136.187185 186.77894 
L 136.295439 186.77894 
L 136.511948 177.87091 
L 136.83671 161.99776 
L 136.944965 161.99776 
L 137.269727 144.322092 
L 137.377982 144.322092 
L 137.702745 127.016324 
L 137.810999 127.016324 
L 138.135762 109.11482 
L 138.244016 109.11482 
L 138.460524 99.739025 
L 138.785287 80.615661 
L 138.893541 80.615661 
L 139.11005 70.854524 
L 139.326559 69.989098 
L 139.651321 68.782264 
L 139.759576 68.782264 
L 139.976084 68.085955 
L 140.300847 66.965787 
L 140.409101 66.965787 
L 140.62561 66.620914 
L 140.842118 67.026413 
L 141.275135 65.844006 
L 141.491644 64.941783 
L 141.708152 65.049909 
L 141.924661 64.077165 
L 142.141169 64.130291 
L 142.357678 63.875653 
L 142.682441 65.503117 
L 142.790695 65.503117 
L 143.007204 65.710541 
L 143.440221 65.440434 
L 143.764983 65.700046 
L 143.873238 65.700046 
L 144.089746 65.256682 
L 144.306255 65.795307 
L 144.631018 65.74877 
L 144.739272 65.74877 
L 145.172289 66.275781 
L 145.388797 66.612737 
L 145.605306 66.703832 
L 145.821815 67.101909 
L 146.038323 67.458449 
L 146.47134 67.535715 
L 146.687849 68.468172 
L 146.904357 68.206425 
L 147.120866 67.059773 
L 147.337374 67.394047 
L 147.770391 67.460766 
L 147.9869 67.906604 
L 148.203408 68.125382 
L 148.528171 67.734076 
L 148.636425 67.734076 
L 148.852934 68.085642 
L 149.069443 67.711055 
L 149.285951 67.414568 
L 149.50246 67.162065 
L 149.718968 67.00821 
L 150.151985 67.43087 
L 150.368494 67.205087 
L 150.693257 67.752983 
L 150.801511 67.752983 
L 151.018019 67.432563 
L 151.234528 67.971605 
L 151.451036 67.961605 
L 151.667545 68.21455 
L 151.884053 68.315488 
L 152.100562 68.325358 
L 152.317071 67.838296 
L 152.533579 67.641549 
L 152.750088 67.939208 
L 153.07485 67.380557 
L 153.183105 67.380557 
L 153.399613 68.197961 
L 153.616122 68.411401 
L 153.83263 68.285019 
L 154.265647 68.096996 
L 154.482156 67.575012 
L 154.698664 67.788374 
L 154.915173 67.824963 
L 155.131681 67.48548 
L 155.34819 67.704597 
L 155.564699 67.686888 
L 155.781207 67.823009 
L 155.997716 67.578424 
L 156.214224 68.426453 
L 156.647241 68.422052 
L 156.86375 69.072527 
L 157.080258 68.998698 
L 157.513275 69.060886 
L 157.729784 68.207675 
L 158.162801 68.33377 
L 158.595818 68.488693 
L 158.812327 69.228284 
L 159.028835 69.162788 
L 159.245344 69.446541 
L 159.461852 70.371915 
L 159.678361 69.704955 
L 159.894869 69.210705 
L 160.327886 69.123413 
L 160.544395 68.497339 
L 160.760903 68.58622 
L 160.977412 68.611507 
L 161.19392 68.044183 
L 161.518683 68.467495 
L 162.492972 68.503954 
L 162.70948 69.026224 
L 162.925989 69.145002 
L 163.142497 68.370437 
L 163.359006 68.335619 
L 163.792023 67.252327 
L 164.441548 67.323734 
L 164.874565 67.146076 
L 165.091074 67.27277 
L 165.524091 67.360974 
L 165.7406 67.172326 
L 166.065362 68.585751 
L 166.390125 68.620205 
L 166.606634 69.457218 
L 166.823142 69.82131 
L 167.039651 69.258258 
L 167.256159 69.263232 
L 167.472668 69.921233 
L 167.797431 69.858915 
L 167.905685 69.858915 
L 168.122193 70.060037 
L 168.771719 70.159413 
L 168.988228 70.111808 
L 169.204736 70.147147 
L 169.421245 70.04725 
L 169.746007 70.315586 
L 169.854262 70.315586 
L 170.07077 70.958952 
L 170.287279 71.229918 
L 170.503787 70.589391 
L 170.720296 70.77059 
L 170.936804 70.093032 
L 171.153313 69.836467 
L 171.478076 70.1316 
L 171.58633 70.1316 
L 171.802839 69.651673 
L 172.127601 69.920478 
L 172.235856 69.920478 
L 172.452364 69.673731 
L 172.668873 70.232538 
L 172.993635 71.290856 
L 173.10189 71.290856 
L 173.426653 72.392559 
L 173.751415 72.417664 
L 174.076178 72.779152 
L 174.400941 72.739672 
L 174.617449 72.134614 
L 174.833958 72.097583 
L 175.050467 72.194485 
L 175.266975 72.119432 
L 175.483484 72.159875 
L 175.699992 72.553967 
L 176.241263 72.308939 
L 176.349518 72.308939 
L 176.566026 72.615999 
L 176.782535 72.801157 
L 176.999043 72.738344 
L 177.323806 71.830262 
L 177.43206 71.830262 
L 177.648569 71.428253 
L 177.865077 71.10101 
L 178.081586 71.372159 
L 178.298095 71.160282 
L 178.514603 71.476587 
L 178.731112 70.966973 
L 178.94762 70.645902 
L 179.164129 71.08351 
L 179.380637 71.039395 
L 179.813654 71.101792 
L 180.030163 70.700564 
L 180.246671 70.649209 
L 180.46318 71.177912 
L 180.679688 71.210699 
L 180.896197 70.866451 
L 181.112705 70.822909 
L 181.329214 70.609235 
L 181.545723 71.004317 
L 181.762231 71.124474 
L 182.195248 70.879446 
L 182.411757 71.484582 
L 182.628265 71.630182 
L 182.844774 71.000515 
L 183.169537 71.698777 
L 183.494299 71.653412 
L 183.927316 72.474722 
L 184.252079 72.525113 
L 184.360333 72.525113 
L 184.576842 72.684177 
L 185.118113 72.962799 
L 185.659385 72.856366 
L 185.875893 72.52816 
L 186.092402 72.977747 
L 186.30891 73.112462 
L 186.525419 73.076967 
L 186.741927 72.389929 
L 187.06669 73.010352 
L 187.391453 72.96043 
L 187.716216 72.458966 
L 187.82447 72.458966 
L 188.040979 72.23873 
L 188.257487 72.348887 
L 188.58225 73.544836 
L 188.690504 73.544836 
L 188.907013 73.85635 
L 189.123521 73.31611 
L 189.34003 73.313402 
L 189.664793 73.564029 
L 190.206064 73.63179 
L 190.422572 73.175197 
L 191.072098 73.233766 
L 191.288607 72.95444 
L 191.613369 72.558342 
L 191.938132 72.668031 
L 192.154641 72.983086 
L 192.371149 73.245719 
L 192.695912 72.414226 
L 192.804166 72.414226 
L 193.020675 71.835913 
L 193.237183 71.772527 
L 193.453692 71.901799 
L 193.778455 71.71698 
L 193.886709 71.71698 
L 194.103217 72.910872 
L 194.319726 73.137384 
L 194.536235 73.023711 
L 194.752743 73.854553 
L 194.969252 73.868199 
L 195.18576 74.39211 
L 195.402269 74.463934 
L 195.618777 74.88873 
L 195.94354 75.378552 
L 196.268303 75.34113 
L 196.484811 75.542252 
L 196.70132 75.393396 
L 197.026083 75.853166 
L 197.134337 75.853166 
L 197.350845 76.449292 
L 197.783862 76.272806 
L 198.21688 77.04336 
L 198.433388 75.996136 
L 198.649897 75.879052 
L 198.866405 76.131632 
L 199.082914 75.262561 
L 199.299422 75.371156 
L 199.515931 74.833677 
L 199.732439 75.21191 
L 199.948948 75.155685 
L 200.165456 75.877802 
L 200.381965 76.375932 
L 200.598473 76.426844 
L 200.814982 76.255462 
L 201.03149 76.178065 
L 201.247999 75.785301 
L 201.464508 76.005772 
L 201.681016 75.521418 
L 201.897525 75.325479 
L 202.330542 76.29166 
L 202.54705 75.906734 
L 202.763559 75.701081 
L 202.980067 75.834885 
L 203.196576 75.640456 
L 203.521339 76.260149 
L 203.629593 76.260149 
L 203.846101 76.501011 
L 204.06261 76.036241 
L 204.279118 76.237024 
L 204.495627 75.283161 
L 204.712136 74.696931 
L 205.036898 74.440105 
L 205.145153 74.440105 
L 205.361661 74.732035 
L 205.57817 74.803442 
L 205.794678 74.458335 
L 206.011187 74.733364 
L 206.444204 74.920266 
L 206.660712 74.161848 
L 206.877221 74.123332 
L 207.093729 74.569247 
L 207.310238 74.537216 
L 207.526746 74.635368 
L 207.743255 74.625498 
L 207.959764 74.240833 
L 208.176272 74.205233 
L 208.392781 74.314688 
L 208.609289 73.882288 
L 209.042306 74.119399 
L 209.258815 74.389037 
L 209.475323 74.394897 
L 209.691832 74.21828 
L 210.124849 74.30862 
L 210.341357 74.037602 
L 211.207392 74.334818 
L 211.4239 74.014372 
L 211.856917 74.026898 
L 212.073426 74.171092 
L 212.506443 74.159686 
L 212.722951 74.356745 
L 212.93946 74.357605 
L 213.155968 75.227926 
L 213.372477 75.459334 
L 213.588985 75.256337 
L 213.805494 75.748374 
L 214.130257 76.306556 
L 214.888037 76.401583 
L 215.104545 76.868411 
L 215.321054 77.227086 
L 215.537562 77.198284 
L 216.187088 77.782117 
L 216.403596 77.675398 
L 216.620105 77.799383 
L 216.836613 77.848498 
L 217.053122 77.73545 
L 217.26963 77.798315 
L 217.702648 77.442062 
L 217.919156 77.935947 
L 218.135665 77.534667 
L 218.352173 77.226721 
L 218.568682 77.118491 
L 218.893444 77.727195 
L 219.218207 77.681205 
L 219.651224 77.222737 
L 219.867733 77.271644 
L 220.084241 77.916311 
L 220.517258 78.652751 
L 220.733767 79.436483 
L 221.166784 79.430597 
L 221.383293 79.500624 
L 221.599801 79.847242 
L 221.81631 79.32406 
L 222.032818 79.973181 
L 222.249327 79.653073 
L 222.465835 79.563958 
L 222.898852 80.510165 
L 223.115361 81.316866 
L 223.331869 81.037983 
L 223.548378 81.366293 
L 223.764886 80.732641 
L 224.197904 80.847226 
L 224.522666 80.35446 
L 224.630921 80.35446 
L 224.847429 80.110135 
L 225.063938 80.106203 
L 225.280446 80.780194 
L 225.496955 80.935924 
L 225.713463 81.027201 
L 225.929972 80.868137 
L 226.14648 80.942565 
L 226.362989 80.409851 
L 226.796006 81.086082 
L 227.012514 80.877616 
L 227.337277 79.337784 
L 227.445532 79.337784 
L 227.66204 79.45005 
L 227.878549 79.190699 
L 228.095057 79.322601 
L 228.311566 79.285283 
L 228.528074 79.346664 
L 228.744583 78.877779 
L 229.069346 78.485197 
L 229.1776 78.485197 
L 229.394108 77.844904 
L 229.718871 77.766284 
L 230.260142 77.754122 
L 230.476651 77.596699 
L 230.909668 77.306618 
L 231.126177 77.775789 
L 231.559194 78.273997 
L 231.775702 78.246158 
L 233.074753 79.244762 
L 233.291262 79.13825 
L 233.50777 79.854065 
L 233.724279 79.816122 
L 233.940788 79.262106 
L 234.157296 79.684818 
L 234.373805 79.786226 
L 234.590313 79.704845 
L 234.806822 80.093572 
L 235.02333 80.146802 
L 235.239839 80.508967 
L 235.456347 79.777345 
L 236.214127 79.265023 
L 236.53889 79.312575 
L 236.755398 79.055593 
L 236.971907 79.39255 
L 237.404924 79.691199 
L 237.621433 80.00365 
L 237.837941 79.565104 
L 238.162704 80.100213 
L 238.270958 80.100213 
L 238.487467 80.284017 
L 238.703975 80.245188 
L 239.028738 80.803605 
L 239.136992 80.803605 
L 239.353501 80.953607 
L 239.570009 80.537405 
L 239.786518 80.620999 
L 240.003026 80.571494 
L 240.219535 80.999206 
L 240.436044 81.37197 
L 240.652552 81.424887 
L 240.869061 81.270719 
L 241.193823 82.328334 
L 241.951603 82.270729 
L 242.168112 82.019503 
L 242.601129 82.095753 
L 242.817637 81.664812 
L 243.250654 81.481893 
L 243.467163 80.761339 
L 243.683672 80.807225 
L 244.008434 81.565436 
L 244.116689 81.565436 
L 244.441451 81.788042 
L 244.766214 81.839084 
L 244.982723 82.141483 
L 245.199231 82.298177 
L 245.632248 80.973607 
L 245.848757 80.899518 
L 246.065265 81.451294 
L 246.281774 81.424783 
L 246.823045 81.986976 
L 247.147808 81.979711 
L 247.364317 82.484794 
L 248.013842 82.7299 
L 248.230351 83.003393 
L 248.446859 82.605863 
L 248.663368 82.61943 
L 248.879876 82.206666 
L 249.096385 81.851376 
L 249.637656 83.029513 
L 250.178928 83.019122 
L 250.395436 82.31099 
L 250.720199 82.839823 
L 250.828453 82.839823 
L 251.153216 82.086899 
L 251.477979 82.068227 
L 251.694487 81.696687 
L 251.910996 81.640619 
L 252.127504 81.77088 
L 252.77703 81.338663 
L 252.993538 81.443768 
L 253.210047 81.411814 
L 253.426556 81.509654 
L 253.751318 80.389747 
L 254.076081 80.357924 
L 254.29259 80.850533 
L 254.725607 80.888528 
L 254.942115 80.830689 
L 255.158624 81.608926 
L 255.375132 81.675385 
L 256.024658 81.736505 
L 256.241166 82.095805 
L 256.565929 82.434038 
L 256.890692 82.331355 
L 257.107201 82.613467 
L 257.323709 82.620889 
L 257.540218 82.911256 
L 257.756726 82.976153 
L 257.973235 82.925944 
L 258.189743 83.524179 
L 258.839269 83.296807 
L 259.055777 83.402902 
L 259.272286 83.188785 
L 259.488794 82.286823 
L 259.705303 83.391053 
L 259.921812 83.532747 
L 260.13832 83.453189 
L 260.354829 83.849 
L 260.571337 83.466991 
L 260.787846 83.436313 
L 261.220863 83.717748 
L 261.437371 83.418318 
L 261.65388 83.544205 
L 261.870388 83.210504 
L 262.195151 84.204316 
L 262.303405 84.204316 
L 262.519914 84.020043 
L 262.736422 84.584241 
L 262.952931 84.514944 
L 263.16944 84.868932 
L 263.385948 85.129976 
L 263.818965 85.323545 
L 264.035474 84.187623 
L 264.251982 84.161138 
L 265.118016 84.707159 
L 265.334525 84.408979 
L 265.551033 85.090861 
L 265.767542 85.246774 
L 265.98405 85.186956 
L 266.200559 85.360785 
L 266.417068 85.310603 
L 266.74183 84.719295 
L 266.850085 84.719295 
L 267.066593 84.416141 
L 267.283102 84.244941 
L 267.49961 84.702367 
L 267.716119 84.703774 
L 267.932627 84.944115 
L 268.149136 84.813645 
L 268.365644 84.856431 
L 268.690407 86.095897 
L 268.798661 86.095897 
L 269.01517 85.81316 
L 269.339933 85.564511 
L 269.664696 85.644538 
L 269.881204 85.287113 
L 270.314221 85.481516 
L 270.53073 85.92139 
L 270.747238 86.06798 
L 270.963747 86.005557 
L 271.180255 86.279961 
L 271.396764 85.996885 
L 271.613272 86.37392 
L 271.829781 85.782691 
L 272.046289 85.520631 
L 272.371052 86.45353 
L 272.479306 86.45353 
L 272.804069 86.751033 
L 272.912324 86.751033 
L 273.128832 86.2703 
L 273.345341 86.251367 
L 273.561849 86.424103 
L 273.994866 86.484572 
L 274.211375 86.158814 
L 274.427883 86.228476 
L 274.8609 85.720242 
L 275.077409 85.665971 
L 275.293917 85.833759 
L 275.510426 85.616647 
L 275.726934 85.814071 
L 275.943443 85.514745 
L 276.159951 85.433052 
L 276.37646 85.523782 
L 276.592969 86.15009 
L 276.809477 85.630293 
L 277.242494 85.57511 
L 277.459003 85.466464 
L 277.675511 85.948968 
L 277.89202 85.887353 
L 278.108528 85.94652 
L 278.433291 85.868629 
L 278.974562 85.93902 
L 279.191071 86.140559 
L 279.407579 85.822509 
L 279.624088 85.603184 
L 279.840597 85.685372 
L 280.057105 85.518678 
L 280.490122 85.626804 
L 280.706631 86.209309 
L 280.923139 85.203154 
L 281.356156 85.177476 
L 281.572665 84.776222 
L 281.789173 84.875572 
L 282.005682 84.712472 
L 282.22219 84.843072 
L 282.438699 84.853723 
L 282.655207 85.03336 
L 283.304733 85.070027 
L 283.521242 84.824426 
L 283.73775 84.917187 
L 283.954259 85.87204 
L 284.170767 86.07811 
L 284.387276 86.04798 
L 284.820293 87.155933 
L 285.036801 87.019786 
L 285.25331 87.026192 
L 285.469818 87.158043 
L 285.686327 87.105724 
L 286.01109 87.548072 
L 286.119344 87.548072 
L 286.335853 88.014275 
L 286.552361 87.939847 
L 287.201887 87.902217 
L 287.418395 88.235241 
L 287.851412 88.355138 
L 288.067921 89.097098 
L 288.284429 88.211178 
L 288.500938 87.975889 
L 288.825701 88.172948 
L 289.150463 88.085265 
L 289.366972 87.734871 
L 289.799989 87.80146 
L 290.016498 88.356179 
L 290.233006 88.066541 
L 290.449515 87.877633 
L 290.666023 87.246819 
L 290.882532 87.223199 
L 291.532057 87.815862 
L 291.748566 87.496431 
L 291.965074 87.598672 
L 292.181583 87.563958 
L 292.398091 87.018302 
L 292.6146 86.968718 
L 292.831109 87.088511 
L 293.264126 87.083615 
L 293.480634 86.442879 
L 293.697143 86.4915 
L 293.913651 87.267314 
L 294.13016 87.257184 
L 294.346668 86.77382 
L 294.563177 87.278356 
L 294.88794 87.727397 
L 295.212702 87.805028 
L 295.429211 87.839117 
L 295.862228 87.645 
L 296.295245 87.708959 
L 296.728262 87.616693 
L 296.944771 87.994613 
L 297.161279 88.053546 
L 297.377788 88.02115 
L 297.594296 88.08589 
L 297.810805 88.773345 
L 298.027313 88.878684 
L 298.243822 88.634099 
L 298.568585 88.889049 
L 298.676839 88.889049 
L 298.893347 88.547379 
L 299.21811 89.099832 
L 299.759382 89.149052 
L 300.625416 89.548535 
L 301.058433 89.591842 
L 301.274941 89.650333 
L 301.49145 90.013149 
L 301.707958 90.043826 
L 302.140975 89.11676 
L 302.357484 89.092957 
L 302.573993 88.579124 
L 302.790501 88.653318 
L 303.00701 89.194859 
L 303.223518 89.627754 
L 303.548281 88.775819 
L 303.656535 88.775819 
L 303.873044 88.893997 
L 304.197807 88.597093 
L 304.306061 88.597093 
L 304.522569 89.602624 
L 304.955586 89.478977 
L 305.172095 90.291667 
L 305.605112 90.152343 
L 305.821621 89.816246 
L 306.038129 90.582633 
L 306.254638 90.545472 
L 306.5794 90.626853 
L 306.904163 90.675577 
L 307.120672 91.193811 
L 307.33718 90.608024 
L 307.553689 90.493153 
L 307.770197 91.278135 
L 308.09496 91.346782 
L 308.419723 91.416131 
L 308.636231 91.688868 
L 308.85274 90.646488 
L 309.069249 90.828339 
L 309.285757 90.866152 
L 309.502266 90.21914 
L 309.718774 91.269723 
L 309.935283 91.090685 
L 310.151791 91.081076 
L 310.3683 90.491877 
L 311.234334 90.630342 
L 311.450842 89.973096 
L 311.667351 90.068149 
L 311.992114 88.948946 
L 312.100368 88.948946 
L 312.425131 90.138046 
L 313.182911 90.078149 
L 313.615928 91.078055 
L 313.832436 91.179853 
L 314.048945 90.295365 
L 314.265453 90.792479 
L 314.481962 90.936074 
L 315.131487 91.278187 
L 315.347996 91.568659 
L 315.672759 92.094679 
L 315.781013 92.094679 
L 316.21403 92.608122 
L 316.430539 93.378338 
L 316.755301 92.6538 
L 316.863556 92.6538 
L 317.404827 94.504104 
L 317.513081 94.504104 
L 317.837844 93.949776 
L 317.946098 93.949776 
L 318.379115 94.784393 
L 318.595624 94.493401 
L 318.812133 95.172783 
L 319.028641 95.52427 
L 319.353404 96.100578 
L 319.461658 96.100578 
L 320.002929 97.003868 
L 320.111184 97.003868 
L 320.327692 97.172255 
L 320.544201 97.721167 
L 320.760709 97.275668 
L 321.085472 97.74924 
L 321.193726 97.74924 
L 321.410235 97.881715 
L 321.626743 97.224443 
L 321.843252 97.451112 
L 322.059761 98.429195 
L 322.276269 98.820006 
L 322.492778 99.164566 
L 322.709286 99.231364 
L 322.925795 99.528294 
L 323.142303 99.277276 
L 323.358812 99.413579 
L 323.57532 99.867698 
L 324.224846 100.750858 
L 324.441354 100.484085 
L 324.657863 100.587367 
L 324.874371 99.999783 
L 325.09088 100.384604 
L 325.307389 99.939939 
L 325.523897 100.078612 
L 325.84866 116.471741 
L 325.956914 116.471741 
L 326.281677 132.524763 
L 326.389931 132.524763 
L 326.60644 140.451221 
L 326.931203 156.273355 
L 327.039457 156.273355 
L 327.255965 165.349017 
L 327.580728 183.087185 
L 327.688982 183.087185 
L 328.013745 199.391277 
L 328.121999 199.391277 
L 328.446762 216.31936 
L 328.555017 216.31936 
L 328.879779 234.360578 
L 328.988034 234.360578 
L 329.204542 243.02233 
L 329.529305 259.886636 
L 329.637559 259.886636 
L 329.854068 268.531981 
L 330.178831 269.190034 
L 330.287085 269.190034 
L 330.611848 269.935119 
L 330.720102 269.935119 
L 330.93661 270.781638 
L 331.153119 271.46214 
L 331.369627 271.829956 
L 331.586136 271.196095 
L 331.802645 271.097605 
L 332.019153 270.573719 
L 332.235662 270.144288 
L 332.668679 269.157716 
L 332.885187 268.302968 
L 333.101696 269.031881 
L 333.318204 268.541226 
L 333.534713 269.144669 
L 333.751221 269.368864 
L 333.96773 270.189966 
L 334.184238 270.015771 
L 334.400747 271.289898 
L 334.617255 270.909556 
L 334.833764 271.299404 
L 335.050273 271.300081 
L 335.266781 270.949869 
L 335.48329 270.945129 
L 335.699798 270.39377 
L 336.024561 269.600663 
L 336.349324 269.675482 
L 336.565832 271.27344 
L 336.782341 272.259309 
L 337.215358 274.234849 
L 337.431866 273.269397 
L 337.864883 272.468165 
L 338.081392 272.691318 
L 338.514409 273.459555 
L 338.730918 272.904003 
L 338.947426 273.360283 
L 339.163935 273.542004 
L 339.380443 273.027207 
L 339.596952 272.956764 
L 339.81346 273.362002 
L 340.029969 273.460493 
L 340.354732 274.42696 
L 340.462986 274.42696 
L 341.112511 273.303043 
L 341.32902 273.593957 
L 341.545529 272.286132 
L 341.762037 273.205308 
L 342.0868 274.565243 
L 342.195054 274.565243 
L 342.736325 272.586838 
L 342.84458 272.586838 
L 343.061088 272.170089 
L 343.494105 272.035479 
L 343.710614 272.929185 
L 343.927122 272.875044 
L 344.360139 272.947649 
L 344.576648 272.717829 
L 344.793157 272.531681 
L 345.009665 273.358174 
L 345.226174 272.908326 
L 345.442682 272.679678 
L 345.659191 273.690807 
L 345.875699 273.547316 
L 346.092208 272.883638 
L 346.308716 273.152234 
L 346.525225 272.736683 
L 346.741733 273.231818 
L 346.958242 273.646875 
L 347.283005 274.573056 
L 347.391259 274.573056 
L 347.607767 274.710635 
L 347.824276 275.438611 
L 348.040785 275.335511 
L 348.257293 275.968199 
L 348.473802 275.746947 
L 348.906819 275.774317 
L 349.123327 275.946949 
L 349.339836 274.940585 
L 349.556344 274.843813 
L 349.772853 274.422221 
L 349.989361 272.948274 
L 350.20587 274.057347 
L 350.422378 274.72251 
L 350.638887 274.752563 
L 350.855395 273.761667 
L 351.071904 273.589374 
L 351.288413 273.833699 
L 351.504921 273.700026 
L 351.72143 273.644114 
L 351.937938 272.75697 
L 352.262701 272.581265 
L 352.370955 272.581265 
L 352.587464 271.782429 
L 352.803972 272.308033 
L 353.128735 273.131427 
L 353.236989 273.131427 
L 353.453498 272.385326 
L 353.778261 273.117937 
L 353.886515 273.117937 
L 354.103023 274.685947 
L 354.319532 274.754255 
L 354.53604 274.161124 
L 354.752549 274.219745 
L 354.969058 273.61802 
L 355.185566 274.116124 
L 355.402075 273.266064 
L 355.618583 273.349684 
L 355.835092 272.62137 
L 356.0516 272.201913 
L 356.268109 272.214986 
L 356.484617 271.605683 
L 356.701126 271.119298 
L 356.917634 271.437504 
L 357.134143 270.902369 
L 357.350651 270.851326 
L 357.56716 270.979583 
L 357.891923 272.295898 
L 358.000177 272.295898 
L 358.32494 269.805873 
L 358.433194 269.805873 
L 358.649703 270.14684 
L 358.866211 269.964755 
L 359.08272 269.86741 
L 359.299228 269.084851 
L 359.515737 269.420687 
L 359.732245 270.48851 
L 359.948754 270.740362 
L 360.165262 271.640579 
L 360.706534 271.385602 
L 361.031296 271.398103 
L 361.247805 270.695804 
L 361.464314 271.528234 
L 362.113839 271.500421 
L 362.330348 271.087422 
L 362.546856 271.957171 
L 362.763365 272.557124 
L 362.979873 272.011181 
L 363.41289 271.351461 
L 363.629399 272.006859 
L 363.845907 272.270793 
L 364.062416 271.905972 
L 364.278924 271.783497 
L 364.495433 270.644944 
L 364.711942 270.578329 
L 364.92845 270.944556 
L 365.144959 269.866838 
L 365.361467 269.676705 
L 365.577976 270.097829 
L 365.794484 269.490506 
L 366.119247 269.088549 
L 366.227501 269.088549 
L 366.44401 269.365452 
L 366.768773 269.567954 
L 366.877027 269.567954 
L 367.093535 269.3679 
L 367.310044 270.336634 
L 367.526552 270.980442 
L 367.743061 271.18771 
L 368.176078 271.093751 
L 368.500841 269.104643 
L 368.609095 269.104643 
L 368.825604 269.322666 
L 369.150366 269.442589 
L 369.258621 269.442589 
L 369.475129 270.372181 
L 369.691638 270.981562 
L 369.908146 270.882655 
L 370.124655 270.900884 
L 370.341163 271.491775 
L 370.77418 271.27857 
L 370.990689 271.497114 
L 371.207198 270.966041 
L 371.53196 270.293508 
L 371.640215 270.293508 
L 371.856723 269.800665 
L 372.073232 269.61483 
L 372.28974 269.997282 
L 372.506249 269.163107 
L 372.722757 270.498901 
L 372.939266 271.623105 
L 373.155774 271.848185 
L 373.372283 271.7692 
L 373.588791 271.427999 
L 373.8053 271.647037 
L 374.021808 271.008359 
L 374.454826 271.659798 
L 374.671334 271.153934 
L 374.887843 271.089011 
L 375.104351 271.766387 
L 375.32086 271.341357 
L 375.537368 271.584459 
L 375.753877 271.752195 
L 375.970385 271.721856 
L 376.186894 271.427165 
L 376.403402 272.029645 
L 376.619911 271.396332 
L 376.836419 272.343919 
L 377.052928 271.633391 
L 377.269436 271.458051 
L 377.485945 271.955165 
L 377.702454 271.682585 
L 377.918962 272.453842 
L 378.135471 272.27621 
L 378.351979 272.268007 
L 378.676742 271.847352 
L 378.784996 271.847352 
L 379.001505 271.536099 
L 379.218013 271.933915 
L 379.434522 270.679163 
L 379.65103 270.148741 
L 379.867539 270.732159 
L 380.084047 270.645699 
L 380.300556 270.845207 
L 380.517064 270.984088 
L 380.733573 270.513224 
L 380.950082 270.947187 
L 381.16659 270.171736 
L 381.383099 270.633616 
L 381.92437 271.136824 
L 382.032624 271.136824 
L 382.357387 270.0971 
L 382.68215 270.106736 
L 382.898658 270.47812 
L 383.115167 269.474881 
L 383.331675 269.416234 
L 383.548184 268.676123 
L 383.872947 269.847254 
L 383.981201 269.847254 
L 384.19771 268.92912 
L 384.414218 268.878703 
L 384.630727 268.143305 
L 384.847235 267.924292 
L 385.063744 268.021403 
L 385.280252 267.304833 
L 385.496761 267.817052 
L 385.929778 267.459392 
L 386.146286 267.932392 
L 386.362795 268.365338 
L 386.795812 269.543866 
L 387.120575 268.897505 
L 387.228829 268.897505 
L 387.445338 269.887567 
L 387.661846 269.942802 
L 387.878355 270.606272 
L 388.094863 271.211148 
L 388.311372 271.210627 
L 388.52788 272.266549 
L 388.744389 272.50254 
L 389.069152 272.493764 
L 389.177406 272.493764 
L 389.393914 271.815997 
L 389.610423 272.331549 
L 389.826931 272.199933 
L 390.04344 271.721205 
L 390.259948 271.795945 
L 390.476457 271.031224 
L 390.692966 271.283049 
L 390.909474 271.49964 
L 391.125983 271.481697 
L 391.342491 272.054489 
L 391.559 271.93316 
L 391.775508 271.022656 
L 391.992017 271.807429 
L 392.208525 271.47852 
L 392.425034 270.306529 
L 392.749797 268.926724 
L 392.858051 268.926724 
L 393.291068 267.832156 
L 393.615831 269.075658 
L 393.940594 269.054251 
L 394.265356 268.65081 
L 394.373611 268.65081 
L 394.698373 267.146524 
L 394.806628 267.146524 
L 395.023136 265.815782 
L 395.239645 265.040124 
L 395.564408 264.117458 
L 395.672662 264.117458 
L 395.88917 264.688532 
L 396.105679 264.554025 
L 396.322187 264.629364 
L 396.538696 264.373633 
L 396.971713 264.924732 
L 397.188222 264.30259 
L 397.40473 264.391836 
L 397.621239 265.219266 
L 397.837747 265.209526 
L 398.16251 265.831303 
L 398.270764 265.831303 
L 398.487273 265.452992 
L 398.487273 265.452992 
" clip-path="url(#pc7b206e20a)" style="fill: none; stroke: #ff0000; stroke-opacity: 0.5; stroke-width: 1.5; stroke-linecap: square"/>
   </g>
   <g id="patch_3">
    <path d="M 57.6 307.584 
L 57.6 41.472 
" style="fill: none; stroke: #000000; stroke-width: 0.8; stroke-linejoin: miter; stroke-linecap: square"/>
   </g>
   <g id="patch_4">
    <path d="M 414.72 307.584 
L 414.72 41.472 
" style="fill: none; stroke: #000000; stroke-width: 0.8; stroke-linejoin: miter; stroke-linecap: square"/>
   </g>
   <g id="patch_5">
    <path d="M 57.6 307.584 
L 414.72 307.584 
" style="fill: none; stroke: #000000; stroke-width: 0.8; stroke-linejoin: miter; stroke-linecap: square"/>
   </g>
   <g id="patch_6">
    <path d="M 57.6 41.472 
L 414.72 41.472 
" style="fill: none; stroke: #000000; stroke-width: 0.8; stroke-linejoin: miter; stroke-linecap: square"/>
   </g>
   <g id="text_16">
    <!-- Order 19 moving average FIR -->
    <g transform="translate(147.545625 35.472) scale(0.12 -0.12)">
     <defs>
      <path id="DejaVuSans-4f" d="M 2522 4238 
Q 1834 4238 1429 3725 
Q 1025 3213 1025 2328 
Q 1025 1447 1429 934 
Q 1834 422 2522 422 
Q 3209 422 3611 934 
Q 4013 1447 4013 2328 
Q 4013 3213 3611 3725 
Q 3209 4238 2522 4238 
z
M 2522 4750 
Q 3503 4750 4090 4092 
Q 4678 3434 4678 2328 
Q 4678 1225 4090 567 
Q 3503 -91 2522 -91 
Q 1538 -91 948 565 
Q 359 1222 359 2328 
Q 359 3434 948 4092 
Q 1538 4750 2522 4750 
z
" transform="scale(0.015625)"/>
      <path id="DejaVuSans-72" d="M 2631 2963 
Q 2534 3019 2420 3045 
Q 2306 3072 2169 3072 
Q 1681 3072 1420 2755 
Q 1159 2438 1159 1844 
L 1159 0 
L 581 0 
L 581 3500 
L 1159 3500 
L 1159 2956 
Q 1341 3275 1631 3429 
Q 1922 3584 2338 3584 
Q 2397 3584 2469 3576 
Q 2541 3569 2628 3553 
L 2631 2963 
z
" transform="scale(0.015625)"/>
      <path id="DejaVuSans-20" transform="scale(0.015625)"/>
      <path id="DejaVuSans-39" d="M 703 97 
L 703 672 
Q 941 559 1184 500 
Q 1428 441 1663 441 
Q 2288 441 2617 861 
Q 2947 1281 2994 2138 
Q 2813 1869 2534 1725 
Q 2256 1581 1919 1581 
Q 1219 1581 811 2004 
Q 403 2428 403 3163 
Q 403 3881 828 4315 
Q 1253 4750 1959 4750 
Q 2769 4750 3195 4129 
Q 3622 3509 3622 2328 
Q 3622 1225 3098 567 
Q 2575 -91 1691 -91 
Q 1453 -91 1209 -44 
Q 966 3 703 97 
z
M 1959 2075 
Q 2384 2075 2632 2365 
Q 2881 2656 2881 3163 
Q 2881 3666 2632 3958 
Q 2384 4250 1959 4250 
Q 1534 4250 1286 3958 
Q 1038 3666 1038 3163 
Q 1038 2656 1286 2365 
Q 1534 2075 1959 2075 
z
" transform="scale(0.015625)"/>
      <path id="DejaVuSans-6f" d="M 1959 3097 
Q 1497 3097 1228 2736 
Q 959 2375 959 1747 
Q 959 1119 1226 758 
Q 1494 397 1959 397 
Q 2419 397 2687 759 
Q 2956 1122 2956 1747 
Q 2956 2369 2687 2733 
Q 2419 3097 1959 3097 
z
M 1959 3584 
Q 2709 3584 3137 3096 
Q 3566 2609 3566 1747 
Q 3566 888 3137 398 
Q 2709 -91 1959 -91 
Q 1206 -91 779 398 
Q 353 888 353 1747 
Q 353 2609 779 3096 
Q 1206 3584 1959 3584 
z
" transform="scale(0.015625)"/>
      <path id="DejaVuSans-76" d="M 191 3500 
L 800 3500 
L 1894 563 
L 2988 3500 
L 3597 3500 
L 2284 0 
L 1503 0 
L 191 3500 
z
" transform="scale(0.015625)"/>
      <path id="DejaVuSans-6e" d="M 3513 2113 
L 3513 0 
L 2938 0 
L 2938 2094 
Q 2938 2591 2744 2837 
Q 2550 3084 2163 3084 
Q 1697 3084 1428 2787 
Q 1159 2491 1159 1978 
L 1159 0 
L 581 0 
L 581 3500 
L 1159 3500 
L 1159 2956 
Q 1366 3272 1645 3428 
Q 1925 3584 2291 3584 
Q 2894 3584 3203 3211 
Q 3513 2838 3513 2113 
z
" transform="scale(0.015625)"/>
      <path id="DejaVuSans-67" d="M 2906 1791 
Q 2906 2416 2648 2759 
Q 2391 3103 1925 3103 
Q 1463 3103 1205 2759 
Q 947 2416 947 1791 
Q 947 1169 1205 825 
Q 1463 481 1925 481 
Q 2391 481 2648 825 
Q 2906 1169 2906 1791 
z
M 3481 434 
Q 3481 -459 3084 -895 
Q 2688 -1331 1869 -1331 
Q 1566 -1331 1297 -1286 
Q 1028 -1241 775 -1147 
L 775 -588 
Q 1028 -725 1275 -790 
Q 1522 -856 1778 -856 
Q 2344 -856 2625 -561 
Q 2906 -266 2906 331 
L 2906 616 
Q 2728 306 2450 153 
Q 2172 0 1784 0 
Q 1141 0 747 490 
Q 353 981 353 1791 
Q 353 2603 747 3093 
Q 1141 3584 1784 3584 
Q 2172 3584 2450 3431 
Q 2728 3278 2906 2969 
L 2906 3500 
L 3481 3500 
L 3481 434 
z
" transform="scale(0.015625)"/>
      <path id="DejaVuSans-46" d="M 628 4666 
L 3309 4666 
L 3309 4134 
L 1259 4134 
L 1259 2759 
L 3109 2759 
L 3109 2228 
L 1259 2228 
L 1259 0 
L 628 0 
L 628 4666 
z
" transform="scale(0.015625)"/>
      <path id="DejaVuSans-49" d="M 628 4666 
L 1259 4666 
L 1259 0 
L 628 0 
L 628 4666 
z
" transform="scale(0.015625)"/>
      <path id="DejaVuSans-52" d="M 2841 2188 
Q 3044 2119 3236 1894 
Q 3428 1669 3622 1275 
L 4263 0 
L 3584 0 
L 2988 1197 
Q 2756 1666 2539 1819 
Q 2322 1972 1947 1972 
L 1259 1972 
L 1259 0 
L 628 0 
L 628 4666 
L 2053 4666 
Q 2853 4666 3247 4331 
Q 3641 3997 3641 3322 
Q 3641 2881 3436 2590 
Q 3231 2300 2841 2188 
z
M 1259 4147 
L 1259 2491 
L 2053 2491 
Q 2509 2491 2742 2702 
Q 2975 2913 2975 3322 
Q 2975 3731 2742 3939 
Q 2509 4147 2053 4147 
L 1259 4147 
z
" transform="scale(0.015625)"/>
     </defs>
     <use xlink:href="#DejaVuSans-4f"/>
     <use xlink:href="#DejaVuSans-72" x="78.710938"/>
     <use xlink:href="#DejaVuSans-64" x="118.074219"/>
     <use xlink:href="#DejaVuSans-65" x="181.550781"/>
     <use xlink:href="#DejaVuSans-72" x="243.074219"/>
     <use xlink:href="#DejaVuSans-20" x="284.1875"/>
     <use xlink:href="#DejaVuSans-31" x="315.974609"/>
     <use xlink:href="#DejaVuSans-39" x="379.597656"/>
     <use xlink:href="#DejaVuSans-20" x="443.220703"/>
     <use xlink:href="#DejaVuSans-6d" x="475.007812"/>
     <use xlink:href="#DejaVuSans-6f" x="572.419922"/>
     <use xlink:href="#DejaVuSans-76" x="633.601562"/>
     <use xlink:href="#DejaVuSans-69" x="692.78125"/>
     <use xlink:href="#DejaVuSans-6e" x="720.564453"/>
     <use xlink:href="#DejaVuSans-67" x="783.943359"/>
     <use xlink:href="#DejaVuSans-20" x="847.419922"/>
     <use xlink:href="#DejaVuSans-61" x="879.207031"/>
     <use xlink:href="#DejaVuSans-76" x="940.486328"/>
     <use xlink:href="#DejaVuSans-65" x="999.666016"/>
     <use xlink:href="#DejaVuSans-72" x="1061.189453"/>
     <use xlink:href="#DejaVuSans-61" x="1102.302734"/>
     <use xlink:href="#DejaVuSans-67" x="1163.582031"/>
     <use xlink:href="#DejaVuSans-65" x="1227.058594"/>
     <use xlink:href="#DejaVuSans-20" x="1288.582031"/>
     <use xlink:href="#DejaVuSans-46" x="1320.369141"/>
     <use xlink:href="#DejaVuSans-49" x="1377.888672"/>
     <use xlink:href="#DejaVuSans-52" x="1407.380859"/>
    </g>
   </g>
   <g id="legend_1">
    <g id="patch_7">
     <path d="M 340.984063 78.82825 
L 407.72 78.82825 
Q 409.72 78.82825 409.72 76.82825 
L 409.72 48.472 
Q 409.72 46.472 407.72 46.472 
L 340.984063 46.472 
Q 338.984063 46.472 338.984063 48.472 
L 338.984063 76.82825 
Q 338.984063 78.82825 340.984063 78.82825 
z
" style="fill: #ffffff; opacity: 0.8; stroke: #cccccc; stroke-linejoin: miter"/>
    </g>
    <g id="line2d_27">
     <path d="M 342.984063 54.570437 
L 352.984063 54.570437 
L 362.984063 54.570437 
" style="fill: none; stroke: #0000ff; stroke-opacity: 0.5; stroke-width: 1.5; stroke-linecap: square"/>
    </g>
    <g id="text_17">
     <!-- Input -->
     <g transform="translate(370.984063 58.070437) scale(0.1 -0.1)">
      <use xlink:href="#DejaVuSans-49"/>
      <use xlink:href="#DejaVuSans-6e" x="29.492188"/>
      <use xlink:href="#DejaVuSans-70" x="92.871094"/>
      <use xlink:href="#DejaVuSans-75" x="156.347656"/>
      <use xlink:href="#DejaVuSans-74" x="219.726562"/>
     </g>
    </g>
    <g id="line2d_28">
     <path d="M 342.984063 69.248562 
L 352.984063 69.248562 
L 362.984063 69.248562 
" style="fill: none; stroke: #ff0000; stroke-opacity: 0.5; stroke-width: 1.5; stroke-linecap: square"/>
    </g>
    <g id="text_18">
     <!-- Output -->
     <g transform="translate(370.984063 72.748562) scale(0.1 -0.1)">
      <use xlink:href="#DejaVuSans-4f"/>
      <use xlink:href="#DejaVuSans-75" x="78.710938"/>
      <use xlink:href="#DejaVuSans-74" x="142.089844"/>
      <use xlink:href="#DejaVuSans-70" x="181.298828"/>
      <use xlink:href="#DejaVuSans-75" x="244.775391"/>
      <use xlink:href="#DejaVuSans-74" x="308.154297"/>
     </g>
    </g>
   </g>
  </g>
 </g>
 <defs>
  <clipPath id="pc7b206e20a">
   <rect x="57.6" y="41.472" width="357.12" height="266.112"/>
  </clipPath>
 </defs>
</svg>
