<?xml version="1.0" encoding="utf-8" standalone="no"?>
<!DOCTYPE svg PUBLIC "-//W3C//DTD SVG 1.1//EN"
  "http://www.w3.org/Graphics/SVG/1.1/DTD/svg11.dtd">
<svg xmlns:xlink="http://www.w3.org/1999/xlink" width="460.8pt" height="345.6pt" viewBox="0 0 460.8 345.6" xmlns="http://www.w3.org/2000/svg" version="1.1">
 <metadata>
  <rdf:RDF xmlns:dc="http://purl.org/dc/elements/1.1/" xmlns:cc="http://creativecommons.org/ns#" xmlns:rdf="http://www.w3.org/1999/02/22-rdf-syntax-ns#">
   <cc:Work>
    <dc:type rdf:resource="http://purl.org/dc/dcmitype/StillImage"/>
    <dc:date>2025-09-08T22:39:05.780993</dc:date>
    <dc:format>image/svg+xml</dc:format>
    <dc:creator>
     <cc:Agent>
      <dc:title>Matplotlib v3.9.2, https://matplotlib.org/</dc:title>
     </cc:Agent>
    </dc:creator>
   </cc:Work>
  </rdf:RDF>
 </metadata>
 <defs>
  <style type="text/css">*{stroke-linejoin: round; stroke-linecap: butt}</style>
 </defs>
 <g id="figure_1">
  <g id="patch_1">
   <path d="M 0 345.6 
L 460.8 345.6 
L 460.8 0 
L 0 0 
z
" style="fill: #ffffff"/>
  </g>
  <g id="axes_1">
   <g id="patch_2">
    <path d="M 57.6 307.584 
L 414.72 307.584 
L 414.72 41.472 
L 57.6 41.472 
z
" style="fill: #ffffff"/>
   </g>
   <g id="matplotlib.axis_1">
    <g id="xtick_1">
     <g id="line2d_1">
      <path d="M 73.832727 307.584 
L 73.832727 41.472 
" clip-path="url(#p09b01df373)" style="fill: none; stroke: #b0b0b0; stroke-width: 0.8; stroke-linecap: square"/>
     </g>
     <g id="line2d_2">
      <defs>
       <path id="m51d4037d98" d="M 0 0 
L 0 3.5 
" style="stroke: #000000; stroke-width: 0.8"/>
      </defs>
      <g>
       <use xlink:href="#m51d4037d98" x="73.832727" y="307.584" style="stroke: #000000; stroke-width: 0.8"/>
      </g>
     </g>
     <g id="text_1">
      <!-- 0 -->
      <g transform="translate(70.651477 322.182437) scale(0.1 -0.1)">
       <defs>
        <path id="DejaVuSans-30" d="M 2034 4250 
Q 1547 4250 1301 3770 
Q 1056 3291 1056 2328 
Q 1056 1369 1301 889 
Q 1547 409 2034 409 
Q 2525 409 2770 889 
Q 3016 1369 3016 2328 
Q 3016 3291 2770 3770 
Q 2525 4250 2034 4250 
z
M 2034 4750 
Q 2819 4750 3233 4129 
Q 3647 3509 3647 2328 
Q 3647 1150 3233 529 
Q 2819 -91 2034 -91 
Q 1250 -91 836 529 
Q 422 1150 422 2328 
Q 422 3509 836 4129 
Q 1250 4750 2034 4750 
z
" transform="scale(0.015625)"/>
       </defs>
       <use xlink:href="#DejaVuSans-30"/>
      </g>
     </g>
    </g>
    <g id="xtick_2">
     <g id="line2d_3">
      <path d="M 127.959861 307.584 
L 127.959861 41.472 
" clip-path="url(#p09b01df373)" style="fill: none; stroke: #b0b0b0; stroke-width: 0.8; stroke-linecap: square"/>
     </g>
     <g id="line2d_4">
      <g>
       <use xlink:href="#m51d4037d98" x="127.959861" y="307.584" style="stroke: #000000; stroke-width: 0.8"/>
      </g>
     </g>
     <g id="text_2">
      <!-- 500 -->
      <g transform="translate(118.416111 322.182437) scale(0.1 -0.1)">
       <defs>
        <path id="DejaVuSans-35" d="M 691 4666 
L 3169 4666 
L 3169 4134 
L 1269 4134 
L 1269 2991 
Q 1406 3038 1543 3061 
Q 1681 3084 1819 3084 
Q 2600 3084 3056 2656 
Q 3513 2228 3513 1497 
Q 3513 744 3044 326 
Q 2575 -91 1722 -91 
Q 1428 -91 1123 -41 
Q 819 9 494 109 
L 494 744 
Q 775 591 1075 516 
Q 1375 441 1709 441 
Q 2250 441 2565 725 
Q 2881 1009 2881 1497 
Q 2881 1984 2565 2268 
Q 2250 2553 1709 2553 
Q 1456 2553 1204 2497 
Q 953 2441 691 2322 
L 691 4666 
z
" transform="scale(0.015625)"/>
       </defs>
       <use xlink:href="#DejaVuSans-35"/>
       <use xlink:href="#DejaVuSans-30" x="63.623047"/>
       <use xlink:href="#DejaVuSans-30" x="127.246094"/>
      </g>
     </g>
    </g>
    <g id="xtick_3">
     <g id="line2d_5">
      <path d="M 182.086994 307.584 
L 182.086994 41.472 
" clip-path="url(#p09b01df373)" style="fill: none; stroke: #b0b0b0; stroke-width: 0.8; stroke-linecap: square"/>
     </g>
     <g id="line2d_6">
      <g>
       <use xlink:href="#m51d4037d98" x="182.086994" y="307.584" style="stroke: #000000; stroke-width: 0.8"/>
      </g>
     </g>
     <g id="text_3">
      <!-- 1000 -->
      <g transform="translate(169.361994 322.182437) scale(0.1 -0.1)">
       <defs>
        <path id="DejaVuSans-31" d="M 794 531 
L 1825 531 
L 1825 4091 
L 703 3866 
L 703 4441 
L 1819 4666 
L 2450 4666 
L 2450 531 
L 3481 531 
L 3481 0 
L 794 0 
L 794 531 
z
" transform="scale(0.015625)"/>
       </defs>
       <use xlink:href="#DejaVuSans-31"/>
       <use xlink:href="#DejaVuSans-30" x="63.623047"/>
       <use xlink:href="#DejaVuSans-30" x="127.246094"/>
       <use xlink:href="#DejaVuSans-30" x="190.869141"/>
      </g>
     </g>
    </g>
    <g id="xtick_4">
     <g id="line2d_7">
      <path d="M 236.214127 307.584 
L 236.214127 41.472 
" clip-path="url(#p09b01df373)" style="fill: none; stroke: #b0b0b0; stroke-width: 0.8; stroke-linecap: square"/>
     </g>
     <g id="line2d_8">
      <g>
       <use xlink:href="#m51d4037d98" x="236.214127" y="307.584" style="stroke: #000000; stroke-width: 0.8"/>
      </g>
     </g>
     <g id="text_4">
      <!-- 1500 -->
      <g transform="translate(223.489127 322.182437) scale(0.1 -0.1)">
       <use xlink:href="#DejaVuSans-31"/>
       <use xlink:href="#DejaVuSans-35" x="63.623047"/>
       <use xlink:href="#DejaVuSans-30" x="127.246094"/>
       <use xlink:href="#DejaVuSans-30" x="190.869141"/>
      </g>
     </g>
    </g>
    <g id="xtick_5">
     <g id="line2d_9">
      <path d="M 290.34126 307.584 
L 290.34126 41.472 
" clip-path="url(#p09b01df373)" style="fill: none; stroke: #b0b0b0; stroke-width: 0.8; stroke-linecap: square"/>
     </g>
     <g id="line2d_10">
      <g>
       <use xlink:href="#m51d4037d98" x="290.34126" y="307.584" style="stroke: #000000; stroke-width: 0.8"/>
      </g>
     </g>
     <g id="text_5">
      <!-- 2000 -->
      <g transform="translate(277.61626 322.182437) scale(0.1 -0.1)">
       <defs>
        <path id="DejaVuSans-32" d="M 1228 531 
L 3431 531 
L 3431 0 
L 469 0 
L 469 531 
Q 828 903 1448 1529 
Q 2069 2156 2228 2338 
Q 2531 2678 2651 2914 
Q 2772 3150 2772 3378 
Q 2772 3750 2511 3984 
Q 2250 4219 1831 4219 
Q 1534 4219 1204 4116 
Q 875 4013 500 3803 
L 500 4441 
Q 881 4594 1212 4672 
Q 1544 4750 1819 4750 
Q 2544 4750 2975 4387 
Q 3406 4025 3406 3419 
Q 3406 3131 3298 2873 
Q 3191 2616 2906 2266 
Q 2828 2175 2409 1742 
Q 1991 1309 1228 531 
z
" transform="scale(0.015625)"/>
       </defs>
       <use xlink:href="#DejaVuSans-32"/>
       <use xlink:href="#DejaVuSans-30" x="63.623047"/>
       <use xlink:href="#DejaVuSans-30" x="127.246094"/>
       <use xlink:href="#DejaVuSans-30" x="190.869141"/>
      </g>
     </g>
    </g>
    <g id="xtick_6">
     <g id="line2d_11">
      <path d="M 344.468394 307.584 
L 344.468394 41.472 
" clip-path="url(#p09b01df373)" style="fill: none; stroke: #b0b0b0; stroke-width: 0.8; stroke-linecap: square"/>
     </g>
     <g id="line2d_12">
      <g>
       <use xlink:href="#m51d4037d98" x="344.468394" y="307.584" style="stroke: #000000; stroke-width: 0.8"/>
      </g>
     </g>
     <g id="text_6">
      <!-- 2500 -->
      <g transform="translate(331.743394 322.182437) scale(0.1 -0.1)">
       <use xlink:href="#DejaVuSans-32"/>
       <use xlink:href="#DejaVuSans-35" x="63.623047"/>
       <use xlink:href="#DejaVuSans-30" x="127.246094"/>
       <use xlink:href="#DejaVuSans-30" x="190.869141"/>
      </g>
     </g>
    </g>
    <g id="xtick_7">
     <g id="line2d_13">
      <path d="M 398.595527 307.584 
L 398.595527 41.472 
" clip-path="url(#p09b01df373)" style="fill: none; stroke: #b0b0b0; stroke-width: 0.8; stroke-linecap: square"/>
     </g>
     <g id="line2d_14">
      <g>
       <use xlink:href="#m51d4037d98" x="398.595527" y="307.584" style="stroke: #000000; stroke-width: 0.8"/>
      </g>
     </g>
     <g id="text_7">
      <!-- 3000 -->
      <g transform="translate(385.870527 322.182437) scale(0.1 -0.1)">
       <defs>
        <path id="DejaVuSans-33" d="M 2597 2516 
Q 3050 2419 3304 2112 
Q 3559 1806 3559 1356 
Q 3559 666 3084 287 
Q 2609 -91 1734 -91 
Q 1441 -91 1130 -33 
Q 819 25 488 141 
L 488 750 
Q 750 597 1062 519 
Q 1375 441 1716 441 
Q 2309 441 2620 675 
Q 2931 909 2931 1356 
Q 2931 1769 2642 2001 
Q 2353 2234 1838 2234 
L 1294 2234 
L 1294 2753 
L 1863 2753 
Q 2328 2753 2575 2939 
Q 2822 3125 2822 3475 
Q 2822 3834 2567 4026 
Q 2313 4219 1838 4219 
Q 1578 4219 1281 4162 
Q 984 4106 628 3988 
L 628 4550 
Q 988 4650 1302 4700 
Q 1616 4750 1894 4750 
Q 2613 4750 3031 4423 
Q 3450 4097 3450 3541 
Q 3450 3153 3228 2886 
Q 3006 2619 2597 2516 
z
" transform="scale(0.015625)"/>
       </defs>
       <use xlink:href="#DejaVuSans-33"/>
       <use xlink:href="#DejaVuSans-30" x="63.623047"/>
       <use xlink:href="#DejaVuSans-30" x="127.246094"/>
       <use xlink:href="#DejaVuSans-30" x="190.869141"/>
      </g>
     </g>
    </g>
    <g id="text_8">
     <!-- Samples -->
     <g transform="translate(214.806875 335.860562) scale(0.1 -0.1)">
      <defs>
       <path id="DejaVuSans-53" d="M 3425 4513 
L 3425 3897 
Q 3066 4069 2747 4153 
Q 2428 4238 2131 4238 
Q 1616 4238 1336 4038 
Q 1056 3838 1056 3469 
Q 1056 3159 1242 3001 
Q 1428 2844 1947 2747 
L 2328 2669 
Q 3034 2534 3370 2195 
Q 3706 1856 3706 1288 
Q 3706 609 3251 259 
Q 2797 -91 1919 -91 
Q 1588 -91 1214 -16 
Q 841 59 441 206 
L 441 856 
Q 825 641 1194 531 
Q 1563 422 1919 422 
Q 2459 422 2753 634 
Q 3047 847 3047 1241 
Q 3047 1584 2836 1778 
Q 2625 1972 2144 2069 
L 1759 2144 
Q 1053 2284 737 2584 
Q 422 2884 422 3419 
Q 422 4038 858 4394 
Q 1294 4750 2059 4750 
Q 2388 4750 2728 4690 
Q 3069 4631 3425 4513 
z
" transform="scale(0.015625)"/>
       <path id="DejaVuSans-61" d="M 2194 1759 
Q 1497 1759 1228 1600 
Q 959 1441 959 1056 
Q 959 750 1161 570 
Q 1363 391 1709 391 
Q 2188 391 2477 730 
Q 2766 1069 2766 1631 
L 2766 1759 
L 2194 1759 
z
M 3341 1997 
L 3341 0 
L 2766 0 
L 2766 531 
Q 2569 213 2275 61 
Q 1981 -91 1556 -91 
Q 1019 -91 701 211 
Q 384 513 384 1019 
Q 384 1609 779 1909 
Q 1175 2209 1959 2209 
L 2766 2209 
L 2766 2266 
Q 2766 2663 2505 2880 
Q 2244 3097 1772 3097 
Q 1472 3097 1187 3025 
Q 903 2953 641 2809 
L 641 3341 
Q 956 3463 1253 3523 
Q 1550 3584 1831 3584 
Q 2591 3584 2966 3190 
Q 3341 2797 3341 1997 
z
" transform="scale(0.015625)"/>
       <path id="DejaVuSans-6d" d="M 3328 2828 
Q 3544 3216 3844 3400 
Q 4144 3584 4550 3584 
Q 5097 3584 5394 3201 
Q 5691 2819 5691 2113 
L 5691 0 
L 5113 0 
L 5113 2094 
Q 5113 2597 4934 2840 
Q 4756 3084 4391 3084 
Q 3944 3084 3684 2787 
Q 3425 2491 3425 1978 
L 3425 0 
L 2847 0 
L 2847 2094 
Q 2847 2600 2669 2842 
Q 2491 3084 2119 3084 
Q 1678 3084 1418 2786 
Q 1159 2488 1159 1978 
L 1159 0 
L 581 0 
L 581 3500 
L 1159 3500 
L 1159 2956 
Q 1356 3278 1631 3431 
Q 1906 3584 2284 3584 
Q 2666 3584 2933 3390 
Q 3200 3197 3328 2828 
z
" transform="scale(0.015625)"/>
       <path id="DejaVuSans-70" d="M 1159 525 
L 1159 -1331 
L 581 -1331 
L 581 3500 
L 1159 3500 
L 1159 2969 
Q 1341 3281 1617 3432 
Q 1894 3584 2278 3584 
Q 2916 3584 3314 3078 
Q 3713 2572 3713 1747 
Q 3713 922 3314 415 
Q 2916 -91 2278 -91 
Q 1894 -91 1617 61 
Q 1341 213 1159 525 
z
M 3116 1747 
Q 3116 2381 2855 2742 
Q 2594 3103 2138 3103 
Q 1681 3103 1420 2742 
Q 1159 2381 1159 1747 
Q 1159 1113 1420 752 
Q 1681 391 2138 391 
Q 2594 391 2855 752 
Q 3116 1113 3116 1747 
z
" transform="scale(0.015625)"/>
       <path id="DejaVuSans-6c" d="M 603 4863 
L 1178 4863 
L 1178 0 
L 603 0 
L 603 4863 
z
" transform="scale(0.015625)"/>
       <path id="DejaVuSans-65" d="M 3597 1894 
L 3597 1613 
L 953 1613 
Q 991 1019 1311 708 
Q 1631 397 2203 397 
Q 2534 397 2845 478 
Q 3156 559 3463 722 
L 3463 178 
Q 3153 47 2828 -22 
Q 2503 -91 2169 -91 
Q 1331 -91 842 396 
Q 353 884 353 1716 
Q 353 2575 817 3079 
Q 1281 3584 2069 3584 
Q 2775 3584 3186 3129 
Q 3597 2675 3597 1894 
z
M 3022 2063 
Q 3016 2534 2758 2815 
Q 2500 3097 2075 3097 
Q 1594 3097 1305 2825 
Q 1016 2553 972 2059 
L 3022 2063 
z
" transform="scale(0.015625)"/>
       <path id="DejaVuSans-73" d="M 2834 3397 
L 2834 2853 
Q 2591 2978 2328 3040 
Q 2066 3103 1784 3103 
Q 1356 3103 1142 2972 
Q 928 2841 928 2578 
Q 928 2378 1081 2264 
Q 1234 2150 1697 2047 
L 1894 2003 
Q 2506 1872 2764 1633 
Q 3022 1394 3022 966 
Q 3022 478 2636 193 
Q 2250 -91 1575 -91 
Q 1294 -91 989 -36 
Q 684 19 347 128 
L 347 722 
Q 666 556 975 473 
Q 1284 391 1588 391 
Q 1994 391 2212 530 
Q 2431 669 2431 922 
Q 2431 1156 2273 1281 
Q 2116 1406 1581 1522 
L 1381 1569 
Q 847 1681 609 1914 
Q 372 2147 372 2553 
Q 372 3047 722 3315 
Q 1072 3584 1716 3584 
Q 2034 3584 2315 3537 
Q 2597 3491 2834 3397 
z
" transform="scale(0.015625)"/>
      </defs>
      <use xlink:href="#DejaVuSans-53"/>
      <use xlink:href="#DejaVuSans-61" x="63.476562"/>
      <use xlink:href="#DejaVuSans-6d" x="124.755859"/>
      <use xlink:href="#DejaVuSans-70" x="222.167969"/>
      <use xlink:href="#DejaVuSans-6c" x="285.644531"/>
      <use xlink:href="#DejaVuSans-65" x="313.427734"/>
      <use xlink:href="#DejaVuSans-73" x="374.951172"/>
     </g>
    </g>
   </g>
   <g id="matplotlib.axis_2">
    <g id="ytick_1">
     <g id="line2d_15">
      <path d="M 57.6 286.011198 
L 414.72 286.011198 
" clip-path="url(#p09b01df373)" style="fill: none; stroke: #b0b0b0; stroke-width: 0.8; stroke-linecap: square"/>
     </g>
     <g id="line2d_16">
      <defs>
       <path id="m2ff1ce3068" d="M 0 0 
L -3.5 0 
" style="stroke: #000000; stroke-width: 0.8"/>
      </defs>
      <g>
       <use xlink:href="#m2ff1ce3068" x="57.6" y="286.011198" style="stroke: #000000; stroke-width: 0.8"/>
      </g>
     </g>
     <g id="text_9">
      <!-- −3 -->
      <g transform="translate(35.857813 289.810417) scale(0.1 -0.1)">
       <defs>
        <path id="DejaVuSans-2212" d="M 678 2272 
L 4684 2272 
L 4684 1741 
L 678 1741 
L 678 2272 
z
" transform="scale(0.015625)"/>
       </defs>
       <use xlink:href="#DejaVuSans-2212"/>
       <use xlink:href="#DejaVuSans-33" x="83.789062"/>
      </g>
     </g>
    </g>
    <g id="ytick_2">
     <g id="line2d_17">
      <path d="M 57.6 256.306893 
L 414.72 256.306893 
" clip-path="url(#p09b01df373)" style="fill: none; stroke: #b0b0b0; stroke-width: 0.8; stroke-linecap: square"/>
     </g>
     <g id="line2d_18">
      <g>
       <use xlink:href="#m2ff1ce3068" x="57.6" y="256.306893" style="stroke: #000000; stroke-width: 0.8"/>
      </g>
     </g>
     <g id="text_10">
      <!-- −2 -->
      <g transform="translate(35.857813 260.106112) scale(0.1 -0.1)">
       <use xlink:href="#DejaVuSans-2212"/>
       <use xlink:href="#DejaVuSans-32" x="83.789062"/>
      </g>
     </g>
    </g>
    <g id="ytick_3">
     <g id="line2d_19">
      <path d="M 57.6 226.602588 
L 414.72 226.602588 
" clip-path="url(#p09b01df373)" style="fill: none; stroke: #b0b0b0; stroke-width: 0.8; stroke-linecap: square"/>
     </g>
     <g id="line2d_20">
      <g>
       <use xlink:href="#m2ff1ce3068" x="57.6" y="226.602588" style="stroke: #000000; stroke-width: 0.8"/>
      </g>
     </g>
     <g id="text_11">
      <!-- −1 -->
      <g transform="translate(35.857813 230.401806) scale(0.1 -0.1)">
       <use xlink:href="#DejaVuSans-2212"/>
       <use xlink:href="#DejaVuSans-31" x="83.789062"/>
      </g>
     </g>
    </g>
    <g id="ytick_4">
     <g id="line2d_21">
      <path d="M 57.6 196.898282 
L 414.72 196.898282 
" clip-path="url(#p09b01df373)" style="fill: none; stroke: #b0b0b0; stroke-width: 0.8; stroke-linecap: square"/>
     </g>
     <g id="line2d_22">
      <g>
       <use xlink:href="#m2ff1ce3068" x="57.6" y="196.898282" style="stroke: #000000; stroke-width: 0.8"/>
      </g>
     </g>
     <g id="text_12">
      <!-- 0 -->
      <g transform="translate(44.2375 200.697501) scale(0.1 -0.1)">
       <use xlink:href="#DejaVuSans-30"/>
      </g>
     </g>
    </g>
    <g id="ytick_5">
     <g id="line2d_23">
      <path d="M 57.6 167.193977 
L 414.72 167.193977 
" clip-path="url(#p09b01df373)" style="fill: none; stroke: #b0b0b0; stroke-width: 0.8; stroke-linecap: square"/>
     </g>
     <g id="line2d_24">
      <g>
       <use xlink:href="#m2ff1ce3068" x="57.6" y="167.193977" style="stroke: #000000; stroke-width: 0.8"/>
      </g>
     </g>
     <g id="text_13">
      <!-- 1 -->
      <g transform="translate(44.2375 170.993196) scale(0.1 -0.1)">
       <use xlink:href="#DejaVuSans-31"/>
      </g>
     </g>
    </g>
    <g id="ytick_6">
     <g id="line2d_25">
      <path d="M 57.6 137.489672 
L 414.72 137.489672 
" clip-path="url(#p09b01df373)" style="fill: none; stroke: #b0b0b0; stroke-width: 0.8; stroke-linecap: square"/>
     </g>
     <g id="line2d_26">
      <g>
       <use xlink:href="#m2ff1ce3068" x="57.6" y="137.489672" style="stroke: #000000; stroke-width: 0.8"/>
      </g>
     </g>
     <g id="text_14">
      <!-- 2 -->
      <g transform="translate(44.2375 141.288891) scale(0.1 -0.1)">
       <use xlink:href="#DejaVuSans-32"/>
      </g>
     </g>
    </g>
    <g id="ytick_7">
     <g id="line2d_27">
      <path d="M 57.6 107.785367 
L 414.72 107.785367 
" clip-path="url(#p09b01df373)" style="fill: none; stroke: #b0b0b0; stroke-width: 0.8; stroke-linecap: square"/>
     </g>
     <g id="line2d_28">
      <g>
       <use xlink:href="#m2ff1ce3068" x="57.6" y="107.785367" style="stroke: #000000; stroke-width: 0.8"/>
      </g>
     </g>
     <g id="text_15">
      <!-- 3 -->
      <g transform="translate(44.2375 111.584586) scale(0.1 -0.1)">
       <use xlink:href="#DejaVuSans-33"/>
      </g>
     </g>
    </g>
    <g id="ytick_8">
     <g id="line2d_29">
      <path d="M 57.6 78.081062 
L 414.72 78.081062 
" clip-path="url(#p09b01df373)" style="fill: none; stroke: #b0b0b0; stroke-width: 0.8; stroke-linecap: square"/>
     </g>
     <g id="line2d_30">
      <g>
       <use xlink:href="#m2ff1ce3068" x="57.6" y="78.081062" style="stroke: #000000; stroke-width: 0.8"/>
      </g>
     </g>
     <g id="text_16">
      <!-- 4 -->
      <g transform="translate(44.2375 81.880281) scale(0.1 -0.1)">
       <defs>
        <path id="DejaVuSans-34" d="M 2419 4116 
L 825 1625 
L 2419 1625 
L 2419 4116 
z
M 2253 4666 
L 3047 4666 
L 3047 1625 
L 3713 1625 
L 3713 1100 
L 3047 1100 
L 3047 0 
L 2419 0 
L 2419 1100 
L 313 1100 
L 313 1709 
L 2253 4666 
z
" transform="scale(0.015625)"/>
       </defs>
       <use xlink:href="#DejaVuSans-34"/>
      </g>
     </g>
    </g>
    <g id="ytick_9">
     <g id="line2d_31">
      <path d="M 57.6 48.376757 
L 414.72 48.376757 
" clip-path="url(#p09b01df373)" style="fill: none; stroke: #b0b0b0; stroke-width: 0.8; stroke-linecap: square"/>
     </g>
     <g id="line2d_32">
      <g>
       <use xlink:href="#m2ff1ce3068" x="57.6" y="48.376757" style="stroke: #000000; stroke-width: 0.8"/>
      </g>
     </g>
     <g id="text_17">
      <!-- 5 -->
      <g transform="translate(44.2375 52.175976) scale(0.1 -0.1)">
       <use xlink:href="#DejaVuSans-35"/>
      </g>
     </g>
    </g>
    <g id="text_18">
     <!-- Amplitude -->
     <g transform="translate(29.778125 200.150656) rotate(-90) scale(0.1 -0.1)">
      <defs>
       <path id="DejaVuSans-41" d="M 2188 4044 
L 1331 1722 
L 3047 1722 
L 2188 4044 
z
M 1831 4666 
L 2547 4666 
L 4325 0 
L 3669 0 
L 3244 1197 
L 1141 1197 
L 716 0 
L 50 0 
L 1831 4666 
z
" transform="scale(0.015625)"/>
       <path id="DejaVuSans-69" d="M 603 3500 
L 1178 3500 
L 1178 0 
L 603 0 
L 603 3500 
z
M 603 4863 
L 1178 4863 
L 1178 4134 
L 603 4134 
L 603 4863 
z
" transform="scale(0.015625)"/>
       <path id="DejaVuSans-74" d="M 1172 4494 
L 1172 3500 
L 2356 3500 
L 2356 3053 
L 1172 3053 
L 1172 1153 
Q 1172 725 1289 603 
Q 1406 481 1766 481 
L 2356 481 
L 2356 0 
L 1766 0 
Q 1100 0 847 248 
Q 594 497 594 1153 
L 594 3053 
L 172 3053 
L 172 3500 
L 594 3500 
L 594 4494 
L 1172 4494 
z
" transform="scale(0.015625)"/>
       <path id="DejaVuSans-75" d="M 544 1381 
L 544 3500 
L 1119 3500 
L 1119 1403 
Q 1119 906 1312 657 
Q 1506 409 1894 409 
Q 2359 409 2629 706 
Q 2900 1003 2900 1516 
L 2900 3500 
L 3475 3500 
L 3475 0 
L 2900 0 
L 2900 538 
Q 2691 219 2414 64 
Q 2138 -91 1772 -91 
Q 1169 -91 856 284 
Q 544 659 544 1381 
z
M 1991 3584 
L 1991 3584 
z
" transform="scale(0.015625)"/>
       <path id="DejaVuSans-64" d="M 2906 2969 
L 2906 4863 
L 3481 4863 
L 3481 0 
L 2906 0 
L 2906 525 
Q 2725 213 2448 61 
Q 2172 -91 1784 -91 
Q 1150 -91 751 415 
Q 353 922 353 1747 
Q 353 2572 751 3078 
Q 1150 3584 1784 3584 
Q 2172 3584 2448 3432 
Q 2725 3281 2906 2969 
z
M 947 1747 
Q 947 1113 1208 752 
Q 1469 391 1925 391 
Q 2381 391 2643 752 
Q 2906 1113 2906 1747 
Q 2906 2381 2643 2742 
Q 2381 3103 1925 3103 
Q 1469 3103 1208 2742 
Q 947 2381 947 1747 
z
" transform="scale(0.015625)"/>
      </defs>
      <use xlink:href="#DejaVuSans-41"/>
      <use xlink:href="#DejaVuSans-6d" x="68.408203"/>
      <use xlink:href="#DejaVuSans-70" x="165.820312"/>
      <use xlink:href="#DejaVuSans-6c" x="229.296875"/>
      <use xlink:href="#DejaVuSans-69" x="257.080078"/>
      <use xlink:href="#DejaVuSans-74" x="284.863281"/>
      <use xlink:href="#DejaVuSans-75" x="324.072266"/>
      <use xlink:href="#DejaVuSans-64" x="387.451172"/>
      <use xlink:href="#DejaVuSans-65" x="450.927734"/>
     </g>
    </g>
    <g id="text_19">
     <!-- 1e6 -->
     <g transform="translate(57.6 38.472) scale(0.1 -0.1)">
      <defs>
       <path id="DejaVuSans-36" d="M 2113 2584 
Q 1688 2584 1439 2293 
Q 1191 2003 1191 1497 
Q 1191 994 1439 701 
Q 1688 409 2113 409 
Q 2538 409 2786 701 
Q 3034 994 3034 1497 
Q 3034 2003 2786 2293 
Q 2538 2584 2113 2584 
z
M 3366 4563 
L 3366 3988 
Q 3128 4100 2886 4159 
Q 2644 4219 2406 4219 
Q 1781 4219 1451 3797 
Q 1122 3375 1075 2522 
Q 1259 2794 1537 2939 
Q 1816 3084 2150 3084 
Q 2853 3084 3261 2657 
Q 3669 2231 3669 1497 
Q 3669 778 3244 343 
Q 2819 -91 2113 -91 
Q 1303 -91 875 529 
Q 447 1150 447 2328 
Q 447 3434 972 4092 
Q 1497 4750 2381 4750 
Q 2619 4750 2861 4703 
Q 3103 4656 3366 4563 
z
" transform="scale(0.015625)"/>
      </defs>
      <use xlink:href="#DejaVuSans-31"/>
      <use xlink:href="#DejaVuSans-65" x="63.623047"/>
      <use xlink:href="#DejaVuSans-36" x="125.146484"/>
     </g>
    </g>
   </g>
   <g id="line2d_33">
    <path d="M 73.832727 264.490904 
L 73.940982 264.490904 
L 74.15749 265.488761 
L 74.807016 264.281756 
L 75.023524 263.622944 
L 75.240033 265.314218 
L 75.564796 262.299439 
L 75.67305 262.299439 
L 75.889558 261.909095 
L 76.106067 261.832725 
L 76.43083 263.076118 
L 76.539084 263.076118 
L 76.755592 263.434857 
L 76.972101 262.949696 
L 77.18861 263.349368 
L 77.621627 263.436104 
L 77.838135 264.012665 
L 78.054644 263.956375 
L 78.271152 263.48375 
L 78.812424 263.979188 
L 78.920678 263.979188 
L 79.137186 265.234462 
L 79.353695 265.334477 
L 79.570203 264.206396 
L 79.786712 264.894378 
L 80.00322 265.402202 
L 80.219729 265.057187 
L 80.436238 265.185599 
L 80.652746 265.221571 
L 80.869255 264.921943 
L 81.085763 264.934271 
L 81.302272 265.123962 
L 81.735289 265.41254 
L 82.060052 264.222229 
L 82.168306 264.222229 
L 82.384814 264.405296 
L 82.817831 264.608385 
L 83.250848 263.292009 
L 83.467357 263.257076 
L 83.79212 262.689249 
L 83.900374 262.689249 
L 84.116883 262.921447 
L 84.441645 265.050444 
L 84.5499 265.050444 
L 84.874662 264.128779 
L 85.199425 264.118679 
L 85.415934 264.299965 
L 85.632442 264.176692 
L 85.848951 264.341313 
L 86.065459 265.413015 
L 86.390222 265.007729 
L 86.498476 265.007729 
L 86.714985 264.893427 
L 87.039748 263.005808 
L 87.148002 263.005808 
L 87.472765 264.688557 
L 87.797528 264.629237 
L 88.338799 266.622396 
L 88.447053 266.622396 
L 88.663562 266.168336 
L 88.88007 265.746149 
L 89.096579 265.531208 
L 89.313087 265.510653 
L 89.529596 264.930706 
L 89.746104 264.958895 
L 89.962613 265.164004 
L 90.179122 263.934988 
L 90.39563 263.429391 
L 90.612139 263.445639 
L 90.936901 264.080153 
L 91.045156 264.080153 
L 91.261664 264.81275 
L 91.478173 265.340031 
L 91.694681 264.961955 
L 92.127698 264.222763 
L 92.344207 264.263666 
L 92.560715 264.484072 
L 92.777224 265.291554 
L 92.993732 265.095684 
L 93.643258 265.162726 
L 93.859767 266.175227 
L 94.292784 266.793255 
L 94.509292 268.414754 
L 94.725801 267.580122 
L 94.942309 267.036682 
L 95.375326 266.837336 
L 95.591835 267.345547 
L 95.808343 266.281212 
L 96.024852 265.305753 
L 96.24136 265.30195 
L 96.457869 265.524852 
L 96.674378 265.501385 
L 96.890886 263.670144 
L 97.107395 261.922135 
L 97.323903 261.898877 
L 97.75692 262.604978 
L 97.973429 262.58965 
L 98.298192 260.539727 
L 98.406446 260.539727 
L 98.622954 261.47559 
L 98.839463 261.25058 
L 99.055971 262.653604 
L 99.27248 263.146042 
L 99.488988 262.88304 
L 99.813751 260.346203 
L 99.922006 260.346203 
L 100.246768 262.129323 
L 100.355023 262.129323 
L 100.571531 262.512241 
L 100.78804 262.583056 
L 101.004548 263.392082 
L 101.437565 264.300826 
L 101.654074 263.995466 
L 101.870582 264.219436 
L 102.195345 263.955068 
L 102.303599 263.955068 
L 102.520108 264.885348 
L 102.736616 265.363587 
L 102.953125 263.914849 
L 103.169634 263.453303 
L 103.386142 263.688413 
L 103.602651 264.470735 
L 104.252176 267.101764 
L 104.576939 266.464428 
L 104.685193 266.464428 
L 104.901702 265.803537 
L 105.11821 265.383429 
L 105.551227 266.109462 
L 105.767736 265.786428 
L 105.984244 266.336314 
L 106.200753 265.037374 
L 106.417262 264.234526 
L 106.63377 265.080742 
L 106.850279 263.488354 
L 107.175041 264.165493 
L 107.283296 264.165493 
L 107.499804 265.348616 
L 107.716313 264.81474 
L 107.932821 264.390177 
L 108.14933 263.005095 
L 108.365838 262.543015 
L 108.690601 261.717621 
L 108.798855 261.717621 
L 109.015364 261.974949 
L 109.340127 264.07442 
L 109.448381 264.07442 
L 109.66489 262.808571 
L 109.881398 261.885688 
L 110.097907 261.527603 
L 110.314415 261.886995 
L 110.530924 261.785406 
L 110.747432 262.788105 
L 110.963941 262.278824 
L 111.180449 262.698843 
L 111.396958 262.505914 
L 111.613466 261.888094 
L 111.829975 259.830061 
L 112.046483 259.66235 
L 112.371246 260.549975 
L 112.4795 260.549975 
L 112.696009 260.84773 
L 112.912518 260.083736 
L 113.129026 260.836324 
L 113.453789 261.418677 
L 113.562043 261.418677 
L 113.778552 260.201068 
L 114.211569 261.608963 
L 114.644586 261.276274 
L 115.077603 261.64838 
L 115.294111 261.520355 
L 115.51062 262.935141 
L 115.727128 263.012699 
L 115.943637 263.813735 
L 116.160146 264.491082 
L 116.376654 264.766144 
L 116.593163 264.821721 
L 116.809671 264.781977 
L 117.02618 265.33718 
L 117.242688 264.831672 
L 117.459197 264.621157 
L 117.675705 262.820185 
L 117.892214 261.205875 
L 118.216977 262.053606 
L 118.325231 262.053606 
L 118.541739 261.278354 
L 118.758248 261.258452 
L 118.974756 260.282161 
L 119.191265 260.681149 
L 119.407774 260.622483 
L 119.624282 260.780153 
L 119.840791 260.096419 
L 120.057299 259.649578 
L 120.273808 259.860835 
L 120.490316 259.907173 
L 120.706825 259.764474 
L 120.923333 259.852933 
L 121.139842 260.396581 
L 121.35635 259.537444 
L 121.572859 260.300132 
L 121.789367 259.970236 
L 122.005876 262.044458 
L 122.222384 262.794521 
L 122.438893 261.741979 
L 122.655401 261.701373 
L 122.87191 261.231005 
L 123.088419 261.914887 
L 123.304927 262.408692 
L 123.521436 262.122015 
L 123.737944 260.848206 
L 124.062707 260.235851 
L 124.170961 260.235851 
L 124.38747 260.724042 
L 124.712233 259.916203 
L 124.820487 259.916203 
L 125.14525 258.819283 
L 125.470012 258.908841 
L 126.119538 259.729215 
L 126.336047 259.16112 
L 126.552555 258.99733 
L 126.769064 260.377155 
L 126.985572 260.021297 
L 127.202081 261.157428 
L 127.526843 260.646365 
L 127.635098 260.646365 
L 127.851606 260.285398 
L 128.068115 260.619007 
L 128.609386 259.798307 
L 128.71764 259.798307 
L 128.934149 259.131119 
L 129.150657 259.548286 
L 129.367166 259.451747 
L 129.583675 259.624745 
L 129.908437 261.198954 
L 130.016692 261.198954 
L 130.2332 261.633023 
L 130.449709 261.90556 
L 130.666217 262.005901 
L 130.882726 261.622448 
L 131.099234 261.903065 
L 131.315743 263.2457 
L 131.532251 263.548743 
L 131.74876 263.589022 
L 131.965268 263.992555 
L 132.181777 263.911997 
L 132.398285 262.843385 
L 132.614794 262.678496 
L 132.831303 264.057281 
L 133.047811 263.286008 
L 133.26432 262.99957 
L 133.480828 263.900828 
L 133.697337 264.2773 
L 133.913845 263.841598 
L 134.130354 263.470472 
L 134.346862 261.867568 
L 134.671625 263.51687 
L 134.779879 263.51687 
L 134.996388 253.812979 
L 135.321151 234.784431 
L 135.429405 234.784431 
L 135.645913 223.703893 
L 135.862422 213.183638 
L 136.187185 193.755686 
L 136.295439 193.755686 
L 136.511948 183.594883 
L 136.83671 165.489426 
L 136.944965 165.489426 
L 137.269727 145.327955 
L 137.377982 145.327955 
L 137.702745 125.588405 
L 137.810999 125.588405 
L 138.135762 105.169339 
L 138.244016 105.169339 
L 138.460524 94.474987 
L 138.785287 72.662224 
L 138.893541 72.662224 
L 139.11005 61.528338 
L 139.326559 60.541204 
L 139.651321 59.164648 
L 139.759576 59.164648 
L 139.976084 58.370414 
L 140.300847 57.092713 
L 140.409101 57.092713 
L 140.62561 56.699339 
L 140.842118 57.161864 
L 141.275135 55.81317 
L 141.491644 54.784065 
L 141.708152 54.907397 
L 141.924661 53.797852 
L 142.141169 53.858449 
L 142.357678 53.568 
L 142.682441 55.424341 
L 142.790695 55.424341 
L 143.007204 55.660936 
L 143.440221 55.352843 
L 143.764983 55.648965 
L 143.873238 55.648965 
L 144.089746 55.143249 
L 144.306255 55.757623 
L 144.631018 55.704542 
L 144.739272 55.704542 
L 145.172289 56.305668 
L 145.388797 56.690012 
L 145.605306 56.793917 
L 145.821815 57.247977 
L 146.038323 57.654659 
L 146.47134 57.742792 
L 146.687849 58.806384 
L 146.904357 58.507826 
L 147.120866 57.199916 
L 147.337374 57.5812 
L 147.770391 57.657303 
L 147.9869 58.16584 
L 148.203408 58.415386 
L 148.528171 57.969049 
L 148.636425 57.969049 
L 148.852934 58.370057 
L 149.069443 57.942791 
L 149.285951 57.604607 
L 149.50246 57.316594 
L 149.718968 57.141101 
L 149.935477 57.24875 
L 150.151985 57.623202 
L 150.368494 57.365666 
L 150.693257 57.990615 
L 150.801511 57.990615 
L 151.018019 57.625133 
L 151.234528 58.239982 
L 151.451036 58.228576 
L 151.667545 58.517094 
L 151.884053 58.632228 
L 152.100562 58.643486 
L 152.317071 58.087926 
L 152.533579 57.86351 
L 152.750088 58.20303 
L 152.966596 57.868886 
L 153.183105 57.565813 
L 153.399613 58.498172 
L 153.616122 58.741629 
L 153.83263 58.597474 
L 154.265647 58.383008 
L 154.482156 57.787615 
L 154.698664 58.030983 
L 154.915173 58.072717 
L 155.131681 57.685492 
L 155.34819 57.935424 
L 155.564699 57.915225 
L 155.781207 58.070489 
L 155.997716 57.791507 
L 156.214224 58.758798 
L 156.647241 58.753778 
L 156.86375 59.495732 
L 157.080258 59.41152 
L 157.513275 59.482454 
L 157.729784 58.509252 
L 158.162801 58.65308 
L 158.595818 58.829791 
L 158.812327 59.673393 
L 159.028835 59.598687 
L 159.245344 59.922345 
L 159.461852 60.977858 
L 159.678361 60.217101 
L 159.894869 59.653343 
L 160.327886 59.553774 
L 160.544395 58.839653 
L 160.760903 58.941034 
L 160.977412 58.969876 
L 161.19392 58.322768 
L 161.518683 58.805612 
L 162.492972 58.847198 
L 162.70948 59.442917 
L 162.925989 59.578399 
L 163.142497 58.694904 
L 163.359006 58.655189 
L 163.792023 57.419549 
L 164.441548 57.500999 
L 164.874565 57.298356 
L 165.091074 57.442867 
L 165.524091 57.543476 
L 165.7406 57.328298 
L 166.065362 58.940499 
L 166.390125 58.979798 
L 166.606634 59.934524 
L 166.823142 60.34982 
L 167.039651 59.707583 
L 167.256159 59.713256 
L 167.472668 60.463795 
L 167.689176 60.47939 
L 167.905685 60.392713 
L 168.122193 60.622119 
L 168.771719 60.735471 
L 168.988228 60.681171 
L 169.204736 60.72148 
L 169.421245 60.607534 
L 169.746007 60.913607 
L 169.854262 60.913607 
L 170.07077 61.647452 
L 170.287279 61.956525 
L 170.503787 61.225918 
L 170.720296 61.432601 
L 170.936804 60.659754 
L 171.153313 60.367108 
L 171.478076 60.703746 
L 171.58633 60.703746 
L 171.802839 60.156326 
L 172.127601 60.462934 
L 172.235856 60.462934 
L 172.452364 60.181485 
L 172.668873 60.81888 
L 172.993635 62.026034 
L 173.10189 62.026034 
L 173.426653 63.282674 
L 173.751415 63.311309 
L 174.076178 63.723635 
L 174.400941 63.678603 
L 174.617449 62.988453 
L 174.833958 62.946214 
L 175.050467 63.056743 
L 175.266975 62.971135 
L 175.483484 63.017266 
L 175.699992 63.466781 
L 176.241263 63.187294 
L 176.349518 63.187294 
L 176.566026 63.537537 
L 176.782535 63.748735 
L 176.999043 63.677088 
L 177.323806 62.641299 
L 177.43206 62.641299 
L 177.648569 62.182753 
L 177.865077 61.809489 
L 178.081586 62.11877 
L 178.298095 61.877096 
L 178.514603 62.237885 
L 178.731112 61.656601 
L 178.94762 61.290377 
L 179.164129 61.789528 
L 179.380637 61.739209 
L 179.7054 61.81038 
L 179.813654 61.81038 
L 180.030163 61.352726 
L 180.246671 61.294149 
L 180.46318 61.897206 
L 180.679688 61.934604 
L 180.896197 61.541942 
L 181.112705 61.492277 
L 181.329214 61.248553 
L 181.545723 61.699197 
L 181.762231 61.836253 
L 182.195248 61.556765 
L 182.411757 62.247004 
L 182.628265 62.413081 
L 182.844774 61.69486 
L 183.169537 62.491322 
L 183.494299 62.439577 
L 183.927316 63.376391 
L 184.143825 63.352628 
L 184.685096 63.695 
L 184.793351 63.695 
L 185.009859 63.851304 
L 185.334622 64.015717 
L 185.442876 64.015717 
L 185.767639 63.437344 
L 185.875893 63.437344 
L 186.092402 63.95016 
L 186.30891 64.10382 
L 186.525419 64.063333 
L 186.741927 63.279674 
L 187.06669 63.987349 
L 187.391453 63.930406 
L 187.716216 63.35842 
L 187.82447 63.35842 
L 188.040979 63.107211 
L 188.257487 63.23286 
L 188.58225 64.597001 
L 188.690504 64.597001 
L 188.907013 64.952323 
L 189.123521 64.336108 
L 189.34003 64.333018 
L 189.556538 64.496659 
L 189.773047 64.618893 
L 190.206064 64.696183 
L 190.422572 64.175378 
L 191.072098 64.242183 
L 191.288607 63.923574 
L 191.613369 63.471772 
L 191.721624 63.471772 
L 192.371149 64.255817 
L 192.695912 63.307388 
L 192.804166 63.307388 
L 193.020675 62.647745 
L 193.237183 62.575444 
L 193.453692 62.722897 
L 193.778455 62.512085 
L 193.886709 62.512085 
L 194.103217 63.873879 
L 194.319726 64.132247 
L 194.536235 64.002588 
L 194.752743 64.950274 
L 194.969252 64.965839 
L 195.18576 65.56343 
L 195.402269 65.645355 
L 195.618777 66.129891 
L 195.94354 66.6886 
L 196.268303 66.645914 
L 196.484811 66.875321 
L 196.70132 66.705531 
L 197.026083 67.22996 
L 197.134337 67.22996 
L 197.350845 67.909922 
L 197.783862 67.708616 
L 198.21688 68.587536 
L 198.433388 67.393037 
L 198.649897 67.259487 
L 198.866405 67.547589 
L 199.082914 66.556297 
L 199.299422 66.680163 
L 199.515931 66.067096 
L 199.732439 66.498522 
L 199.948948 66.43439 
L 200.165456 67.258061 
L 200.381965 67.826245 
L 200.598473 67.884317 
L 200.814982 67.688833 
L 201.03149 67.600551 
L 201.247999 67.152551 
L 201.464508 67.404028 
L 201.681016 66.851557 
L 201.897525 66.628062 
L 202.330542 67.730122 
L 202.54705 67.291062 
L 202.763559 67.056487 
L 202.980067 67.209108 
L 203.196576 66.987336 
L 203.521339 67.694179 
L 203.629593 67.694179 
L 203.846101 67.968914 
L 204.06261 67.438782 
L 204.279118 67.667802 
L 204.495627 66.579793 
L 204.712136 65.911119 
L 205.036898 65.618175 
L 205.145153 65.618175 
L 205.361661 65.95116 
L 205.57817 66.03261 
L 205.794678 65.638968 
L 206.011187 65.952675 
L 206.444204 66.165863 
L 206.660712 65.300785 
L 206.877221 65.256852 
L 207.093729 65.765479 
L 207.310238 65.728943 
L 207.526746 65.840898 
L 207.743255 65.82964 
L 207.959764 65.390878 
L 208.176272 65.350272 
L 208.392781 65.475119 
L 208.609289 64.981909 
L 209.042306 65.252367 
L 209.258815 65.559925 
L 209.475323 65.566608 
L 209.691832 65.365154 
L 210.124849 65.468198 
L 210.341357 65.159065 
L 210.557866 65.189809 
L 210.774374 65.376382 
L 211.207392 65.498081 
L 211.4239 65.132569 
L 211.856917 65.146857 
L 212.073426 65.31133 
L 212.506443 65.298319 
L 212.722951 65.523092 
L 212.93946 65.524072 
L 213.155968 66.51679 
L 213.372477 66.780742 
L 213.588985 66.549197 
L 213.805494 67.11043 
L 214.130257 67.747112 
L 214.888037 67.855503 
L 215.104545 68.387983 
L 215.321054 68.7971 
L 215.537562 68.764247 
L 215.754071 68.897204 
L 215.970579 69.345382 
L 216.187088 69.430188 
L 216.403596 69.30846 
L 216.620105 69.449882 
L 216.836613 69.505904 
L 217.053122 69.376958 
L 217.26963 69.448664 
L 217.702648 69.042309 
L 217.919156 69.605651 
L 218.135665 69.147938 
L 218.352173 68.796684 
L 218.568682 68.673233 
L 218.893444 69.367542 
L 219.218207 69.315084 
L 219.651224 68.79214 
L 219.867733 68.847924 
L 220.084241 69.583254 
L 220.517258 70.423262 
L 220.733767 71.317213 
L 221.166784 71.3105 
L 221.383293 71.390375 
L 221.599801 71.785739 
L 221.81631 71.18898 
L 222.032818 71.929389 
L 222.249327 71.564264 
L 222.465835 71.462616 
L 222.898852 72.541892 
L 223.115361 73.462043 
L 223.331869 73.143939 
L 223.548378 73.518421 
L 223.764886 72.795656 
L 224.197904 72.926355 
L 224.522666 72.36429 
L 224.630921 72.36429 
L 224.847429 72.085604 
L 225.063938 72.081119 
L 225.280446 72.849896 
L 225.496955 73.027528 
L 225.713463 73.131642 
L 225.929972 72.950208 
L 226.14648 73.035103 
L 226.362989 72.427471 
L 226.796006 73.198803 
L 227.012514 72.96102 
L 227.337277 71.204634 
L 227.445532 71.204634 
L 227.66204 71.332689 
L 227.878549 71.036864 
L 228.095057 71.187317 
L 228.311566 71.14475 
L 228.528074 71.214763 
L 228.744583 70.679937 
L 229.069346 70.232145 
L 229.1776 70.232145 
L 229.394108 69.501805 
L 229.718871 69.412128 
L 230.260142 69.398256 
L 230.476651 69.218693 
L 230.909668 68.887817 
L 231.126177 69.42297 
L 231.559194 69.991243 
L 231.775702 69.959489 
L 232.100465 70.235115 
L 232.208719 70.235115 
L 232.425228 70.617291 
L 232.641736 70.856173 
L 232.858245 70.888966 
L 233.074753 71.09853 
L 233.291262 70.97704 
L 233.50777 71.793522 
L 233.724279 71.750243 
L 233.940788 71.118313 
L 234.157296 71.600474 
L 234.373805 71.716142 
L 234.590313 71.623316 
L 234.806822 72.066712 
L 235.02333 72.127428 
L 235.239839 72.540526 
L 235.456347 71.706013 
L 236.214127 71.12164 
L 236.53889 71.17588 
L 236.755398 70.882758 
L 236.971907 71.267102 
L 237.404924 71.607751 
L 237.621433 71.964144 
L 237.837941 71.463923 
L 238.162704 72.074287 
L 238.270958 72.074287 
L 238.487467 72.28394 
L 238.703975 72.239651 
L 239.028738 72.8766 
L 239.136992 72.8766 
L 239.353501 73.047697 
L 239.570009 72.572963 
L 239.786518 72.668314 
L 240.003026 72.611846 
L 240.219535 73.099709 
L 240.436044 73.524897 
L 240.652552 73.585256 
L 240.869061 73.409406 
L 241.193823 74.615758 
L 241.951603 74.550052 
L 242.168112 74.263494 
L 242.601129 74.350469 
L 242.817637 73.858922 
L 243.250654 73.650279 
L 243.467163 72.82839 
L 243.683672 72.880729 
L 244.008434 73.74557 
L 244.116689 73.74557 
L 244.441451 73.999482 
L 244.766214 74.057703 
L 244.982723 74.402629 
L 245.199231 74.58136 
L 245.632248 73.07051 
L 245.848757 72.986001 
L 246.065265 73.615376 
L 246.281774 73.585137 
L 246.823045 74.226394 
L 247.147808 74.218106 
L 247.364317 74.794221 
L 247.689079 74.876116 
L 247.797334 74.876116 
L 248.122096 75.385753 
L 248.230351 75.385753 
L 248.446859 74.932316 
L 248.663368 74.947792 
L 248.879876 74.476979 
L 249.096385 74.071723 
L 249.637656 75.415546 
L 250.178928 75.403694 
L 250.395436 74.595975 
L 250.720199 75.19918 
L 250.828453 75.19918 
L 251.153216 74.340369 
L 251.477979 74.319071 
L 251.694487 73.89528 
L 251.910996 73.831326 
L 252.127504 73.979907 
L 252.77703 73.486905 
L 252.993538 73.606792 
L 253.210047 73.570344 
L 253.426556 73.681943 
L 253.751318 72.40454 
L 254.076081 72.368241 
L 254.29259 72.930128 
L 254.725607 72.973466 
L 254.942115 72.907493 
L 255.158624 73.795176 
L 255.375132 73.870982 
L 256.024658 73.940698 
L 256.241166 74.350528 
L 256.565929 74.736327 
L 256.674184 74.736327 
L 256.890692 74.619203 
L 257.107201 74.94099 
L 257.323709 74.949456 
L 257.540218 75.280659 
L 257.756726 75.354682 
L 257.973235 75.297412 
L 258.189743 75.979779 
L 258.839269 75.720431 
L 259.055777 75.841446 
L 259.272286 75.597218 
L 259.488794 74.568409 
L 259.705303 75.827931 
L 259.921812 75.989552 
L 260.13832 75.898805 
L 260.354829 76.350281 
L 260.571337 75.914549 
L 260.787846 75.879557 
L 261.220863 76.200572 
L 261.437371 75.859031 
L 261.65388 76.002622 
L 261.870388 75.621991 
L 262.195151 76.755567 
L 262.303405 76.755567 
L 262.519914 76.545379 
L 262.736422 77.188923 
L 262.952931 77.10988 
L 263.16944 77.51365 
L 263.385948 77.811406 
L 263.818965 78.032198 
L 264.035474 76.736526 
L 264.251982 76.706317 
L 264.576745 76.88285 
L 264.684999 76.88285 
L 264.901508 77.144604 
L 265.118016 77.329127 
L 265.334525 76.989013 
L 265.551033 77.76679 
L 265.767542 77.94463 
L 265.98405 77.876399 
L 266.200559 78.074676 
L 266.417068 78.017435 
L 266.74183 77.342969 
L 266.850085 77.342969 
L 267.066593 76.997182 
L 267.283102 76.801905 
L 267.49961 77.323662 
L 267.716119 77.325266 
L 267.932627 77.599407 
L 268.149136 77.450588 
L 268.365644 77.499392 
L 268.690407 78.913169 
L 268.798661 78.913169 
L 269.01517 78.590669 
L 269.339933 78.307052 
L 269.664696 78.398334 
L 269.881204 77.990642 
L 270.314221 78.212385 
L 270.53073 78.71412 
L 270.747238 78.881326 
L 270.963747 78.810124 
L 271.180255 79.123119 
L 271.396764 78.800233 
L 271.613272 79.230292 
L 271.829781 78.555915 
L 272.046289 78.257001 
L 272.371052 79.321098 
L 272.479306 79.321098 
L 272.804069 79.66044 
L 272.912324 79.66044 
L 273.128832 79.112098 
L 273.345341 79.090503 
L 273.561849 79.287532 
L 273.994866 79.356505 
L 274.211375 78.984934 
L 274.427883 79.064393 
L 274.8609 78.484684 
L 275.077409 78.42278 
L 275.293917 78.614165 
L 275.510426 78.36652 
L 275.726934 78.591709 
L 275.943443 78.250287 
L 276.159951 78.157105 
L 276.37646 78.260595 
L 276.592969 78.974983 
L 276.809477 78.382085 
L 277.13424 78.319142 
L 277.242494 78.319142 
L 277.459003 78.195216 
L 277.675511 78.745577 
L 277.89202 78.675297 
L 278.108528 78.742785 
L 278.433291 78.653939 
L 278.974562 78.73423 
L 279.191071 78.964112 
L 279.407579 78.601333 
L 279.624088 78.351163 
L 279.840597 78.44491 
L 280.057105 78.254773 
L 280.490122 78.378105 
L 280.706631 79.042531 
L 280.923139 77.894875 
L 281.247902 77.865587 
L 281.356156 77.865587 
L 281.572665 77.407903 
L 281.789173 77.521225 
L 282.005682 77.335187 
L 282.22219 77.484154 
L 282.438699 77.496303 
L 282.655207 77.701203 
L 283.304733 77.743027 
L 283.521242 77.462886 
L 283.73775 77.568692 
L 283.954259 78.65783 
L 284.170767 78.892881 
L 284.387276 78.858513 
L 284.820293 80.122282 
L 285.036801 79.966988 
L 285.25331 79.974296 
L 285.469818 80.124688 
L 285.686327 80.065012 
L 286.01109 80.56957 
L 286.119344 80.56957 
L 286.335853 81.101336 
L 286.552361 81.016441 
L 287.201887 80.973519 
L 287.418395 81.353377 
L 287.851412 81.490136 
L 288.067921 82.336441 
L 288.284429 81.325931 
L 288.500938 81.057552 
L 288.825701 81.282325 
L 289.150463 81.18231 
L 289.366972 80.782639 
L 289.691735 80.858593 
L 289.799989 80.858593 
L 290.016498 81.491324 
L 290.233006 81.160953 
L 290.449515 80.945478 
L 290.666023 80.22595 
L 290.882532 80.199009 
L 291.532057 80.875019 
L 291.748566 80.510666 
L 291.965074 80.627285 
L 292.181583 80.587689 
L 292.398091 79.965295 
L 292.6146 79.908738 
L 292.831109 80.045378 
L 293.264126 80.039794 
L 293.480634 79.308949 
L 293.697143 79.364407 
L 293.913651 80.249328 
L 294.13016 80.237773 
L 294.346668 79.686431 
L 294.563177 80.261922 
L 294.88794 80.774114 
L 295.212702 80.862662 
L 295.429211 80.901545 
L 295.753974 80.680129 
L 296.728262 80.647841 
L 296.944771 81.07891 
L 297.161279 81.14613 
L 297.377788 81.109178 
L 297.594296 81.183023 
L 297.810805 81.967157 
L 298.027313 82.087311 
L 298.243822 81.808328 
L 298.568585 82.099134 
L 298.676839 82.099134 
L 298.893347 81.709413 
L 299.21811 82.33956 
L 299.759382 82.395701 
L 300.625416 82.851365 
L 301.058433 82.900764 
L 301.274941 82.96748 
L 301.49145 83.38132 
L 301.707958 83.416312 
L 302.140975 82.358868 
L 302.357484 82.331718 
L 302.573993 81.745623 
L 302.790501 81.83025 
L 303.00701 82.447951 
L 303.223518 82.941726 
L 303.548281 81.969979 
L 303.656535 81.969979 
L 303.873044 82.104777 
L 304.197807 81.766119 
L 304.306061 81.766119 
L 304.522569 82.913061 
L 304.955586 82.772025 
L 305.172095 83.699007 
L 305.605112 83.540089 
L 305.821621 83.156726 
L 306.038129 84.030894 
L 306.254638 83.988506 
L 306.5794 84.081332 
L 306.904163 84.136908 
L 307.120672 84.728024 
L 307.33718 84.059855 
L 307.553689 83.92883 
L 307.770197 84.824207 
L 307.986706 84.896566 
L 308.419723 84.98161 
L 308.636231 85.292703 
L 308.85274 84.103729 
L 309.069249 84.311154 
L 309.285757 84.354284 
L 309.502266 83.616281 
L 309.718774 84.814612 
L 309.935283 84.610395 
L 310.151791 84.599434 
L 310.3683 83.927374 
L 311.234334 84.085312 
L 311.450842 83.335635 
L 311.667351 83.444055 
L 311.992114 82.167454 
L 312.100368 82.167454 
L 312.425131 83.523782 
L 312.749894 83.517395 
L 312.966402 83.41245 
L 313.182911 83.455462 
L 313.615928 84.595988 
L 313.832436 84.712103 
L 314.048945 83.703225 
L 314.265453 84.270251 
L 314.481962 84.434041 
L 315.131487 84.824266 
L 315.347996 85.155588 
L 315.672759 85.755585 
L 315.781013 85.755585 
L 316.21403 86.341235 
L 316.430539 87.21977 
L 316.755301 86.393336 
L 316.863556 86.393336 
L 317.404827 88.503857 
L 317.513081 88.503857 
L 317.837844 87.871571 
L 317.946098 87.871571 
L 318.379115 88.823564 
L 318.595624 88.491649 
L 318.812133 89.266575 
L 319.028641 89.667494 
L 319.353404 90.32485 
L 319.461658 90.32485 
L 320.002929 91.355173 
L 320.111184 91.355173 
L 320.327692 91.547241 
L 320.544201 92.173349 
L 320.760709 91.665197 
L 321.085472 92.20537 
L 321.193726 92.20537 
L 321.410235 92.356476 
L 321.626743 91.606769 
L 321.843252 91.865315 
L 322.059761 92.980949 
L 322.276269 93.426722 
L 322.492778 93.81974 
L 322.709286 93.895931 
L 322.925795 94.23462 
L 323.142303 93.9483 
L 323.358812 94.103772 
L 323.57532 94.621756 
L 324.224846 95.629118 
L 324.441354 95.324827 
L 324.657863 95.442634 
L 324.874371 94.772416 
L 325.09088 95.211356 
L 325.307389 94.704155 
L 325.523897 94.862331 
L 325.84866 113.560894 
L 325.956914 113.560894 
L 326.281677 131.871519 
L 326.389931 131.871519 
L 326.60644 140.912707 
L 326.931203 158.959974 
L 327.039457 158.959974 
L 327.255965 169.311983 
L 327.580728 189.544744 
L 327.688982 189.544744 
L 328.013745 208.141748 
L 328.121999 208.141748 
L 328.446762 227.450497 
L 328.555017 227.450497 
L 328.879779 248.028927 
L 328.988034 248.028927 
L 329.204542 257.908816 
L 329.529305 277.144819 
L 329.637559 277.144819 
L 329.854068 287.005995 
L 330.178831 287.756593 
L 330.287085 287.756593 
L 330.611848 288.606463 
L 330.720102 288.606463 
L 330.93661 289.572031 
L 331.153119 290.348234 
L 331.369627 290.767778 
L 331.586136 290.044775 
L 331.802645 289.932434 
L 332.019153 289.334872 
L 332.235662 288.845048 
L 332.668679 287.71973 
L 332.885187 286.744775 
L 333.101696 287.576199 
L 333.318204 287.01654 
L 333.534713 287.704848 
L 333.751221 287.960573 
L 333.96773 288.897149 
L 334.184238 288.698457 
L 334.400747 290.15177 
L 334.617255 289.717939 
L 334.833764 290.162612 
L 335.050273 290.163384 
L 335.266781 289.763921 
L 335.48329 289.758515 
L 335.699798 289.129615 
L 336.024561 288.224971 
L 336.349324 288.310311 
L 336.565832 290.132997 
L 336.782341 291.257513 
L 337.215358 293.510881 
L 337.431866 292.409654 
L 337.864883 291.495741 
L 338.081392 291.750278 
L 338.514409 292.626555 
L 338.730918 291.992873 
L 338.947426 292.513322 
L 339.163935 292.720598 
L 339.380443 292.133404 
L 339.596952 292.053054 
L 339.81346 292.515282 
L 340.029969 292.627624 
L 340.354732 293.73001 
L 340.462986 293.73001 
L 341.112511 292.448032 
L 341.32902 292.779859 
L 341.545529 291.288108 
L 341.762037 292.336551 
L 342.0868 293.88774 
L 342.195054 293.88774 
L 342.736325 291.631104 
L 342.84458 291.631104 
L 343.061088 291.155746 
L 343.494105 291.002204 
L 343.710614 292.021597 
L 343.927122 291.959841 
L 344.360139 292.042657 
L 344.576648 291.780517 
L 344.793157 291.56819 
L 345.009665 292.510916 
L 345.226174 291.997804 
L 345.442682 291.737 
L 345.659191 292.890329 
L 345.875699 292.726658 
L 346.092208 291.969644 
L 346.308716 292.276014 
L 346.525225 291.802022 
L 346.741733 292.36679 
L 346.958242 292.840218 
L 347.283005 293.896651 
L 347.391259 293.896651 
L 347.607767 294.053579 
L 347.824276 294.883933 
L 348.040785 294.766334 
L 348.257293 295.488 
L 348.473802 295.235632 
L 348.906819 295.266851 
L 349.123327 295.463761 
L 349.339836 294.315868 
L 349.556344 294.205487 
L 349.772853 293.724604 
L 349.989361 292.04337 
L 350.20587 293.308417 
L 350.422378 294.067124 
L 350.638887 294.101403 
L 350.855395 292.971154 
L 351.071904 292.774631 
L 351.288413 293.053316 
L 351.504921 292.900844 
L 351.72143 292.837069 
L 351.937938 291.825162 
L 352.262701 291.624747 
L 352.370955 291.624747 
L 352.587464 290.713568 
L 352.803972 291.31309 
L 353.128735 292.25228 
L 353.236989 292.25228 
L 353.453498 291.401252 
L 353.778261 292.236894 
L 353.886515 292.236894 
L 354.103023 294.025419 
L 354.319532 294.103334 
L 354.53604 293.426789 
L 354.752549 293.493653 
L 354.969058 292.807305 
L 355.185566 293.37546 
L 355.402075 292.405852 
L 355.618583 292.501232 
L 355.835092 291.670492 
L 356.0516 291.192045 
L 356.268109 291.206956 
L 356.484617 290.511965 
L 356.701126 289.957177 
L 356.917634 290.320134 
L 357.134143 289.70974 
L 357.350651 289.65152 
L 357.56716 289.797814 
L 357.891923 291.299247 
L 358.000177 291.299247 
L 358.32494 288.459041 
L 358.433194 288.459041 
L 358.649703 288.847959 
L 358.866211 288.640267 
L 359.08272 288.529232 
L 359.299228 287.636617 
L 359.515737 288.019684 
L 359.732245 289.23768 
L 359.948754 289.52495 
L 360.165262 290.551768 
L 360.598279 290.279499 
L 361.031296 290.275191 
L 361.247805 289.474126 
L 361.464314 290.423624 
L 361.680822 290.431882 
L 361.897331 290.561125 
L 362.330348 289.920819 
L 362.546856 290.912884 
L 362.763365 291.597211 
L 362.979873 290.97449 
L 363.41289 290.221991 
L 363.629399 290.969559 
L 363.845907 291.270612 
L 364.062416 290.854485 
L 364.278924 290.714786 
L 364.495433 289.416113 
L 364.711942 289.34013 
L 364.92845 289.757861 
L 365.144959 288.528578 
L 365.361467 288.311707 
L 365.577976 288.792056 
L 365.794484 288.099321 
L 366.119247 287.640835 
L 366.227501 287.640835 
L 366.44401 287.956681 
L 366.768773 288.187662 
L 366.877027 288.187662 
L 367.093535 287.959474 
L 367.310044 289.064444 
L 367.526552 289.798794 
L 367.743061 290.03521 
L 368.176078 289.928037 
L 368.500841 287.659193 
L 368.609095 287.659193 
L 368.825604 287.907877 
L 369.150366 288.044666 
L 369.258621 288.044666 
L 369.475129 289.10499 
L 369.691638 289.800071 
L 369.908146 289.687254 
L 370.124655 289.708047 
L 370.341163 290.382038 
L 370.77418 290.138849 
L 370.990689 290.388127 
L 371.207198 289.782367 
L 371.53196 289.015254 
L 371.640215 289.015254 
L 371.856723 288.4531 
L 372.073232 288.24113 
L 372.28974 288.677367 
L 372.506249 287.725879 
L 372.722757 289.249532 
L 372.939266 290.531837 
L 373.155774 290.788571 
L 373.372283 290.698478 
L 373.588791 290.309292 
L 373.8053 290.559135 
L 374.021808 289.830637 
L 374.454826 290.57369 
L 374.671334 289.996684 
L 374.887843 289.922631 
L 375.104351 290.69527 
L 375.32086 290.210466 
L 375.537368 290.487755 
L 375.753877 290.679081 
L 375.970385 290.644475 
L 376.186894 290.308341 
L 376.403402 290.995551 
L 376.619911 290.273172 
L 376.836419 291.354022 
L 377.052928 290.54357 
L 377.269436 290.343571 
L 377.485945 290.910596 
L 377.702454 290.599681 
L 377.918962 291.479404 
L 378.135471 291.276791 
L 378.351979 291.267434 
L 378.676742 290.78762 
L 378.784996 290.78762 
L 379.001505 290.432595 
L 379.218013 290.886358 
L 379.434522 289.455145 
L 379.65103 288.850127 
L 379.867539 289.515593 
L 380.084047 289.416975 
L 380.300556 289.644539 
L 380.517064 289.802952 
L 380.733573 289.265869 
L 380.950082 289.760861 
L 381.16659 288.876356 
L 381.383099 289.403192 
L 381.92437 289.977168 
L 382.032624 289.977168 
L 382.357387 288.791224 
L 382.68215 288.802214 
L 382.898658 289.225828 
L 383.115167 288.081499 
L 383.331675 288.014605 
L 383.548184 287.170408 
L 383.872947 288.506241 
L 383.981201 288.506241 
L 384.19771 287.458986 
L 384.414218 287.401478 
L 384.630727 286.562658 
L 384.847235 286.312845 
L 385.063744 286.423612 
L 385.280252 285.606269 
L 385.496761 286.190523 
L 385.929778 285.782564 
L 386.146286 286.322083 
L 386.362795 286.815917 
L 386.795812 288.160186 
L 387.120575 287.422925 
L 387.228829 287.422925 
L 387.445338 288.552223 
L 387.661846 288.615226 
L 387.878355 289.372002 
L 388.094863 290.061944 
L 388.311372 290.06135 
L 388.52788 291.265771 
L 388.744389 291.534951 
L 388.960897 291.575349 
L 389.177406 291.524941 
L 389.393914 290.751856 
L 389.610423 291.339913 
L 389.826931 291.189787 
L 390.04344 290.643733 
L 390.259948 290.728984 
L 390.476457 289.856717 
L 390.692966 290.143958 
L 390.909474 290.391009 
L 391.125983 290.370542 
L 391.342491 291.023889 
L 391.559 290.885496 
L 391.775508 289.846945 
L 391.992017 290.742084 
L 392.208525 290.366918 
L 392.425034 289.030106 
L 392.749797 287.456253 
L 392.858051 287.456253 
L 393.291068 286.207751 
L 393.615831 287.626132 
L 393.940594 287.601715 
L 394.265356 287.141536 
L 394.373611 287.141536 
L 394.698373 285.425696 
L 394.806628 285.425696 
L 395.023136 283.907806 
L 395.239645 283.023064 
L 395.564408 281.97064 
L 395.672662 281.97064 
L 395.88917 282.622026 
L 396.105679 282.468603 
L 396.322187 282.554538 
L 396.538696 282.262841 
L 396.971713 282.891444 
L 397.188222 282.181808 
L 397.40473 282.283605 
L 397.621239 283.2274 
L 397.837747 283.21629 
L 398.16251 283.92551 
L 398.270764 283.92551 
L 398.487273 283.493996 
L 398.487273 283.493996 
" clip-path="url(#p09b01df373)" style="fill: none; stroke: #ff0000; stroke-width: 1.5; stroke-linecap: square"/>
   </g>
   <g id="patch_3">
    <path d="M 57.6 307.584 
L 57.6 41.472 
" style="fill: none; stroke: #000000; stroke-width: 0.8; stroke-linejoin: miter; stroke-linecap: square"/>
   </g>
   <g id="patch_4">
    <path d="M 414.72 307.584 
L 414.72 41.472 
" style="fill: none; stroke: #000000; stroke-width: 0.8; stroke-linejoin: miter; stroke-linecap: square"/>
   </g>
   <g id="patch_5">
    <path d="M 57.6 307.584 
L 414.72 307.584 
" style="fill: none; stroke: #000000; stroke-width: 0.8; stroke-linejoin: miter; stroke-linecap: square"/>
   </g>
   <g id="patch_6">
    <path d="M 57.6 41.472 
L 414.72 41.472 
" style="fill: none; stroke: #000000; stroke-width: 0.8; stroke-linejoin: miter; stroke-linecap: square"/>
   </g>
   <g id="text_20">
    <!-- Output order 19 moving average FIR (channel L) -->
    <g transform="translate(90.268125 35.472) scale(0.12 -0.12)">
     <defs>
      <path id="DejaVuSans-4f" d="M 2522 4238 
Q 1834 4238 1429 3725 
Q 1025 3213 1025 2328 
Q 1025 1447 1429 934 
Q 1834 422 2522 422 
Q 3209 422 3611 934 
Q 4013 1447 4013 2328 
Q 4013 3213 3611 3725 
Q 3209 4238 2522 4238 
z
M 2522 4750 
Q 3503 4750 4090 4092 
Q 4678 3434 4678 2328 
Q 4678 1225 4090 567 
Q 3503 -91 2522 -91 
Q 1538 -91 948 565 
Q 359 1222 359 2328 
Q 359 3434 948 4092 
Q 1538 4750 2522 4750 
z
" transform="scale(0.015625)"/>
      <path id="DejaVuSans-20" transform="scale(0.015625)"/>
      <path id="DejaVuSans-6f" d="M 1959 3097 
Q 1497 3097 1228 2736 
Q 959 2375 959 1747 
Q 959 1119 1226 758 
Q 1494 397 1959 397 
Q 2419 397 2687 759 
Q 2956 1122 2956 1747 
Q 2956 2369 2687 2733 
Q 2419 3097 1959 3097 
z
M 1959 3584 
Q 2709 3584 3137 3096 
Q 3566 2609 3566 1747 
Q 3566 888 3137 398 
Q 2709 -91 1959 -91 
Q 1206 -91 779 398 
Q 353 888 353 1747 
Q 353 2609 779 3096 
Q 1206 3584 1959 3584 
z
" transform="scale(0.015625)"/>
      <path id="DejaVuSans-72" d="M 2631 2963 
Q 2534 3019 2420 3045 
Q 2306 3072 2169 3072 
Q 1681 3072 1420 2755 
Q 1159 2438 1159 1844 
L 1159 0 
L 581 0 
L 581 3500 
L 1159 3500 
L 1159 2956 
Q 1341 3275 1631 3429 
Q 1922 3584 2338 3584 
Q 2397 3584 2469 3576 
Q 2541 3569 2628 3553 
L 2631 2963 
z
" transform="scale(0.015625)"/>
      <path id="DejaVuSans-39" d="M 703 97 
L 703 672 
Q 941 559 1184 500 
Q 1428 441 1663 441 
Q 2288 441 2617 861 
Q 2947 1281 2994 2138 
Q 2813 1869 2534 1725 
Q 2256 1581 1919 1581 
Q 1219 1581 811 2004 
Q 403 2428 403 3163 
Q 403 3881 828 4315 
Q 1253 4750 1959 4750 
Q 2769 4750 3195 4129 
Q 3622 3509 3622 2328 
Q 3622 1225 3098 567 
Q 2575 -91 1691 -91 
Q 1453 -91 1209 -44 
Q 966 3 703 97 
z
M 1959 2075 
Q 2384 2075 2632 2365 
Q 2881 2656 2881 3163 
Q 2881 3666 2632 3958 
Q 2384 4250 1959 4250 
Q 1534 4250 1286 3958 
Q 1038 3666 1038 3163 
Q 1038 2656 1286 2365 
Q 1534 2075 1959 2075 
z
" transform="scale(0.015625)"/>
      <path id="DejaVuSans-76" d="M 191 3500 
L 800 3500 
L 1894 563 
L 2988 3500 
L 3597 3500 
L 2284 0 
L 1503 0 
L 191 3500 
z
" transform="scale(0.015625)"/>
      <path id="DejaVuSans-6e" d="M 3513 2113 
L 3513 0 
L 2938 0 
L 2938 2094 
Q 2938 2591 2744 2837 
Q 2550 3084 2163 3084 
Q 1697 3084 1428 2787 
Q 1159 2491 1159 1978 
L 1159 0 
L 581 0 
L 581 3500 
L 1159 3500 
L 1159 2956 
Q 1366 3272 1645 3428 
Q 1925 3584 2291 3584 
Q 2894 3584 3203 3211 
Q 3513 2838 3513 2113 
z
" transform="scale(0.015625)"/>
      <path id="DejaVuSans-67" d="M 2906 1791 
Q 2906 2416 2648 2759 
Q 2391 3103 1925 3103 
Q 1463 3103 1205 2759 
Q 947 2416 947 1791 
Q 947 1169 1205 825 
Q 1463 481 1925 481 
Q 2391 481 2648 825 
Q 2906 1169 2906 1791 
z
M 3481 434 
Q 3481 -459 3084 -895 
Q 2688 -1331 1869 -1331 
Q 1566 -1331 1297 -1286 
Q 1028 -1241 775 -1147 
L 775 -588 
Q 1028 -725 1275 -790 
Q 1522 -856 1778 -856 
Q 2344 -856 2625 -561 
Q 2906 -266 2906 331 
L 2906 616 
Q 2728 306 2450 153 
Q 2172 0 1784 0 
Q 1141 0 747 490 
Q 353 981 353 1791 
Q 353 2603 747 3093 
Q 1141 3584 1784 3584 
Q 2172 3584 2450 3431 
Q 2728 3278 2906 2969 
L 2906 3500 
L 3481 3500 
L 3481 434 
z
" transform="scale(0.015625)"/>
      <path id="DejaVuSans-46" d="M 628 4666 
L 3309 4666 
L 3309 4134 
L 1259 4134 
L 1259 2759 
L 3109 2759 
L 3109 2228 
L 1259 2228 
L 1259 0 
L 628 0 
L 628 4666 
z
" transform="scale(0.015625)"/>
      <path id="DejaVuSans-49" d="M 628 4666 
L 1259 4666 
L 1259 0 
L 628 0 
L 628 4666 
z
" transform="scale(0.015625)"/>
      <path id="DejaVuSans-52" d="M 2841 2188 
Q 3044 2119 3236 1894 
Q 3428 1669 3622 1275 
L 4263 0 
L 3584 0 
L 2988 1197 
Q 2756 1666 2539 1819 
Q 2322 1972 1947 1972 
L 1259 1972 
L 1259 0 
L 628 0 
L 628 4666 
L 2053 4666 
Q 2853 4666 3247 4331 
Q 3641 3997 3641 3322 
Q 3641 2881 3436 2590 
Q 3231 2300 2841 2188 
z
M 1259 4147 
L 1259 2491 
L 2053 2491 
Q 2509 2491 2742 2702 
Q 2975 2913 2975 3322 
Q 2975 3731 2742 3939 
Q 2509 4147 2053 4147 
L 1259 4147 
z
" transform="scale(0.015625)"/>
      <path id="DejaVuSans-28" d="M 1984 4856 
Q 1566 4138 1362 3434 
Q 1159 2731 1159 2009 
Q 1159 1288 1364 580 
Q 1569 -128 1984 -844 
L 1484 -844 
Q 1016 -109 783 600 
Q 550 1309 550 2009 
Q 550 2706 781 3412 
Q 1013 4119 1484 4856 
L 1984 4856 
z
" transform="scale(0.015625)"/>
      <path id="DejaVuSans-63" d="M 3122 3366 
L 3122 2828 
Q 2878 2963 2633 3030 
Q 2388 3097 2138 3097 
Q 1578 3097 1268 2742 
Q 959 2388 959 1747 
Q 959 1106 1268 751 
Q 1578 397 2138 397 
Q 2388 397 2633 464 
Q 2878 531 3122 666 
L 3122 134 
Q 2881 22 2623 -34 
Q 2366 -91 2075 -91 
Q 1284 -91 818 406 
Q 353 903 353 1747 
Q 353 2603 823 3093 
Q 1294 3584 2113 3584 
Q 2378 3584 2631 3529 
Q 2884 3475 3122 3366 
z
" transform="scale(0.015625)"/>
      <path id="DejaVuSans-68" d="M 3513 2113 
L 3513 0 
L 2938 0 
L 2938 2094 
Q 2938 2591 2744 2837 
Q 2550 3084 2163 3084 
Q 1697 3084 1428 2787 
Q 1159 2491 1159 1978 
L 1159 0 
L 581 0 
L 581 4863 
L 1159 4863 
L 1159 2956 
Q 1366 3272 1645 3428 
Q 1925 3584 2291 3584 
Q 2894 3584 3203 3211 
Q 3513 2838 3513 2113 
z
" transform="scale(0.015625)"/>
      <path id="DejaVuSans-4c" d="M 628 4666 
L 1259 4666 
L 1259 531 
L 3531 531 
L 3531 0 
L 628 0 
L 628 4666 
z
" transform="scale(0.015625)"/>
      <path id="DejaVuSans-29" d="M 513 4856 
L 1013 4856 
Q 1481 4119 1714 3412 
Q 1947 2706 1947 2009 
Q 1947 1309 1714 600 
Q 1481 -109 1013 -844 
L 513 -844 
Q 928 -128 1133 580 
Q 1338 1288 1338 2009 
Q 1338 2731 1133 3434 
Q 928 4138 513 4856 
z
" transform="scale(0.015625)"/>
     </defs>
     <use xlink:href="#DejaVuSans-4f"/>
     <use xlink:href="#DejaVuSans-75" x="78.710938"/>
     <use xlink:href="#DejaVuSans-74" x="142.089844"/>
     <use xlink:href="#DejaVuSans-70" x="181.298828"/>
     <use xlink:href="#DejaVuSans-75" x="244.775391"/>
     <use xlink:href="#DejaVuSans-74" x="308.154297"/>
     <use xlink:href="#DejaVuSans-20" x="347.363281"/>
     <use xlink:href="#DejaVuSans-6f" x="379.150391"/>
     <use xlink:href="#DejaVuSans-72" x="440.332031"/>
     <use xlink:href="#DejaVuSans-64" x="479.695312"/>
     <use xlink:href="#DejaVuSans-65" x="543.171875"/>
     <use xlink:href="#DejaVuSans-72" x="604.695312"/>
     <use xlink:href="#DejaVuSans-20" x="645.808594"/>
     <use xlink:href="#DejaVuSans-31" x="677.595703"/>
     <use xlink:href="#DejaVuSans-39" x="741.21875"/>
     <use xlink:href="#DejaVuSans-20" x="804.841797"/>
     <use xlink:href="#DejaVuSans-6d" x="836.628906"/>
     <use xlink:href="#DejaVuSans-6f" x="934.041016"/>
     <use xlink:href="#DejaVuSans-76" x="995.222656"/>
     <use xlink:href="#DejaVuSans-69" x="1054.402344"/>
     <use xlink:href="#DejaVuSans-6e" x="1082.185547"/>
     <use xlink:href="#DejaVuSans-67" x="1145.564453"/>
     <use xlink:href="#DejaVuSans-20" x="1209.041016"/>
     <use xlink:href="#DejaVuSans-61" x="1240.828125"/>
     <use xlink:href="#DejaVuSans-76" x="1302.107422"/>
     <use xlink:href="#DejaVuSans-65" x="1361.287109"/>
     <use xlink:href="#DejaVuSans-72" x="1422.810547"/>
     <use xlink:href="#DejaVuSans-61" x="1463.923828"/>
     <use xlink:href="#DejaVuSans-67" x="1525.203125"/>
     <use xlink:href="#DejaVuSans-65" x="1588.679688"/>
     <use xlink:href="#DejaVuSans-20" x="1650.203125"/>
     <use xlink:href="#DejaVuSans-46" x="1681.990234"/>
     <use xlink:href="#DejaVuSans-49" x="1739.509766"/>
     <use xlink:href="#DejaVuSans-52" x="1769.001953"/>
     <use xlink:href="#DejaVuSans-20" x="1838.484375"/>
     <use xlink:href="#DejaVuSans-28" x="1870.271484"/>
     <use xlink:href="#DejaVuSans-63" x="1909.285156"/>
     <use xlink:href="#DejaVuSans-68" x="1964.265625"/>
     <use xlink:href="#DejaVuSans-61" x="2027.644531"/>
     <use xlink:href="#DejaVuSans-6e" x="2088.923828"/>
     <use xlink:href="#DejaVuSans-6e" x="2152.302734"/>
     <use xlink:href="#DejaVuSans-65" x="2215.681641"/>
     <use xlink:href="#DejaVuSans-6c" x="2277.205078"/>
     <use xlink:href="#DejaVuSans-20" x="2304.988281"/>
     <use xlink:href="#DejaVuSans-4c" x="2336.775391"/>
     <use xlink:href="#DejaVuSans-29" x="2392.488281"/>
    </g>
   </g>
  </g>
 </g>
 <defs>
  <clipPath id="p09b01df373">
   <rect x="57.6" y="41.472" width="357.12" height="266.112"/>
  </clipPath>
 </defs>
</svg>
