<?xml version="1.0" encoding="utf-8" standalone="no"?>
<!DOCTYPE svg PUBLIC "-//W3C//DTD SVG 1.1//EN"
  "http://www.w3.org/Graphics/SVG/1.1/DTD/svg11.dtd">
<svg xmlns:xlink="http://www.w3.org/1999/xlink" width="460.8pt" height="345.6pt" viewBox="0 0 460.8 345.6" xmlns="http://www.w3.org/2000/svg" version="1.1">
 <metadata>
  <rdf:RDF xmlns:dc="http://purl.org/dc/elements/1.1/" xmlns:cc="http://creativecommons.org/ns#" xmlns:rdf="http://www.w3.org/1999/02/22-rdf-syntax-ns#">
   <cc:Work>
    <dc:type rdf:resource="http://purl.org/dc/dcmitype/StillImage"/>
    <dc:date>2025-08-29T17:42:43.664847</dc:date>
    <dc:format>image/svg+xml</dc:format>
    <dc:creator>
     <cc:Agent>
      <dc:title>Matplotlib v3.9.2, https://matplotlib.org/</dc:title>
     </cc:Agent>
    </dc:creator>
   </cc:Work>
  </rdf:RDF>
 </metadata>
 <defs>
  <style type="text/css">*{stroke-linejoin: round; stroke-linecap: butt}</style>
 </defs>
 <g id="figure_1">
  <g id="patch_1">
   <path d="M 0 345.6 
L 460.8 345.6 
L 460.8 0 
L 0 0 
z
" style="fill: #ffffff"/>
  </g>
  <g id="axes_1">
   <g id="patch_2">
    <path d="M 57.6 307.584 
L 414.72 307.584 
L 414.72 41.472 
L 57.6 41.472 
z
" style="fill: #ffffff"/>
   </g>
   <g id="matplotlib.axis_1">
    <g id="xtick_1">
     <g id="line2d_1">
      <path d="M 73.832727 307.584 
L 73.832727 41.472 
" clip-path="url(#p4c7ef14c1c)" style="fill: none; stroke: #b0b0b0; stroke-width: 0.8; stroke-linecap: square"/>
     </g>
     <g id="line2d_2">
      <defs>
       <path id="m544e62f858" d="M 0 0 
L 0 3.5 
" style="stroke: #000000; stroke-width: 0.8"/>
      </defs>
      <g>
       <use xlink:href="#m544e62f858" x="73.832727" y="307.584" style="stroke: #000000; stroke-width: 0.8"/>
      </g>
     </g>
     <g id="text_1">
      <!-- 0 -->
      <g transform="translate(70.651477 322.182437) scale(0.1 -0.1)">
       <defs>
        <path id="DejaVuSans-30" d="M 2034 4250 
Q 1547 4250 1301 3770 
Q 1056 3291 1056 2328 
Q 1056 1369 1301 889 
Q 1547 409 2034 409 
Q 2525 409 2770 889 
Q 3016 1369 3016 2328 
Q 3016 3291 2770 3770 
Q 2525 4250 2034 4250 
z
M 2034 4750 
Q 2819 4750 3233 4129 
Q 3647 3509 3647 2328 
Q 3647 1150 3233 529 
Q 2819 -91 2034 -91 
Q 1250 -91 836 529 
Q 422 1150 422 2328 
Q 422 3509 836 4129 
Q 1250 4750 2034 4750 
z
" transform="scale(0.015625)"/>
       </defs>
       <use xlink:href="#DejaVuSans-30"/>
      </g>
     </g>
    </g>
    <g id="xtick_2">
     <g id="line2d_3">
      <path d="M 138.893758 307.584 
L 138.893758 41.472 
" clip-path="url(#p4c7ef14c1c)" style="fill: none; stroke: #b0b0b0; stroke-width: 0.8; stroke-linecap: square"/>
     </g>
     <g id="line2d_4">
      <g>
       <use xlink:href="#m544e62f858" x="138.893758" y="307.584" style="stroke: #000000; stroke-width: 0.8"/>
      </g>
     </g>
     <g id="text_2">
      <!-- 200 -->
      <g transform="translate(129.350008 322.182437) scale(0.1 -0.1)">
       <defs>
        <path id="DejaVuSans-32" d="M 1228 531 
L 3431 531 
L 3431 0 
L 469 0 
L 469 531 
Q 828 903 1448 1529 
Q 2069 2156 2228 2338 
Q 2531 2678 2651 2914 
Q 2772 3150 2772 3378 
Q 2772 3750 2511 3984 
Q 2250 4219 1831 4219 
Q 1534 4219 1204 4116 
Q 875 4013 500 3803 
L 500 4441 
Q 881 4594 1212 4672 
Q 1544 4750 1819 4750 
Q 2544 4750 2975 4387 
Q 3406 4025 3406 3419 
Q 3406 3131 3298 2873 
Q 3191 2616 2906 2266 
Q 2828 2175 2409 1742 
Q 1991 1309 1228 531 
z
" transform="scale(0.015625)"/>
       </defs>
       <use xlink:href="#DejaVuSans-32"/>
       <use xlink:href="#DejaVuSans-30" x="63.623047"/>
       <use xlink:href="#DejaVuSans-30" x="127.246094"/>
      </g>
     </g>
    </g>
    <g id="xtick_3">
     <g id="line2d_5">
      <path d="M 203.95479 307.584 
L 203.95479 41.472 
" clip-path="url(#p4c7ef14c1c)" style="fill: none; stroke: #b0b0b0; stroke-width: 0.8; stroke-linecap: square"/>
     </g>
     <g id="line2d_6">
      <g>
       <use xlink:href="#m544e62f858" x="203.95479" y="307.584" style="stroke: #000000; stroke-width: 0.8"/>
      </g>
     </g>
     <g id="text_3">
      <!-- 400 -->
      <g transform="translate(194.41104 322.182437) scale(0.1 -0.1)">
       <defs>
        <path id="DejaVuSans-34" d="M 2419 4116 
L 825 1625 
L 2419 1625 
L 2419 4116 
z
M 2253 4666 
L 3047 4666 
L 3047 1625 
L 3713 1625 
L 3713 1100 
L 3047 1100 
L 3047 0 
L 2419 0 
L 2419 1100 
L 313 1100 
L 313 1709 
L 2253 4666 
z
" transform="scale(0.015625)"/>
       </defs>
       <use xlink:href="#DejaVuSans-34"/>
       <use xlink:href="#DejaVuSans-30" x="63.623047"/>
       <use xlink:href="#DejaVuSans-30" x="127.246094"/>
      </g>
     </g>
    </g>
    <g id="xtick_4">
     <g id="line2d_7">
      <path d="M 269.015821 307.584 
L 269.015821 41.472 
" clip-path="url(#p4c7ef14c1c)" style="fill: none; stroke: #b0b0b0; stroke-width: 0.8; stroke-linecap: square"/>
     </g>
     <g id="line2d_8">
      <g>
       <use xlink:href="#m544e62f858" x="269.015821" y="307.584" style="stroke: #000000; stroke-width: 0.8"/>
      </g>
     </g>
     <g id="text_4">
      <!-- 600 -->
      <g transform="translate(259.472071 322.182437) scale(0.1 -0.1)">
       <defs>
        <path id="DejaVuSans-36" d="M 2113 2584 
Q 1688 2584 1439 2293 
Q 1191 2003 1191 1497 
Q 1191 994 1439 701 
Q 1688 409 2113 409 
Q 2538 409 2786 701 
Q 3034 994 3034 1497 
Q 3034 2003 2786 2293 
Q 2538 2584 2113 2584 
z
M 3366 4563 
L 3366 3988 
Q 3128 4100 2886 4159 
Q 2644 4219 2406 4219 
Q 1781 4219 1451 3797 
Q 1122 3375 1075 2522 
Q 1259 2794 1537 2939 
Q 1816 3084 2150 3084 
Q 2853 3084 3261 2657 
Q 3669 2231 3669 1497 
Q 3669 778 3244 343 
Q 2819 -91 2113 -91 
Q 1303 -91 875 529 
Q 447 1150 447 2328 
Q 447 3434 972 4092 
Q 1497 4750 2381 4750 
Q 2619 4750 2861 4703 
Q 3103 4656 3366 4563 
z
" transform="scale(0.015625)"/>
       </defs>
       <use xlink:href="#DejaVuSans-36"/>
       <use xlink:href="#DejaVuSans-30" x="63.623047"/>
       <use xlink:href="#DejaVuSans-30" x="127.246094"/>
      </g>
     </g>
    </g>
    <g id="xtick_5">
     <g id="line2d_9">
      <path d="M 334.076852 307.584 
L 334.076852 41.472 
" clip-path="url(#p4c7ef14c1c)" style="fill: none; stroke: #b0b0b0; stroke-width: 0.8; stroke-linecap: square"/>
     </g>
     <g id="line2d_10">
      <g>
       <use xlink:href="#m544e62f858" x="334.076852" y="307.584" style="stroke: #000000; stroke-width: 0.8"/>
      </g>
     </g>
     <g id="text_5">
      <!-- 800 -->
      <g transform="translate(324.533102 322.182437) scale(0.1 -0.1)">
       <defs>
        <path id="DejaVuSans-38" d="M 2034 2216 
Q 1584 2216 1326 1975 
Q 1069 1734 1069 1313 
Q 1069 891 1326 650 
Q 1584 409 2034 409 
Q 2484 409 2743 651 
Q 3003 894 3003 1313 
Q 3003 1734 2745 1975 
Q 2488 2216 2034 2216 
z
M 1403 2484 
Q 997 2584 770 2862 
Q 544 3141 544 3541 
Q 544 4100 942 4425 
Q 1341 4750 2034 4750 
Q 2731 4750 3128 4425 
Q 3525 4100 3525 3541 
Q 3525 3141 3298 2862 
Q 3072 2584 2669 2484 
Q 3125 2378 3379 2068 
Q 3634 1759 3634 1313 
Q 3634 634 3220 271 
Q 2806 -91 2034 -91 
Q 1263 -91 848 271 
Q 434 634 434 1313 
Q 434 1759 690 2068 
Q 947 2378 1403 2484 
z
M 1172 3481 
Q 1172 3119 1398 2916 
Q 1625 2713 2034 2713 
Q 2441 2713 2670 2916 
Q 2900 3119 2900 3481 
Q 2900 3844 2670 4047 
Q 2441 4250 2034 4250 
Q 1625 4250 1398 4047 
Q 1172 3844 1172 3481 
z
" transform="scale(0.015625)"/>
       </defs>
       <use xlink:href="#DejaVuSans-38"/>
       <use xlink:href="#DejaVuSans-30" x="63.623047"/>
       <use xlink:href="#DejaVuSans-30" x="127.246094"/>
      </g>
     </g>
    </g>
    <g id="xtick_6">
     <g id="line2d_11">
      <path d="M 399.137883 307.584 
L 399.137883 41.472 
" clip-path="url(#p4c7ef14c1c)" style="fill: none; stroke: #b0b0b0; stroke-width: 0.8; stroke-linecap: square"/>
     </g>
     <g id="line2d_12">
      <g>
       <use xlink:href="#m544e62f858" x="399.137883" y="307.584" style="stroke: #000000; stroke-width: 0.8"/>
      </g>
     </g>
     <g id="text_6">
      <!-- 1000 -->
      <g transform="translate(386.412883 322.182437) scale(0.1 -0.1)">
       <defs>
        <path id="DejaVuSans-31" d="M 794 531 
L 1825 531 
L 1825 4091 
L 703 3866 
L 703 4441 
L 1819 4666 
L 2450 4666 
L 2450 531 
L 3481 531 
L 3481 0 
L 794 0 
L 794 531 
z
" transform="scale(0.015625)"/>
       </defs>
       <use xlink:href="#DejaVuSans-31"/>
       <use xlink:href="#DejaVuSans-30" x="63.623047"/>
       <use xlink:href="#DejaVuSans-30" x="127.246094"/>
       <use xlink:href="#DejaVuSans-30" x="190.869141"/>
      </g>
     </g>
    </g>
    <g id="text_7">
     <!-- Samples -->
     <g transform="translate(214.806875 335.860562) scale(0.1 -0.1)">
      <defs>
       <path id="DejaVuSans-53" d="M 3425 4513 
L 3425 3897 
Q 3066 4069 2747 4153 
Q 2428 4238 2131 4238 
Q 1616 4238 1336 4038 
Q 1056 3838 1056 3469 
Q 1056 3159 1242 3001 
Q 1428 2844 1947 2747 
L 2328 2669 
Q 3034 2534 3370 2195 
Q 3706 1856 3706 1288 
Q 3706 609 3251 259 
Q 2797 -91 1919 -91 
Q 1588 -91 1214 -16 
Q 841 59 441 206 
L 441 856 
Q 825 641 1194 531 
Q 1563 422 1919 422 
Q 2459 422 2753 634 
Q 3047 847 3047 1241 
Q 3047 1584 2836 1778 
Q 2625 1972 2144 2069 
L 1759 2144 
Q 1053 2284 737 2584 
Q 422 2884 422 3419 
Q 422 4038 858 4394 
Q 1294 4750 2059 4750 
Q 2388 4750 2728 4690 
Q 3069 4631 3425 4513 
z
" transform="scale(0.015625)"/>
       <path id="DejaVuSans-61" d="M 2194 1759 
Q 1497 1759 1228 1600 
Q 959 1441 959 1056 
Q 959 750 1161 570 
Q 1363 391 1709 391 
Q 2188 391 2477 730 
Q 2766 1069 2766 1631 
L 2766 1759 
L 2194 1759 
z
M 3341 1997 
L 3341 0 
L 2766 0 
L 2766 531 
Q 2569 213 2275 61 
Q 1981 -91 1556 -91 
Q 1019 -91 701 211 
Q 384 513 384 1019 
Q 384 1609 779 1909 
Q 1175 2209 1959 2209 
L 2766 2209 
L 2766 2266 
Q 2766 2663 2505 2880 
Q 2244 3097 1772 3097 
Q 1472 3097 1187 3025 
Q 903 2953 641 2809 
L 641 3341 
Q 956 3463 1253 3523 
Q 1550 3584 1831 3584 
Q 2591 3584 2966 3190 
Q 3341 2797 3341 1997 
z
" transform="scale(0.015625)"/>
       <path id="DejaVuSans-6d" d="M 3328 2828 
Q 3544 3216 3844 3400 
Q 4144 3584 4550 3584 
Q 5097 3584 5394 3201 
Q 5691 2819 5691 2113 
L 5691 0 
L 5113 0 
L 5113 2094 
Q 5113 2597 4934 2840 
Q 4756 3084 4391 3084 
Q 3944 3084 3684 2787 
Q 3425 2491 3425 1978 
L 3425 0 
L 2847 0 
L 2847 2094 
Q 2847 2600 2669 2842 
Q 2491 3084 2119 3084 
Q 1678 3084 1418 2786 
Q 1159 2488 1159 1978 
L 1159 0 
L 581 0 
L 581 3500 
L 1159 3500 
L 1159 2956 
Q 1356 3278 1631 3431 
Q 1906 3584 2284 3584 
Q 2666 3584 2933 3390 
Q 3200 3197 3328 2828 
z
" transform="scale(0.015625)"/>
       <path id="DejaVuSans-70" d="M 1159 525 
L 1159 -1331 
L 581 -1331 
L 581 3500 
L 1159 3500 
L 1159 2969 
Q 1341 3281 1617 3432 
Q 1894 3584 2278 3584 
Q 2916 3584 3314 3078 
Q 3713 2572 3713 1747 
Q 3713 922 3314 415 
Q 2916 -91 2278 -91 
Q 1894 -91 1617 61 
Q 1341 213 1159 525 
z
M 3116 1747 
Q 3116 2381 2855 2742 
Q 2594 3103 2138 3103 
Q 1681 3103 1420 2742 
Q 1159 2381 1159 1747 
Q 1159 1113 1420 752 
Q 1681 391 2138 391 
Q 2594 391 2855 752 
Q 3116 1113 3116 1747 
z
" transform="scale(0.015625)"/>
       <path id="DejaVuSans-6c" d="M 603 4863 
L 1178 4863 
L 1178 0 
L 603 0 
L 603 4863 
z
" transform="scale(0.015625)"/>
       <path id="DejaVuSans-65" d="M 3597 1894 
L 3597 1613 
L 953 1613 
Q 991 1019 1311 708 
Q 1631 397 2203 397 
Q 2534 397 2845 478 
Q 3156 559 3463 722 
L 3463 178 
Q 3153 47 2828 -22 
Q 2503 -91 2169 -91 
Q 1331 -91 842 396 
Q 353 884 353 1716 
Q 353 2575 817 3079 
Q 1281 3584 2069 3584 
Q 2775 3584 3186 3129 
Q 3597 2675 3597 1894 
z
M 3022 2063 
Q 3016 2534 2758 2815 
Q 2500 3097 2075 3097 
Q 1594 3097 1305 2825 
Q 1016 2553 972 2059 
L 3022 2063 
z
" transform="scale(0.015625)"/>
       <path id="DejaVuSans-73" d="M 2834 3397 
L 2834 2853 
Q 2591 2978 2328 3040 
Q 2066 3103 1784 3103 
Q 1356 3103 1142 2972 
Q 928 2841 928 2578 
Q 928 2378 1081 2264 
Q 1234 2150 1697 2047 
L 1894 2003 
Q 2506 1872 2764 1633 
Q 3022 1394 3022 966 
Q 3022 478 2636 193 
Q 2250 -91 1575 -91 
Q 1294 -91 989 -36 
Q 684 19 347 128 
L 347 722 
Q 666 556 975 473 
Q 1284 391 1588 391 
Q 1994 391 2212 530 
Q 2431 669 2431 922 
Q 2431 1156 2273 1281 
Q 2116 1406 1581 1522 
L 1381 1569 
Q 847 1681 609 1914 
Q 372 2147 372 2553 
Q 372 3047 722 3315 
Q 1072 3584 1716 3584 
Q 2034 3584 2315 3537 
Q 2597 3491 2834 3397 
z
" transform="scale(0.015625)"/>
      </defs>
      <use xlink:href="#DejaVuSans-53"/>
      <use xlink:href="#DejaVuSans-61" x="63.476562"/>
      <use xlink:href="#DejaVuSans-6d" x="124.755859"/>
      <use xlink:href="#DejaVuSans-70" x="222.167969"/>
      <use xlink:href="#DejaVuSans-6c" x="285.644531"/>
      <use xlink:href="#DejaVuSans-65" x="313.427734"/>
      <use xlink:href="#DejaVuSans-73" x="374.951172"/>
     </g>
    </g>
   </g>
   <g id="matplotlib.axis_2">
    <g id="ytick_1">
     <g id="line2d_13">
      <path d="M 57.6 278.679681 
L 414.72 278.679681 
" clip-path="url(#p4c7ef14c1c)" style="fill: none; stroke: #b0b0b0; stroke-width: 0.8; stroke-linecap: square"/>
     </g>
     <g id="line2d_14">
      <defs>
       <path id="m52174e968c" d="M 0 0 
L -3.5 0 
" style="stroke: #000000; stroke-width: 0.8"/>
      </defs>
      <g>
       <use xlink:href="#m52174e968c" x="57.6" y="278.679681" style="stroke: #000000; stroke-width: 0.8"/>
      </g>
     </g>
     <g id="text_8">
      <!-- −6 -->
      <g transform="translate(35.857813 282.478899) scale(0.1 -0.1)">
       <defs>
        <path id="DejaVuSans-2212" d="M 678 2272 
L 4684 2272 
L 4684 1741 
L 678 1741 
L 678 2272 
z
" transform="scale(0.015625)"/>
       </defs>
       <use xlink:href="#DejaVuSans-2212"/>
       <use xlink:href="#DejaVuSans-36" x="83.789062"/>
      </g>
     </g>
    </g>
    <g id="ytick_2">
     <g id="line2d_15">
      <path d="M 57.6 243.661437 
L 414.72 243.661437 
" clip-path="url(#p4c7ef14c1c)" style="fill: none; stroke: #b0b0b0; stroke-width: 0.8; stroke-linecap: square"/>
     </g>
     <g id="line2d_16">
      <g>
       <use xlink:href="#m52174e968c" x="57.6" y="243.661437" style="stroke: #000000; stroke-width: 0.8"/>
      </g>
     </g>
     <g id="text_9">
      <!-- −4 -->
      <g transform="translate(35.857813 247.460656) scale(0.1 -0.1)">
       <use xlink:href="#DejaVuSans-2212"/>
       <use xlink:href="#DejaVuSans-34" x="83.789062"/>
      </g>
     </g>
    </g>
    <g id="ytick_3">
     <g id="line2d_17">
      <path d="M 57.6 208.643193 
L 414.72 208.643193 
" clip-path="url(#p4c7ef14c1c)" style="fill: none; stroke: #b0b0b0; stroke-width: 0.8; stroke-linecap: square"/>
     </g>
     <g id="line2d_18">
      <g>
       <use xlink:href="#m52174e968c" x="57.6" y="208.643193" style="stroke: #000000; stroke-width: 0.8"/>
      </g>
     </g>
     <g id="text_10">
      <!-- −2 -->
      <g transform="translate(35.857813 212.442412) scale(0.1 -0.1)">
       <use xlink:href="#DejaVuSans-2212"/>
       <use xlink:href="#DejaVuSans-32" x="83.789062"/>
      </g>
     </g>
    </g>
    <g id="ytick_4">
     <g id="line2d_19">
      <path d="M 57.6 173.62495 
L 414.72 173.62495 
" clip-path="url(#p4c7ef14c1c)" style="fill: none; stroke: #b0b0b0; stroke-width: 0.8; stroke-linecap: square"/>
     </g>
     <g id="line2d_20">
      <g>
       <use xlink:href="#m52174e968c" x="57.6" y="173.62495" style="stroke: #000000; stroke-width: 0.8"/>
      </g>
     </g>
     <g id="text_11">
      <!-- 0 -->
      <g transform="translate(44.2375 177.424168) scale(0.1 -0.1)">
       <use xlink:href="#DejaVuSans-30"/>
      </g>
     </g>
    </g>
    <g id="ytick_5">
     <g id="line2d_21">
      <path d="M 57.6 138.606706 
L 414.72 138.606706 
" clip-path="url(#p4c7ef14c1c)" style="fill: none; stroke: #b0b0b0; stroke-width: 0.8; stroke-linecap: square"/>
     </g>
     <g id="line2d_22">
      <g>
       <use xlink:href="#m52174e968c" x="57.6" y="138.606706" style="stroke: #000000; stroke-width: 0.8"/>
      </g>
     </g>
     <g id="text_12">
      <!-- 2 -->
      <g transform="translate(44.2375 142.405925) scale(0.1 -0.1)">
       <use xlink:href="#DejaVuSans-32"/>
      </g>
     </g>
    </g>
    <g id="ytick_6">
     <g id="line2d_23">
      <path d="M 57.6 103.588462 
L 414.72 103.588462 
" clip-path="url(#p4c7ef14c1c)" style="fill: none; stroke: #b0b0b0; stroke-width: 0.8; stroke-linecap: square"/>
     </g>
     <g id="line2d_24">
      <g>
       <use xlink:href="#m52174e968c" x="57.6" y="103.588462" style="stroke: #000000; stroke-width: 0.8"/>
      </g>
     </g>
     <g id="text_13">
      <!-- 4 -->
      <g transform="translate(44.2375 107.387681) scale(0.1 -0.1)">
       <use xlink:href="#DejaVuSans-34"/>
      </g>
     </g>
    </g>
    <g id="ytick_7">
     <g id="line2d_25">
      <path d="M 57.6 68.570218 
L 414.72 68.570218 
" clip-path="url(#p4c7ef14c1c)" style="fill: none; stroke: #b0b0b0; stroke-width: 0.8; stroke-linecap: square"/>
     </g>
     <g id="line2d_26">
      <g>
       <use xlink:href="#m52174e968c" x="57.6" y="68.570218" style="stroke: #000000; stroke-width: 0.8"/>
      </g>
     </g>
     <g id="text_14">
      <!-- 6 -->
      <g transform="translate(44.2375 72.369437) scale(0.1 -0.1)">
       <use xlink:href="#DejaVuSans-36"/>
      </g>
     </g>
    </g>
    <g id="text_15">
     <!-- Amplitude -->
     <g transform="translate(29.778125 200.150656) rotate(-90) scale(0.1 -0.1)">
      <defs>
       <path id="DejaVuSans-41" d="M 2188 4044 
L 1331 1722 
L 3047 1722 
L 2188 4044 
z
M 1831 4666 
L 2547 4666 
L 4325 0 
L 3669 0 
L 3244 1197 
L 1141 1197 
L 716 0 
L 50 0 
L 1831 4666 
z
" transform="scale(0.015625)"/>
       <path id="DejaVuSans-69" d="M 603 3500 
L 1178 3500 
L 1178 0 
L 603 0 
L 603 3500 
z
M 603 4863 
L 1178 4863 
L 1178 4134 
L 603 4134 
L 603 4863 
z
" transform="scale(0.015625)"/>
       <path id="DejaVuSans-74" d="M 1172 4494 
L 1172 3500 
L 2356 3500 
L 2356 3053 
L 1172 3053 
L 1172 1153 
Q 1172 725 1289 603 
Q 1406 481 1766 481 
L 2356 481 
L 2356 0 
L 1766 0 
Q 1100 0 847 248 
Q 594 497 594 1153 
L 594 3053 
L 172 3053 
L 172 3500 
L 594 3500 
L 594 4494 
L 1172 4494 
z
" transform="scale(0.015625)"/>
       <path id="DejaVuSans-75" d="M 544 1381 
L 544 3500 
L 1119 3500 
L 1119 1403 
Q 1119 906 1312 657 
Q 1506 409 1894 409 
Q 2359 409 2629 706 
Q 2900 1003 2900 1516 
L 2900 3500 
L 3475 3500 
L 3475 0 
L 2900 0 
L 2900 538 
Q 2691 219 2414 64 
Q 2138 -91 1772 -91 
Q 1169 -91 856 284 
Q 544 659 544 1381 
z
M 1991 3584 
L 1991 3584 
z
" transform="scale(0.015625)"/>
       <path id="DejaVuSans-64" d="M 2906 2969 
L 2906 4863 
L 3481 4863 
L 3481 0 
L 2906 0 
L 2906 525 
Q 2725 213 2448 61 
Q 2172 -91 1784 -91 
Q 1150 -91 751 415 
Q 353 922 353 1747 
Q 353 2572 751 3078 
Q 1150 3584 1784 3584 
Q 2172 3584 2448 3432 
Q 2725 3281 2906 2969 
z
M 947 1747 
Q 947 1113 1208 752 
Q 1469 391 1925 391 
Q 2381 391 2643 752 
Q 2906 1113 2906 1747 
Q 2906 2381 2643 2742 
Q 2381 3103 1925 3103 
Q 1469 3103 1208 2742 
Q 947 2381 947 1747 
z
" transform="scale(0.015625)"/>
      </defs>
      <use xlink:href="#DejaVuSans-41"/>
      <use xlink:href="#DejaVuSans-6d" x="68.408203"/>
      <use xlink:href="#DejaVuSans-70" x="165.820312"/>
      <use xlink:href="#DejaVuSans-6c" x="229.296875"/>
      <use xlink:href="#DejaVuSans-69" x="257.080078"/>
      <use xlink:href="#DejaVuSans-74" x="284.863281"/>
      <use xlink:href="#DejaVuSans-75" x="324.072266"/>
      <use xlink:href="#DejaVuSans-64" x="387.451172"/>
      <use xlink:href="#DejaVuSans-65" x="450.927734"/>
     </g>
    </g>
    <g id="text_16">
     <!-- 1e6 -->
     <g transform="translate(57.6 38.472) scale(0.1 -0.1)">
      <use xlink:href="#DejaVuSans-31"/>
      <use xlink:href="#DejaVuSans-65" x="63.623047"/>
      <use xlink:href="#DejaVuSans-36" x="125.146484"/>
     </g>
    </g>
   </g>
   <g id="line2d_27">
    <path d="M 73.832727 295.043689 
L 74.158032 278.588878 
L 74.483338 278.588878 
L 74.808643 260.239791 
L 75.133948 260.239791 
L 75.459253 262.980739 
L 75.784558 262.980739 
L 76.109863 270.202849 
L 76.435169 270.202849 
L 76.760474 254.723297 
L 77.085779 254.723297 
L 77.411084 225.110768 
L 77.736389 225.110768 
L 78.061694 211.417951 
L 78.386999 211.417951 
L 78.712305 214.821357 
L 79.03761 214.821357 
L 79.362915 205.108417 
L 79.68822 205.108417 
L 80.013525 173.666761 
L 80.33883 173.666761 
L 80.664136 148.147024 
L 80.989441 148.147024 
L 81.314746 146.126506 
L 81.640051 146.126506 
L 81.965356 145.258684 
L 82.290661 145.258684 
L 82.615966 122.171226 
L 82.941272 122.171226 
L 83.266577 93.119723 
L 83.591882 93.119723 
L 83.917187 86.128313 
L 84.242492 86.128313 
L 84.567797 94.158557 
L 84.893103 94.158557 
L 85.218408 87.054231 
L 85.543713 87.054231 
L 85.869018 63.624049 
L 86.194323 63.624049 
L 86.519628 53.955634 
L 86.844934 53.955634 
L 87.170239 67.961321 
L 87.495544 67.961321 
L 87.820849 78.985905 
L 88.146154 78.985905 
L 88.471459 68.944721 
L 88.796764 68.944721 
L 89.12207 59.642947 
L 89.447375 59.642947 
L 89.77268 75.206438 
L 90.097985 75.206438 
L 90.42329 100.633395 
L 90.748595 100.633395 
L 91.073901 107.254067 
L 91.399206 107.254067 
L 91.724511 101.572584 
L 92.049816 101.572584 
L 92.375121 113.446693 
L 92.700426 113.446693 
L 93.025731 145.139552 
L 93.351037 145.139552 
L 93.676342 166.520186 
L 94.001647 166.520186 
L 94.326952 166.37901 
L 94.652257 166.37901 
L 94.977562 170.931224 
L 95.302868 170.931224 
L 95.628173 198.580123 
L 95.953478 198.580123 
L 96.278783 227.692715 
L 96.604088 227.692715 
L 96.929393 233.538521 
L 97.254698 233.538521 
L 97.580004 229.442157 
L 97.905309 229.442157 
L 98.230614 243.973257 
L 98.555919 243.973257 
L 98.881224 271.615293 
L 99.206529 271.615293 
L 99.531835 281.588244 
L 99.85714 281.588244 
L 100.182445 270.446436 
L 100.50775 270.446436 
L 100.833055 267.441784 
L 101.15836 267.441784 
L 101.483666 284.542575 
L 101.808971 284.542575 
L 102.134276 295.488 
L 102.459581 295.488 
L 102.784886 280.892238 
L 103.110191 280.892238 
L 103.435496 261.264023 
L 103.760802 261.264023 
L 104.086107 261.979778 
L 104.411412 261.979778 
L 104.736717 270.337407 
L 105.062022 270.337407 
L 105.387327 257.302234 
L 105.712633 257.302234 
L 106.037938 227.645703 
L 106.363243 227.645703 
L 106.688548 211.690551 
L 107.013853 211.690551 
L 107.339158 214.596382 
L 107.664463 214.596382 
L 107.989769 207.173635 
L 108.315074 207.173635 
L 108.640379 176.977369 
L 108.965684 176.977369 
L 109.290989 149.598792 
L 109.616294 149.598792 
L 109.9416 145.772121 
L 110.266905 145.772121 
L 110.59221 146.144243 
L 110.917515 146.144243 
L 111.24282 125.282439 
L 111.568125 125.282439 
L 111.89343 95.167572 
L 112.218736 95.167572 
L 112.544041 85.77279 
L 112.869346 85.77279 
L 113.194651 93.630272 
L 113.519956 93.630272 
L 113.845261 88.740201 
L 114.170567 88.740201 
L 114.495872 65.791643 
L 114.821177 65.791643 
L 115.146482 53.59696 
L 115.471787 53.59696 
L 115.797092 66.275123 
L 116.122398 66.275123 
L 116.447703 78.901861 
L 116.773008 78.901861 
L 117.098313 70.429757 
L 117.423618 70.429757 
L 117.748923 59.60947 
L 118.074228 59.60947 
L 118.399534 72.655587 
L 118.724839 72.655587 
L 119.050144 98.746682 
L 119.375449 98.746682 
L 119.700754 107.66744 
L 120.026059 107.66744 
L 120.351365 101.757165 
L 120.67667 101.757165 
L 121.001975 111.086516 
L 121.32728 111.086516 
L 121.652585 142.039089 
L 121.97789 142.039089 
L 122.303195 165.583623 
L 122.628501 165.583623 
L 122.953806 166.795867 
L 123.279111 166.795867 
L 123.604416 169.520566 
L 123.929721 169.520566 
L 124.255026 195.22865 
L 124.580332 195.22865 
L 124.905637 225.741271 
L 125.230942 225.741271 
L 125.556247 234.015277 
L 125.881552 234.015277 
L 126.206857 229.232415 
L 126.532163 229.232415 
L 126.857468 241.64696 
L 127.182773 241.64696 
L 127.508078 269.259721 
L 127.833383 269.259721 
L 128.158688 281.808071 
L 128.483993 281.808071 
L 128.809299 271.685434 
L 129.134604 271.685434 
L 129.459909 266.66289 
L 129.785214 266.66289 
L 130.110519 282.392963 
L 130.435824 282.392963 
L 130.76113 295.373946 
L 131.086435 295.373946 
L 131.41174 283.03602 
L 131.737045 283.03602 
L 132.06235 262.431408 
L 132.387655 262.431408 
L 132.71296 261.054403 
L 133.038266 261.054403 
L 133.363571 270.117738 
L 133.688876 270.117738 
L 134.014181 259.765329 
L 134.339486 259.765329 
L 134.664791 230.348674 
L 134.990097 230.348674 
L 135.315402 212.214739 
L 135.640707 212.214739 
L 135.966012 214.184638 
L 136.291317 214.184638 
L 136.616622 209.066529 
L 136.941927 209.066529 
L 137.267233 180.294944 
L 137.592538 180.294944 
L 137.917843 151.260215 
L 138.243148 151.260215 
L 138.568453 145.410733 
L 138.893758 145.410733 
L 139.219064 146.939017 
L 139.544369 146.939017 
L 139.869674 128.177292 
L 140.194979 128.177292 
L 140.520284 97.598364 
L 140.845589 97.598364 
L 141.170895 85.440765 
L 141.4962 85.440765 
L 141.821505 92.981804 
L 142.14681 92.981804 
L 142.472115 90.322151 
L 142.79742 90.322151 
L 143.122725 68.132648 
L 143.448031 68.132648 
L 143.773336 53.568 
L 144.098641 53.568 
L 144.423946 64.368484 
L 144.749251 64.368484 
L 145.074556 78.530895 
L 145.399862 78.530895 
L 145.725167 71.953821 
L 146.050472 71.953821 
L 146.375777 59.837106 
L 146.701082 59.837106 
L 147.026387 70.388418 
L 147.351692 70.388418 
L 147.676998 96.601955 
L 148.002303 96.601955 
L 148.327608 107.812538 
L 148.652913 107.812538 
L 148.978218 102.185088 
L 149.303523 102.185088 
L 149.628829 109.064685 
L 149.954134 109.064685 
L 150.279439 138.772307 
L 150.604744 138.772307 
L 150.930049 164.376649 
L 151.255354 164.376649 
L 151.58066 167.110751 
L 151.905965 167.110751 
L 152.23127 168.339138 
L 152.556575 168.339138 
L 152.88188 191.941189 
L 153.207185 191.941189 
L 153.53249 223.549164 
L 153.857796 223.549164 
L 154.183101 234.267548 
L 154.508406 234.267548 
L 154.833711 229.379474 
L 155.159016 229.379474 
L 155.484321 239.389229 
L 155.809627 239.389229 
L 156.134932 266.726081 
L 156.460237 266.726081 
L 156.785542 281.897735 
L 157.110847 281.897735 
L 157.436152 273.003906 
L 157.761457 273.003906 
L 158.086763 266.110337 
L 158.412068 266.110337 
L 158.737373 280.364286 
L 159.062678 280.364286 
L 159.387983 295.14321 
L 159.713288 295.14321 
L 160.038594 285.217499 
L 160.363899 285.217499 
L 160.689204 263.810952 
L 161.014509 263.810952 
L 161.339814 260.196824 
L 161.665119 260.196824 
L 161.990424 269.842967 
L 162.31573 269.842967 
L 162.641035 261.903946 
L 162.96634 261.903946 
L 163.291645 233.224144 
L 163.61695 233.224144 
L 163.942255 212.836418 
L 164.267561 212.836418 
L 164.592866 213.714675 
L 164.918171 213.714675 
L 165.243476 210.694264 
L 165.568781 210.694264 
L 165.894086 183.663822 
L 166.219392 183.663822 
L 166.544697 153.155963 
L 166.870002 153.155963 
L 167.195307 145.103676 
L 167.520612 145.103676 
L 167.845917 147.353353 
L 168.171222 147.353353 
L 168.496528 131.071795 
L 168.821833 131.071795 
L 169.147138 100.176214 
L 169.472443 100.176214 
L 169.797748 85.397132 
L 170.123053 85.397132 
L 170.448359 92.229577 
L 170.773664 92.229577 
L 171.098969 91.56803 
L 171.424274 91.56803 
L 171.749579 70.435535 
L 172.074884 70.435535 
L 172.400189 53.9033 
L 172.725495 53.9033 
L 173.0508 62.684492 
L 173.376105 62.684492 
L 173.70141 77.831546 
L 174.026715 77.831546 
L 174.35202 73.386803 
L 174.677326 73.386803 
L 175.002631 60.290522 
L 175.327936 60.290522 
L 175.653241 68.204698 
L 175.978546 68.204698 
L 176.303851 94.315071 
L 176.629156 94.315071 
L 176.954462 107.848571 
L 177.279767 107.848571 
L 177.605072 102.637612 
L 177.930377 102.637612 
L 178.255682 107.168762 
L 178.580987 107.168762 
L 178.906293 135.471172 
L 179.231598 135.471172 
L 179.556903 162.923024 
L 179.882208 162.923024 
L 180.207513 167.513881 
L 180.532818 167.513881 
L 180.858124 167.389408 
L 181.183429 167.389408 
L 181.508734 188.773754 
L 181.834039 188.773754 
L 182.159344 221.146965 
L 182.484649 221.146965 
L 182.809954 234.267215 
L 183.13526 234.267215 
L 183.460565 229.679178 
L 183.78587 229.679178 
L 184.111175 237.317567 
L 184.43648 237.317567 
L 184.761785 264.180745 
L 185.087091 264.180745 
L 185.412396 281.61111 
L 185.737701 281.61111 
L 186.063006 274.312433 
L 186.388311 274.312433 
L 186.713616 265.842325 
L 187.038921 265.842325 
L 187.364227 278.480129 
L 187.689532 278.480129 
L 188.014837 294.647002 
L 188.340142 294.647002 
L 188.665447 287.056272 
L 188.990752 287.056272 
L 189.316058 265.522819 
L 189.641363 265.522819 
L 189.966668 259.646407 
L 190.291973 259.646407 
L 190.617278 269.088569 
L 190.942583 269.088569 
L 191.267889 263.957906 
L 191.593194 263.957906 
L 191.918499 236.064387 
L 192.243804 236.064387 
L 192.569109 213.672724 
L 192.894414 213.672724 
L 193.219719 213.369798 
L 193.545025 213.369798 
L 193.87033 211.990097 
L 194.195635 211.990097 
L 194.52094 187.025661 
L 194.846245 187.025661 
L 195.17155 155.342817 
L 195.496856 155.342817 
L 195.822161 144.916521 
L 196.147466 144.916521 
L 196.472771 147.633481 
L 196.798076 147.633481 
L 197.123381 133.605961 
L 197.448686 133.605961 
L 197.773992 102.85462 
L 198.099297 102.85462 
L 198.424602 85.729718 
L 198.749907 85.729718 
L 199.075212 91.308019 
L 199.400517 91.308019 
L 199.725823 92.73531 
L 200.051128 92.73531 
L 200.376433 72.852284 
L 200.701738 72.852284 
L 201.027043 54.370618 
L 201.352348 54.370618 
L 201.677653 61.009394 
L 202.002959 61.009394 
L 202.328264 77.183586 
L 202.653569 77.183586 
L 202.978874 74.581835 
L 203.304179 74.581835 
L 203.629484 60.974341 
L 203.95479 60.974341 
L 204.280095 66.321977 
L 204.6054 66.321977 
L 204.930705 91.800078 
L 205.25601 91.800078 
L 205.581315 107.510838 
L 205.906621 107.510838 
L 206.231926 103.378195 
L 206.557231 103.378195 
L 206.882536 105.590788 
L 207.207841 105.590788 
L 207.533146 132.242122 
L 207.858451 132.242122 
L 208.183757 161.143502 
L 208.509062 161.143502 
L 208.834367 167.915137 
L 209.159672 167.915137 
L 209.484977 166.645253 
L 209.810282 166.645253 
L 210.135588 185.721547 
L 210.460893 185.721547 
L 210.786198 218.43517 
L 211.111503 218.43517 
L 211.436808 234.26592 
L 211.762113 234.26592 
L 212.087418 229.890075 
L 212.412724 229.890075 
L 212.738029 235.570682 
L 213.063334 235.570682 
L 213.388639 261.43127 
L 213.713944 261.43127 
L 214.039249 281.105149 
L 214.364555 281.105149 
L 214.68986 275.682557 
L 215.015165 275.682557 
L 215.34047 265.756583 
L 215.665775 265.756583 
L 215.99108 276.58165 
L 216.316385 276.58165 
L 216.641691 293.939388 
L 216.966996 293.939388 
L 217.292301 288.900193 
L 217.617606 288.900193 
L 217.942911 267.162583 
L 218.268216 267.162583 
L 218.593522 259.176568 
L 218.918827 259.176568 
L 219.244132 268.445494 
L 219.569437 268.445494 
L 219.894742 265.616773 
L 220.220047 265.616773 
L 220.545353 239.040325 
L 220.870658 239.040325 
L 221.195963 214.89346 
L 221.521268 214.89346 
L 221.846573 212.806775 
L 222.171878 212.806775 
L 222.497183 213.117212 
L 222.822489 213.117212 
L 223.147794 190.264463 
L 223.473099 190.264463 
L 223.798404 157.757308 
L 224.123709 157.757308 
L 224.449014 144.764314 
L 224.77432 144.764314 
L 225.099625 147.802549 
L 225.42493 147.802549 
L 225.750235 136.071 
L 226.07554 136.071 
L 226.400845 105.782092 
L 226.72615 105.782092 
L 227.051456 86.096289 
L 227.376761 86.096289 
L 227.702066 90.402342 
L 228.027371 90.402342 
L 228.352676 93.508215 
L 228.677981 93.508215 
L 229.003287 75.33035 
L 229.328592 75.33035 
L 229.653897 55.18973 
L 229.979202 55.18973 
L 230.304507 59.443904 
L 230.629812 59.443904 
L 230.955118 76.175288 
L 231.280423 76.175288 
L 231.605728 75.743776 
L 231.931033 75.743776 
L 232.256338 61.94123 
L 232.581643 61.94123 
L 232.906948 64.458901 
L 233.232254 64.458901 
L 233.557559 89.373296 
L 233.882864 89.373296 
L 234.208169 107.102298 
L 234.533474 107.102298 
L 234.858779 103.941779 
L 235.184085 103.941779 
L 235.50939 104.310468 
L 235.834695 104.310468 
L 236.16 128.988683 
L 236.485305 128.988683 
L 236.81061 159.202108 
L 237.135915 159.202108 
L 237.461221 168.060516 
L 237.786526 168.060516 
L 238.111831 166.138067 
L 238.437136 166.138067 
L 238.762441 182.851784 
L 239.087746 182.851784 
L 239.413052 215.6761 
L 239.738357 215.6761 
L 240.063662 233.768275 
L 240.388967 233.768275 
L 240.714272 230.509127 
L 241.039577 230.509127 
L 241.364882 233.87375 
L 241.690188 233.87375 
L 242.015493 258.67656 
L 242.340798 258.67656 
L 242.666103 280.315646 
L 242.991408 280.315646 
L 243.316713 276.985673 
L 243.642019 276.985673 
L 243.967324 265.994497 
L 244.292629 265.994497 
L 244.617934 274.673804 
L 244.943239 274.673804 
L 245.268544 292.770462 
L 245.59385 292.770462 
L 245.919155 290.676108 
L 246.24446 290.676108 
L 246.569765 269.125758 
L 246.89507 269.125758 
L 247.220375 258.862139 
L 247.54568 258.862139 
L 247.870986 267.619589 
L 248.196291 267.619589 
L 248.521596 267.024401 
L 248.846901 267.024401 
L 249.172206 242.082499 
L 249.497511 242.082499 
L 249.822817 216.259048 
L 250.148122 216.259048 
L 250.473427 212.448398 
L 250.798732 212.448398 
L 251.124037 213.802554 
L 251.449342 213.802554 
L 251.774647 193.409504 
L 252.099953 193.409504 
L 252.425258 160.327997 
L 252.750563 160.327997 
L 253.075868 145.109436 
L 253.401173 145.109436 
L 253.726478 147.70427 
L 254.051784 147.70427 
L 254.377089 138.27967 
L 254.702394 138.27967 
L 255.027699 108.674757 
L 255.353004 108.674757 
L 255.678309 86.905473 
L 256.003615 86.905473 
L 256.32892 89.471032 
L 256.654225 89.471032 
L 256.97953 94.186501 
L 257.304835 94.186501 
L 257.63014 77.681913 
L 257.955445 77.681913 
L 258.280751 56.2688 
L 258.606056 56.2688 
L 258.931361 57.996057 
L 259.256666 57.996057 
L 259.581971 74.916872 
L 259.907276 74.916872 
L 260.232582 76.875583 
L 260.557887 76.875583 
L 260.883192 62.91092 
L 261.208497 62.91092 
L 261.859107 63.027583 
L 262.184412 86.666859 
L 262.509718 86.666859 
L 262.835023 106.412456 
L 263.160328 106.412456 
L 263.485633 104.729426 
L 263.810938 104.729426 
L 264.136243 103.239943 
L 264.461549 103.239943 
L 264.786854 125.820512 
L 265.112159 125.820512 
L 265.437464 157.071756 
L 265.762769 157.071756 
L 266.088074 168.138379 
L 266.413379 168.138379 
L 266.738685 165.831202 
L 267.06399 165.831202 
L 267.389295 180.198189 
L 267.7146 180.198189 
L 268.039905 212.665371 
L 268.36521 212.665371 
L 268.690516 233.22003 
L 269.015821 233.22003 
L 269.341126 231.040529 
L 269.666431 231.040529 
L 269.991736 232.559218 
L 270.317041 232.559218 
L 270.642347 255.793525 
L 270.967652 255.793525 
L 271.292957 279.26389 
L 271.618262 279.26389 
L 271.943567 278.094386 
L 272.268872 278.094386 
L 272.594177 266.456738 
L 272.919483 266.456738 
L 273.244788 272.975139 
L 273.570093 272.975139 
L 273.895398 291.561159 
L 274.220703 291.561159 
L 274.546008 292.046232 
L 274.871314 292.046232 
L 275.196619 271.209904 
L 275.521924 271.209904 
L 275.847229 258.877512 
L 276.172534 258.877512 
L 276.497839 266.522555 
L 276.823144 266.522555 
L 277.14845 268.303547 
L 277.473755 268.303547 
L 277.79906 245.126723 
L 278.124365 245.126723 
L 278.44967 217.929839 
L 278.774975 217.929839 
L 279.100281 211.953503 
L 279.425586 211.953503 
L 279.750891 214.41061 
L 280.076196 214.41061 
L 280.401501 196.404475 
L 280.726806 196.404475 
L 281.052111 163.087067 
L 281.377417 163.087067 
L 281.702722 145.421624 
L 282.028027 145.421624 
L 282.353332 147.432301 
L 282.678637 147.432301 
L 283.003942 140.305388 
L 283.329248 140.305388 
L 283.654553 111.911703 
L 283.979858 111.911703 
L 284.305163 87.833054 
L 284.630468 87.833054 
L 284.955773 88.653846 
L 285.281079 88.653846 
L 285.606384 94.522501 
L 285.931689 94.522501 
L 286.256994 79.96139 
L 286.582299 79.96139 
L 286.907604 57.659602 
L 287.232909 57.659602 
L 287.558215 56.679161 
L 287.88352 56.679161 
L 288.208825 73.517211 
L 288.53413 73.517211 
L 288.859435 77.606431 
L 289.18474 77.606431 
L 289.510046 64.208276 
L 289.835351 64.208276 
L 290.160656 61.849955 
L 290.485961 61.849955 
L 290.811266 84.001848 
L 291.136571 84.001848 
L 291.461876 105.446127 
L 292.437792 105.404193 
L 292.763097 102.358324 
L 293.088402 102.358324 
L 293.413707 122.798928 
L 293.739013 122.798928 
L 294.064318 154.567846 
L 294.389623 154.567846 
L 294.714928 168.144052 
L 295.040233 168.144052 
L 295.365538 165.749819 
L 295.690844 165.749819 
L 296.016149 177.698027 
L 296.341454 177.698027 
L 296.666759 209.532394 
L 296.992064 209.532394 
L 297.317369 232.390535 
L 297.642674 232.390535 
L 297.96798 231.705368 
L 298.293285 231.705368 
L 298.61859 231.38201 
L 298.943895 231.38201 
L 299.2692 252.997021 
L 299.594505 252.997021 
L 299.919811 277.872458 
L 300.245116 277.872458 
L 300.570421 279.194361 
L 300.895726 279.194361 
L 301.221031 267.065495 
L 301.546336 267.065495 
L 301.871641 271.391526 
L 302.196947 271.391526 
L 302.522252 290.215391 
L 302.847557 290.215391 
L 303.172862 293.18984 
L 303.498167 293.18984 
L 303.823472 273.38445 
L 304.148778 273.38445 
L 304.474083 259.024939 
L 304.799388 259.024939 
L 305.124693 265.44928 
L 305.449998 265.44928 
L 305.775303 269.25902 
L 306.100608 269.25902 
L 306.425914 248.124109 
L 306.751219 248.124109 
L 307.076524 219.817252 
L 307.401829 219.817252 
L 307.727134 211.632438 
L 308.052439 211.632438 
L 308.377745 214.770353 
L 308.70305 214.770353 
L 309.028355 199.244367 
L 309.35366 199.244367 
L 309.678965 166.130415 
L 310.00427 166.130415 
L 310.329576 145.926394 
L 310.654881 145.926394 
L 310.980186 147.131932 
L 311.305491 147.131932 
L 311.630796 142.122327 
L 311.956101 142.122327 
L 312.281406 114.986918 
L 312.606712 114.986918 
L 312.932017 89.023989 
L 313.257322 89.023989 
L 313.582627 87.807666 
L 313.907932 87.807666 
L 314.233237 94.695369 
L 314.558543 94.695369 
L 314.883848 82.289473 
L 315.209153 82.289473 
L 315.534458 59.155318 
L 315.859763 59.155318 
L 316.185068 55.557842 
L 316.510373 55.557842 
L 316.835679 72.00367 
L 317.160984 72.00367 
L 317.486289 78.28582 
L 317.811594 78.28582 
L 318.136899 65.535362 
L 318.462204 65.535362 
L 318.78751 60.859866 
L 319.112815 60.859866 
L 319.43812 81.351912 
L 319.763425 81.351912 
L 320.08873 104.291593 
L 320.414035 104.291593 
L 320.73934 106.148226 
L 321.064646 106.148226 
L 321.389951 101.840281 
L 321.715256 101.840281 
L 322.040561 119.800298 
L 322.365866 119.800298 
L 322.691171 151.988052 
L 323.016477 151.988052 
L 323.341782 167.797143 
L 323.667087 167.797143 
L 323.992392 165.882696 
L 324.317697 165.882696 
L 324.643002 175.343925 
L 324.968308 175.343925 
L 325.293613 206.286833 
L 325.618918 206.286833 
L 325.944223 231.331618 
L 326.269528 231.331618 
L 326.594833 232.326312 
L 326.920138 232.326312 
L 327.245444 230.491005 
L 327.570749 230.491005 
L 327.896054 250.268574 
L 328.221359 250.268574 
L 328.546664 276.27869 
L 328.871969 276.27869 
L 329.197275 280.11844 
L 329.52258 280.11844 
L 329.847885 267.932879 
L 330.17319 267.932879 
L 330.498495 269.905807 
L 330.8238 269.905807 
L 331.149105 288.51641 
L 331.474411 288.51641 
L 331.799716 294.216768 
L 332.125021 294.216768 
L 332.450326 275.623306 
L 332.775631 275.623306 
L 333.100936 259.381582 
L 333.426242 259.381582 
L 333.751547 264.394128 
L 334.076852 264.394128 
L 334.402157 269.926853 
L 334.727462 269.926853 
L 335.052767 250.933991 
L 335.378073 250.933991 
L 335.703378 221.903552 
L 336.028683 221.903552 
L 336.353988 211.51145 
L 336.679293 211.51145 
L 337.004598 214.876581 
L 337.329903 214.876581 
L 337.655209 201.951312 
L 337.980514 201.951312 
L 338.305819 169.24443 
L 338.631124 169.24443 
L 338.956429 146.764031 
L 339.932345 146.729363 
L 340.25765 143.562628 
L 340.582955 143.562628 
L 340.90826 118.122119 
L 341.233565 118.122119 
L 341.55887 90.603487 
L 341.884176 90.603487 
L 342.209481 87.022381 
L 342.534786 87.022381 
L 342.860091 94.627118 
L 343.185396 94.627118 
L 343.510701 84.373374 
L 343.836007 84.373374 
L 344.161312 60.931146 
L 344.486617 60.931146 
L 344.811922 54.815245 
L 345.137227 54.815245 
L 345.462532 70.33491 
L 345.787837 70.33491 
L 346.113143 78.743929 
L 346.438448 78.743929 
L 346.763753 66.955667 
L 347.089058 66.955667 
L 347.414363 60.212221 
L 347.739668 60.212221 
L 348.064974 78.58913 
L 348.390279 78.58913 
L 348.715584 102.911297 
L 349.040889 102.911297 
L 349.366194 106.693127 
L 349.691499 106.693127 
L 350.016805 101.537619 
L 350.34211 101.537619 
L 350.667415 117.011077 
L 350.99272 117.011077 
L 351.318025 149.13382 
L 351.64333 149.13382 
L 351.968635 167.442058 
L 352.293941 167.442058 
L 352.619246 166.11998 
L 352.944551 166.11998 
L 353.269856 173.308437 
L 353.595161 173.308437 
L 353.920466 202.975193 
L 354.245772 202.975193 
L 354.571077 229.970354 
L 354.896382 229.970354 
L 355.221687 232.872876 
L 355.546992 232.872876 
L 355.872297 229.936509 
L 356.197602 229.936509 
L 356.522908 247.433935 
L 356.848213 247.433935 
L 357.173518 274.496681 
L 357.498823 274.496681 
L 357.824128 280.899067 
L 358.149433 280.899067 
L 358.474739 268.867201 
L 358.800044 268.867201 
L 359.125349 268.715467 
L 359.450654 268.715467 
L 359.775959 286.857754 
L 360.101264 286.857754 
L 360.42657 294.822391 
L 360.751875 294.822391 
L 361.07718 277.834393 
L 361.402485 277.834393 
L 361.72779 260.030925 
L 362.053095 260.030925 
L 362.3784 263.358184 
L 362.703706 263.358184 
L 363.029011 270.230094 
L 363.354316 270.230094 
L 363.679621 253.8456 
L 364.004926 253.8456 
L 364.330231 224.185095 
L 364.655537 224.185095 
L 364.980842 211.519294 
L 365.306147 211.519294 
L 365.631452 214.847918 
L 365.956757 214.847918 
L 366.282062 204.322887 
L 366.607367 204.322887 
L 366.932673 172.478172 
L 367.257978 172.478172 
L 367.583283 147.819113 
L 367.908588 147.819113 
L 368.233893 146.366468 
L 368.559198 146.366468 
L 368.884504 144.86296 
L 369.209809 144.86296 
L 369.535114 121.170404 
L 369.860419 121.170404 
L 370.185724 92.457808 
L 370.511029 92.457808 
L 370.836334 86.306924 
L 371.16164 86.306924 
L 371.486945 94.343453 
L 371.81225 94.343453 
L 372.137555 86.436071 
L 372.46286 86.436071 
L 372.788165 62.985982 
L 373.113471 62.985982 
L 373.438776 54.111098 
L 373.764081 54.111098 
L 374.089386 68.614937 
L 374.414691 68.614937 
L 374.739996 78.965629 
L 375.065302 78.965629 
L 375.390607 68.414842 
L 375.715912 68.414842 
L 376.041217 59.723402 
L 376.366522 59.723402 
L 376.691827 76.060656 
L 377.017132 76.060656 
L 377.342438 101.280952 
L 377.667743 101.280952 
L 377.993048 107.202065 
L 378.318353 107.202065 
L 378.643658 101.579185 
L 378.968963 101.579185 
L 379.294269 114.319032 
L 379.619574 114.319032 
L 379.944879 146.174498 
L 380.270184 146.174498 
L 380.595489 166.851808 
L 380.920794 166.851808 
L 381.246099 166.354182 
L 381.571405 166.354182 
L 381.89671 171.444801 
L 382.222015 171.444801 
L 382.54732 199.661364 
L 382.872625 199.661364 
L 383.19793 228.370458 
L 383.523236 228.370458 
L 383.848541 233.396504 
L 384.173846 233.396504 
L 384.499151 229.607863 
L 384.824456 229.607863 
L 385.149761 244.784927 
L 385.475066 244.784927 
L 385.800372 272.364561 
L 386.125677 272.364561 
L 386.450982 281.510731 
L 386.776287 281.510731 
L 387.101592 269.931756 
L 387.426897 269.931756 
L 387.752203 267.715504 
L 388.077508 267.715504 
L 388.402813 285.08387 
L 388.728118 285.08387 
L 389.053423 295.191991 
L 389.378728 295.191991 
L 389.704034 280.11781 
L 390.029339 280.11781 
L 390.354644 260.91398 
L 390.679949 260.91398 
L 391.005254 262.30916 
L 391.330559 262.30916 
L 391.655864 270.362743 
L 391.98117 270.362743 
L 392.306475 256.478062 
L 392.63178 256.478062 
L 392.957085 226.711049 
L 393.28239 226.711049 
L 393.607695 211.686734 
L 393.933001 211.686734 
L 394.258306 214.684173 
L 394.583611 214.684173 
L 394.908916 206.447584 
L 395.234221 206.447584 
L 395.559526 175.807024 
L 395.884831 175.807024 
L 396.210137 149.089925 
L 396.535442 149.089925 
L 396.860747 145.90442 
L 397.836662 145.925956 
L 398.161968 124.32877 
L 398.487273 124.32877 
L 398.487273 124.32877 
" clip-path="url(#p4c7ef14c1c)" style="fill: none; stroke: #0000ff; stroke-opacity: 0.5; stroke-width: 1.5; stroke-linecap: square"/>
   </g>
   <g id="line2d_28">
    <path d="M 73.832727 270.911881 
L 74.158032 270.911881 
L 74.483338 273.797367 
L 75.459253 273.7596 
L 75.784558 278.911081 
L 76.109863 278.911081 
L 76.435169 284.911825 
L 76.760474 284.911825 
L 77.085779 282.285387 
L 77.411084 282.285387 
L 77.736389 272.615204 
L 78.061694 272.615204 
L 78.386999 265.874227 
L 78.712305 265.874227 
L 79.03761 263.553568 
L 79.362915 263.553568 
L 79.68822 256.32097 
L 80.013525 256.32097 
L 80.33883 240.214976 
L 80.664136 240.214976 
L 80.989441 223.769709 
L 81.314746 223.769709 
L 81.640051 213.783294 
L 81.965356 213.783294 
L 82.290661 204.154555 
L 82.615966 204.154555 
L 82.941272 186.751853 
L 83.266577 186.751853 
L 83.591882 165.812817 
L 83.917187 165.812817 
L 84.242492 151.247434 
L 84.567797 151.247434 
L 84.893103 142.17974 
L 85.218408 142.17974 
L 85.543713 129.015384 
L 85.869018 129.015384 
L 86.194323 110.329474 
L 86.519628 110.329474 
L 86.844934 95.807338 
L 87.170239 95.807338 
L 87.495544 90.124613 
L 87.820849 90.124613 
L 88.146154 85.360433 
L 88.471459 85.360433 
L 88.796764 74.911585 
L 89.12207 74.911585 
L 89.447375 65.032203 
L 89.77268 65.032203 
L 90.097985 64.409 
L 90.42329 64.409 
L 90.748595 69.463849 
L 91.073901 69.463849 
L 91.399206 70.575941 
L 91.724511 70.575941 
L 92.049816 68.563372 
L 92.375121 68.563372 
L 92.700426 73.215651 
L 93.025731 73.215651 
L 93.351037 86.428735 
L 93.676342 86.428735 
L 94.001647 98.75647 
L 94.326952 98.75647 
L 94.652257 105.289333 
L 94.977562 105.289333 
L 95.302868 113.741739 
L 95.628173 113.741739 
L 95.953478 130.878319 
L 96.278783 130.878319 
L 96.604088 150.521611 
L 96.929393 150.521611 
L 97.254698 163.643507 
L 97.580004 163.643507 
L 97.905309 173.289072 
L 98.230614 173.289072 
L 98.555919 188.851075 
L 98.881224 188.851075 
L 99.206529 209.500808 
L 99.531835 209.500808 
L 99.85714 225.078095 
L 100.182445 225.078095 
L 100.50775 232.938606 
L 100.833055 232.938606 
L 101.15836 242.000031 
L 101.483666 242.000031 
L 101.808971 257.034221 
L 102.134276 257.034221 
L 102.459581 270.134651 
L 102.784886 270.134651 
L 103.110191 273.853361 
L 103.435496 273.853361 
L 103.760802 273.653512 
L 104.086107 273.653512 
L 104.411412 278.318345 
L 104.736717 278.318345 
L 105.062022 284.729958 
L 105.387327 284.729958 
L 105.712633 283.092032 
L 106.037938 283.092032 
L 106.363243 273.631311 
L 106.688548 273.631311 
L 107.013853 266.288493 
L 107.339158 266.288493 
L 107.664463 263.865668 
L 107.989769 263.865668 
L 108.315074 257.481037 
L 108.640379 257.481037 
L 108.965684 241.987075 
L 109.290989 241.987075 
L 109.616294 225.097846 
L 109.9416 225.097846 
L 110.266905 214.566232 
L 110.59221 214.566232 
L 110.917515 205.365311 
L 111.24282 205.365311 
L 111.568125 188.747911 
L 111.89343 188.747911 
L 112.218736 167.685173 
L 112.544041 167.685173 
L 112.869346 152.312846 
L 113.194651 152.312846 
L 113.519956 143.117616 
L 113.845261 143.117616 
L 114.170567 130.629707 
L 114.495872 130.629707 
L 114.821177 112.137116 
L 115.146482 112.137116 
L 115.471787 96.801996 
L 115.797092 96.801996 
L 116.122398 90.452699 
L 116.447703 90.452699 
L 116.773008 86.048402 
L 117.098313 86.048402 
L 117.423618 76.047909 
L 117.748923 76.047909 
L 118.074228 65.634989 
L 118.399534 65.634989 
L 118.724839 64.074979 
L 119.050144 64.074979 
L 119.375449 69.061734 
L 119.700754 69.061734 
L 120.026059 70.756075 
L 120.351365 70.756075 
L 120.67667 68.60774 
L 121.001975 68.60774 
L 121.32728 72.28744 
L 121.652585 72.28744 
L 121.97789 85.013245 
L 122.303195 85.013245 
L 122.628501 97.870911 
L 122.953806 97.870911 
L 123.279111 104.780448 
L 123.604416 104.780448 
L 123.929721 112.568663 
L 124.255026 112.568663 
L 124.580332 128.933161 
L 124.905637 128.933161 
L 125.230942 148.852221 
L 125.556247 148.852221 
L 125.881552 162.71808 
L 126.206857 162.71808 
L 126.532163 172.242867 
L 126.857468 172.242867 
L 127.182773 187.008204 
L 127.508078 187.008204 
L 127.833383 207.577868 
L 128.158688 207.577868 
L 128.483993 223.992828 
L 128.809299 223.992828 
L 129.134604 232.314283 
L 129.459909 232.314283 
L 129.785214 240.84161 
L 130.110519 240.84161 
L 130.435824 255.475664 
L 130.76113 255.475664 
L 131.086435 269.241599 
L 131.41174 269.241599 
L 131.737045 273.816855 
L 132.06235 273.816855 
L 132.387655 273.485057 
L 132.71296 273.485057 
L 133.038266 277.529997 
L 133.363571 277.529997 
L 133.688876 284.203178 
L 134.014181 284.203178 
L 134.339486 283.604664 
L 134.664791 283.604664 
L 134.990097 274.56143 
L 135.315402 274.56143 
L 135.640707 266.689994 
L 135.966012 266.689994 
L 136.291317 264.089452 
L 136.616622 264.089452 
L 136.941927 258.525071 
L 137.267233 258.525071 
L 137.592538 243.759453 
L 137.917843 243.759453 
L 138.243148 226.515367 
L 138.568453 226.515367 
L 138.893758 215.370058 
L 139.219064 215.370058 
L 139.544369 206.499516 
L 139.869674 206.499516 
L 140.194979 190.692701 
L 140.520284 190.692701 
L 140.845589 169.599813 
L 141.170895 169.599813 
L 141.4962 153.431802 
L 141.821505 153.431802 
L 142.14681 144.021787 
L 142.472115 144.021787 
L 142.79742 132.204355 
L 143.122725 132.204355 
L 143.448031 113.989056 
L 143.773336 113.989056 
L 144.098641 97.876006 
L 144.423946 97.876006 
L 144.749251 90.795054 
L 145.074556 90.795054 
L 145.399862 86.694471 
L 145.725167 86.694471 
L 146.050472 77.242276 
L 146.375777 77.242276 
L 146.701082 66.35134 
L 147.026387 66.35134 
L 147.351692 63.758431 
L 147.676998 63.758431 
L 148.002303 68.552026 
L 148.327608 68.552026 
L 148.652913 70.860376 
L 148.978218 70.860376 
L 149.303523 68.751595 
L 149.628829 68.751595 
L 149.954134 71.504257 
L 150.279439 71.504257 
L 150.604744 83.605126 
L 150.930049 83.605126 
L 151.255354 96.897841 
L 151.58066 96.897841 
L 151.905965 104.276641 
L 152.23127 104.276641 
L 152.556575 111.516943 
L 152.88188 111.516943 
L 153.207185 127.040828 
L 153.53249 127.040828 
L 153.857796 147.076708 
L 154.183101 147.076708 
L 154.508406 161.679071 
L 154.833711 161.679071 
L 155.159016 171.204646 
L 155.484321 171.204646 
L 155.809627 185.205903 
L 156.134932 185.205903 
L 156.460237 205.596851 
L 156.785542 205.596851 
L 157.110847 222.822728 
L 157.436152 222.822728 
L 157.761457 231.705351 
L 158.086763 231.705351 
L 158.412068 239.757796 
L 158.737373 239.757796 
L 159.062678 253.918403 
L 159.387983 253.918403 
L 159.713288 268.270525 
L 160.038594 268.270525 
L 160.363899 273.771489 
L 160.689204 273.771489 
L 161.014509 273.416981 
L 161.339814 273.416981 
L 161.665119 276.851168 
L 161.990424 276.851168 
L 162.31573 283.721853 
L 162.641035 283.721853 
L 162.96634 284.146501 
L 163.291645 284.146501 
L 163.61695 275.566681 
L 163.942255 275.566681 
L 164.267561 267.181878 
L 164.592866 267.181878 
L 164.918171 264.298739 
L 165.243476 264.298739 
L 165.568781 259.482697 
L 165.894086 259.482697 
L 166.219392 245.488251 
L 166.544697 245.488251 
L 166.870002 227.959046 
L 167.195307 227.959046 
L 167.520612 216.17152 
L 167.845917 216.17152 
L 168.171222 207.550764 
L 168.496528 207.550764 
L 168.821833 192.595575 
L 169.147138 192.595575 
L 169.472443 171.574474 
L 169.797748 171.574474 
L 170.123053 154.592079 
L 170.448359 154.592079 
L 170.773664 144.856307 
L 171.098969 144.856307 
L 171.424274 133.68568 
L 171.749579 133.68568 
L 172.074884 115.874543 
L 172.400189 115.874543 
L 172.725495 99.077762 
L 173.0508 99.077762 
L 173.376105 91.167438 
L 173.70141 91.167438 
L 174.026715 87.235713 
L 174.35202 87.235713 
L 174.677326 78.355384 
L 175.002631 78.355384 
L 175.327936 67.157477 
L 175.653241 67.157477 
L 175.978546 63.576372 
L 176.303851 63.576372 
L 176.629156 68.052631 
L 176.954462 68.052631 
L 177.279767 70.899667 
L 177.605072 70.899667 
L 177.930377 68.899495 
L 178.255682 68.899495 
L 178.580987 70.785245 
L 178.906293 70.785245 
L 179.231598 82.196903 
L 179.556903 82.196903 
L 179.882208 95.85906 
L 180.207513 95.85906 
L 180.532818 103.741982 
L 180.858124 103.741982 
L 181.183429 110.491486 
L 181.508734 110.491486 
L 181.834039 125.141963 
L 182.159344 125.141963 
L 182.484649 145.243258 
L 182.809954 145.243258 
L 183.13526 160.620154 
L 183.460565 160.620154 
L 183.78587 170.25194 
L 184.111175 170.25194 
L 184.43648 183.500514 
L 184.761785 183.500514 
L 185.087091 203.582339 
L 185.412396 203.582339 
L 185.737701 221.543879 
L 186.063006 221.543879 
L 186.388311 231.059124 
L 186.713616 231.059124 
L 187.038921 238.74281 
L 187.364227 238.74281 
L 187.689532 252.38196 
L 188.014837 252.38196 
L 188.340142 267.19951 
L 188.665447 267.19951 
L 188.990752 273.642919 
L 189.316058 273.642919 
L 189.641363 273.401749 
L 189.966668 273.401749 
L 190.291973 276.26941 
L 190.617278 276.26941 
L 190.942583 283.190503 
L 191.267889 283.190503 
L 191.593194 284.565197 
L 191.918499 284.565197 
L 192.243804 276.575417 
L 192.569109 276.575417 
L 192.894414 267.749751 
L 193.219719 267.749751 
L 193.545025 264.491847 
L 193.87033 264.491847 
L 194.195635 260.297589 
L 194.52094 260.297589 
L 194.846245 247.132918 
L 195.17155 247.132918 
L 195.496856 229.469243 
L 195.822161 229.469243 
L 196.147466 217.024967 
L 196.472771 217.024967 
L 196.798076 208.567694 
L 197.123381 208.567694 
L 197.448686 194.454904 
L 197.773992 194.454904 
L 198.099297 173.608456 
L 198.424602 173.608456 
L 198.749907 155.86578 
L 199.075212 155.86578 
L 199.400517 145.674508 
L 199.725823 145.674508 
L 200.051128 135.03896 
L 200.376433 135.03896 
L 200.701738 117.713824 
L 201.027043 117.713824 
L 201.352348 100.35008 
L 201.677653 100.35008 
L 202.002959 91.612415 
L 202.328264 91.612415 
L 202.653569 87.776044 
L 202.978874 87.776044 
L 203.304179 79.474024 
L 203.629484 79.474024 
L 203.95479 68.033914 
L 204.280095 68.033914 
L 204.6054 63.468813 
L 204.930705 63.468813 
L 205.25601 67.555652 
L 205.581315 67.555652 
L 205.906621 70.916686 
L 206.231926 70.916686 
L 206.557231 69.103634 
L 206.882536 69.103634 
L 207.207841 70.165614 
L 207.533146 70.165614 
L 207.858451 80.789064 
L 208.183757 80.789064 
L 208.509062 94.717938 
L 208.834367 94.717938 
L 209.159672 103.193736 
L 209.484977 103.193736 
L 209.810282 109.617676 
L 210.135588 109.617676 
L 210.460893 123.366766 
L 210.786198 123.366766 
L 211.111503 143.377924 
L 211.436808 143.377924 
L 211.762113 159.498327 
L 212.087418 159.498327 
L 212.412724 169.331975 
L 212.738029 169.331975 
L 213.063334 181.850087 
L 213.388639 181.850087 
L 213.713944 201.537186 
L 214.039249 201.537186 
L 214.364555 220.165964 
L 214.68986 220.165964 
L 215.015165 230.385496 
L 215.34047 230.385496 
L 215.665775 237.772261 
L 215.99108 237.772261 
L 216.316385 250.834329 
L 216.641691 250.834329 
L 216.966996 266.051804 
L 217.292301 266.051804 
L 217.617606 273.458145 
L 218.593522 273.428853 
L 218.918827 275.718626 
L 219.244132 275.718626 
L 219.569437 282.615189 
L 219.894742 282.615189 
L 220.220047 284.900724 
L 220.545353 284.900724 
L 220.870658 277.540012 
L 221.195963 277.540012 
L 221.521268 268.339861 
L 221.846573 268.339861 
L 222.171878 264.671 
L 222.497183 264.671 
L 222.822489 261.054001 
L 223.147794 261.054001 
L 223.473099 248.773803 
L 223.798404 248.773803 
L 224.123709 231.050527 
L 224.449014 231.050527 
L 224.77432 217.928333 
L 225.099625 217.928333 
L 225.42493 209.499302 
L 225.750235 209.499302 
L 226.07554 196.21858 
L 226.400845 196.21858 
L 226.72615 175.654992 
L 227.051456 175.654992 
L 227.376761 157.187946 
L 227.702066 157.187946 
L 228.027371 146.493777 
L 228.352676 146.493777 
L 228.677981 136.379545 
L 229.003287 136.379545 
L 229.328592 119.600204 
L 229.653897 119.600204 
L 229.979202 101.707842 
L 230.304507 101.707842 
L 230.629812 92.049793 
L 230.955118 92.049793 
L 231.280423 88.206138 
L 231.605728 88.206138 
L 231.931033 80.542991 
L 232.256338 80.542991 
L 232.581643 69.00054 
L 232.906948 69.00054 
L 233.232254 63.465154 
L 233.557559 63.465154 
L 233.882864 67.028278 
L 234.208169 67.028278 
L 234.533474 70.868063 
L 234.858779 70.868063 
L 235.184085 69.334281 
L 235.50939 69.334281 
L 235.834695 69.656047 
L 236.16 69.656047 
L 236.485305 79.452575 
L 236.81061 79.452575 
L 237.135915 93.556366 
L 237.461221 93.556366 
L 237.786526 102.627246 
L 238.111831 102.627246 
L 238.437136 108.768186 
L 238.762441 108.768186 
L 239.087746 121.626132 
L 239.413052 121.626132 
L 239.738357 141.457488 
L 240.063662 141.457488 
L 240.388967 158.272724 
L 240.714272 158.272724 
L 241.039577 168.409157 
L 241.364882 168.409157 
L 241.690188 180.288886 
L 242.015493 180.288886 
L 242.340798 199.493802 
L 242.666103 199.493802 
L 242.991408 218.705353 
L 243.316713 218.705353 
L 243.642019 229.682925 
L 243.967324 229.682925 
L 244.292629 236.870717 
L 244.617934 236.870717 
L 244.943239 249.322399 
L 245.268544 249.322399 
L 245.59385 264.805032 
L 245.919155 264.805032 
L 246.24446 273.209638 
L 246.569765 273.209638 
L 246.89507 273.492621 
L 247.220375 273.492621 
L 247.54568 275.184492 
L 247.870986 275.184492 
L 248.196291 281.925662 
L 248.521596 281.925662 
L 248.846901 285.112234 
L 249.172206 285.112234 
L 249.497511 278.538732 
L 249.822817 278.538732 
L 250.148122 269.04772 
L 250.473427 269.04772 
L 250.798732 264.85306 
L 251.124037 264.85306 
L 251.449342 261.702696 
L 251.774647 261.702696 
L 252.099953 250.3467 
L 252.425258 250.3467 
L 252.750563 232.694371 
L 253.075868 232.694371 
L 253.401173 218.885539 
L 253.726478 218.885539 
L 254.051784 210.3604 
L 254.377089 210.3604 
L 254.702394 197.863965 
L 255.027699 197.863965 
L 255.353004 177.731592 
L 255.678309 177.731592 
L 256.003615 158.667677 
L 256.32892 158.667677 
L 256.654225 147.372998 
L 256.97953 147.372998 
L 257.304835 137.622728 
L 257.63014 137.622728 
L 257.955445 121.418771 
L 258.280751 121.418771 
L 258.606056 103.154481 
L 258.931361 103.154481 
L 259.256666 92.604535 
L 259.581971 92.604535 
L 259.907276 88.648874 
L 260.232582 88.648874 
L 260.557887 81.577325 
L 260.883192 81.577325 
L 261.208497 70.015491 
L 261.533802 70.015491 
L 261.859107 63.524545 
L 262.184412 63.524545 
L 262.509718 66.495072 
L 262.835023 66.495072 
L 263.160328 70.746147 
L 263.485633 70.746147 
L 263.810938 69.586098 
L 264.136243 69.586098 
L 264.461549 69.239645 
L 264.786854 69.239645 
L 265.112159 78.120324 
L 265.437464 78.120324 
L 265.762769 92.317227 
L 266.088074 92.317227 
L 266.413379 102.030045 
L 266.738685 102.030045 
L 267.06399 108.030596 
L 267.389295 108.030596 
L 267.7146 119.989694 
L 268.039905 119.989694 
L 268.36521 139.526215 
L 268.690516 139.526215 
L 269.015821 157.009283 
L 269.341126 157.009283 
L 269.666431 167.535137 
L 269.991736 167.535137 
L 270.317041 178.813253 
L 270.642347 178.813253 
L 270.967652 197.463566 
L 271.292957 197.463566 
L 271.618262 217.165443 
L 271.943567 217.165443 
L 272.268872 228.956086 
L 272.594177 228.956086 
L 272.919483 236.03758 
L 273.244788 236.03758 
L 273.570093 247.836785 
L 273.895398 247.836785 
L 274.220703 263.459421 
L 274.546008 263.459421 
L 274.871314 272.824946 
L 275.196619 272.824946 
L 275.521924 273.55751 
L 275.847229 273.55751 
L 276.172534 274.755676 
L 276.497839 274.755676 
L 276.823144 281.262119 
L 277.14845 281.262119 
L 277.473755 285.230106 
L 277.79906 285.230106 
L 278.124365 279.490791 
L 278.44967 279.490791 
L 278.774975 269.792926 
L 279.100281 269.792926 
L 279.425586 265.053417 
L 279.750891 265.053417 
L 280.076196 262.273581 
L 280.401501 262.273581 
L 280.726806 251.883143 
L 281.052111 251.883143 
L 281.377417 234.396433 
L 281.702722 234.396433 
L 282.028027 219.886431 
L 282.353332 219.886431 
L 282.678637 211.176115 
L 283.003942 211.176115 
L 283.329248 199.44222 
L 283.654553 199.44222 
L 283.979858 179.802588 
L 284.305163 179.802588 
L 284.630468 160.145237 
L 284.955773 160.145237 
L 285.281079 148.184248 
L 285.606384 148.184248 
L 285.931689 138.798991 
L 286.256994 138.798991 
L 286.582299 123.281882 
L 286.907604 123.281882 
L 287.232909 104.743836 
L 287.558215 104.743836 
L 287.88352 93.237122 
L 288.208825 93.237122 
L 288.53413 89.023289 
L 288.859435 89.023289 
L 289.18474 82.544581 
L 289.510046 82.544581 
L 289.835351 71.075056 
L 290.160656 71.075056 
L 290.485961 63.695889 
L 290.811266 63.695889 
L 291.136571 65.943552 
L 291.461876 65.943552 
L 291.787182 70.519999 
L 292.112487 70.519999 
L 292.437792 69.832241 
L 292.763097 69.832241 
L 293.088402 68.95703 
L 293.413707 68.95703 
L 293.739013 76.894948 
L 294.064318 76.894948 
L 294.389623 91.023216 
L 294.714928 91.023216 
L 295.040233 101.341481 
L 295.365538 101.341481 
L 295.690844 107.296684 
L 296.016149 107.296684 
L 296.341454 118.383933 
L 296.666759 118.383933 
L 296.992064 137.538772 
L 297.317369 137.538772 
L 297.642674 155.659312 
L 297.96798 155.659312 
L 298.293285 166.675474 
L 298.61859 166.675474 
L 298.943895 177.431485 
L 299.2692 177.431485 
L 299.594505 195.434434 
L 299.919811 195.434434 
L 300.245116 215.538898 
L 300.570421 215.538898 
L 300.895726 228.182498 
L 301.221031 228.182498 
L 301.546336 235.262206 
L 301.871641 235.262206 
L 302.196947 246.391372 
L 302.522252 246.391372 
L 302.847557 262.050918 
L 303.172862 262.050918 
L 303.498167 272.36302 
L 303.823472 272.36302 
L 304.148778 273.630873 
L 304.474083 273.630873 
L 304.799388 274.389823 
L 305.124693 274.389823 
L 305.449998 280.57809 
L 305.775303 280.57809 
L 306.100608 285.261272 
L 306.425914 285.261272 
L 306.751219 280.396748 
L 307.076524 280.396748 
L 307.401829 270.578455 
L 307.727134 270.578455 
L 308.052439 265.2668 
L 308.377745 265.2668 
L 308.70305 262.758706 
L 309.028355 262.758706 
L 309.35366 253.33619 
L 309.678965 253.33619 
L 310.00427 236.130098 
L 310.329576 236.130098 
L 310.654881 220.968214 
L 310.980186 220.968214 
L 311.305491 211.97728 
L 311.630796 211.97728 
L 311.956101 200.962449 
L 312.281406 200.962449 
L 312.606712 181.907342 
L 312.932017 181.907342 
L 313.257322 161.751121 
L 313.582627 161.751121 
L 313.907932 149.062803 
L 314.233237 149.062803 
L 314.558543 139.901348 
L 314.883848 139.901348 
L 315.209153 125.060704 
L 315.534458 125.060704 
L 315.859763 106.327414 
L 316.185068 106.327414 
L 316.510373 93.893609 
L 316.835679 93.893609 
L 317.160984 89.385693 
L 317.486289 89.385693 
L 317.811594 83.486344 
L 318.136899 83.486344 
L 318.462204 72.191192 
L 318.78751 72.191192 
L 319.112815 63.956477 
L 319.43812 63.956477 
L 319.763425 65.428171 
L 320.08873 65.428171 
L 320.414035 70.276325 
L 320.73934 70.276325 
L 321.064646 70.083427 
L 321.389951 70.083427 
L 321.715256 68.74074 
L 322.040561 68.74074 
L 322.365866 75.710683 
L 322.691171 75.710683 
L 323.016477 89.714339 
L 323.341782 89.714339 
L 323.667087 100.676432 
L 323.992392 100.676432 
L 324.317697 106.67947 
L 324.643002 106.67947 
L 324.968308 116.905883 
L 325.293613 116.905883 
L 325.618918 135.535518 
L 325.944223 135.535518 
L 326.269528 154.206125 
L 326.594833 154.206125 
L 326.920138 165.781441 
L 327.245444 165.781441 
L 327.570749 176.092212 
L 327.896054 176.092212 
L 328.221359 193.413917 
L 328.546664 193.413917 
L 328.871969 213.815423 
L 329.197275 213.815423 
L 329.52258 227.34677 
L 329.847885 227.34677 
L 330.17319 234.540673 
L 330.498495 234.540673 
L 330.8238 245.022964 
L 331.149105 245.022964 
L 331.474411 260.616045 
L 331.799716 260.616045 
L 332.125021 271.829517 
L 332.450326 271.829517 
L 332.775631 273.714374 
L 333.100936 273.714374 
L 333.426242 274.054559 
L 333.751547 274.054559 
L 334.076852 279.832656 
L 334.402157 279.832656 
L 334.727462 285.162888 
L 335.052767 285.162888 
L 335.378073 281.261243 
L 335.703378 281.261243 
L 336.028683 271.438713 
L 336.353988 271.438713 
L 336.679293 265.518704 
L 337.004598 265.518704 
L 337.329903 263.157652 
L 337.655209 263.157652 
L 337.980514 254.667093 
L 338.305819 254.667093 
L 338.631124 237.852943 
L 338.956429 237.852943 
L 339.281734 222.109406 
L 339.60704 222.109406 
L 339.932345 212.771617 
L 340.25765 212.771617 
L 340.582955 202.39902 
L 340.90826 202.39902 
L 341.233565 184.004585 
L 341.55887 184.004585 
L 341.884176 163.452272 
L 342.209481 163.452272 
L 342.534786 149.967219 
L 342.860091 149.967219 
L 343.185396 140.909628 
L 343.510701 140.909628 
L 343.836007 126.781745 
L 344.161312 126.781745 
L 344.486617 108.007817 
L 344.811922 108.007817 
L 345.137227 94.669701 
L 345.462532 94.669701 
L 345.787837 89.712115 
L 346.113143 89.712115 
L 346.438448 84.323228 
L 346.763753 84.323228 
L 347.089058 73.342242 
L 347.414363 73.342242 
L 347.739668 64.370025 
L 348.064974 64.370025 
L 348.390279 64.997097 
L 348.715584 64.997097 
L 349.040889 69.985883 
L 349.366194 69.985883 
L 349.691499 70.323162 
L 350.016805 70.323162 
L 350.34211 68.613939 
L 350.667415 68.613939 
L 350.99272 74.58082 
L 351.318025 74.58082 
L 351.64333 88.316516 
L 351.968635 88.316516 
L 352.293941 99.886876 
L 352.619246 99.886876 
L 352.944551 106.064935 
L 353.269856 106.064935 
L 353.595161 115.490428 
L 353.920466 115.490428 
L 354.245772 133.545151 
L 354.571077 133.545151 
L 354.896382 152.711091 
L 355.221687 152.711091 
L 355.546992 164.92682 
L 355.872297 164.92682 
L 356.197602 174.881544 
L 356.522908 174.881544 
L 356.848213 191.444561 
L 357.173518 191.444561 
L 357.498823 212.0099 
L 357.824128 212.0099 
L 358.149433 226.430605 
L 358.474739 226.430605 
L 358.800044 233.838382 
L 359.125349 233.838382 
L 359.450654 243.687526 
L 359.775959 243.687526 
L 360.101264 259.115233 
L 360.42657 259.115233 
L 360.751875 271.178931 
L 361.07718 271.178931 
L 361.402485 273.790258 
L 362.3784 273.822825 
L 362.703706 279.140013 
L 363.029011 279.140013 
L 363.354316 284.982177 
L 363.679621 284.982177 
L 364.004926 282.031627 
L 364.330231 282.031627 
L 364.655537 272.320193 
L 364.980842 272.320193 
L 365.306147 265.809128 
L 365.631452 265.809128 
L 365.956757 263.507256 
L 366.282062 263.507256 
L 366.607367 255.946152 
L 366.932673 255.946152 
L 367.257978 239.635442 
L 367.583283 239.635442 
L 367.908588 223.353079 
L 368.233893 223.353079 
L 368.559198 213.540582 
L 368.884504 213.540582 
L 369.209809 203.720329 
L 369.535114 203.720329 
L 369.860419 186.043714 
L 370.185724 186.043714 
L 370.511029 165.216474 
L 370.836334 165.216474 
L 371.16164 150.953946 
L 371.486945 150.953946 
L 371.81225 141.906265 
L 372.137555 141.906265 
L 372.46286 128.479622 
L 372.788165 128.479622 
L 373.113471 109.739154 
L 373.438776 109.739154 
L 373.764081 95.510226 
L 374.089386 95.510226 
L 374.414691 90.032305 
L 374.739996 90.032305 
L 375.065302 85.139433 
L 375.390607 85.139433 
L 375.715912 74.549706 
L 376.041217 74.549706 
L 376.366522 64.877299 
L 376.691827 64.877299 
L 377.017132 64.568859 
L 377.342438 64.568859 
L 377.667743 69.612484 
L 377.993048 69.612484 
L 378.318353 70.515009 
L 378.643658 70.515009 
L 378.968963 68.552657 
L 379.294269 68.552657 
L 379.619574 73.546748 
L 379.944879 73.546748 
L 380.270184 86.933943 
L 380.595489 86.933943 
L 380.920794 99.098475 
L 381.246099 99.098475 
L 381.571405 105.52765 
L 381.89671 105.52765 
L 382.222015 114.198552 
L 382.54732 114.198552 
L 382.872625 131.570332 
L 383.19793 131.570332 
L 383.523236 151.118339 
L 383.848541 151.118339 
L 384.173846 164.00395 
L 384.499151 164.00395 
L 384.824456 173.687527 
L 385.149761 173.687527 
L 385.475066 189.491418 
L 385.800372 189.491418 
L 386.125677 210.148943 
L 386.450982 210.148943 
L 386.776287 225.464557 
L 387.101592 225.464557 
L 387.426897 233.194852 
L 387.752203 233.194852 
L 388.077508 242.427009 
L 388.402813 242.427009 
L 388.728118 257.569108 
L 389.053423 257.569108 
L 389.378728 270.408039 
L 389.704034 270.408039 
L 390.029339 273.82659 
L 390.354644 273.82659 
L 390.679949 273.650553 
L 391.005254 273.650553 
L 391.330559 278.454759 
L 391.655864 278.454759 
L 391.98117 284.728207 
L 392.306475 284.728207 
L 392.63178 282.767203 
L 392.957085 282.767203 
L 393.28239 273.262131 
L 393.607695 273.262131 
L 393.933001 266.156702 
L 394.258306 266.156702 
L 394.583611 263.788068 
L 394.908916 263.788068 
L 395.234221 257.113905 
L 395.559526 257.113905 
L 395.884831 241.404529 
L 396.210137 241.404529 
L 396.535442 224.662306 
L 396.860747 224.662306 
L 397.186052 214.317304 
L 397.511357 214.317304 
L 397.836662 204.956823 
L 398.161968 204.956823 
L 398.487273 188.045725 
L 398.487273 188.045725 
" clip-path="url(#p4c7ef14c1c)" style="fill: none; stroke: #ff0000; stroke-opacity: 0.5; stroke-width: 1.5; stroke-linecap: square"/>
   </g>
   <g id="patch_3">
    <path d="M 57.6 307.584 
L 57.6 41.472 
" style="fill: none; stroke: #000000; stroke-width: 0.8; stroke-linejoin: miter; stroke-linecap: square"/>
   </g>
   <g id="patch_4">
    <path d="M 414.72 307.584 
L 414.72 41.472 
" style="fill: none; stroke: #000000; stroke-width: 0.8; stroke-linejoin: miter; stroke-linecap: square"/>
   </g>
   <g id="patch_5">
    <path d="M 57.6 307.584 
L 414.72 307.584 
" style="fill: none; stroke: #000000; stroke-width: 0.8; stroke-linejoin: miter; stroke-linecap: square"/>
   </g>
   <g id="patch_6">
    <path d="M 57.6 41.472 
L 414.72 41.472 
" style="fill: none; stroke: #000000; stroke-width: 0.8; stroke-linejoin: miter; stroke-linecap: square"/>
   </g>
   <g id="text_17">
    <!-- Input vs Output signals (Channel L) -->
    <g transform="translate(130.039688 35.472) scale(0.12 -0.12)">
     <defs>
      <path id="DejaVuSans-49" d="M 628 4666 
L 1259 4666 
L 1259 0 
L 628 0 
L 628 4666 
z
" transform="scale(0.015625)"/>
      <path id="DejaVuSans-6e" d="M 3513 2113 
L 3513 0 
L 2938 0 
L 2938 2094 
Q 2938 2591 2744 2837 
Q 2550 3084 2163 3084 
Q 1697 3084 1428 2787 
Q 1159 2491 1159 1978 
L 1159 0 
L 581 0 
L 581 3500 
L 1159 3500 
L 1159 2956 
Q 1366 3272 1645 3428 
Q 1925 3584 2291 3584 
Q 2894 3584 3203 3211 
Q 3513 2838 3513 2113 
z
" transform="scale(0.015625)"/>
      <path id="DejaVuSans-20" transform="scale(0.015625)"/>
      <path id="DejaVuSans-76" d="M 191 3500 
L 800 3500 
L 1894 563 
L 2988 3500 
L 3597 3500 
L 2284 0 
L 1503 0 
L 191 3500 
z
" transform="scale(0.015625)"/>
      <path id="DejaVuSans-4f" d="M 2522 4238 
Q 1834 4238 1429 3725 
Q 1025 3213 1025 2328 
Q 1025 1447 1429 934 
Q 1834 422 2522 422 
Q 3209 422 3611 934 
Q 4013 1447 4013 2328 
Q 4013 3213 3611 3725 
Q 3209 4238 2522 4238 
z
M 2522 4750 
Q 3503 4750 4090 4092 
Q 4678 3434 4678 2328 
Q 4678 1225 4090 567 
Q 3503 -91 2522 -91 
Q 1538 -91 948 565 
Q 359 1222 359 2328 
Q 359 3434 948 4092 
Q 1538 4750 2522 4750 
z
" transform="scale(0.015625)"/>
      <path id="DejaVuSans-67" d="M 2906 1791 
Q 2906 2416 2648 2759 
Q 2391 3103 1925 3103 
Q 1463 3103 1205 2759 
Q 947 2416 947 1791 
Q 947 1169 1205 825 
Q 1463 481 1925 481 
Q 2391 481 2648 825 
Q 2906 1169 2906 1791 
z
M 3481 434 
Q 3481 -459 3084 -895 
Q 2688 -1331 1869 -1331 
Q 1566 -1331 1297 -1286 
Q 1028 -1241 775 -1147 
L 775 -588 
Q 1028 -725 1275 -790 
Q 1522 -856 1778 -856 
Q 2344 -856 2625 -561 
Q 2906 -266 2906 331 
L 2906 616 
Q 2728 306 2450 153 
Q 2172 0 1784 0 
Q 1141 0 747 490 
Q 353 981 353 1791 
Q 353 2603 747 3093 
Q 1141 3584 1784 3584 
Q 2172 3584 2450 3431 
Q 2728 3278 2906 2969 
L 2906 3500 
L 3481 3500 
L 3481 434 
z
" transform="scale(0.015625)"/>
      <path id="DejaVuSans-28" d="M 1984 4856 
Q 1566 4138 1362 3434 
Q 1159 2731 1159 2009 
Q 1159 1288 1364 580 
Q 1569 -128 1984 -844 
L 1484 -844 
Q 1016 -109 783 600 
Q 550 1309 550 2009 
Q 550 2706 781 3412 
Q 1013 4119 1484 4856 
L 1984 4856 
z
" transform="scale(0.015625)"/>
      <path id="DejaVuSans-43" d="M 4122 4306 
L 4122 3641 
Q 3803 3938 3442 4084 
Q 3081 4231 2675 4231 
Q 1875 4231 1450 3742 
Q 1025 3253 1025 2328 
Q 1025 1406 1450 917 
Q 1875 428 2675 428 
Q 3081 428 3442 575 
Q 3803 722 4122 1019 
L 4122 359 
Q 3791 134 3420 21 
Q 3050 -91 2638 -91 
Q 1578 -91 968 557 
Q 359 1206 359 2328 
Q 359 3453 968 4101 
Q 1578 4750 2638 4750 
Q 3056 4750 3426 4639 
Q 3797 4528 4122 4306 
z
" transform="scale(0.015625)"/>
      <path id="DejaVuSans-68" d="M 3513 2113 
L 3513 0 
L 2938 0 
L 2938 2094 
Q 2938 2591 2744 2837 
Q 2550 3084 2163 3084 
Q 1697 3084 1428 2787 
Q 1159 2491 1159 1978 
L 1159 0 
L 581 0 
L 581 4863 
L 1159 4863 
L 1159 2956 
Q 1366 3272 1645 3428 
Q 1925 3584 2291 3584 
Q 2894 3584 3203 3211 
Q 3513 2838 3513 2113 
z
" transform="scale(0.015625)"/>
      <path id="DejaVuSans-4c" d="M 628 4666 
L 1259 4666 
L 1259 531 
L 3531 531 
L 3531 0 
L 628 0 
L 628 4666 
z
" transform="scale(0.015625)"/>
      <path id="DejaVuSans-29" d="M 513 4856 
L 1013 4856 
Q 1481 4119 1714 3412 
Q 1947 2706 1947 2009 
Q 1947 1309 1714 600 
Q 1481 -109 1013 -844 
L 513 -844 
Q 928 -128 1133 580 
Q 1338 1288 1338 2009 
Q 1338 2731 1133 3434 
Q 928 4138 513 4856 
z
" transform="scale(0.015625)"/>
     </defs>
     <use xlink:href="#DejaVuSans-49"/>
     <use xlink:href="#DejaVuSans-6e" x="29.492188"/>
     <use xlink:href="#DejaVuSans-70" x="92.871094"/>
     <use xlink:href="#DejaVuSans-75" x="156.347656"/>
     <use xlink:href="#DejaVuSans-74" x="219.726562"/>
     <use xlink:href="#DejaVuSans-20" x="258.935547"/>
     <use xlink:href="#DejaVuSans-76" x="290.722656"/>
     <use xlink:href="#DejaVuSans-73" x="349.902344"/>
     <use xlink:href="#DejaVuSans-20" x="402.001953"/>
     <use xlink:href="#DejaVuSans-4f" x="433.789062"/>
     <use xlink:href="#DejaVuSans-75" x="512.5"/>
     <use xlink:href="#DejaVuSans-74" x="575.878906"/>
     <use xlink:href="#DejaVuSans-70" x="615.087891"/>
     <use xlink:href="#DejaVuSans-75" x="678.564453"/>
     <use xlink:href="#DejaVuSans-74" x="741.943359"/>
     <use xlink:href="#DejaVuSans-20" x="781.152344"/>
     <use xlink:href="#DejaVuSans-73" x="812.939453"/>
     <use xlink:href="#DejaVuSans-69" x="865.039062"/>
     <use xlink:href="#DejaVuSans-67" x="892.822266"/>
     <use xlink:href="#DejaVuSans-6e" x="956.298828"/>
     <use xlink:href="#DejaVuSans-61" x="1019.677734"/>
     <use xlink:href="#DejaVuSans-6c" x="1080.957031"/>
     <use xlink:href="#DejaVuSans-73" x="1108.740234"/>
     <use xlink:href="#DejaVuSans-20" x="1160.839844"/>
     <use xlink:href="#DejaVuSans-28" x="1192.626953"/>
     <use xlink:href="#DejaVuSans-43" x="1231.640625"/>
     <use xlink:href="#DejaVuSans-68" x="1301.464844"/>
     <use xlink:href="#DejaVuSans-61" x="1364.84375"/>
     <use xlink:href="#DejaVuSans-6e" x="1426.123047"/>
     <use xlink:href="#DejaVuSans-6e" x="1489.501953"/>
     <use xlink:href="#DejaVuSans-65" x="1552.880859"/>
     <use xlink:href="#DejaVuSans-6c" x="1614.404297"/>
     <use xlink:href="#DejaVuSans-20" x="1642.1875"/>
     <use xlink:href="#DejaVuSans-4c" x="1673.974609"/>
     <use xlink:href="#DejaVuSans-29" x="1729.6875"/>
    </g>
   </g>
   <g id="legend_1">
    <g id="patch_7">
     <path d="M 340.984063 190.706125 
L 407.72 190.706125 
Q 409.72 190.706125 409.72 188.706125 
L 409.72 160.349875 
Q 409.72 158.349875 407.72 158.349875 
L 340.984063 158.349875 
Q 338.984063 158.349875 338.984063 160.349875 
L 338.984063 188.706125 
Q 338.984063 190.706125 340.984063 190.706125 
z
" style="fill: #ffffff; opacity: 0.8; stroke: #cccccc; stroke-linejoin: miter"/>
    </g>
    <g id="line2d_29">
     <path d="M 342.984063 166.448312 
L 352.984063 166.448312 
L 362.984063 166.448312 
" style="fill: none; stroke: #0000ff; stroke-opacity: 0.5; stroke-width: 1.5; stroke-linecap: square"/>
    </g>
    <g id="text_18">
     <!-- Input -->
     <g transform="translate(370.984063 169.948312) scale(0.1 -0.1)">
      <use xlink:href="#DejaVuSans-49"/>
      <use xlink:href="#DejaVuSans-6e" x="29.492188"/>
      <use xlink:href="#DejaVuSans-70" x="92.871094"/>
      <use xlink:href="#DejaVuSans-75" x="156.347656"/>
      <use xlink:href="#DejaVuSans-74" x="219.726562"/>
     </g>
    </g>
    <g id="line2d_30">
     <path d="M 342.984063 181.126437 
L 352.984063 181.126437 
L 362.984063 181.126437 
" style="fill: none; stroke: #ff0000; stroke-opacity: 0.5; stroke-width: 1.5; stroke-linecap: square"/>
    </g>
    <g id="text_19">
     <!-- Output -->
     <g transform="translate(370.984063 184.626437) scale(0.1 -0.1)">
      <use xlink:href="#DejaVuSans-4f"/>
      <use xlink:href="#DejaVuSans-75" x="78.710938"/>
      <use xlink:href="#DejaVuSans-74" x="142.089844"/>
      <use xlink:href="#DejaVuSans-70" x="181.298828"/>
      <use xlink:href="#DejaVuSans-75" x="244.775391"/>
      <use xlink:href="#DejaVuSans-74" x="308.154297"/>
     </g>
    </g>
   </g>
  </g>
 </g>
 <defs>
  <clipPath id="p4c7ef14c1c">
   <rect x="57.6" y="41.472" width="357.12" height="266.112"/>
  </clipPath>
 </defs>
</svg>
