<?xml version="1.0" encoding="utf-8" standalone="no"?>
<!DOCTYPE svg PUBLIC "-//W3C//DTD SVG 1.1//EN"
  "http://www.w3.org/Graphics/SVG/1.1/DTD/svg11.dtd">
<svg xmlns:xlink="http://www.w3.org/1999/xlink" width="460.8pt" height="345.6pt" viewBox="0 0 460.8 345.6" xmlns="http://www.w3.org/2000/svg" version="1.1">
 <metadata>
  <rdf:RDF xmlns:dc="http://purl.org/dc/elements/1.1/" xmlns:cc="http://creativecommons.org/ns#" xmlns:rdf="http://www.w3.org/1999/02/22-rdf-syntax-ns#">
   <cc:Work>
    <dc:type rdf:resource="http://purl.org/dc/dcmitype/StillImage"/>
    <dc:date>2025-08-29T17:42:42.825658</dc:date>
    <dc:format>image/svg+xml</dc:format>
    <dc:creator>
     <cc:Agent>
      <dc:title>Matplotlib v3.9.2, https://matplotlib.org/</dc:title>
     </cc:Agent>
    </dc:creator>
   </cc:Work>
  </rdf:RDF>
 </metadata>
 <defs>
  <style type="text/css">*{stroke-linejoin: round; stroke-linecap: butt}</style>
 </defs>
 <g id="figure_1">
  <g id="patch_1">
   <path d="M 0 345.6 
L 460.8 345.6 
L 460.8 0 
L 0 0 
z
" style="fill: #ffffff"/>
  </g>
  <g id="axes_1">
   <g id="patch_2">
    <path d="M 57.6 307.584 
L 414.72 307.584 
L 414.72 41.472 
L 57.6 41.472 
z
" style="fill: #ffffff"/>
   </g>
   <g id="matplotlib.axis_1">
    <g id="xtick_1">
     <g id="line2d_1">
      <path d="M 73.832727 307.584 
L 73.832727 41.472 
" clip-path="url(#p18383cd4eb)" style="fill: none; stroke: #b0b0b0; stroke-width: 0.8; stroke-linecap: square"/>
     </g>
     <g id="line2d_2">
      <defs>
       <path id="me0ce7976ce" d="M 0 0 
L 0 3.5 
" style="stroke: #000000; stroke-width: 0.8"/>
      </defs>
      <g>
       <use xlink:href="#me0ce7976ce" x="73.832727" y="307.584" style="stroke: #000000; stroke-width: 0.8"/>
      </g>
     </g>
     <g id="text_1">
      <!-- 0 -->
      <g transform="translate(70.651477 322.182437) scale(0.1 -0.1)">
       <defs>
        <path id="DejaVuSans-30" d="M 2034 4250 
Q 1547 4250 1301 3770 
Q 1056 3291 1056 2328 
Q 1056 1369 1301 889 
Q 1547 409 2034 409 
Q 2525 409 2770 889 
Q 3016 1369 3016 2328 
Q 3016 3291 2770 3770 
Q 2525 4250 2034 4250 
z
M 2034 4750 
Q 2819 4750 3233 4129 
Q 3647 3509 3647 2328 
Q 3647 1150 3233 529 
Q 2819 -91 2034 -91 
Q 1250 -91 836 529 
Q 422 1150 422 2328 
Q 422 3509 836 4129 
Q 1250 4750 2034 4750 
z
" transform="scale(0.015625)"/>
       </defs>
       <use xlink:href="#DejaVuSans-30"/>
      </g>
     </g>
    </g>
    <g id="xtick_2">
     <g id="line2d_3">
      <path d="M 138.893758 307.584 
L 138.893758 41.472 
" clip-path="url(#p18383cd4eb)" style="fill: none; stroke: #b0b0b0; stroke-width: 0.8; stroke-linecap: square"/>
     </g>
     <g id="line2d_4">
      <g>
       <use xlink:href="#me0ce7976ce" x="138.893758" y="307.584" style="stroke: #000000; stroke-width: 0.8"/>
      </g>
     </g>
     <g id="text_2">
      <!-- 200 -->
      <g transform="translate(129.350008 322.182437) scale(0.1 -0.1)">
       <defs>
        <path id="DejaVuSans-32" d="M 1228 531 
L 3431 531 
L 3431 0 
L 469 0 
L 469 531 
Q 828 903 1448 1529 
Q 2069 2156 2228 2338 
Q 2531 2678 2651 2914 
Q 2772 3150 2772 3378 
Q 2772 3750 2511 3984 
Q 2250 4219 1831 4219 
Q 1534 4219 1204 4116 
Q 875 4013 500 3803 
L 500 4441 
Q 881 4594 1212 4672 
Q 1544 4750 1819 4750 
Q 2544 4750 2975 4387 
Q 3406 4025 3406 3419 
Q 3406 3131 3298 2873 
Q 3191 2616 2906 2266 
Q 2828 2175 2409 1742 
Q 1991 1309 1228 531 
z
" transform="scale(0.015625)"/>
       </defs>
       <use xlink:href="#DejaVuSans-32"/>
       <use xlink:href="#DejaVuSans-30" x="63.623047"/>
       <use xlink:href="#DejaVuSans-30" x="127.246094"/>
      </g>
     </g>
    </g>
    <g id="xtick_3">
     <g id="line2d_5">
      <path d="M 203.95479 307.584 
L 203.95479 41.472 
" clip-path="url(#p18383cd4eb)" style="fill: none; stroke: #b0b0b0; stroke-width: 0.8; stroke-linecap: square"/>
     </g>
     <g id="line2d_6">
      <g>
       <use xlink:href="#me0ce7976ce" x="203.95479" y="307.584" style="stroke: #000000; stroke-width: 0.8"/>
      </g>
     </g>
     <g id="text_3">
      <!-- 400 -->
      <g transform="translate(194.41104 322.182437) scale(0.1 -0.1)">
       <defs>
        <path id="DejaVuSans-34" d="M 2419 4116 
L 825 1625 
L 2419 1625 
L 2419 4116 
z
M 2253 4666 
L 3047 4666 
L 3047 1625 
L 3713 1625 
L 3713 1100 
L 3047 1100 
L 3047 0 
L 2419 0 
L 2419 1100 
L 313 1100 
L 313 1709 
L 2253 4666 
z
" transform="scale(0.015625)"/>
       </defs>
       <use xlink:href="#DejaVuSans-34"/>
       <use xlink:href="#DejaVuSans-30" x="63.623047"/>
       <use xlink:href="#DejaVuSans-30" x="127.246094"/>
      </g>
     </g>
    </g>
    <g id="xtick_4">
     <g id="line2d_7">
      <path d="M 269.015821 307.584 
L 269.015821 41.472 
" clip-path="url(#p18383cd4eb)" style="fill: none; stroke: #b0b0b0; stroke-width: 0.8; stroke-linecap: square"/>
     </g>
     <g id="line2d_8">
      <g>
       <use xlink:href="#me0ce7976ce" x="269.015821" y="307.584" style="stroke: #000000; stroke-width: 0.8"/>
      </g>
     </g>
     <g id="text_4">
      <!-- 600 -->
      <g transform="translate(259.472071 322.182437) scale(0.1 -0.1)">
       <defs>
        <path id="DejaVuSans-36" d="M 2113 2584 
Q 1688 2584 1439 2293 
Q 1191 2003 1191 1497 
Q 1191 994 1439 701 
Q 1688 409 2113 409 
Q 2538 409 2786 701 
Q 3034 994 3034 1497 
Q 3034 2003 2786 2293 
Q 2538 2584 2113 2584 
z
M 3366 4563 
L 3366 3988 
Q 3128 4100 2886 4159 
Q 2644 4219 2406 4219 
Q 1781 4219 1451 3797 
Q 1122 3375 1075 2522 
Q 1259 2794 1537 2939 
Q 1816 3084 2150 3084 
Q 2853 3084 3261 2657 
Q 3669 2231 3669 1497 
Q 3669 778 3244 343 
Q 2819 -91 2113 -91 
Q 1303 -91 875 529 
Q 447 1150 447 2328 
Q 447 3434 972 4092 
Q 1497 4750 2381 4750 
Q 2619 4750 2861 4703 
Q 3103 4656 3366 4563 
z
" transform="scale(0.015625)"/>
       </defs>
       <use xlink:href="#DejaVuSans-36"/>
       <use xlink:href="#DejaVuSans-30" x="63.623047"/>
       <use xlink:href="#DejaVuSans-30" x="127.246094"/>
      </g>
     </g>
    </g>
    <g id="xtick_5">
     <g id="line2d_9">
      <path d="M 334.076852 307.584 
L 334.076852 41.472 
" clip-path="url(#p18383cd4eb)" style="fill: none; stroke: #b0b0b0; stroke-width: 0.8; stroke-linecap: square"/>
     </g>
     <g id="line2d_10">
      <g>
       <use xlink:href="#me0ce7976ce" x="334.076852" y="307.584" style="stroke: #000000; stroke-width: 0.8"/>
      </g>
     </g>
     <g id="text_5">
      <!-- 800 -->
      <g transform="translate(324.533102 322.182437) scale(0.1 -0.1)">
       <defs>
        <path id="DejaVuSans-38" d="M 2034 2216 
Q 1584 2216 1326 1975 
Q 1069 1734 1069 1313 
Q 1069 891 1326 650 
Q 1584 409 2034 409 
Q 2484 409 2743 651 
Q 3003 894 3003 1313 
Q 3003 1734 2745 1975 
Q 2488 2216 2034 2216 
z
M 1403 2484 
Q 997 2584 770 2862 
Q 544 3141 544 3541 
Q 544 4100 942 4425 
Q 1341 4750 2034 4750 
Q 2731 4750 3128 4425 
Q 3525 4100 3525 3541 
Q 3525 3141 3298 2862 
Q 3072 2584 2669 2484 
Q 3125 2378 3379 2068 
Q 3634 1759 3634 1313 
Q 3634 634 3220 271 
Q 2806 -91 2034 -91 
Q 1263 -91 848 271 
Q 434 634 434 1313 
Q 434 1759 690 2068 
Q 947 2378 1403 2484 
z
M 1172 3481 
Q 1172 3119 1398 2916 
Q 1625 2713 2034 2713 
Q 2441 2713 2670 2916 
Q 2900 3119 2900 3481 
Q 2900 3844 2670 4047 
Q 2441 4250 2034 4250 
Q 1625 4250 1398 4047 
Q 1172 3844 1172 3481 
z
" transform="scale(0.015625)"/>
       </defs>
       <use xlink:href="#DejaVuSans-38"/>
       <use xlink:href="#DejaVuSans-30" x="63.623047"/>
       <use xlink:href="#DejaVuSans-30" x="127.246094"/>
      </g>
     </g>
    </g>
    <g id="xtick_6">
     <g id="line2d_11">
      <path d="M 399.137883 307.584 
L 399.137883 41.472 
" clip-path="url(#p18383cd4eb)" style="fill: none; stroke: #b0b0b0; stroke-width: 0.8; stroke-linecap: square"/>
     </g>
     <g id="line2d_12">
      <g>
       <use xlink:href="#me0ce7976ce" x="399.137883" y="307.584" style="stroke: #000000; stroke-width: 0.8"/>
      </g>
     </g>
     <g id="text_6">
      <!-- 1000 -->
      <g transform="translate(386.412883 322.182437) scale(0.1 -0.1)">
       <defs>
        <path id="DejaVuSans-31" d="M 794 531 
L 1825 531 
L 1825 4091 
L 703 3866 
L 703 4441 
L 1819 4666 
L 2450 4666 
L 2450 531 
L 3481 531 
L 3481 0 
L 794 0 
L 794 531 
z
" transform="scale(0.015625)"/>
       </defs>
       <use xlink:href="#DejaVuSans-31"/>
       <use xlink:href="#DejaVuSans-30" x="63.623047"/>
       <use xlink:href="#DejaVuSans-30" x="127.246094"/>
       <use xlink:href="#DejaVuSans-30" x="190.869141"/>
      </g>
     </g>
    </g>
    <g id="text_7">
     <!-- Samples -->
     <g transform="translate(214.806875 335.860562) scale(0.1 -0.1)">
      <defs>
       <path id="DejaVuSans-53" d="M 3425 4513 
L 3425 3897 
Q 3066 4069 2747 4153 
Q 2428 4238 2131 4238 
Q 1616 4238 1336 4038 
Q 1056 3838 1056 3469 
Q 1056 3159 1242 3001 
Q 1428 2844 1947 2747 
L 2328 2669 
Q 3034 2534 3370 2195 
Q 3706 1856 3706 1288 
Q 3706 609 3251 259 
Q 2797 -91 1919 -91 
Q 1588 -91 1214 -16 
Q 841 59 441 206 
L 441 856 
Q 825 641 1194 531 
Q 1563 422 1919 422 
Q 2459 422 2753 634 
Q 3047 847 3047 1241 
Q 3047 1584 2836 1778 
Q 2625 1972 2144 2069 
L 1759 2144 
Q 1053 2284 737 2584 
Q 422 2884 422 3419 
Q 422 4038 858 4394 
Q 1294 4750 2059 4750 
Q 2388 4750 2728 4690 
Q 3069 4631 3425 4513 
z
" transform="scale(0.015625)"/>
       <path id="DejaVuSans-61" d="M 2194 1759 
Q 1497 1759 1228 1600 
Q 959 1441 959 1056 
Q 959 750 1161 570 
Q 1363 391 1709 391 
Q 2188 391 2477 730 
Q 2766 1069 2766 1631 
L 2766 1759 
L 2194 1759 
z
M 3341 1997 
L 3341 0 
L 2766 0 
L 2766 531 
Q 2569 213 2275 61 
Q 1981 -91 1556 -91 
Q 1019 -91 701 211 
Q 384 513 384 1019 
Q 384 1609 779 1909 
Q 1175 2209 1959 2209 
L 2766 2209 
L 2766 2266 
Q 2766 2663 2505 2880 
Q 2244 3097 1772 3097 
Q 1472 3097 1187 3025 
Q 903 2953 641 2809 
L 641 3341 
Q 956 3463 1253 3523 
Q 1550 3584 1831 3584 
Q 2591 3584 2966 3190 
Q 3341 2797 3341 1997 
z
" transform="scale(0.015625)"/>
       <path id="DejaVuSans-6d" d="M 3328 2828 
Q 3544 3216 3844 3400 
Q 4144 3584 4550 3584 
Q 5097 3584 5394 3201 
Q 5691 2819 5691 2113 
L 5691 0 
L 5113 0 
L 5113 2094 
Q 5113 2597 4934 2840 
Q 4756 3084 4391 3084 
Q 3944 3084 3684 2787 
Q 3425 2491 3425 1978 
L 3425 0 
L 2847 0 
L 2847 2094 
Q 2847 2600 2669 2842 
Q 2491 3084 2119 3084 
Q 1678 3084 1418 2786 
Q 1159 2488 1159 1978 
L 1159 0 
L 581 0 
L 581 3500 
L 1159 3500 
L 1159 2956 
Q 1356 3278 1631 3431 
Q 1906 3584 2284 3584 
Q 2666 3584 2933 3390 
Q 3200 3197 3328 2828 
z
" transform="scale(0.015625)"/>
       <path id="DejaVuSans-70" d="M 1159 525 
L 1159 -1331 
L 581 -1331 
L 581 3500 
L 1159 3500 
L 1159 2969 
Q 1341 3281 1617 3432 
Q 1894 3584 2278 3584 
Q 2916 3584 3314 3078 
Q 3713 2572 3713 1747 
Q 3713 922 3314 415 
Q 2916 -91 2278 -91 
Q 1894 -91 1617 61 
Q 1341 213 1159 525 
z
M 3116 1747 
Q 3116 2381 2855 2742 
Q 2594 3103 2138 3103 
Q 1681 3103 1420 2742 
Q 1159 2381 1159 1747 
Q 1159 1113 1420 752 
Q 1681 391 2138 391 
Q 2594 391 2855 752 
Q 3116 1113 3116 1747 
z
" transform="scale(0.015625)"/>
       <path id="DejaVuSans-6c" d="M 603 4863 
L 1178 4863 
L 1178 0 
L 603 0 
L 603 4863 
z
" transform="scale(0.015625)"/>
       <path id="DejaVuSans-65" d="M 3597 1894 
L 3597 1613 
L 953 1613 
Q 991 1019 1311 708 
Q 1631 397 2203 397 
Q 2534 397 2845 478 
Q 3156 559 3463 722 
L 3463 178 
Q 3153 47 2828 -22 
Q 2503 -91 2169 -91 
Q 1331 -91 842 396 
Q 353 884 353 1716 
Q 353 2575 817 3079 
Q 1281 3584 2069 3584 
Q 2775 3584 3186 3129 
Q 3597 2675 3597 1894 
z
M 3022 2063 
Q 3016 2534 2758 2815 
Q 2500 3097 2075 3097 
Q 1594 3097 1305 2825 
Q 1016 2553 972 2059 
L 3022 2063 
z
" transform="scale(0.015625)"/>
       <path id="DejaVuSans-73" d="M 2834 3397 
L 2834 2853 
Q 2591 2978 2328 3040 
Q 2066 3103 1784 3103 
Q 1356 3103 1142 2972 
Q 928 2841 928 2578 
Q 928 2378 1081 2264 
Q 1234 2150 1697 2047 
L 1894 2003 
Q 2506 1872 2764 1633 
Q 3022 1394 3022 966 
Q 3022 478 2636 193 
Q 2250 -91 1575 -91 
Q 1294 -91 989 -36 
Q 684 19 347 128 
L 347 722 
Q 666 556 975 473 
Q 1284 391 1588 391 
Q 1994 391 2212 530 
Q 2431 669 2431 922 
Q 2431 1156 2273 1281 
Q 2116 1406 1581 1522 
L 1381 1569 
Q 847 1681 609 1914 
Q 372 2147 372 2553 
Q 372 3047 722 3315 
Q 1072 3584 1716 3584 
Q 2034 3584 2315 3537 
Q 2597 3491 2834 3397 
z
" transform="scale(0.015625)"/>
      </defs>
      <use xlink:href="#DejaVuSans-53"/>
      <use xlink:href="#DejaVuSans-61" x="63.476562"/>
      <use xlink:href="#DejaVuSans-6d" x="124.755859"/>
      <use xlink:href="#DejaVuSans-70" x="222.167969"/>
      <use xlink:href="#DejaVuSans-6c" x="285.644531"/>
      <use xlink:href="#DejaVuSans-65" x="313.427734"/>
      <use xlink:href="#DejaVuSans-73" x="374.951172"/>
     </g>
    </g>
   </g>
   <g id="matplotlib.axis_2">
    <g id="ytick_1">
     <g id="line2d_13">
      <path d="M 57.6 288.309251 
L 414.72 288.309251 
" clip-path="url(#p18383cd4eb)" style="fill: none; stroke: #b0b0b0; stroke-width: 0.8; stroke-linecap: square"/>
     </g>
     <g id="line2d_14">
      <defs>
       <path id="m10e1e7973c" d="M 0 0 
L -3.5 0 
" style="stroke: #000000; stroke-width: 0.8"/>
      </defs>
      <g>
       <use xlink:href="#m10e1e7973c" x="57.6" y="288.309251" style="stroke: #000000; stroke-width: 0.8"/>
      </g>
     </g>
     <g id="text_8">
      <!-- −6 -->
      <g transform="translate(35.857813 292.10847) scale(0.1 -0.1)">
       <defs>
        <path id="DejaVuSans-2212" d="M 678 2272 
L 4684 2272 
L 4684 1741 
L 678 1741 
L 678 2272 
z
" transform="scale(0.015625)"/>
       </defs>
       <use xlink:href="#DejaVuSans-2212"/>
       <use xlink:href="#DejaVuSans-36" x="83.789062"/>
      </g>
     </g>
    </g>
    <g id="ytick_2">
     <g id="line2d_15">
      <path d="M 57.6 250.113752 
L 414.72 250.113752 
" clip-path="url(#p18383cd4eb)" style="fill: none; stroke: #b0b0b0; stroke-width: 0.8; stroke-linecap: square"/>
     </g>
     <g id="line2d_16">
      <g>
       <use xlink:href="#m10e1e7973c" x="57.6" y="250.113752" style="stroke: #000000; stroke-width: 0.8"/>
      </g>
     </g>
     <g id="text_9">
      <!-- −4 -->
      <g transform="translate(35.857813 253.912971) scale(0.1 -0.1)">
       <use xlink:href="#DejaVuSans-2212"/>
       <use xlink:href="#DejaVuSans-34" x="83.789062"/>
      </g>
     </g>
    </g>
    <g id="ytick_3">
     <g id="line2d_17">
      <path d="M 57.6 211.918252 
L 414.72 211.918252 
" clip-path="url(#p18383cd4eb)" style="fill: none; stroke: #b0b0b0; stroke-width: 0.8; stroke-linecap: square"/>
     </g>
     <g id="line2d_18">
      <g>
       <use xlink:href="#m10e1e7973c" x="57.6" y="211.918252" style="stroke: #000000; stroke-width: 0.8"/>
      </g>
     </g>
     <g id="text_10">
      <!-- −2 -->
      <g transform="translate(35.857813 215.717471) scale(0.1 -0.1)">
       <use xlink:href="#DejaVuSans-2212"/>
       <use xlink:href="#DejaVuSans-32" x="83.789062"/>
      </g>
     </g>
    </g>
    <g id="ytick_4">
     <g id="line2d_19">
      <path d="M 57.6 173.722753 
L 414.72 173.722753 
" clip-path="url(#p18383cd4eb)" style="fill: none; stroke: #b0b0b0; stroke-width: 0.8; stroke-linecap: square"/>
     </g>
     <g id="line2d_20">
      <g>
       <use xlink:href="#m10e1e7973c" x="57.6" y="173.722753" style="stroke: #000000; stroke-width: 0.8"/>
      </g>
     </g>
     <g id="text_11">
      <!-- 0 -->
      <g transform="translate(44.2375 177.521972) scale(0.1 -0.1)">
       <use xlink:href="#DejaVuSans-30"/>
      </g>
     </g>
    </g>
    <g id="ytick_5">
     <g id="line2d_21">
      <path d="M 57.6 135.527253 
L 414.72 135.527253 
" clip-path="url(#p18383cd4eb)" style="fill: none; stroke: #b0b0b0; stroke-width: 0.8; stroke-linecap: square"/>
     </g>
     <g id="line2d_22">
      <g>
       <use xlink:href="#m10e1e7973c" x="57.6" y="135.527253" style="stroke: #000000; stroke-width: 0.8"/>
      </g>
     </g>
     <g id="text_12">
      <!-- 2 -->
      <g transform="translate(44.2375 139.326472) scale(0.1 -0.1)">
       <use xlink:href="#DejaVuSans-32"/>
      </g>
     </g>
    </g>
    <g id="ytick_6">
     <g id="line2d_23">
      <path d="M 57.6 97.331754 
L 414.72 97.331754 
" clip-path="url(#p18383cd4eb)" style="fill: none; stroke: #b0b0b0; stroke-width: 0.8; stroke-linecap: square"/>
     </g>
     <g id="line2d_24">
      <g>
       <use xlink:href="#m10e1e7973c" x="57.6" y="97.331754" style="stroke: #000000; stroke-width: 0.8"/>
      </g>
     </g>
     <g id="text_13">
      <!-- 4 -->
      <g transform="translate(44.2375 101.130973) scale(0.1 -0.1)">
       <use xlink:href="#DejaVuSans-34"/>
      </g>
     </g>
    </g>
    <g id="ytick_7">
     <g id="line2d_25">
      <path d="M 57.6 59.136255 
L 414.72 59.136255 
" clip-path="url(#p18383cd4eb)" style="fill: none; stroke: #b0b0b0; stroke-width: 0.8; stroke-linecap: square"/>
     </g>
     <g id="line2d_26">
      <g>
       <use xlink:href="#m10e1e7973c" x="57.6" y="59.136255" style="stroke: #000000; stroke-width: 0.8"/>
      </g>
     </g>
     <g id="text_14">
      <!-- 6 -->
      <g transform="translate(44.2375 62.935473) scale(0.1 -0.1)">
       <use xlink:href="#DejaVuSans-36"/>
      </g>
     </g>
    </g>
    <g id="text_15">
     <!-- Amplitude -->
     <g transform="translate(29.778125 200.150656) rotate(-90) scale(0.1 -0.1)">
      <defs>
       <path id="DejaVuSans-41" d="M 2188 4044 
L 1331 1722 
L 3047 1722 
L 2188 4044 
z
M 1831 4666 
L 2547 4666 
L 4325 0 
L 3669 0 
L 3244 1197 
L 1141 1197 
L 716 0 
L 50 0 
L 1831 4666 
z
" transform="scale(0.015625)"/>
       <path id="DejaVuSans-69" d="M 603 3500 
L 1178 3500 
L 1178 0 
L 603 0 
L 603 3500 
z
M 603 4863 
L 1178 4863 
L 1178 4134 
L 603 4134 
L 603 4863 
z
" transform="scale(0.015625)"/>
       <path id="DejaVuSans-74" d="M 1172 4494 
L 1172 3500 
L 2356 3500 
L 2356 3053 
L 1172 3053 
L 1172 1153 
Q 1172 725 1289 603 
Q 1406 481 1766 481 
L 2356 481 
L 2356 0 
L 1766 0 
Q 1100 0 847 248 
Q 594 497 594 1153 
L 594 3053 
L 172 3053 
L 172 3500 
L 594 3500 
L 594 4494 
L 1172 4494 
z
" transform="scale(0.015625)"/>
       <path id="DejaVuSans-75" d="M 544 1381 
L 544 3500 
L 1119 3500 
L 1119 1403 
Q 1119 906 1312 657 
Q 1506 409 1894 409 
Q 2359 409 2629 706 
Q 2900 1003 2900 1516 
L 2900 3500 
L 3475 3500 
L 3475 0 
L 2900 0 
L 2900 538 
Q 2691 219 2414 64 
Q 2138 -91 1772 -91 
Q 1169 -91 856 284 
Q 544 659 544 1381 
z
M 1991 3584 
L 1991 3584 
z
" transform="scale(0.015625)"/>
       <path id="DejaVuSans-64" d="M 2906 2969 
L 2906 4863 
L 3481 4863 
L 3481 0 
L 2906 0 
L 2906 525 
Q 2725 213 2448 61 
Q 2172 -91 1784 -91 
Q 1150 -91 751 415 
Q 353 922 353 1747 
Q 353 2572 751 3078 
Q 1150 3584 1784 3584 
Q 2172 3584 2448 3432 
Q 2725 3281 2906 2969 
z
M 947 1747 
Q 947 1113 1208 752 
Q 1469 391 1925 391 
Q 2381 391 2643 752 
Q 2906 1113 2906 1747 
Q 2906 2381 2643 2742 
Q 2381 3103 1925 3103 
Q 1469 3103 1208 2742 
Q 947 2381 947 1747 
z
" transform="scale(0.015625)"/>
      </defs>
      <use xlink:href="#DejaVuSans-41"/>
      <use xlink:href="#DejaVuSans-6d" x="68.408203"/>
      <use xlink:href="#DejaVuSans-70" x="165.820312"/>
      <use xlink:href="#DejaVuSans-6c" x="229.296875"/>
      <use xlink:href="#DejaVuSans-69" x="257.080078"/>
      <use xlink:href="#DejaVuSans-74" x="284.863281"/>
      <use xlink:href="#DejaVuSans-75" x="324.072266"/>
      <use xlink:href="#DejaVuSans-64" x="387.451172"/>
      <use xlink:href="#DejaVuSans-65" x="450.927734"/>
     </g>
    </g>
    <g id="text_16">
     <!-- 1e6 -->
     <g transform="translate(57.6 38.472) scale(0.1 -0.1)">
      <use xlink:href="#DejaVuSans-31"/>
      <use xlink:href="#DejaVuSans-65" x="63.623047"/>
      <use xlink:href="#DejaVuSans-36" x="125.146484"/>
     </g>
    </g>
   </g>
   <g id="line2d_27">
    <path d="M 73.832727 279.836668 
L 74.158032 279.836668 
L 74.483338 282.983958 
L 75.459253 282.942765 
L 75.784558 288.561647 
L 76.109863 288.561647 
L 76.435169 295.106847 
L 76.760474 295.106847 
L 77.085779 292.242108 
L 77.411084 292.242108 
L 77.736389 281.694536 
L 78.061694 281.694536 
L 78.386999 274.34194 
L 78.712305 274.34194 
L 79.03761 271.810724 
L 79.362915 271.810724 
L 79.68822 263.921902 
L 80.013525 263.921902 
L 80.33883 246.354589 
L 80.664136 246.354589 
L 80.989441 228.417219 
L 81.314746 228.417219 
L 81.640051 217.524722 
L 81.965356 217.524722 
L 82.290661 207.022353 
L 82.615966 207.022353 
L 82.941272 188.04068 
L 83.266577 188.04068 
L 83.591882 165.201814 
L 83.917187 165.201814 
L 84.242492 149.314893 
L 84.567797 149.314893 
L 84.893103 139.424474 
L 85.218408 139.424474 
L 85.543713 125.065697 
L 85.869018 125.065697 
L 86.194323 104.684388 
L 86.519628 104.684388 
L 86.844934 88.844638 
L 87.170239 88.844638 
L 87.495544 82.64631 
L 87.820849 82.64631 
L 88.146154 77.44987 
L 88.471459 77.44987 
L 88.796764 66.052982 
L 89.12207 66.052982 
L 89.447375 55.27723 
L 89.77268 55.27723 
L 90.097985 54.597483 
L 90.42329 54.597483 
L 90.748595 60.110965 
L 91.073901 60.110965 
L 91.399206 61.323959 
L 91.724511 61.323959 
L 92.049816 59.128787 
L 92.375121 59.128787 
L 92.700426 64.203174 
L 93.025731 64.203174 
L 93.351037 78.6151 
L 93.676342 78.6151 
L 94.001647 92.061348 
L 94.326952 92.061348 
L 94.652257 99.186948 
L 94.977562 99.186948 
L 95.302868 108.406253 
L 95.628173 108.406253 
L 95.953478 127.09766 
L 96.278783 127.09766 
L 96.604088 148.523215 
L 96.929393 148.523215 
L 97.254698 162.83568 
L 97.580004 162.83568 
L 97.905309 173.356401 
L 98.230614 173.356401 
L 98.555919 190.330366 
L 98.881224 190.330366 
L 99.206529 212.853679 
L 99.531835 212.853679 
L 99.85714 229.844317 
L 100.182445 229.844317 
L 100.50775 238.418023 
L 100.833055 238.418023 
L 101.15836 248.301605 
L 101.483666 248.301605 
L 101.808971 264.699868 
L 102.134276 264.699868 
L 102.459581 278.988919 
L 102.784886 278.988919 
L 103.110191 283.045033 
L 103.435496 283.045033 
L 103.760802 282.827051 
L 104.086107 282.827051 
L 104.411412 287.915131 
L 104.736717 287.915131 
L 105.062022 294.908479 
L 105.387327 294.908479 
L 105.712633 293.121942 
L 106.037938 293.121942 
L 106.363243 282.802835 
L 106.688548 282.802835 
L 107.013853 274.793793 
L 107.339158 274.793793 
L 107.664463 272.151142 
L 107.989769 272.151142 
L 108.315074 265.187224 
L 108.640379 265.187224 
L 108.965684 248.287472 
L 109.290989 248.287472 
L 109.616294 229.865859 
L 109.9416 229.865859 
L 110.266905 218.378696 
L 110.59221 218.378696 
L 110.917515 208.342963 
L 111.24282 208.342963 
L 111.568125 190.217842 
L 111.89343 190.217842 
L 112.218736 167.244051 
L 112.544041 167.244051 
L 112.869346 150.476972 
L 113.194651 150.476972 
L 113.519956 140.447445 
L 113.845261 140.447445 
L 114.170567 126.826491 
L 114.495872 126.826491 
L 114.821177 106.656039 
L 115.146482 106.656039 
L 115.471787 89.929543 
L 115.797092 89.929543 
L 116.122398 83.004164 
L 116.447703 83.004164 
L 116.773008 78.200259 
L 117.098313 78.200259 
L 117.423618 67.292407 
L 117.748923 67.292407 
L 118.074228 55.934708 
L 118.399534 55.934708 
L 118.724839 54.233156 
L 119.050144 54.233156 
L 119.375449 59.672367 
L 119.700754 59.672367 
L 120.026059 61.520437 
L 120.351365 61.520437 
L 120.67667 59.177181 
L 121.001975 59.177181 
L 121.32728 63.190745 
L 121.652585 63.190745 
L 121.97789 77.07118 
L 122.303195 77.07118 
L 122.628501 91.095441 
L 122.953806 91.095441 
L 123.279111 98.631891 
L 123.604416 98.631891 
L 123.929721 107.126742 
L 124.255026 107.126742 
L 124.580332 124.976014 
L 124.905637 124.976014 
L 125.230942 146.702359 
L 125.556247 146.702359 
L 125.881552 161.826287 
L 126.206857 161.826287 
L 126.532163 172.215272 
L 126.857468 172.215272 
L 127.182773 188.32029 
L 127.508078 188.32029 
L 127.833383 210.756269 
L 128.158688 210.756269 
L 128.483993 228.660581 
L 128.809299 228.660581 
L 129.134604 237.737054 
L 129.459909 237.737054 
L 129.785214 247.038078 
L 130.110519 247.038078 
L 130.435824 262.999901 
L 130.76113 262.999901 
L 131.086435 278.014839 
L 131.41174 278.014839 
L 131.737045 283.005214 
L 132.06235 283.005214 
L 132.387655 282.643312 
L 132.71296 282.643312 
L 133.038266 287.055255 
L 133.363571 287.055255 
L 133.688876 294.333904 
L 134.014181 294.333904 
L 134.339486 293.681086 
L 134.664791 293.681086 
L 134.990097 283.817346 
L 135.315402 283.817346 
L 135.640707 275.231723 
L 135.966012 275.231723 
L 136.291317 272.39523 
L 136.616622 272.39523 
L 136.941927 266.325984 
L 137.267233 266.325984 
L 137.592538 250.220661 
L 137.917843 250.220661 
L 138.243148 231.411994 
L 138.568453 231.411994 
L 138.893758 219.255455 
L 139.219064 219.255455 
L 139.544369 209.580077 
L 139.869674 209.580077 
L 140.194979 192.339087 
L 140.520284 192.339087 
L 140.845589 169.332409 
L 141.170895 169.332409 
L 141.4962 151.697452 
L 141.821505 151.697452 
L 142.14681 141.433653 
L 142.472115 141.433653 
L 142.79742 128.544008 
L 143.122725 128.544008 
L 143.448031 108.676008 
L 143.773336 108.676008 
L 144.098641 91.100999 
L 144.423946 91.100999 
L 144.749251 83.377582 
L 145.074556 83.377582 
L 145.399862 78.904946 
L 145.725167 78.904946 
L 146.050472 68.595141 
L 146.375777 68.595141 
L 146.701082 56.716054 
L 147.026387 56.716054 
L 147.351692 53.887887 
L 147.676998 53.887887 
L 148.002303 59.116412 
L 148.327608 59.116412 
L 148.652913 61.634202 
L 148.978218 61.634202 
L 149.303523 59.334088 
L 149.628829 59.334088 
L 149.954134 62.336503 
L 150.279439 62.336503 
L 150.604744 75.535301 
L 150.930049 75.535301 
L 151.255354 90.034084 
L 151.58066 90.034084 
L 151.905965 98.082372 
L 152.23127 98.082372 
L 152.556575 105.979597 
L 152.88188 105.979597 
L 153.207185 122.911987 
L 153.53249 122.911987 
L 153.857796 144.765752 
L 154.183101 144.765752 
L 154.508406 160.693008 
L 154.833711 160.693008 
L 155.159016 171.082852 
L 155.484321 171.082852 
L 155.809627 186.354463 
L 156.134932 186.354463 
L 156.460237 208.595511 
L 156.785542 208.595511 
L 157.110847 227.384317 
L 157.436152 227.384317 
L 157.761457 237.072873 
L 158.086763 237.072873 
L 158.412068 245.855928 
L 158.737373 245.855928 
L 159.062678 261.301347 
L 159.387983 261.301347 
L 159.713288 276.955658 
L 160.038594 276.955658 
L 160.363899 282.955732 
L 160.689204 282.955732 
L 161.014509 282.56906 
L 161.339814 282.56906 
L 161.665119 286.314835 
L 161.990424 286.314835 
L 162.31573 293.808907 
L 162.641035 293.808907 
L 162.96634 294.272084 
L 163.291645 294.272084 
L 163.61695 284.913805 
L 163.942255 284.913805 
L 164.267561 275.768237 
L 164.592866 275.768237 
L 164.918171 272.623506 
L 165.243476 272.623506 
L 165.568781 267.370498 
L 165.894086 267.370498 
L 166.219392 252.106316 
L 166.544697 252.106316 
L 166.870002 232.986661 
L 167.195307 232.986661 
L 167.520612 220.129635 
L 167.845917 220.129635 
L 168.171222 210.726706 
L 168.496528 210.726706 
L 168.821833 194.414611 
L 169.147138 194.414611 
L 169.472443 171.486235 
L 169.797748 171.486235 
L 170.123053 152.963002 
L 170.448359 152.963002 
L 170.773664 142.34389 
L 171.098969 142.34389 
L 171.424274 130.159735 
L 171.749579 130.159735 
L 172.074884 110.732569 
L 172.400189 110.732569 
L 172.725495 92.411792 
L 173.0508 92.411792 
L 173.376105 83.783753 
L 173.70141 83.783753 
L 174.026715 79.495296 
L 174.35202 79.495296 
L 174.677326 69.809242 
L 175.002631 69.809242 
L 175.327936 57.595333 
L 175.653241 57.595333 
L 175.978546 53.689309 
L 176.303851 53.689309 
L 176.629156 58.571706 
L 176.954462 58.571706 
L 177.279767 61.677057 
L 177.605072 61.677057 
L 177.930377 59.495407 
L 178.255682 59.495407 
L 178.580987 61.552254 
L 178.906293 61.552254 
L 179.231598 73.999307 
L 179.556903 73.999307 
L 179.882208 88.901052 
L 180.207513 88.901052 
L 180.532818 97.499203 
L 180.858124 97.499203 
L 181.183429 104.861099 
L 181.508734 104.861099 
L 181.834039 120.840836 
L 182.159344 120.840836 
L 182.484649 142.76595 
L 182.809954 142.76595 
L 183.13526 159.538014 
L 183.460565 159.538014 
L 183.78587 170.043705 
L 184.111175 170.043705 
L 184.43648 184.494342 
L 184.761785 184.494342 
L 185.087091 206.39822 
L 185.412396 206.39822 
L 185.737701 225.989436 
L 186.063006 225.989436 
L 186.388311 236.368013 
L 186.713616 236.368013 
L 187.038921 244.74885 
L 187.364227 244.74885 
L 187.689532 259.625501 
L 188.014837 259.625501 
L 188.340142 275.787468 
L 188.665447 275.787468 
L 188.990752 282.815497 
L 189.316058 282.815497 
L 189.641363 282.552445 
L 189.966668 282.552445 
L 190.291973 285.680293 
L 190.617278 285.680293 
L 190.942583 293.229347 
L 191.267889 293.229347 
L 191.593194 294.728769 
L 191.918499 294.728769 
L 192.243804 286.014065 
L 192.569109 286.014065 
L 192.894414 276.387634 
L 193.219719 276.387634 
L 193.545025 272.834135 
L 193.87033 272.834135 
L 194.195635 268.259326 
L 194.52094 268.259326 
L 194.846245 253.900205 
L 195.17155 253.900205 
L 195.496856 234.63388 
L 195.822161 234.63388 
L 196.147466 221.060517 
L 196.472771 221.060517 
L 196.798076 211.835903 
L 197.123381 211.835903 
L 197.448686 196.442639 
L 197.773992 196.442639 
L 198.099297 173.704763 
L 198.424602 173.704763 
L 198.749907 154.352268 
L 199.075212 154.352268 
L 199.400517 143.236328 
L 199.725823 143.236328 
L 200.051128 131.6358 
L 200.376433 131.6358 
L 200.701738 112.73873 
L 201.027043 112.73873 
L 201.352348 93.799549 
L 201.677653 93.799549 
L 202.002959 84.269103 
L 202.328264 84.269103 
L 202.653569 80.084653 
L 202.978874 80.084653 
L 203.304179 71.029378 
L 203.629484 71.029378 
L 203.95479 58.55129 
L 204.280095 58.55129 
L 204.6054 53.571991 
L 204.930705 53.571991 
L 205.25601 58.029635 
L 205.581315 58.029635 
L 205.906621 61.69562 
L 206.231926 61.69562 
L 206.557231 59.718067 
L 206.882536 59.718067 
L 207.207841 60.876403 
L 207.533146 60.876403 
L 207.858451 72.463734 
L 208.183757 72.463734 
L 208.509062 87.656395 
L 208.834367 87.656395 
L 209.159672 96.901214 
L 209.484977 96.901214 
L 209.810282 103.908007 
L 210.135588 103.908007 
L 210.460893 118.904572 
L 210.786198 118.904572 
L 211.111503 140.731371 
L 211.436808 140.731371 
L 211.762113 158.314402 
L 212.087418 158.314402 
L 212.412724 169.040271 
L 212.738029 169.040271 
L 213.063334 182.694169 
L 213.388639 182.694169 
L 213.713944 204.167507 
L 214.039249 204.167507 
L 214.364555 224.486501 
L 214.68986 224.486501 
L 215.015165 235.633265 
L 215.34047 235.633265 
L 215.665775 243.690243 
L 215.99108 243.690243 
L 216.316385 257.937451 
L 216.641691 257.937451 
L 216.966996 274.53563 
L 217.292301 274.53563 
L 217.617606 282.613959 
L 218.593522 282.582008 
L 218.918827 285.079535 
L 219.244132 285.079535 
L 219.569437 292.601833 
L 219.894742 292.601833 
L 220.220047 295.094739 
L 220.545353 295.094739 
L 220.870658 287.066179 
L 221.195963 287.066179 
L 221.521268 277.031285 
L 221.846573 277.031285 
L 222.171878 273.029543 
L 222.497183 273.029543 
L 222.822489 269.084368 
L 223.147794 269.084368 
L 223.473099 255.68997 
L 223.798404 255.68997 
L 224.123709 236.358636 
L 224.449014 236.358636 
L 224.77432 222.045846 
L 225.099625 222.045846 
L 225.42493 212.852037 
L 225.750235 212.852037 
L 226.07554 198.366336 
L 226.400845 198.366336 
L 226.72615 175.936984 
L 227.051456 175.936984 
L 227.376761 155.794397 
L 227.702066 155.794397 
L 228.027371 144.12993 
L 228.352676 144.12993 
L 228.677981 133.09802 
L 229.003287 133.09802 
L 229.328592 114.796264 
L 229.653897 114.796264 
L 229.979202 95.280503 
L 230.304507 95.280503 
L 230.629812 84.746165 
L 230.955118 84.746165 
L 231.280423 80.55377 
L 231.605728 80.55377 
L 231.931033 72.195334 
L 232.256338 72.195334 
L 232.581643 59.60562 
L 232.906948 59.60562 
L 233.232254 53.568 
L 233.557559 53.568 
L 233.882864 57.454411 
L 234.208169 57.454411 
L 234.533474 61.642586 
L 234.858779 61.642586 
L 235.184085 59.969642 
L 235.50939 59.969642 
L 235.834695 60.320601 
L 236.16 60.320601 
L 236.485305 71.005983 
L 236.81061 71.005983 
L 237.135915 86.389431 
L 237.461221 86.389431 
L 237.786526 96.283326 
L 238.111831 96.283326 
L 238.437136 102.981441 
L 238.762441 102.981441 
L 239.087746 117.006007 
L 239.413052 117.006007 
L 239.738357 138.636692 
L 240.063662 138.636692 
L 240.388967 156.977598 
L 240.714272 156.977598 
L 241.039577 168.033724 
L 241.364882 168.033724 
L 241.690188 180.991318 
L 242.015493 180.991318 
L 242.340798 201.938723 
L 242.666103 201.938723 
L 242.991408 222.893366 
L 243.316713 222.893366 
L 243.642019 234.866949 
L 243.967324 234.866949 
L 244.292629 242.7069 
L 244.617934 242.7069 
L 244.943239 256.288341 
L 245.268544 256.288341 
L 245.59385 273.175736 
L 245.919155 273.175736 
L 246.24446 282.342904 
L 246.569765 282.342904 
L 246.89507 282.651562 
L 247.220375 282.651562 
L 247.54568 284.496939 
L 247.870986 284.496939 
L 248.196291 291.849745 
L 248.521596 291.849745 
L 248.846901 295.32544 
L 249.172206 295.32544 
L 249.497511 288.155514 
L 249.822817 288.155514 
L 250.148122 277.803369 
L 250.473427 277.803369 
L 250.798732 273.228121 
L 251.124037 273.228121 
L 251.449342 269.79192 
L 251.774647 269.79192 
L 252.099953 257.405578 
L 252.425258 257.405578 
L 252.750563 238.151628 
L 253.075868 238.151628 
L 253.401173 223.089901 
L 253.726478 223.089901 
L 254.051784 213.791264 
L 254.377089 213.791264 
L 254.702394 200.161009 
L 255.027699 200.161009 
L 255.353004 178.201996 
L 255.678309 178.201996 
L 256.003615 157.408386 
L 256.32892 157.408386 
L 256.654225 145.088924 
L 256.97953 145.088924 
L 257.304835 134.453998 
L 257.63014 134.453998 
L 257.955445 116.779833 
L 258.280751 116.779833 
L 258.606056 96.858397 
L 258.931361 96.858397 
L 259.256666 85.351239 
L 259.581971 85.351239 
L 259.907276 81.036675 
L 260.232582 81.036675 
L 260.557887 73.323514 
L 260.883192 73.323514 
L 261.208497 60.712659 
L 261.533802 60.712659 
L 261.859107 53.63278 
L 262.184412 53.63278 
L 262.509718 56.872827 
L 262.835023 56.872827 
L 263.160328 61.509608 
L 263.485633 61.509608 
L 263.810938 60.244306 
L 264.136243 60.244306 
L 264.461549 59.866419 
L 264.786854 59.866419 
L 265.112159 69.552855 
L 265.437464 69.552855 
L 265.762769 85.037864 
L 266.088074 85.037864 
L 266.413379 95.63194 
L 266.738685 95.63194 
L 267.06399 102.176929 
L 267.389295 102.176929 
L 267.7146 115.221094 
L 268.039905 115.221094 
L 268.36521 136.530191 
L 268.690516 136.530191 
L 269.015821 155.599523 
L 269.341126 155.599523 
L 269.666431 167.080403 
L 269.991736 167.080403 
L 270.317041 179.381798 
L 270.642347 179.381798 
L 270.967652 199.724282 
L 271.292957 199.724282 
L 271.618262 221.213738 
L 271.943567 221.213738 
L 272.268872 234.074163 
L 272.594177 234.074163 
L 272.919483 241.798171 
L 273.244788 241.798171 
L 273.570093 254.667935 
L 273.895398 254.667935 
L 274.220703 271.708036 
L 274.546008 271.708036 
L 274.871314 281.923308 
L 275.196619 281.923308 
L 275.521924 282.722338 
L 275.847229 282.722338 
L 276.172534 284.029216 
L 276.497839 284.029216 
L 276.823144 291.125998 
L 277.14845 291.125998 
L 277.473755 295.454006 
L 277.79906 295.454006 
L 278.124365 289.193955 
L 278.44967 289.193955 
L 278.774975 278.616188 
L 279.100281 278.616188 
L 279.425586 273.446657 
L 279.750891 273.446657 
L 280.076196 270.414603 
L 280.401501 270.414603 
L 280.726806 259.081425 
L 281.052111 259.081425 
L 281.377417 240.00812 
L 281.702722 240.00812 
L 282.028027 224.181605 
L 282.353332 224.181605 
L 282.678637 214.68099 
L 283.003942 214.68099 
L 283.329248 201.882461 
L 283.654553 201.882461 
L 283.979858 180.460897 
L 284.305163 180.460897 
L 284.630468 159.020007 
L 284.955773 159.020007 
L 285.281079 145.97378 
L 285.606384 145.97378 
L 285.931689 135.736985 
L 286.256994 135.736985 
L 286.582299 118.811986 
L 286.907604 118.811986 
L 287.232909 98.591957 
L 287.558215 98.591957 
L 287.88352 86.041222 
L 288.208825 86.041222 
L 288.53413 81.445062 
L 288.859435 81.445062 
L 289.18474 74.378531 
L 289.510046 74.378531 
L 289.835351 61.868359 
L 290.160656 61.868359 
L 290.485961 53.81967 
L 290.811266 53.81967 
L 291.136571 56.271267 
L 291.461876 56.271267 
L 291.787182 61.262942 
L 292.112487 61.262942 
L 292.437792 60.512782 
L 292.763097 60.512782 
L 293.088402 59.558162 
L 293.413707 59.558162 
L 293.739013 68.216299 
L 294.064318 68.216299 
L 294.389623 83.626445 
L 294.714928 83.626445 
L 295.040233 94.880902 
L 295.365538 94.880902 
L 295.690844 101.376428 
L 296.016149 101.376428 
L 296.341454 113.469639 
L 296.666759 113.469639 
L 296.992064 134.362424 
L 297.317369 134.362424 
L 297.642674 154.127068 
L 297.96798 154.127068 
L 298.293285 166.142741 
L 298.61859 166.142741 
L 298.943895 177.874661 
L 299.2692 177.874661 
L 299.594505 197.511044 
L 299.919811 197.511044 
L 300.245116 219.439615 
L 300.570421 219.439615 
L 300.895726 233.230386 
L 301.221031 233.230386 
L 301.546336 240.952447 
L 301.871641 240.952447 
L 302.196947 253.091378 
L 302.522252 253.091378 
L 302.847557 270.171736 
L 303.172862 270.171736 
L 303.498167 281.419471 
L 303.823472 281.419471 
L 304.148778 282.802358 
L 304.474083 282.802358 
L 304.799388 283.630169 
L 305.124693 283.630169 
L 305.449998 290.379906 
L 305.775303 290.379906 
L 306.100608 295.488 
L 306.425914 295.488 
L 306.751219 290.18211 
L 307.076524 290.18211 
L 307.401829 279.47299 
L 307.727134 279.47299 
L 308.052439 273.679401 
L 308.377745 273.679401 
L 308.70305 270.943744 
L 309.028355 270.943744 
L 309.35366 260.666309 
L 309.678965 260.666309 
L 310.00427 241.899084 
L 310.329576 241.899084 
L 310.654881 225.36154 
L 310.980186 225.36154 
L 311.305491 215.554846 
L 311.630796 215.554846 
L 311.956101 203.540623 
L 312.281406 203.540623 
L 312.606712 182.756619 
L 312.932017 182.756619 
L 313.257322 160.771595 
L 313.582627 160.771595 
L 313.907932 146.932048 
L 314.233237 146.932048 
L 314.558543 136.93936 
L 314.883848 136.93936 
L 315.209153 120.752203 
L 315.534458 120.752203 
L 315.859763 100.319215 
L 316.185068 100.319215 
L 316.510373 86.757273 
L 316.835679 86.757273 
L 317.160984 81.840347 
L 317.486289 81.840347 
L 317.811594 75.405742 
L 318.136899 75.405742 
L 318.462204 63.085765 
L 318.78751 63.085765 
L 319.112815 54.103902 
L 319.43812 54.103902 
L 319.763425 55.709125 
L 320.08873 55.709125 
L 320.414035 60.997158 
L 320.73934 60.997158 
L 321.064646 60.786758 
L 321.389951 60.786758 
L 321.715256 59.322247 
L 322.040561 59.322247 
L 322.365866 66.924584 
L 322.691171 66.924584 
L 323.016477 82.198812 
L 323.341782 82.198812 
L 323.667087 94.155512 
L 323.992392 94.155512 
L 324.317697 100.703213 
L 324.643002 100.703213 
L 324.968308 111.857483 
L 325.293613 111.857483 
L 325.618918 132.177413 
L 325.944223 132.177413 
L 326.269528 152.542031 
L 326.594833 152.542031 
L 326.920138 165.167591 
L 327.245444 165.167591 
L 327.570749 176.413874 
L 327.896054 176.413874 
L 328.221359 195.307202 
L 328.546664 195.307202 
L 328.871969 217.559766 
L 329.197275 217.559766 
L 329.52258 232.318832 
L 329.847885 232.318832 
L 330.17319 240.165448 
L 330.498495 240.165448 
L 330.8238 251.598812 
L 331.149105 251.598812 
L 331.474411 268.606676 
L 331.799716 268.606676 
L 332.125021 280.837562 
L 332.450326 280.837562 
L 332.775631 282.893435 
L 333.100936 282.893435 
L 333.426242 283.264485 
L 333.751547 283.264485 
L 334.076852 289.566838 
L 334.402157 289.566838 
L 334.727462 295.38069 
L 335.052767 295.38069 
L 335.378073 291.125043 
L 335.703378 291.125043 
L 336.028683 280.411301 
L 336.353988 280.411301 
L 336.679293 273.95416 
L 337.004598 273.95416 
L 337.329903 271.378886 
L 337.655209 271.378886 
L 337.980514 262.117967 
L 338.305819 262.117967 
L 338.631124 243.778245 
L 338.956429 243.778245 
L 339.281734 226.606274 
L 339.60704 226.606274 
L 339.932345 216.421254 
L 340.25765 216.421254 
L 340.582955 205.107537 
L 340.90826 205.107537 
L 341.233565 185.044147 
L 341.55887 185.044147 
L 341.884176 162.627094 
L 342.209481 162.627094 
L 342.534786 147.918523 
L 342.860091 147.918523 
L 343.185396 138.039123 
L 343.510701 138.039123 
L 343.836007 122.629397 
L 344.161312 122.629397 
L 344.486617 102.152083 
L 344.811922 102.152083 
L 345.137227 87.60378 
L 345.462532 87.60378 
L 345.787837 82.196386 
L 346.113143 82.196386 
L 346.438448 76.318557 
L 346.763753 76.318557 
L 347.089058 64.341251 
L 347.414363 64.341251 
L 347.739668 54.554972 
L 348.064974 54.554972 
L 348.390279 55.238939 
L 348.715584 55.238939 
L 349.040889 60.680365 
L 349.366194 60.680365 
L 349.691499 61.048245 
L 350.016805 61.048245 
L 350.34211 59.183942 
L 350.667415 59.183942 
L 350.99272 65.692206 
L 351.318025 65.692206 
L 351.64333 80.674162 
L 351.968635 80.674162 
L 352.293941 93.294318 
L 352.619246 93.294318 
L 352.944551 100.032921 
L 353.269856 100.032921 
L 353.595161 110.313602 
L 353.920466 110.313602 
L 354.245772 130.006457 
L 354.571077 130.006457 
L 354.896382 150.91135 
L 355.221687 150.91135 
L 355.546992 164.23543 
L 355.872297 164.23543 
L 356.197602 175.09336 
L 356.522908 175.09336 
L 356.848213 193.159163 
L 357.173518 193.159163 
L 357.498823 215.590425 
L 357.824128 215.590425 
L 358.149433 231.319542 
L 358.474739 231.319542 
L 358.800044 239.399437 
L 359.125349 239.399437 
L 359.450654 250.142208 
L 359.775959 250.142208 
L 360.101264 266.969693 
L 360.42657 266.969693 
L 360.751875 280.127947 
L 361.07718 280.127947 
L 361.402485 282.976205 
L 362.3784 283.011727 
L 362.703706 288.81135 
L 363.029011 288.81135 
L 363.354316 295.183582 
L 363.679621 295.183582 
L 364.004926 291.965325 
L 364.330231 291.965325 
L 364.655537 281.372758 
L 364.980842 281.372758 
L 365.306147 274.270935 
L 365.631452 274.270935 
L 365.956757 271.760211 
L 366.282062 271.760211 
L 366.607367 263.513077 
L 366.932673 263.513077 
L 367.257978 245.722473 
L 367.583283 245.722473 
L 367.908588 227.962788 
L 368.233893 227.962788 
L 368.559198 217.259988 
L 368.884504 217.259988 
L 369.209809 206.548729 
L 369.535114 206.548729 
L 369.860419 187.26829 
L 370.185724 187.26829 
L 370.511029 164.551364 
L 370.836334 164.551364 
L 371.16164 148.994776 
L 371.486945 148.994776 
L 371.81225 139.126186 
L 372.137555 139.126186 
L 372.46286 124.481325 
L 372.788165 124.481325 
L 373.113471 104.040507 
L 373.438776 104.040507 
L 373.764081 88.520568 
L 374.089386 88.520568 
L 374.414691 82.545627 
L 374.739996 82.545627 
L 375.065302 77.208818 
L 375.390607 77.208818 
L 375.715912 65.65827 
L 376.041217 65.65827 
L 376.366522 55.108272 
L 376.691827 55.108272 
L 377.017132 54.771846 
L 377.342438 54.771846 
L 377.667743 60.273086 
L 377.993048 60.273086 
L 378.318353 61.257499 
L 378.643658 61.257499 
L 378.968963 59.117099 
L 379.294269 59.117099 
L 379.619574 64.564312 
L 379.944879 64.564312 
L 380.270184 79.166146 
L 380.595489 79.166146 
L 380.920794 92.434384 
L 381.246099 92.434384 
L 381.571405 99.446887 
L 381.89671 99.446887 
L 382.222015 108.904513 
L 382.54732 108.904513 
L 382.872625 127.85246 
L 383.19793 127.85246 
L 383.523236 149.174085 
L 383.848541 149.174085 
L 384.173846 163.228826 
L 384.499151 163.228826 
L 384.824456 173.791008 
L 385.149761 173.791008 
L 385.475066 191.028809 
L 385.800372 191.028809 
L 386.125677 213.560621 
L 386.450982 213.560621 
L 386.776287 230.265843 
L 387.101592 230.265843 
L 387.426897 238.697518 
L 387.752203 238.697518 
L 388.077508 248.767322 
L 388.402813 248.767322 
L 388.728118 265.283285 
L 389.053423 265.283285 
L 389.378728 279.287112 
L 389.704034 279.287112 
L 390.029339 283.015833 
L 390.354644 283.015833 
L 390.679949 282.823824 
L 391.005254 282.823824 
L 391.330559 288.063922 
L 391.655864 288.063922 
L 391.98117 294.906569 
L 392.306475 294.906569 
L 392.63178 292.76764 
L 392.957085 292.76764 
L 393.28239 282.400159 
L 393.607695 282.400159 
L 393.933001 274.650044 
L 394.258306 274.650044 
L 394.583611 272.066501 
L 394.908916 272.066501 
L 395.234221 264.786782 
L 395.559526 264.786782 
L 395.884831 247.652071 
L 396.210137 247.652071 
L 396.535442 229.390803 
L 396.860747 229.390803 
L 397.186052 218.107184 
L 397.511357 218.107184 
L 397.836662 207.897412 
L 398.161968 207.897412 
L 398.487273 189.451946 
L 398.487273 189.451946 
" clip-path="url(#p18383cd4eb)" style="fill: none; stroke: #0000ff; stroke-width: 1.5; stroke-linecap: square"/>
   </g>
   <g id="patch_3">
    <path d="M 57.6 307.584 
L 57.6 41.472 
" style="fill: none; stroke: #000000; stroke-width: 0.8; stroke-linejoin: miter; stroke-linecap: square"/>
   </g>
   <g id="patch_4">
    <path d="M 414.72 307.584 
L 414.72 41.472 
" style="fill: none; stroke: #000000; stroke-width: 0.8; stroke-linejoin: miter; stroke-linecap: square"/>
   </g>
   <g id="patch_5">
    <path d="M 57.6 307.584 
L 414.72 307.584 
" style="fill: none; stroke: #000000; stroke-width: 0.8; stroke-linejoin: miter; stroke-linecap: square"/>
   </g>
   <g id="patch_6">
    <path d="M 57.6 41.472 
L 414.72 41.472 
" style="fill: none; stroke: #000000; stroke-width: 0.8; stroke-linejoin: miter; stroke-linecap: square"/>
   </g>
   <g id="text_17">
    <!-- Output from filter, channel L (24-bit) -->
    <g transform="translate(126.56625 35.472) scale(0.12 -0.12)">
     <defs>
      <path id="DejaVuSans-4f" d="M 2522 4238 
Q 1834 4238 1429 3725 
Q 1025 3213 1025 2328 
Q 1025 1447 1429 934 
Q 1834 422 2522 422 
Q 3209 422 3611 934 
Q 4013 1447 4013 2328 
Q 4013 3213 3611 3725 
Q 3209 4238 2522 4238 
z
M 2522 4750 
Q 3503 4750 4090 4092 
Q 4678 3434 4678 2328 
Q 4678 1225 4090 567 
Q 3503 -91 2522 -91 
Q 1538 -91 948 565 
Q 359 1222 359 2328 
Q 359 3434 948 4092 
Q 1538 4750 2522 4750 
z
" transform="scale(0.015625)"/>
      <path id="DejaVuSans-20" transform="scale(0.015625)"/>
      <path id="DejaVuSans-66" d="M 2375 4863 
L 2375 4384 
L 1825 4384 
Q 1516 4384 1395 4259 
Q 1275 4134 1275 3809 
L 1275 3500 
L 2222 3500 
L 2222 3053 
L 1275 3053 
L 1275 0 
L 697 0 
L 697 3053 
L 147 3053 
L 147 3500 
L 697 3500 
L 697 3744 
Q 697 4328 969 4595 
Q 1241 4863 1831 4863 
L 2375 4863 
z
" transform="scale(0.015625)"/>
      <path id="DejaVuSans-72" d="M 2631 2963 
Q 2534 3019 2420 3045 
Q 2306 3072 2169 3072 
Q 1681 3072 1420 2755 
Q 1159 2438 1159 1844 
L 1159 0 
L 581 0 
L 581 3500 
L 1159 3500 
L 1159 2956 
Q 1341 3275 1631 3429 
Q 1922 3584 2338 3584 
Q 2397 3584 2469 3576 
Q 2541 3569 2628 3553 
L 2631 2963 
z
" transform="scale(0.015625)"/>
      <path id="DejaVuSans-6f" d="M 1959 3097 
Q 1497 3097 1228 2736 
Q 959 2375 959 1747 
Q 959 1119 1226 758 
Q 1494 397 1959 397 
Q 2419 397 2687 759 
Q 2956 1122 2956 1747 
Q 2956 2369 2687 2733 
Q 2419 3097 1959 3097 
z
M 1959 3584 
Q 2709 3584 3137 3096 
Q 3566 2609 3566 1747 
Q 3566 888 3137 398 
Q 2709 -91 1959 -91 
Q 1206 -91 779 398 
Q 353 888 353 1747 
Q 353 2609 779 3096 
Q 1206 3584 1959 3584 
z
" transform="scale(0.015625)"/>
      <path id="DejaVuSans-2c" d="M 750 794 
L 1409 794 
L 1409 256 
L 897 -744 
L 494 -744 
L 750 256 
L 750 794 
z
" transform="scale(0.015625)"/>
      <path id="DejaVuSans-63" d="M 3122 3366 
L 3122 2828 
Q 2878 2963 2633 3030 
Q 2388 3097 2138 3097 
Q 1578 3097 1268 2742 
Q 959 2388 959 1747 
Q 959 1106 1268 751 
Q 1578 397 2138 397 
Q 2388 397 2633 464 
Q 2878 531 3122 666 
L 3122 134 
Q 2881 22 2623 -34 
Q 2366 -91 2075 -91 
Q 1284 -91 818 406 
Q 353 903 353 1747 
Q 353 2603 823 3093 
Q 1294 3584 2113 3584 
Q 2378 3584 2631 3529 
Q 2884 3475 3122 3366 
z
" transform="scale(0.015625)"/>
      <path id="DejaVuSans-68" d="M 3513 2113 
L 3513 0 
L 2938 0 
L 2938 2094 
Q 2938 2591 2744 2837 
Q 2550 3084 2163 3084 
Q 1697 3084 1428 2787 
Q 1159 2491 1159 1978 
L 1159 0 
L 581 0 
L 581 4863 
L 1159 4863 
L 1159 2956 
Q 1366 3272 1645 3428 
Q 1925 3584 2291 3584 
Q 2894 3584 3203 3211 
Q 3513 2838 3513 2113 
z
" transform="scale(0.015625)"/>
      <path id="DejaVuSans-6e" d="M 3513 2113 
L 3513 0 
L 2938 0 
L 2938 2094 
Q 2938 2591 2744 2837 
Q 2550 3084 2163 3084 
Q 1697 3084 1428 2787 
Q 1159 2491 1159 1978 
L 1159 0 
L 581 0 
L 581 3500 
L 1159 3500 
L 1159 2956 
Q 1366 3272 1645 3428 
Q 1925 3584 2291 3584 
Q 2894 3584 3203 3211 
Q 3513 2838 3513 2113 
z
" transform="scale(0.015625)"/>
      <path id="DejaVuSans-4c" d="M 628 4666 
L 1259 4666 
L 1259 531 
L 3531 531 
L 3531 0 
L 628 0 
L 628 4666 
z
" transform="scale(0.015625)"/>
      <path id="DejaVuSans-28" d="M 1984 4856 
Q 1566 4138 1362 3434 
Q 1159 2731 1159 2009 
Q 1159 1288 1364 580 
Q 1569 -128 1984 -844 
L 1484 -844 
Q 1016 -109 783 600 
Q 550 1309 550 2009 
Q 550 2706 781 3412 
Q 1013 4119 1484 4856 
L 1984 4856 
z
" transform="scale(0.015625)"/>
      <path id="DejaVuSans-2d" d="M 313 2009 
L 1997 2009 
L 1997 1497 
L 313 1497 
L 313 2009 
z
" transform="scale(0.015625)"/>
      <path id="DejaVuSans-62" d="M 3116 1747 
Q 3116 2381 2855 2742 
Q 2594 3103 2138 3103 
Q 1681 3103 1420 2742 
Q 1159 2381 1159 1747 
Q 1159 1113 1420 752 
Q 1681 391 2138 391 
Q 2594 391 2855 752 
Q 3116 1113 3116 1747 
z
M 1159 2969 
Q 1341 3281 1617 3432 
Q 1894 3584 2278 3584 
Q 2916 3584 3314 3078 
Q 3713 2572 3713 1747 
Q 3713 922 3314 415 
Q 2916 -91 2278 -91 
Q 1894 -91 1617 61 
Q 1341 213 1159 525 
L 1159 0 
L 581 0 
L 581 4863 
L 1159 4863 
L 1159 2969 
z
" transform="scale(0.015625)"/>
      <path id="DejaVuSans-29" d="M 513 4856 
L 1013 4856 
Q 1481 4119 1714 3412 
Q 1947 2706 1947 2009 
Q 1947 1309 1714 600 
Q 1481 -109 1013 -844 
L 513 -844 
Q 928 -128 1133 580 
Q 1338 1288 1338 2009 
Q 1338 2731 1133 3434 
Q 928 4138 513 4856 
z
" transform="scale(0.015625)"/>
     </defs>
     <use xlink:href="#DejaVuSans-4f"/>
     <use xlink:href="#DejaVuSans-75" x="78.710938"/>
     <use xlink:href="#DejaVuSans-74" x="142.089844"/>
     <use xlink:href="#DejaVuSans-70" x="181.298828"/>
     <use xlink:href="#DejaVuSans-75" x="244.775391"/>
     <use xlink:href="#DejaVuSans-74" x="308.154297"/>
     <use xlink:href="#DejaVuSans-20" x="347.363281"/>
     <use xlink:href="#DejaVuSans-66" x="379.150391"/>
     <use xlink:href="#DejaVuSans-72" x="414.355469"/>
     <use xlink:href="#DejaVuSans-6f" x="453.21875"/>
     <use xlink:href="#DejaVuSans-6d" x="514.400391"/>
     <use xlink:href="#DejaVuSans-20" x="611.8125"/>
     <use xlink:href="#DejaVuSans-66" x="643.599609"/>
     <use xlink:href="#DejaVuSans-69" x="678.804688"/>
     <use xlink:href="#DejaVuSans-6c" x="706.587891"/>
     <use xlink:href="#DejaVuSans-74" x="734.371094"/>
     <use xlink:href="#DejaVuSans-65" x="773.580078"/>
     <use xlink:href="#DejaVuSans-72" x="835.103516"/>
     <use xlink:href="#DejaVuSans-2c" x="876.216797"/>
     <use xlink:href="#DejaVuSans-20" x="908.003906"/>
     <use xlink:href="#DejaVuSans-63" x="939.791016"/>
     <use xlink:href="#DejaVuSans-68" x="994.771484"/>
     <use xlink:href="#DejaVuSans-61" x="1058.150391"/>
     <use xlink:href="#DejaVuSans-6e" x="1119.429688"/>
     <use xlink:href="#DejaVuSans-6e" x="1182.808594"/>
     <use xlink:href="#DejaVuSans-65" x="1246.1875"/>
     <use xlink:href="#DejaVuSans-6c" x="1307.710938"/>
     <use xlink:href="#DejaVuSans-20" x="1335.494141"/>
     <use xlink:href="#DejaVuSans-4c" x="1367.28125"/>
     <use xlink:href="#DejaVuSans-20" x="1422.994141"/>
     <use xlink:href="#DejaVuSans-28" x="1454.78125"/>
     <use xlink:href="#DejaVuSans-32" x="1493.794922"/>
     <use xlink:href="#DejaVuSans-34" x="1557.417969"/>
     <use xlink:href="#DejaVuSans-2d" x="1621.041016"/>
     <use xlink:href="#DejaVuSans-62" x="1657.125"/>
     <use xlink:href="#DejaVuSans-69" x="1720.601562"/>
     <use xlink:href="#DejaVuSans-74" x="1748.384766"/>
     <use xlink:href="#DejaVuSans-29" x="1787.59375"/>
    </g>
   </g>
  </g>
 </g>
 <defs>
  <clipPath id="p18383cd4eb">
   <rect x="57.6" y="41.472" width="357.12" height="266.112"/>
  </clipPath>
 </defs>
</svg>
