<?xml version="1.0" encoding="utf-8" standalone="no"?>
<!DOCTYPE svg PUBLIC "-//W3C//DTD SVG 1.1//EN"
  "http://www.w3.org/Graphics/SVG/1.1/DTD/svg11.dtd">
<svg xmlns:xlink="http://www.w3.org/1999/xlink" width="460.8pt" height="345.6pt" viewBox="0 0 460.8 345.6" xmlns="http://www.w3.org/2000/svg" version="1.1">
 <metadata>
  <rdf:RDF xmlns:dc="http://purl.org/dc/elements/1.1/" xmlns:cc="http://creativecommons.org/ns#" xmlns:rdf="http://www.w3.org/1999/02/22-rdf-syntax-ns#">
   <cc:Work>
    <dc:type rdf:resource="http://purl.org/dc/dcmitype/StillImage"/>
    <dc:date>2025-08-29T14:53:57.114024</dc:date>
    <dc:format>image/svg+xml</dc:format>
    <dc:creator>
     <cc:Agent>
      <dc:title>Matplotlib v3.9.2, https://matplotlib.org/</dc:title>
     </cc:Agent>
    </dc:creator>
   </cc:Work>
  </rdf:RDF>
 </metadata>
 <defs>
  <style type="text/css">*{stroke-linejoin: round; stroke-linecap: butt}</style>
 </defs>
 <g id="figure_1">
  <g id="patch_1">
   <path d="M 0 345.6 
L 460.8 345.6 
L 460.8 0 
L 0 0 
z
" style="fill: #ffffff"/>
  </g>
  <g id="axes_1">
   <g id="patch_2">
    <path d="M 57.6 307.584 
L 414.72 307.584 
L 414.72 41.472 
L 57.6 41.472 
z
" style="fill: #ffffff"/>
   </g>
   <g id="matplotlib.axis_1">
    <g id="xtick_1">
     <g id="line2d_1">
      <path d="M 73.832727 307.584 
L 73.832727 41.472 
" clip-path="url(#pa874e5d00b)" style="fill: none; stroke: #b0b0b0; stroke-width: 0.8; stroke-linecap: square"/>
     </g>
     <g id="line2d_2">
      <defs>
       <path id="m07595546df" d="M 0 0 
L 0 3.5 
" style="stroke: #000000; stroke-width: 0.8"/>
      </defs>
      <g>
       <use xlink:href="#m07595546df" x="73.832727" y="307.584" style="stroke: #000000; stroke-width: 0.8"/>
      </g>
     </g>
     <g id="text_1">
      <!-- 0 -->
      <g transform="translate(70.651477 322.182437) scale(0.1 -0.1)">
       <defs>
        <path id="DejaVuSans-30" d="M 2034 4250 
Q 1547 4250 1301 3770 
Q 1056 3291 1056 2328 
Q 1056 1369 1301 889 
Q 1547 409 2034 409 
Q 2525 409 2770 889 
Q 3016 1369 3016 2328 
Q 3016 3291 2770 3770 
Q 2525 4250 2034 4250 
z
M 2034 4750 
Q 2819 4750 3233 4129 
Q 3647 3509 3647 2328 
Q 3647 1150 3233 529 
Q 2819 -91 2034 -91 
Q 1250 -91 836 529 
Q 422 1150 422 2328 
Q 422 3509 836 4129 
Q 1250 4750 2034 4750 
z
" transform="scale(0.015625)"/>
       </defs>
       <use xlink:href="#DejaVuSans-30"/>
      </g>
     </g>
    </g>
    <g id="xtick_2">
     <g id="line2d_3">
      <path d="M 138.893758 307.584 
L 138.893758 41.472 
" clip-path="url(#pa874e5d00b)" style="fill: none; stroke: #b0b0b0; stroke-width: 0.8; stroke-linecap: square"/>
     </g>
     <g id="line2d_4">
      <g>
       <use xlink:href="#m07595546df" x="138.893758" y="307.584" style="stroke: #000000; stroke-width: 0.8"/>
      </g>
     </g>
     <g id="text_2">
      <!-- 100 -->
      <g transform="translate(129.350008 322.182437) scale(0.1 -0.1)">
       <defs>
        <path id="DejaVuSans-31" d="M 794 531 
L 1825 531 
L 1825 4091 
L 703 3866 
L 703 4441 
L 1819 4666 
L 2450 4666 
L 2450 531 
L 3481 531 
L 3481 0 
L 794 0 
L 794 531 
z
" transform="scale(0.015625)"/>
       </defs>
       <use xlink:href="#DejaVuSans-31"/>
       <use xlink:href="#DejaVuSans-30" x="63.623047"/>
       <use xlink:href="#DejaVuSans-30" x="127.246094"/>
      </g>
     </g>
    </g>
    <g id="xtick_3">
     <g id="line2d_5">
      <path d="M 203.95479 307.584 
L 203.95479 41.472 
" clip-path="url(#pa874e5d00b)" style="fill: none; stroke: #b0b0b0; stroke-width: 0.8; stroke-linecap: square"/>
     </g>
     <g id="line2d_6">
      <g>
       <use xlink:href="#m07595546df" x="203.95479" y="307.584" style="stroke: #000000; stroke-width: 0.8"/>
      </g>
     </g>
     <g id="text_3">
      <!-- 200 -->
      <g transform="translate(194.41104 322.182437) scale(0.1 -0.1)">
       <defs>
        <path id="DejaVuSans-32" d="M 1228 531 
L 3431 531 
L 3431 0 
L 469 0 
L 469 531 
Q 828 903 1448 1529 
Q 2069 2156 2228 2338 
Q 2531 2678 2651 2914 
Q 2772 3150 2772 3378 
Q 2772 3750 2511 3984 
Q 2250 4219 1831 4219 
Q 1534 4219 1204 4116 
Q 875 4013 500 3803 
L 500 4441 
Q 881 4594 1212 4672 
Q 1544 4750 1819 4750 
Q 2544 4750 2975 4387 
Q 3406 4025 3406 3419 
Q 3406 3131 3298 2873 
Q 3191 2616 2906 2266 
Q 2828 2175 2409 1742 
Q 1991 1309 1228 531 
z
" transform="scale(0.015625)"/>
       </defs>
       <use xlink:href="#DejaVuSans-32"/>
       <use xlink:href="#DejaVuSans-30" x="63.623047"/>
       <use xlink:href="#DejaVuSans-30" x="127.246094"/>
      </g>
     </g>
    </g>
    <g id="xtick_4">
     <g id="line2d_7">
      <path d="M 269.015821 307.584 
L 269.015821 41.472 
" clip-path="url(#pa874e5d00b)" style="fill: none; stroke: #b0b0b0; stroke-width: 0.8; stroke-linecap: square"/>
     </g>
     <g id="line2d_8">
      <g>
       <use xlink:href="#m07595546df" x="269.015821" y="307.584" style="stroke: #000000; stroke-width: 0.8"/>
      </g>
     </g>
     <g id="text_4">
      <!-- 300 -->
      <g transform="translate(259.472071 322.182437) scale(0.1 -0.1)">
       <defs>
        <path id="DejaVuSans-33" d="M 2597 2516 
Q 3050 2419 3304 2112 
Q 3559 1806 3559 1356 
Q 3559 666 3084 287 
Q 2609 -91 1734 -91 
Q 1441 -91 1130 -33 
Q 819 25 488 141 
L 488 750 
Q 750 597 1062 519 
Q 1375 441 1716 441 
Q 2309 441 2620 675 
Q 2931 909 2931 1356 
Q 2931 1769 2642 2001 
Q 2353 2234 1838 2234 
L 1294 2234 
L 1294 2753 
L 1863 2753 
Q 2328 2753 2575 2939 
Q 2822 3125 2822 3475 
Q 2822 3834 2567 4026 
Q 2313 4219 1838 4219 
Q 1578 4219 1281 4162 
Q 984 4106 628 3988 
L 628 4550 
Q 988 4650 1302 4700 
Q 1616 4750 1894 4750 
Q 2613 4750 3031 4423 
Q 3450 4097 3450 3541 
Q 3450 3153 3228 2886 
Q 3006 2619 2597 2516 
z
" transform="scale(0.015625)"/>
       </defs>
       <use xlink:href="#DejaVuSans-33"/>
       <use xlink:href="#DejaVuSans-30" x="63.623047"/>
       <use xlink:href="#DejaVuSans-30" x="127.246094"/>
      </g>
     </g>
    </g>
    <g id="xtick_5">
     <g id="line2d_9">
      <path d="M 334.076852 307.584 
L 334.076852 41.472 
" clip-path="url(#pa874e5d00b)" style="fill: none; stroke: #b0b0b0; stroke-width: 0.8; stroke-linecap: square"/>
     </g>
     <g id="line2d_10">
      <g>
       <use xlink:href="#m07595546df" x="334.076852" y="307.584" style="stroke: #000000; stroke-width: 0.8"/>
      </g>
     </g>
     <g id="text_5">
      <!-- 400 -->
      <g transform="translate(324.533102 322.182437) scale(0.1 -0.1)">
       <defs>
        <path id="DejaVuSans-34" d="M 2419 4116 
L 825 1625 
L 2419 1625 
L 2419 4116 
z
M 2253 4666 
L 3047 4666 
L 3047 1625 
L 3713 1625 
L 3713 1100 
L 3047 1100 
L 3047 0 
L 2419 0 
L 2419 1100 
L 313 1100 
L 313 1709 
L 2253 4666 
z
" transform="scale(0.015625)"/>
       </defs>
       <use xlink:href="#DejaVuSans-34"/>
       <use xlink:href="#DejaVuSans-30" x="63.623047"/>
       <use xlink:href="#DejaVuSans-30" x="127.246094"/>
      </g>
     </g>
    </g>
    <g id="xtick_6">
     <g id="line2d_11">
      <path d="M 399.137883 307.584 
L 399.137883 41.472 
" clip-path="url(#pa874e5d00b)" style="fill: none; stroke: #b0b0b0; stroke-width: 0.8; stroke-linecap: square"/>
     </g>
     <g id="line2d_12">
      <g>
       <use xlink:href="#m07595546df" x="399.137883" y="307.584" style="stroke: #000000; stroke-width: 0.8"/>
      </g>
     </g>
     <g id="text_6">
      <!-- 500 -->
      <g transform="translate(389.594133 322.182437) scale(0.1 -0.1)">
       <defs>
        <path id="DejaVuSans-35" d="M 691 4666 
L 3169 4666 
L 3169 4134 
L 1269 4134 
L 1269 2991 
Q 1406 3038 1543 3061 
Q 1681 3084 1819 3084 
Q 2600 3084 3056 2656 
Q 3513 2228 3513 1497 
Q 3513 744 3044 326 
Q 2575 -91 1722 -91 
Q 1428 -91 1123 -41 
Q 819 9 494 109 
L 494 744 
Q 775 591 1075 516 
Q 1375 441 1709 441 
Q 2250 441 2565 725 
Q 2881 1009 2881 1497 
Q 2881 1984 2565 2268 
Q 2250 2553 1709 2553 
Q 1456 2553 1204 2497 
Q 953 2441 691 2322 
L 691 4666 
z
" transform="scale(0.015625)"/>
       </defs>
       <use xlink:href="#DejaVuSans-35"/>
       <use xlink:href="#DejaVuSans-30" x="63.623047"/>
       <use xlink:href="#DejaVuSans-30" x="127.246094"/>
      </g>
     </g>
    </g>
    <g id="text_7">
     <!-- Samples -->
     <g transform="translate(214.806875 335.860562) scale(0.1 -0.1)">
      <defs>
       <path id="DejaVuSans-53" d="M 3425 4513 
L 3425 3897 
Q 3066 4069 2747 4153 
Q 2428 4238 2131 4238 
Q 1616 4238 1336 4038 
Q 1056 3838 1056 3469 
Q 1056 3159 1242 3001 
Q 1428 2844 1947 2747 
L 2328 2669 
Q 3034 2534 3370 2195 
Q 3706 1856 3706 1288 
Q 3706 609 3251 259 
Q 2797 -91 1919 -91 
Q 1588 -91 1214 -16 
Q 841 59 441 206 
L 441 856 
Q 825 641 1194 531 
Q 1563 422 1919 422 
Q 2459 422 2753 634 
Q 3047 847 3047 1241 
Q 3047 1584 2836 1778 
Q 2625 1972 2144 2069 
L 1759 2144 
Q 1053 2284 737 2584 
Q 422 2884 422 3419 
Q 422 4038 858 4394 
Q 1294 4750 2059 4750 
Q 2388 4750 2728 4690 
Q 3069 4631 3425 4513 
z
" transform="scale(0.015625)"/>
       <path id="DejaVuSans-61" d="M 2194 1759 
Q 1497 1759 1228 1600 
Q 959 1441 959 1056 
Q 959 750 1161 570 
Q 1363 391 1709 391 
Q 2188 391 2477 730 
Q 2766 1069 2766 1631 
L 2766 1759 
L 2194 1759 
z
M 3341 1997 
L 3341 0 
L 2766 0 
L 2766 531 
Q 2569 213 2275 61 
Q 1981 -91 1556 -91 
Q 1019 -91 701 211 
Q 384 513 384 1019 
Q 384 1609 779 1909 
Q 1175 2209 1959 2209 
L 2766 2209 
L 2766 2266 
Q 2766 2663 2505 2880 
Q 2244 3097 1772 3097 
Q 1472 3097 1187 3025 
Q 903 2953 641 2809 
L 641 3341 
Q 956 3463 1253 3523 
Q 1550 3584 1831 3584 
Q 2591 3584 2966 3190 
Q 3341 2797 3341 1997 
z
" transform="scale(0.015625)"/>
       <path id="DejaVuSans-6d" d="M 3328 2828 
Q 3544 3216 3844 3400 
Q 4144 3584 4550 3584 
Q 5097 3584 5394 3201 
Q 5691 2819 5691 2113 
L 5691 0 
L 5113 0 
L 5113 2094 
Q 5113 2597 4934 2840 
Q 4756 3084 4391 3084 
Q 3944 3084 3684 2787 
Q 3425 2491 3425 1978 
L 3425 0 
L 2847 0 
L 2847 2094 
Q 2847 2600 2669 2842 
Q 2491 3084 2119 3084 
Q 1678 3084 1418 2786 
Q 1159 2488 1159 1978 
L 1159 0 
L 581 0 
L 581 3500 
L 1159 3500 
L 1159 2956 
Q 1356 3278 1631 3431 
Q 1906 3584 2284 3584 
Q 2666 3584 2933 3390 
Q 3200 3197 3328 2828 
z
" transform="scale(0.015625)"/>
       <path id="DejaVuSans-70" d="M 1159 525 
L 1159 -1331 
L 581 -1331 
L 581 3500 
L 1159 3500 
L 1159 2969 
Q 1341 3281 1617 3432 
Q 1894 3584 2278 3584 
Q 2916 3584 3314 3078 
Q 3713 2572 3713 1747 
Q 3713 922 3314 415 
Q 2916 -91 2278 -91 
Q 1894 -91 1617 61 
Q 1341 213 1159 525 
z
M 3116 1747 
Q 3116 2381 2855 2742 
Q 2594 3103 2138 3103 
Q 1681 3103 1420 2742 
Q 1159 2381 1159 1747 
Q 1159 1113 1420 752 
Q 1681 391 2138 391 
Q 2594 391 2855 752 
Q 3116 1113 3116 1747 
z
" transform="scale(0.015625)"/>
       <path id="DejaVuSans-6c" d="M 603 4863 
L 1178 4863 
L 1178 0 
L 603 0 
L 603 4863 
z
" transform="scale(0.015625)"/>
       <path id="DejaVuSans-65" d="M 3597 1894 
L 3597 1613 
L 953 1613 
Q 991 1019 1311 708 
Q 1631 397 2203 397 
Q 2534 397 2845 478 
Q 3156 559 3463 722 
L 3463 178 
Q 3153 47 2828 -22 
Q 2503 -91 2169 -91 
Q 1331 -91 842 396 
Q 353 884 353 1716 
Q 353 2575 817 3079 
Q 1281 3584 2069 3584 
Q 2775 3584 3186 3129 
Q 3597 2675 3597 1894 
z
M 3022 2063 
Q 3016 2534 2758 2815 
Q 2500 3097 2075 3097 
Q 1594 3097 1305 2825 
Q 1016 2553 972 2059 
L 3022 2063 
z
" transform="scale(0.015625)"/>
       <path id="DejaVuSans-73" d="M 2834 3397 
L 2834 2853 
Q 2591 2978 2328 3040 
Q 2066 3103 1784 3103 
Q 1356 3103 1142 2972 
Q 928 2841 928 2578 
Q 928 2378 1081 2264 
Q 1234 2150 1697 2047 
L 1894 2003 
Q 2506 1872 2764 1633 
Q 3022 1394 3022 966 
Q 3022 478 2636 193 
Q 2250 -91 1575 -91 
Q 1294 -91 989 -36 
Q 684 19 347 128 
L 347 722 
Q 666 556 975 473 
Q 1284 391 1588 391 
Q 1994 391 2212 530 
Q 2431 669 2431 922 
Q 2431 1156 2273 1281 
Q 2116 1406 1581 1522 
L 1381 1569 
Q 847 1681 609 1914 
Q 372 2147 372 2553 
Q 372 3047 722 3315 
Q 1072 3584 1716 3584 
Q 2034 3584 2315 3537 
Q 2597 3491 2834 3397 
z
" transform="scale(0.015625)"/>
      </defs>
      <use xlink:href="#DejaVuSans-53"/>
      <use xlink:href="#DejaVuSans-61" x="63.476562"/>
      <use xlink:href="#DejaVuSans-6d" x="124.755859"/>
      <use xlink:href="#DejaVuSans-70" x="222.167969"/>
      <use xlink:href="#DejaVuSans-6c" x="285.644531"/>
      <use xlink:href="#DejaVuSans-65" x="313.427734"/>
      <use xlink:href="#DejaVuSans-73" x="374.951172"/>
     </g>
    </g>
   </g>
   <g id="matplotlib.axis_2">
    <g id="ytick_1">
     <g id="line2d_13">
      <path d="M 57.6 275.374342 
L 414.72 275.374342 
" clip-path="url(#pa874e5d00b)" style="fill: none; stroke: #b0b0b0; stroke-width: 0.8; stroke-linecap: square"/>
     </g>
     <g id="line2d_14">
      <defs>
       <path id="m8ce3b6ed60" d="M 0 0 
L -3.5 0 
" style="stroke: #000000; stroke-width: 0.8"/>
      </defs>
      <g>
       <use xlink:href="#m8ce3b6ed60" x="57.6" y="275.374342" style="stroke: #000000; stroke-width: 0.8"/>
      </g>
     </g>
     <g id="text_8">
      <!-- −1.0 -->
      <g transform="translate(26.317187 279.173561) scale(0.1 -0.1)">
       <defs>
        <path id="DejaVuSans-2212" d="M 678 2272 
L 4684 2272 
L 4684 1741 
L 678 1741 
L 678 2272 
z
" transform="scale(0.015625)"/>
        <path id="DejaVuSans-2e" d="M 684 794 
L 1344 794 
L 1344 0 
L 684 0 
L 684 794 
z
" transform="scale(0.015625)"/>
       </defs>
       <use xlink:href="#DejaVuSans-2212"/>
       <use xlink:href="#DejaVuSans-31" x="83.789062"/>
       <use xlink:href="#DejaVuSans-2e" x="147.412109"/>
       <use xlink:href="#DejaVuSans-30" x="179.199219"/>
      </g>
     </g>
    </g>
    <g id="ytick_2">
     <g id="line2d_15">
      <path d="M 57.6 224.938386 
L 414.72 224.938386 
" clip-path="url(#pa874e5d00b)" style="fill: none; stroke: #b0b0b0; stroke-width: 0.8; stroke-linecap: square"/>
     </g>
     <g id="line2d_16">
      <g>
       <use xlink:href="#m8ce3b6ed60" x="57.6" y="224.938386" style="stroke: #000000; stroke-width: 0.8"/>
      </g>
     </g>
     <g id="text_9">
      <!-- −0.5 -->
      <g transform="translate(26.317187 228.737604) scale(0.1 -0.1)">
       <use xlink:href="#DejaVuSans-2212"/>
       <use xlink:href="#DejaVuSans-30" x="83.789062"/>
       <use xlink:href="#DejaVuSans-2e" x="147.412109"/>
       <use xlink:href="#DejaVuSans-35" x="179.199219"/>
      </g>
     </g>
    </g>
    <g id="ytick_3">
     <g id="line2d_17">
      <path d="M 57.6 174.502429 
L 414.72 174.502429 
" clip-path="url(#pa874e5d00b)" style="fill: none; stroke: #b0b0b0; stroke-width: 0.8; stroke-linecap: square"/>
     </g>
     <g id="line2d_18">
      <g>
       <use xlink:href="#m8ce3b6ed60" x="57.6" y="174.502429" style="stroke: #000000; stroke-width: 0.8"/>
      </g>
     </g>
     <g id="text_10">
      <!-- 0.0 -->
      <g transform="translate(34.696875 178.301648) scale(0.1 -0.1)">
       <use xlink:href="#DejaVuSans-30"/>
       <use xlink:href="#DejaVuSans-2e" x="63.623047"/>
       <use xlink:href="#DejaVuSans-30" x="95.410156"/>
      </g>
     </g>
    </g>
    <g id="ytick_4">
     <g id="line2d_19">
      <path d="M 57.6 124.066472 
L 414.72 124.066472 
" clip-path="url(#pa874e5d00b)" style="fill: none; stroke: #b0b0b0; stroke-width: 0.8; stroke-linecap: square"/>
     </g>
     <g id="line2d_20">
      <g>
       <use xlink:href="#m8ce3b6ed60" x="57.6" y="124.066472" style="stroke: #000000; stroke-width: 0.8"/>
      </g>
     </g>
     <g id="text_11">
      <!-- 0.5 -->
      <g transform="translate(34.696875 127.865691) scale(0.1 -0.1)">
       <use xlink:href="#DejaVuSans-30"/>
       <use xlink:href="#DejaVuSans-2e" x="63.623047"/>
       <use xlink:href="#DejaVuSans-35" x="95.410156"/>
      </g>
     </g>
    </g>
    <g id="ytick_5">
     <g id="line2d_21">
      <path d="M 57.6 73.630516 
L 414.72 73.630516 
" clip-path="url(#pa874e5d00b)" style="fill: none; stroke: #b0b0b0; stroke-width: 0.8; stroke-linecap: square"/>
     </g>
     <g id="line2d_22">
      <g>
       <use xlink:href="#m8ce3b6ed60" x="57.6" y="73.630516" style="stroke: #000000; stroke-width: 0.8"/>
      </g>
     </g>
     <g id="text_12">
      <!-- 1.0 -->
      <g transform="translate(34.696875 77.429734) scale(0.1 -0.1)">
       <use xlink:href="#DejaVuSans-31"/>
       <use xlink:href="#DejaVuSans-2e" x="63.623047"/>
       <use xlink:href="#DejaVuSans-30" x="95.410156"/>
      </g>
     </g>
    </g>
    <g id="text_13">
     <!-- Amplitude -->
     <g transform="translate(20.2375 200.150656) rotate(-90) scale(0.1 -0.1)">
      <defs>
       <path id="DejaVuSans-41" d="M 2188 4044 
L 1331 1722 
L 3047 1722 
L 2188 4044 
z
M 1831 4666 
L 2547 4666 
L 4325 0 
L 3669 0 
L 3244 1197 
L 1141 1197 
L 716 0 
L 50 0 
L 1831 4666 
z
" transform="scale(0.015625)"/>
       <path id="DejaVuSans-69" d="M 603 3500 
L 1178 3500 
L 1178 0 
L 603 0 
L 603 3500 
z
M 603 4863 
L 1178 4863 
L 1178 4134 
L 603 4134 
L 603 4863 
z
" transform="scale(0.015625)"/>
       <path id="DejaVuSans-74" d="M 1172 4494 
L 1172 3500 
L 2356 3500 
L 2356 3053 
L 1172 3053 
L 1172 1153 
Q 1172 725 1289 603 
Q 1406 481 1766 481 
L 2356 481 
L 2356 0 
L 1766 0 
Q 1100 0 847 248 
Q 594 497 594 1153 
L 594 3053 
L 172 3053 
L 172 3500 
L 594 3500 
L 594 4494 
L 1172 4494 
z
" transform="scale(0.015625)"/>
       <path id="DejaVuSans-75" d="M 544 1381 
L 544 3500 
L 1119 3500 
L 1119 1403 
Q 1119 906 1312 657 
Q 1506 409 1894 409 
Q 2359 409 2629 706 
Q 2900 1003 2900 1516 
L 2900 3500 
L 3475 3500 
L 3475 0 
L 2900 0 
L 2900 538 
Q 2691 219 2414 64 
Q 2138 -91 1772 -91 
Q 1169 -91 856 284 
Q 544 659 544 1381 
z
M 1991 3584 
L 1991 3584 
z
" transform="scale(0.015625)"/>
       <path id="DejaVuSans-64" d="M 2906 2969 
L 2906 4863 
L 3481 4863 
L 3481 0 
L 2906 0 
L 2906 525 
Q 2725 213 2448 61 
Q 2172 -91 1784 -91 
Q 1150 -91 751 415 
Q 353 922 353 1747 
Q 353 2572 751 3078 
Q 1150 3584 1784 3584 
Q 2172 3584 2448 3432 
Q 2725 3281 2906 2969 
z
M 947 1747 
Q 947 1113 1208 752 
Q 1469 391 1925 391 
Q 2381 391 2643 752 
Q 2906 1113 2906 1747 
Q 2906 2381 2643 2742 
Q 2381 3103 1925 3103 
Q 1469 3103 1208 2742 
Q 947 2381 947 1747 
z
" transform="scale(0.015625)"/>
      </defs>
      <use xlink:href="#DejaVuSans-41"/>
      <use xlink:href="#DejaVuSans-6d" x="68.408203"/>
      <use xlink:href="#DejaVuSans-70" x="165.820312"/>
      <use xlink:href="#DejaVuSans-6c" x="229.296875"/>
      <use xlink:href="#DejaVuSans-69" x="257.080078"/>
      <use xlink:href="#DejaVuSans-74" x="284.863281"/>
      <use xlink:href="#DejaVuSans-75" x="324.072266"/>
      <use xlink:href="#DejaVuSans-64" x="387.451172"/>
      <use xlink:href="#DejaVuSans-65" x="450.927734"/>
     </g>
    </g>
    <g id="text_14">
     <!-- 1e6 -->
     <g transform="translate(57.6 38.472) scale(0.1 -0.1)">
      <defs>
       <path id="DejaVuSans-36" d="M 2113 2584 
Q 1688 2584 1439 2293 
Q 1191 2003 1191 1497 
Q 1191 994 1439 701 
Q 1688 409 2113 409 
Q 2538 409 2786 701 
Q 3034 994 3034 1497 
Q 3034 2003 2786 2293 
Q 2538 2584 2113 2584 
z
M 3366 4563 
L 3366 3988 
Q 3128 4100 2886 4159 
Q 2644 4219 2406 4219 
Q 1781 4219 1451 3797 
Q 1122 3375 1075 2522 
Q 1259 2794 1537 2939 
Q 1816 3084 2150 3084 
Q 2853 3084 3261 2657 
Q 3669 2231 3669 1497 
Q 3669 778 3244 343 
Q 2819 -91 2113 -91 
Q 1303 -91 875 529 
Q 447 1150 447 2328 
Q 447 3434 972 4092 
Q 1497 4750 2381 4750 
Q 2619 4750 2861 4703 
Q 3103 4656 3366 4563 
z
" transform="scale(0.015625)"/>
      </defs>
      <use xlink:href="#DejaVuSans-31"/>
      <use xlink:href="#DejaVuSans-65" x="63.623047"/>
      <use xlink:href="#DejaVuSans-36" x="125.146484"/>
     </g>
    </g>
   </g>
   <g id="line2d_23">
    <path d="M 73.832727 152.989476 
L 74.483338 161.308383 
L 75.133948 162.011359 
L 75.784558 145.853999 
L 76.435169 140.284053 
L 77.085779 131.866595 
L 77.736389 117.352337 
L 78.386999 124.182172 
L 79.03761 128.215233 
L 79.68822 102.871871 
L 80.33883 90.142441 
L 80.989441 102.792485 
L 81.640051 99.619256 
L 82.290661 86.679206 
L 82.941272 85.516556 
L 84.242492 68.4111 
L 84.893103 82.204427 
L 85.543713 82.371168 
L 86.194323 58.53453 
L 86.844934 57.667737 
L 87.495544 73.725638 
L 88.146154 69.240066 
L 88.796764 62.954737 
L 89.447375 66.252744 
L 90.097985 58.852881 
L 90.748595 60.17279 
L 91.399206 79.5983 
L 92.049816 76.127701 
L 92.700426 58.064567 
L 93.351037 69.259534 
L 94.001647 86.55362 
L 94.652257 82.637974 
L 95.302868 83.970896 
L 95.953478 90.02775 
L 96.604088 85.434547 
L 97.254698 96.683379 
L 97.905309 118.193609 
L 98.555919 110.894315 
L 99.206529 100.852315 
L 99.85714 121.278877 
L 100.50775 136.651656 
L 101.15836 133.981072 
L 101.808971 141.229728 
L 102.459581 147.032586 
L 103.110191 145.414197 
L 104.411412 182.941676 
L 105.062022 171.434611 
L 105.712633 169.452882 
L 106.363243 194.042327 
L 107.013853 204.149491 
L 107.664463 202.27862 
L 108.315074 211.788723 
L 108.965684 214.049464 
L 109.616294 214.817705 
L 110.266905 237.202897 
L 110.917515 247.850331 
L 111.568125 232.154561 
L 112.218736 236.592824 
L 112.869346 259.522624 
L 113.519956 261.915003 
L 114.170567 259.852677 
L 114.821177 267.366222 
L 115.471787 263.796264 
L 116.122398 266.228891 
L 116.773008 287.206719 
L 117.423618 286.371802 
L 118.074228 267.540831 
L 118.724839 276.0289 
L 119.375449 292.409692 
L 120.026059 286.490427 
L 120.67667 283.443187 
L 121.32728 285.587724 
L 121.97789 275.932164 
L 122.628501 279.760858 
L 123.279111 295.212317 
L 123.929721 282.091302 
L 124.580332 262.542931 
L 125.230942 272.928904 
L 125.881552 280.133883 
L 126.532163 267.583097 
L 127.833383 258.896713 
L 128.483993 245.304021 
L 129.134604 250.952647 
L 129.785214 258.511484 
L 130.435824 235.432292 
L 131.086435 218.713882 
L 131.737045 229.643354 
L 132.387655 227.853584 
L 133.038266 212.289855 
L 133.688876 207.958011 
L 134.339486 197.578291 
L 134.990097 184.110882 
L 135.640707 192.436144 
L 136.291317 191.810334 
L 136.941927 163.67393 
L 137.592538 153.636267 
L 138.243148 164.590957 
L 138.893758 156.414178 
L 139.544369 142.342647 
L 140.194979 138.985025 
L 140.845589 125.692023 
L 141.4962 117.095416 
L 142.14681 128.724536 
L 142.79742 121.318822 
L 143.448031 94.24127 
L 144.098641 93.857453 
L 144.749251 104.73316 
L 145.399862 94.083204 
L 146.050472 85.459261 
L 146.701082 84.05361 
L 147.351692 71.533288 
L 148.002303 71.666035 
L 148.652913 86.231939 
L 149.303523 74.317857 
L 149.954134 53.920346 
L 151.255354 74.675145 
L 151.905965 65.347116 
L 152.556575 64.256085 
L 153.207185 64.899749 
L 153.857796 56.42318 
L 154.508406 66.890053 
L 155.159016 82.548602 
L 155.809627 68.370852 
L 156.460237 58.279727 
L 157.110847 77.526895 
L 157.761457 86.768679 
L 158.412068 81.226473 
L 159.062678 87.159154 
L 159.713288 88.820716 
L 160.363899 86.286915 
L 161.014509 105.762658 
L 161.665119 119.290086 
L 162.31573 104.476239 
L 162.96634 105.508461 
L 163.61695 129.714997 
L 164.267561 136.17897 
L 164.918171 134.958924 
L 165.568781 144.967536 
L 166.219392 145.791357 
L 166.870002 149.364745 
L 167.520612 173.856849 
L 168.171222 181.404892 
L 168.821833 166.870157 
L 169.472443 177.127217 
L 170.123053 200.847046 
L 171.424274 204.758858 
L 172.074884 214.461829 
L 172.725495 212.552323 
L 173.376105 220.9487 
L 174.026715 244.921616 
L 174.677326 243.227674 
L 175.327936 229.523518 
L 176.629156 263.205054 
L 177.279767 259.771676 
L 177.930377 262.541518 
L 178.580987 267.638072 
L 179.231598 262.018397 
L 179.882208 273.237875 
L 180.532818 291.21557 
L 181.834039 266.704401 
L 182.484649 283.789783 
L 183.13526 292.254551 
L 183.78587 283.615981 
L 184.43648 285.124319 
L 185.087091 282.889602 
L 185.737701 274.222284 
L 186.388311 286.368372 
L 187.038921 294.477364 
L 187.689532 272.667444 
L 188.340142 263.354546 
L 188.990752 278.349055 
L 189.641363 276.451553 
L 190.291973 264.444669 
L 190.942583 263.437261 
L 192.243804 244.390727 
L 192.894414 256.216748 
L 193.545025 253.165474 
L 194.195635 225.790148 
L 194.846245 221.117761 
L 195.496856 232.181796 
L 196.147466 221.911825 
L 196.798076 209.603333 
L 197.448686 206.078868 
L 198.099297 191.205103 
L 198.749907 184.900205 
L 199.400517 195.8786 
L 200.051128 183.088747 
L 200.701738 155.8267 
L 201.352348 157.611629 
L 202.002959 164.559989 
L 202.653569 150.056726 
L 203.304179 140.835419 
L 203.95479 135.816134 
L 204.6054 120.054998 
L 205.25601 120.312625 
L 205.906621 130.259503 
L 207.207841 89.986896 
L 207.858451 99.247241 
L 208.509062 103.021969 
L 209.159672 89.154804 
L 209.810282 85.561545 
L 210.460893 80.448953 
L 211.111503 68.448322 
L 212.412724 85.974111 
L 213.063334 64.850322 
L 213.713944 54.302852 
L 214.364555 70.497232 
L 215.015165 72.335724 
L 215.665775 63.116939 
L 216.316385 65.853493 
L 217.617606 57.061598 
L 218.268216 74.647103 
L 218.918827 80.61872 
L 219.569437 61.272899 
L 220.220047 63.239902 
L 220.870658 83.93327 
L 221.521268 84.629892 
L 222.171878 82.006112 
L 222.822489 89.533982 
L 223.473099 86.604157 
L 224.123709 90.812432 
L 224.77432 114.034155 
L 225.42493 115.727694 
L 226.07554 100.660658 
L 226.72615 113.856318 
L 227.376761 135.050314 
L 228.027371 134.627156 
L 228.677981 138.042982 
L 229.328592 146.981847 
L 229.979202 144.751267 
L 230.629812 156.894127 
L 231.280423 180.727941 
L 231.931033 176.233088 
L 232.581643 166.382845 
L 233.882864 203.969838 
L 234.533474 201.863229 
L 235.834695 214.943089 
L 236.485305 212.597917 
L 237.786526 248.522642 
L 238.437136 236.63398 
L 239.087746 231.728881 
L 239.738357 254.164509 
L 240.388967 263.354546 
L 241.039577 258.97963 
L 241.690188 265.682468 
L 242.340798 265.836096 
L 242.991408 262.967601 
L 243.642019 281.575241 
L 244.292629 290.300662 
L 244.943239 271.385564 
L 245.59385 270.636086 
L 246.24446 289.946097 
L 246.89507 289.369009 
L 247.54568 282.74929 
L 248.196291 286.136568 
L 248.846901 278.833341 
L 249.497511 275.994503 
L 250.148122 292.515506 
L 250.798732 288.855167 
L 251.449342 265.319026 
L 252.099953 268.078378 
L 252.750563 280.820719 
L 253.401173 271.288929 
L 254.051784 263.409824 
L 254.702394 261.761879 
L 255.353004 248.279642 
L 256.003615 247.086025 
L 256.654225 259.197211 
L 257.304835 243.828265 
L 257.955445 219.892672 
L 259.256666 231.084209 
L 259.907276 215.896227 
L 261.208497 202.065175 
L 261.859107 186.062855 
L 262.509718 188.713869 
L 263.160328 195.519798 
L 263.810938 171.981942 
L 264.461549 152.74123 
L 265.112159 162.250022 
L 265.762769 160.94252 
L 266.413379 144.875541 
L 267.06399 140.100466 
L 267.7146 130.554756 
L 268.36521 116.964989 
L 269.015821 125.317688 
L 269.666431 127.072354 
L 270.317041 100.672763 
L 270.967652 90.684022 
L 271.618262 103.521991 
L 272.268872 98.439963 
L 272.919483 86.230124 
L 273.570093 85.361415 
L 274.220703 75.375902 
L 274.871314 68.828307 
L 275.521924 83.375953 
L 276.172534 80.854155 
L 276.823144 57.111429 
L 277.473755 58.979072 
L 278.124365 74.259553 
L 279.425586 63.132473 
L 280.076196 66.143701 
L 280.726806 58.131344 
L 281.377417 61.448114 
L 282.028027 80.640912 
L 282.678637 74.512338 
L 283.329248 57.668948 
L 284.630468 86.887708 
L 285.281079 82.168214 
L 285.931689 84.663583 
L 286.582299 89.921834 
L 287.232909 85.346183 
L 287.88352 98.623449 
L 288.53413 118.872477 
L 289.835351 101.475098 
L 290.485961 123.334949 
L 291.136571 136.746778 
L 291.787182 134.002154 
L 292.437792 142.144636 
L 293.088402 146.842342 
L 293.739013 145.966572 
L 294.389623 166.543635 
L 295.040233 183.010067 
L 295.690844 170.177747 
L 296.341454 170.847033 
L 296.992064 195.841378 
L 297.642674 203.953094 
L 298.293285 202.647206 
L 298.943895 212.546271 
L 299.594505 213.692579 
L 300.245116 215.868689 
L 300.895726 239.168588 
L 301.546336 247.136057 
L 302.196947 231.201724 
L 302.847557 238.363025 
L 303.498167 260.672261 
L 304.148778 261.405902 
L 304.799388 260.32859 
L 305.449998 267.626976 
L 306.100608 263.2567 
L 306.751219 267.552331 
L 307.401829 288.473165 
L 308.052439 284.861144 
L 308.70305 266.925311 
L 309.35366 277.757139 
L 310.00427 292.685072 
L 310.654881 285.722489 
L 311.305491 283.786555 
L 311.956101 285.171426 
L 312.606712 275.302824 
L 313.257322 281.124041 
L 313.907932 295.488 
L 315.209153 262.305276 
L 315.859763 274.290272 
L 316.510373 279.546909 
L 317.160984 266.700871 
L 317.811594 263.554676 
L 318.462204 257.849663 
L 319.112815 244.786851 
L 319.763425 252.17582 
L 320.414035 257.750304 
L 321.064646 233.087727 
L 321.715256 218.910583 
L 322.365866 230.476758 
L 323.016477 226.648871 
L 323.667087 211.503457 
L 324.317697 207.688784 
L 325.618918 183.96482 
L 326.269528 193.413996 
L 326.920138 190.211918 
L 327.570749 161.583864 
L 328.221359 154.315437 
L 328.871969 164.906988 
L 329.52258 154.991178 
L 330.17319 141.863102 
L 330.8238 138.471486 
L 331.474411 124.317038 
L 332.125021 117.546011 
L 332.775631 129.409254 
L 333.426242 119.257101 
L 334.076852 92.866386 
L 334.727462 95.011024 
L 335.378073 104.66497 
L 336.028683 92.869715 
L 336.679293 85.419315 
L 337.329903 83.435568 
L 337.980514 70.611016 
L 338.631124 72.807704 
L 339.281734 86.59528 
L 339.932345 72.225975 
L 340.582955 53.568 
L 341.233565 65.686752 
L 341.884176 74.399664 
L 342.534786 64.665827 
L 343.185396 64.646762 
L 343.836007 64.314389 
L 344.486617 56.252302 
L 345.787837 82.547795 
L 346.438448 66.623852 
L 347.089058 59.011855 
L 347.739668 79.190374 
L 348.390279 86.431262 
L 349.040889 81.199944 
L 349.691499 87.812703 
L 350.34211 88.354587 
L 350.99272 86.96195 
L 351.64333 107.772632 
L 352.293941 118.860977 
L 352.944551 103.308243 
L 353.595161 107.121201 
L 354.245772 131.214357 
L 354.896382 135.851439 
L 355.546992 135.484063 
L 356.197602 145.5996 
L 356.848213 145.468063 
L 357.498823 150.755264 
L 358.149433 175.701998 
L 358.800044 180.489581 
L 359.450654 166.348448 
L 360.101264 179.210525 
L 360.751875 201.865348 
L 361.402485 202.564289 
L 362.053095 205.556352 
L 362.703706 214.764041 
L 363.354316 212.35643 
L 364.004926 222.749566 
L 364.655537 246.137223 
L 365.306147 241.82626 
L 365.956757 229.578998 
L 367.257978 263.511704 
L 367.908588 259.430326 
L 369.209809 267.389826 
L 369.860419 261.939515 
L 370.511029 275.066986 
L 371.16164 291.455141 
L 371.81225 277.075547 
L 372.46286 267.195748 
L 373.113471 285.381643 
L 373.764081 291.788523 
L 374.414691 283.231659 
L 375.065302 285.465367 
L 375.715912 282.050045 
L 376.366522 274.292995 
L 377.017132 287.876407 
L 377.667743 293.621063 
L 378.318353 270.753904 
L 378.968963 264.135295 
L 379.619574 279.207576 
L 380.270184 275.357194 
L 380.920794 264.047334 
L 381.571405 263.245604 
L 382.222015 252.418417 
L 382.872625 244.694856 
L 383.523236 257.170492 
L 384.173846 251.3637 
L 384.824456 224.085514 
L 385.475066 222.079373 
L 386.125677 232.267739 
L 387.426897 209.272271 
L 388.077508 205.384668 
L 388.728118 189.881159 
L 389.378728 185.542053 
L 390.029339 196.195237 
L 390.679949 180.724713 
L 391.330559 154.701777 
L 391.98117 158.687125 
L 392.63178 164.042516 
L 393.28239 148.749023 
L 393.933001 140.663937 
L 394.583611 134.808322 
L 395.234221 119.088242 
L 395.884831 121.356246 
L 396.535442 129.987351 
L 397.836662 89.7328 
L 398.487273 100.383966 
L 398.487273 100.383966 
" clip-path="url(#pa874e5d00b)" style="fill: none; stroke: #0000ff; stroke-opacity: 0.5; stroke-width: 1.5; stroke-linecap: square"/>
   </g>
   <g id="line2d_24">
    <path d="M 73.832727 174.502429 
L 76.435169 174.502429 
L 77.085779 170.915222 
L 77.736389 165.133143 
L 78.386999 160.85345 
L 79.03761 157.578543 
L 79.68822 152.886688 
L 81.640051 127.151942 
L 82.941272 120.833931 
L 83.591882 112.748442 
L 84.242492 102.842517 
L 84.893103 98.060987 
L 85.543713 96.938787 
L 86.194323 93.484529 
L 87.495544 79.870251 
L 88.146154 76.275982 
L 88.796764 76.692886 
L 89.447375 76.01311 
L 90.748595 64.753485 
L 91.399206 65.093322 
L 92.049816 67.757249 
L 92.700426 67.39532 
L 93.351037 64.417985 
L 94.001647 62.223012 
L 94.652257 63.98595 
L 95.302868 69.08674 
L 95.953478 71.611867 
L 96.604088 69.541673 
L 97.254698 69.557812 
L 98.555919 81.934392 
L 99.206529 84.967409 
L 99.85714 86.011232 
L 100.50775 88.596982 
L 101.15836 95.411687 
L 101.808971 104.345711 
L 102.459581 109.282786 
L 103.110191 110.496577 
L 103.760802 115.303527 
L 105.062022 133.961704 
L 105.712633 139.018413 
L 106.363243 142.652627 
L 107.013853 148.411606 
L 108.315074 168.566218 
L 108.965684 173.755977 
L 109.616294 176.462774 
L 110.266905 183.763479 
L 110.917515 194.683772 
L 111.568125 203.114545 
L 112.218736 207.722677 
L 112.869346 211.461495 
L 113.519956 217.789391 
L 114.821177 236.176727 
L 115.471787 238.967147 
L 116.122398 240.814515 
L 116.773008 247.716676 
L 117.423618 256.551441 
L 118.074228 261.737872 
L 119.375449 264.73407 
L 120.026059 269.10596 
L 120.67667 276.173046 
L 121.32728 280.151233 
L 121.97789 278.510954 
L 122.628501 277.656368 
L 123.929721 286.210508 
L 124.580332 286.31148 
L 125.230942 283.413632 
L 125.881552 281.040822 
L 126.532163 282.033099 
L 127.182773 284.660308 
L 127.833383 282.815663 
L 128.483993 276.236898 
L 129.134604 272.197079 
L 129.785214 272.706784 
L 130.435824 271.976472 
L 131.086435 266.867108 
L 131.737045 259.613005 
L 132.387655 253.810045 
L 133.038266 251.655321 
L 133.688876 249.941809 
L 134.339486 242.923747 
L 134.990097 232.744056 
L 135.640707 226.668036 
L 136.291317 224.330834 
L 136.941927 219.647855 
L 138.893758 193.963647 
L 139.544369 190.414872 
L 140.194979 186.043386 
L 141.4962 165.173492 
L 142.14681 159.423995 
L 142.79742 156.329547 
L 143.448031 150.182009 
L 144.749251 131.465024 
L 145.399862 125.549491 
L 146.050472 123.108593 
L 146.701082 118.56744 
L 148.002303 100.378015 
L 148.652913 97.583459 
L 149.303523 96.156727 
L 149.954134 91.312757 
L 151.255354 78.050017 
L 151.905965 76.116302 
L 152.556575 76.940224 
L 153.207185 74.444855 
L 153.857796 67.814342 
L 154.508406 64.197075 
L 155.809627 68.077013 
L 156.460237 66.464373 
L 157.110847 63.346422 
L 157.761457 62.299473 
L 158.412068 65.681103 
L 159.062678 70.609906 
L 159.713288 71.166114 
L 160.363899 68.898917 
L 161.014509 71.127077 
L 161.665119 78.014308 
L 162.31573 83.445857 
L 162.96634 85.394097 
L 163.61695 86.578233 
L 164.267561 90.524342 
L 165.568781 106.8087 
L 166.219392 109.799653 
L 166.870002 111.498942 
L 167.520612 118.517508 
L 168.171222 128.707186 
L 168.821833 136.160107 
L 170.123053 144.306422 
L 170.773664 151.524715 
L 171.424274 162.273626 
L 172.074884 171.123321 
L 173.376105 178.377625 
L 175.327936 205.098999 
L 176.629156 213.289294 
L 177.279767 221.066417 
L 177.930377 231.252665 
L 178.580987 237.79209 
L 179.231598 239.287516 
L 179.882208 242.68004 
L 181.183429 258.96339 
L 181.834039 262.579043 
L 182.484649 263.690954 
L 183.13526 265.84931 
L 183.78587 271.562998 
L 184.43648 278.294584 
L 185.087091 280.011021 
L 185.737701 277.689252 
L 186.388311 278.684454 
L 187.038921 283.732791 
L 187.689532 286.77539 
L 188.340142 285.43803 
L 188.990752 282.310194 
L 189.641363 280.953971 
L 190.291973 283.092758 
L 190.942583 284.760776 
L 191.593194 280.667394 
L 192.243804 274.148143 
L 192.894414 272.088339 
L 193.545025 272.897937 
L 194.195635 270.596544 
L 196.147466 252.63287 
L 196.798076 251.343223 
L 197.448686 248.15446 
L 198.749907 229.863659 
L 199.400517 225.716411 
L 200.051128 223.149523 
L 200.701738 216.882452 
L 202.002959 198.178378 
L 202.653569 192.363516 
L 203.304179 189.308106 
L 203.95479 183.107207 
L 205.25601 162.423723 
L 206.557231 154.612102 
L 207.207841 147.027542 
L 208.509062 128.815522 
L 209.159672 124.470666 
L 209.810282 122.060634 
L 210.460893 115.525244 
L 211.111503 105.30702 
L 211.762113 98.779397 
L 212.412724 97.278221 
L 213.063334 94.859817 
L 213.713944 88.817993 
L 214.364555 81.603432 
L 215.015165 76.806367 
L 215.665775 76.379881 
L 216.316385 76.696921 
L 216.966996 72.236264 
L 217.617606 65.799325 
L 218.268216 64.465395 
L 218.918827 67.17895 
L 219.569437 67.876177 
L 220.870658 62.548425 
L 221.521268 63.00719 
L 222.822489 71.474782 
L 224.123709 68.932911 
L 224.77432 73.374805 
L 225.42493 80.393574 
L 226.07554 84.457199 
L 226.72615 85.719107 
L 227.376761 87.515535 
L 228.027371 93.069038 
L 228.677981 102.003969 
L 229.328592 108.496388 
L 229.979202 110.112154 
L 230.629812 113.304952 
L 231.931033 131.874261 
L 232.581643 137.896213 
L 233.232254 141.570977 
L 233.882864 146.400825 
L 234.533474 155.168915 
L 235.184085 166.036754 
L 235.834695 172.863765 
L 236.485305 175.472111 
L 237.135915 181.117105 
L 238.437136 201.204334 
L 239.087746 206.675425 
L 239.738357 210.291986 
L 240.388967 215.604808 
L 241.690188 234.322802 
L 242.340798 238.644559 
L 242.991408 239.904953 
L 243.642019 245.297061 
L 244.292629 254.288985 
L 244.943239 260.752353 
L 245.59385 263.086227 
L 246.24446 264.163337 
L 246.89507 267.479098 
L 247.54568 274.204732 
L 248.196291 279.681169 
L 248.846901 279.263257 
L 249.497511 277.38482 
L 250.148122 280.31989 
L 250.798732 285.33383 
L 251.449342 286.720213 
L 252.099953 284.329045 
L 252.750563 281.446831 
L 253.401173 281.386611 
L 254.051784 284.118121 
L 254.702394 284.005952 
L 256.003615 272.748142 
L 256.654225 272.400033 
L 257.304835 272.616302 
L 257.955445 268.66404 
L 259.256666 255.096566 
L 259.907276 251.950573 
L 260.557887 250.777937 
L 261.208497 245.502033 
L 261.859107 235.436832 
L 262.509718 227.775812 
L 263.160328 224.98166 
L 263.810938 221.415232 
L 264.461549 213.679365 
L 265.762769 195.589904 
L 266.413379 191.191687 
L 267.06399 187.749937 
L 267.7146 179.407729 
L 268.36521 167.872118 
L 269.015821 160.485974 
L 269.666431 157.331608 
L 270.317041 152.330883 
L 272.268872 126.74442 
L 273.570093 120.400182 
L 274.871314 102.221247 
L 275.521924 97.921279 
L 276.172534 96.804325 
L 276.823144 93.037667 
L 278.124365 79.421774 
L 278.774975 76.192965 
L 279.425586 76.773483 
L 280.076196 75.730265 
L 281.377417 64.552346 
L 282.028027 65.315341 
L 282.678637 67.872545 
L 283.329248 67.214558 
L 283.979858 64.164998 
L 284.630468 62.188514 
L 285.281079 64.326191 
L 285.931689 69.469549 
L 286.582299 71.567685 
L 287.232909 69.357077 
L 287.88352 69.835412 
L 289.18474 82.316394 
L 289.835351 85.07968 
L 290.485961 86.113718 
L 291.136571 88.971217 
L 291.787182 96.124347 
L 292.437792 104.953565 
L 293.088402 109.436313 
L 293.739013 110.660192 
L 294.389623 115.961918 
L 295.690844 134.495821 
L 296.341454 139.314472 
L 296.992064 142.989741 
L 297.642674 149.052344 
L 298.943895 169.205947 
L 299.594505 173.959839 
L 300.245116 176.819961 
L 300.895726 184.585283 
L 301.546336 195.511728 
L 302.196947 203.598226 
L 303.498167 211.831694 
L 304.148778 218.474715 
L 304.799388 228.484437 
L 305.449998 236.610174 
L 306.751219 241.159497 
L 307.401829 248.445879 
L 308.052439 257.139424 
L 308.70305 261.961908 
L 310.00427 264.94116 
L 310.654881 269.621819 
L 311.305491 276.694251 
L 311.956101 280.18795 
L 312.606712 278.301746 
L 313.257322 277.821293 
L 314.558543 286.391774 
L 315.209153 286.146454 
L 315.859763 283.156308 
L 316.510373 280.97697 
L 317.160984 282.25421 
L 317.811594 284.748571 
L 318.462204 282.389883 
L 319.112815 275.725376 
L 319.763425 272.120719 
L 320.414035 272.778101 
L 321.064646 271.722779 
L 321.715256 266.318566 
L 322.365866 259.048627 
L 323.016477 253.50168 
L 324.317697 249.618616 
L 324.968308 242.125547 
L 325.618918 232.040273 
L 326.269528 226.419488 
L 326.920138 224.108714 
L 327.570749 219.078434 
L 329.52258 193.562379 
L 330.17319 190.190029 
L 330.8238 185.463675 
L 332.125021 164.489479 
L 332.775631 159.169797 
L 333.426242 155.993946 
L 334.076852 149.515044 
L 335.378073 130.830842 
L 336.028683 125.269975 
L 336.679293 122.91391 
L 337.329903 117.954441 
L 338.631124 99.949107 
L 339.281734 97.513555 
L 339.932345 95.91524 
L 340.582955 90.780658 
L 341.233565 83.531397 
L 341.884176 77.720468 
L 342.534786 76.146967 
L 343.185396 76.939215 
L 343.836007 74.000413 
L 344.486617 67.313916 
L 345.137227 64.191426 
L 345.787837 66.399412 
L 346.438448 68.07671 
L 347.089058 66.223995 
L 347.739668 63.139433 
L 348.390279 62.401051 
L 349.040889 66.102747 
L 349.691499 70.866222 
L 350.34211 70.994027 
L 350.99272 68.837889 
L 351.64333 71.577873 
L 352.293941 78.573845 
L 352.944551 83.710949 
L 353.595161 85.469045 
L 354.245772 86.748807 
L 354.896382 91.038083 
L 356.197602 107.253344 
L 356.848213 109.871474 
L 357.498823 111.825666 
L 358.149433 119.305217 
L 358.800044 129.454243 
L 359.450654 136.581348 
L 360.751875 144.728772 
L 361.402485 152.29346 
L 362.053095 163.145361 
L 362.703706 171.578051 
L 363.354316 174.765503 
L 364.004926 178.915172 
L 365.306147 198.936128 
L 365.956757 205.479185 
L 366.607367 209.259864 
L 367.257978 213.757944 
L 367.908588 221.854328 
L 368.559198 231.991552 
L 369.209809 238.039731 
L 369.860419 239.384757 
L 370.511029 243.201649 
L 371.81225 259.414892 
L 372.46286 262.714715 
L 373.113471 263.777905 
L 373.764081 266.165241 
L 375.065302 278.674367 
L 375.715912 279.885233 
L 376.366522 277.565885 
L 377.017132 279.004521 
L 377.667743 284.125788 
L 378.318353 286.814226 
L 378.968963 285.205924 
L 379.619574 282.091806 
L 380.270184 281.006122 
L 380.920794 283.336162 
L 381.571405 284.670698 
L 382.222015 280.126015 
L 382.872625 273.770983 
L 383.523236 272.133126 
L 384.173846 272.88331 
L 384.824456 270.210709 
L 386.125677 256.677834 
L 386.776287 252.442424 
L 387.426897 251.252337 
L 388.077508 247.638298 
L 389.378728 229.329945 
L 390.029339 225.547349 
L 390.679949 222.815839 
L 391.330559 216.203181 
L 392.63178 197.557713 
L 393.28239 192.073207 
L 393.933001 189.012551 
L 394.583611 182.344312 
L 395.234221 170.957487 
L 395.884831 161.926728 
L 397.186052 154.154647 
L 397.836662 146.280283 
L 398.487273 136.463025 
L 398.487273 136.463025 
" clip-path="url(#pa874e5d00b)" style="fill: none; stroke: #ff0000; stroke-opacity: 0.5; stroke-width: 1.5; stroke-linecap: square"/>
   </g>
   <g id="patch_3">
    <path d="M 57.6 307.584 
L 57.6 41.472 
" style="fill: none; stroke: #000000; stroke-width: 0.8; stroke-linejoin: miter; stroke-linecap: square"/>
   </g>
   <g id="patch_4">
    <path d="M 414.72 307.584 
L 414.72 41.472 
" style="fill: none; stroke: #000000; stroke-width: 0.8; stroke-linejoin: miter; stroke-linecap: square"/>
   </g>
   <g id="patch_5">
    <path d="M 57.6 307.584 
L 414.72 307.584 
" style="fill: none; stroke: #000000; stroke-width: 0.8; stroke-linejoin: miter; stroke-linecap: square"/>
   </g>
   <g id="patch_6">
    <path d="M 57.6 41.472 
L 414.72 41.472 
" style="fill: none; stroke: #000000; stroke-width: 0.8; stroke-linejoin: miter; stroke-linecap: square"/>
   </g>
   <g id="text_15">
    <!-- Input vs Output signals -->
    <g transform="translate(166.51125 35.472) scale(0.12 -0.12)">
     <defs>
      <path id="DejaVuSans-49" d="M 628 4666 
L 1259 4666 
L 1259 0 
L 628 0 
L 628 4666 
z
" transform="scale(0.015625)"/>
      <path id="DejaVuSans-6e" d="M 3513 2113 
L 3513 0 
L 2938 0 
L 2938 2094 
Q 2938 2591 2744 2837 
Q 2550 3084 2163 3084 
Q 1697 3084 1428 2787 
Q 1159 2491 1159 1978 
L 1159 0 
L 581 0 
L 581 3500 
L 1159 3500 
L 1159 2956 
Q 1366 3272 1645 3428 
Q 1925 3584 2291 3584 
Q 2894 3584 3203 3211 
Q 3513 2838 3513 2113 
z
" transform="scale(0.015625)"/>
      <path id="DejaVuSans-20" transform="scale(0.015625)"/>
      <path id="DejaVuSans-76" d="M 191 3500 
L 800 3500 
L 1894 563 
L 2988 3500 
L 3597 3500 
L 2284 0 
L 1503 0 
L 191 3500 
z
" transform="scale(0.015625)"/>
      <path id="DejaVuSans-4f" d="M 2522 4238 
Q 1834 4238 1429 3725 
Q 1025 3213 1025 2328 
Q 1025 1447 1429 934 
Q 1834 422 2522 422 
Q 3209 422 3611 934 
Q 4013 1447 4013 2328 
Q 4013 3213 3611 3725 
Q 3209 4238 2522 4238 
z
M 2522 4750 
Q 3503 4750 4090 4092 
Q 4678 3434 4678 2328 
Q 4678 1225 4090 567 
Q 3503 -91 2522 -91 
Q 1538 -91 948 565 
Q 359 1222 359 2328 
Q 359 3434 948 4092 
Q 1538 4750 2522 4750 
z
" transform="scale(0.015625)"/>
      <path id="DejaVuSans-67" d="M 2906 1791 
Q 2906 2416 2648 2759 
Q 2391 3103 1925 3103 
Q 1463 3103 1205 2759 
Q 947 2416 947 1791 
Q 947 1169 1205 825 
Q 1463 481 1925 481 
Q 2391 481 2648 825 
Q 2906 1169 2906 1791 
z
M 3481 434 
Q 3481 -459 3084 -895 
Q 2688 -1331 1869 -1331 
Q 1566 -1331 1297 -1286 
Q 1028 -1241 775 -1147 
L 775 -588 
Q 1028 -725 1275 -790 
Q 1522 -856 1778 -856 
Q 2344 -856 2625 -561 
Q 2906 -266 2906 331 
L 2906 616 
Q 2728 306 2450 153 
Q 2172 0 1784 0 
Q 1141 0 747 490 
Q 353 981 353 1791 
Q 353 2603 747 3093 
Q 1141 3584 1784 3584 
Q 2172 3584 2450 3431 
Q 2728 3278 2906 2969 
L 2906 3500 
L 3481 3500 
L 3481 434 
z
" transform="scale(0.015625)"/>
     </defs>
     <use xlink:href="#DejaVuSans-49"/>
     <use xlink:href="#DejaVuSans-6e" x="29.492188"/>
     <use xlink:href="#DejaVuSans-70" x="92.871094"/>
     <use xlink:href="#DejaVuSans-75" x="156.347656"/>
     <use xlink:href="#DejaVuSans-74" x="219.726562"/>
     <use xlink:href="#DejaVuSans-20" x="258.935547"/>
     <use xlink:href="#DejaVuSans-76" x="290.722656"/>
     <use xlink:href="#DejaVuSans-73" x="349.902344"/>
     <use xlink:href="#DejaVuSans-20" x="402.001953"/>
     <use xlink:href="#DejaVuSans-4f" x="433.789062"/>
     <use xlink:href="#DejaVuSans-75" x="512.5"/>
     <use xlink:href="#DejaVuSans-74" x="575.878906"/>
     <use xlink:href="#DejaVuSans-70" x="615.087891"/>
     <use xlink:href="#DejaVuSans-75" x="678.564453"/>
     <use xlink:href="#DejaVuSans-74" x="741.943359"/>
     <use xlink:href="#DejaVuSans-20" x="781.152344"/>
     <use xlink:href="#DejaVuSans-73" x="812.939453"/>
     <use xlink:href="#DejaVuSans-69" x="865.039062"/>
     <use xlink:href="#DejaVuSans-67" x="892.822266"/>
     <use xlink:href="#DejaVuSans-6e" x="956.298828"/>
     <use xlink:href="#DejaVuSans-61" x="1019.677734"/>
     <use xlink:href="#DejaVuSans-6c" x="1080.957031"/>
     <use xlink:href="#DejaVuSans-73" x="1108.740234"/>
    </g>
   </g>
   <g id="legend_1">
    <g id="patch_7">
     <path d="M 340.984063 190.706125 
L 407.72 190.706125 
Q 409.72 190.706125 409.72 188.706125 
L 409.72 160.349875 
Q 409.72 158.349875 407.72 158.349875 
L 340.984063 158.349875 
Q 338.984063 158.349875 338.984063 160.349875 
L 338.984063 188.706125 
Q 338.984063 190.706125 340.984063 190.706125 
z
" style="fill: #ffffff; opacity: 0.8; stroke: #cccccc; stroke-linejoin: miter"/>
    </g>
    <g id="line2d_25">
     <path d="M 342.984063 166.448312 
L 352.984063 166.448312 
L 362.984063 166.448312 
" style="fill: none; stroke: #0000ff; stroke-opacity: 0.5; stroke-width: 1.5; stroke-linecap: square"/>
    </g>
    <g id="text_16">
     <!-- Input -->
     <g transform="translate(370.984063 169.948312) scale(0.1 -0.1)">
      <use xlink:href="#DejaVuSans-49"/>
      <use xlink:href="#DejaVuSans-6e" x="29.492188"/>
      <use xlink:href="#DejaVuSans-70" x="92.871094"/>
      <use xlink:href="#DejaVuSans-75" x="156.347656"/>
      <use xlink:href="#DejaVuSans-74" x="219.726562"/>
     </g>
    </g>
    <g id="line2d_26">
     <path d="M 342.984063 181.126437 
L 352.984063 181.126437 
L 362.984063 181.126437 
" style="fill: none; stroke: #ff0000; stroke-opacity: 0.5; stroke-width: 1.5; stroke-linecap: square"/>
    </g>
    <g id="text_17">
     <!-- Output -->
     <g transform="translate(370.984063 184.626437) scale(0.1 -0.1)">
      <use xlink:href="#DejaVuSans-4f"/>
      <use xlink:href="#DejaVuSans-75" x="78.710938"/>
      <use xlink:href="#DejaVuSans-74" x="142.089844"/>
      <use xlink:href="#DejaVuSans-70" x="181.298828"/>
      <use xlink:href="#DejaVuSans-75" x="244.775391"/>
      <use xlink:href="#DejaVuSans-74" x="308.154297"/>
     </g>
    </g>
   </g>
  </g>
 </g>
 <defs>
  <clipPath id="pa874e5d00b">
   <rect x="57.6" y="41.472" width="357.12" height="266.112"/>
  </clipPath>
 </defs>
</svg>
