<?xml version="1.0" encoding="utf-8" standalone="no"?>
<!DOCTYPE svg PUBLIC "-//W3C//DTD SVG 1.1//EN"
  "http://www.w3.org/Graphics/SVG/1.1/DTD/svg11.dtd">
<svg xmlns:xlink="http://www.w3.org/1999/xlink" width="460.8pt" height="345.6pt" viewBox="0 0 460.8 345.6" xmlns="http://www.w3.org/2000/svg" version="1.1">
 <metadata>
  <rdf:RDF xmlns:dc="http://purl.org/dc/elements/1.1/" xmlns:cc="http://creativecommons.org/ns#" xmlns:rdf="http://www.w3.org/1999/02/22-rdf-syntax-ns#">
   <cc:Work>
    <dc:type rdf:resource="http://purl.org/dc/dcmitype/StillImage"/>
    <dc:date>2025-08-29T14:53:59.808733</dc:date>
    <dc:format>image/svg+xml</dc:format>
    <dc:creator>
     <cc:Agent>
      <dc:title>Matplotlib v3.9.2, https://matplotlib.org/</dc:title>
     </cc:Agent>
    </dc:creator>
   </cc:Work>
  </rdf:RDF>
 </metadata>
 <defs>
  <style type="text/css">*{stroke-linejoin: round; stroke-linecap: butt}</style>
 </defs>
 <g id="figure_1">
  <g id="patch_1">
   <path d="M 0 345.6 
L 460.8 345.6 
L 460.8 0 
L 0 0 
z
" style="fill: #ffffff"/>
  </g>
  <g id="axes_1">
   <g id="patch_2">
    <path d="M 57.6 307.584 
L 414.72 307.584 
L 414.72 41.472 
L 57.6 41.472 
z
" style="fill: #ffffff"/>
   </g>
   <g id="matplotlib.axis_1">
    <g id="xtick_1">
     <g id="line2d_1">
      <path d="M 73.832727 307.584 
L 73.832727 41.472 
" clip-path="url(#p6a457db0f7)" style="fill: none; stroke: #b0b0b0; stroke-width: 0.8; stroke-linecap: square"/>
     </g>
     <g id="line2d_2">
      <defs>
       <path id="m0d3e29617e" d="M 0 0 
L 0 3.5 
" style="stroke: #000000; stroke-width: 0.8"/>
      </defs>
      <g>
       <use xlink:href="#m0d3e29617e" x="73.832727" y="307.584" style="stroke: #000000; stroke-width: 0.8"/>
      </g>
     </g>
     <g id="text_1">
      <!-- 0 -->
      <g transform="translate(70.651477 322.182437) scale(0.1 -0.1)">
       <defs>
        <path id="DejaVuSans-30" d="M 2034 4250 
Q 1547 4250 1301 3770 
Q 1056 3291 1056 2328 
Q 1056 1369 1301 889 
Q 1547 409 2034 409 
Q 2525 409 2770 889 
Q 3016 1369 3016 2328 
Q 3016 3291 2770 3770 
Q 2525 4250 2034 4250 
z
M 2034 4750 
Q 2819 4750 3233 4129 
Q 3647 3509 3647 2328 
Q 3647 1150 3233 529 
Q 2819 -91 2034 -91 
Q 1250 -91 836 529 
Q 422 1150 422 2328 
Q 422 3509 836 4129 
Q 1250 4750 2034 4750 
z
" transform="scale(0.015625)"/>
       </defs>
       <use xlink:href="#DejaVuSans-30"/>
      </g>
     </g>
    </g>
    <g id="xtick_2">
     <g id="line2d_3">
      <path d="M 138.893758 307.584 
L 138.893758 41.472 
" clip-path="url(#p6a457db0f7)" style="fill: none; stroke: #b0b0b0; stroke-width: 0.8; stroke-linecap: square"/>
     </g>
     <g id="line2d_4">
      <g>
       <use xlink:href="#m0d3e29617e" x="138.893758" y="307.584" style="stroke: #000000; stroke-width: 0.8"/>
      </g>
     </g>
     <g id="text_2">
      <!-- 100 -->
      <g transform="translate(129.350008 322.182437) scale(0.1 -0.1)">
       <defs>
        <path id="DejaVuSans-31" d="M 794 531 
L 1825 531 
L 1825 4091 
L 703 3866 
L 703 4441 
L 1819 4666 
L 2450 4666 
L 2450 531 
L 3481 531 
L 3481 0 
L 794 0 
L 794 531 
z
" transform="scale(0.015625)"/>
       </defs>
       <use xlink:href="#DejaVuSans-31"/>
       <use xlink:href="#DejaVuSans-30" x="63.623047"/>
       <use xlink:href="#DejaVuSans-30" x="127.246094"/>
      </g>
     </g>
    </g>
    <g id="xtick_3">
     <g id="line2d_5">
      <path d="M 203.95479 307.584 
L 203.95479 41.472 
" clip-path="url(#p6a457db0f7)" style="fill: none; stroke: #b0b0b0; stroke-width: 0.8; stroke-linecap: square"/>
     </g>
     <g id="line2d_6">
      <g>
       <use xlink:href="#m0d3e29617e" x="203.95479" y="307.584" style="stroke: #000000; stroke-width: 0.8"/>
      </g>
     </g>
     <g id="text_3">
      <!-- 200 -->
      <g transform="translate(194.41104 322.182437) scale(0.1 -0.1)">
       <defs>
        <path id="DejaVuSans-32" d="M 1228 531 
L 3431 531 
L 3431 0 
L 469 0 
L 469 531 
Q 828 903 1448 1529 
Q 2069 2156 2228 2338 
Q 2531 2678 2651 2914 
Q 2772 3150 2772 3378 
Q 2772 3750 2511 3984 
Q 2250 4219 1831 4219 
Q 1534 4219 1204 4116 
Q 875 4013 500 3803 
L 500 4441 
Q 881 4594 1212 4672 
Q 1544 4750 1819 4750 
Q 2544 4750 2975 4387 
Q 3406 4025 3406 3419 
Q 3406 3131 3298 2873 
Q 3191 2616 2906 2266 
Q 2828 2175 2409 1742 
Q 1991 1309 1228 531 
z
" transform="scale(0.015625)"/>
       </defs>
       <use xlink:href="#DejaVuSans-32"/>
       <use xlink:href="#DejaVuSans-30" x="63.623047"/>
       <use xlink:href="#DejaVuSans-30" x="127.246094"/>
      </g>
     </g>
    </g>
    <g id="xtick_4">
     <g id="line2d_7">
      <path d="M 269.015821 307.584 
L 269.015821 41.472 
" clip-path="url(#p6a457db0f7)" style="fill: none; stroke: #b0b0b0; stroke-width: 0.8; stroke-linecap: square"/>
     </g>
     <g id="line2d_8">
      <g>
       <use xlink:href="#m0d3e29617e" x="269.015821" y="307.584" style="stroke: #000000; stroke-width: 0.8"/>
      </g>
     </g>
     <g id="text_4">
      <!-- 300 -->
      <g transform="translate(259.472071 322.182437) scale(0.1 -0.1)">
       <defs>
        <path id="DejaVuSans-33" d="M 2597 2516 
Q 3050 2419 3304 2112 
Q 3559 1806 3559 1356 
Q 3559 666 3084 287 
Q 2609 -91 1734 -91 
Q 1441 -91 1130 -33 
Q 819 25 488 141 
L 488 750 
Q 750 597 1062 519 
Q 1375 441 1716 441 
Q 2309 441 2620 675 
Q 2931 909 2931 1356 
Q 2931 1769 2642 2001 
Q 2353 2234 1838 2234 
L 1294 2234 
L 1294 2753 
L 1863 2753 
Q 2328 2753 2575 2939 
Q 2822 3125 2822 3475 
Q 2822 3834 2567 4026 
Q 2313 4219 1838 4219 
Q 1578 4219 1281 4162 
Q 984 4106 628 3988 
L 628 4550 
Q 988 4650 1302 4700 
Q 1616 4750 1894 4750 
Q 2613 4750 3031 4423 
Q 3450 4097 3450 3541 
Q 3450 3153 3228 2886 
Q 3006 2619 2597 2516 
z
" transform="scale(0.015625)"/>
       </defs>
       <use xlink:href="#DejaVuSans-33"/>
       <use xlink:href="#DejaVuSans-30" x="63.623047"/>
       <use xlink:href="#DejaVuSans-30" x="127.246094"/>
      </g>
     </g>
    </g>
    <g id="xtick_5">
     <g id="line2d_9">
      <path d="M 334.076852 307.584 
L 334.076852 41.472 
" clip-path="url(#p6a457db0f7)" style="fill: none; stroke: #b0b0b0; stroke-width: 0.8; stroke-linecap: square"/>
     </g>
     <g id="line2d_10">
      <g>
       <use xlink:href="#m0d3e29617e" x="334.076852" y="307.584" style="stroke: #000000; stroke-width: 0.8"/>
      </g>
     </g>
     <g id="text_5">
      <!-- 400 -->
      <g transform="translate(324.533102 322.182437) scale(0.1 -0.1)">
       <defs>
        <path id="DejaVuSans-34" d="M 2419 4116 
L 825 1625 
L 2419 1625 
L 2419 4116 
z
M 2253 4666 
L 3047 4666 
L 3047 1625 
L 3713 1625 
L 3713 1100 
L 3047 1100 
L 3047 0 
L 2419 0 
L 2419 1100 
L 313 1100 
L 313 1709 
L 2253 4666 
z
" transform="scale(0.015625)"/>
       </defs>
       <use xlink:href="#DejaVuSans-34"/>
       <use xlink:href="#DejaVuSans-30" x="63.623047"/>
       <use xlink:href="#DejaVuSans-30" x="127.246094"/>
      </g>
     </g>
    </g>
    <g id="xtick_6">
     <g id="line2d_11">
      <path d="M 399.137883 307.584 
L 399.137883 41.472 
" clip-path="url(#p6a457db0f7)" style="fill: none; stroke: #b0b0b0; stroke-width: 0.8; stroke-linecap: square"/>
     </g>
     <g id="line2d_12">
      <g>
       <use xlink:href="#m0d3e29617e" x="399.137883" y="307.584" style="stroke: #000000; stroke-width: 0.8"/>
      </g>
     </g>
     <g id="text_6">
      <!-- 500 -->
      <g transform="translate(389.594133 322.182437) scale(0.1 -0.1)">
       <defs>
        <path id="DejaVuSans-35" d="M 691 4666 
L 3169 4666 
L 3169 4134 
L 1269 4134 
L 1269 2991 
Q 1406 3038 1543 3061 
Q 1681 3084 1819 3084 
Q 2600 3084 3056 2656 
Q 3513 2228 3513 1497 
Q 3513 744 3044 326 
Q 2575 -91 1722 -91 
Q 1428 -91 1123 -41 
Q 819 9 494 109 
L 494 744 
Q 775 591 1075 516 
Q 1375 441 1709 441 
Q 2250 441 2565 725 
Q 2881 1009 2881 1497 
Q 2881 1984 2565 2268 
Q 2250 2553 1709 2553 
Q 1456 2553 1204 2497 
Q 953 2441 691 2322 
L 691 4666 
z
" transform="scale(0.015625)"/>
       </defs>
       <use xlink:href="#DejaVuSans-35"/>
       <use xlink:href="#DejaVuSans-30" x="63.623047"/>
       <use xlink:href="#DejaVuSans-30" x="127.246094"/>
      </g>
     </g>
    </g>
    <g id="text_7">
     <!-- Samples -->
     <g transform="translate(214.806875 335.860562) scale(0.1 -0.1)">
      <defs>
       <path id="DejaVuSans-53" d="M 3425 4513 
L 3425 3897 
Q 3066 4069 2747 4153 
Q 2428 4238 2131 4238 
Q 1616 4238 1336 4038 
Q 1056 3838 1056 3469 
Q 1056 3159 1242 3001 
Q 1428 2844 1947 2747 
L 2328 2669 
Q 3034 2534 3370 2195 
Q 3706 1856 3706 1288 
Q 3706 609 3251 259 
Q 2797 -91 1919 -91 
Q 1588 -91 1214 -16 
Q 841 59 441 206 
L 441 856 
Q 825 641 1194 531 
Q 1563 422 1919 422 
Q 2459 422 2753 634 
Q 3047 847 3047 1241 
Q 3047 1584 2836 1778 
Q 2625 1972 2144 2069 
L 1759 2144 
Q 1053 2284 737 2584 
Q 422 2884 422 3419 
Q 422 4038 858 4394 
Q 1294 4750 2059 4750 
Q 2388 4750 2728 4690 
Q 3069 4631 3425 4513 
z
" transform="scale(0.015625)"/>
       <path id="DejaVuSans-61" d="M 2194 1759 
Q 1497 1759 1228 1600 
Q 959 1441 959 1056 
Q 959 750 1161 570 
Q 1363 391 1709 391 
Q 2188 391 2477 730 
Q 2766 1069 2766 1631 
L 2766 1759 
L 2194 1759 
z
M 3341 1997 
L 3341 0 
L 2766 0 
L 2766 531 
Q 2569 213 2275 61 
Q 1981 -91 1556 -91 
Q 1019 -91 701 211 
Q 384 513 384 1019 
Q 384 1609 779 1909 
Q 1175 2209 1959 2209 
L 2766 2209 
L 2766 2266 
Q 2766 2663 2505 2880 
Q 2244 3097 1772 3097 
Q 1472 3097 1187 3025 
Q 903 2953 641 2809 
L 641 3341 
Q 956 3463 1253 3523 
Q 1550 3584 1831 3584 
Q 2591 3584 2966 3190 
Q 3341 2797 3341 1997 
z
" transform="scale(0.015625)"/>
       <path id="DejaVuSans-6d" d="M 3328 2828 
Q 3544 3216 3844 3400 
Q 4144 3584 4550 3584 
Q 5097 3584 5394 3201 
Q 5691 2819 5691 2113 
L 5691 0 
L 5113 0 
L 5113 2094 
Q 5113 2597 4934 2840 
Q 4756 3084 4391 3084 
Q 3944 3084 3684 2787 
Q 3425 2491 3425 1978 
L 3425 0 
L 2847 0 
L 2847 2094 
Q 2847 2600 2669 2842 
Q 2491 3084 2119 3084 
Q 1678 3084 1418 2786 
Q 1159 2488 1159 1978 
L 1159 0 
L 581 0 
L 581 3500 
L 1159 3500 
L 1159 2956 
Q 1356 3278 1631 3431 
Q 1906 3584 2284 3584 
Q 2666 3584 2933 3390 
Q 3200 3197 3328 2828 
z
" transform="scale(0.015625)"/>
       <path id="DejaVuSans-70" d="M 1159 525 
L 1159 -1331 
L 581 -1331 
L 581 3500 
L 1159 3500 
L 1159 2969 
Q 1341 3281 1617 3432 
Q 1894 3584 2278 3584 
Q 2916 3584 3314 3078 
Q 3713 2572 3713 1747 
Q 3713 922 3314 415 
Q 2916 -91 2278 -91 
Q 1894 -91 1617 61 
Q 1341 213 1159 525 
z
M 3116 1747 
Q 3116 2381 2855 2742 
Q 2594 3103 2138 3103 
Q 1681 3103 1420 2742 
Q 1159 2381 1159 1747 
Q 1159 1113 1420 752 
Q 1681 391 2138 391 
Q 2594 391 2855 752 
Q 3116 1113 3116 1747 
z
" transform="scale(0.015625)"/>
       <path id="DejaVuSans-6c" d="M 603 4863 
L 1178 4863 
L 1178 0 
L 603 0 
L 603 4863 
z
" transform="scale(0.015625)"/>
       <path id="DejaVuSans-65" d="M 3597 1894 
L 3597 1613 
L 953 1613 
Q 991 1019 1311 708 
Q 1631 397 2203 397 
Q 2534 397 2845 478 
Q 3156 559 3463 722 
L 3463 178 
Q 3153 47 2828 -22 
Q 2503 -91 2169 -91 
Q 1331 -91 842 396 
Q 353 884 353 1716 
Q 353 2575 817 3079 
Q 1281 3584 2069 3584 
Q 2775 3584 3186 3129 
Q 3597 2675 3597 1894 
z
M 3022 2063 
Q 3016 2534 2758 2815 
Q 2500 3097 2075 3097 
Q 1594 3097 1305 2825 
Q 1016 2553 972 2059 
L 3022 2063 
z
" transform="scale(0.015625)"/>
       <path id="DejaVuSans-73" d="M 2834 3397 
L 2834 2853 
Q 2591 2978 2328 3040 
Q 2066 3103 1784 3103 
Q 1356 3103 1142 2972 
Q 928 2841 928 2578 
Q 928 2378 1081 2264 
Q 1234 2150 1697 2047 
L 1894 2003 
Q 2506 1872 2764 1633 
Q 3022 1394 3022 966 
Q 3022 478 2636 193 
Q 2250 -91 1575 -91 
Q 1294 -91 989 -36 
Q 684 19 347 128 
L 347 722 
Q 666 556 975 473 
Q 1284 391 1588 391 
Q 1994 391 2212 530 
Q 2431 669 2431 922 
Q 2431 1156 2273 1281 
Q 2116 1406 1581 1522 
L 1381 1569 
Q 847 1681 609 1914 
Q 372 2147 372 2553 
Q 372 3047 722 3315 
Q 1072 3584 1716 3584 
Q 2034 3584 2315 3537 
Q 2597 3491 2834 3397 
z
" transform="scale(0.015625)"/>
      </defs>
      <use xlink:href="#DejaVuSans-53"/>
      <use xlink:href="#DejaVuSans-61" x="63.476562"/>
      <use xlink:href="#DejaVuSans-6d" x="124.755859"/>
      <use xlink:href="#DejaVuSans-70" x="222.167969"/>
      <use xlink:href="#DejaVuSans-6c" x="285.644531"/>
      <use xlink:href="#DejaVuSans-65" x="313.427734"/>
      <use xlink:href="#DejaVuSans-73" x="374.951172"/>
     </g>
    </g>
   </g>
   <g id="matplotlib.axis_2">
    <g id="ytick_1">
     <g id="line2d_13">
      <path d="M 57.6 283.167342 
L 414.72 283.167342 
" clip-path="url(#p6a457db0f7)" style="fill: none; stroke: #b0b0b0; stroke-width: 0.8; stroke-linecap: square"/>
     </g>
     <g id="line2d_14">
      <defs>
       <path id="m5f4dac89d6" d="M 0 0 
L -3.5 0 
" style="stroke: #000000; stroke-width: 0.8"/>
      </defs>
      <g>
       <use xlink:href="#m5f4dac89d6" x="57.6" y="283.167342" style="stroke: #000000; stroke-width: 0.8"/>
      </g>
     </g>
     <g id="text_8">
      <!-- −1.0 -->
      <g transform="translate(26.317187 286.96656) scale(0.1 -0.1)">
       <defs>
        <path id="DejaVuSans-2212" d="M 678 2272 
L 4684 2272 
L 4684 1741 
L 678 1741 
L 678 2272 
z
" transform="scale(0.015625)"/>
        <path id="DejaVuSans-2e" d="M 684 794 
L 1344 794 
L 1344 0 
L 684 0 
L 684 794 
z
" transform="scale(0.015625)"/>
       </defs>
       <use xlink:href="#DejaVuSans-2212"/>
       <use xlink:href="#DejaVuSans-31" x="83.789062"/>
       <use xlink:href="#DejaVuSans-2e" x="147.412109"/>
       <use xlink:href="#DejaVuSans-30" x="179.199219"/>
      </g>
     </g>
    </g>
    <g id="ytick_2">
     <g id="line2d_15">
      <path d="M 57.6 228.848241 
L 414.72 228.848241 
" clip-path="url(#p6a457db0f7)" style="fill: none; stroke: #b0b0b0; stroke-width: 0.8; stroke-linecap: square"/>
     </g>
     <g id="line2d_16">
      <g>
       <use xlink:href="#m5f4dac89d6" x="57.6" y="228.848241" style="stroke: #000000; stroke-width: 0.8"/>
      </g>
     </g>
     <g id="text_9">
      <!-- −0.5 -->
      <g transform="translate(26.317187 232.64746) scale(0.1 -0.1)">
       <use xlink:href="#DejaVuSans-2212"/>
       <use xlink:href="#DejaVuSans-30" x="83.789062"/>
       <use xlink:href="#DejaVuSans-2e" x="147.412109"/>
       <use xlink:href="#DejaVuSans-35" x="179.199219"/>
      </g>
     </g>
    </g>
    <g id="ytick_3">
     <g id="line2d_17">
      <path d="M 57.6 174.529141 
L 414.72 174.529141 
" clip-path="url(#p6a457db0f7)" style="fill: none; stroke: #b0b0b0; stroke-width: 0.8; stroke-linecap: square"/>
     </g>
     <g id="line2d_18">
      <g>
       <use xlink:href="#m5f4dac89d6" x="57.6" y="174.529141" style="stroke: #000000; stroke-width: 0.8"/>
      </g>
     </g>
     <g id="text_10">
      <!-- 0.0 -->
      <g transform="translate(34.696875 178.328359) scale(0.1 -0.1)">
       <use xlink:href="#DejaVuSans-30"/>
       <use xlink:href="#DejaVuSans-2e" x="63.623047"/>
       <use xlink:href="#DejaVuSans-30" x="95.410156"/>
      </g>
     </g>
    </g>
    <g id="ytick_4">
     <g id="line2d_19">
      <path d="M 57.6 120.21004 
L 414.72 120.21004 
" clip-path="url(#p6a457db0f7)" style="fill: none; stroke: #b0b0b0; stroke-width: 0.8; stroke-linecap: square"/>
     </g>
     <g id="line2d_20">
      <g>
       <use xlink:href="#m5f4dac89d6" x="57.6" y="120.21004" style="stroke: #000000; stroke-width: 0.8"/>
      </g>
     </g>
     <g id="text_11">
      <!-- 0.5 -->
      <g transform="translate(34.696875 124.009259) scale(0.1 -0.1)">
       <use xlink:href="#DejaVuSans-30"/>
       <use xlink:href="#DejaVuSans-2e" x="63.623047"/>
       <use xlink:href="#DejaVuSans-35" x="95.410156"/>
      </g>
     </g>
    </g>
    <g id="ytick_5">
     <g id="line2d_21">
      <path d="M 57.6 65.89094 
L 414.72 65.89094 
" clip-path="url(#p6a457db0f7)" style="fill: none; stroke: #b0b0b0; stroke-width: 0.8; stroke-linecap: square"/>
     </g>
     <g id="line2d_22">
      <g>
       <use xlink:href="#m5f4dac89d6" x="57.6" y="65.89094" style="stroke: #000000; stroke-width: 0.8"/>
      </g>
     </g>
     <g id="text_12">
      <!-- 1.0 -->
      <g transform="translate(34.696875 69.690159) scale(0.1 -0.1)">
       <use xlink:href="#DejaVuSans-31"/>
       <use xlink:href="#DejaVuSans-2e" x="63.623047"/>
       <use xlink:href="#DejaVuSans-30" x="95.410156"/>
      </g>
     </g>
    </g>
    <g id="text_13">
     <!-- Amplitude -->
     <g transform="translate(20.2375 200.150656) rotate(-90) scale(0.1 -0.1)">
      <defs>
       <path id="DejaVuSans-41" d="M 2188 4044 
L 1331 1722 
L 3047 1722 
L 2188 4044 
z
M 1831 4666 
L 2547 4666 
L 4325 0 
L 3669 0 
L 3244 1197 
L 1141 1197 
L 716 0 
L 50 0 
L 1831 4666 
z
" transform="scale(0.015625)"/>
       <path id="DejaVuSans-69" d="M 603 3500 
L 1178 3500 
L 1178 0 
L 603 0 
L 603 3500 
z
M 603 4863 
L 1178 4863 
L 1178 4134 
L 603 4134 
L 603 4863 
z
" transform="scale(0.015625)"/>
       <path id="DejaVuSans-74" d="M 1172 4494 
L 1172 3500 
L 2356 3500 
L 2356 3053 
L 1172 3053 
L 1172 1153 
Q 1172 725 1289 603 
Q 1406 481 1766 481 
L 2356 481 
L 2356 0 
L 1766 0 
Q 1100 0 847 248 
Q 594 497 594 1153 
L 594 3053 
L 172 3053 
L 172 3500 
L 594 3500 
L 594 4494 
L 1172 4494 
z
" transform="scale(0.015625)"/>
       <path id="DejaVuSans-75" d="M 544 1381 
L 544 3500 
L 1119 3500 
L 1119 1403 
Q 1119 906 1312 657 
Q 1506 409 1894 409 
Q 2359 409 2629 706 
Q 2900 1003 2900 1516 
L 2900 3500 
L 3475 3500 
L 3475 0 
L 2900 0 
L 2900 538 
Q 2691 219 2414 64 
Q 2138 -91 1772 -91 
Q 1169 -91 856 284 
Q 544 659 544 1381 
z
M 1991 3584 
L 1991 3584 
z
" transform="scale(0.015625)"/>
       <path id="DejaVuSans-64" d="M 2906 2969 
L 2906 4863 
L 3481 4863 
L 3481 0 
L 2906 0 
L 2906 525 
Q 2725 213 2448 61 
Q 2172 -91 1784 -91 
Q 1150 -91 751 415 
Q 353 922 353 1747 
Q 353 2572 751 3078 
Q 1150 3584 1784 3584 
Q 2172 3584 2448 3432 
Q 2725 3281 2906 2969 
z
M 947 1747 
Q 947 1113 1208 752 
Q 1469 391 1925 391 
Q 2381 391 2643 752 
Q 2906 1113 2906 1747 
Q 2906 2381 2643 2742 
Q 2381 3103 1925 3103 
Q 1469 3103 1208 2742 
Q 947 2381 947 1747 
z
" transform="scale(0.015625)"/>
      </defs>
      <use xlink:href="#DejaVuSans-41"/>
      <use xlink:href="#DejaVuSans-6d" x="68.408203"/>
      <use xlink:href="#DejaVuSans-70" x="165.820312"/>
      <use xlink:href="#DejaVuSans-6c" x="229.296875"/>
      <use xlink:href="#DejaVuSans-69" x="257.080078"/>
      <use xlink:href="#DejaVuSans-74" x="284.863281"/>
      <use xlink:href="#DejaVuSans-75" x="324.072266"/>
      <use xlink:href="#DejaVuSans-64" x="387.451172"/>
      <use xlink:href="#DejaVuSans-65" x="450.927734"/>
     </g>
    </g>
    <g id="text_14">
     <!-- 1e6 -->
     <g transform="translate(57.6 38.472) scale(0.1 -0.1)">
      <defs>
       <path id="DejaVuSans-36" d="M 2113 2584 
Q 1688 2584 1439 2293 
Q 1191 2003 1191 1497 
Q 1191 994 1439 701 
Q 1688 409 2113 409 
Q 2538 409 2786 701 
Q 3034 994 3034 1497 
Q 3034 2003 2786 2293 
Q 2538 2584 2113 2584 
z
M 3366 4563 
L 3366 3988 
Q 3128 4100 2886 4159 
Q 2644 4219 2406 4219 
Q 1781 4219 1451 3797 
Q 1122 3375 1075 2522 
Q 1259 2794 1537 2939 
Q 1816 3084 2150 3084 
Q 2853 3084 3261 2657 
Q 3669 2231 3669 1497 
Q 3669 778 3244 343 
Q 2819 -91 2113 -91 
Q 1303 -91 875 529 
Q 447 1150 447 2328 
Q 447 3434 972 4092 
Q 1497 4750 2381 4750 
Q 2619 4750 2861 4703 
Q 3103 4656 3366 4563 
z
" transform="scale(0.015625)"/>
      </defs>
      <use xlink:href="#DejaVuSans-31"/>
      <use xlink:href="#DejaVuSans-65" x="63.623047"/>
      <use xlink:href="#DejaVuSans-36" x="125.146484"/>
     </g>
    </g>
   </g>
   <g id="line2d_23">
    <path d="M 73.832727 174.529141 
L 76.435169 174.529141 
L 77.085779 170.665749 
L 77.736389 164.438499 
L 78.386999 159.829306 
L 79.03761 156.302258 
L 79.68822 151.249169 
L 81.640051 123.533066 
L 82.941272 116.72862 
L 83.591882 108.020617 
L 84.242492 97.35202 
L 84.893103 92.202352 
L 85.543713 90.993752 
L 86.194323 87.273545 
L 87.495544 72.611082 
L 88.146154 68.740085 
L 88.796764 69.189087 
L 89.447375 68.456974 
L 90.748595 56.330452 
L 91.399206 56.696454 
L 92.049816 59.565481 
L 92.700426 59.175687 
L 93.351037 55.969122 
L 94.001647 53.605154 
L 94.652257 55.503824 
L 95.302868 60.997332 
L 95.953478 63.716872 
L 96.604088 61.48729 
L 97.254698 61.504672 
L 98.555919 74.834145 
L 99.206529 78.100679 
L 99.85714 79.224867 
L 100.50775 82.009698 
L 101.15836 89.349078 
L 101.808971 98.970946 
L 102.459581 104.288134 
L 103.110191 105.595378 
L 103.760802 110.772422 
L 105.062022 130.867122 
L 105.712633 136.313155 
L 106.363243 140.227172 
L 107.013853 146.429544 
L 108.315074 168.135891 
L 108.965684 173.725218 
L 109.616294 176.640415 
L 110.266905 184.503214 
L 110.917515 196.264277 
L 111.568125 205.344149 
L 112.218736 210.307068 
L 112.869346 214.333743 
L 113.519956 221.148835 
L 114.821177 240.95184 
L 115.471787 243.957099 
L 116.122398 245.946699 
L 116.773008 253.380268 
L 117.423618 262.895236 
L 118.074228 268.480978 
L 119.375449 271.707858 
L 120.026059 276.416347 
L 120.67667 284.027539 
L 121.32728 288.312012 
L 121.97789 286.545446 
L 122.628501 285.625064 
L 123.929721 294.8378 
L 124.580332 294.946547 
L 125.230942 291.825589 
L 125.881552 289.270093 
L 126.532163 290.338767 
L 127.182773 293.168248 
L 127.833383 291.181582 
L 128.483993 284.096307 
L 129.134604 279.745456 
L 129.785214 280.294404 
L 130.435824 279.507864 
L 131.086435 274.005122 
L 131.737045 266.192514 
L 132.387655 259.942776 
L 133.038266 257.622155 
L 133.688876 255.776718 
L 134.339486 248.218324 
L 134.990097 237.254882 
L 135.640707 230.71106 
L 136.291317 228.193913 
L 136.941927 223.150385 
L 138.893758 195.488709 
L 139.544369 191.666708 
L 140.194979 186.958655 
L 141.4962 164.481954 
L 142.14681 158.289794 
L 142.79742 154.9571 
L 143.448031 148.336253 
L 144.749251 128.178218 
L 145.399862 121.807239 
L 146.050472 119.178412 
L 146.701082 114.287629 
L 148.002303 94.697771 
L 148.652913 91.688058 
L 149.303523 90.15148 
L 149.954134 84.934565 
L 151.255354 70.650705 
L 151.905965 68.568111 
L 152.556575 69.455468 
L 153.207185 66.767976 
L 153.857796 59.62697 
L 154.508406 55.731204 
L 155.809627 59.909864 
L 156.460237 58.173065 
L 157.110847 54.815058 
L 157.761457 53.687502 
L 158.412068 57.329489 
L 159.062678 62.637769 
L 159.713288 63.2368 
L 160.363899 60.795048 
L 161.014509 63.194757 
L 161.665119 70.612247 
L 162.31573 76.46198 
L 162.96634 78.560218 
L 163.61695 79.835522 
L 164.267561 84.085448 
L 165.568781 101.623565 
L 166.219392 104.844796 
L 166.870002 106.674915 
L 167.520612 114.233853 
L 168.171222 125.208049 
L 168.821833 133.234783 
L 170.123053 142.008295 
L 170.773664 149.782336 
L 171.424274 161.358823 
L 172.074884 170.88987 
L 173.376105 178.702694 
L 175.327936 207.481388 
L 176.629156 216.302267 
L 177.279767 224.678164 
L 177.930377 235.648667 
L 178.580987 242.691573 
L 179.231598 244.302134 
L 179.882208 247.955854 
L 181.183429 265.492884 
L 181.834039 269.386912 
L 182.484649 270.584431 
L 183.13526 272.908962 
L 183.78587 279.062556 
L 184.43648 286.312418 
L 185.087091 288.161005 
L 185.737701 285.66048 
L 186.388311 286.732304 
L 187.038921 292.16932 
L 187.689532 295.446174 
L 188.340142 294.005849 
L 188.990752 290.637196 
L 189.641363 289.176555 
L 190.291973 291.480011 
L 190.942583 293.276452 
L 191.593194 288.867914 
L 192.243804 281.846736 
L 192.894414 279.628344 
L 193.545025 280.500274 
L 194.195635 278.021693 
L 196.147466 258.674968 
L 196.798076 257.286028 
L 197.448686 253.851758 
L 198.749907 234.152719 
L 199.400517 229.686168 
L 200.051128 226.921651 
L 200.701738 220.172069 
L 202.002959 200.027939 
L 202.653569 193.765381 
L 203.304179 190.47473 
L 203.95479 183.796414 
L 205.25601 161.520477 
L 206.557231 153.107426 
L 207.207841 144.938919 
L 208.509062 125.324727 
L 209.159672 120.645354 
L 209.810282 118.04977 
L 210.460893 111.011209 
L 211.111503 100.006268 
L 211.762113 92.976073 
L 212.412724 91.359319 
L 213.063334 88.754718 
L 213.713944 82.247725 
L 214.364555 74.477703 
L 215.015165 69.311305 
L 215.665775 68.851983 
L 216.316385 69.193432 
L 216.966996 64.389343 
L 217.617606 57.456813 
L 218.268216 56.020181 
L 218.918827 58.942658 
L 219.569437 59.693565 
L 220.870658 53.955621 
L 221.521268 54.449708 
L 222.822489 63.569233 
L 224.123709 60.831659 
L 224.77432 65.615542 
L 225.42493 73.174697 
L 226.07554 77.551187 
L 226.72615 78.91025 
L 227.376761 80.844988 
L 228.027371 86.826064 
L 228.677981 96.44891 
L 229.328592 103.441191 
L 229.979202 105.181357 
L 230.629812 108.619974 
L 231.931033 128.618963 
L 232.581643 135.104555 
L 233.232254 139.062245 
L 233.882864 144.26395 
L 234.533474 153.707109 
L 235.184085 165.41168 
L 235.834695 172.764313 
L 236.485305 175.57348 
L 237.135915 181.653091 
L 238.437136 203.286868 
L 239.087746 209.179186 
L 239.738357 213.074192 
L 240.388967 218.796057 
L 241.690188 238.955179 
L 242.340798 243.609674 
L 242.991408 244.967108 
L 243.642019 250.774363 
L 244.292629 260.45859 
L 244.943239 267.419583 
L 245.59385 269.933145 
L 246.24446 271.093183 
L 246.89507 274.66423 
L 247.54568 281.907682 
L 248.196291 287.805758 
L 248.846901 287.35567 
L 249.497511 285.33261 
L 250.148122 288.493655 
L 250.798732 293.893626 
L 251.449342 295.386749 
L 252.099953 292.811481 
L 252.750563 289.707361 
L 253.401173 289.642504 
L 254.051784 292.584318 
L 254.702394 292.463512 
L 256.003615 280.338946 
L 256.654225 279.964036 
L 257.304835 280.196956 
L 257.955445 275.940403 
L 259.256666 261.328347 
L 259.907276 257.940139 
L 260.557887 256.67722 
L 261.208497 250.995116 
L 261.859107 240.154979 
L 262.509718 231.904125 
L 263.160328 228.894847 
L 263.810938 225.053835 
L 264.461549 216.722371 
L 265.762769 197.240174 
L 266.413379 192.503331 
L 267.06399 188.796596 
L 267.7146 179.812108 
L 268.36521 167.388352 
L 269.015821 159.433537 
L 269.666431 156.036312 
L 270.317041 150.650573 
L 272.268872 123.094167 
L 273.570093 116.261476 
L 274.871314 96.682917 
L 275.521924 92.051888 
L 276.172534 90.848937 
L 276.823144 86.792278 
L 278.124365 72.128076 
L 278.774975 68.650676 
L 279.425586 69.275889 
L 280.076196 68.152353 
L 281.377417 56.113828 
L 282.028027 56.935567 
L 282.678637 59.689654 
L 283.329248 58.981007 
L 283.979858 55.696657 
L 284.630468 53.568 
L 285.281079 55.870261 
L 285.931689 61.409614 
L 286.582299 63.669289 
L 287.232909 61.288482 
L 287.88352 61.803645 
L 289.18474 75.245558 
L 289.835351 78.221593 
L 290.485961 79.335243 
L 291.136571 82.412746 
L 291.787182 90.116607 
L 292.437792 99.6256 
L 293.088402 104.453481 
L 293.739013 105.771589 
L 294.389623 111.481504 
L 295.690844 131.442361 
L 296.341454 136.632008 
L 296.992064 140.590241 
L 297.642674 147.119614 
L 298.943895 168.824875 
L 299.594505 173.944776 
L 300.245116 177.025103 
L 300.895726 185.388289 
L 301.546336 197.155979 
L 302.196947 205.865069 
L 303.498167 214.732445 
L 304.148778 221.886923 
L 304.799388 232.667308 
L 305.449998 241.418659 
L 306.751219 246.318242 
L 307.401829 254.165613 
L 308.052439 263.528488 
L 308.70305 268.722263 
L 310.00427 271.930893 
L 310.654881 276.971922 
L 311.305491 284.588872 
L 311.956101 288.351557 
L 312.606712 286.320131 
L 313.257322 285.802687 
L 314.558543 295.033023 
L 315.209153 294.768815 
L 315.859763 291.548453 
L 316.510373 289.201325 
L 317.160984 290.576901 
L 317.811594 293.263307 
L 318.462204 290.72302 
L 319.112815 283.545403 
L 319.763425 279.663216 
L 320.414035 280.371212 
L 321.064646 279.234639 
L 321.715256 273.414347 
L 322.365866 265.584683 
L 323.016477 259.610669 
L 324.317697 255.428641 
L 324.968308 247.35867 
L 325.618918 236.496914 
L 326.269528 230.443376 
L 326.920138 227.954692 
L 327.570749 222.537122 
L 329.52258 195.056546 
L 330.17319 191.424554 
L 330.8238 186.334311 
L 332.125021 163.745278 
L 332.775631 158.016026 
L 333.426242 154.59566 
L 334.076852 147.617937 
L 335.378073 127.495209 
L 336.028683 121.506203 
L 336.679293 118.96874 
L 337.329903 113.627434 
L 338.631124 94.235841 
L 339.281734 91.612772 
L 339.932345 89.8914 
L 340.582955 84.361498 
L 341.233565 76.554105 
L 341.884176 70.295784 
L 342.534786 68.601137 
L 343.185396 69.454381 
L 343.836007 66.289316 
L 344.486617 59.088016 
L 345.137227 55.72512 
L 345.787837 58.103102 
L 346.438448 59.909538 
L 347.089058 57.91418 
L 347.739668 54.592132 
L 348.390279 53.796901 
L 349.040889 57.783597 
L 349.691499 62.913819 
L 350.34211 63.051463 
L 350.99272 60.729322 
L 351.64333 63.680261 
L 352.293941 71.214863 
L 352.944551 76.747481 
L 353.595161 78.640936 
L 354.245772 80.019229 
L 354.896382 84.638743 
L 356.197602 102.102442 
L 356.848213 104.922147 
L 357.498823 107.026795 
L 358.149433 115.082209 
L 358.800044 126.012624 
L 359.450654 133.688456 
L 360.751875 142.463163 
L 361.402485 150.610268 
L 362.053095 162.297674 
L 362.703706 171.379611 
L 363.354316 174.812469 
L 364.004926 179.281627 
L 365.306147 200.844029 
L 365.956757 207.890846 
L 366.607367 211.962606 
L 367.257978 216.807 
L 367.908588 225.526737 
L 368.559198 236.444441 
L 369.209809 242.958279 
L 369.860419 244.406861 
L 370.511029 248.517622 
L 371.81225 265.979149 
L 372.46286 269.53303 
L 373.113471 270.678077 
L 373.764081 273.249217 
L 375.065302 286.72144 
L 375.715912 288.025533 
L 376.366522 285.527615 
L 377.017132 287.077013 
L 377.667743 292.592575 
L 378.318353 295.488 
L 378.968963 293.755873 
L 379.619574 290.401994 
L 380.270184 289.232721 
L 380.920794 291.742155 
L 381.571405 293.179438 
L 382.222015 288.284853 
L 382.872625 281.440537 
L 383.523236 279.676579 
L 384.173846 280.484521 
L 384.824456 277.606152 
L 386.125677 263.03136 
L 386.776287 258.469859 
L 387.426897 257.188145 
L 388.077508 253.295856 
L 389.378728 233.577914 
L 390.029339 229.50409 
L 390.679949 226.562276 
L 391.330559 219.440499 
L 392.63178 199.359488 
L 393.28239 193.45272 
L 393.933001 190.15642 
L 394.583611 182.974783 
L 395.234221 170.711268 
L 395.884831 160.985216 
L 397.186052 152.614751 
L 397.836662 144.134128 
L 398.487273 133.561023 
L 398.487273 133.561023 
" clip-path="url(#p6a457db0f7)" style="fill: none; stroke: #1f77b4; stroke-width: 1.5; stroke-linecap: square"/>
   </g>
   <g id="patch_3">
    <path d="M 57.6 307.584 
L 57.6 41.472 
" style="fill: none; stroke: #000000; stroke-width: 0.8; stroke-linejoin: miter; stroke-linecap: square"/>
   </g>
   <g id="patch_4">
    <path d="M 414.72 307.584 
L 414.72 41.472 
" style="fill: none; stroke: #000000; stroke-width: 0.8; stroke-linejoin: miter; stroke-linecap: square"/>
   </g>
   <g id="patch_5">
    <path d="M 57.6 307.584 
L 414.72 307.584 
" style="fill: none; stroke: #000000; stroke-width: 0.8; stroke-linejoin: miter; stroke-linecap: square"/>
   </g>
   <g id="patch_6">
    <path d="M 57.6 41.472 
L 414.72 41.472 
" style="fill: none; stroke: #000000; stroke-width: 0.8; stroke-linejoin: miter; stroke-linecap: square"/>
   </g>
   <g id="text_15">
    <!-- Left output (24-bit) -->
    <g transform="translate(178.9575 35.472) scale(0.12 -0.12)">
     <defs>
      <path id="DejaVuSans-4c" d="M 628 4666 
L 1259 4666 
L 1259 531 
L 3531 531 
L 3531 0 
L 628 0 
L 628 4666 
z
" transform="scale(0.015625)"/>
      <path id="DejaVuSans-66" d="M 2375 4863 
L 2375 4384 
L 1825 4384 
Q 1516 4384 1395 4259 
Q 1275 4134 1275 3809 
L 1275 3500 
L 2222 3500 
L 2222 3053 
L 1275 3053 
L 1275 0 
L 697 0 
L 697 3053 
L 147 3053 
L 147 3500 
L 697 3500 
L 697 3744 
Q 697 4328 969 4595 
Q 1241 4863 1831 4863 
L 2375 4863 
z
" transform="scale(0.015625)"/>
      <path id="DejaVuSans-20" transform="scale(0.015625)"/>
      <path id="DejaVuSans-6f" d="M 1959 3097 
Q 1497 3097 1228 2736 
Q 959 2375 959 1747 
Q 959 1119 1226 758 
Q 1494 397 1959 397 
Q 2419 397 2687 759 
Q 2956 1122 2956 1747 
Q 2956 2369 2687 2733 
Q 2419 3097 1959 3097 
z
M 1959 3584 
Q 2709 3584 3137 3096 
Q 3566 2609 3566 1747 
Q 3566 888 3137 398 
Q 2709 -91 1959 -91 
Q 1206 -91 779 398 
Q 353 888 353 1747 
Q 353 2609 779 3096 
Q 1206 3584 1959 3584 
z
" transform="scale(0.015625)"/>
      <path id="DejaVuSans-28" d="M 1984 4856 
Q 1566 4138 1362 3434 
Q 1159 2731 1159 2009 
Q 1159 1288 1364 580 
Q 1569 -128 1984 -844 
L 1484 -844 
Q 1016 -109 783 600 
Q 550 1309 550 2009 
Q 550 2706 781 3412 
Q 1013 4119 1484 4856 
L 1984 4856 
z
" transform="scale(0.015625)"/>
      <path id="DejaVuSans-2d" d="M 313 2009 
L 1997 2009 
L 1997 1497 
L 313 1497 
L 313 2009 
z
" transform="scale(0.015625)"/>
      <path id="DejaVuSans-62" d="M 3116 1747 
Q 3116 2381 2855 2742 
Q 2594 3103 2138 3103 
Q 1681 3103 1420 2742 
Q 1159 2381 1159 1747 
Q 1159 1113 1420 752 
Q 1681 391 2138 391 
Q 2594 391 2855 752 
Q 3116 1113 3116 1747 
z
M 1159 2969 
Q 1341 3281 1617 3432 
Q 1894 3584 2278 3584 
Q 2916 3584 3314 3078 
Q 3713 2572 3713 1747 
Q 3713 922 3314 415 
Q 2916 -91 2278 -91 
Q 1894 -91 1617 61 
Q 1341 213 1159 525 
L 1159 0 
L 581 0 
L 581 4863 
L 1159 4863 
L 1159 2969 
z
" transform="scale(0.015625)"/>
      <path id="DejaVuSans-29" d="M 513 4856 
L 1013 4856 
Q 1481 4119 1714 3412 
Q 1947 2706 1947 2009 
Q 1947 1309 1714 600 
Q 1481 -109 1013 -844 
L 513 -844 
Q 928 -128 1133 580 
Q 1338 1288 1338 2009 
Q 1338 2731 1133 3434 
Q 928 4138 513 4856 
z
" transform="scale(0.015625)"/>
     </defs>
     <use xlink:href="#DejaVuSans-4c"/>
     <use xlink:href="#DejaVuSans-65" x="53.962891"/>
     <use xlink:href="#DejaVuSans-66" x="115.486328"/>
     <use xlink:href="#DejaVuSans-74" x="148.941406"/>
     <use xlink:href="#DejaVuSans-20" x="188.150391"/>
     <use xlink:href="#DejaVuSans-6f" x="219.9375"/>
     <use xlink:href="#DejaVuSans-75" x="281.119141"/>
     <use xlink:href="#DejaVuSans-74" x="344.498047"/>
     <use xlink:href="#DejaVuSans-70" x="383.707031"/>
     <use xlink:href="#DejaVuSans-75" x="447.183594"/>
     <use xlink:href="#DejaVuSans-74" x="510.5625"/>
     <use xlink:href="#DejaVuSans-20" x="549.771484"/>
     <use xlink:href="#DejaVuSans-28" x="581.558594"/>
     <use xlink:href="#DejaVuSans-32" x="620.572266"/>
     <use xlink:href="#DejaVuSans-34" x="684.195312"/>
     <use xlink:href="#DejaVuSans-2d" x="747.818359"/>
     <use xlink:href="#DejaVuSans-62" x="783.902344"/>
     <use xlink:href="#DejaVuSans-69" x="847.378906"/>
     <use xlink:href="#DejaVuSans-74" x="875.162109"/>
     <use xlink:href="#DejaVuSans-29" x="914.371094"/>
    </g>
   </g>
  </g>
 </g>
 <defs>
  <clipPath id="p6a457db0f7">
   <rect x="57.6" y="41.472" width="357.12" height="266.112"/>
  </clipPath>
 </defs>
</svg>
