<?xml version="1.0" encoding="utf-8" standalone="no"?>
<!DOCTYPE svg PUBLIC "-//W3C//DTD SVG 1.1//EN"
  "http://www.w3.org/Graphics/SVG/1.1/DTD/svg11.dtd">
<svg xmlns:xlink="http://www.w3.org/1999/xlink" width="460.8pt" height="345.6pt" viewBox="0 0 460.8 345.6" xmlns="http://www.w3.org/2000/svg" version="1.1">
 <metadata>
  <rdf:RDF xmlns:dc="http://purl.org/dc/elements/1.1/" xmlns:cc="http://creativecommons.org/ns#" xmlns:rdf="http://www.w3.org/1999/02/22-rdf-syntax-ns#">
   <cc:Work>
    <dc:type rdf:resource="http://purl.org/dc/dcmitype/StillImage"/>
    <dc:date>2025-08-29T17:30:15.525774</dc:date>
    <dc:format>image/svg+xml</dc:format>
    <dc:creator>
     <cc:Agent>
      <dc:title>Matplotlib v3.9.2, https://matplotlib.org/</dc:title>
     </cc:Agent>
    </dc:creator>
   </cc:Work>
  </rdf:RDF>
 </metadata>
 <defs>
  <style type="text/css">*{stroke-linejoin: round; stroke-linecap: butt}</style>
 </defs>
 <g id="figure_1">
  <g id="patch_1">
   <path d="M 0 345.6 
L 460.8 345.6 
L 460.8 0 
L 0 0 
z
" style="fill: #ffffff"/>
  </g>
  <g id="axes_1">
   <g id="patch_2">
    <path d="M 57.6 307.584 
L 414.72 307.584 
L 414.72 41.472 
L 57.6 41.472 
z
" style="fill: #ffffff"/>
   </g>
   <g id="matplotlib.axis_1">
    <g id="xtick_1">
     <g id="line2d_1">
      <path d="M 73.832727 307.584 
L 73.832727 41.472 
" clip-path="url(#pad78e1f648)" style="fill: none; stroke: #b0b0b0; stroke-width: 0.8; stroke-linecap: square"/>
     </g>
     <g id="line2d_2">
      <defs>
       <path id="m21f5f217d8" d="M 0 0 
L 0 3.5 
" style="stroke: #000000; stroke-width: 0.8"/>
      </defs>
      <g>
       <use xlink:href="#m21f5f217d8" x="73.832727" y="307.584" style="stroke: #000000; stroke-width: 0.8"/>
      </g>
     </g>
     <g id="text_1">
      <!-- 0 -->
      <g transform="translate(70.651477 322.182437) scale(0.1 -0.1)">
       <defs>
        <path id="DejaVuSans-30" d="M 2034 4250 
Q 1547 4250 1301 3770 
Q 1056 3291 1056 2328 
Q 1056 1369 1301 889 
Q 1547 409 2034 409 
Q 2525 409 2770 889 
Q 3016 1369 3016 2328 
Q 3016 3291 2770 3770 
Q 2525 4250 2034 4250 
z
M 2034 4750 
Q 2819 4750 3233 4129 
Q 3647 3509 3647 2328 
Q 3647 1150 3233 529 
Q 2819 -91 2034 -91 
Q 1250 -91 836 529 
Q 422 1150 422 2328 
Q 422 3509 836 4129 
Q 1250 4750 2034 4750 
z
" transform="scale(0.015625)"/>
       </defs>
       <use xlink:href="#DejaVuSans-30"/>
      </g>
     </g>
    </g>
    <g id="xtick_2">
     <g id="line2d_3">
      <path d="M 153.132812 307.584 
L 153.132812 41.472 
" clip-path="url(#pad78e1f648)" style="fill: none; stroke: #b0b0b0; stroke-width: 0.8; stroke-linecap: square"/>
     </g>
     <g id="line2d_4">
      <g>
       <use xlink:href="#m21f5f217d8" x="153.132812" y="307.584" style="stroke: #000000; stroke-width: 0.8"/>
      </g>
     </g>
     <g id="text_2">
      <!-- 500 -->
      <g transform="translate(143.589062 322.182437) scale(0.1 -0.1)">
       <defs>
        <path id="DejaVuSans-35" d="M 691 4666 
L 3169 4666 
L 3169 4134 
L 1269 4134 
L 1269 2991 
Q 1406 3038 1543 3061 
Q 1681 3084 1819 3084 
Q 2600 3084 3056 2656 
Q 3513 2228 3513 1497 
Q 3513 744 3044 326 
Q 2575 -91 1722 -91 
Q 1428 -91 1123 -41 
Q 819 9 494 109 
L 494 744 
Q 775 591 1075 516 
Q 1375 441 1709 441 
Q 2250 441 2565 725 
Q 2881 1009 2881 1497 
Q 2881 1984 2565 2268 
Q 2250 2553 1709 2553 
Q 1456 2553 1204 2497 
Q 953 2441 691 2322 
L 691 4666 
z
" transform="scale(0.015625)"/>
       </defs>
       <use xlink:href="#DejaVuSans-35"/>
       <use xlink:href="#DejaVuSans-30" x="63.623047"/>
       <use xlink:href="#DejaVuSans-30" x="127.246094"/>
      </g>
     </g>
    </g>
    <g id="xtick_3">
     <g id="line2d_5">
      <path d="M 232.432896 307.584 
L 232.432896 41.472 
" clip-path="url(#pad78e1f648)" style="fill: none; stroke: #b0b0b0; stroke-width: 0.8; stroke-linecap: square"/>
     </g>
     <g id="line2d_6">
      <g>
       <use xlink:href="#m21f5f217d8" x="232.432896" y="307.584" style="stroke: #000000; stroke-width: 0.8"/>
      </g>
     </g>
     <g id="text_3">
      <!-- 1000 -->
      <g transform="translate(219.707896 322.182437) scale(0.1 -0.1)">
       <defs>
        <path id="DejaVuSans-31" d="M 794 531 
L 1825 531 
L 1825 4091 
L 703 3866 
L 703 4441 
L 1819 4666 
L 2450 4666 
L 2450 531 
L 3481 531 
L 3481 0 
L 794 0 
L 794 531 
z
" transform="scale(0.015625)"/>
       </defs>
       <use xlink:href="#DejaVuSans-31"/>
       <use xlink:href="#DejaVuSans-30" x="63.623047"/>
       <use xlink:href="#DejaVuSans-30" x="127.246094"/>
       <use xlink:href="#DejaVuSans-30" x="190.869141"/>
      </g>
     </g>
    </g>
    <g id="xtick_4">
     <g id="line2d_7">
      <path d="M 311.73298 307.584 
L 311.73298 41.472 
" clip-path="url(#pad78e1f648)" style="fill: none; stroke: #b0b0b0; stroke-width: 0.8; stroke-linecap: square"/>
     </g>
     <g id="line2d_8">
      <g>
       <use xlink:href="#m21f5f217d8" x="311.73298" y="307.584" style="stroke: #000000; stroke-width: 0.8"/>
      </g>
     </g>
     <g id="text_4">
      <!-- 1500 -->
      <g transform="translate(299.00798 322.182437) scale(0.1 -0.1)">
       <use xlink:href="#DejaVuSans-31"/>
       <use xlink:href="#DejaVuSans-35" x="63.623047"/>
       <use xlink:href="#DejaVuSans-30" x="127.246094"/>
       <use xlink:href="#DejaVuSans-30" x="190.869141"/>
      </g>
     </g>
    </g>
    <g id="xtick_5">
     <g id="line2d_9">
      <path d="M 391.033065 307.584 
L 391.033065 41.472 
" clip-path="url(#pad78e1f648)" style="fill: none; stroke: #b0b0b0; stroke-width: 0.8; stroke-linecap: square"/>
     </g>
     <g id="line2d_10">
      <g>
       <use xlink:href="#m21f5f217d8" x="391.033065" y="307.584" style="stroke: #000000; stroke-width: 0.8"/>
      </g>
     </g>
     <g id="text_5">
      <!-- 2000 -->
      <g transform="translate(378.308065 322.182437) scale(0.1 -0.1)">
       <defs>
        <path id="DejaVuSans-32" d="M 1228 531 
L 3431 531 
L 3431 0 
L 469 0 
L 469 531 
Q 828 903 1448 1529 
Q 2069 2156 2228 2338 
Q 2531 2678 2651 2914 
Q 2772 3150 2772 3378 
Q 2772 3750 2511 3984 
Q 2250 4219 1831 4219 
Q 1534 4219 1204 4116 
Q 875 4013 500 3803 
L 500 4441 
Q 881 4594 1212 4672 
Q 1544 4750 1819 4750 
Q 2544 4750 2975 4387 
Q 3406 4025 3406 3419 
Q 3406 3131 3298 2873 
Q 3191 2616 2906 2266 
Q 2828 2175 2409 1742 
Q 1991 1309 1228 531 
z
" transform="scale(0.015625)"/>
       </defs>
       <use xlink:href="#DejaVuSans-32"/>
       <use xlink:href="#DejaVuSans-30" x="63.623047"/>
       <use xlink:href="#DejaVuSans-30" x="127.246094"/>
       <use xlink:href="#DejaVuSans-30" x="190.869141"/>
      </g>
     </g>
    </g>
    <g id="text_6">
     <!-- Samples -->
     <g transform="translate(214.806875 335.860562) scale(0.1 -0.1)">
      <defs>
       <path id="DejaVuSans-53" d="M 3425 4513 
L 3425 3897 
Q 3066 4069 2747 4153 
Q 2428 4238 2131 4238 
Q 1616 4238 1336 4038 
Q 1056 3838 1056 3469 
Q 1056 3159 1242 3001 
Q 1428 2844 1947 2747 
L 2328 2669 
Q 3034 2534 3370 2195 
Q 3706 1856 3706 1288 
Q 3706 609 3251 259 
Q 2797 -91 1919 -91 
Q 1588 -91 1214 -16 
Q 841 59 441 206 
L 441 856 
Q 825 641 1194 531 
Q 1563 422 1919 422 
Q 2459 422 2753 634 
Q 3047 847 3047 1241 
Q 3047 1584 2836 1778 
Q 2625 1972 2144 2069 
L 1759 2144 
Q 1053 2284 737 2584 
Q 422 2884 422 3419 
Q 422 4038 858 4394 
Q 1294 4750 2059 4750 
Q 2388 4750 2728 4690 
Q 3069 4631 3425 4513 
z
" transform="scale(0.015625)"/>
       <path id="DejaVuSans-61" d="M 2194 1759 
Q 1497 1759 1228 1600 
Q 959 1441 959 1056 
Q 959 750 1161 570 
Q 1363 391 1709 391 
Q 2188 391 2477 730 
Q 2766 1069 2766 1631 
L 2766 1759 
L 2194 1759 
z
M 3341 1997 
L 3341 0 
L 2766 0 
L 2766 531 
Q 2569 213 2275 61 
Q 1981 -91 1556 -91 
Q 1019 -91 701 211 
Q 384 513 384 1019 
Q 384 1609 779 1909 
Q 1175 2209 1959 2209 
L 2766 2209 
L 2766 2266 
Q 2766 2663 2505 2880 
Q 2244 3097 1772 3097 
Q 1472 3097 1187 3025 
Q 903 2953 641 2809 
L 641 3341 
Q 956 3463 1253 3523 
Q 1550 3584 1831 3584 
Q 2591 3584 2966 3190 
Q 3341 2797 3341 1997 
z
" transform="scale(0.015625)"/>
       <path id="DejaVuSans-6d" d="M 3328 2828 
Q 3544 3216 3844 3400 
Q 4144 3584 4550 3584 
Q 5097 3584 5394 3201 
Q 5691 2819 5691 2113 
L 5691 0 
L 5113 0 
L 5113 2094 
Q 5113 2597 4934 2840 
Q 4756 3084 4391 3084 
Q 3944 3084 3684 2787 
Q 3425 2491 3425 1978 
L 3425 0 
L 2847 0 
L 2847 2094 
Q 2847 2600 2669 2842 
Q 2491 3084 2119 3084 
Q 1678 3084 1418 2786 
Q 1159 2488 1159 1978 
L 1159 0 
L 581 0 
L 581 3500 
L 1159 3500 
L 1159 2956 
Q 1356 3278 1631 3431 
Q 1906 3584 2284 3584 
Q 2666 3584 2933 3390 
Q 3200 3197 3328 2828 
z
" transform="scale(0.015625)"/>
       <path id="DejaVuSans-70" d="M 1159 525 
L 1159 -1331 
L 581 -1331 
L 581 3500 
L 1159 3500 
L 1159 2969 
Q 1341 3281 1617 3432 
Q 1894 3584 2278 3584 
Q 2916 3584 3314 3078 
Q 3713 2572 3713 1747 
Q 3713 922 3314 415 
Q 2916 -91 2278 -91 
Q 1894 -91 1617 61 
Q 1341 213 1159 525 
z
M 3116 1747 
Q 3116 2381 2855 2742 
Q 2594 3103 2138 3103 
Q 1681 3103 1420 2742 
Q 1159 2381 1159 1747 
Q 1159 1113 1420 752 
Q 1681 391 2138 391 
Q 2594 391 2855 752 
Q 3116 1113 3116 1747 
z
" transform="scale(0.015625)"/>
       <path id="DejaVuSans-6c" d="M 603 4863 
L 1178 4863 
L 1178 0 
L 603 0 
L 603 4863 
z
" transform="scale(0.015625)"/>
       <path id="DejaVuSans-65" d="M 3597 1894 
L 3597 1613 
L 953 1613 
Q 991 1019 1311 708 
Q 1631 397 2203 397 
Q 2534 397 2845 478 
Q 3156 559 3463 722 
L 3463 178 
Q 3153 47 2828 -22 
Q 2503 -91 2169 -91 
Q 1331 -91 842 396 
Q 353 884 353 1716 
Q 353 2575 817 3079 
Q 1281 3584 2069 3584 
Q 2775 3584 3186 3129 
Q 3597 2675 3597 1894 
z
M 3022 2063 
Q 3016 2534 2758 2815 
Q 2500 3097 2075 3097 
Q 1594 3097 1305 2825 
Q 1016 2553 972 2059 
L 3022 2063 
z
" transform="scale(0.015625)"/>
       <path id="DejaVuSans-73" d="M 2834 3397 
L 2834 2853 
Q 2591 2978 2328 3040 
Q 2066 3103 1784 3103 
Q 1356 3103 1142 2972 
Q 928 2841 928 2578 
Q 928 2378 1081 2264 
Q 1234 2150 1697 2047 
L 1894 2003 
Q 2506 1872 2764 1633 
Q 3022 1394 3022 966 
Q 3022 478 2636 193 
Q 2250 -91 1575 -91 
Q 1294 -91 989 -36 
Q 684 19 347 128 
L 347 722 
Q 666 556 975 473 
Q 1284 391 1588 391 
Q 1994 391 2212 530 
Q 2431 669 2431 922 
Q 2431 1156 2273 1281 
Q 2116 1406 1581 1522 
L 1381 1569 
Q 847 1681 609 1914 
Q 372 2147 372 2553 
Q 372 3047 722 3315 
Q 1072 3584 1716 3584 
Q 2034 3584 2315 3537 
Q 2597 3491 2834 3397 
z
" transform="scale(0.015625)"/>
      </defs>
      <use xlink:href="#DejaVuSans-53"/>
      <use xlink:href="#DejaVuSans-61" x="63.476562"/>
      <use xlink:href="#DejaVuSans-6d" x="124.755859"/>
      <use xlink:href="#DejaVuSans-70" x="222.167969"/>
      <use xlink:href="#DejaVuSans-6c" x="285.644531"/>
      <use xlink:href="#DejaVuSans-65" x="313.427734"/>
      <use xlink:href="#DejaVuSans-73" x="374.951172"/>
     </g>
    </g>
   </g>
   <g id="matplotlib.axis_2">
    <g id="ytick_1">
     <g id="line2d_11">
      <path d="M 57.6 291.350333 
L 414.72 291.350333 
" clip-path="url(#pad78e1f648)" style="fill: none; stroke: #b0b0b0; stroke-width: 0.8; stroke-linecap: square"/>
     </g>
     <g id="line2d_12">
      <defs>
       <path id="m22c29526cf" d="M 0 0 
L -3.5 0 
" style="stroke: #000000; stroke-width: 0.8"/>
      </defs>
      <g>
       <use xlink:href="#m22c29526cf" x="57.6" y="291.350333" style="stroke: #000000; stroke-width: 0.8"/>
      </g>
     </g>
     <g id="text_7">
      <!-- −6 -->
      <g transform="translate(35.857813 295.149552) scale(0.1 -0.1)">
       <defs>
        <path id="DejaVuSans-2212" d="M 678 2272 
L 4684 2272 
L 4684 1741 
L 678 1741 
L 678 2272 
z
" transform="scale(0.015625)"/>
        <path id="DejaVuSans-36" d="M 2113 2584 
Q 1688 2584 1439 2293 
Q 1191 2003 1191 1497 
Q 1191 994 1439 701 
Q 1688 409 2113 409 
Q 2538 409 2786 701 
Q 3034 994 3034 1497 
Q 3034 2003 2786 2293 
Q 2538 2584 2113 2584 
z
M 3366 4563 
L 3366 3988 
Q 3128 4100 2886 4159 
Q 2644 4219 2406 4219 
Q 1781 4219 1451 3797 
Q 1122 3375 1075 2522 
Q 1259 2794 1537 2939 
Q 1816 3084 2150 3084 
Q 2853 3084 3261 2657 
Q 3669 2231 3669 1497 
Q 3669 778 3244 343 
Q 2819 -91 2113 -91 
Q 1303 -91 875 529 
Q 447 1150 447 2328 
Q 447 3434 972 4092 
Q 1497 4750 2381 4750 
Q 2619 4750 2861 4703 
Q 3103 4656 3366 4563 
z
" transform="scale(0.015625)"/>
       </defs>
       <use xlink:href="#DejaVuSans-2212"/>
       <use xlink:href="#DejaVuSans-36" x="83.789062"/>
      </g>
     </g>
    </g>
    <g id="ytick_2">
     <g id="line2d_13">
      <path d="M 57.6 252.386866 
L 414.72 252.386866 
" clip-path="url(#pad78e1f648)" style="fill: none; stroke: #b0b0b0; stroke-width: 0.8; stroke-linecap: square"/>
     </g>
     <g id="line2d_14">
      <g>
       <use xlink:href="#m22c29526cf" x="57.6" y="252.386866" style="stroke: #000000; stroke-width: 0.8"/>
      </g>
     </g>
     <g id="text_8">
      <!-- −4 -->
      <g transform="translate(35.857813 256.186084) scale(0.1 -0.1)">
       <defs>
        <path id="DejaVuSans-34" d="M 2419 4116 
L 825 1625 
L 2419 1625 
L 2419 4116 
z
M 2253 4666 
L 3047 4666 
L 3047 1625 
L 3713 1625 
L 3713 1100 
L 3047 1100 
L 3047 0 
L 2419 0 
L 2419 1100 
L 313 1100 
L 313 1709 
L 2253 4666 
z
" transform="scale(0.015625)"/>
       </defs>
       <use xlink:href="#DejaVuSans-2212"/>
       <use xlink:href="#DejaVuSans-34" x="83.789062"/>
      </g>
     </g>
    </g>
    <g id="ytick_3">
     <g id="line2d_15">
      <path d="M 57.6 213.423398 
L 414.72 213.423398 
" clip-path="url(#pad78e1f648)" style="fill: none; stroke: #b0b0b0; stroke-width: 0.8; stroke-linecap: square"/>
     </g>
     <g id="line2d_16">
      <g>
       <use xlink:href="#m22c29526cf" x="57.6" y="213.423398" style="stroke: #000000; stroke-width: 0.8"/>
      </g>
     </g>
     <g id="text_9">
      <!-- −2 -->
      <g transform="translate(35.857813 217.222617) scale(0.1 -0.1)">
       <use xlink:href="#DejaVuSans-2212"/>
       <use xlink:href="#DejaVuSans-32" x="83.789062"/>
      </g>
     </g>
    </g>
    <g id="ytick_4">
     <g id="line2d_17">
      <path d="M 57.6 174.459931 
L 414.72 174.459931 
" clip-path="url(#pad78e1f648)" style="fill: none; stroke: #b0b0b0; stroke-width: 0.8; stroke-linecap: square"/>
     </g>
     <g id="line2d_18">
      <g>
       <use xlink:href="#m22c29526cf" x="57.6" y="174.459931" style="stroke: #000000; stroke-width: 0.8"/>
      </g>
     </g>
     <g id="text_10">
      <!-- 0 -->
      <g transform="translate(44.2375 178.25915) scale(0.1 -0.1)">
       <use xlink:href="#DejaVuSans-30"/>
      </g>
     </g>
    </g>
    <g id="ytick_5">
     <g id="line2d_19">
      <path d="M 57.6 135.496463 
L 414.72 135.496463 
" clip-path="url(#pad78e1f648)" style="fill: none; stroke: #b0b0b0; stroke-width: 0.8; stroke-linecap: square"/>
     </g>
     <g id="line2d_20">
      <g>
       <use xlink:href="#m22c29526cf" x="57.6" y="135.496463" style="stroke: #000000; stroke-width: 0.8"/>
      </g>
     </g>
     <g id="text_11">
      <!-- 2 -->
      <g transform="translate(44.2375 139.295682) scale(0.1 -0.1)">
       <use xlink:href="#DejaVuSans-32"/>
      </g>
     </g>
    </g>
    <g id="ytick_6">
     <g id="line2d_21">
      <path d="M 57.6 96.532996 
L 414.72 96.532996 
" clip-path="url(#pad78e1f648)" style="fill: none; stroke: #b0b0b0; stroke-width: 0.8; stroke-linecap: square"/>
     </g>
     <g id="line2d_22">
      <g>
       <use xlink:href="#m22c29526cf" x="57.6" y="96.532996" style="stroke: #000000; stroke-width: 0.8"/>
      </g>
     </g>
     <g id="text_12">
      <!-- 4 -->
      <g transform="translate(44.2375 100.332215) scale(0.1 -0.1)">
       <use xlink:href="#DejaVuSans-34"/>
      </g>
     </g>
    </g>
    <g id="ytick_7">
     <g id="line2d_23">
      <path d="M 57.6 57.569529 
L 414.72 57.569529 
" clip-path="url(#pad78e1f648)" style="fill: none; stroke: #b0b0b0; stroke-width: 0.8; stroke-linecap: square"/>
     </g>
     <g id="line2d_24">
      <g>
       <use xlink:href="#m22c29526cf" x="57.6" y="57.569529" style="stroke: #000000; stroke-width: 0.8"/>
      </g>
     </g>
     <g id="text_13">
      <!-- 6 -->
      <g transform="translate(44.2375 61.368747) scale(0.1 -0.1)">
       <use xlink:href="#DejaVuSans-36"/>
      </g>
     </g>
    </g>
    <g id="text_14">
     <!-- Amplitude -->
     <g transform="translate(29.778125 200.150656) rotate(-90) scale(0.1 -0.1)">
      <defs>
       <path id="DejaVuSans-41" d="M 2188 4044 
L 1331 1722 
L 3047 1722 
L 2188 4044 
z
M 1831 4666 
L 2547 4666 
L 4325 0 
L 3669 0 
L 3244 1197 
L 1141 1197 
L 716 0 
L 50 0 
L 1831 4666 
z
" transform="scale(0.015625)"/>
       <path id="DejaVuSans-69" d="M 603 3500 
L 1178 3500 
L 1178 0 
L 603 0 
L 603 3500 
z
M 603 4863 
L 1178 4863 
L 1178 4134 
L 603 4134 
L 603 4863 
z
" transform="scale(0.015625)"/>
       <path id="DejaVuSans-74" d="M 1172 4494 
L 1172 3500 
L 2356 3500 
L 2356 3053 
L 1172 3053 
L 1172 1153 
Q 1172 725 1289 603 
Q 1406 481 1766 481 
L 2356 481 
L 2356 0 
L 1766 0 
Q 1100 0 847 248 
Q 594 497 594 1153 
L 594 3053 
L 172 3053 
L 172 3500 
L 594 3500 
L 594 4494 
L 1172 4494 
z
" transform="scale(0.015625)"/>
       <path id="DejaVuSans-75" d="M 544 1381 
L 544 3500 
L 1119 3500 
L 1119 1403 
Q 1119 906 1312 657 
Q 1506 409 1894 409 
Q 2359 409 2629 706 
Q 2900 1003 2900 1516 
L 2900 3500 
L 3475 3500 
L 3475 0 
L 2900 0 
L 2900 538 
Q 2691 219 2414 64 
Q 2138 -91 1772 -91 
Q 1169 -91 856 284 
Q 544 659 544 1381 
z
M 1991 3584 
L 1991 3584 
z
" transform="scale(0.015625)"/>
       <path id="DejaVuSans-64" d="M 2906 2969 
L 2906 4863 
L 3481 4863 
L 3481 0 
L 2906 0 
L 2906 525 
Q 2725 213 2448 61 
Q 2172 -91 1784 -91 
Q 1150 -91 751 415 
Q 353 922 353 1747 
Q 353 2572 751 3078 
Q 1150 3584 1784 3584 
Q 2172 3584 2448 3432 
Q 2725 3281 2906 2969 
z
M 947 1747 
Q 947 1113 1208 752 
Q 1469 391 1925 391 
Q 2381 391 2643 752 
Q 2906 1113 2906 1747 
Q 2906 2381 2643 2742 
Q 2381 3103 1925 3103 
Q 1469 3103 1208 2742 
Q 947 2381 947 1747 
z
" transform="scale(0.015625)"/>
      </defs>
      <use xlink:href="#DejaVuSans-41"/>
      <use xlink:href="#DejaVuSans-6d" x="68.408203"/>
      <use xlink:href="#DejaVuSans-70" x="165.820312"/>
      <use xlink:href="#DejaVuSans-6c" x="229.296875"/>
      <use xlink:href="#DejaVuSans-69" x="257.080078"/>
      <use xlink:href="#DejaVuSans-74" x="284.863281"/>
      <use xlink:href="#DejaVuSans-75" x="324.072266"/>
      <use xlink:href="#DejaVuSans-64" x="387.451172"/>
      <use xlink:href="#DejaVuSans-65" x="450.927734"/>
     </g>
    </g>
    <g id="text_15">
     <!-- 1e6 -->
     <g transform="translate(57.6 38.472) scale(0.1 -0.1)">
      <use xlink:href="#DejaVuSans-31"/>
      <use xlink:href="#DejaVuSans-65" x="63.623047"/>
      <use xlink:href="#DejaVuSans-36" x="125.146484"/>
     </g>
    </g>
   </g>
   <g id="line2d_25">
    <path d="M 73.832727 64.04288 
L 73.991327 58.264949 
L 74.149928 58.264949 
L 74.308528 54.671523 
L 74.467128 54.671523 
L 74.625728 53.568 
L 74.784328 53.568 
L 74.942928 54.926403 
L 75.101529 54.926403 
L 75.260129 58.755908 
L 75.418729 58.755908 
L 75.577329 64.94845 
L 75.735929 64.94845 
L 75.894529 73.194113 
L 76.05313 73.194113 
L 76.21173 83.722159 
L 76.37033 83.722159 
L 76.52893 95.952362 
L 76.68753 95.952362 
L 76.84613 109.868944 
L 77.004731 109.868944 
L 77.163331 124.907849 
L 77.321931 124.907849 
L 77.480531 141.093994 
L 77.639131 141.093994 
L 77.797731 157.985885 
L 77.956332 157.985885 
L 78.114932 175.140311 
L 78.273532 175.140311 
L 78.432132 192.278723 
L 78.590732 192.278723 
L 78.749333 209.129877 
L 78.907933 209.129877 
L 79.066533 225.222082 
L 79.225133 225.222082 
L 79.383733 240.350953 
L 79.542333 240.350953 
L 79.700934 254.063035 
L 79.859534 254.063035 
L 80.018134 266.138924 
L 80.176734 266.138924 
L 80.335334 276.456197 
L 80.493934 276.456197 
L 80.652535 284.642266 
L 80.811135 284.642266 
L 80.969735 290.543341 
L 81.128335 290.543341 
L 81.286935 294.314791 
L 81.445535 294.314791 
L 81.604136 295.349758 
L 81.762736 295.349758 
L 81.921336 294.170996 
L 82.079936 294.170996 
L 82.238536 290.441939 
L 82.397136 290.441939 
L 82.555737 284.559994 
L 82.714337 284.559994 
L 82.872937 276.220254 
L 83.031537 276.220254 
L 83.190137 265.86127 
L 83.348737 265.86127 
L 83.507338 253.727404 
L 83.665938 253.727404 
L 83.824538 239.934317 
L 83.983138 239.934317 
L 84.141738 224.864865 
L 84.300338 224.864865 
L 84.458939 208.594071 
L 84.617539 208.594071 
L 84.776139 191.913402 
L 84.934739 191.913402 
L 85.093339 174.68023 
L 85.251939 174.68023 
L 85.41054 157.60753 
L 85.56914 157.60753 
L 85.72774 140.881059 
L 85.88634 140.881059 
L 86.04494 124.76573 
L 86.20354 124.76573 
L 86.362141 109.565419 
L 86.520741 109.565419 
L 86.679341 95.774105 
L 86.837941 95.774105 
L 86.996541 83.425393 
L 87.155141 83.425393 
L 87.313742 73.040071 
L 87.472342 73.040071 
L 87.630942 64.760763 
L 87.789542 64.760763 
L 87.948142 58.715542 
L 88.106742 58.715542 
L 88.265343 54.926656 
L 88.423943 54.926656 
L 88.582543 53.657694 
L 88.741143 53.657694 
L 88.899743 54.697181 
L 89.058343 54.697181 
L 89.216944 58.295632 
L 89.375544 58.295632 
L 89.534144 64.270622 
L 89.692744 64.270622 
L 89.851344 72.317006 
L 90.009944 72.317006 
L 90.168545 82.638312 
L 90.327145 82.638312 
L 90.485745 94.678374 
L 90.644345 94.678374 
L 90.802945 108.422328 
L 90.961545 108.422328 
L 91.120146 123.426497 
L 91.278746 123.426497 
L 91.437346 139.540813 
L 91.595946 139.540813 
L 91.754546 156.268706 
L 91.913147 156.268706 
L 92.071747 173.478285 
L 92.230347 173.478285 
L 92.388947 190.687806 
L 92.547547 190.687806 
L 92.706147 207.530057 
L 92.864748 207.530057 
L 93.023348 223.729644 
L 93.181948 223.729644 
L 93.340548 238.880394 
L 93.499148 238.880394 
L 93.657748 252.763798 
L 93.816349 252.763798 
L 93.974949 265.085644 
L 94.133549 265.085644 
L 94.292149 275.610651 
L 94.450749 275.610651 
L 94.609349 283.901765 
L 94.76795 283.901765 
L 94.92655 290.238218 
L 95.08515 290.238218 
L 95.24375 293.894608 
L 95.40235 293.894608 
L 95.56095 295.488 
L 95.719551 295.488 
L 95.878151 294.445474 
L 96.036751 294.445474 
L 96.195351 290.923469 
L 96.353951 290.923469 
L 96.512551 285.217717 
L 96.671152 285.217717 
L 96.829752 277.102757 
L 96.988352 277.102757 
L 97.146952 266.993899 
L 97.305552 266.993899 
L 97.464152 254.979923 
L 97.622753 254.979923 
L 97.781353 241.363692 
L 97.939953 241.363692 
L 98.098553 226.351262 
L 98.257153 226.351262 
L 98.415753 210.368 
L 98.574354 210.368 
L 98.732954 193.59113 
L 98.891554 193.59113 
L 99.050154 176.350867 
L 99.208754 176.350867 
L 99.367354 159.167841 
L 99.525955 159.167841 
L 99.684555 142.358261 
L 99.843155 142.358261 
L 100.001755 126.152478 
L 100.160355 126.152478 
L 100.318955 110.885033 
L 100.477556 110.885033 
L 100.636156 96.884213 
L 100.794756 96.884213 
L 100.953356 84.517111 
L 101.111956 84.517111 
L 101.270556 73.992163 
L 101.429157 73.992163 
L 101.587757 65.452968 
L 101.746357 65.452968 
L 101.904957 59.213475 
L 102.063557 59.213475 
L 102.222157 55.143702 
L 102.380758 55.143702 
L 102.539358 53.678929 
L 102.697958 53.678929 
L 102.856558 54.507156 
L 103.015158 54.507156 
L 103.173758 57.860488 
L 103.332359 57.860488 
L 103.490959 63.565558 
L 103.649559 63.565558 
L 103.808159 71.502826 
L 103.966759 71.502826 
L 104.12536 81.511995 
L 104.28396 81.511995 
L 104.44256 93.482702 
L 104.60116 93.482702 
L 104.75976 106.939008 
L 104.91836 106.939008 
L 105.076961 121.985433 
L 105.235561 121.985433 
L 105.394161 137.94296 
L 105.552761 137.94296 
L 105.711361 154.682036 
L 105.869961 154.682036 
L 106.028562 171.766133 
L 106.187162 171.766133 
L 106.345762 189.042749 
L 106.504362 189.042749 
L 106.662962 205.922113 
L 106.821562 205.922113 
L 106.980163 222.120745 
L 107.138763 222.120745 
L 107.297363 237.491639 
L 107.455963 237.491639 
L 107.614563 251.458542 
L 107.773163 251.458542 
L 107.931764 263.967743 
L 108.090364 263.967743 
L 108.248964 274.644961 
L 108.407564 274.644961 
L 108.566164 283.245367 
L 108.724764 283.245367 
L 108.883365 289.610478 
L 109.041965 289.610478 
L 109.200565 293.809863 
L 109.359165 293.809863 
L 109.517765 295.409567 
L 109.676365 295.409567 
L 109.834966 294.616037 
L 109.993566 294.616037 
L 110.152166 291.37751 
L 110.310766 291.37751 
L 110.469366 285.813897 
L 110.627966 285.813897 
L 110.786567 278.018476 
L 110.945167 278.018476 
L 111.103767 268.068707 
L 111.262367 268.068707 
L 111.420967 256.240197 
L 111.579567 256.240197 
L 111.738168 242.795541 
L 111.896768 242.795541 
L 112.055368 227.839667 
L 112.213968 227.839667 
L 112.372568 211.904817 
L 112.531168 211.904817 
L 112.689769 195.176514 
L 112.848369 195.176514 
L 113.006969 178.081059 
L 113.165569 178.081059 
L 113.324169 160.849816 
L 113.482769 160.849816 
L 113.64137 143.994006 
L 113.79997 143.994006 
L 113.95857 127.631668 
L 114.11717 127.631668 
L 114.27577 112.347079 
L 114.43437 112.347079 
L 114.592971 98.254227 
L 114.751571 98.254227 
L 114.910171 85.670741 
L 115.068771 85.670741 
L 115.227371 74.953645 
L 115.385971 74.953645 
L 115.544572 66.150102 
L 115.703172 66.150102 
L 115.861772 59.633346 
L 116.020372 59.633346 
L 116.178972 55.391568 
L 116.337573 55.391568 
L 116.496173 53.691105 
L 116.654773 53.691105 
L 116.813373 54.406669 
L 116.971973 54.406669 
L 117.130573 57.427448 
L 117.289174 57.427448 
L 117.447774 62.839688 
L 117.606374 62.839688 
L 117.764974 70.617439 
L 117.923574 70.617439 
L 118.082174 80.546383 
L 118.240775 80.546383 
L 118.399375 92.195817 
L 118.557975 92.195817 
L 118.716575 105.655376 
L 118.875175 105.655376 
L 119.033775 120.443785 
L 119.192376 120.443785 
L 119.350976 136.339925 
L 119.509576 136.339925 
L 119.668176 153.085254 
L 119.826776 153.085254 
L 119.985376 170.062397 
L 120.143977 170.062397 
L 120.302577 187.398471 
L 120.461177 187.398471 
L 120.619777 204.320324 
L 120.778377 204.320324 
L 120.936977 220.601346 
L 121.095578 220.601346 
L 121.254178 236.016306 
L 121.412778 236.016306 
L 121.571378 250.218529 
L 121.729978 250.218529 
L 121.888578 262.791047 
L 122.047179 262.791047 
L 122.205779 273.68307 
L 122.364379 273.68307 
L 122.522979 282.52012 
L 122.681579 282.52012 
L 122.840179 289.090919 
L 122.99878 289.090919 
L 123.15738 293.471699 
L 123.31598 293.471699 
L 123.47458 295.341342 
L 123.63318 295.341342 
L 123.79178 294.78019 
L 123.950381 294.78019 
L 124.108981 291.901725 
L 124.267581 291.901725 
L 124.426181 286.427494 
L 124.584781 286.427494 
L 124.743381 278.94943 
L 124.901982 278.94943 
L 125.060582 269.062041 
L 125.219182 269.062041 
L 125.377782 257.460844 
L 125.536382 257.460844 
L 125.694982 244.133273 
L 125.853583 244.133273 
L 126.012183 229.394387 
L 126.170783 229.394387 
L 126.329383 213.521839 
L 126.487983 213.521839 
L 126.646583 196.788667 
L 126.805184 196.788667 
L 126.963784 179.749533 
L 127.122384 179.749533 
L 127.280984 162.52546 
L 127.439584 162.52546 
L 127.598184 145.585936 
L 127.756785 145.585936 
L 127.915385 129.191804 
L 128.073985 129.191804 
L 128.232585 113.699384 
L 128.391185 113.699384 
L 128.549785 99.485063 
L 128.708386 99.485063 
L 128.866986 86.823203 
L 129.025586 86.823203 
L 129.184186 75.843921 
L 129.342786 75.843921 
L 129.501387 66.978505 
L 129.659987 66.978505 
L 129.818587 60.189198 
L 129.977187 60.189198 
L 130.135787 55.748454 
L 130.294387 55.748454 
L 130.452988 53.745264 
L 130.611588 53.745264 
L 130.770188 54.182259 
L 130.928788 54.182259 
L 131.087388 56.967718 
L 131.245988 56.967718 
L 131.404589 62.245359 
L 131.563189 62.245359 
L 131.721789 69.795914 
L 131.880389 69.795914 
L 132.038989 79.491739 
L 132.197589 79.491739 
L 132.35619 91.016451 
L 132.51479 91.016451 
L 132.67339 104.218053 
L 132.83199 104.218053 
L 132.99059 119.037964 
L 133.14919 119.037964 
L 133.307791 134.688361 
L 133.466391 134.688361 
L 133.624991 151.417014 
L 133.783591 151.417014 
L 133.942191 168.47185 
L 134.100791 168.47185 
L 134.259392 185.739582 
L 134.417992 185.739582 
L 134.576592 202.664669 
L 134.735192 202.664669 
L 134.893792 219.068172 
L 135.052392 219.068172 
L 135.210993 234.589094 
L 135.369593 234.589094 
L 135.528193 248.906746 
L 135.686793 248.906746 
L 135.845393 261.68012 
L 136.003993 261.68012 
L 136.162594 272.698365 
L 136.321194 272.698365 
L 136.479794 281.757079 
L 136.638394 281.757079 
L 136.796994 288.536684 
L 136.955594 288.536684 
L 137.114195 293.156134 
L 137.272795 293.156134 
L 137.431395 295.360921 
L 137.589995 295.360921 
L 137.748595 294.858214 
L 137.907195 294.858214 
L 138.065796 292.256428 
L 138.224396 292.256428 
L 138.382996 287.095561 
L 138.541596 287.095561 
L 138.700196 279.761663 
L 138.858796 279.761663 
L 139.017397 270.118692 
L 139.175997 270.118692 
L 139.334597 258.630995 
L 139.493197 258.630995 
L 139.651797 245.52949 
L 139.810397 245.52949 
L 139.968998 230.769544 
L 140.127598 230.769544 
L 140.286198 215.069605 
L 140.444798 215.069605 
L 140.603398 198.505027 
L 140.761998 198.505027 
L 140.920599 181.364978 
L 141.079199 181.364978 
L 141.237799 164.258905 
L 141.396399 164.258905 
L 141.554999 147.211862 
L 141.7136 147.211862 
L 141.8722 130.690573 
L 142.0308 130.690573 
L 142.1894 115.185431 
L 142.348 115.185431 
L 142.5066 100.813289 
L 142.665201 100.813289 
L 142.823801 88.026219 
L 142.982401 88.026219 
L 143.141001 76.856679 
L 143.299601 76.856679 
L 143.458201 67.691887 
L 143.616802 67.691887 
L 143.775402 60.762312 
L 143.934002 60.762312 
L 144.092602 56.053382 
L 144.251202 56.053382 
L 144.409802 53.859369 
L 144.568403 53.859369 
L 144.727003 54.037023 
L 144.885603 54.037023 
L 145.044203 56.610521 
L 145.202803 56.610521 
L 145.361403 61.648244 
L 145.520004 61.648244 
L 145.678604 69.015982 
L 145.837204 69.015982 
L 145.995804 78.359461 
L 146.154404 78.359461 
L 146.313004 89.81809 
L 146.471605 89.81809 
L 146.630205 102.923764 
L 146.788805 102.923764 
L 146.947405 117.499627 
L 147.106005 117.499627 
L 147.264605 133.196353 
L 147.423206 133.196353 
L 147.581806 149.736033 
L 147.740406 149.736033 
L 147.899006 166.84982 
L 148.057606 166.84982 
L 148.216206 184.060841 
L 148.374807 184.060841 
L 148.533407 201.011839 
L 148.692007 201.011839 
L 148.850607 217.524323 
L 149.009207 217.524323 
L 149.167807 233.161687 
L 149.326408 233.161687 
L 149.485008 247.603048 
L 149.643608 247.603048 
L 149.802208 260.510846 
L 149.960808 260.510846 
L 150.119408 271.67836 
L 150.278009 271.67836 
L 150.436609 280.927235 
L 150.595209 280.927235 
L 150.753809 288.060492 
L 150.912409 288.060492 
L 151.071009 292.842965 
L 151.22961 292.842965 
L 151.38821 295.130978 
L 151.86401 295.100995 
L 152.02261 292.671 
L 152.181211 292.671 
L 152.339811 287.659889 
L 152.498411 287.659889 
L 152.657011 280.42486 
L 152.815611 280.42486 
L 152.974211 271.173511 
L 153.132812 271.173511 
L 153.291412 259.805685 
L 153.450012 259.805685 
L 153.608612 246.805661 
L 153.767212 246.805661 
L 153.925812 232.361533 
L 154.084413 232.361533 
L 154.243013 216.581641 
L 154.401613 216.581641 
L 154.560213 200.112289 
L 154.718813 200.112289 
L 154.877414 183.095969 
L 155.036014 183.095969 
L 155.194614 165.897456 
L 155.353214 165.897456 
L 155.511814 148.825573 
L 155.670414 148.825573 
L 155.829015 132.287588 
L 155.987615 132.287588 
L 156.146215 116.669745 
L 156.304815 116.669745 
L 156.463415 102.086362 
L 156.622015 102.086362 
L 156.780616 89.114469 
L 156.939216 89.114469 
L 157.097816 77.8287 
L 157.256416 77.8287 
L 157.415016 68.512574 
L 157.573616 68.512574 
L 157.732217 61.315963 
L 157.890817 61.315963 
L 158.049417 56.499865 
L 158.208017 56.499865 
L 158.366617 53.930419 
L 158.842418 53.860694 
L 159.001018 56.311301 
L 159.159618 56.311301 
L 159.318218 61.141894 
L 159.476818 61.141894 
L 159.635419 68.11879 
L 159.794019 68.11879 
L 159.952619 77.427669 
L 160.111219 77.427669 
L 160.269819 88.660252 
L 160.428419 88.660252 
L 160.58702 101.544964 
L 160.74562 101.544964 
L 160.90422 115.9888 
L 161.06282 115.9888 
L 161.22142 131.646756 
L 161.38002 131.646756 
L 161.538621 148.140381 
L 161.697221 148.140381 
L 161.855821 165.119647 
L 162.014421 165.119647 
L 162.173021 182.374171 
L 162.331621 182.374171 
L 162.490222 199.433195 
L 162.648822 199.433195 
L 162.807422 215.991597 
L 162.966022 215.991597 
L 163.124622 231.695121 
L 163.283222 231.695121 
L 163.441823 246.299934 
L 163.600423 246.299934 
L 163.759023 259.341981 
L 163.917623 259.341981 
L 164.076223 270.691766 
L 164.234823 270.691766 
L 164.393424 280.136024 
L 164.552024 280.136024 
L 164.710624 287.461292 
L 164.869224 287.461292 
L 165.027824 292.43453 
L 165.186424 292.43453 
L 165.345025 295.064175 
L 165.503625 295.064175 
L 165.820825 295.219678 
L 165.979425 292.901488 
L 166.138025 292.901488 
L 166.296626 288.304091 
L 166.455226 288.304091 
L 166.613826 281.291466 
L 166.772426 281.291466 
L 166.931026 272.145902 
L 167.089627 272.145902 
L 167.248227 261.024716 
L 167.406827 261.024716 
L 167.565427 248.125431 
L 167.724027 248.125431 
L 167.882627 233.76638 
L 168.041228 233.76638 
L 168.199828 218.140413 
L 168.358428 218.140413 
L 168.517028 201.782984 
L 168.675628 201.782984 
L 168.834228 184.743754 
L 168.992829 184.743754 
L 169.151429 167.538266 
L 169.310029 167.538266 
L 169.468629 150.473553 
L 169.627229 150.473553 
L 169.785829 133.829879 
L 169.94443 133.829879 
L 170.10303 118.086047 
L 170.26163 118.086047 
L 170.42023 103.546634 
L 170.57883 103.546634 
L 170.73743 90.227285 
L 170.896031 90.227285 
L 171.054631 78.91058 
L 171.213231 78.91058 
L 171.371831 69.290538 
L 171.530431 69.290538 
L 171.689031 61.976453 
L 171.847632 61.976453 
L 172.006232 56.772921 
L 172.164832 56.772921 
L 172.323432 54.022548 
L 172.482032 54.022548 
L 172.640632 53.843355 
L 172.799233 53.843355 
L 172.957833 55.957727 
L 173.116433 55.957727 
L 173.275033 60.507413 
L 173.433633 60.507413 
L 173.592233 67.368003 
L 173.750834 67.368003 
L 173.909434 76.467512 
L 174.068034 76.467512 
L 174.226634 87.484335 
L 174.385234 87.484335 
L 174.543834 100.238266 
L 174.702435 100.238266 
L 174.861035 114.589271 
L 175.019635 114.589271 
L 175.178235 130.102361 
L 175.336835 130.102361 
L 175.495435 146.444204 
L 175.654036 146.444204 
L 175.812636 163.538257 
L 175.971236 163.538257 
L 176.129836 180.702852 
L 176.288436 180.702852 
L 176.447036 197.781709 
L 176.605637 197.781709 
L 176.764237 214.347144 
L 176.922837 214.347144 
L 177.081437 230.202197 
L 177.240037 230.202197 
L 177.398637 244.918192 
L 177.557238 244.918192 
L 177.715838 258.088507 
L 177.874438 258.088507 
L 178.033038 269.703341 
L 178.191638 269.703341 
L 178.350238 279.341111 
L 178.508839 279.341111 
L 178.667439 286.865502 
L 178.826039 286.865502 
L 178.984639 292.117387 
L 179.143239 292.117387 
L 179.301839 294.861273 
L 179.46044 294.861273 
L 179.61904 295.271051 
L 179.77764 295.271051 
L 179.93624 293.219274 
L 180.09484 293.219274 
L 180.253441 288.816656 
L 180.412041 288.816656 
L 180.570641 282.119342 
L 180.729241 282.119342 
L 180.887841 273.142685 
L 181.046441 273.142685 
L 181.205042 262.159683 
L 181.363642 262.159683 
L 181.522242 249.486016 
L 181.680842 249.486016 
L 181.839442 235.194528 
L 181.998042 235.194528 
L 182.156643 219.686444 
L 182.315243 219.686444 
L 182.473843 203.328217 
L 182.632443 203.328217 
L 182.791043 186.421715 
L 182.949643 186.421715 
L 183.108244 169.094622 
L 183.266844 169.094622 
L 183.425444 152.178399 
L 183.584044 152.178399 
L 183.742644 135.473319 
L 183.901244 135.473319 
L 184.059845 119.529118 
L 184.218445 119.529118 
L 184.377045 104.891556 
L 184.535645 104.891556 
L 184.694245 91.500124 
L 184.852845 91.500124 
L 185.011446 79.88488 
L 185.170046 79.88488 
L 185.328646 70.151612 
L 185.487246 70.151612 
L 185.645846 62.521922 
L 185.804446 62.521922 
L 185.963047 57.177361 
L 186.121647 57.177361 
L 186.280247 54.293324 
L 186.438847 54.293324 
L 186.597447 53.741563 
L 186.756047 53.741563 
L 186.914648 55.613504 
L 187.073248 55.613504 
L 187.231848 60.013473 
L 187.390448 60.013473 
L 187.549048 66.573031 
L 187.707648 66.573031 
L 187.866249 75.51992 
L 188.024849 75.51992 
L 188.183449 86.329867 
L 188.342049 86.329867 
L 188.500649 98.914073 
L 188.659249 98.914073 
L 188.81785 113.088398 
L 188.97645 113.088398 
L 189.13505 128.59802 
L 189.29365 128.59802 
L 189.45225 144.827376 
L 189.61085 144.827376 
L 189.769451 161.888037 
L 189.928051 161.888037 
L 190.086651 179.048639 
L 190.245251 179.048639 
L 190.403851 196.113196 
L 190.562451 196.113196 
L 190.721052 212.857259 
L 190.879652 212.857259 
L 191.038252 228.733976 
L 191.196852 228.733976 
L 191.355452 243.538476 
L 191.514052 243.538476 
L 191.672653 256.918804 
L 191.831253 256.918804 
L 191.989853 268.669932 
L 192.148453 268.669932 
L 192.307053 278.478849 
L 192.465654 278.478849 
L 192.624254 286.261042 
L 192.782854 286.261042 
L 192.941454 291.633188 
L 193.100054 291.633188 
L 193.258654 294.727277 
L 193.417255 294.727277 
L 193.575855 295.350478 
L 193.734455 295.350478 
L 193.893055 293.573433 
L 194.051655 293.573433 
L 194.210255 289.450611 
L 194.368856 289.450611 
L 194.527456 282.81595 
L 194.686056 282.81595 
L 194.844656 274.028072 
L 195.003256 274.028072 
L 195.161856 263.315865 
L 195.320457 263.315865 
L 195.479057 250.76016 
L 195.637657 250.76016 
L 195.796257 236.648508 
L 195.954857 236.648508 
L 196.113457 221.226222 
L 196.272058 221.226222 
L 196.430658 204.982508 
L 196.589258 204.982508 
L 196.747858 188.110139 
L 196.906458 188.110139 
L 197.065058 170.877318 
L 197.223659 170.877318 
L 197.382259 153.64438 
L 197.540859 153.64438 
L 197.699459 137.061665 
L 197.858059 137.061665 
L 198.016659 121.100105 
L 198.17526 121.100105 
L 198.33386 106.147407 
L 198.49246 106.147407 
L 198.65106 92.752351 
L 198.80966 92.752351 
L 198.96826 80.97728 
L 199.126861 80.97728 
L 199.285461 70.93468 
L 199.444061 70.93468 
L 199.602661 63.227083 
L 199.761261 63.227083 
L 199.919861 57.58001 
L 200.078462 57.58001 
L 200.237062 54.318242 
L 200.395662 54.318242 
L 200.554262 53.70293 
L 200.712862 53.70293 
L 200.871462 55.396127 
L 201.030063 55.396127 
L 201.188663 59.435801 
L 201.347263 59.435801 
L 201.505863 65.835667 
L 201.664463 65.835667 
L 201.823063 74.607201 
L 201.981664 74.607201 
L 202.140264 85.130142 
L 202.298864 85.130142 
L 202.457464 97.690425 
L 202.616064 97.690425 
L 202.774664 111.592435 
L 202.933265 111.592435 
L 203.091865 127.060152 
L 203.250465 127.060152 
L 203.409065 143.315087 
L 203.567665 143.315087 
L 203.726265 160.151864 
L 203.884866 160.151864 
L 204.043466 177.351624 
L 204.202066 177.351624 
L 204.360666 194.550001 
L 204.519266 194.550001 
L 204.677867 211.23032 
L 204.836467 211.23032 
L 204.995067 227.243935 
L 205.153667 227.243935 
L 205.312267 242.156949 
L 205.470867 242.156949 
L 205.629468 255.717229 
L 205.788068 255.717229 
L 205.946668 267.577163 
L 206.105268 267.577163 
L 206.263868 277.598216 
L 206.422468 277.598216 
L 206.581069 285.575519 
L 206.739669 285.575519 
L 206.898269 291.34217 
L 207.056869 291.34217 
L 207.215469 294.539805 
L 207.374069 294.539805 
L 207.53267 295.403235 
L 207.69127 295.403235 
L 207.84987 293.816818 
L 208.00847 293.816818 
L 208.16707 289.833115 
L 208.32567 289.833115 
L 208.484271 283.54373 
L 208.642871 283.54373 
L 208.801471 275.04118 
L 208.960071 275.04118 
L 209.118671 264.481944 
L 209.277271 264.481944 
L 209.435872 252.012699 
L 209.594472 252.012699 
L 209.753072 238.112093 
L 209.911672 238.112093 
L 210.070272 222.834595 
L 210.228872 222.834595 
L 210.387473 206.59131 
L 210.546073 206.59131 
L 210.704673 189.657398 
L 210.863273 189.657398 
L 211.021873 172.542831 
L 211.180473 172.542831 
L 211.339074 155.39497 
L 211.497674 155.39497 
L 211.656274 138.637971 
L 211.814874 138.637971 
L 211.973474 122.635792 
L 212.132074 122.635792 
L 212.290675 107.494881 
L 212.449275 107.494881 
L 212.607875 94.022034 
L 212.766475 94.022034 
L 212.925075 81.989745 
L 213.083675 81.989745 
L 213.242276 71.962926 
L 213.400876 71.962926 
L 213.559476 63.773487 
L 213.718076 63.773487 
L 213.876676 58.022265 
L 214.035276 58.022265 
L 214.193877 54.571738 
L 214.352477 54.571738 
L 214.511077 53.675344 
L 214.669677 53.675344 
L 214.828277 55.086114 
L 214.986877 55.086114 
L 215.145478 58.923412 
L 215.304078 58.923412 
L 215.462678 65.153144 
L 215.621278 65.153144 
L 215.779878 73.635491 
L 215.938478 73.635491 
L 216.097079 84.040665 
L 216.255679 84.040665 
L 216.414279 96.3509 
L 216.572879 96.3509 
L 216.731479 110.315933 
L 216.890079 110.315933 
L 217.04868 125.458442 
L 217.20728 125.458442 
L 217.36588 141.708409 
L 217.52448 141.708409 
L 217.68308 158.443998 
L 217.841681 158.443998 
L 218.000281 175.718996 
L 218.158881 175.718996 
L 218.317481 192.865221 
L 218.476081 192.865221 
L 218.634681 209.622083 
L 218.793282 209.622083 
L 218.951882 225.742088 
L 219.110482 225.742088 
L 219.269082 240.817307 
L 219.427682 240.817307 
L 219.586282 254.445539 
L 219.744883 254.445539 
L 219.903483 266.53265 
L 220.062083 266.53265 
L 220.220683 276.708797 
L 220.379283 276.708797 
L 220.537883 284.905308 
L 220.696484 284.905308 
L 220.855084 290.79863 
L 221.013684 290.79863 
L 221.172284 294.325622 
L 221.330884 294.325622 
L 221.489484 295.443815 
L 221.648085 295.443815 
L 221.806685 294.068171 
L 221.965285 294.068171 
L 222.123885 290.381857 
L 222.282485 290.381857 
L 222.441085 284.276223 
L 222.599686 284.276223 
L 222.758286 275.906189 
L 222.916886 275.906189 
L 223.075486 265.554784 
L 223.234086 265.554784 
L 223.392686 253.307222 
L 223.551287 253.307222 
L 223.709887 239.425376 
L 223.868487 239.425376 
L 224.027087 224.418324 
L 224.185687 224.418324 
L 224.344287 208.186358 
L 224.502888 208.186358 
L 224.661488 191.396162 
L 224.820088 191.396162 
L 224.978688 174.185667 
L 225.137288 174.185667 
L 225.295888 156.981328 
L 225.454489 156.981328 
L 225.613089 140.268475 
L 225.771689 140.268475 
L 225.930289 124.078882 
L 226.088889 124.078882 
L 226.247489 109.010248 
L 226.40609 109.010248 
L 226.56469 95.219654 
L 226.72329 95.219654 
L 226.88189 82.976378 
L 227.04049 82.976378 
L 227.19909 72.767288 
L 227.357691 72.767288 
L 227.516291 64.510676 
L 227.674891 64.510676 
L 227.833491 58.552557 
L 227.992091 58.552557 
L 228.150691 54.827104 
L 228.309292 54.827104 
L 228.467892 53.656642 
L 228.626492 53.656642 
L 228.785092 54.839008 
L 228.943692 54.839008 
L 229.102292 58.508295 
L 229.260893 58.508295 
L 229.419493 64.444516 
L 229.578093 64.444516 
L 229.736693 72.682542 
L 229.895293 72.682542 
L 230.053894 82.968878 
L 230.212494 82.968878 
L 230.371094 95.110674 
L 230.529694 95.110674 
L 230.688294 108.923905 
L 230.846894 108.923905 
L 231.005495 123.930996 
L 231.164095 123.930996 
L 231.322695 140.050377 
L 231.481295 140.050377 
L 231.639895 156.901473 
L 231.798495 156.901473 
L 231.957096 173.956581 
L 232.115696 173.956581 
L 232.274296 191.25901 
L 232.432896 191.25901 
L 232.591496 208.062765 
L 232.750096 208.062765 
L 232.908697 224.217915 
L 233.067297 224.217915 
L 233.225897 239.362976 
L 233.384497 239.362976 
L 233.543097 253.264849 
L 233.701697 253.264849 
L 233.860298 265.400898 
L 234.018898 265.400898 
L 234.177498 275.929255 
L 234.336098 275.929255 
L 234.494698 284.118636 
L 234.653298 284.118636 
L 234.811899 290.264597 
L 234.970499 290.264597 
L 235.129099 294.134877 
L 235.287699 294.134877 
L 235.446299 295.428776 
L 235.604899 295.428776 
L 235.7635 294.433162 
L 235.9221 294.433162 
L 236.0807 290.804377 
L 236.3979 290.804377 
L 236.5565 284.92818 
L 236.715101 284.92818 
L 236.873701 276.747605 
L 237.032301 276.747605 
L 237.190901 266.6285 
L 237.349501 266.6285 
L 237.508101 254.493192 
L 237.666702 254.493192 
L 237.825302 240.950503 
L 237.983902 240.950503 
L 238.142502 225.913625 
L 238.301102 225.913625 
L 238.459702 209.693484 
L 238.618303 209.693484 
L 238.776903 193.105898 
L 238.935503 193.105898 
L 239.094103 175.859927 
L 239.252703 175.859927 
L 239.411303 158.678616 
L 239.569904 158.678616 
L 239.728504 141.785557 
L 239.887104 141.785557 
L 240.045704 125.65172 
L 240.204304 125.65172 
L 240.362904 110.359299 
L 240.521505 110.359299 
L 240.680105 96.506111 
L 240.838705 96.506111 
L 240.997305 84.167784 
L 241.155905 84.167784 
L 241.314505 73.7231 
L 241.473106 73.7231 
L 241.631706 65.22359 
L 241.790306 65.22359 
L 241.948906 59.002371 
L 242.107506 59.002371 
L 242.266106 55.079899 
L 242.424707 55.079899 
L 242.583307 53.643803 
L 242.741907 53.643803 
L 242.900507 54.581323 
L 243.059107 54.581323 
L 243.217708 58.048292 
L 243.376308 58.048292 
L 243.534908 63.794956 
L 243.693508 63.794956 
L 243.852108 71.736548 
L 244.010708 71.736548 
L 244.169309 81.862452 
L 244.327909 81.862452 
L 244.486509 93.896514 
L 244.645109 93.896514 
L 244.803709 107.476198 
L 244.962309 107.476198 
L 245.12091 122.436747 
L 245.27951 122.436747 
L 245.43811 138.481065 
L 245.59671 138.481065 
L 245.75531 155.198516 
L 245.91391 155.198516 
L 246.072511 172.33348 
L 246.231111 172.33348 
L 246.389711 189.626948 
L 246.548311 189.626948 
L 246.706911 206.393512 
L 246.865511 206.393512 
L 247.024112 222.674631 
L 247.182712 222.674631 
L 247.341312 237.993059 
L 247.499912 237.993059 
L 247.658512 251.942974 
L 247.817112 251.942974 
L 247.975713 264.319174 
L 248.134313 264.319174 
L 248.292913 274.909308 
L 248.451513 274.909308 
L 248.610113 283.508877 
L 248.768713 283.508877 
L 248.927314 289.859961 
L 249.085914 289.859961 
L 249.244514 293.779179 
L 249.403114 293.779179 
L 249.561714 295.407287 
L 249.720314 295.407287 
L 249.878915 294.506315 
L 250.037515 294.506315 
L 250.196115 291.323701 
L 250.354715 291.323701 
L 250.513315 285.678441 
L 250.671915 285.678441 
L 250.830516 277.706087 
L 250.989116 277.706087 
L 251.147716 267.730348 
L 251.306316 267.730348 
L 251.464916 255.833632 
L 251.623516 255.833632 
L 251.782117 242.296496 
L 251.940717 242.296496 
L 252.099317 227.376157 
L 252.257917 227.376157 
L 252.416517 211.371114 
L 252.575117 211.371114 
L 252.733718 194.654832 
L 252.892318 194.654832 
L 253.050918 177.508043 
L 253.209518 177.508043 
L 253.368118 160.28997 
L 253.526718 160.28997 
L 253.685319 143.452667 
L 253.843919 143.452667 
L 254.002519 127.120818 
L 254.161119 127.120818 
L 254.319719 111.848717 
L 254.478319 111.848717 
L 254.63692 97.74176 
L 254.79552 97.74176 
L 254.95412 85.330746 
L 255.11272 85.330746 
L 255.27132 74.688498 
L 255.429921 74.688498 
L 255.588521 65.92351 
L 255.747121 65.92351 
L 255.905721 59.445347 
L 256.064321 59.445347 
L 256.222921 55.416193 
L 256.381522 55.416193 
L 256.540122 53.717561 
L 256.698722 53.717561 
L 256.857322 54.382317 
L 257.015922 54.382317 
L 257.174522 57.559398 
L 257.333123 57.559398 
L 257.491723 63.137486 
L 257.650323 63.137486 
L 257.808923 70.91964 
L 257.967523 70.91964 
L 258.126123 80.801925 
L 258.284724 80.801925 
L 258.443324 92.660943 
L 258.601924 92.660943 
L 258.760524 106.085689 
L 258.919124 106.085689 
L 259.077724 120.909963 
L 259.236325 120.909963 
L 259.394925 136.885024 
L 259.553525 136.885024 
L 259.712125 153.525249 
L 259.870725 153.525249 
L 260.029325 170.643342 
L 260.187926 170.643342 
L 260.346526 187.875053 
L 260.505126 187.875053 
L 260.663726 204.844188 
L 260.822326 204.844188 
L 260.980926 221.104734 
L 261.139527 221.104734 
L 261.298127 236.56234 
L 261.456727 236.56234 
L 261.615327 250.637036 
L 261.773927 250.637036 
L 261.932527 263.206611 
L 262.091128 263.206611 
L 262.249728 273.997193 
L 262.408328 273.997193 
L 262.566928 282.755693 
L 262.725528 282.755693 
L 262.884128 289.332473 
L 263.042729 289.332473 
L 263.201329 293.488492 
L 263.359929 293.488492 
L 263.518529 295.358252 
L 263.677129 295.358252 
L 263.835729 294.766533 
L 263.99433 294.766533 
L 264.15293 291.745423 
L 264.31153 291.745423 
L 264.47013 286.218572 
L 264.62873 286.218572 
L 264.78733 278.50135 
L 264.945931 278.50135 
L 265.104531 268.689219 
L 265.263131 268.689219 
L 265.421731 257.114693 
L 265.580331 257.114693 
L 265.738931 243.702006 
L 265.897532 243.702006 
L 266.056132 228.910461 
L 266.214732 228.910461 
L 266.373332 212.897781 
L 266.531932 212.897781 
L 266.690532 196.248847 
L 266.849133 196.248847 
L 267.007733 179.244294 
L 267.166333 179.244294 
L 267.324933 161.934014 
L 267.483533 161.934014 
L 267.642133 145.022174 
L 267.800734 145.022174 
L 267.959334 128.72323 
L 268.117934 128.72323 
L 268.276534 113.251324 
L 268.435134 113.251324 
L 268.593735 99.03899 
L 268.752335 99.03899 
L 268.910935 86.462323 
L 269.069535 86.462323 
L 269.228135 75.530577 
L 269.386735 75.530577 
L 269.545336 66.583064 
L 269.703936 66.583064 
L 269.862536 60.033773 
L 270.021136 60.033773 
L 270.179736 55.634603 
L 270.338336 55.634603 
L 270.496937 53.708619 
L 270.655537 53.708619 
L 270.814137 54.204079 
L 270.972737 54.204079 
L 271.131337 57.184063 
L 271.289937 57.184063 
L 271.448538 62.454008 
L 271.607138 62.454008 
L 271.765738 70.087517 
L 271.924338 70.087517 
L 272.082938 79.841826 
L 272.241538 79.841826 
L 272.400139 91.394942 
L 272.558739 91.394942 
L 272.717339 104.68579 
L 272.875939 104.68579 
L 273.034539 119.419435 
L 273.193139 119.419435 
L 273.35174 135.300516 
L 273.51034 135.300516 
L 273.66894 151.968016 
L 273.82754 151.968016 
L 273.98614 168.998519 
L 274.14474 168.998519 
L 274.303341 186.252906 
L 274.461941 186.252906 
L 274.620541 203.256252 
L 274.779141 203.256252 
L 274.937741 219.63022 
L 275.096341 219.63022 
L 275.254942 234.997665 
L 275.413542 234.997665 
L 275.572142 249.355391 
L 275.730742 249.355391 
L 275.889342 262.073885 
L 276.047942 262.073885 
L 276.206543 273.035984 
L 276.365143 273.035984 
L 276.523743 282.035278 
L 276.682343 282.035278 
L 276.840943 288.706331 
L 276.999543 288.706331 
L 277.158144 293.245165 
L 277.316744 293.245165 
L 277.475344 295.357278 
L 277.633944 295.357278 
L 277.792544 294.858604 
L 277.951144 294.858604 
L 278.109745 292.103653 
L 278.268345 292.103653 
L 278.426945 286.810212 
L 278.585545 286.810212 
L 278.744145 279.467898 
L 278.902745 279.467898 
L 279.061346 269.820173 
L 279.219946 269.820173 
L 279.378546 258.314339 
L 279.537146 258.314339 
L 279.695746 245.032336 
L 279.854346 245.032336 
L 280.012947 230.329471 
L 280.171547 230.329471 
L 280.330147 214.630993 
L 280.488747 214.630993 
L 280.647347 197.912139 
L 280.805948 197.912139 
L 280.964548 180.808132 
L 281.123148 180.808132 
L 281.281748 163.690701 
L 281.440348 163.690701 
L 281.598948 146.625053 
L 281.757549 146.625053 
L 281.916149 130.197023 
L 282.074749 130.197023 
L 282.233349 114.707759 
L 282.391949 114.707759 
L 282.550549 100.344675 
L 282.70915 100.344675 
L 282.86775 87.537734 
L 283.02635 87.537734 
L 283.18495 76.556095 
L 283.34355 76.556095 
L 283.50215 67.435546 
L 283.660751 67.435546 
L 283.819351 60.645129 
L 283.977951 60.645129 
L 284.136551 55.935031 
L 284.295151 55.935031 
L 284.453751 53.698898 
L 284.612352 53.698898 
L 284.770952 54.089974 
L 284.929552 54.089974 
L 285.088152 56.782506 
L 285.246752 56.782506 
L 285.405352 61.769576 
L 285.563953 61.769576 
L 285.722553 69.197844 
L 285.881153 69.197844 
L 286.039753 78.75081 
L 286.198353 78.75081 
L 286.356953 90.267651 
L 286.515554 90.267651 
L 286.674154 103.325653 
L 286.832754 103.325653 
L 286.991354 117.975975 
L 287.149954 117.975975 
L 287.308554 133.686143 
L 287.467155 133.686143 
L 287.625755 150.288515 
L 287.784355 150.288515 
L 287.942955 167.336708 
L 288.101555 167.336708 
L 288.260155 184.578451 
L 288.418756 184.578451 
L 288.577356 201.618909 
L 288.735956 201.618909 
L 288.894556 218.01612 
L 289.053156 218.01612 
L 289.211756 233.580291 
L 289.370357 233.580291 
L 289.528957 247.986663 
L 289.687557 247.986663 
L 289.846157 260.933872 
L 290.004757 260.933872 
L 290.163357 272.06819 
L 290.321958 272.06819 
L 290.480558 281.194174 
L 290.639158 281.194174 
L 290.797758 288.161407 
L 290.956358 288.161407 
L 291.114958 292.84542 
L 291.273559 292.84542 
L 291.432159 295.198813 
L 291.590759 295.198813 
L 291.749359 295.021451 
L 291.907959 295.021451 
L 292.066559 292.567221 
L 292.22516 292.567221 
L 292.38376 287.498346 
L 292.54236 287.498346 
L 292.70096 280.169493 
L 292.85956 280.169493 
L 293.018161 270.784792 
L 293.176761 270.784792 
L 293.335361 259.438961 
L 293.493961 259.438961 
L 293.652561 246.397226 
L 293.811161 246.397226 
L 293.969762 231.721597 
L 294.128362 231.721597 
L 294.286962 216.110436 
L 294.445562 216.110436 
L 294.604162 199.58262 
L 294.762762 199.58262 
L 294.921363 182.514634 
L 295.079963 182.514634 
L 295.238563 165.294671 
L 295.397163 165.294671 
L 295.555763 148.218737 
L 295.714363 148.218737 
L 295.872964 131.759146 
L 296.031564 131.759146 
L 296.190164 116.169239 
L 296.348764 116.169239 
L 296.507364 101.695168 
L 296.665964 101.695168 
L 296.824565 88.698222 
L 296.983165 88.698222 
L 297.141765 77.466983 
L 297.300365 77.466983 
L 297.458965 68.201548 
L 297.617565 68.201548 
L 297.776166 61.149531 
L 297.934766 61.149531 
L 298.093366 56.322133 
L 298.251966 56.322133 
L 298.410566 53.889527 
L 298.886367 53.906105 
L 299.044967 56.368811 
L 299.203567 56.368811 
L 299.362167 61.298722 
L 299.520767 61.298722 
L 299.679368 68.362565 
L 299.837968 68.362565 
L 299.996568 77.701855 
L 300.155168 77.701855 
L 300.313768 89.010592 
L 300.472368 89.010592 
L 300.630969 102.087901 
L 300.789569 102.087901 
L 300.948169 116.520027 
L 301.106769 116.520027 
L 301.265369 132.095693 
L 301.423969 132.095693 
L 301.58257 148.65316 
L 301.74117 148.65316 
L 301.89977 165.63229 
L 302.05837 165.63229 
L 302.21697 183.000996 
L 302.37557 183.000996 
L 302.534171 199.939779 
L 302.692771 199.939779 
L 302.851371 216.434709 
L 303.009971 216.434709 
L 303.168571 232.219239 
L 303.327171 232.219239 
L 303.485772 246.630987 
L 303.644372 246.630987 
L 303.802972 259.680379 
L 303.961572 259.680379 
L 304.120172 271.078225 
L 304.278772 271.078225 
L 304.437373 280.404969 
L 304.595973 280.404969 
L 304.754573 287.655953 
L 304.913173 287.655953 
L 305.071773 292.571896 
L 305.230373 292.571896 
L 305.388974 295.023945 
L 305.864774 295.123341 
L 306.023374 292.903729 
L 306.181975 292.903729 
L 306.340575 288.077733 
L 306.499175 288.077733 
L 306.657775 281.001948 
L 306.816375 281.001948 
L 306.974975 271.763223 
L 307.133576 271.763223 
L 307.292176 260.611489 
L 307.450776 260.611489 
L 307.609376 247.731705 
L 307.767976 247.731705 
L 307.926576 233.211813 
L 308.085177 233.211813 
L 308.243777 217.699288 
L 308.402377 217.699288 
L 308.560977 201.169134 
L 308.719577 201.169134 
L 308.878177 184.236274 
L 309.036778 184.236274 
L 309.195378 166.891803 
L 309.353978 166.891803 
L 309.512578 149.91244 
L 309.671178 149.91244 
L 309.829778 133.342524 
L 309.988379 133.342524 
L 310.146979 117.622051 
L 310.305579 117.622051 
L 310.464179 103.045077 
L 310.622779 103.045077 
L 310.781379 89.883724 
L 310.93998 89.883724 
L 311.09858 78.516308 
L 311.25718 78.516308 
L 311.41578 68.99613 
L 311.57438 68.99613 
L 311.73298 61.716605 
L 311.891581 61.716605 
L 312.050181 56.691954 
L 312.208781 56.691954 
L 312.367381 54.006807 
L 312.525981 54.006807 
L 312.684581 53.77285 
L 312.843182 53.77285 
L 313.001782 56.089384 
L 313.160382 56.089384 
L 313.318982 60.700458 
L 313.477582 60.700458 
L 313.636182 67.662586 
L 313.794783 67.662586 
L 313.953383 76.70889 
L 314.111983 76.70889 
L 314.270583 87.780652 
L 314.429183 87.780652 
L 314.587783 100.71438 
L 314.746384 100.71438 
L 314.904984 114.992445 
L 315.063584 114.992445 
L 315.222184 130.614127 
L 315.380784 130.614127 
L 315.539384 147.010382 
L 315.697985 147.010382 
L 315.856585 164.06253 
L 316.015185 164.06253 
L 316.173785 181.182415 
L 316.332385 181.182415 
L 316.490985 198.345783 
L 316.649586 198.345783 
L 316.808186 215.11714 
L 316.966786 215.11714 
L 317.125386 230.826392 
L 317.283986 230.826392 
L 317.442586 245.485442 
L 317.601187 245.485442 
L 317.759787 258.595597 
L 317.918387 258.595597 
L 318.076987 270.03605 
L 318.235587 270.03605 
L 318.394188 279.615374 
L 318.552788 279.615374 
L 318.711388 287.122641 
L 318.869988 287.122641 
L 319.028588 292.14963 
L 319.187188 292.14963 
L 319.345789 295.005145 
L 319.504389 295.005145 
L 319.662989 295.270253 
L 319.821589 295.270253 
L 319.980189 293.190578 
L 320.138789 293.190578 
L 320.29739 288.661678 
L 320.45599 288.661678 
L 320.61459 281.760722 
L 320.77319 281.760722 
L 320.93179 272.674948 
L 321.09039 272.674948 
L 321.248991 261.846708 
L 321.407591 261.846708 
L 321.566191 249.070626 
L 321.724791 249.070626 
L 321.883391 234.774093 
L 322.041991 234.774093 
L 322.200592 219.1814 
L 322.359192 219.1814 
L 322.517792 202.783488 
L 322.676392 202.783488 
L 322.834992 185.878857 
L 322.993592 185.878857 
L 323.152193 168.680967 
L 323.310793 168.680967 
L 323.469393 151.538541 
L 323.627993 151.538541 
L 323.786593 134.990484 
L 323.945193 134.990484 
L 324.103794 119.08096 
L 324.262394 119.08096 
L 324.420994 104.294402 
L 324.579594 104.294402 
L 324.738194 91.19504 
L 324.896794 91.19504 
L 325.055395 79.471342 
L 325.213995 79.471342 
L 325.372595 69.908031 
L 325.531195 69.908031 
L 325.689795 62.355294 
L 325.848395 62.355294 
L 326.006996 57.089674 
L 326.165596 57.089674 
L 326.324196 54.139867 
L 326.482796 54.139867 
L 326.641396 53.72399 
L 326.799996 53.72399 
L 326.958597 55.756948 
L 327.117197 55.756948 
L 327.275797 60.159664 
L 327.434397 60.159664 
L 327.592997 66.923332 
L 327.751597 66.923332 
L 327.910198 75.762078 
L 328.068798 75.762078 
L 328.227398 86.685525 
L 328.385998 86.685525 
L 328.544598 99.367413 
L 328.703198 99.367413 
L 328.861799 113.577779 
L 329.020399 113.577779 
L 329.178999 129.017871 
L 329.337599 129.017871 
L 329.496199 145.455545 
L 329.654799 145.455545 
L 329.8134 162.417453 
L 329.972 162.417453 
L 330.1306 179.543981 
L 330.2892 179.543981 
L 330.4478 196.730981 
L 330.6064 196.730981 
L 330.765001 213.311378 
L 330.923601 213.311378 
L 331.082201 229.258814 
L 331.240801 229.258814 
L 331.399401 243.98868 
L 331.558002 243.98868 
L 331.716602 257.270293 
L 331.875202 257.270293 
L 332.033802 269.044742 
L 332.192402 269.044742 
L 332.351002 278.75549 
L 332.509603 278.75549 
L 332.668203 286.471483 
L 332.826803 286.471483 
L 332.985403 291.860754 
L 333.144003 291.860754 
L 333.302603 294.727686 
L 333.461204 294.727686 
L 333.619804 295.443679 
L 333.778404 295.443679 
L 333.937004 293.418163 
L 334.095604 293.418163 
L 334.254204 289.216752 
L 334.412805 289.216752 
L 334.571405 282.513282 
L 334.730005 282.513282 
L 334.888605 273.742099 
L 335.047205 273.742099 
L 335.205805 263.030458 
L 335.364406 263.030458 
L 335.523006 250.281728 
L 335.681606 250.281728 
L 335.840206 236.183966 
L 335.998806 236.183966 
L 336.157406 220.77861 
L 336.316007 220.77861 
L 336.474607 204.428662 
L 336.633207 204.428662 
L 336.791807 187.491379 
L 336.950407 187.491379 
L 337.109007 170.263059 
L 337.267608 170.263059 
L 337.426208 153.207541 
L 337.584808 153.207541 
L 337.743408 136.485395 
L 337.902008 136.485395 
L 338.060608 120.578131 
L 338.219209 120.578131 
L 338.377809 105.760013 
L 338.536409 105.760013 
L 338.695009 92.301622 
L 338.853609 92.301622 
L 339.012209 80.541084 
L 339.17081 80.541084 
L 339.32941 70.702029 
L 339.48801 70.702029 
L 339.64661 62.922466 
L 339.80521 62.922466 
L 339.96381 57.512213 
L 340.122411 57.512213 
L 340.281011 54.389934 
L 340.439611 54.389934 
L 340.598211 53.69545 
L 340.756811 53.69545 
L 340.915411 55.453734 
L 341.074012 55.453734 
L 341.232612 59.613435 
L 341.391212 59.613435 
L 341.549812 66.087897 
L 341.708412 66.087897 
L 341.867012 74.851365 
L 342.025613 74.851365 
L 342.184213 85.53433 
L 342.342813 85.53433 
L 342.501413 98.139616 
L 342.660013 98.139616 
L 342.818613 112.192647 
L 342.977214 112.192647 
L 343.135814 127.500459 
L 343.294414 127.500459 
L 343.453014 143.857556 
L 343.611614 143.857556 
L 343.770215 160.691391 
L 343.928815 160.691391 
L 344.087415 177.924796 
L 344.246015 177.924796 
L 344.404615 195.039382 
L 344.563215 195.039382 
L 344.721816 211.815999 
L 344.880416 211.815999 
L 345.039016 227.622426 
L 345.197616 227.622426 
L 345.356216 242.657337 
L 345.514816 242.657337 
L 345.673417 256.117773 
L 345.832017 256.117773 
L 345.990617 267.968726 
L 346.149217 267.968726 
L 346.307817 277.932698 
L 346.466417 277.932698 
L 346.625018 285.768427 
L 346.783618 285.768427 
L 346.942218 291.382536 
L 347.100818 291.382536 
L 347.259418 294.607406 
L 347.418018 294.607406 
L 347.576619 295.451316 
L 347.735219 295.451316 
L 347.893819 293.68403 
L 348.052419 293.68403 
L 348.211019 289.78293 
L 348.369619 289.78293 
L 348.52822 283.313689 
L 348.68682 283.313689 
L 348.84542 274.700562 
L 349.00402 274.700562 
L 349.16262 264.018474 
L 349.32122 264.018474 
L 349.479821 251.597875 
L 349.638421 251.597875 
L 349.797021 237.593684 
L 349.955621 237.593684 
L 350.114221 222.346402 
L 350.272821 222.346402 
L 350.431422 206.116151 
L 350.590022 206.116151 
L 350.748622 189.168757 
L 350.907222 189.168757 
L 351.065822 171.935741 
L 351.224422 171.935741 
L 351.383023 154.886204 
L 351.541623 154.886204 
L 351.700223 138.01212 
L 351.858823 138.01212 
L 352.017423 122.12539 
L 352.176023 122.12539 
L 352.334624 107.128098 
L 352.493224 107.128098 
L 352.651824 93.57411 
L 352.810424 93.57411 
L 352.969024 81.600871 
L 353.127624 81.600871 
L 353.286225 71.605261 
L 353.444825 71.605261 
L 353.603425 63.59782 
L 353.762025 63.59782 
L 353.920625 57.890685 
L 354.079225 57.890685 
L 354.237826 54.550347 
L 354.396426 54.550347 
L 354.555026 53.637511 
L 354.713626 53.637511 
L 354.872226 55.161586 
L 355.030826 55.161586 
L 355.189427 59.087389 
L 355.348027 59.087389 
L 355.506627 65.420395 
L 355.665227 65.420395 
L 355.823827 73.872175 
L 355.982427 73.872175 
L 356.141028 84.401759 
L 356.299628 84.401759 
L 356.458228 96.842561 
L 356.616828 96.842561 
L 356.775428 110.736855 
L 356.934029 110.736855 
L 357.092629 125.969642 
L 357.251229 125.969642 
L 357.409829 142.207901 
L 357.568429 142.207901 
L 357.727029 159.095817 
L 357.88563 159.095817 
L 358.04423 176.31656 
L 358.20283 176.31656 
L 358.36143 193.335276 
L 358.52003 193.335276 
L 358.67863 210.158318 
L 358.837231 210.158318 
L 358.995831 226.242321 
L 359.154431 226.242321 
L 359.313031 241.191843 
L 359.471631 241.191843 
L 359.630231 254.903984 
L 359.788832 254.903984 
L 359.947432 266.880087 
L 360.106032 266.880087 
L 360.264632 277.030577 
L 360.423232 277.030577 
L 360.581832 285.07215 
L 360.740433 285.07215 
L 360.899033 290.990038 
L 361.057633 290.990038 
L 361.216233 294.360008 
L 361.374833 294.360008 
L 361.533433 295.48424 
L 361.692034 295.48424 
L 361.850634 294.002946 
L 362.009234 294.002946 
L 362.167834 290.194988 
L 362.326434 290.194988 
L 362.485034 283.999251 
L 362.643635 283.999251 
L 362.802235 275.619768 
L 362.960835 275.619768 
L 363.119435 265.144031 
L 363.278035 265.144031 
L 363.436635 252.897131 
L 363.595236 252.897131 
L 363.753836 239.027286 
L 363.912436 239.027286 
L 364.071036 223.883959 
L 364.229636 223.883959 
L 364.388236 207.652246 
L 364.546837 207.652246 
L 364.705437 190.823399 
L 364.864037 190.823399 
L 365.022637 173.620327 
L 365.181237 173.620327 
L 365.339837 156.472505 
L 365.498438 156.472505 
L 365.657038 139.612545 
L 365.815638 139.612545 
L 365.974238 123.636646 
L 366.132838 123.636646 
L 366.291438 108.534757 
L 366.450039 108.534757 
L 366.608639 94.791271 
L 366.767239 94.791271 
L 366.925839 82.697887 
L 367.084439 82.697887 
L 367.243039 72.482796 
L 367.40164 72.482796 
L 367.56024 64.262946 
L 367.71884 64.262946 
L 367.87744 58.397366 
L 368.03604 58.397366 
L 368.19464 54.76862 
L 368.353241 54.76862 
L 368.511841 53.580936 
L 368.670441 53.580936 
L 368.829041 54.893264 
L 368.987641 54.893264 
L 369.146242 58.656531 
L 369.304842 58.656531 
L 369.463442 64.709253 
L 369.622042 64.709253 
L 369.780642 72.974807 
L 369.939242 72.974807 
L 370.097843 83.293775 
L 370.256443 83.293775 
L 370.415043 95.497815 
L 370.573643 95.497815 
L 370.732243 109.359185 
L 370.890843 109.359185 
L 371.049444 124.438826 
L 371.208044 124.438826 
L 371.366644 140.623257 
L 371.525244 140.623257 
L 371.683844 157.485594 
L 371.842444 157.485594 
L 372.001045 174.56184 
L 372.159645 174.56184 
L 372.318245 191.802492 
L 372.476845 191.802492 
L 372.635445 208.540087 
L 372.794045 208.540087 
L 372.952646 224.698997 
L 373.111246 224.698997 
L 373.269846 239.806478 
L 373.428446 239.806478 
L 373.587046 253.66403 
L 373.745646 253.66403 
L 373.904247 265.799689 
L 374.062847 265.799689 
L 374.221447 276.183803 
L 374.380047 276.183803 
L 374.538647 284.382165 
L 374.697247 284.382165 
L 374.855848 290.396994 
L 375.014448 290.396994 
L 375.173048 294.207095 
L 375.331648 294.207095 
L 375.490248 295.454433 
L 375.648848 295.454433 
L 375.807449 294.245864 
L 375.966049 294.245864 
L 376.124649 290.69487 
L 376.283249 290.69487 
L 376.441849 284.740629 
L 376.600449 284.740629 
L 376.75905 276.47225 
L 376.91765 276.47225 
L 377.07625 266.247554 
L 377.23485 266.247554 
L 377.39345 254.213064 
L 377.55205 254.213064 
L 377.710651 240.413275 
L 377.869251 240.413275 
L 378.027851 225.384364 
L 378.186451 225.384364 
L 378.345051 209.30946 
L 378.503651 209.30946 
L 378.662252 192.438551 
L 378.820852 192.438551 
L 378.979452 175.27041 
L 379.138052 175.27041 
L 379.296652 158.108308 
L 379.455252 158.108308 
L 379.613853 141.25766 
L 379.772453 141.25766 
L 379.931053 125.140773 
L 380.089653 125.140773 
L 380.248253 109.895166 
L 380.406853 109.895166 
L 380.565454 96.09604 
L 380.724054 96.09604 
L 380.882654 83.794611 
L 381.041254 83.794611 
L 381.199854 73.313594 
L 381.358455 73.313594 
L 381.517055 64.973055 
L 381.675655 64.973055 
L 381.834255 58.886728 
L 381.992855 58.886728 
L 382.151455 54.951846 
L 382.310056 54.951846 
L 382.468656 53.634355 
L 382.627256 53.634355 
L 382.785856 54.597843 
L 382.944456 54.597843 
L 383.103056 58.152013 
L 383.261657 58.152013 
L 383.420257 64.0008 
L 383.578857 64.0008 
L 383.737457 72.110208 
L 383.896057 72.110208 
L 384.054657 82.184426 
L 384.213258 82.184426 
L 384.371858 94.302396 
L 384.530458 94.302396 
L 384.689058 107.970021 
L 384.847658 107.970021 
L 385.006258 122.927258 
L 385.164859 122.927258 
L 385.323459 138.917203 
L 385.482059 138.917203 
L 385.640659 155.827464 
L 385.799259 155.827464 
L 385.957859 172.861338 
L 386.11646 172.861338 
L 386.27506 190.104834 
L 386.43366 190.104834 
L 386.59226 207.024136 
L 386.75086 207.024136 
L 386.90946 223.157856 
L 387.068061 223.157856 
L 387.226661 238.436795 
L 387.385261 238.436795 
L 387.543861 252.419575 
L 387.702461 252.419575 
L 387.861061 264.641811 
L 388.019662 264.641811 
L 388.178262 275.211606 
L 388.336862 275.211606 
L 388.495462 283.616961 
L 388.654062 283.616961 
L 388.812662 290.119146 
L 388.971263 290.119146 
L 389.129863 293.900414 
L 389.288463 293.900414 
L 389.447063 295.481883 
L 389.605663 295.481883 
L 389.764263 294.449176 
L 389.922864 294.449176 
L 390.081464 291.143301 
L 390.240064 291.143301 
L 390.398664 285.427633 
L 390.557264 285.427633 
L 390.715864 277.441018 
L 390.874465 277.441018 
L 391.033065 267.283028 
L 391.191665 267.283028 
L 391.350265 255.405658 
L 391.508865 255.405658 
L 391.667465 241.845397 
L 391.826066 241.845397 
L 391.984666 226.865113 
L 392.143266 226.865113 
L 392.301866 210.805092 
L 392.460466 210.805092 
L 392.619066 194.196564 
L 392.777667 194.196564 
L 392.936267 176.994387 
L 393.094867 176.994387 
L 393.253467 159.702615 
L 393.412067 159.702615 
L 393.570667 142.904042 
L 393.729268 142.904042 
L 393.887868 126.600773 
L 394.046468 126.600773 
L 394.205068 111.279071 
L 394.363668 111.279071 
L 394.522269 97.3433 
L 394.680869 97.3433 
L 394.839469 84.990478 
L 394.998069 84.990478 
L 395.156669 74.308 
L 395.315269 74.308 
L 395.47387 65.669936 
L 395.63247 65.669936 
L 395.79107 59.339717 
L 395.94967 59.339717 
L 396.10827 55.260086 
L 396.26687 55.260086 
L 396.425471 53.671078 
L 396.584071 53.671078 
L 396.742671 54.435444 
L 396.901271 54.435444 
L 397.059871 57.731032 
L 397.218471 57.731032 
L 397.377072 63.337934 
L 397.535672 63.337934 
L 397.694272 71.23049 
L 397.852872 71.23049 
L 398.011472 81.189981 
L 398.170072 81.189981 
L 398.328673 93.024764 
L 398.487273 93.024764 
L 398.487273 93.024764 
" clip-path="url(#pad78e1f648)" style="fill: none; stroke: #0000ff; stroke-width: 1.5; stroke-linecap: square"/>
   </g>
   <g id="patch_3">
    <path d="M 57.6 307.584 
L 57.6 41.472 
" style="fill: none; stroke: #000000; stroke-width: 0.8; stroke-linejoin: miter; stroke-linecap: square"/>
   </g>
   <g id="patch_4">
    <path d="M 414.72 307.584 
L 414.72 41.472 
" style="fill: none; stroke: #000000; stroke-width: 0.8; stroke-linejoin: miter; stroke-linecap: square"/>
   </g>
   <g id="patch_5">
    <path d="M 57.6 307.584 
L 414.72 307.584 
" style="fill: none; stroke: #000000; stroke-width: 0.8; stroke-linejoin: miter; stroke-linecap: square"/>
   </g>
   <g id="patch_6">
    <path d="M 57.6 41.472 
L 414.72 41.472 
" style="fill: none; stroke: #000000; stroke-width: 0.8; stroke-linejoin: miter; stroke-linecap: square"/>
   </g>
   <g id="text_16">
    <!-- Input channel L (24-bit) -->
    <g transform="translate(165.508125 35.472) scale(0.12 -0.12)">
     <defs>
      <path id="DejaVuSans-49" d="M 628 4666 
L 1259 4666 
L 1259 0 
L 628 0 
L 628 4666 
z
" transform="scale(0.015625)"/>
      <path id="DejaVuSans-6e" d="M 3513 2113 
L 3513 0 
L 2938 0 
L 2938 2094 
Q 2938 2591 2744 2837 
Q 2550 3084 2163 3084 
Q 1697 3084 1428 2787 
Q 1159 2491 1159 1978 
L 1159 0 
L 581 0 
L 581 3500 
L 1159 3500 
L 1159 2956 
Q 1366 3272 1645 3428 
Q 1925 3584 2291 3584 
Q 2894 3584 3203 3211 
Q 3513 2838 3513 2113 
z
" transform="scale(0.015625)"/>
      <path id="DejaVuSans-20" transform="scale(0.015625)"/>
      <path id="DejaVuSans-63" d="M 3122 3366 
L 3122 2828 
Q 2878 2963 2633 3030 
Q 2388 3097 2138 3097 
Q 1578 3097 1268 2742 
Q 959 2388 959 1747 
Q 959 1106 1268 751 
Q 1578 397 2138 397 
Q 2388 397 2633 464 
Q 2878 531 3122 666 
L 3122 134 
Q 2881 22 2623 -34 
Q 2366 -91 2075 -91 
Q 1284 -91 818 406 
Q 353 903 353 1747 
Q 353 2603 823 3093 
Q 1294 3584 2113 3584 
Q 2378 3584 2631 3529 
Q 2884 3475 3122 3366 
z
" transform="scale(0.015625)"/>
      <path id="DejaVuSans-68" d="M 3513 2113 
L 3513 0 
L 2938 0 
L 2938 2094 
Q 2938 2591 2744 2837 
Q 2550 3084 2163 3084 
Q 1697 3084 1428 2787 
Q 1159 2491 1159 1978 
L 1159 0 
L 581 0 
L 581 4863 
L 1159 4863 
L 1159 2956 
Q 1366 3272 1645 3428 
Q 1925 3584 2291 3584 
Q 2894 3584 3203 3211 
Q 3513 2838 3513 2113 
z
" transform="scale(0.015625)"/>
      <path id="DejaVuSans-4c" d="M 628 4666 
L 1259 4666 
L 1259 531 
L 3531 531 
L 3531 0 
L 628 0 
L 628 4666 
z
" transform="scale(0.015625)"/>
      <path id="DejaVuSans-28" d="M 1984 4856 
Q 1566 4138 1362 3434 
Q 1159 2731 1159 2009 
Q 1159 1288 1364 580 
Q 1569 -128 1984 -844 
L 1484 -844 
Q 1016 -109 783 600 
Q 550 1309 550 2009 
Q 550 2706 781 3412 
Q 1013 4119 1484 4856 
L 1984 4856 
z
" transform="scale(0.015625)"/>
      <path id="DejaVuSans-2d" d="M 313 2009 
L 1997 2009 
L 1997 1497 
L 313 1497 
L 313 2009 
z
" transform="scale(0.015625)"/>
      <path id="DejaVuSans-62" d="M 3116 1747 
Q 3116 2381 2855 2742 
Q 2594 3103 2138 3103 
Q 1681 3103 1420 2742 
Q 1159 2381 1159 1747 
Q 1159 1113 1420 752 
Q 1681 391 2138 391 
Q 2594 391 2855 752 
Q 3116 1113 3116 1747 
z
M 1159 2969 
Q 1341 3281 1617 3432 
Q 1894 3584 2278 3584 
Q 2916 3584 3314 3078 
Q 3713 2572 3713 1747 
Q 3713 922 3314 415 
Q 2916 -91 2278 -91 
Q 1894 -91 1617 61 
Q 1341 213 1159 525 
L 1159 0 
L 581 0 
L 581 4863 
L 1159 4863 
L 1159 2969 
z
" transform="scale(0.015625)"/>
      <path id="DejaVuSans-29" d="M 513 4856 
L 1013 4856 
Q 1481 4119 1714 3412 
Q 1947 2706 1947 2009 
Q 1947 1309 1714 600 
Q 1481 -109 1013 -844 
L 513 -844 
Q 928 -128 1133 580 
Q 1338 1288 1338 2009 
Q 1338 2731 1133 3434 
Q 928 4138 513 4856 
z
" transform="scale(0.015625)"/>
     </defs>
     <use xlink:href="#DejaVuSans-49"/>
     <use xlink:href="#DejaVuSans-6e" x="29.492188"/>
     <use xlink:href="#DejaVuSans-70" x="92.871094"/>
     <use xlink:href="#DejaVuSans-75" x="156.347656"/>
     <use xlink:href="#DejaVuSans-74" x="219.726562"/>
     <use xlink:href="#DejaVuSans-20" x="258.935547"/>
     <use xlink:href="#DejaVuSans-63" x="290.722656"/>
     <use xlink:href="#DejaVuSans-68" x="345.703125"/>
     <use xlink:href="#DejaVuSans-61" x="409.082031"/>
     <use xlink:href="#DejaVuSans-6e" x="470.361328"/>
     <use xlink:href="#DejaVuSans-6e" x="533.740234"/>
     <use xlink:href="#DejaVuSans-65" x="597.119141"/>
     <use xlink:href="#DejaVuSans-6c" x="658.642578"/>
     <use xlink:href="#DejaVuSans-20" x="686.425781"/>
     <use xlink:href="#DejaVuSans-4c" x="718.212891"/>
     <use xlink:href="#DejaVuSans-20" x="773.925781"/>
     <use xlink:href="#DejaVuSans-28" x="805.712891"/>
     <use xlink:href="#DejaVuSans-32" x="844.726562"/>
     <use xlink:href="#DejaVuSans-34" x="908.349609"/>
     <use xlink:href="#DejaVuSans-2d" x="971.972656"/>
     <use xlink:href="#DejaVuSans-62" x="1008.056641"/>
     <use xlink:href="#DejaVuSans-69" x="1071.533203"/>
     <use xlink:href="#DejaVuSans-74" x="1099.316406"/>
     <use xlink:href="#DejaVuSans-29" x="1138.525391"/>
    </g>
   </g>
  </g>
 </g>
 <defs>
  <clipPath id="pad78e1f648">
   <rect x="57.6" y="41.472" width="357.12" height="266.112"/>
  </clipPath>
 </defs>
</svg>
