<?xml version="1.0" encoding="utf-8" standalone="no"?>
<!DOCTYPE svg PUBLIC "-//W3C//DTD SVG 1.1//EN"
  "http://www.w3.org/Graphics/SVG/1.1/DTD/svg11.dtd">
<svg xmlns:xlink="http://www.w3.org/1999/xlink" width="460.8pt" height="345.6pt" viewBox="0 0 460.8 345.6" xmlns="http://www.w3.org/2000/svg" version="1.1">
 <metadata>
  <rdf:RDF xmlns:dc="http://purl.org/dc/elements/1.1/" xmlns:cc="http://creativecommons.org/ns#" xmlns:rdf="http://www.w3.org/1999/02/22-rdf-syntax-ns#">
   <cc:Work>
    <dc:type rdf:resource="http://purl.org/dc/dcmitype/StillImage"/>
    <dc:date>2025-08-29T17:30:21.042386</dc:date>
    <dc:format>image/svg+xml</dc:format>
    <dc:creator>
     <cc:Agent>
      <dc:title>Matplotlib v3.9.2, https://matplotlib.org/</dc:title>
     </cc:Agent>
    </dc:creator>
   </cc:Work>
  </rdf:RDF>
 </metadata>
 <defs>
  <style type="text/css">*{stroke-linejoin: round; stroke-linecap: butt}</style>
 </defs>
 <g id="figure_1">
  <g id="patch_1">
   <path d="M 0 345.6 
L 460.8 345.6 
L 460.8 0 
L 0 0 
z
" style="fill: #ffffff"/>
  </g>
  <g id="axes_1">
   <g id="patch_2">
    <path d="M 57.6 307.584 
L 414.72 307.584 
L 414.72 41.472 
L 57.6 41.472 
z
" style="fill: #ffffff"/>
   </g>
   <g id="matplotlib.axis_1">
    <g id="xtick_1">
     <g id="line2d_1">
      <path d="M 73.832727 307.584 
L 73.832727 41.472 
" clip-path="url(#pcfdb751756)" style="fill: none; stroke: #b0b0b0; stroke-width: 0.8; stroke-linecap: square"/>
     </g>
     <g id="line2d_2">
      <defs>
       <path id="me84c751e3c" d="M 0 0 
L 0 3.5 
" style="stroke: #000000; stroke-width: 0.8"/>
      </defs>
      <g>
       <use xlink:href="#me84c751e3c" x="73.832727" y="307.584" style="stroke: #000000; stroke-width: 0.8"/>
      </g>
     </g>
     <g id="text_1">
      <!-- 0 -->
      <g transform="translate(70.651477 322.182437) scale(0.1 -0.1)">
       <defs>
        <path id="DejaVuSans-30" d="M 2034 4250 
Q 1547 4250 1301 3770 
Q 1056 3291 1056 2328 
Q 1056 1369 1301 889 
Q 1547 409 2034 409 
Q 2525 409 2770 889 
Q 3016 1369 3016 2328 
Q 3016 3291 2770 3770 
Q 2525 4250 2034 4250 
z
M 2034 4750 
Q 2819 4750 3233 4129 
Q 3647 3509 3647 2328 
Q 3647 1150 3233 529 
Q 2819 -91 2034 -91 
Q 1250 -91 836 529 
Q 422 1150 422 2328 
Q 422 3509 836 4129 
Q 1250 4750 2034 4750 
z
" transform="scale(0.015625)"/>
       </defs>
       <use xlink:href="#DejaVuSans-30"/>
      </g>
     </g>
    </g>
    <g id="xtick_2">
     <g id="line2d_3">
      <path d="M 153.132812 307.584 
L 153.132812 41.472 
" clip-path="url(#pcfdb751756)" style="fill: none; stroke: #b0b0b0; stroke-width: 0.8; stroke-linecap: square"/>
     </g>
     <g id="line2d_4">
      <g>
       <use xlink:href="#me84c751e3c" x="153.132812" y="307.584" style="stroke: #000000; stroke-width: 0.8"/>
      </g>
     </g>
     <g id="text_2">
      <!-- 500 -->
      <g transform="translate(143.589062 322.182437) scale(0.1 -0.1)">
       <defs>
        <path id="DejaVuSans-35" d="M 691 4666 
L 3169 4666 
L 3169 4134 
L 1269 4134 
L 1269 2991 
Q 1406 3038 1543 3061 
Q 1681 3084 1819 3084 
Q 2600 3084 3056 2656 
Q 3513 2228 3513 1497 
Q 3513 744 3044 326 
Q 2575 -91 1722 -91 
Q 1428 -91 1123 -41 
Q 819 9 494 109 
L 494 744 
Q 775 591 1075 516 
Q 1375 441 1709 441 
Q 2250 441 2565 725 
Q 2881 1009 2881 1497 
Q 2881 1984 2565 2268 
Q 2250 2553 1709 2553 
Q 1456 2553 1204 2497 
Q 953 2441 691 2322 
L 691 4666 
z
" transform="scale(0.015625)"/>
       </defs>
       <use xlink:href="#DejaVuSans-35"/>
       <use xlink:href="#DejaVuSans-30" x="63.623047"/>
       <use xlink:href="#DejaVuSans-30" x="127.246094"/>
      </g>
     </g>
    </g>
    <g id="xtick_3">
     <g id="line2d_5">
      <path d="M 232.432896 307.584 
L 232.432896 41.472 
" clip-path="url(#pcfdb751756)" style="fill: none; stroke: #b0b0b0; stroke-width: 0.8; stroke-linecap: square"/>
     </g>
     <g id="line2d_6">
      <g>
       <use xlink:href="#me84c751e3c" x="232.432896" y="307.584" style="stroke: #000000; stroke-width: 0.8"/>
      </g>
     </g>
     <g id="text_3">
      <!-- 1000 -->
      <g transform="translate(219.707896 322.182437) scale(0.1 -0.1)">
       <defs>
        <path id="DejaVuSans-31" d="M 794 531 
L 1825 531 
L 1825 4091 
L 703 3866 
L 703 4441 
L 1819 4666 
L 2450 4666 
L 2450 531 
L 3481 531 
L 3481 0 
L 794 0 
L 794 531 
z
" transform="scale(0.015625)"/>
       </defs>
       <use xlink:href="#DejaVuSans-31"/>
       <use xlink:href="#DejaVuSans-30" x="63.623047"/>
       <use xlink:href="#DejaVuSans-30" x="127.246094"/>
       <use xlink:href="#DejaVuSans-30" x="190.869141"/>
      </g>
     </g>
    </g>
    <g id="xtick_4">
     <g id="line2d_7">
      <path d="M 311.73298 307.584 
L 311.73298 41.472 
" clip-path="url(#pcfdb751756)" style="fill: none; stroke: #b0b0b0; stroke-width: 0.8; stroke-linecap: square"/>
     </g>
     <g id="line2d_8">
      <g>
       <use xlink:href="#me84c751e3c" x="311.73298" y="307.584" style="stroke: #000000; stroke-width: 0.8"/>
      </g>
     </g>
     <g id="text_4">
      <!-- 1500 -->
      <g transform="translate(299.00798 322.182437) scale(0.1 -0.1)">
       <use xlink:href="#DejaVuSans-31"/>
       <use xlink:href="#DejaVuSans-35" x="63.623047"/>
       <use xlink:href="#DejaVuSans-30" x="127.246094"/>
       <use xlink:href="#DejaVuSans-30" x="190.869141"/>
      </g>
     </g>
    </g>
    <g id="xtick_5">
     <g id="line2d_9">
      <path d="M 391.033065 307.584 
L 391.033065 41.472 
" clip-path="url(#pcfdb751756)" style="fill: none; stroke: #b0b0b0; stroke-width: 0.8; stroke-linecap: square"/>
     </g>
     <g id="line2d_10">
      <g>
       <use xlink:href="#me84c751e3c" x="391.033065" y="307.584" style="stroke: #000000; stroke-width: 0.8"/>
      </g>
     </g>
     <g id="text_5">
      <!-- 2000 -->
      <g transform="translate(378.308065 322.182437) scale(0.1 -0.1)">
       <defs>
        <path id="DejaVuSans-32" d="M 1228 531 
L 3431 531 
L 3431 0 
L 469 0 
L 469 531 
Q 828 903 1448 1529 
Q 2069 2156 2228 2338 
Q 2531 2678 2651 2914 
Q 2772 3150 2772 3378 
Q 2772 3750 2511 3984 
Q 2250 4219 1831 4219 
Q 1534 4219 1204 4116 
Q 875 4013 500 3803 
L 500 4441 
Q 881 4594 1212 4672 
Q 1544 4750 1819 4750 
Q 2544 4750 2975 4387 
Q 3406 4025 3406 3419 
Q 3406 3131 3298 2873 
Q 3191 2616 2906 2266 
Q 2828 2175 2409 1742 
Q 1991 1309 1228 531 
z
" transform="scale(0.015625)"/>
       </defs>
       <use xlink:href="#DejaVuSans-32"/>
       <use xlink:href="#DejaVuSans-30" x="63.623047"/>
       <use xlink:href="#DejaVuSans-30" x="127.246094"/>
       <use xlink:href="#DejaVuSans-30" x="190.869141"/>
      </g>
     </g>
    </g>
    <g id="text_6">
     <!-- Samples -->
     <g transform="translate(214.806875 335.860562) scale(0.1 -0.1)">
      <defs>
       <path id="DejaVuSans-53" d="M 3425 4513 
L 3425 3897 
Q 3066 4069 2747 4153 
Q 2428 4238 2131 4238 
Q 1616 4238 1336 4038 
Q 1056 3838 1056 3469 
Q 1056 3159 1242 3001 
Q 1428 2844 1947 2747 
L 2328 2669 
Q 3034 2534 3370 2195 
Q 3706 1856 3706 1288 
Q 3706 609 3251 259 
Q 2797 -91 1919 -91 
Q 1588 -91 1214 -16 
Q 841 59 441 206 
L 441 856 
Q 825 641 1194 531 
Q 1563 422 1919 422 
Q 2459 422 2753 634 
Q 3047 847 3047 1241 
Q 3047 1584 2836 1778 
Q 2625 1972 2144 2069 
L 1759 2144 
Q 1053 2284 737 2584 
Q 422 2884 422 3419 
Q 422 4038 858 4394 
Q 1294 4750 2059 4750 
Q 2388 4750 2728 4690 
Q 3069 4631 3425 4513 
z
" transform="scale(0.015625)"/>
       <path id="DejaVuSans-61" d="M 2194 1759 
Q 1497 1759 1228 1600 
Q 959 1441 959 1056 
Q 959 750 1161 570 
Q 1363 391 1709 391 
Q 2188 391 2477 730 
Q 2766 1069 2766 1631 
L 2766 1759 
L 2194 1759 
z
M 3341 1997 
L 3341 0 
L 2766 0 
L 2766 531 
Q 2569 213 2275 61 
Q 1981 -91 1556 -91 
Q 1019 -91 701 211 
Q 384 513 384 1019 
Q 384 1609 779 1909 
Q 1175 2209 1959 2209 
L 2766 2209 
L 2766 2266 
Q 2766 2663 2505 2880 
Q 2244 3097 1772 3097 
Q 1472 3097 1187 3025 
Q 903 2953 641 2809 
L 641 3341 
Q 956 3463 1253 3523 
Q 1550 3584 1831 3584 
Q 2591 3584 2966 3190 
Q 3341 2797 3341 1997 
z
" transform="scale(0.015625)"/>
       <path id="DejaVuSans-6d" d="M 3328 2828 
Q 3544 3216 3844 3400 
Q 4144 3584 4550 3584 
Q 5097 3584 5394 3201 
Q 5691 2819 5691 2113 
L 5691 0 
L 5113 0 
L 5113 2094 
Q 5113 2597 4934 2840 
Q 4756 3084 4391 3084 
Q 3944 3084 3684 2787 
Q 3425 2491 3425 1978 
L 3425 0 
L 2847 0 
L 2847 2094 
Q 2847 2600 2669 2842 
Q 2491 3084 2119 3084 
Q 1678 3084 1418 2786 
Q 1159 2488 1159 1978 
L 1159 0 
L 581 0 
L 581 3500 
L 1159 3500 
L 1159 2956 
Q 1356 3278 1631 3431 
Q 1906 3584 2284 3584 
Q 2666 3584 2933 3390 
Q 3200 3197 3328 2828 
z
" transform="scale(0.015625)"/>
       <path id="DejaVuSans-70" d="M 1159 525 
L 1159 -1331 
L 581 -1331 
L 581 3500 
L 1159 3500 
L 1159 2969 
Q 1341 3281 1617 3432 
Q 1894 3584 2278 3584 
Q 2916 3584 3314 3078 
Q 3713 2572 3713 1747 
Q 3713 922 3314 415 
Q 2916 -91 2278 -91 
Q 1894 -91 1617 61 
Q 1341 213 1159 525 
z
M 3116 1747 
Q 3116 2381 2855 2742 
Q 2594 3103 2138 3103 
Q 1681 3103 1420 2742 
Q 1159 2381 1159 1747 
Q 1159 1113 1420 752 
Q 1681 391 2138 391 
Q 2594 391 2855 752 
Q 3116 1113 3116 1747 
z
" transform="scale(0.015625)"/>
       <path id="DejaVuSans-6c" d="M 603 4863 
L 1178 4863 
L 1178 0 
L 603 0 
L 603 4863 
z
" transform="scale(0.015625)"/>
       <path id="DejaVuSans-65" d="M 3597 1894 
L 3597 1613 
L 953 1613 
Q 991 1019 1311 708 
Q 1631 397 2203 397 
Q 2534 397 2845 478 
Q 3156 559 3463 722 
L 3463 178 
Q 3153 47 2828 -22 
Q 2503 -91 2169 -91 
Q 1331 -91 842 396 
Q 353 884 353 1716 
Q 353 2575 817 3079 
Q 1281 3584 2069 3584 
Q 2775 3584 3186 3129 
Q 3597 2675 3597 1894 
z
M 3022 2063 
Q 3016 2534 2758 2815 
Q 2500 3097 2075 3097 
Q 1594 3097 1305 2825 
Q 1016 2553 972 2059 
L 3022 2063 
z
" transform="scale(0.015625)"/>
       <path id="DejaVuSans-73" d="M 2834 3397 
L 2834 2853 
Q 2591 2978 2328 3040 
Q 2066 3103 1784 3103 
Q 1356 3103 1142 2972 
Q 928 2841 928 2578 
Q 928 2378 1081 2264 
Q 1234 2150 1697 2047 
L 1894 2003 
Q 2506 1872 2764 1633 
Q 3022 1394 3022 966 
Q 3022 478 2636 193 
Q 2250 -91 1575 -91 
Q 1294 -91 989 -36 
Q 684 19 347 128 
L 347 722 
Q 666 556 975 473 
Q 1284 391 1588 391 
Q 1994 391 2212 530 
Q 2431 669 2431 922 
Q 2431 1156 2273 1281 
Q 2116 1406 1581 1522 
L 1381 1569 
Q 847 1681 609 1914 
Q 372 2147 372 2553 
Q 372 3047 722 3315 
Q 1072 3584 1716 3584 
Q 2034 3584 2315 3537 
Q 2597 3491 2834 3397 
z
" transform="scale(0.015625)"/>
      </defs>
      <use xlink:href="#DejaVuSans-53"/>
      <use xlink:href="#DejaVuSans-61" x="63.476562"/>
      <use xlink:href="#DejaVuSans-6d" x="124.755859"/>
      <use xlink:href="#DejaVuSans-70" x="222.167969"/>
      <use xlink:href="#DejaVuSans-6c" x="285.644531"/>
      <use xlink:href="#DejaVuSans-65" x="313.427734"/>
      <use xlink:href="#DejaVuSans-73" x="374.951172"/>
     </g>
    </g>
   </g>
   <g id="matplotlib.axis_2">
    <g id="ytick_1">
     <g id="line2d_11">
      <path d="M 57.6 292.480394 
L 414.72 292.480394 
" clip-path="url(#pcfdb751756)" style="fill: none; stroke: #b0b0b0; stroke-width: 0.8; stroke-linecap: square"/>
     </g>
     <g id="line2d_12">
      <defs>
       <path id="m715741270c" d="M 0 0 
L -3.5 0 
" style="stroke: #000000; stroke-width: 0.8"/>
      </defs>
      <g>
       <use xlink:href="#m715741270c" x="57.6" y="292.480394" style="stroke: #000000; stroke-width: 0.8"/>
      </g>
     </g>
     <g id="text_7">
      <!-- −6 -->
      <g transform="translate(35.857813 296.279613) scale(0.1 -0.1)">
       <defs>
        <path id="DejaVuSans-2212" d="M 678 2272 
L 4684 2272 
L 4684 1741 
L 678 1741 
L 678 2272 
z
" transform="scale(0.015625)"/>
        <path id="DejaVuSans-36" d="M 2113 2584 
Q 1688 2584 1439 2293 
Q 1191 2003 1191 1497 
Q 1191 994 1439 701 
Q 1688 409 2113 409 
Q 2538 409 2786 701 
Q 3034 994 3034 1497 
Q 3034 2003 2786 2293 
Q 2538 2584 2113 2584 
z
M 3366 4563 
L 3366 3988 
Q 3128 4100 2886 4159 
Q 2644 4219 2406 4219 
Q 1781 4219 1451 3797 
Q 1122 3375 1075 2522 
Q 1259 2794 1537 2939 
Q 1816 3084 2150 3084 
Q 2853 3084 3261 2657 
Q 3669 2231 3669 1497 
Q 3669 778 3244 343 
Q 2819 -91 2113 -91 
Q 1303 -91 875 529 
Q 447 1150 447 2328 
Q 447 3434 972 4092 
Q 1497 4750 2381 4750 
Q 2619 4750 2861 4703 
Q 3103 4656 3366 4563 
z
" transform="scale(0.015625)"/>
       </defs>
       <use xlink:href="#DejaVuSans-2212"/>
       <use xlink:href="#DejaVuSans-36" x="83.789062"/>
      </g>
     </g>
    </g>
    <g id="ytick_2">
     <g id="line2d_13">
      <path d="M 57.6 253.142142 
L 414.72 253.142142 
" clip-path="url(#pcfdb751756)" style="fill: none; stroke: #b0b0b0; stroke-width: 0.8; stroke-linecap: square"/>
     </g>
     <g id="line2d_14">
      <g>
       <use xlink:href="#m715741270c" x="57.6" y="253.142142" style="stroke: #000000; stroke-width: 0.8"/>
      </g>
     </g>
     <g id="text_8">
      <!-- −4 -->
      <g transform="translate(35.857813 256.941361) scale(0.1 -0.1)">
       <defs>
        <path id="DejaVuSans-34" d="M 2419 4116 
L 825 1625 
L 2419 1625 
L 2419 4116 
z
M 2253 4666 
L 3047 4666 
L 3047 1625 
L 3713 1625 
L 3713 1100 
L 3047 1100 
L 3047 0 
L 2419 0 
L 2419 1100 
L 313 1100 
L 313 1709 
L 2253 4666 
z
" transform="scale(0.015625)"/>
       </defs>
       <use xlink:href="#DejaVuSans-2212"/>
       <use xlink:href="#DejaVuSans-34" x="83.789062"/>
      </g>
     </g>
    </g>
    <g id="ytick_3">
     <g id="line2d_15">
      <path d="M 57.6 213.803891 
L 414.72 213.803891 
" clip-path="url(#pcfdb751756)" style="fill: none; stroke: #b0b0b0; stroke-width: 0.8; stroke-linecap: square"/>
     </g>
     <g id="line2d_16">
      <g>
       <use xlink:href="#m715741270c" x="57.6" y="213.803891" style="stroke: #000000; stroke-width: 0.8"/>
      </g>
     </g>
     <g id="text_9">
      <!-- −2 -->
      <g transform="translate(35.857813 217.603109) scale(0.1 -0.1)">
       <use xlink:href="#DejaVuSans-2212"/>
       <use xlink:href="#DejaVuSans-32" x="83.789062"/>
      </g>
     </g>
    </g>
    <g id="ytick_4">
     <g id="line2d_17">
      <path d="M 57.6 174.465639 
L 414.72 174.465639 
" clip-path="url(#pcfdb751756)" style="fill: none; stroke: #b0b0b0; stroke-width: 0.8; stroke-linecap: square"/>
     </g>
     <g id="line2d_18">
      <g>
       <use xlink:href="#m715741270c" x="57.6" y="174.465639" style="stroke: #000000; stroke-width: 0.8"/>
      </g>
     </g>
     <g id="text_10">
      <!-- 0 -->
      <g transform="translate(44.2375 178.264858) scale(0.1 -0.1)">
       <use xlink:href="#DejaVuSans-30"/>
      </g>
     </g>
    </g>
    <g id="ytick_5">
     <g id="line2d_19">
      <path d="M 57.6 135.127387 
L 414.72 135.127387 
" clip-path="url(#pcfdb751756)" style="fill: none; stroke: #b0b0b0; stroke-width: 0.8; stroke-linecap: square"/>
     </g>
     <g id="line2d_20">
      <g>
       <use xlink:href="#m715741270c" x="57.6" y="135.127387" style="stroke: #000000; stroke-width: 0.8"/>
      </g>
     </g>
     <g id="text_11">
      <!-- 2 -->
      <g transform="translate(44.2375 138.926606) scale(0.1 -0.1)">
       <use xlink:href="#DejaVuSans-32"/>
      </g>
     </g>
    </g>
    <g id="ytick_6">
     <g id="line2d_21">
      <path d="M 57.6 95.789136 
L 414.72 95.789136 
" clip-path="url(#pcfdb751756)" style="fill: none; stroke: #b0b0b0; stroke-width: 0.8; stroke-linecap: square"/>
     </g>
     <g id="line2d_22">
      <g>
       <use xlink:href="#m715741270c" x="57.6" y="95.789136" style="stroke: #000000; stroke-width: 0.8"/>
      </g>
     </g>
     <g id="text_12">
      <!-- 4 -->
      <g transform="translate(44.2375 99.588354) scale(0.1 -0.1)">
       <use xlink:href="#DejaVuSans-34"/>
      </g>
     </g>
    </g>
    <g id="ytick_7">
     <g id="line2d_23">
      <path d="M 57.6 56.450884 
L 414.72 56.450884 
" clip-path="url(#pcfdb751756)" style="fill: none; stroke: #b0b0b0; stroke-width: 0.8; stroke-linecap: square"/>
     </g>
     <g id="line2d_24">
      <g>
       <use xlink:href="#m715741270c" x="57.6" y="56.450884" style="stroke: #000000; stroke-width: 0.8"/>
      </g>
     </g>
     <g id="text_13">
      <!-- 6 -->
      <g transform="translate(44.2375 60.250103) scale(0.1 -0.1)">
       <use xlink:href="#DejaVuSans-36"/>
      </g>
     </g>
    </g>
    <g id="text_14">
     <!-- Amplitude -->
     <g transform="translate(29.778125 200.150656) rotate(-90) scale(0.1 -0.1)">
      <defs>
       <path id="DejaVuSans-41" d="M 2188 4044 
L 1331 1722 
L 3047 1722 
L 2188 4044 
z
M 1831 4666 
L 2547 4666 
L 4325 0 
L 3669 0 
L 3244 1197 
L 1141 1197 
L 716 0 
L 50 0 
L 1831 4666 
z
" transform="scale(0.015625)"/>
       <path id="DejaVuSans-69" d="M 603 3500 
L 1178 3500 
L 1178 0 
L 603 0 
L 603 3500 
z
M 603 4863 
L 1178 4863 
L 1178 4134 
L 603 4134 
L 603 4863 
z
" transform="scale(0.015625)"/>
       <path id="DejaVuSans-74" d="M 1172 4494 
L 1172 3500 
L 2356 3500 
L 2356 3053 
L 1172 3053 
L 1172 1153 
Q 1172 725 1289 603 
Q 1406 481 1766 481 
L 2356 481 
L 2356 0 
L 1766 0 
Q 1100 0 847 248 
Q 594 497 594 1153 
L 594 3053 
L 172 3053 
L 172 3500 
L 594 3500 
L 594 4494 
L 1172 4494 
z
" transform="scale(0.015625)"/>
       <path id="DejaVuSans-75" d="M 544 1381 
L 544 3500 
L 1119 3500 
L 1119 1403 
Q 1119 906 1312 657 
Q 1506 409 1894 409 
Q 2359 409 2629 706 
Q 2900 1003 2900 1516 
L 2900 3500 
L 3475 3500 
L 3475 0 
L 2900 0 
L 2900 538 
Q 2691 219 2414 64 
Q 2138 -91 1772 -91 
Q 1169 -91 856 284 
Q 544 659 544 1381 
z
M 1991 3584 
L 1991 3584 
z
" transform="scale(0.015625)"/>
       <path id="DejaVuSans-64" d="M 2906 2969 
L 2906 4863 
L 3481 4863 
L 3481 0 
L 2906 0 
L 2906 525 
Q 2725 213 2448 61 
Q 2172 -91 1784 -91 
Q 1150 -91 751 415 
Q 353 922 353 1747 
Q 353 2572 751 3078 
Q 1150 3584 1784 3584 
Q 2172 3584 2448 3432 
Q 2725 3281 2906 2969 
z
M 947 1747 
Q 947 1113 1208 752 
Q 1469 391 1925 391 
Q 2381 391 2643 752 
Q 2906 1113 2906 1747 
Q 2906 2381 2643 2742 
Q 2381 3103 1925 3103 
Q 1469 3103 1208 2742 
Q 947 2381 947 1747 
z
" transform="scale(0.015625)"/>
      </defs>
      <use xlink:href="#DejaVuSans-41"/>
      <use xlink:href="#DejaVuSans-6d" x="68.408203"/>
      <use xlink:href="#DejaVuSans-70" x="165.820312"/>
      <use xlink:href="#DejaVuSans-6c" x="229.296875"/>
      <use xlink:href="#DejaVuSans-69" x="257.080078"/>
      <use xlink:href="#DejaVuSans-74" x="284.863281"/>
      <use xlink:href="#DejaVuSans-75" x="324.072266"/>
      <use xlink:href="#DejaVuSans-64" x="387.451172"/>
      <use xlink:href="#DejaVuSans-65" x="450.927734"/>
     </g>
    </g>
    <g id="text_15">
     <!-- 1e6 -->
     <g transform="translate(57.6 38.472) scale(0.1 -0.1)">
      <use xlink:href="#DejaVuSans-31"/>
      <use xlink:href="#DejaVuSans-65" x="63.623047"/>
      <use xlink:href="#DejaVuSans-36" x="125.146484"/>
     </g>
    </g>
   </g>
   <g id="line2d_25">
    <path d="M 73.832727 115.413849 
L 73.991327 115.413849 
L 74.149928 101.030112 
L 74.308528 101.030112 
L 74.467128 88.133538 
L 74.625728 88.133538 
L 74.784328 76.979472 
L 74.942928 76.979472 
L 75.101529 67.81779 
L 75.260129 67.81779 
L 75.418729 60.827697 
L 75.577329 60.827697 
L 75.735929 56.12595 
L 75.894529 56.12595 
L 76.05313 53.801591 
L 76.21173 53.801591 
L 76.52893 53.927099 
L 76.68753 56.529344 
L 76.84613 56.529344 
L 77.004731 61.518202 
L 77.163331 61.518202 
L 77.321931 68.793162 
L 77.480531 68.793162 
L 77.639131 78.211231 
L 77.797731 78.211231 
L 77.956332 89.599478 
L 78.114932 89.599478 
L 78.273532 102.701004 
L 78.432132 102.701004 
L 78.590732 117.227244 
L 78.749333 117.227244 
L 78.907933 132.919803 
L 79.066533 132.919803 
L 79.225133 149.468973 
L 79.383733 149.468973 
L 79.542333 166.534359 
L 79.700934 166.534359 
L 79.859534 183.753145 
L 80.018134 183.753145 
L 80.176734 200.786332 
L 80.335334 200.786332 
L 80.493934 217.302635 
L 80.652535 217.302635 
L 80.811135 232.952571 
L 80.969735 232.952571 
L 81.128335 247.398482 
L 81.286935 247.398482 
L 81.445535 260.358941 
L 81.604136 260.358941 
L 81.762736 271.579883 
L 81.921336 271.579883 
L 82.079936 280.831925 
L 82.238536 280.831925 
L 82.397136 287.943513 
L 82.555737 287.943513 
L 82.714337 292.750294 
L 82.872937 292.750294 
L 83.031537 295.162456 
L 83.507338 295.12121 
L 83.665938 292.653954 
L 83.824538 292.653954 
L 83.983138 287.817788 
L 84.141738 287.817788 
L 84.300338 280.661059 
L 84.458939 280.661059 
L 84.617539 271.336733 
L 84.776139 271.336733 
L 84.934739 260.04274 
L 85.093339 260.04274 
L 85.251939 247.038498 
L 85.41054 247.038498 
L 85.56914 232.545499 
L 85.72774 232.545499 
L 85.88634 216.870524 
L 86.04494 216.870524 
L 86.20354 200.345547 
L 86.362141 200.345547 
L 86.520741 183.321545 
L 86.679341 183.321545 
L 86.837941 166.154902 
L 86.996541 166.154902 
L 87.155141 149.168645 
L 87.313742 149.168645 
L 87.472342 132.685544 
L 87.630942 132.685544 
L 87.789542 117.011434 
L 87.948142 117.011434 
L 88.106742 102.465014 
L 88.265343 102.465014 
L 88.423943 89.362623 
L 88.582543 89.362623 
L 88.741143 77.997939 
L 88.899743 77.997939 
L 89.058343 68.621431 
L 89.216944 68.621431 
L 89.375544 61.415588 
L 89.534144 61.415588 
L 89.692744 56.499349 
L 89.851344 56.499349 
L 90.009944 53.954892 
L 90.485745 53.84561 
L 90.644345 56.198352 
L 90.802945 56.198352 
L 90.961545 60.949036 
L 91.120146 60.949036 
L 91.278746 68.010036 
L 91.437346 68.010036 
L 91.595946 77.222858 
L 91.754546 77.222858 
L 91.913147 88.414964 
L 92.071747 88.414964 
L 92.230347 101.353767 
L 92.388947 101.353767 
L 92.547547 115.766142 
L 92.706147 115.766142 
L 92.864748 131.366178 
L 93.023348 131.366178 
L 93.181948 147.839445 
L 93.340548 147.839445 
L 93.499148 164.868089 
L 93.657748 164.868089 
L 93.816349 182.10025 
L 93.974949 182.10025 
L 94.133549 199.181725 
L 94.292149 199.181725 
L 94.450749 215.746807 
L 94.609349 215.746807 
L 94.76795 231.467592 
L 94.92655 231.467592 
L 95.08515 246.037988 
L 95.24375 246.037988 
L 95.40235 259.177496 
L 95.56095 259.177496 
L 95.719551 270.597626 
L 95.878151 270.597626 
L 96.036751 280.069608 
L 96.195351 280.069608 
L 96.353951 287.378616 
L 96.512551 287.378616 
L 96.671152 292.404865 
L 96.829752 292.404865 
L 96.988352 295.062439 
L 97.146952 295.062439 
L 97.305552 295.2704 
L 97.464152 295.2704 
L 97.622753 293.042321 
L 97.781353 293.042321 
L 97.939953 288.395884 
L 98.098553 288.395884 
L 98.257153 281.45101 
L 98.415753 281.45101 
L 98.574354 272.336337 
L 98.732954 272.336337 
L 98.891554 261.234453 
L 99.050154 261.234453 
L 99.208754 248.381761 
L 99.367354 248.381761 
L 99.525955 234.036045 
L 99.684555 234.036045 
L 99.843155 218.490571 
L 100.001755 218.490571 
L 100.160355 202.03837 
L 100.318955 202.03837 
L 100.477556 185.009451 
L 100.636156 185.009451 
L 100.794756 167.773121 
L 100.953356 167.773121 
L 101.111956 150.705355 
L 101.270556 150.705355 
L 101.429157 134.133979 
L 101.587757 134.133979 
L 101.746357 118.357589 
L 101.904957 118.357589 
L 102.063557 103.699763 
L 102.222157 103.699763 
L 102.380758 90.485887 
L 102.539358 90.485887 
L 102.697958 78.989027 
L 102.856558 78.989027 
L 103.015158 69.442302 
L 103.173758 69.442302 
L 103.332359 62.012841 
L 103.490959 62.012841 
L 103.649559 56.860022 
L 103.808159 56.860022 
L 103.966759 54.086891 
L 104.12536 54.086891 
L 104.28396 53.752103 
L 104.44256 53.752103 
L 104.60116 55.872887 
L 104.75976 55.872887 
L 104.91836 60.396334 
L 105.076961 60.396334 
L 105.235561 67.236017 
L 105.394161 67.236017 
L 105.552761 76.249984 
L 105.711361 76.249984 
L 105.869961 87.246913 
L 106.028562 87.246913 
L 106.187162 100.020181 
L 106.345762 100.020181 
L 106.504362 114.311906 
L 106.662962 114.311906 
L 106.821562 129.826873 
L 106.980163 129.826873 
L 107.138763 146.237139 
L 107.297363 146.237139 
L 107.455963 163.212224 
L 107.614563 163.212224 
L 107.773163 180.432878 
L 107.931764 180.432878 
L 108.090364 197.528122 
L 108.248964 197.528122 
L 108.407564 214.153726 
L 108.566164 214.153726 
L 108.724764 229.968568 
L 108.883365 229.968568 
L 109.041965 244.672499 
L 109.200565 244.672499 
L 109.359165 257.965838 
L 109.517765 257.965838 
L 109.676365 269.566334 
L 109.834966 269.566334 
L 109.993566 279.229953 
L 110.152166 279.229953 
L 110.310766 286.769719 
L 110.469366 286.769719 
L 110.627966 292.041438 
L 110.786567 292.041438 
L 110.945167 294.930577 
L 111.103767 294.930577 
L 111.262367 295.363573 
L 111.420967 295.363573 
L 111.579567 293.33962 
L 111.738168 293.33962 
L 111.896768 288.932123 
L 112.055368 288.932123 
L 112.213968 282.217103 
L 112.372568 282.217103 
L 112.531168 273.318594 
L 112.689769 273.318594 
L 112.848369 262.415329 
L 113.006969 262.415329 
L 113.165569 249.719065 
L 113.324169 249.719065 
L 113.482769 235.489476 
L 113.64137 235.489476 
L 113.79997 220.016384 
L 113.95857 220.016384 
L 114.11717 203.630724 
L 114.27577 203.630724 
L 114.43437 186.66689 
L 114.592971 186.66689 
L 114.751571 169.463466 
L 114.910171 169.463466 
L 115.068771 152.361928 
L 115.227371 152.361928 
L 115.385971 135.711324 
L 115.544572 135.711324 
L 115.703172 119.85321 
L 115.861772 119.85321 
L 116.020372 105.095878 
L 116.178972 105.095878 
L 116.337573 91.74298 
L 116.496173 91.74298 
L 116.654773 80.048682 
L 116.813373 80.048682 
L 116.971973 70.265259 
L 117.130573 70.265259 
L 117.289174 62.592274 
L 117.447774 62.592274 
L 117.606374 57.204113 
L 117.764974 57.204113 
L 117.923574 54.228155 
L 118.082174 54.228155 
L 118.240775 53.691227 
L 118.399375 53.691227 
L 118.557975 55.573228 
L 118.716575 55.573228 
L 118.875175 59.840445 
L 119.033775 59.840445 
L 119.192376 66.458417 
L 119.350976 66.458417 
L 119.509576 75.28834 
L 119.668176 75.28834 
L 119.826776 86.123885 
L 119.985376 86.123885 
L 120.143977 98.733211 
L 120.302577 98.733211 
L 120.461177 112.874801 
L 120.619777 112.874801 
L 120.778377 128.283908 
L 120.936977 128.283908 
L 121.095578 144.614161 
L 121.254178 144.614161 
L 121.412778 161.555041 
L 121.571378 161.555041 
L 121.729978 178.767926 
L 121.888578 178.767926 
L 122.047179 195.893342 
L 122.205779 195.893342 
L 122.364379 212.578386 
L 122.522979 212.578386 
L 122.681579 228.482546 
L 122.840179 228.482546 
L 122.99878 243.305003 
L 123.15738 243.305003 
L 123.31598 256.742399 
L 123.47458 256.742399 
L 123.63318 268.515924 
L 123.79178 268.515924 
L 123.950381 278.376746 
L 124.108981 278.376746 
L 124.267581 286.132026 
L 124.426181 286.132026 
L 124.584781 291.61926 
L 124.743381 291.61926 
L 124.901982 294.734004 
L 125.060582 294.734004 
L 125.219182 295.427163 
L 125.377782 295.427163 
L 125.536382 293.663039 
L 125.694982 293.663039 
L 125.853583 289.499302 
L 126.012183 289.499302 
L 126.170783 282.992244 
L 126.329383 282.992244 
L 126.487983 274.274828 
L 126.646583 274.274828 
L 126.805184 263.542173 
L 126.963784 263.542173 
L 127.122384 251.008809 
L 127.280984 251.008809 
L 127.439584 236.940388 
L 127.598184 236.940388 
L 127.756785 221.580158 
L 127.915385 221.580158 
L 128.073985 205.259819 
L 128.232585 205.259819 
L 128.391185 188.324997 
L 128.549785 188.324997 
L 128.708386 171.128024 
L 128.866986 171.128024 
L 129.025586 154.00487 
L 129.184186 154.00487 
L 129.342786 137.281629 
L 129.501387 137.281629 
L 129.659987 121.308351 
L 129.818587 121.308351 
L 129.977187 106.421655 
L 130.135787 106.421655 
L 130.294387 92.9224 
L 130.452988 92.9224 
L 130.611588 81.082648 
L 130.770188 81.082648 
L 130.928788 71.131113 
L 131.087388 71.131113 
L 131.245988 63.267967 
L 131.404589 63.267967 
L 131.563189 57.659788 
L 131.721789 57.659788 
L 131.880389 54.42225 
L 132.038989 54.42225 
L 132.197589 53.616622 
L 132.35619 53.616622 
L 132.51479 55.25211 
L 132.67339 55.25211 
L 132.83199 59.309713 
L 132.99059 59.309713 
L 133.14919 65.7271 
L 133.307791 65.7271 
L 133.466391 74.358482 
L 133.624991 74.358482 
L 133.783591 84.991966 
L 133.942191 84.991966 
L 134.100791 97.438589 
L 134.259392 97.438589 
L 134.417992 111.44161 
L 134.576592 111.44161 
L 134.735192 126.732388 
L 134.893792 126.732388 
L 135.052392 142.992736 
L 135.210993 142.992736 
L 135.369593 159.901281 
L 135.528193 159.901281 
L 135.686793 177.115031 
L 135.845393 177.115031 
L 136.003993 194.252249 
L 136.162594 194.252249 
L 136.321194 210.985934 
L 136.479794 210.985934 
L 136.638394 226.986926 
L 136.796994 226.986926 
L 136.955594 241.938313 
L 137.114195 241.938313 
L 137.272795 255.521221 
L 137.431395 255.521221 
L 137.589995 267.461541 
L 137.748595 267.461541 
L 137.907195 277.508373 
L 138.065796 277.508373 
L 138.224396 285.469924 
L 138.382996 285.469924 
L 138.541596 291.201448 
L 138.700196 291.201448 
L 138.858796 294.554248 
L 139.017397 294.554248 
L 139.175997 295.4666 
L 139.334597 295.4666 
L 139.493197 293.924403 
L 139.651797 293.924403 
L 139.810397 289.993292 
L 139.968998 289.993292 
L 140.127598 283.727908 
L 140.286198 283.727908 
L 140.444798 275.213104 
L 140.603398 275.213104 
L 140.761998 264.663195 
L 140.920599 264.663195 
L 141.079199 252.281697 
L 141.237799 252.281697 
L 141.396399 238.330405 
L 141.554999 238.330405 
L 141.7136 223.0876 
L 141.8722 223.0876 
L 142.0308 206.861535 
L 142.1894 206.861535 
L 142.348 189.998407 
L 142.5066 189.998407 
L 142.665201 172.817465 
L 142.823801 172.817465 
L 142.982401 155.659437 
L 143.141001 155.659437 
L 143.299601 138.874966 
L 143.458201 138.874966 
L 143.616802 122.809951 
L 143.775402 122.809951 
L 143.934002 107.823395 
L 144.092602 107.823395 
L 144.251202 94.194737 
L 144.409802 94.194737 
L 144.568403 82.171866 
L 144.727003 82.171866 
L 144.885603 72.010894 
L 145.044203 72.010894 
L 145.202803 63.922654 
L 145.361403 63.922654 
L 145.520004 58.094515 
L 145.678604 58.094515 
L 145.837204 54.635266 
L 145.995804 54.635266 
L 146.154404 53.597346 
L 146.313004 53.597346 
L 146.471605 55.001742 
L 146.630205 55.001742 
L 146.788805 58.832874 
L 146.947405 58.832874 
L 147.106005 65.013032 
L 147.264605 65.013032 
L 147.423206 73.41283 
L 147.581806 73.41283 
L 147.740406 83.858591 
L 147.899006 83.858591 
L 148.057606 96.15032 
L 148.216206 96.15032 
L 148.374807 110.035621 
L 148.533407 110.035621 
L 148.692007 125.211925 
L 148.850607 125.211925 
L 149.009207 141.393105 
L 149.167807 141.393105 
L 149.326408 158.256155 
L 149.485008 158.256155 
L 149.643608 175.443214 
L 149.802208 175.443214 
L 149.960808 192.598331 
L 150.119408 192.598331 
L 150.278009 209.387464 
L 150.436609 209.387464 
L 150.595209 225.489476 
L 150.753809 225.489476 
L 150.912409 240.562655 
L 151.071009 240.562655 
L 151.22961 254.27713 
L 151.38821 254.27713 
L 151.54681 266.365755 
L 151.70541 266.365755 
L 151.86401 276.608944 
L 152.02261 276.608944 
L 152.181211 284.806052 
L 152.339811 284.806052 
L 152.498411 290.757457 
L 152.657011 290.757457 
L 152.815611 294.332222 
L 152.974211 294.332222 
L 153.132812 295.488 
L 153.291412 295.488 
L 153.450012 294.201875 
L 153.608612 294.201875 
L 153.767212 290.475186 
L 153.925812 290.475186 
L 154.084413 284.388299 
L 154.243013 284.388299 
L 154.401613 276.083916 
L 154.560213 276.083916 
L 154.718813 265.739824 
L 154.877414 265.739824 
L 155.036014 253.55189 
L 155.194614 253.55189 
L 155.353214 239.747743 
L 155.511814 239.747743 
L 155.670414 224.617406 
L 155.829015 224.617406 
L 155.987615 208.470489 
L 156.146215 208.470489 
L 156.304815 191.65199 
L 156.463415 191.65199 
L 156.622015 174.493432 
L 156.780616 174.493432 
L 156.939216 157.313965 
L 157.097816 157.313965 
L 157.256416 140.480969 
L 157.415016 140.480969 
L 157.573616 124.332676 
L 157.732217 124.332676 
L 157.890817 109.203204 
L 158.049417 109.203204 
L 158.208017 95.402755 
L 158.366617 95.402755 
L 158.525217 83.217555 
L 158.683818 83.217555 
L 158.842418 72.890477 
L 159.001018 72.890477 
L 159.159618 64.623878 
L 159.318218 64.623878 
L 159.476818 58.581149 
L 159.635419 58.581149 
L 159.794019 54.872928 
L 159.952619 54.872928 
L 160.111219 53.586725 
L 160.269819 53.586725 
L 160.428419 54.768446 
L 160.58702 54.768446 
L 160.74562 58.381094 
L 160.90422 58.381094 
L 161.06282 64.333562 
L 161.22142 64.333562 
L 161.38002 72.517295 
L 161.538621 72.517295 
L 161.697221 82.772364 
L 161.855821 82.772364 
L 162.014421 94.885615 
L 162.173021 94.885615 
L 162.331621 108.607584 
L 162.490222 108.607584 
L 162.648822 123.681471 
L 162.807422 123.681471 
L 162.966022 139.789246 
L 163.124622 139.789246 
L 163.283222 156.592324 
L 163.441823 156.592324 
L 163.600423 173.759203 
L 163.759023 173.759203 
L 163.917623 190.950373 
L 164.076223 190.950373 
L 164.234823 207.809764 
L 164.393424 207.809764 
L 164.552024 223.995193 
L 164.710624 223.995193 
L 164.869224 239.175962 
L 165.027824 239.175962 
L 165.186424 253.032428 
L 165.345025 253.032428 
L 165.503625 265.287946 
L 165.662225 265.287946 
L 165.820825 275.713133 
L 165.979425 275.713133 
L 166.138025 284.103392 
L 166.296626 284.103392 
L 166.455226 290.27397 
L 166.613826 290.27397 
L 166.772426 294.091433 
L 166.931026 294.091433 
L 167.089627 295.47549 
L 167.248227 295.47549 
L 167.406827 294.416564 
L 167.565427 294.416564 
L 167.724027 290.935345 
L 167.882627 290.935345 
L 168.041228 285.099122 
L 168.199828 285.099122 
L 168.358428 277.016331 
L 168.517028 277.016331 
L 168.675628 266.845229 
L 168.834228 266.845229 
L 168.992829 254.806308 
L 169.151429 254.806308 
L 169.310029 241.132095 
L 169.468629 241.132095 
L 169.627229 226.117983 
L 169.785829 226.117983 
L 169.94443 210.070986 
L 170.10303 210.070986 
L 170.26163 193.307186 
L 170.42023 193.307186 
L 170.57883 176.1586 
L 170.73743 176.1586 
L 170.896031 158.957556 
L 171.054631 158.957556 
L 171.213231 142.069035 
L 171.371831 142.069035 
L 171.530431 125.851408 
L 171.689031 125.851408 
L 171.847632 110.618044 
L 172.006232 110.618044 
L 172.164832 96.689057 
L 172.323432 96.689057 
L 172.482032 84.332794 
L 172.640632 84.332794 
L 172.799233 73.814788 
L 172.957833 73.814788 
L 173.116433 65.335959 
L 173.275033 65.335959 
L 173.433633 59.041721 
L 173.592233 59.041721 
L 173.750834 55.10406 
L 173.909434 55.10406 
L 174.068034 53.59833 
L 174.226634 53.59833 
L 174.385234 54.552341 
L 174.543834 54.552341 
L 174.702435 57.919342 
L 174.861035 57.919342 
L 175.019635 63.646303 
L 175.178235 63.646303 
L 175.336835 71.636846 
L 175.495435 71.636846 
L 175.654036 81.707281 
L 175.812636 81.707281 
L 175.971236 93.653069 
L 176.129836 93.653069 
L 176.288436 107.239085 
L 176.447036 107.239085 
L 176.605637 122.185417 
L 176.764237 122.185417 
L 176.922837 138.197089 
L 177.081437 138.197089 
L 177.240037 154.948202 
L 177.398637 154.948202 
L 177.557238 172.101213 
L 177.715838 172.101213 
L 177.874438 189.289315 
L 178.033038 189.289315 
L 178.191638 206.16812 
L 178.350238 206.16812 
L 178.508839 222.42896 
L 178.667439 222.42896 
L 178.826039 237.720879 
L 178.984639 237.720879 
L 179.143239 251.72805 
L 179.301839 251.72805 
L 179.46044 264.167199 
L 179.61904 264.167199 
L 179.77764 274.801803 
L 179.93624 274.801803 
L 180.09484 283.415681 
L 180.253441 283.415681 
L 180.412041 289.798823 
L 180.570641 289.798823 
L 180.729241 293.824798 
L 180.887841 293.824798 
L 181.046441 295.424606 
L 181.205042 295.424606 
L 181.363642 294.592897 
L 181.522242 294.592897 
L 181.680842 291.362755 
L 181.839442 291.362755 
L 181.998042 285.771432 
L 182.156643 285.771432 
L 182.315243 277.907617 
L 182.473843 277.907617 
L 182.632443 267.930906 
L 182.791043 267.930906 
L 182.949643 256.054196 
L 183.108244 256.054196 
L 183.266844 242.521739 
L 183.425444 242.521739 
L 183.584044 227.60788 
L 183.742644 227.60788 
L 183.901244 211.633973 
L 184.059845 211.633973 
L 184.218445 194.913938 
L 184.377045 194.913938 
L 184.535645 177.79397 
L 184.694245 177.79397 
L 184.852845 160.613972 
L 185.011446 160.613972 
L 185.170046 143.70055 
L 185.328646 143.70055 
L 185.487246 127.403322 
L 185.645846 127.403322 
L 185.804446 112.047045 
L 185.963047 112.047045 
L 186.121647 97.976795 
L 186.280247 97.976795 
L 186.438847 85.460229 
L 186.597447 85.460229 
L 186.756047 74.738431 
L 186.914648 74.738431 
L 187.073248 66.041314 
L 187.231848 66.041314 
L 187.390448 59.551879 
L 187.549048 59.551879 
L 187.707648 55.405942 
L 187.866249 55.405942 
L 188.024849 53.665323 
L 188.183449 53.665323 
L 188.342049 54.364718 
L 188.500649 54.364718 
L 188.659249 57.486365 
L 188.81785 57.486365 
L 188.97645 62.995156 
L 189.13505 62.995156 
L 189.29365 70.773037 
L 189.45225 70.773037 
L 189.61085 80.64326 
L 189.769451 80.64326 
L 189.928051 92.406892 
L 190.086651 92.406892 
L 190.245251 105.840964 
L 190.403851 105.840964 
L 190.562451 120.679156 
L 190.721052 120.679156 
L 190.879652 136.616458 
L 191.038252 136.616458 
L 191.196852 153.317218 
L 191.355452 153.317218 
L 191.514052 170.43632 
L 191.672653 170.43632 
L 191.831253 187.642714 
L 191.989853 187.642714 
L 192.148453 204.579779 
L 192.307053 204.579779 
L 192.465654 220.920495 
L 192.624254 220.920495 
L 192.782854 236.31493 
L 192.941454 236.31493 
L 193.100054 250.449124 
L 193.258654 250.449124 
L 193.417255 263.048517 
L 193.575855 263.048517 
L 193.734455 273.865297 
L 193.893055 273.865297 
L 194.051655 282.6667 
L 194.210255 282.6667 
L 194.368856 289.264826 
L 194.527456 289.264826 
L 194.686056 293.528404 
L 194.844656 293.528404 
L 195.003256 295.384363 
L 195.161856 295.384363 
L 195.320457 294.822948 
L 195.479057 294.822948 
L 195.637657 291.825864 
L 195.796257 291.825864 
L 195.954857 286.427791 
L 196.113457 286.427791 
L 196.272058 278.741254 
L 196.430658 278.741254 
L 196.589258 268.94957 
L 196.747858 268.94957 
L 196.906458 257.265735 
L 197.065058 257.265735 
L 197.223659 243.893503 
L 197.382259 243.893503 
L 197.540859 229.108162 
L 197.699459 229.108162 
L 197.858059 213.237676 
L 198.016659 213.237676 
L 198.17526 196.597969 
L 198.33386 196.597969 
L 198.49246 179.487167 
L 198.65106 179.487167 
L 198.80966 162.258665 
L 198.96826 162.258665 
L 199.126861 145.292805 
L 199.285461 145.292805 
L 199.444061 128.924532 
L 199.602661 128.924532 
L 199.761261 113.476381 
L 199.919861 113.476381 
L 200.078462 99.269037 
L 200.237062 99.269037 
L 200.395662 86.592364 
L 200.554262 86.592364 
L 200.712862 75.698973 
L 200.871462 75.698973 
L 201.030063 66.793737 
L 201.188663 66.793737 
L 201.347263 60.060641 
L 201.505863 60.060641 
L 201.664463 55.662014 
L 201.823063 55.662014 
L 201.981664 53.691896 
L 202.140264 53.691896 
L 202.298864 54.185512 
L 202.457464 54.185512 
L 202.616064 57.088223 
L 202.774664 57.088223 
L 202.933265 62.36244 
L 203.091865 62.36244 
L 203.250465 69.91863 
L 203.409065 69.91863 
L 203.567665 79.60237 
L 203.726265 79.60237 
L 203.884866 91.186029 
L 204.043466 91.186029 
L 204.202066 104.465049 
L 204.360666 104.465049 
L 204.519266 119.197815 
L 204.677867 119.197815 
L 204.836467 135.046075 
L 204.995067 135.046075 
L 205.153667 151.679645 
L 205.312267 151.679645 
L 205.470867 168.763441 
L 205.629468 168.763441 
L 205.788068 185.979611 
L 205.946668 185.979611 
L 206.105268 202.96988 
L 206.263868 202.96988 
L 206.422468 219.376016 
L 206.581069 219.376016 
L 206.739669 234.872573 
L 206.898269 234.872573 
L 207.056869 249.145199 
L 207.215469 249.145199 
L 207.374069 261.895729 
L 207.53267 261.895729 
L 207.69127 272.883631 
L 207.84987 272.883631 
L 208.00847 281.906783 
L 208.16707 281.906783 
L 208.32567 288.756438 
L 208.484271 288.756438 
L 208.642871 293.260885 
L 208.801471 293.260885 
L 208.960071 295.331021 
L 209.118671 295.331021 
L 209.277271 294.955419 
L 209.435872 294.955419 
L 209.594472 292.167852 
L 209.753072 292.167852 
L 209.911672 287.012888 
L 210.070272 287.012888 
L 210.228872 279.587695 
L 210.387473 279.587695 
L 210.546073 270.016167 
L 210.704673 270.016167 
L 210.863273 258.496452 
L 211.021873 258.496452 
L 211.180473 245.274453 
L 211.339074 245.274453 
L 211.497674 230.623452 
L 211.656274 230.623452 
L 211.814874 214.827 
L 211.973474 214.827 
L 212.132074 198.211014 
L 212.290675 198.211014 
L 212.449275 181.133689 
L 212.607875 181.133689 
L 212.766475 163.933904 
L 212.925075 163.933904 
L 213.083675 146.951089 
L 213.242276 146.951089 
L 213.400876 130.493145 
L 213.559476 130.493145 
L 213.718076 114.925563 
L 213.876676 114.925563 
L 214.035276 100.578588 
L 214.193877 100.578588 
L 214.352477 87.760159 
L 214.511077 87.760159 
L 214.669677 76.691319 
L 214.828277 76.691319 
L 214.986877 67.568444 
L 215.145478 67.568444 
L 215.304078 60.609055 
L 215.462678 60.609055 
L 215.621278 55.983447 
L 215.779878 55.983447 
L 215.938478 53.790163 
L 216.097079 53.790163 
L 216.255679 54.028356 
L 216.414279 54.028356 
L 216.572879 56.691969 
L 216.731479 56.691969 
L 216.890079 61.744633 
L 217.04868 61.744633 
L 217.20728 69.092369 
L 217.36588 69.092369 
L 217.52448 78.568462 
L 217.68308 78.568462 
L 217.841681 89.990284 
L 218.000281 89.990284 
L 218.158881 103.131797 
L 218.317481 103.131797 
L 218.476081 117.733409 
L 218.634681 117.733409 
L 218.793282 133.464146 
L 218.951882 133.464146 
L 219.110482 150.019945 
L 219.269082 150.019945 
L 219.427682 167.08537 
L 219.586282 167.08537 
L 219.744883 184.305178 
L 219.903483 184.305178 
L 220.062083 201.334235 
L 220.220683 201.334235 
L 220.379283 217.820444 
L 220.537883 217.820444 
L 220.696484 233.431692 
L 220.855084 233.431692 
L 221.013684 247.83791 
L 221.172284 247.83791 
L 221.330884 260.741152 
L 221.489484 260.741152 
L 221.648085 271.906036 
L 221.806685 271.906036 
L 221.965285 281.114688 
L 222.123885 281.114688 
L 222.282485 288.162273 
L 222.441085 288.162273 
L 222.599686 292.899956 
L 222.758286 292.899956 
L 222.916886 295.223411 
L 223.075486 295.223411 
L 223.392686 295.109979 
L 223.551287 292.567194 
L 223.709887 292.567194 
L 223.868487 287.631915 
L 224.027087 287.631915 
L 224.185687 280.398201 
L 224.344287 280.398201 
L 224.502888 271.009419 
L 224.661488 271.009419 
L 224.820088 259.659684 
L 224.978688 259.659684 
L 225.137288 246.599109 
L 225.295888 246.599109 
L 225.454489 232.084632 
L 225.613089 232.084632 
L 225.771689 216.410345 
L 225.930289 216.410345 
L 226.088889 199.875907 
L 226.247489 199.875907 
L 226.40609 182.80704 
L 226.56469 182.80704 
L 226.72329 165.587605 
L 226.88189 165.587605 
L 227.04049 148.552943 
L 227.19909 148.552943 
L 227.357691 132.049464 
L 227.516291 132.049464 
L 227.674891 116.397089 
L 227.833491 116.397089 
L 227.992091 101.900451 
L 228.150691 101.900451 
L 228.309292 88.885607 
L 228.467892 88.885607 
L 228.626492 77.619643 
L 228.785092 77.619643 
L 228.943692 68.342484 
L 229.102292 68.342484 
L 229.260893 61.21392 
L 229.419493 61.21392 
L 229.578093 56.368746 
L 229.736693 56.368746 
L 229.895293 53.917481 
L 230.371094 53.912013 
L 230.529694 56.346716 
L 230.688294 56.346716 
L 230.846894 61.164511 
L 231.005495 61.164511 
L 231.164095 68.283004 
L 231.322695 68.283004 
L 231.481295 77.559121 
L 231.639895 77.559121 
L 231.798495 88.817611 
L 231.957096 88.817611 
L 232.115696 101.808577 
L 232.274296 101.808577 
L 232.432896 116.263201 
L 232.591496 116.263201 
L 232.750096 131.898346 
L 232.908697 131.898346 
L 233.067297 148.389236 
L 233.225897 148.389236 
L 233.384497 165.42386 
L 233.543097 165.42386 
L 233.701697 182.649569 
L 233.860298 182.649569 
L 234.018898 199.71586 
L 234.177498 199.71586 
L 234.336098 216.267724 
L 234.494698 216.267724 
L 234.653298 231.968269 
L 234.811899 231.968269 
L 234.970499 246.504206 
L 235.129099 246.504206 
L 235.287699 259.587026 
L 235.446299 259.587026 
L 235.604899 270.931745 
L 235.7635 270.931745 
L 235.9221 280.30729 
L 236.2393 280.30729 
L 236.3979 287.554556 
L 236.5565 287.554556 
L 236.715101 292.521129 
L 236.873701 292.521129 
L 237.032301 295.125714 
L 237.190901 295.125714 
L 237.508101 295.266742 
L 237.666702 292.939393 
L 237.825302 292.939393 
L 237.983902 288.196537 
L 238.142502 288.196537 
L 238.301102 281.152551 
L 238.459702 281.152551 
L 238.618303 271.963214 
L 238.776903 271.963214 
L 238.935503 260.818392 
L 239.094103 260.818392 
L 239.252703 247.943769 
L 239.411303 247.943769 
L 239.569904 233.55427 
L 239.728504 233.55427 
L 239.887104 217.96513 
L 240.045704 217.96513 
L 240.204304 201.491844 
L 240.362904 201.491844 
L 240.521505 184.485092 
L 240.680105 184.485092 
L 240.838705 167.265244 
L 240.997305 167.265244 
L 241.155905 150.181114 
L 241.314505 150.181114 
L 241.473106 133.601948 
L 241.631706 133.601948 
L 241.790306 117.852152 
L 241.948906 117.852152 
L 242.107506 103.252546 
L 242.266106 103.252546 
L 242.424707 90.107335 
L 242.583307 90.107335 
L 242.741907 78.678688 
L 242.900507 78.678688 
L 243.059107 69.180231 
L 243.217708 69.180231 
L 243.376308 61.808597 
L 243.534908 61.808597 
L 243.693508 56.723006 
L 243.852108 56.723006 
L 244.010708 54.030559 
L 244.169309 54.030559 
L 244.327909 53.786111 
L 244.486509 53.786111 
L 244.645109 55.993734 
L 244.803709 55.993734 
L 244.962309 60.58854 
L 245.12091 60.58854 
L 245.27951 67.482451 
L 245.43811 67.482451 
L 245.59671 76.554816 
L 245.75531 76.554816 
L 245.91391 87.633844 
L 246.072511 87.633844 
L 246.231111 100.475128 
L 246.389711 100.475128 
L 246.548311 114.804755 
L 246.706911 114.804755 
L 246.865511 130.337168 
L 247.024112 130.337168 
L 247.182712 146.763446 
L 247.341312 146.763446 
L 247.499912 163.765831 
L 247.658512 163.765831 
L 247.817112 180.986623 
L 247.975713 180.986623 
L 248.134313 198.072052 
L 248.292913 198.072052 
L 248.451513 214.681468 
L 248.610113 214.681468 
L 248.768713 230.484549 
L 248.927314 230.484549 
L 249.085914 245.156615 
L 249.244514 245.156615 
L 249.403114 258.375979 
L 249.561714 258.375979 
L 249.720314 269.899431 
L 249.878915 269.899431 
L 250.037515 279.508724 
L 250.196115 279.508724 
L 250.354715 286.981654 
L 250.513315 286.981654 
L 250.671915 292.15904 
L 250.830516 292.15904 
L 250.989116 294.943008 
L 251.147716 294.943008 
L 251.306316 295.311666 
L 251.464916 295.311666 
L 251.623516 293.261416 
L 251.782117 293.261416 
L 251.940717 288.79737 
L 252.099317 288.79737 
L 252.257917 282.000389 
L 252.416517 282.000389 
L 252.575117 273.008392 
L 252.733718 273.008392 
L 252.892318 262.028083 
L 253.050918 262.028083 
L 253.209518 249.279362 
L 253.368118 249.279362 
L 253.526718 235.007326 
L 253.685319 235.007326 
L 253.843919 219.509019 
L 254.002519 219.509019 
L 254.161119 203.101133 
L 254.319719 203.101133 
L 254.478319 186.114462 
L 254.63692 186.114462 
L 254.79552 168.903328 
L 254.95412 168.903328 
L 255.11272 151.80895 
L 255.27132 151.80895 
L 255.429921 135.179157 
L 255.588521 135.179157 
L 255.747121 119.336246 
L 255.905721 119.336246 
L 256.064321 104.612529 
L 256.222921 104.612529 
L 256.381522 91.327627 
L 256.540122 91.327627 
L 256.698722 79.72066 
L 256.857322 79.72066 
L 257.015922 70.010917 
L 257.174522 70.010917 
L 257.333123 62.412281 
L 257.491723 62.412281 
L 257.650323 57.115445 
L 257.808923 57.115445 
L 257.967523 54.209587 
L 258.126123 54.209587 
L 258.284724 53.718292 
L 258.443324 53.718292 
L 258.601924 55.664021 
L 258.760524 55.664021 
L 258.919124 60.031806 
L 259.077724 60.031806 
L 259.236325 66.725524 
L 259.394925 66.725524 
L 259.553525 75.604443 
L 259.712125 75.604443 
L 259.870725 86.489691 
L 260.029325 86.489691 
L 260.187926 99.155998 
L 260.346526 99.155998 
L 260.505126 113.346506 
L 260.663726 113.346506 
L 260.822326 128.77068 
L 260.980926 128.77068 
L 261.139527 145.12188 
L 261.298127 145.12188 
L 261.456727 162.070549 
L 261.615327 162.070549 
L 261.773927 179.286011 
L 261.932527 179.286011 
L 262.091128 196.412489 
L 262.249728 196.412489 
L 262.408328 213.096176 
L 262.566928 213.096176 
L 262.725528 228.994278 
L 262.884128 228.994278 
L 263.042729 243.784241 
L 263.201329 243.784241 
L 263.359929 257.167842 
L 263.518529 257.167842 
L 263.677129 268.871562 
L 263.835729 268.871562 
L 263.99433 278.672314 
L 264.15293 278.672314 
L 264.31153 286.348269 
L 264.47013 286.348269 
L 264.62873 291.748702 
L 264.78733 291.748702 
L 264.945931 294.783708 
L 265.104531 294.783708 
L 265.263131 295.40478 
L 265.421731 295.40478 
L 265.580331 293.573545 
L 265.738931 293.573545 
L 265.897532 289.298697 
L 266.056132 289.298697 
L 266.214732 282.682121 
L 266.373332 282.682121 
L 266.531932 273.905186 
L 266.690532 273.905186 
L 266.849133 263.152233 
L 267.007733 263.152233 
L 267.166333 250.603016 
L 267.324933 250.603016 
L 267.483533 236.469136 
L 267.642133 236.469136 
L 267.800734 221.04388 
L 267.959334 221.04388 
L 268.117934 204.701708 
L 268.276534 204.701708 
L 268.435134 187.768754 
L 268.593735 187.768754 
L 268.752335 170.573257 
L 268.910935 170.573257 
L 269.069535 153.452246 
L 269.228135 153.452246 
L 269.386735 136.759295 
L 269.545336 136.759295 
L 269.703936 120.829939 
L 269.862536 120.829939 
L 270.021136 105.981185 
L 270.179736 105.981185 
L 270.338336 92.522723 
L 270.496937 92.522723 
L 270.655537 80.714128 
L 270.814137 80.714128 
L 270.972737 70.805707 
L 271.131337 70.805707 
L 271.289937 63.010715 
L 271.448538 63.010715 
L 271.607138 57.496436 
L 271.765738 57.496436 
L 271.924338 54.34912 
L 272.082938 54.34912 
L 272.241538 53.628896 
L 272.400139 53.628896 
L 272.558739 55.361195 
L 272.717339 55.361195 
L 272.875939 59.50546 
L 273.034539 59.50546 
L 273.193139 65.990784 
L 273.35174 65.990784 
L 273.51034 74.673228 
L 273.66894 74.673228 
L 273.82754 85.364932 
L 273.98614 85.364932 
L 274.14474 97.846467 
L 274.303341 97.846467 
L 274.461941 111.894118 
L 274.620541 111.894118 
L 274.779141 127.238219 
L 274.937741 127.238219 
L 275.096341 143.536981 
L 275.254942 143.536981 
L 275.413542 160.453354 
L 275.572142 160.453354 
L 275.730742 177.657309 
L 275.889342 177.657309 
L 276.047942 194.807292 
L 276.206543 194.807292 
L 276.365143 211.529274 
L 276.523743 211.529274 
L 276.682343 227.488626 
L 276.840943 227.488626 
L 276.999543 242.387654 
L 277.158144 242.387654 
L 277.316744 255.93028 
L 277.475344 255.93028 
L 277.633944 267.829983 
L 277.792544 267.829983 
L 277.951144 277.810413 
L 278.109745 277.810413 
L 278.268345 285.692441 
L 278.426945 285.692441 
L 278.585545 291.334707 
L 278.744145 291.334707 
L 278.902745 294.611603 
L 279.061346 294.611603 
L 279.219946 295.454779 
L 279.378546 295.454779 
L 279.537146 293.824484 
L 279.695746 293.824484 
L 279.854346 289.796502 
L 280.012947 289.796502 
L 280.171547 283.457084 
L 280.330147 283.457084 
L 280.488747 274.912482 
L 280.647347 274.912482 
L 280.805948 264.323057 
L 280.964548 264.323057 
L 281.123148 251.883535 
L 281.281748 251.883535 
L 281.440348 237.887909 
L 281.598948 237.887909 
L 281.757549 222.60846 
L 281.916149 222.60846 
L 282.074749 206.346656 
L 282.233349 206.346656 
L 282.391949 189.442085 
L 282.550549 189.442085 
L 282.70915 172.240333 
L 282.86775 172.240333 
L 283.02635 155.093989 
L 283.18495 155.093989 
L 283.34355 138.335402 
L 283.50215 138.335402 
L 283.660751 122.305497 
L 283.819351 122.305497 
L 283.977951 107.339692 
L 284.136551 107.339692 
L 284.295151 93.741698 
L 284.453751 93.741698 
L 284.612352 81.784344 
L 284.770952 81.784344 
L 284.929552 71.721561 
L 285.088152 71.721561 
L 285.246752 63.726454 
L 285.405352 63.726454 
L 285.563953 57.945108 
L 285.722553 57.945108 
L 285.881153 54.530646 
L 286.039753 54.530646 
L 286.198353 53.570203 
L 286.356953 53.570203 
L 286.515554 55.070839 
L 286.674154 55.070839 
L 286.832754 58.971089 
L 286.991354 58.971089 
L 287.149954 65.20988 
L 287.308554 65.20988 
L 287.467155 73.701809 
L 287.625755 73.701809 
L 287.784355 84.239799 
L 287.942955 84.239799 
L 288.101555 96.582864 
L 288.260155 96.582864 
L 288.418756 110.48925 
L 288.577356 110.48925 
L 288.735956 125.697654 
L 288.894556 125.697654 
L 289.053156 141.905958 
L 289.211756 141.905958 
L 289.370357 158.775459 
L 289.528957 158.775459 
L 289.687557 175.976405 
L 289.846157 175.976405 
L 290.004757 193.141494 
L 290.163357 193.141494 
L 290.321958 209.914793 
L 290.480558 209.914793 
L 290.639158 225.962577 
L 290.797758 225.962577 
L 290.956358 240.986583 
L 291.114958 240.986583 
L 291.273559 254.684635 
L 291.432159 254.684635 
L 291.590759 266.748772 
L 291.749359 266.748772 
L 291.907959 276.918142 
L 292.066559 276.918142 
L 292.22516 284.995859 
L 292.38376 284.995859 
L 292.54236 290.848584 
L 292.70096 290.848584 
L 292.85956 294.359464 
L 293.018161 294.359464 
L 293.176761 295.466993 
L 293.335361 295.466993 
L 293.493961 294.124418 
L 293.652561 294.124418 
L 293.811161 290.329536 
L 293.969762 290.329536 
L 294.128362 284.165114 
L 294.286962 284.165114 
L 294.445562 275.778257 
L 294.604162 275.778257 
L 294.762762 265.3739 
L 294.921363 265.3739 
L 295.079963 253.11791 
L 295.238563 253.11791 
L 295.397163 239.25393 
L 295.555763 239.25393 
L 295.714363 224.085631 
L 295.872964 224.085631 
L 296.031564 207.928133 
L 296.190164 207.928133 
L 296.348764 191.09738 
L 296.507364 191.09738 
L 296.665964 173.903692 
L 296.824565 173.903692 
L 296.983165 156.720154 
L 297.141765 156.720154 
L 297.300365 139.913259 
L 297.458965 139.913259 
L 297.617565 123.818466 
L 297.776166 123.818466 
L 297.934766 108.744146 
L 298.093366 108.744146 
L 298.251966 94.985927 
L 298.410566 94.985927 
L 298.569166 82.837587 
L 298.727767 82.837587 
L 298.886367 72.566035 
L 299.044967 72.566035 
L 299.203567 64.372408 
L 299.362167 64.372408 
L 299.520767 58.406094 
L 299.679368 58.406094 
L 299.837968 54.778989 
L 299.996568 54.778989 
L 300.155168 53.568 
L 300.313768 53.568 
L 300.472368 54.822595 
L 300.630969 54.822595 
L 300.789569 58.501902 
L 300.948169 58.501902 
L 301.106769 64.524175 
L 301.265369 64.524175 
L 301.423969 72.776947 
L 301.58257 72.776947 
L 301.74117 83.114921 
L 301.89977 83.114921 
L 302.05837 95.321758 
L 302.21697 95.321758 
L 302.37557 109.10356 
L 302.534171 109.10356 
L 302.692771 124.188973 
L 302.851371 124.188973 
L 303.009971 140.288566 
L 303.168571 140.288566 
L 303.327171 157.118454 
L 303.485772 157.118454 
L 303.644372 174.314187 
L 303.802972 174.314187 
L 303.961572 191.492631 
L 304.120172 191.492631 
L 304.278772 208.323069 
L 304.437373 208.323069 
L 304.595973 224.461646 
L 304.754573 224.461646 
L 304.913173 239.595248 
L 305.071773 239.595248 
L 305.230373 253.41096 
L 305.388974 253.41096 
L 305.547574 265.632844 
L 305.706174 265.632844 
L 305.864774 276.023394 
L 306.023374 276.023394 
L 306.181975 284.347564 
L 306.340575 284.347564 
L 306.499175 290.424184 
L 306.657775 290.424184 
L 306.816375 294.140665 
L 306.974975 294.140665 
L 307.133576 295.453048 
L 307.292176 295.453048 
L 307.450776 294.340031 
L 307.609376 294.340031 
L 307.767976 290.794986 
L 307.926576 290.794986 
L 308.085177 284.861519 
L 308.243777 284.861519 
L 308.402377 276.682486 
L 308.560977 276.682486 
L 308.719577 266.462409 
L 308.878177 266.462409 
L 309.036778 254.377009 
L 309.195378 254.377009 
L 309.353978 240.669202 
L 309.512578 240.669202 
L 309.671178 225.613352 
L 309.829778 225.613352 
L 309.988379 209.537225 
L 310.146979 209.537225 
L 310.305579 192.746813 
L 310.464179 192.746813 
L 310.622779 175.572539 
L 310.781379 175.572539 
L 310.93998 158.383788 
L 311.09858 158.383788 
L 311.25718 141.529334 
L 311.41578 141.529334 
L 311.57438 125.352402 
L 311.73298 125.352402 
L 311.891581 110.153302 
L 312.050181 110.153302 
L 312.208781 96.260231 
L 312.367381 96.260231 
L 312.525981 83.950545 
L 312.684581 83.950545 
L 312.843182 73.481495 
L 313.001782 73.481495 
L 313.160382 65.069462 
L 313.318982 65.069462 
L 313.477582 58.874848 
L 313.636182 58.874848 
L 313.794783 55.015923 
L 313.953383 55.015923 
L 314.111983 53.577835 
L 314.270583 53.577835 
L 314.429183 54.602773 
L 314.587783 54.602773 
L 314.746384 58.066329 
L 314.904984 58.066329 
L 315.063584 63.873166 
L 315.222184 63.873166 
L 315.380784 71.899566 
L 315.539384 71.899566 
L 315.697985 82.017935 
L 315.856585 82.017935 
L 316.015185 94.021471 
L 316.173785 94.021471 
L 316.332385 107.670979 
L 316.490985 107.670979 
L 316.649586 122.668727 
L 316.808186 122.668727 
L 316.966786 138.715901 
L 317.125386 138.715901 
L 317.283986 155.481982 
L 317.442586 155.481982 
L 317.601187 172.629231 
L 317.759787 172.629231 
L 317.918387 189.858343 
L 318.076987 189.858343 
L 318.235587 206.802783 
L 318.394188 206.802783 
L 318.552788 223.088505 
L 318.711388 223.088505 
L 318.869988 238.336759 
L 319.028588 238.336759 
L 319.187188 252.25062 
L 319.345789 252.25062 
L 319.504389 264.591422 
L 319.662989 264.591422 
L 319.821589 275.134684 
L 319.980189 275.134684 
L 320.138789 283.655919 
L 320.29739 283.655919 
L 320.45599 289.966581 
L 320.61459 289.966581 
L 320.77319 293.927216 
L 320.93179 293.927216 
L 321.09039 295.473347 
L 321.248991 295.473347 
L 321.407591 294.581116 
L 321.566191 294.581116 
L 321.724791 291.240452 
L 321.883391 291.240452 
L 322.041991 285.515065 
L 322.200592 285.515065 
L 322.359192 277.5508 
L 322.517792 277.5508 
L 322.676392 267.537917 
L 322.834992 267.537917 
L 322.993592 255.659613 
L 323.152193 255.659613 
L 323.310793 242.102806 
L 323.469393 242.102806 
L 323.627993 227.134857 
L 323.786593 227.134857 
L 323.945193 211.118603 
L 324.103794 211.118603 
L 324.262394 194.393355 
L 324.420994 194.393355 
L 324.579594 177.272718 
L 324.738194 177.272718 
L 324.896794 160.086839 
L 325.055395 160.086839 
L 325.213995 143.177725 
L 325.372595 143.177725 
L 325.531195 126.881834 
L 325.689795 126.881834 
L 325.848395 111.562693 
L 326.006996 111.562693 
L 326.165596 97.528162 
L 326.324196 97.528162 
L 326.482796 85.076917 
L 326.641396 85.076917 
L 326.799996 74.437926 
L 326.958597 74.437926 
L 327.117197 65.818915 
L 327.275797 65.818915 
L 327.434397 59.399463 
L 327.592997 59.399463 
L 327.751597 55.293789 
L 327.910198 55.293789 
L 328.068798 53.617153 
L 328.227398 53.617153 
L 328.385998 54.405846 
L 328.544598 54.405846 
L 328.703198 57.639843 
L 328.861799 57.639843 
L 329.020399 63.227114 
L 329.178999 63.227114 
L 329.337599 71.056862 
L 329.496199 71.056862 
L 329.654799 80.9797 
L 329.8134 80.9797 
L 329.972 92.802241 
L 330.1306 92.802241 
L 330.2892 106.288712 
L 330.4478 106.288712 
L 330.6064 121.167147 
L 330.765001 121.167147 
L 330.923601 137.140581 
L 331.082201 137.140581 
L 331.240801 153.860774 
L 331.399401 153.860774 
L 331.558002 170.990872 
L 331.716602 170.990872 
L 331.875202 188.182828 
L 332.033802 188.182828 
L 332.192402 205.112183 
L 332.351002 205.112183 
L 332.509603 221.42967 
L 332.668203 221.42967 
L 332.826803 236.77861 
L 332.985403 236.77861 
L 333.144003 250.870319 
L 333.302603 250.870319 
L 333.461204 263.415248 
L 333.619804 263.415248 
L 333.778404 274.179079 
L 333.937004 274.179079 
L 334.095604 282.931997 
L 334.254204 282.931997 
L 334.412805 289.458823 
L 334.571405 289.458823 
L 334.730005 293.656234 
L 334.888605 293.656234 
L 335.047205 295.428029 
L 335.205805 295.428029 
L 335.364406 294.76276 
L 335.523006 294.76276 
L 335.681606 291.65966 
L 335.840206 291.65966 
L 335.998806 286.172997 
L 336.157406 286.172997 
L 336.316007 278.455796 
L 336.474607 278.455796 
L 336.633207 268.625836 
L 336.791807 268.625836 
L 336.950407 256.882384 
L 337.109007 256.882384 
L 337.267608 243.452836 
L 337.426208 243.452836 
L 337.584808 228.627468 
L 337.743408 228.627468 
L 337.902008 212.718352 
L 338.060608 212.718352 
L 338.219209 196.024673 
L 338.377809 196.024673 
L 338.536409 178.905531 
L 338.695009 178.905531 
L 338.853609 161.703838 
L 339.012209 161.703838 
L 339.17081 144.760656 
L 339.32941 144.760656 
L 339.48801 128.416242 
L 339.64661 128.416242 
L 339.80521 112.997516 
L 339.96381 112.997516 
L 340.122411 98.825734 
L 340.281011 98.825734 
L 340.439611 86.18956 
L 340.598211 86.18956 
L 340.756811 75.346758 
L 340.915411 75.346758 
L 341.074012 66.528125 
L 341.232612 66.528125 
L 341.391212 59.908244 
L 341.549812 59.908244 
L 341.708412 55.610776 
L 341.867012 55.610776 
L 342.025613 53.711781 
L 342.184213 53.711781 
L 342.342813 54.244362 
L 342.501413 54.244362 
L 342.660013 57.208578 
L 342.818613 57.208578 
L 342.977214 62.557892 
L 343.135814 62.557892 
L 343.294414 70.183592 
L 343.453014 70.183592 
L 343.611614 79.938594 
L 343.770215 79.938594 
L 343.928815 91.615308 
L 344.087415 91.615308 
L 344.246015 104.960298 
L 344.404615 104.960298 
L 344.563215 119.714837 
L 344.721816 119.714837 
L 344.880416 135.568605 
L 345.039016 135.568605 
L 345.197616 152.214311 
L 345.356216 152.214311 
L 345.514816 169.311522 
L 345.673417 169.311522 
L 345.832017 186.52655 
L 345.990617 186.52655 
L 346.149217 203.49182 
L 346.307817 203.49182 
L 346.466417 219.867056 
L 346.625018 219.867056 
L 346.783618 235.334326 
L 346.942218 235.334326 
L 347.100818 249.577959 
L 347.259418 249.577959 
L 347.418018 262.302782 
L 347.576619 262.302782 
L 347.735219 273.227821 
L 347.893819 273.227821 
L 348.052419 282.156955 
L 348.211019 282.156955 
L 348.369619 288.902619 
L 348.52822 288.902619 
L 348.68682 293.337791 
L 348.84542 293.337791 
L 349.00402 295.354388 
L 349.16262 295.354388 
L 349.32122 294.929869 
L 349.479821 294.929869 
L 349.638421 292.075662 
L 349.797021 292.075662 
L 349.955621 286.838915 
L 350.114221 286.838915 
L 350.272821 279.30922 
L 350.431422 279.30922 
L 350.590022 269.637065 
L 350.748622 269.637065 
L 350.907222 258.056316 
L 351.065822 258.056316 
L 351.224422 244.80025 
L 351.383023 244.80025 
L 351.541623 230.134949 
L 351.700223 230.134949 
L 351.858823 214.333325 
L 352.017423 214.333325 
L 352.176023 197.702351 
L 352.334624 197.702351 
L 352.493224 180.599377 
L 352.651824 180.599377 
L 352.810424 163.370836 
L 352.969024 163.370836 
L 353.127624 146.381215 
L 353.286225 146.381215 
L 353.444825 129.963435 
L 353.603425 129.963435 
L 353.762025 114.449648 
L 353.920625 114.449648 
L 354.079225 100.153085 
L 354.237826 100.153085 
L 354.396426 87.356647 
L 354.555026 87.356647 
L 354.713626 76.33517 
L 354.872226 76.33517 
L 355.030826 67.301377 
L 355.189427 67.301377 
L 355.348027 60.441868 
L 355.506627 60.441868 
L 355.665227 55.896038 
L 355.823827 55.896038 
L 355.982427 53.760797 
L 356.141028 53.760797 
L 356.299628 54.065019 
L 356.458228 54.065019 
L 356.616828 56.811163 
L 356.775428 56.811163 
L 356.934029 61.942268 
L 357.092629 61.942268 
L 357.251229 69.35031 
L 357.409829 69.35031 
L 357.568429 78.897349 
L 357.727029 78.897349 
L 357.88563 90.387915 
L 358.04423 90.387915 
L 358.20283 103.585702 
L 358.36143 103.585702 
L 358.52003 118.213886 
L 358.67863 118.213886 
L 358.837231 133.984808 
L 358.995831 133.984808 
L 359.154431 150.593968 
L 359.313031 150.593968 
L 359.471631 167.668973 
L 359.630231 167.668973 
L 359.788832 184.864391 
L 359.947432 184.864391 
L 360.106032 201.857631 
L 360.264632 201.857631 
L 360.423232 218.311366 
L 360.581832 218.311366 
L 360.740433 233.893483 
L 360.899033 233.893483 
L 361.057633 248.260875 
L 361.216233 248.260875 
L 361.374833 261.129519 
L 361.533433 261.129519 
L 361.692034 272.236458 
L 361.850634 272.236458 
L 362.009234 281.369797 
L 362.167834 281.369797 
L 362.326434 288.342757 
L 362.485034 288.342757 
L 362.643635 293.010811 
L 362.802235 293.010811 
L 362.960835 295.26983 
L 363.119435 295.26983 
L 363.278035 295.075951 
L 363.436635 295.075951 
L 363.595236 292.442551 
L 363.753836 292.442551 
L 363.912436 287.416656 
L 364.071036 287.416656 
L 364.229636 280.108022 
L 364.388236 280.108022 
L 364.546837 270.65919 
L 364.705437 270.65919 
L 364.864037 259.268269 
L 365.022637 259.268269 
L 365.181237 246.16808 
L 365.339837 246.16808 
L 365.498438 231.611943 
L 365.657038 231.611943 
L 365.815638 215.887402 
L 365.974238 215.887402 
L 366.132838 199.318347 
L 366.291438 199.318347 
L 366.450039 182.248535 
L 366.608639 182.248535 
L 366.767239 165.019345 
L 366.925839 165.019345 
L 367.084439 147.991428 
L 367.243039 147.991428 
L 367.40164 131.514267 
L 367.56024 131.514267 
L 367.71884 115.905754 
L 367.87744 115.905754 
L 368.03604 101.474988 
L 368.19464 101.474988 
L 368.353241 88.51982 
L 368.511841 88.51982 
L 368.670441 77.316404 
L 368.829041 77.316404 
L 368.987641 68.090404 
L 369.146242 68.090404 
L 369.304842 61.020612 
L 369.463442 61.020612 
L 369.622042 56.242411 
L 369.780642 56.242411 
L 369.939242 53.855327 
L 370.415043 53.91992 
L 370.573643 56.446675 
L 370.732243 56.446675 
L 370.890843 61.361793 
L 371.049444 61.361793 
L 371.208044 68.550052 
L 371.366644 68.550052 
L 371.525244 77.876522 
L 371.683844 77.876522 
L 371.842444 89.17966 
L 372.001045 89.17966 
L 372.159645 102.225464 
L 372.318245 102.225464 
L 372.476845 116.742144 
L 372.635445 116.742144 
L 372.794045 132.433563 
L 372.952646 132.433563 
L 373.111246 148.965916 
L 373.269846 148.965916 
L 373.428446 166.011986 
L 373.587046 166.011986 
L 373.745646 183.214761 
L 373.904247 183.214761 
L 374.062847 200.242205 
L 374.221447 200.242205 
L 374.380047 216.756364 
L 374.538647 216.756364 
L 374.697247 232.426914 
L 374.855848 232.426914 
L 375.014448 246.935864 
L 375.173048 246.935864 
L 375.331648 259.973033 
L 375.490248 259.973033 
L 375.648848 271.263131 
L 375.807449 271.263131 
L 375.966049 280.571014 
L 376.124649 280.571014 
L 376.283249 287.74279 
L 376.441849 287.74279 
L 376.600449 292.638652 
L 376.75905 292.638652 
L 376.91765 295.149416 
L 377.39345 295.206082 
L 377.55205 292.812271 
L 377.710651 292.812271 
L 377.869251 288.018689 
L 378.027851 288.018689 
L 378.186451 280.91422 
L 378.345051 280.91422 
L 378.503651 271.663653 
L 378.662252 271.663653 
L 378.820852 260.459175 
L 378.979452 260.459175 
L 379.138052 247.515533 
L 379.296652 247.515533 
L 379.455252 233.083627 
L 379.613853 233.083627 
L 379.772453 217.455051 
L 379.931053 217.455051 
L 380.089653 200.949743 
L 380.248253 200.949743 
L 380.406853 183.901548 
L 380.565454 183.901548 
L 380.724054 166.673774 
L 380.882654 166.673774 
L 381.041254 149.626346 
L 381.199854 149.626346 
L 381.358455 133.078258 
L 381.517055 133.078258 
L 381.675655 117.366167 
L 381.834255 117.366167 
L 381.992855 102.809578 
L 382.151455 102.809578 
L 382.310056 89.696722 
L 382.468656 89.696722 
L 382.627256 78.304148 
L 382.785856 78.304148 
L 382.944456 68.875871 
L 383.103056 68.875871 
L 383.261657 61.594892 
L 383.420257 61.594892 
L 383.578857 56.597242 
L 383.737457 56.597242 
L 383.896057 53.967598 
L 384.054657 53.967598 
L 384.213258 53.7844 
L 384.371858 53.7844 
L 384.530458 56.067257 
L 384.689058 56.067257 
L 384.847658 60.758383 
L 385.006258 60.758383 
L 385.164859 67.749086 
L 385.323459 67.749086 
L 385.482059 76.891846 
L 385.640659 76.891846 
L 385.799259 88.024788 
L 385.957859 88.024788 
L 386.11646 100.914635 
L 386.27506 100.914635 
L 386.43366 115.277699 
L 386.59226 115.277699 
L 386.75086 130.837964 
L 386.90946 130.837964 
L 387.068061 147.293253 
L 387.226661 147.293253 
L 387.385261 164.308916 
L 387.543861 164.308916 
L 387.702461 181.537063 
L 387.861061 181.537063 
L 388.019662 198.615234 
L 388.178262 198.615234 
L 388.336862 215.211374 
L 388.495462 215.211374 
L 388.654062 230.982826 
L 388.812662 230.982826 
L 388.971263 245.601944 
L 389.129863 245.601944 
L 389.288463 258.770502 
L 389.447063 258.770502 
L 389.605663 270.208138 
L 389.764263 270.208138 
L 389.922864 279.744753 
L 390.081464 279.744753 
L 390.240064 287.176536 
L 390.398664 287.176536 
L 390.557264 292.317789 
L 390.715864 292.317789 
L 390.874465 295.042907 
L 391.033065 295.042907 
L 391.191665 295.307575 
L 391.350265 295.307575 
L 391.508865 293.151839 
L 391.667465 293.151839 
L 391.826066 288.598043 
L 391.984666 288.598043 
L 392.143266 281.721146 
L 392.301866 281.721146 
L 392.460466 272.654427 
L 392.619066 272.654427 
L 392.777667 261.613005 
L 392.936267 261.613005 
L 393.094867 248.822252 
L 393.253467 248.822252 
L 393.412067 234.516267 
L 393.570667 234.516267 
L 393.729268 218.99355 
L 393.887868 218.99355 
L 394.046468 202.583992 
L 394.205068 202.583992 
L 394.363668 185.59327 
L 394.522269 185.59327 
L 394.680869 168.363391 
L 394.839469 168.363391 
L 394.998069 151.252727 
L 395.156669 151.252727 
L 395.315269 134.624822 
L 395.47387 134.624822 
L 395.63247 118.810176 
L 395.79107 118.810176 
L 395.94967 104.141964 
L 396.10827 104.141964 
L 396.26687 90.919119 
L 396.425471 90.919119 
L 396.584071 79.368366 
L 396.742671 79.368366 
L 396.901271 69.722509 
L 397.059871 69.722509 
L 397.218471 62.201094 
L 397.377072 62.201094 
L 397.535672 56.976856 
L 397.694272 56.976856 
L 397.852872 54.132583 
L 398.011472 54.132583 
L 398.170072 53.72313 
L 398.328673 53.72313 
L 398.487273 55.765553 
L 398.487273 55.765553 
" clip-path="url(#pcfdb751756)" style="fill: none; stroke: #0000ff; stroke-width: 1.5; stroke-linecap: square"/>
   </g>
   <g id="patch_3">
    <path d="M 57.6 307.584 
L 57.6 41.472 
" style="fill: none; stroke: #000000; stroke-width: 0.8; stroke-linejoin: miter; stroke-linecap: square"/>
   </g>
   <g id="patch_4">
    <path d="M 414.72 307.584 
L 414.72 41.472 
" style="fill: none; stroke: #000000; stroke-width: 0.8; stroke-linejoin: miter; stroke-linecap: square"/>
   </g>
   <g id="patch_5">
    <path d="M 57.6 307.584 
L 414.72 307.584 
" style="fill: none; stroke: #000000; stroke-width: 0.8; stroke-linejoin: miter; stroke-linecap: square"/>
   </g>
   <g id="patch_6">
    <path d="M 57.6 41.472 
L 414.72 41.472 
" style="fill: none; stroke: #000000; stroke-width: 0.8; stroke-linejoin: miter; stroke-linecap: square"/>
   </g>
   <g id="text_16">
    <!-- Output from filter, channel L (24-bit) -->
    <g transform="translate(126.56625 35.472) scale(0.12 -0.12)">
     <defs>
      <path id="DejaVuSans-4f" d="M 2522 4238 
Q 1834 4238 1429 3725 
Q 1025 3213 1025 2328 
Q 1025 1447 1429 934 
Q 1834 422 2522 422 
Q 3209 422 3611 934 
Q 4013 1447 4013 2328 
Q 4013 3213 3611 3725 
Q 3209 4238 2522 4238 
z
M 2522 4750 
Q 3503 4750 4090 4092 
Q 4678 3434 4678 2328 
Q 4678 1225 4090 567 
Q 3503 -91 2522 -91 
Q 1538 -91 948 565 
Q 359 1222 359 2328 
Q 359 3434 948 4092 
Q 1538 4750 2522 4750 
z
" transform="scale(0.015625)"/>
      <path id="DejaVuSans-20" transform="scale(0.015625)"/>
      <path id="DejaVuSans-66" d="M 2375 4863 
L 2375 4384 
L 1825 4384 
Q 1516 4384 1395 4259 
Q 1275 4134 1275 3809 
L 1275 3500 
L 2222 3500 
L 2222 3053 
L 1275 3053 
L 1275 0 
L 697 0 
L 697 3053 
L 147 3053 
L 147 3500 
L 697 3500 
L 697 3744 
Q 697 4328 969 4595 
Q 1241 4863 1831 4863 
L 2375 4863 
z
" transform="scale(0.015625)"/>
      <path id="DejaVuSans-72" d="M 2631 2963 
Q 2534 3019 2420 3045 
Q 2306 3072 2169 3072 
Q 1681 3072 1420 2755 
Q 1159 2438 1159 1844 
L 1159 0 
L 581 0 
L 581 3500 
L 1159 3500 
L 1159 2956 
Q 1341 3275 1631 3429 
Q 1922 3584 2338 3584 
Q 2397 3584 2469 3576 
Q 2541 3569 2628 3553 
L 2631 2963 
z
" transform="scale(0.015625)"/>
      <path id="DejaVuSans-6f" d="M 1959 3097 
Q 1497 3097 1228 2736 
Q 959 2375 959 1747 
Q 959 1119 1226 758 
Q 1494 397 1959 397 
Q 2419 397 2687 759 
Q 2956 1122 2956 1747 
Q 2956 2369 2687 2733 
Q 2419 3097 1959 3097 
z
M 1959 3584 
Q 2709 3584 3137 3096 
Q 3566 2609 3566 1747 
Q 3566 888 3137 398 
Q 2709 -91 1959 -91 
Q 1206 -91 779 398 
Q 353 888 353 1747 
Q 353 2609 779 3096 
Q 1206 3584 1959 3584 
z
" transform="scale(0.015625)"/>
      <path id="DejaVuSans-2c" d="M 750 794 
L 1409 794 
L 1409 256 
L 897 -744 
L 494 -744 
L 750 256 
L 750 794 
z
" transform="scale(0.015625)"/>
      <path id="DejaVuSans-63" d="M 3122 3366 
L 3122 2828 
Q 2878 2963 2633 3030 
Q 2388 3097 2138 3097 
Q 1578 3097 1268 2742 
Q 959 2388 959 1747 
Q 959 1106 1268 751 
Q 1578 397 2138 397 
Q 2388 397 2633 464 
Q 2878 531 3122 666 
L 3122 134 
Q 2881 22 2623 -34 
Q 2366 -91 2075 -91 
Q 1284 -91 818 406 
Q 353 903 353 1747 
Q 353 2603 823 3093 
Q 1294 3584 2113 3584 
Q 2378 3584 2631 3529 
Q 2884 3475 3122 3366 
z
" transform="scale(0.015625)"/>
      <path id="DejaVuSans-68" d="M 3513 2113 
L 3513 0 
L 2938 0 
L 2938 2094 
Q 2938 2591 2744 2837 
Q 2550 3084 2163 3084 
Q 1697 3084 1428 2787 
Q 1159 2491 1159 1978 
L 1159 0 
L 581 0 
L 581 4863 
L 1159 4863 
L 1159 2956 
Q 1366 3272 1645 3428 
Q 1925 3584 2291 3584 
Q 2894 3584 3203 3211 
Q 3513 2838 3513 2113 
z
" transform="scale(0.015625)"/>
      <path id="DejaVuSans-6e" d="M 3513 2113 
L 3513 0 
L 2938 0 
L 2938 2094 
Q 2938 2591 2744 2837 
Q 2550 3084 2163 3084 
Q 1697 3084 1428 2787 
Q 1159 2491 1159 1978 
L 1159 0 
L 581 0 
L 581 3500 
L 1159 3500 
L 1159 2956 
Q 1366 3272 1645 3428 
Q 1925 3584 2291 3584 
Q 2894 3584 3203 3211 
Q 3513 2838 3513 2113 
z
" transform="scale(0.015625)"/>
      <path id="DejaVuSans-4c" d="M 628 4666 
L 1259 4666 
L 1259 531 
L 3531 531 
L 3531 0 
L 628 0 
L 628 4666 
z
" transform="scale(0.015625)"/>
      <path id="DejaVuSans-28" d="M 1984 4856 
Q 1566 4138 1362 3434 
Q 1159 2731 1159 2009 
Q 1159 1288 1364 580 
Q 1569 -128 1984 -844 
L 1484 -844 
Q 1016 -109 783 600 
Q 550 1309 550 2009 
Q 550 2706 781 3412 
Q 1013 4119 1484 4856 
L 1984 4856 
z
" transform="scale(0.015625)"/>
      <path id="DejaVuSans-2d" d="M 313 2009 
L 1997 2009 
L 1997 1497 
L 313 1497 
L 313 2009 
z
" transform="scale(0.015625)"/>
      <path id="DejaVuSans-62" d="M 3116 1747 
Q 3116 2381 2855 2742 
Q 2594 3103 2138 3103 
Q 1681 3103 1420 2742 
Q 1159 2381 1159 1747 
Q 1159 1113 1420 752 
Q 1681 391 2138 391 
Q 2594 391 2855 752 
Q 3116 1113 3116 1747 
z
M 1159 2969 
Q 1341 3281 1617 3432 
Q 1894 3584 2278 3584 
Q 2916 3584 3314 3078 
Q 3713 2572 3713 1747 
Q 3713 922 3314 415 
Q 2916 -91 2278 -91 
Q 1894 -91 1617 61 
Q 1341 213 1159 525 
L 1159 0 
L 581 0 
L 581 4863 
L 1159 4863 
L 1159 2969 
z
" transform="scale(0.015625)"/>
      <path id="DejaVuSans-29" d="M 513 4856 
L 1013 4856 
Q 1481 4119 1714 3412 
Q 1947 2706 1947 2009 
Q 1947 1309 1714 600 
Q 1481 -109 1013 -844 
L 513 -844 
Q 928 -128 1133 580 
Q 1338 1288 1338 2009 
Q 1338 2731 1133 3434 
Q 928 4138 513 4856 
z
" transform="scale(0.015625)"/>
     </defs>
     <use xlink:href="#DejaVuSans-4f"/>
     <use xlink:href="#DejaVuSans-75" x="78.710938"/>
     <use xlink:href="#DejaVuSans-74" x="142.089844"/>
     <use xlink:href="#DejaVuSans-70" x="181.298828"/>
     <use xlink:href="#DejaVuSans-75" x="244.775391"/>
     <use xlink:href="#DejaVuSans-74" x="308.154297"/>
     <use xlink:href="#DejaVuSans-20" x="347.363281"/>
     <use xlink:href="#DejaVuSans-66" x="379.150391"/>
     <use xlink:href="#DejaVuSans-72" x="414.355469"/>
     <use xlink:href="#DejaVuSans-6f" x="453.21875"/>
     <use xlink:href="#DejaVuSans-6d" x="514.400391"/>
     <use xlink:href="#DejaVuSans-20" x="611.8125"/>
     <use xlink:href="#DejaVuSans-66" x="643.599609"/>
     <use xlink:href="#DejaVuSans-69" x="678.804688"/>
     <use xlink:href="#DejaVuSans-6c" x="706.587891"/>
     <use xlink:href="#DejaVuSans-74" x="734.371094"/>
     <use xlink:href="#DejaVuSans-65" x="773.580078"/>
     <use xlink:href="#DejaVuSans-72" x="835.103516"/>
     <use xlink:href="#DejaVuSans-2c" x="876.216797"/>
     <use xlink:href="#DejaVuSans-20" x="908.003906"/>
     <use xlink:href="#DejaVuSans-63" x="939.791016"/>
     <use xlink:href="#DejaVuSans-68" x="994.771484"/>
     <use xlink:href="#DejaVuSans-61" x="1058.150391"/>
     <use xlink:href="#DejaVuSans-6e" x="1119.429688"/>
     <use xlink:href="#DejaVuSans-6e" x="1182.808594"/>
     <use xlink:href="#DejaVuSans-65" x="1246.1875"/>
     <use xlink:href="#DejaVuSans-6c" x="1307.710938"/>
     <use xlink:href="#DejaVuSans-20" x="1335.494141"/>
     <use xlink:href="#DejaVuSans-4c" x="1367.28125"/>
     <use xlink:href="#DejaVuSans-20" x="1422.994141"/>
     <use xlink:href="#DejaVuSans-28" x="1454.78125"/>
     <use xlink:href="#DejaVuSans-32" x="1493.794922"/>
     <use xlink:href="#DejaVuSans-34" x="1557.417969"/>
     <use xlink:href="#DejaVuSans-2d" x="1621.041016"/>
     <use xlink:href="#DejaVuSans-62" x="1657.125"/>
     <use xlink:href="#DejaVuSans-69" x="1720.601562"/>
     <use xlink:href="#DejaVuSans-74" x="1748.384766"/>
     <use xlink:href="#DejaVuSans-29" x="1787.59375"/>
    </g>
   </g>
  </g>
 </g>
 <defs>
  <clipPath id="pcfdb751756">
   <rect x="57.6" y="41.472" width="357.12" height="266.112"/>
  </clipPath>
 </defs>
</svg>
