<?xml version="1.0" encoding="utf-8" standalone="no"?>
<!DOCTYPE svg PUBLIC "-//W3C//DTD SVG 1.1//EN"
  "http://www.w3.org/Graphics/SVG/1.1/DTD/svg11.dtd">
<svg xmlns:xlink="http://www.w3.org/1999/xlink" width="460.8pt" height="345.6pt" viewBox="0 0 460.8 345.6" xmlns="http://www.w3.org/2000/svg" version="1.1">
 <metadata>
  <rdf:RDF xmlns:dc="http://purl.org/dc/elements/1.1/" xmlns:cc="http://creativecommons.org/ns#" xmlns:rdf="http://www.w3.org/1999/02/22-rdf-syntax-ns#">
   <cc:Work>
    <dc:type rdf:resource="http://purl.org/dc/dcmitype/StillImage"/>
    <dc:date>2025-08-21T15:03:25.303985</dc:date>
    <dc:format>image/svg+xml</dc:format>
    <dc:creator>
     <cc:Agent>
      <dc:title>Matplotlib v3.7.2, https://matplotlib.org/</dc:title>
     </cc:Agent>
    </dc:creator>
   </cc:Work>
  </rdf:RDF>
 </metadata>
 <defs>
  <style type="text/css">*{stroke-linejoin: round; stroke-linecap: butt}</style>
 </defs>
 <g id="figure_1">
  <g id="patch_1">
   <path d="M 0 345.6 
L 460.8 345.6 
L 460.8 0 
L 0 0 
z
" style="fill: #ffffff"/>
  </g>
  <g id="axes_1">
   <g id="patch_2">
    <path d="M 57.6 307.584 
L 414.72 307.584 
L 414.72 41.472 
L 57.6 41.472 
z
" style="fill: #ffffff"/>
   </g>
   <g id="matplotlib.axis_1">
    <g id="xtick_1">
     <g id="line2d_1">
      <path d="M 73.832727 307.584 
L 73.832727 41.472 
" clip-path="url(#pcbc65d2346)" style="fill: none; stroke: #b0b0b0; stroke-width: 0.8; stroke-linecap: square"/>
     </g>
     <g id="line2d_2">
      <defs>
       <path id="m7e20f1e530" d="M 0 0 
L 0 3.5 
" style="stroke: #000000; stroke-width: 0.8"/>
      </defs>
      <g>
       <use xlink:href="#m7e20f1e530" x="73.832727" y="307.584" style="stroke: #000000; stroke-width: 0.8"/>
      </g>
     </g>
     <g id="text_1">
      <!-- 0 -->
      <g transform="translate(70.651477 322.182437) scale(0.1 -0.1)">
       <defs>
        <path id="DejaVuSans-30" d="M 2034 4250 
Q 1547 4250 1301 3770 
Q 1056 3291 1056 2328 
Q 1056 1369 1301 889 
Q 1547 409 2034 409 
Q 2525 409 2770 889 
Q 3016 1369 3016 2328 
Q 3016 3291 2770 3770 
Q 2525 4250 2034 4250 
z
M 2034 4750 
Q 2819 4750 3233 4129 
Q 3647 3509 3647 2328 
Q 3647 1150 3233 529 
Q 2819 -91 2034 -91 
Q 1250 -91 836 529 
Q 422 1150 422 2328 
Q 422 3509 836 4129 
Q 1250 4750 2034 4750 
z
" transform="scale(0.015625)"/>
       </defs>
       <use xlink:href="#DejaVuSans-30"/>
      </g>
     </g>
    </g>
    <g id="xtick_2">
     <g id="line2d_3">
      <path d="M 138.893758 307.584 
L 138.893758 41.472 
" clip-path="url(#pcbc65d2346)" style="fill: none; stroke: #b0b0b0; stroke-width: 0.8; stroke-linecap: square"/>
     </g>
     <g id="line2d_4">
      <g>
       <use xlink:href="#m7e20f1e530" x="138.893758" y="307.584" style="stroke: #000000; stroke-width: 0.8"/>
      </g>
     </g>
     <g id="text_2">
      <!-- 100 -->
      <g transform="translate(129.350008 322.182437) scale(0.1 -0.1)">
       <defs>
        <path id="DejaVuSans-31" d="M 794 531 
L 1825 531 
L 1825 4091 
L 703 3866 
L 703 4441 
L 1819 4666 
L 2450 4666 
L 2450 531 
L 3481 531 
L 3481 0 
L 794 0 
L 794 531 
z
" transform="scale(0.015625)"/>
       </defs>
       <use xlink:href="#DejaVuSans-31"/>
       <use xlink:href="#DejaVuSans-30" x="63.623047"/>
       <use xlink:href="#DejaVuSans-30" x="127.246094"/>
      </g>
     </g>
    </g>
    <g id="xtick_3">
     <g id="line2d_5">
      <path d="M 203.95479 307.584 
L 203.95479 41.472 
" clip-path="url(#pcbc65d2346)" style="fill: none; stroke: #b0b0b0; stroke-width: 0.8; stroke-linecap: square"/>
     </g>
     <g id="line2d_6">
      <g>
       <use xlink:href="#m7e20f1e530" x="203.95479" y="307.584" style="stroke: #000000; stroke-width: 0.8"/>
      </g>
     </g>
     <g id="text_3">
      <!-- 200 -->
      <g transform="translate(194.41104 322.182437) scale(0.1 -0.1)">
       <defs>
        <path id="DejaVuSans-32" d="M 1228 531 
L 3431 531 
L 3431 0 
L 469 0 
L 469 531 
Q 828 903 1448 1529 
Q 2069 2156 2228 2338 
Q 2531 2678 2651 2914 
Q 2772 3150 2772 3378 
Q 2772 3750 2511 3984 
Q 2250 4219 1831 4219 
Q 1534 4219 1204 4116 
Q 875 4013 500 3803 
L 500 4441 
Q 881 4594 1212 4672 
Q 1544 4750 1819 4750 
Q 2544 4750 2975 4387 
Q 3406 4025 3406 3419 
Q 3406 3131 3298 2873 
Q 3191 2616 2906 2266 
Q 2828 2175 2409 1742 
Q 1991 1309 1228 531 
z
" transform="scale(0.015625)"/>
       </defs>
       <use xlink:href="#DejaVuSans-32"/>
       <use xlink:href="#DejaVuSans-30" x="63.623047"/>
       <use xlink:href="#DejaVuSans-30" x="127.246094"/>
      </g>
     </g>
    </g>
    <g id="xtick_4">
     <g id="line2d_7">
      <path d="M 269.015821 307.584 
L 269.015821 41.472 
" clip-path="url(#pcbc65d2346)" style="fill: none; stroke: #b0b0b0; stroke-width: 0.8; stroke-linecap: square"/>
     </g>
     <g id="line2d_8">
      <g>
       <use xlink:href="#m7e20f1e530" x="269.015821" y="307.584" style="stroke: #000000; stroke-width: 0.8"/>
      </g>
     </g>
     <g id="text_4">
      <!-- 300 -->
      <g transform="translate(259.472071 322.182437) scale(0.1 -0.1)">
       <defs>
        <path id="DejaVuSans-33" d="M 2597 2516 
Q 3050 2419 3304 2112 
Q 3559 1806 3559 1356 
Q 3559 666 3084 287 
Q 2609 -91 1734 -91 
Q 1441 -91 1130 -33 
Q 819 25 488 141 
L 488 750 
Q 750 597 1062 519 
Q 1375 441 1716 441 
Q 2309 441 2620 675 
Q 2931 909 2931 1356 
Q 2931 1769 2642 2001 
Q 2353 2234 1838 2234 
L 1294 2234 
L 1294 2753 
L 1863 2753 
Q 2328 2753 2575 2939 
Q 2822 3125 2822 3475 
Q 2822 3834 2567 4026 
Q 2313 4219 1838 4219 
Q 1578 4219 1281 4162 
Q 984 4106 628 3988 
L 628 4550 
Q 988 4650 1302 4700 
Q 1616 4750 1894 4750 
Q 2613 4750 3031 4423 
Q 3450 4097 3450 3541 
Q 3450 3153 3228 2886 
Q 3006 2619 2597 2516 
z
" transform="scale(0.015625)"/>
       </defs>
       <use xlink:href="#DejaVuSans-33"/>
       <use xlink:href="#DejaVuSans-30" x="63.623047"/>
       <use xlink:href="#DejaVuSans-30" x="127.246094"/>
      </g>
     </g>
    </g>
    <g id="xtick_5">
     <g id="line2d_9">
      <path d="M 334.076852 307.584 
L 334.076852 41.472 
" clip-path="url(#pcbc65d2346)" style="fill: none; stroke: #b0b0b0; stroke-width: 0.8; stroke-linecap: square"/>
     </g>
     <g id="line2d_10">
      <g>
       <use xlink:href="#m7e20f1e530" x="334.076852" y="307.584" style="stroke: #000000; stroke-width: 0.8"/>
      </g>
     </g>
     <g id="text_5">
      <!-- 400 -->
      <g transform="translate(324.533102 322.182437) scale(0.1 -0.1)">
       <defs>
        <path id="DejaVuSans-34" d="M 2419 4116 
L 825 1625 
L 2419 1625 
L 2419 4116 
z
M 2253 4666 
L 3047 4666 
L 3047 1625 
L 3713 1625 
L 3713 1100 
L 3047 1100 
L 3047 0 
L 2419 0 
L 2419 1100 
L 313 1100 
L 313 1709 
L 2253 4666 
z
" transform="scale(0.015625)"/>
       </defs>
       <use xlink:href="#DejaVuSans-34"/>
       <use xlink:href="#DejaVuSans-30" x="63.623047"/>
       <use xlink:href="#DejaVuSans-30" x="127.246094"/>
      </g>
     </g>
    </g>
    <g id="xtick_6">
     <g id="line2d_11">
      <path d="M 399.137883 307.584 
L 399.137883 41.472 
" clip-path="url(#pcbc65d2346)" style="fill: none; stroke: #b0b0b0; stroke-width: 0.8; stroke-linecap: square"/>
     </g>
     <g id="line2d_12">
      <g>
       <use xlink:href="#m7e20f1e530" x="399.137883" y="307.584" style="stroke: #000000; stroke-width: 0.8"/>
      </g>
     </g>
     <g id="text_6">
      <!-- 500 -->
      <g transform="translate(389.594133 322.182437) scale(0.1 -0.1)">
       <defs>
        <path id="DejaVuSans-35" d="M 691 4666 
L 3169 4666 
L 3169 4134 
L 1269 4134 
L 1269 2991 
Q 1406 3038 1543 3061 
Q 1681 3084 1819 3084 
Q 2600 3084 3056 2656 
Q 3513 2228 3513 1497 
Q 3513 744 3044 326 
Q 2575 -91 1722 -91 
Q 1428 -91 1123 -41 
Q 819 9 494 109 
L 494 744 
Q 775 591 1075 516 
Q 1375 441 1709 441 
Q 2250 441 2565 725 
Q 2881 1009 2881 1497 
Q 2881 1984 2565 2268 
Q 2250 2553 1709 2553 
Q 1456 2553 1204 2497 
Q 953 2441 691 2322 
L 691 4666 
z
" transform="scale(0.015625)"/>
       </defs>
       <use xlink:href="#DejaVuSans-35"/>
       <use xlink:href="#DejaVuSans-30" x="63.623047"/>
       <use xlink:href="#DejaVuSans-30" x="127.246094"/>
      </g>
     </g>
    </g>
    <g id="text_7">
     <!-- Samples -->
     <g transform="translate(214.806875 335.860562) scale(0.1 -0.1)">
      <defs>
       <path id="DejaVuSans-53" d="M 3425 4513 
L 3425 3897 
Q 3066 4069 2747 4153 
Q 2428 4238 2131 4238 
Q 1616 4238 1336 4038 
Q 1056 3838 1056 3469 
Q 1056 3159 1242 3001 
Q 1428 2844 1947 2747 
L 2328 2669 
Q 3034 2534 3370 2195 
Q 3706 1856 3706 1288 
Q 3706 609 3251 259 
Q 2797 -91 1919 -91 
Q 1588 -91 1214 -16 
Q 841 59 441 206 
L 441 856 
Q 825 641 1194 531 
Q 1563 422 1919 422 
Q 2459 422 2753 634 
Q 3047 847 3047 1241 
Q 3047 1584 2836 1778 
Q 2625 1972 2144 2069 
L 1759 2144 
Q 1053 2284 737 2584 
Q 422 2884 422 3419 
Q 422 4038 858 4394 
Q 1294 4750 2059 4750 
Q 2388 4750 2728 4690 
Q 3069 4631 3425 4513 
z
" transform="scale(0.015625)"/>
       <path id="DejaVuSans-61" d="M 2194 1759 
Q 1497 1759 1228 1600 
Q 959 1441 959 1056 
Q 959 750 1161 570 
Q 1363 391 1709 391 
Q 2188 391 2477 730 
Q 2766 1069 2766 1631 
L 2766 1759 
L 2194 1759 
z
M 3341 1997 
L 3341 0 
L 2766 0 
L 2766 531 
Q 2569 213 2275 61 
Q 1981 -91 1556 -91 
Q 1019 -91 701 211 
Q 384 513 384 1019 
Q 384 1609 779 1909 
Q 1175 2209 1959 2209 
L 2766 2209 
L 2766 2266 
Q 2766 2663 2505 2880 
Q 2244 3097 1772 3097 
Q 1472 3097 1187 3025 
Q 903 2953 641 2809 
L 641 3341 
Q 956 3463 1253 3523 
Q 1550 3584 1831 3584 
Q 2591 3584 2966 3190 
Q 3341 2797 3341 1997 
z
" transform="scale(0.015625)"/>
       <path id="DejaVuSans-6d" d="M 3328 2828 
Q 3544 3216 3844 3400 
Q 4144 3584 4550 3584 
Q 5097 3584 5394 3201 
Q 5691 2819 5691 2113 
L 5691 0 
L 5113 0 
L 5113 2094 
Q 5113 2597 4934 2840 
Q 4756 3084 4391 3084 
Q 3944 3084 3684 2787 
Q 3425 2491 3425 1978 
L 3425 0 
L 2847 0 
L 2847 2094 
Q 2847 2600 2669 2842 
Q 2491 3084 2119 3084 
Q 1678 3084 1418 2786 
Q 1159 2488 1159 1978 
L 1159 0 
L 581 0 
L 581 3500 
L 1159 3500 
L 1159 2956 
Q 1356 3278 1631 3431 
Q 1906 3584 2284 3584 
Q 2666 3584 2933 3390 
Q 3200 3197 3328 2828 
z
" transform="scale(0.015625)"/>
       <path id="DejaVuSans-70" d="M 1159 525 
L 1159 -1331 
L 581 -1331 
L 581 3500 
L 1159 3500 
L 1159 2969 
Q 1341 3281 1617 3432 
Q 1894 3584 2278 3584 
Q 2916 3584 3314 3078 
Q 3713 2572 3713 1747 
Q 3713 922 3314 415 
Q 2916 -91 2278 -91 
Q 1894 -91 1617 61 
Q 1341 213 1159 525 
z
M 3116 1747 
Q 3116 2381 2855 2742 
Q 2594 3103 2138 3103 
Q 1681 3103 1420 2742 
Q 1159 2381 1159 1747 
Q 1159 1113 1420 752 
Q 1681 391 2138 391 
Q 2594 391 2855 752 
Q 3116 1113 3116 1747 
z
" transform="scale(0.015625)"/>
       <path id="DejaVuSans-6c" d="M 603 4863 
L 1178 4863 
L 1178 0 
L 603 0 
L 603 4863 
z
" transform="scale(0.015625)"/>
       <path id="DejaVuSans-65" d="M 3597 1894 
L 3597 1613 
L 953 1613 
Q 991 1019 1311 708 
Q 1631 397 2203 397 
Q 2534 397 2845 478 
Q 3156 559 3463 722 
L 3463 178 
Q 3153 47 2828 -22 
Q 2503 -91 2169 -91 
Q 1331 -91 842 396 
Q 353 884 353 1716 
Q 353 2575 817 3079 
Q 1281 3584 2069 3584 
Q 2775 3584 3186 3129 
Q 3597 2675 3597 1894 
z
M 3022 2063 
Q 3016 2534 2758 2815 
Q 2500 3097 2075 3097 
Q 1594 3097 1305 2825 
Q 1016 2553 972 2059 
L 3022 2063 
z
" transform="scale(0.015625)"/>
       <path id="DejaVuSans-73" d="M 2834 3397 
L 2834 2853 
Q 2591 2978 2328 3040 
Q 2066 3103 1784 3103 
Q 1356 3103 1142 2972 
Q 928 2841 928 2578 
Q 928 2378 1081 2264 
Q 1234 2150 1697 2047 
L 1894 2003 
Q 2506 1872 2764 1633 
Q 3022 1394 3022 966 
Q 3022 478 2636 193 
Q 2250 -91 1575 -91 
Q 1294 -91 989 -36 
Q 684 19 347 128 
L 347 722 
Q 666 556 975 473 
Q 1284 391 1588 391 
Q 1994 391 2212 530 
Q 2431 669 2431 922 
Q 2431 1156 2273 1281 
Q 2116 1406 1581 1522 
L 1381 1569 
Q 847 1681 609 1914 
Q 372 2147 372 2553 
Q 372 3047 722 3315 
Q 1072 3584 1716 3584 
Q 2034 3584 2315 3537 
Q 2597 3491 2834 3397 
z
" transform="scale(0.015625)"/>
      </defs>
      <use xlink:href="#DejaVuSans-53"/>
      <use xlink:href="#DejaVuSans-61" x="63.476562"/>
      <use xlink:href="#DejaVuSans-6d" x="124.755859"/>
      <use xlink:href="#DejaVuSans-70" x="222.167969"/>
      <use xlink:href="#DejaVuSans-6c" x="285.644531"/>
      <use xlink:href="#DejaVuSans-65" x="313.427734"/>
      <use xlink:href="#DejaVuSans-73" x="374.951172"/>
     </g>
    </g>
   </g>
   <g id="matplotlib.axis_2">
    <g id="ytick_1">
     <g id="line2d_13">
      <path d="M 57.6 277.798504 
L 414.72 277.798504 
" clip-path="url(#pcbc65d2346)" style="fill: none; stroke: #b0b0b0; stroke-width: 0.8; stroke-linecap: square"/>
     </g>
     <g id="line2d_14">
      <defs>
       <path id="m1dc25dafff" d="M 0 0 
L -3.5 0 
" style="stroke: #000000; stroke-width: 0.8"/>
      </defs>
      <g>
       <use xlink:href="#m1dc25dafff" x="57.6" y="277.798504" style="stroke: #000000; stroke-width: 0.8"/>
      </g>
     </g>
     <g id="text_8">
      <!-- −4000 -->
      <g transform="translate(16.770313 281.597723) scale(0.1 -0.1)">
       <defs>
        <path id="DejaVuSans-2212" d="M 678 2272 
L 4684 2272 
L 4684 1741 
L 678 1741 
L 678 2272 
z
" transform="scale(0.015625)"/>
       </defs>
       <use xlink:href="#DejaVuSans-2212"/>
       <use xlink:href="#DejaVuSans-34" x="83.789062"/>
       <use xlink:href="#DejaVuSans-30" x="147.412109"/>
       <use xlink:href="#DejaVuSans-30" x="211.035156"/>
       <use xlink:href="#DejaVuSans-30" x="274.658203"/>
      </g>
     </g>
    </g>
    <g id="ytick_2">
     <g id="line2d_15">
      <path d="M 57.6 226.15034 
L 414.72 226.15034 
" clip-path="url(#pcbc65d2346)" style="fill: none; stroke: #b0b0b0; stroke-width: 0.8; stroke-linecap: square"/>
     </g>
     <g id="line2d_16">
      <g>
       <use xlink:href="#m1dc25dafff" x="57.6" y="226.15034" style="stroke: #000000; stroke-width: 0.8"/>
      </g>
     </g>
     <g id="text_9">
      <!-- −2000 -->
      <g transform="translate(16.770313 229.949559) scale(0.1 -0.1)">
       <use xlink:href="#DejaVuSans-2212"/>
       <use xlink:href="#DejaVuSans-32" x="83.789062"/>
       <use xlink:href="#DejaVuSans-30" x="147.412109"/>
       <use xlink:href="#DejaVuSans-30" x="211.035156"/>
       <use xlink:href="#DejaVuSans-30" x="274.658203"/>
      </g>
     </g>
    </g>
    <g id="ytick_3">
     <g id="line2d_17">
      <path d="M 57.6 174.502176 
L 414.72 174.502176 
" clip-path="url(#pcbc65d2346)" style="fill: none; stroke: #b0b0b0; stroke-width: 0.8; stroke-linecap: square"/>
     </g>
     <g id="line2d_18">
      <g>
       <use xlink:href="#m1dc25dafff" x="57.6" y="174.502176" style="stroke: #000000; stroke-width: 0.8"/>
      </g>
     </g>
     <g id="text_10">
      <!-- 0 -->
      <g transform="translate(44.2375 178.301395) scale(0.1 -0.1)">
       <use xlink:href="#DejaVuSans-30"/>
      </g>
     </g>
    </g>
    <g id="ytick_4">
     <g id="line2d_19">
      <path d="M 57.6 122.854012 
L 414.72 122.854012 
" clip-path="url(#pcbc65d2346)" style="fill: none; stroke: #b0b0b0; stroke-width: 0.8; stroke-linecap: square"/>
     </g>
     <g id="line2d_20">
      <g>
       <use xlink:href="#m1dc25dafff" x="57.6" y="122.854012" style="stroke: #000000; stroke-width: 0.8"/>
      </g>
     </g>
     <g id="text_11">
      <!-- 2000 -->
      <g transform="translate(25.15 126.653231) scale(0.1 -0.1)">
       <use xlink:href="#DejaVuSans-32"/>
       <use xlink:href="#DejaVuSans-30" x="63.623047"/>
       <use xlink:href="#DejaVuSans-30" x="127.246094"/>
       <use xlink:href="#DejaVuSans-30" x="190.869141"/>
      </g>
     </g>
    </g>
    <g id="ytick_5">
     <g id="line2d_21">
      <path d="M 57.6 71.205848 
L 414.72 71.205848 
" clip-path="url(#pcbc65d2346)" style="fill: none; stroke: #b0b0b0; stroke-width: 0.8; stroke-linecap: square"/>
     </g>
     <g id="line2d_22">
      <g>
       <use xlink:href="#m1dc25dafff" x="57.6" y="71.205848" style="stroke: #000000; stroke-width: 0.8"/>
      </g>
     </g>
     <g id="text_12">
      <!-- 4000 -->
      <g transform="translate(25.15 75.005067) scale(0.1 -0.1)">
       <use xlink:href="#DejaVuSans-34"/>
       <use xlink:href="#DejaVuSans-30" x="63.623047"/>
       <use xlink:href="#DejaVuSans-30" x="127.246094"/>
       <use xlink:href="#DejaVuSans-30" x="190.869141"/>
      </g>
     </g>
    </g>
    <g id="text_13">
     <!-- Amplitude -->
     <g transform="translate(10.690625 200.150656) rotate(-90) scale(0.1 -0.1)">
      <defs>
       <path id="DejaVuSans-41" d="M 2188 4044 
L 1331 1722 
L 3047 1722 
L 2188 4044 
z
M 1831 4666 
L 2547 4666 
L 4325 0 
L 3669 0 
L 3244 1197 
L 1141 1197 
L 716 0 
L 50 0 
L 1831 4666 
z
" transform="scale(0.015625)"/>
       <path id="DejaVuSans-69" d="M 603 3500 
L 1178 3500 
L 1178 0 
L 603 0 
L 603 3500 
z
M 603 4863 
L 1178 4863 
L 1178 4134 
L 603 4134 
L 603 4863 
z
" transform="scale(0.015625)"/>
       <path id="DejaVuSans-74" d="M 1172 4494 
L 1172 3500 
L 2356 3500 
L 2356 3053 
L 1172 3053 
L 1172 1153 
Q 1172 725 1289 603 
Q 1406 481 1766 481 
L 2356 481 
L 2356 0 
L 1766 0 
Q 1100 0 847 248 
Q 594 497 594 1153 
L 594 3053 
L 172 3053 
L 172 3500 
L 594 3500 
L 594 4494 
L 1172 4494 
z
" transform="scale(0.015625)"/>
       <path id="DejaVuSans-75" d="M 544 1381 
L 544 3500 
L 1119 3500 
L 1119 1403 
Q 1119 906 1312 657 
Q 1506 409 1894 409 
Q 2359 409 2629 706 
Q 2900 1003 2900 1516 
L 2900 3500 
L 3475 3500 
L 3475 0 
L 2900 0 
L 2900 538 
Q 2691 219 2414 64 
Q 2138 -91 1772 -91 
Q 1169 -91 856 284 
Q 544 659 544 1381 
z
M 1991 3584 
L 1991 3584 
z
" transform="scale(0.015625)"/>
       <path id="DejaVuSans-64" d="M 2906 2969 
L 2906 4863 
L 3481 4863 
L 3481 0 
L 2906 0 
L 2906 525 
Q 2725 213 2448 61 
Q 2172 -91 1784 -91 
Q 1150 -91 751 415 
Q 353 922 353 1747 
Q 353 2572 751 3078 
Q 1150 3584 1784 3584 
Q 2172 3584 2448 3432 
Q 2725 3281 2906 2969 
z
M 947 1747 
Q 947 1113 1208 752 
Q 1469 391 1925 391 
Q 2381 391 2643 752 
Q 2906 1113 2906 1747 
Q 2906 2381 2643 2742 
Q 2381 3103 1925 3103 
Q 1469 3103 1208 2742 
Q 947 2381 947 1747 
z
" transform="scale(0.015625)"/>
      </defs>
      <use xlink:href="#DejaVuSans-41"/>
      <use xlink:href="#DejaVuSans-6d" x="68.408203"/>
      <use xlink:href="#DejaVuSans-70" x="165.820312"/>
      <use xlink:href="#DejaVuSans-6c" x="229.296875"/>
      <use xlink:href="#DejaVuSans-69" x="257.080078"/>
      <use xlink:href="#DejaVuSans-74" x="284.863281"/>
      <use xlink:href="#DejaVuSans-75" x="324.072266"/>
      <use xlink:href="#DejaVuSans-64" x="387.451172"/>
      <use xlink:href="#DejaVuSans-65" x="450.927734"/>
     </g>
    </g>
   </g>
   <g id="line2d_23">
    <path d="M 73.832727 152.990716 
L 74.483338 161.30607 
L 75.133948 162.00332 
L 75.784558 145.863269 
L 76.435169 140.285267 
L 77.085779 131.866617 
L 77.736389 117.353482 
L 78.386999 124.17104 
L 79.03761 128.225421 
L 79.68822 102.866173 
L 80.33883 90.1349 
L 80.989441 102.7887 
L 81.640051 99.612338 
L 82.290661 86.674473 
L 82.941272 85.512389 
L 84.242492 68.416847 
L 84.893103 82.206907 
L 85.543713 82.361851 
L 86.194323 58.526224 
L 86.844934 57.674029 
L 87.495544 73.736608 
L 88.146154 69.243218 
L 88.796764 62.942142 
L 89.447375 66.247624 
L 90.097985 58.861937 
L 90.748595 60.178965 
L 91.399206 79.598675 
L 92.049816 76.138248 
L 92.700426 58.06139 
L 93.351037 69.269042 
L 94.001647 86.545353 
L 94.652257 82.645916 
L 95.302868 83.962944 
L 95.953478 90.031604 
L 96.604088 85.434917 
L 97.254698 96.694217 
L 97.905309 118.205677 
L 98.555919 110.897462 
L 99.206529 100.851894 
L 99.85714 121.278743 
L 100.50775 136.644072 
L 101.15836 133.984191 
L 101.808971 141.240758 
L 102.459581 147.025353 
L 103.110191 145.42426 
L 104.411412 182.946651 
L 105.062022 171.42911 
L 105.712633 169.440656 
L 106.363243 194.051006 
L 107.013853 204.148222 
L 107.664463 202.288888 
L 108.315074 211.79215 
L 108.965684 214.038845 
L 109.616294 214.813568 
L 110.266905 237.203047 
L 110.917515 247.842569 
L 111.568125 232.167351 
L 112.218736 236.583269 
L 112.869346 259.515054 
L 113.519956 261.916693 
L 114.170567 259.850767 
L 114.821177 267.365575 
L 115.471787 263.801851 
L 116.122398 266.229315 
L 116.773008 287.19847 
L 117.423618 286.372099 
L 118.074228 267.546343 
L 118.724839 276.016642 
L 119.375449 292.414934 
L 120.026059 286.501219 
L 120.67667 283.453978 
L 121.32728 285.597377 
L 121.97789 275.93917 
L 122.628501 279.761134 
L 123.279111 295.203935 
L 123.929721 282.085301 
L 124.580332 262.536471 
L 125.230942 272.917752 
L 125.881552 280.122671 
L 126.532163 267.572167 
L 127.833383 258.895276 
L 128.483993 245.311809 
L 129.134604 250.941459 
L 129.785214 258.507915 
L 130.435824 235.421185 
L 131.086435 218.713004 
L 131.737045 229.636591 
L 132.387655 227.854729 
L 133.038266 212.282808 
L 133.688876 207.970186 
L 134.339486 197.588905 
L 134.990097 184.108734 
L 135.640707 192.424089 
L 136.291317 191.804311 
L 136.941927 163.681886 
L 137.592538 153.636318 
L 138.243148 164.585728 
L 138.893758 156.425319 
L 139.544369 142.351194 
L 140.194979 138.994063 
L 140.845589 125.694661 
L 141.4962 117.095242 
L 142.14681 128.716079 
L 142.79742 121.330391 
L 143.448031 94.240929 
L 144.098641 93.853568 
L 144.749251 104.725506 
L 145.399862 94.085985 
L 146.050472 85.460741 
L 146.701082 84.040417 
L 147.351692 71.541561 
L 148.002303 71.670681 
L 148.652913 86.235464 
L 149.303523 74.304738 
L 149.954134 53.929537 
L 151.255354 74.666275 
L 151.905965 65.343781 
L 152.556575 64.25917 
L 153.207185 64.904772 
L 153.857796 56.434473 
L 154.508406 66.893226 
L 155.159016 82.54262 
L 155.809627 68.365199 
L 156.460237 58.267983 
L 157.110847 77.532748 
L 157.761457 86.777769 
L 158.412068 81.225592 
L 159.062678 87.165131 
L 159.713288 88.817872 
L 160.363899 86.287112 
L 161.014509 105.75847 
L 161.665119 119.290289 
L 162.31573 104.467266 
L 162.96634 105.500229 
L 163.61695 129.723218 
L 164.267561 136.179238 
L 164.918171 134.965506 
L 165.568781 144.959426 
L 166.219392 145.785797 
L 166.870002 149.375344 
L 167.520612 173.856574 
L 168.171222 181.397206 
L 168.821833 166.858248 
L 169.472443 177.136232 
L 170.123053 200.84274 
L 171.424274 204.768 
L 172.074884 214.452031 
L 172.725495 212.541049 
L 173.376105 220.959699 
L 174.026715 244.924447 
L 174.677326 243.220058 
L 175.327936 229.533295 
L 176.629156 263.207898 
L 177.279767 259.773295 
L 177.930377 262.536471 
L 178.580987 267.64964 
L 179.231598 262.01999 
L 179.882208 273.227641 
L 180.532818 291.227026 
L 181.834039 266.694149 
L 182.484649 283.789691 
L 183.13526 292.25999 
L 183.78587 283.608922 
L 184.43648 285.132543 
L 185.087091 282.885848 
L 185.737701 274.234781 
L 186.388311 286.372099 
L 187.038921 294.480861 
L 187.689532 272.659512 
L 188.340142 263.362842 
L 188.990752 278.34081 
L 189.641363 276.455652 
L 190.291973 264.447453 
L 190.942583 263.440314 
L 192.243804 244.382142 
L 192.894414 256.209571 
L 193.545025 253.16233 
L 194.195635 225.788803 
L 194.846245 221.114644 
L 195.496856 232.193175 
L 196.147466 221.91519 
L 196.798076 209.597103 
L 197.448686 206.085028 
L 198.099297 191.210357 
L 198.749907 184.909281 
L 199.400517 195.884516 
L 200.051128 183.075771 
L 200.701738 155.831365 
L 201.352348 157.613226 
L 202.002959 164.559904 
L 202.653569 150.04677 
L 203.304179 140.827573 
L 203.95479 135.817701 
L 204.6054 120.065011 
L 205.25601 120.323252 
L 205.906621 130.265523 
L 207.207841 89.979956 
L 207.858451 99.250801 
L 208.509062 103.021117 
L 209.159672 89.153585 
L 209.810282 85.564038 
L 210.460893 80.450869 
L 211.111503 68.442671 
L 212.412724 85.977223 
L 213.063334 64.853124 
L 213.713944 54.291074 
L 214.364555 70.508598 
L 215.015165 72.342108 
L 215.665775 63.12291 
L 216.316385 65.860263 
L 217.617606 57.054251 
L 218.268216 74.640451 
L 218.918827 80.605814 
L 219.569437 61.263576 
L 220.220047 63.252031 
L 220.870658 83.93712 
L 221.521268 84.634371 
L 222.171878 82.000314 
L 222.822489 89.540946 
L 223.473099 86.597001 
L 224.123709 90.806326 
L 224.77432 114.022176 
L 225.42493 115.726565 
L 226.07554 100.671126 
L 226.72615 113.867231 
L 227.376761 135.042979 
L 228.027371 134.629793 
L 228.677981 138.038572 
L 229.328592 146.973705 
L 229.979202 144.752833 
L 230.629812 156.890152 
L 231.280423 180.72578 
L 231.931033 176.232389 
L 232.581643 166.393414 
L 233.882864 203.967453 
L 234.533474 201.875703 
L 235.834695 214.942688 
L 236.485305 212.592697 
L 237.786526 248.513995 
L 238.437136 236.634917 
L 239.087746 231.728342 
L 239.738357 254.169469 
L 240.388967 263.362842 
L 241.039577 258.972748 
L 241.690188 265.687009 
L 242.340798 265.841954 
L 242.991408 262.975481 
L 243.642019 281.56882 
L 244.292629 290.29736 
L 244.943239 271.394132 
L 245.59385 270.645233 
L 246.24446 289.935822 
L 246.89507 289.367693 
L 247.54568 282.756728 
L 248.196291 286.139682 
L 248.846901 278.831467 
L 249.497511 275.990818 
L 250.148122 292.518231 
L 250.798732 288.851211 
L 251.449342 265.325472 
L 252.099953 268.088649 
L 252.750563 280.819921 
L 253.401173 271.290835 
L 254.051784 263.41449 
L 254.702394 261.761749 
L 255.353004 248.281578 
L 256.003615 247.09367 
L 256.654225 259.205165 
L 257.304835 243.839836 
L 257.955445 219.900912 
L 259.256666 231.08274 
L 259.907276 215.898179 
L 261.208497 202.056471 
L 261.859107 186.071365 
L 262.509718 188.705421 
L 263.160328 195.522979 
L 263.810938 171.971416 
L 264.461549 152.732475 
L 265.112159 162.261561 
L 265.762769 160.944533 
L 266.413379 144.881954 
L 267.06399 140.104499 
L 267.7146 130.549588 
L 268.36521 116.966121 
L 269.015821 125.3073 
L 269.666431 127.063337 
L 270.317041 100.671126 
L 270.967652 90.677206 
L 271.618262 103.511775 
L 272.268872 98.450254 
L 272.919483 86.235464 
L 273.570093 85.357445 
L 274.220703 75.363525 
L 274.871314 68.830032 
L 275.521924 83.368991 
L 276.172534 80.864055 
L 276.823144 57.105899 
L 277.473755 58.991057 
L 278.124365 74.25309 
L 279.425586 63.12291 
L 280.076196 66.144328 
L 280.726806 58.138863 
L 281.377417 61.444345 
L 282.028027 80.631638 
L 282.678637 74.51133 
L 283.329248 57.674029 
L 284.630468 86.881066 
L 285.281079 82.155259 
L 285.931689 84.660195 
L 286.582299 89.928307 
L 287.232909 85.357445 
L 287.88352 98.631023 
L 288.53413 118.877103 
L 289.835351 101.471672 
L 290.485961 123.34467 
L 291.136571 136.747368 
L 291.787182 134.010015 
L 292.437792 142.144601 
L 293.088402 146.844584 
L 293.739013 145.966565 
L 294.389623 166.548359 
L 295.040233 182.998299 
L 295.690844 170.189554 
L 296.341454 170.835156 
L 296.992064 195.832868 
L 297.642674 203.941629 
L 298.293285 202.650425 
L 298.943895 212.541049 
L 299.594505 213.703132 
L 300.245116 215.872355 
L 300.895726 239.165677 
L 301.546336 247.145319 
L 302.196947 231.21186 
L 302.847557 238.365131 
L 303.498167 260.677137 
L 304.148778 261.400212 
L 304.799388 260.341424 
L 305.449998 267.623816 
L 306.100608 263.259546 
L 306.751219 267.546343 
L 307.401829 288.46385 
L 308.052439 284.848478 
L 308.70305 266.926565 
L 309.35366 277.746856 
L 310.00427 292.673175 
L 310.654881 285.726497 
L 311.305491 283.789691 
L 311.956101 285.184191 
L 312.606712 275.293568 
L 313.257322 281.12981 
L 313.907932 295.488 
L 315.209153 262.304055 
L 315.859763 274.286429 
L 316.510373 279.554541 
L 317.160984 266.694149 
L 317.811594 263.543611 
L 318.462204 257.862313 
L 319.112815 244.795327 
L 319.763425 252.181015 
L 320.414035 257.759016 
L 321.064646 233.097018 
L 321.715256 218.919597 
L 322.365866 230.488786 
L 323.016477 226.640997 
L 323.667087 211.508085 
L 324.317697 207.686121 
L 325.618918 183.95379 
L 326.269528 193.405404 
L 326.920138 190.203218 
L 327.570749 161.590135 
L 328.221359 154.307744 
L 328.871969 164.895617 
L 329.52258 154.97917 
L 330.17319 141.860536 
L 330.8238 138.477582 
L 331.474411 124.325985 
L 332.125021 117.534251 
L 332.775631 129.413329 
L 333.426242 119.264465 
L 334.076852 92.872253 
L 334.727462 95.015652 
L 335.378073 104.673858 
L 336.028683 92.872253 
L 336.679293 85.409093 
L 337.329903 83.446463 
L 337.980514 70.611894 
L 338.631124 72.806941 
L 339.281734 86.597001 
L 339.932345 72.212987 
L 340.582955 53.568 
L 341.233565 65.679494 
L 341.884176 74.408034 
L 342.534786 64.672355 
L 343.185396 64.646531 
L 343.836007 64.310818 
L 344.486617 56.253705 
L 345.787837 82.54262 
L 346.438448 66.634985 
L 347.089058 59.016881 
L 347.739668 79.185489 
L 348.390279 86.442056 
L 349.040889 81.199768 
L 349.691499 87.810733 
L 350.34211 88.353038 
L 350.99272 86.958538 
L 351.64333 107.772748 
L 352.293941 118.851279 
L 352.944551 103.305182 
L 353.595161 107.127146 
L 354.245772 131.221015 
L 354.896382 135.843525 
L 355.546992 135.481988 
L 356.197602 145.605028 
L 356.848213 145.475908 
L 357.498823 150.74402 
L 358.149433 175.690084 
L 358.800044 180.493363 
L 359.450654 166.341766 
L 360.101264 179.202159 
L 360.751875 201.875703 
L 361.402485 202.572953 
L 362.053095 205.568547 
L 362.703706 214.76192 
L 363.354316 212.36028 
L 364.004926 222.741561 
L 364.655537 246.138179 
L 365.306147 241.825558 
L 365.956757 229.584943 
L 367.257978 263.517787 
L 367.908588 259.437582 
L 369.209809 267.391399 
L 369.860419 261.942518 
L 370.511029 275.061151 
L 371.16164 291.459443 
L 371.81225 277.07543 
L 372.46286 267.184806 
L 373.113471 285.390784 
L 373.764081 291.795156 
L 374.414691 283.221561 
L 375.065302 285.468256 
L 375.715912 282.059477 
L 376.366522 274.286429 
L 377.017132 287.869896 
L 377.667743 293.628666 
L 378.318353 270.748529 
L 378.968963 264.137564 
L 379.619574 279.218828 
L 380.270184 275.345216 
L 380.920794 264.060092 
L 381.571405 263.233722 
L 382.222015 252.413431 
L 382.872625 244.692031 
L 383.523236 257.165062 
L 384.173846 251.354644 
L 384.824456 224.084413 
L 385.475066 222.070135 
L 386.125677 232.270647 
L 387.426897 209.26139 
L 388.077508 205.387778 
L 388.728118 189.893329 
L 389.378728 185.529059 
L 390.029339 196.194405 
L 390.679949 180.72578 
L 391.330559 154.695105 
L 391.98117 158.697838 
L 392.63178 164.043423 
L 393.28239 148.755566 
L 393.933001 140.672629 
L 394.583611 134.810562 
L 395.234221 119.083696 
L 395.884831 121.356215 
L 396.535442 129.981459 
L 397.836662 89.721715 
L 398.487273 100.387061 
L 398.487273 100.387061 
" clip-path="url(#pcbc65d2346)" style="fill: none; stroke: #0000ff; stroke-opacity: 0.5; stroke-width: 1.5; stroke-linecap: square"/>
   </g>
   <g id="line2d_24">
    <path d="M 73.832727 174.502176 
L 76.435169 174.502176 
L 77.085779 170.938453 
L 77.736389 165.153858 
L 78.386999 160.867061 
L 79.03761 157.587402 
L 79.68822 152.887419 
L 81.640051 127.166634 
L 82.941272 120.839734 
L 83.591882 112.756796 
L 84.242492 102.840348 
L 84.893103 98.062893 
L 85.543713 96.952458 
L 86.194323 93.492031 
L 87.495544 79.88274 
L 88.146154 76.293192 
L 88.796764 76.706377 
L 89.447375 76.034951 
L 90.748595 64.775652 
L 91.399206 65.111365 
L 92.049816 67.771245 
L 92.700426 67.409708 
L 93.351037 64.414114 
L 94.001647 62.244892 
L 94.652257 64.000929 
L 95.302868 69.114097 
L 95.953478 71.619033 
L 96.604088 69.553107 
L 97.254698 69.578931 
L 98.555919 81.948666 
L 99.206529 84.970084 
L 99.85714 86.028871 
L 100.50775 88.611279 
L 101.15836 95.428837 
L 101.808971 104.363969 
L 102.459581 109.296369 
L 103.110191 110.510101 
L 103.760802 115.31338 
L 105.062022 133.984191 
L 105.712633 139.045711 
L 106.363243 142.661083 
L 107.013853 148.419853 
L 108.315074 168.588461 
L 108.965684 173.753278 
L 109.616294 176.464806 
L 110.266905 183.773021 
L 110.917515 194.696608 
L 111.568125 203.141083 
L 112.218736 207.737769 
L 112.869346 211.482261 
L 113.519956 217.809161 
L 114.821177 236.195908 
L 115.471787 238.984909 
L 116.122398 240.818418 
L 116.773008 247.713448 
L 117.423618 256.571108 
L 118.074228 261.761749 
L 119.375449 264.757342 
L 120.026059 269.121612 
L 120.67667 276.171587 
L 121.32728 280.174319 
L 121.97789 278.521578 
L 122.628501 277.669383 
L 123.929721 286.217155 
L 124.580332 286.346275 
L 125.230942 283.428154 
L 125.881552 281.052338 
L 126.532163 282.059477 
L 127.182773 284.66771 
L 127.833383 282.8342 
L 128.483993 276.249059 
L 129.134604 272.194678 
L 129.785214 272.71116 
L 130.435824 271.988085 
L 131.086435 266.874917 
L 131.737045 259.61835 
L 132.387655 253.833756 
L 133.038266 251.664533 
L 133.688876 249.960143 
L 134.339486 242.935993 
L 134.990097 232.761305 
L 135.640707 226.666822 
L 136.291317 224.342654 
L 136.941927 219.668495 
L 138.893758 193.973534 
L 139.544369 190.435635 
L 140.194979 186.045541 
L 141.4962 165.179682 
L 142.14681 159.446736 
L 142.79742 156.347846 
L 143.448031 150.201715 
L 144.749251 131.479255 
L 145.399862 125.565541 
L 146.050472 123.112253 
L 146.701082 118.593038 
L 148.002303 100.387061 
L 148.652913 97.59806 
L 149.303523 96.177735 
L 149.954134 91.322808 
L 151.255354 78.075054 
L 151.905965 76.138248 
L 152.556575 76.964618 
L 153.207185 74.459682 
L 153.857796 67.822893 
L 154.508406 64.207522 
L 155.809627 68.081134 
L 156.460237 66.480041 
L 157.110847 63.355327 
L 157.761457 62.322364 
L 158.412068 65.705319 
L 159.062678 70.611894 
L 159.713288 71.180024 
L 160.363899 68.907505 
L 161.014509 71.128376 
L 161.665119 78.023406 
L 162.31573 83.472287 
L 162.96634 85.409093 
L 163.61695 86.597001 
L 164.267561 90.548085 
L 165.568781 106.817257 
L 166.219392 109.812851 
L 166.870002 111.51724 
L 167.520612 118.54139 
L 168.171222 128.716079 
L 168.821833 136.179238 
L 170.123053 144.313824 
L 170.773664 151.544567 
L 171.424274 162.287385 
L 172.074884 171.145045 
L 173.376105 178.375788 
L 175.327936 205.103713 
L 176.629156 213.289947 
L 177.279767 221.08882 
L 177.930377 231.263508 
L 178.580987 237.797001 
L 179.231598 239.294798 
L 179.882208 242.703576 
L 181.183429 258.972748 
L 181.834039 262.58812 
L 182.484649 263.698555 
L 183.13526 265.867778 
L 183.78587 271.5749 
L 184.43648 278.314985 
L 185.087091 280.019375 
L 185.737701 277.695208 
L 186.388311 278.702347 
L 187.038921 283.738043 
L 187.689532 286.785284 
L 188.340142 285.442432 
L 188.990752 282.317718 
L 189.641363 280.974866 
L 190.291973 283.118265 
L 190.942583 284.771006 
L 191.593194 280.690801 
L 192.243804 274.157308 
L 192.894414 272.091382 
L 193.545025 272.917752 
L 194.195635 270.619409 
L 196.147466 252.645848 
L 196.798076 251.354644 
L 197.448686 248.152458 
L 198.749907 229.869008 
L 199.400517 225.737155 
L 200.051128 223.154746 
L 200.701738 216.905319 
L 202.002959 198.182859 
L 202.653569 192.372441 
L 203.304179 189.325199 
L 203.95479 183.127419 
L 205.25601 162.44233 
L 206.557231 154.617633 
L 207.207841 147.025353 
L 208.509062 128.845199 
L 209.159672 124.480929 
L 209.810282 122.079289 
L 210.460893 115.545797 
L 211.111503 105.31946 
L 211.762113 98.785968 
L 212.412724 97.288171 
L 213.063334 94.860707 
L 213.713944 88.843696 
L 214.364555 81.612953 
L 215.015165 76.809674 
L 215.665775 76.396488 
L 216.316385 76.706377 
L 216.966996 72.238811 
L 217.617606 65.808615 
L 218.268216 64.491587 
L 218.918827 67.203115 
L 219.569437 67.900365 
L 220.870658 62.554781 
L 221.521268 63.019614 
L 222.822489 71.489913 
L 224.123709 68.933329 
L 224.77432 73.400895 
L 225.42493 80.399221 
L 226.07554 84.479426 
L 226.72615 85.718982 
L 227.376761 87.526668 
L 228.027371 93.078845 
L 228.677981 102.013978 
L 229.328592 108.495822 
L 229.979202 110.12274 
L 230.629812 113.324926 
L 231.931033 131.892441 
L 232.581643 137.909452 
L 233.232254 141.576471 
L 233.882864 146.405575 
L 234.533474 155.185763 
L 235.184085 166.057701 
L 235.834695 172.875259 
L 236.485305 175.483491 
L 237.135915 181.138965 
L 238.437136 201.230101 
L 239.087746 206.678982 
L 239.738357 210.294354 
L 240.388967 215.614114 
L 241.690188 234.336574 
L 242.340798 238.649196 
L 242.991408 239.914576 
L 243.642019 245.311809 
L 244.292629 254.298589 
L 244.943239 260.75461 
L 245.59385 263.104601 
L 246.24446 264.189213 
L 246.89507 267.494695 
L 247.54568 274.208956 
L 248.196291 279.683662 
L 248.846901 279.270477 
L 249.497511 277.411143 
L 250.148122 280.329264 
L 250.798732 285.339136 
L 251.449342 286.733636 
L 252.099953 284.331997 
L 252.750563 281.465523 
L 253.401173 281.388051 
L 254.051784 284.125404 
L 254.702394 284.022108 
L 256.003615 272.762808 
L 256.654225 272.427095 
L 257.304835 272.633687 
L 257.955445 268.682603 
L 259.256666 255.12496 
L 259.907276 251.974422 
L 260.557887 250.786514 
L 261.208497 245.518401 
L 261.859107 235.447009 
L 262.509718 227.803081 
L 263.160328 224.988256 
L 263.810938 221.424533 
L 264.461549 213.703132 
L 265.762769 195.600451 
L 266.413379 191.210357 
L 267.06399 187.74993 
L 267.7146 179.408751 
L 268.36521 167.891211 
L 269.015821 160.505523 
L 269.666431 157.354985 
L 270.317041 152.345114 
L 272.268872 126.753448 
L 273.570093 120.400724 
L 274.871314 102.22057 
L 275.521924 97.933773 
L 276.172534 96.823337 
L 276.823144 93.053021 
L 278.124365 79.417906 
L 278.774975 76.189896 
L 279.425586 76.78385 
L 280.076196 75.750886 
L 281.377417 64.569059 
L 282.028027 65.317957 
L 282.678637 67.874541 
L 283.329248 67.228939 
L 283.979858 64.181698 
L 284.630468 62.193243 
L 285.281079 64.336642 
L 285.931689 69.475635 
L 286.582299 71.567385 
L 287.232909 69.372338 
L 287.88352 69.837172 
L 289.18474 82.310203 
L 289.835351 85.099204 
L 290.485961 86.132167 
L 291.136571 88.99864 
L 291.787182 96.151911 
L 292.437792 104.983747 
L 293.088402 109.451313 
L 293.739013 110.665045 
L 294.389623 115.984806 
L 295.690844 134.500673 
L 296.341454 139.329776 
L 296.992064 142.996796 
L 297.642674 149.065455 
L 298.943895 169.208239 
L 299.594505 173.95987 
L 300.245116 176.826343 
L 300.895726 184.599392 
L 301.546336 195.522979 
L 302.196947 203.605916 
L 303.498167 211.843798 
L 304.148778 218.480588 
L 304.799388 228.500331 
L 305.449998 236.634917 
L 306.751219 241.179956 
L 307.401829 248.462347 
L 308.052439 257.165062 
L 308.70305 261.968342 
L 310.00427 264.963935 
L 310.654881 269.638094 
L 311.305491 276.688068 
L 311.956101 280.200143 
L 312.606712 278.314985 
L 313.257322 277.824328 
L 314.558543 286.397923 
L 315.209153 286.165506 
L 315.859763 283.169913 
L 316.510373 281.00069 
L 317.160984 282.26607 
L 317.811594 284.771006 
L 318.462204 282.39519 
L 319.112815 275.732577 
L 319.763425 272.14303 
L 320.414035 272.788632 
L 321.064646 271.729845 
L 321.715256 266.332611 
L 322.365866 259.05022 
L 323.016477 253.523867 
L 324.317697 249.650254 
L 324.968308 242.135447 
L 325.618918 232.064055 
L 326.269528 226.434405 
L 326.920138 224.136061 
L 327.570749 219.100365 
L 329.52258 193.560348 
L 330.17319 190.203218 
L 330.8238 185.477411 
L 332.125021 164.508256 
L 332.775631 159.162671 
L 333.426242 155.986309 
L 334.076852 149.530289 
L 335.378073 130.833653 
L 336.028683 125.281476 
L 336.679293 122.931484 
L 337.329903 117.97326 
L 338.631124 99.973875 
L 339.281734 97.520588 
L 339.932345 95.919494 
L 340.582955 90.806326 
L 341.233565 83.549759 
L 341.884176 77.739341 
L 342.534786 76.164072 
L 343.185396 76.938794 
L 343.836007 74.020673 
L 344.486617 67.332236 
L 345.137227 64.207522 
L 345.787837 66.402569 
L 346.438448 68.081134 
L 347.089058 66.247624 
L 347.739668 63.148734 
L 348.390279 62.42566 
L 349.040889 66.118504 
L 349.691499 70.870135 
L 350.34211 70.999255 
L 350.99272 68.855857 
L 351.64333 71.593209 
L 352.293941 78.591535 
L 352.944551 83.730528 
L 353.595161 85.486565 
L 354.245772 86.751945 
L 354.896382 91.038743 
L 356.197602 107.256266 
L 356.848213 109.890323 
L 357.498823 111.827129 
L 358.149433 119.316113 
L 358.800044 129.464977 
L 359.450654 136.592424 
L 360.751875 144.752833 
L 361.402485 152.293465 
L 362.053095 163.13958 
L 362.703706 171.584055 
L 363.354316 174.786241 
L 364.004926 178.918094 
L 365.306147 198.957582 
L 365.956757 205.491074 
L 366.607367 209.287214 
L 367.257978 213.780605 
L 367.908588 221.863542 
L 368.559198 232.012406 
L 369.209809 238.055242 
L 369.860419 239.398094 
L 370.511029 243.220058 
L 371.81225 259.437582 
L 372.46286 262.743064 
L 373.113471 263.801851 
L 373.764081 266.177667 
L 375.065302 278.676523 
L 375.715912 279.890254 
L 376.366522 277.566087 
L 377.017132 279.012236 
L 377.667743 284.151228 
L 378.318353 286.836933 
L 378.968963 285.210015 
L 379.619574 282.111126 
L 380.270184 281.026514 
L 380.920794 283.350681 
L 381.571405 284.693534 
L 382.222015 280.148495 
L 382.872625 273.795771 
L 383.523236 272.14303 
L 384.173846 272.891928 
L 384.824456 270.232048 
L 386.125677 256.674405 
L 386.776287 252.439255 
L 387.426897 251.251348 
L 388.077508 247.635976 
L 389.378728 229.326702 
L 390.029339 225.556386 
L 390.679949 222.819033 
L 391.330559 216.208068 
L 392.63178 197.563081 
L 393.28239 192.088376 
L 393.933001 189.01531 
L 394.583611 182.352697 
L 395.234221 170.964277 
L 395.884831 161.951672 
L 397.186052 154.178623 
L 397.836662 146.302278 
L 398.487273 136.489127 
L 398.487273 136.489127 
" clip-path="url(#pcbc65d2346)" style="fill: none; stroke: #ff0000; stroke-opacity: 0.5; stroke-width: 1.5; stroke-linecap: square"/>
   </g>
   <g id="patch_3">
    <path d="M 57.6 307.584 
L 57.6 41.472 
" style="fill: none; stroke: #000000; stroke-width: 0.8; stroke-linejoin: miter; stroke-linecap: square"/>
   </g>
   <g id="patch_4">
    <path d="M 414.72 307.584 
L 414.72 41.472 
" style="fill: none; stroke: #000000; stroke-width: 0.8; stroke-linejoin: miter; stroke-linecap: square"/>
   </g>
   <g id="patch_5">
    <path d="M 57.6 307.584 
L 414.72 307.584 
" style="fill: none; stroke: #000000; stroke-width: 0.8; stroke-linejoin: miter; stroke-linecap: square"/>
   </g>
   <g id="patch_6">
    <path d="M 57.6 41.472 
L 414.72 41.472 
" style="fill: none; stroke: #000000; stroke-width: 0.8; stroke-linejoin: miter; stroke-linecap: square"/>
   </g>
   <g id="text_14">
    <!-- Input vs Output signals -->
    <g transform="translate(166.51125 35.472) scale(0.12 -0.12)">
     <defs>
      <path id="DejaVuSans-49" d="M 628 4666 
L 1259 4666 
L 1259 0 
L 628 0 
L 628 4666 
z
" transform="scale(0.015625)"/>
      <path id="DejaVuSans-6e" d="M 3513 2113 
L 3513 0 
L 2938 0 
L 2938 2094 
Q 2938 2591 2744 2837 
Q 2550 3084 2163 3084 
Q 1697 3084 1428 2787 
Q 1159 2491 1159 1978 
L 1159 0 
L 581 0 
L 581 3500 
L 1159 3500 
L 1159 2956 
Q 1366 3272 1645 3428 
Q 1925 3584 2291 3584 
Q 2894 3584 3203 3211 
Q 3513 2838 3513 2113 
z
" transform="scale(0.015625)"/>
      <path id="DejaVuSans-20" transform="scale(0.015625)"/>
      <path id="DejaVuSans-76" d="M 191 3500 
L 800 3500 
L 1894 563 
L 2988 3500 
L 3597 3500 
L 2284 0 
L 1503 0 
L 191 3500 
z
" transform="scale(0.015625)"/>
      <path id="DejaVuSans-4f" d="M 2522 4238 
Q 1834 4238 1429 3725 
Q 1025 3213 1025 2328 
Q 1025 1447 1429 934 
Q 1834 422 2522 422 
Q 3209 422 3611 934 
Q 4013 1447 4013 2328 
Q 4013 3213 3611 3725 
Q 3209 4238 2522 4238 
z
M 2522 4750 
Q 3503 4750 4090 4092 
Q 4678 3434 4678 2328 
Q 4678 1225 4090 567 
Q 3503 -91 2522 -91 
Q 1538 -91 948 565 
Q 359 1222 359 2328 
Q 359 3434 948 4092 
Q 1538 4750 2522 4750 
z
" transform="scale(0.015625)"/>
      <path id="DejaVuSans-67" d="M 2906 1791 
Q 2906 2416 2648 2759 
Q 2391 3103 1925 3103 
Q 1463 3103 1205 2759 
Q 947 2416 947 1791 
Q 947 1169 1205 825 
Q 1463 481 1925 481 
Q 2391 481 2648 825 
Q 2906 1169 2906 1791 
z
M 3481 434 
Q 3481 -459 3084 -895 
Q 2688 -1331 1869 -1331 
Q 1566 -1331 1297 -1286 
Q 1028 -1241 775 -1147 
L 775 -588 
Q 1028 -725 1275 -790 
Q 1522 -856 1778 -856 
Q 2344 -856 2625 -561 
Q 2906 -266 2906 331 
L 2906 616 
Q 2728 306 2450 153 
Q 2172 0 1784 0 
Q 1141 0 747 490 
Q 353 981 353 1791 
Q 353 2603 747 3093 
Q 1141 3584 1784 3584 
Q 2172 3584 2450 3431 
Q 2728 3278 2906 2969 
L 2906 3500 
L 3481 3500 
L 3481 434 
z
" transform="scale(0.015625)"/>
     </defs>
     <use xlink:href="#DejaVuSans-49"/>
     <use xlink:href="#DejaVuSans-6e" x="29.492188"/>
     <use xlink:href="#DejaVuSans-70" x="92.871094"/>
     <use xlink:href="#DejaVuSans-75" x="156.347656"/>
     <use xlink:href="#DejaVuSans-74" x="219.726562"/>
     <use xlink:href="#DejaVuSans-20" x="258.935547"/>
     <use xlink:href="#DejaVuSans-76" x="290.722656"/>
     <use xlink:href="#DejaVuSans-73" x="349.902344"/>
     <use xlink:href="#DejaVuSans-20" x="402.001953"/>
     <use xlink:href="#DejaVuSans-4f" x="433.789062"/>
     <use xlink:href="#DejaVuSans-75" x="512.5"/>
     <use xlink:href="#DejaVuSans-74" x="575.878906"/>
     <use xlink:href="#DejaVuSans-70" x="615.087891"/>
     <use xlink:href="#DejaVuSans-75" x="678.564453"/>
     <use xlink:href="#DejaVuSans-74" x="741.943359"/>
     <use xlink:href="#DejaVuSans-20" x="781.152344"/>
     <use xlink:href="#DejaVuSans-73" x="812.939453"/>
     <use xlink:href="#DejaVuSans-69" x="865.039062"/>
     <use xlink:href="#DejaVuSans-67" x="892.822266"/>
     <use xlink:href="#DejaVuSans-6e" x="956.298828"/>
     <use xlink:href="#DejaVuSans-61" x="1019.677734"/>
     <use xlink:href="#DejaVuSans-6c" x="1080.957031"/>
     <use xlink:href="#DejaVuSans-73" x="1108.740234"/>
    </g>
   </g>
   <g id="legend_1">
    <g id="patch_7">
     <path d="M 340.984063 190.706125 
L 407.72 190.706125 
Q 409.72 190.706125 409.72 188.706125 
L 409.72 160.349875 
Q 409.72 158.349875 407.72 158.349875 
L 340.984063 158.349875 
Q 338.984063 158.349875 338.984063 160.349875 
L 338.984063 188.706125 
Q 338.984063 190.706125 340.984063 190.706125 
z
" style="fill: #ffffff; opacity: 0.8; stroke: #cccccc; stroke-linejoin: miter"/>
    </g>
    <g id="line2d_25">
     <path d="M 342.984063 166.448312 
L 352.984063 166.448312 
L 362.984063 166.448312 
" style="fill: none; stroke: #0000ff; stroke-opacity: 0.5; stroke-width: 1.5; stroke-linecap: square"/>
    </g>
    <g id="text_15">
     <!-- Input -->
     <g transform="translate(370.984063 169.948312) scale(0.1 -0.1)">
      <use xlink:href="#DejaVuSans-49"/>
      <use xlink:href="#DejaVuSans-6e" x="29.492188"/>
      <use xlink:href="#DejaVuSans-70" x="92.871094"/>
      <use xlink:href="#DejaVuSans-75" x="156.347656"/>
      <use xlink:href="#DejaVuSans-74" x="219.726562"/>
     </g>
    </g>
    <g id="line2d_26">
     <path d="M 342.984063 181.126437 
L 352.984063 181.126437 
L 362.984063 181.126437 
" style="fill: none; stroke: #ff0000; stroke-opacity: 0.5; stroke-width: 1.5; stroke-linecap: square"/>
    </g>
    <g id="text_16">
     <!-- Output -->
     <g transform="translate(370.984063 184.626437) scale(0.1 -0.1)">
      <use xlink:href="#DejaVuSans-4f"/>
      <use xlink:href="#DejaVuSans-75" x="78.710938"/>
      <use xlink:href="#DejaVuSans-74" x="142.089844"/>
      <use xlink:href="#DejaVuSans-70" x="181.298828"/>
      <use xlink:href="#DejaVuSans-75" x="244.775391"/>
      <use xlink:href="#DejaVuSans-74" x="308.154297"/>
     </g>
    </g>
   </g>
  </g>
 </g>
 <defs>
  <clipPath id="pcbc65d2346">
   <rect x="57.6" y="41.472" width="357.12" height="266.112"/>
  </clipPath>
 </defs>
</svg>
