<?xml version="1.0" encoding="utf-8" standalone="no"?>
<!DOCTYPE svg PUBLIC "-//W3C//DTD SVG 1.1//EN"
  "http://www.w3.org/Graphics/SVG/1.1/DTD/svg11.dtd">
<svg xmlns:xlink="http://www.w3.org/1999/xlink" width="460.8pt" height="345.6pt" viewBox="0 0 460.8 345.6" xmlns="http://www.w3.org/2000/svg" version="1.1">
 <metadata>
  <rdf:RDF xmlns:dc="http://purl.org/dc/elements/1.1/" xmlns:cc="http://creativecommons.org/ns#" xmlns:rdf="http://www.w3.org/1999/02/22-rdf-syntax-ns#">
   <cc:Work>
    <dc:type rdf:resource="http://purl.org/dc/dcmitype/StillImage"/>
    <dc:date>2025-08-21T12:02:40.957606</dc:date>
    <dc:format>image/svg+xml</dc:format>
    <dc:creator>
     <cc:Agent>
      <dc:title>Matplotlib v3.7.2, https://matplotlib.org/</dc:title>
     </cc:Agent>
    </dc:creator>
   </cc:Work>
  </rdf:RDF>
 </metadata>
 <defs>
  <style type="text/css">*{stroke-linejoin: round; stroke-linecap: butt}</style>
 </defs>
 <g id="figure_1">
  <g id="patch_1">
   <path d="M 0 345.6 
L 460.8 345.6 
L 460.8 0 
L 0 0 
z
" style="fill: #ffffff"/>
  </g>
  <g id="axes_1">
   <g id="patch_2">
    <path d="M 57.6 307.584 
L 414.72 307.584 
L 414.72 41.472 
L 57.6 41.472 
z
" style="fill: #ffffff"/>
   </g>
   <g id="matplotlib.axis_1">
    <g id="xtick_1">
     <g id="line2d_1">
      <path d="M 73.832727 307.584 
L 73.832727 41.472 
" clip-path="url(#p17811a822b)" style="fill: none; stroke: #b0b0b0; stroke-width: 0.8; stroke-linecap: square"/>
     </g>
     <g id="line2d_2">
      <defs>
       <path id="mf91e720bda" d="M 0 0 
L 0 3.5 
" style="stroke: #000000; stroke-width: 0.8"/>
      </defs>
      <g>
       <use xlink:href="#mf91e720bda" x="73.832727" y="307.584" style="stroke: #000000; stroke-width: 0.8"/>
      </g>
     </g>
     <g id="text_1">
      <!-- 0 -->
      <g transform="translate(70.651477 322.182437) scale(0.1 -0.1)">
       <defs>
        <path id="DejaVuSans-30" d="M 2034 4250 
Q 1547 4250 1301 3770 
Q 1056 3291 1056 2328 
Q 1056 1369 1301 889 
Q 1547 409 2034 409 
Q 2525 409 2770 889 
Q 3016 1369 3016 2328 
Q 3016 3291 2770 3770 
Q 2525 4250 2034 4250 
z
M 2034 4750 
Q 2819 4750 3233 4129 
Q 3647 3509 3647 2328 
Q 3647 1150 3233 529 
Q 2819 -91 2034 -91 
Q 1250 -91 836 529 
Q 422 1150 422 2328 
Q 422 3509 836 4129 
Q 1250 4750 2034 4750 
z
" transform="scale(0.015625)"/>
       </defs>
       <use xlink:href="#DejaVuSans-30"/>
      </g>
     </g>
    </g>
    <g id="xtick_2">
     <g id="line2d_3">
      <path d="M 138.893758 307.584 
L 138.893758 41.472 
" clip-path="url(#p17811a822b)" style="fill: none; stroke: #b0b0b0; stroke-width: 0.8; stroke-linecap: square"/>
     </g>
     <g id="line2d_4">
      <g>
       <use xlink:href="#mf91e720bda" x="138.893758" y="307.584" style="stroke: #000000; stroke-width: 0.8"/>
      </g>
     </g>
     <g id="text_2">
      <!-- 100 -->
      <g transform="translate(129.350008 322.182437) scale(0.1 -0.1)">
       <defs>
        <path id="DejaVuSans-31" d="M 794 531 
L 1825 531 
L 1825 4091 
L 703 3866 
L 703 4441 
L 1819 4666 
L 2450 4666 
L 2450 531 
L 3481 531 
L 3481 0 
L 794 0 
L 794 531 
z
" transform="scale(0.015625)"/>
       </defs>
       <use xlink:href="#DejaVuSans-31"/>
       <use xlink:href="#DejaVuSans-30" x="63.623047"/>
       <use xlink:href="#DejaVuSans-30" x="127.246094"/>
      </g>
     </g>
    </g>
    <g id="xtick_3">
     <g id="line2d_5">
      <path d="M 203.95479 307.584 
L 203.95479 41.472 
" clip-path="url(#p17811a822b)" style="fill: none; stroke: #b0b0b0; stroke-width: 0.8; stroke-linecap: square"/>
     </g>
     <g id="line2d_6">
      <g>
       <use xlink:href="#mf91e720bda" x="203.95479" y="307.584" style="stroke: #000000; stroke-width: 0.8"/>
      </g>
     </g>
     <g id="text_3">
      <!-- 200 -->
      <g transform="translate(194.41104 322.182437) scale(0.1 -0.1)">
       <defs>
        <path id="DejaVuSans-32" d="M 1228 531 
L 3431 531 
L 3431 0 
L 469 0 
L 469 531 
Q 828 903 1448 1529 
Q 2069 2156 2228 2338 
Q 2531 2678 2651 2914 
Q 2772 3150 2772 3378 
Q 2772 3750 2511 3984 
Q 2250 4219 1831 4219 
Q 1534 4219 1204 4116 
Q 875 4013 500 3803 
L 500 4441 
Q 881 4594 1212 4672 
Q 1544 4750 1819 4750 
Q 2544 4750 2975 4387 
Q 3406 4025 3406 3419 
Q 3406 3131 3298 2873 
Q 3191 2616 2906 2266 
Q 2828 2175 2409 1742 
Q 1991 1309 1228 531 
z
" transform="scale(0.015625)"/>
       </defs>
       <use xlink:href="#DejaVuSans-32"/>
       <use xlink:href="#DejaVuSans-30" x="63.623047"/>
       <use xlink:href="#DejaVuSans-30" x="127.246094"/>
      </g>
     </g>
    </g>
    <g id="xtick_4">
     <g id="line2d_7">
      <path d="M 269.015821 307.584 
L 269.015821 41.472 
" clip-path="url(#p17811a822b)" style="fill: none; stroke: #b0b0b0; stroke-width: 0.8; stroke-linecap: square"/>
     </g>
     <g id="line2d_8">
      <g>
       <use xlink:href="#mf91e720bda" x="269.015821" y="307.584" style="stroke: #000000; stroke-width: 0.8"/>
      </g>
     </g>
     <g id="text_4">
      <!-- 300 -->
      <g transform="translate(259.472071 322.182437) scale(0.1 -0.1)">
       <defs>
        <path id="DejaVuSans-33" d="M 2597 2516 
Q 3050 2419 3304 2112 
Q 3559 1806 3559 1356 
Q 3559 666 3084 287 
Q 2609 -91 1734 -91 
Q 1441 -91 1130 -33 
Q 819 25 488 141 
L 488 750 
Q 750 597 1062 519 
Q 1375 441 1716 441 
Q 2309 441 2620 675 
Q 2931 909 2931 1356 
Q 2931 1769 2642 2001 
Q 2353 2234 1838 2234 
L 1294 2234 
L 1294 2753 
L 1863 2753 
Q 2328 2753 2575 2939 
Q 2822 3125 2822 3475 
Q 2822 3834 2567 4026 
Q 2313 4219 1838 4219 
Q 1578 4219 1281 4162 
Q 984 4106 628 3988 
L 628 4550 
Q 988 4650 1302 4700 
Q 1616 4750 1894 4750 
Q 2613 4750 3031 4423 
Q 3450 4097 3450 3541 
Q 3450 3153 3228 2886 
Q 3006 2619 2597 2516 
z
" transform="scale(0.015625)"/>
       </defs>
       <use xlink:href="#DejaVuSans-33"/>
       <use xlink:href="#DejaVuSans-30" x="63.623047"/>
       <use xlink:href="#DejaVuSans-30" x="127.246094"/>
      </g>
     </g>
    </g>
    <g id="xtick_5">
     <g id="line2d_9">
      <path d="M 334.076852 307.584 
L 334.076852 41.472 
" clip-path="url(#p17811a822b)" style="fill: none; stroke: #b0b0b0; stroke-width: 0.8; stroke-linecap: square"/>
     </g>
     <g id="line2d_10">
      <g>
       <use xlink:href="#mf91e720bda" x="334.076852" y="307.584" style="stroke: #000000; stroke-width: 0.8"/>
      </g>
     </g>
     <g id="text_5">
      <!-- 400 -->
      <g transform="translate(324.533102 322.182437) scale(0.1 -0.1)">
       <defs>
        <path id="DejaVuSans-34" d="M 2419 4116 
L 825 1625 
L 2419 1625 
L 2419 4116 
z
M 2253 4666 
L 3047 4666 
L 3047 1625 
L 3713 1625 
L 3713 1100 
L 3047 1100 
L 3047 0 
L 2419 0 
L 2419 1100 
L 313 1100 
L 313 1709 
L 2253 4666 
z
" transform="scale(0.015625)"/>
       </defs>
       <use xlink:href="#DejaVuSans-34"/>
       <use xlink:href="#DejaVuSans-30" x="63.623047"/>
       <use xlink:href="#DejaVuSans-30" x="127.246094"/>
      </g>
     </g>
    </g>
    <g id="xtick_6">
     <g id="line2d_11">
      <path d="M 399.137883 307.584 
L 399.137883 41.472 
" clip-path="url(#p17811a822b)" style="fill: none; stroke: #b0b0b0; stroke-width: 0.8; stroke-linecap: square"/>
     </g>
     <g id="line2d_12">
      <g>
       <use xlink:href="#mf91e720bda" x="399.137883" y="307.584" style="stroke: #000000; stroke-width: 0.8"/>
      </g>
     </g>
     <g id="text_6">
      <!-- 500 -->
      <g transform="translate(389.594133 322.182437) scale(0.1 -0.1)">
       <defs>
        <path id="DejaVuSans-35" d="M 691 4666 
L 3169 4666 
L 3169 4134 
L 1269 4134 
L 1269 2991 
Q 1406 3038 1543 3061 
Q 1681 3084 1819 3084 
Q 2600 3084 3056 2656 
Q 3513 2228 3513 1497 
Q 3513 744 3044 326 
Q 2575 -91 1722 -91 
Q 1428 -91 1123 -41 
Q 819 9 494 109 
L 494 744 
Q 775 591 1075 516 
Q 1375 441 1709 441 
Q 2250 441 2565 725 
Q 2881 1009 2881 1497 
Q 2881 1984 2565 2268 
Q 2250 2553 1709 2553 
Q 1456 2553 1204 2497 
Q 953 2441 691 2322 
L 691 4666 
z
" transform="scale(0.015625)"/>
       </defs>
       <use xlink:href="#DejaVuSans-35"/>
       <use xlink:href="#DejaVuSans-30" x="63.623047"/>
       <use xlink:href="#DejaVuSans-30" x="127.246094"/>
      </g>
     </g>
    </g>
    <g id="text_7">
     <!-- Samples -->
     <g transform="translate(214.806875 335.860562) scale(0.1 -0.1)">
      <defs>
       <path id="DejaVuSans-53" d="M 3425 4513 
L 3425 3897 
Q 3066 4069 2747 4153 
Q 2428 4238 2131 4238 
Q 1616 4238 1336 4038 
Q 1056 3838 1056 3469 
Q 1056 3159 1242 3001 
Q 1428 2844 1947 2747 
L 2328 2669 
Q 3034 2534 3370 2195 
Q 3706 1856 3706 1288 
Q 3706 609 3251 259 
Q 2797 -91 1919 -91 
Q 1588 -91 1214 -16 
Q 841 59 441 206 
L 441 856 
Q 825 641 1194 531 
Q 1563 422 1919 422 
Q 2459 422 2753 634 
Q 3047 847 3047 1241 
Q 3047 1584 2836 1778 
Q 2625 1972 2144 2069 
L 1759 2144 
Q 1053 2284 737 2584 
Q 422 2884 422 3419 
Q 422 4038 858 4394 
Q 1294 4750 2059 4750 
Q 2388 4750 2728 4690 
Q 3069 4631 3425 4513 
z
" transform="scale(0.015625)"/>
       <path id="DejaVuSans-61" d="M 2194 1759 
Q 1497 1759 1228 1600 
Q 959 1441 959 1056 
Q 959 750 1161 570 
Q 1363 391 1709 391 
Q 2188 391 2477 730 
Q 2766 1069 2766 1631 
L 2766 1759 
L 2194 1759 
z
M 3341 1997 
L 3341 0 
L 2766 0 
L 2766 531 
Q 2569 213 2275 61 
Q 1981 -91 1556 -91 
Q 1019 -91 701 211 
Q 384 513 384 1019 
Q 384 1609 779 1909 
Q 1175 2209 1959 2209 
L 2766 2209 
L 2766 2266 
Q 2766 2663 2505 2880 
Q 2244 3097 1772 3097 
Q 1472 3097 1187 3025 
Q 903 2953 641 2809 
L 641 3341 
Q 956 3463 1253 3523 
Q 1550 3584 1831 3584 
Q 2591 3584 2966 3190 
Q 3341 2797 3341 1997 
z
" transform="scale(0.015625)"/>
       <path id="DejaVuSans-6d" d="M 3328 2828 
Q 3544 3216 3844 3400 
Q 4144 3584 4550 3584 
Q 5097 3584 5394 3201 
Q 5691 2819 5691 2113 
L 5691 0 
L 5113 0 
L 5113 2094 
Q 5113 2597 4934 2840 
Q 4756 3084 4391 3084 
Q 3944 3084 3684 2787 
Q 3425 2491 3425 1978 
L 3425 0 
L 2847 0 
L 2847 2094 
Q 2847 2600 2669 2842 
Q 2491 3084 2119 3084 
Q 1678 3084 1418 2786 
Q 1159 2488 1159 1978 
L 1159 0 
L 581 0 
L 581 3500 
L 1159 3500 
L 1159 2956 
Q 1356 3278 1631 3431 
Q 1906 3584 2284 3584 
Q 2666 3584 2933 3390 
Q 3200 3197 3328 2828 
z
" transform="scale(0.015625)"/>
       <path id="DejaVuSans-70" d="M 1159 525 
L 1159 -1331 
L 581 -1331 
L 581 3500 
L 1159 3500 
L 1159 2969 
Q 1341 3281 1617 3432 
Q 1894 3584 2278 3584 
Q 2916 3584 3314 3078 
Q 3713 2572 3713 1747 
Q 3713 922 3314 415 
Q 2916 -91 2278 -91 
Q 1894 -91 1617 61 
Q 1341 213 1159 525 
z
M 3116 1747 
Q 3116 2381 2855 2742 
Q 2594 3103 2138 3103 
Q 1681 3103 1420 2742 
Q 1159 2381 1159 1747 
Q 1159 1113 1420 752 
Q 1681 391 2138 391 
Q 2594 391 2855 752 
Q 3116 1113 3116 1747 
z
" transform="scale(0.015625)"/>
       <path id="DejaVuSans-6c" d="M 603 4863 
L 1178 4863 
L 1178 0 
L 603 0 
L 603 4863 
z
" transform="scale(0.015625)"/>
       <path id="DejaVuSans-65" d="M 3597 1894 
L 3597 1613 
L 953 1613 
Q 991 1019 1311 708 
Q 1631 397 2203 397 
Q 2534 397 2845 478 
Q 3156 559 3463 722 
L 3463 178 
Q 3153 47 2828 -22 
Q 2503 -91 2169 -91 
Q 1331 -91 842 396 
Q 353 884 353 1716 
Q 353 2575 817 3079 
Q 1281 3584 2069 3584 
Q 2775 3584 3186 3129 
Q 3597 2675 3597 1894 
z
M 3022 2063 
Q 3016 2534 2758 2815 
Q 2500 3097 2075 3097 
Q 1594 3097 1305 2825 
Q 1016 2553 972 2059 
L 3022 2063 
z
" transform="scale(0.015625)"/>
       <path id="DejaVuSans-73" d="M 2834 3397 
L 2834 2853 
Q 2591 2978 2328 3040 
Q 2066 3103 1784 3103 
Q 1356 3103 1142 2972 
Q 928 2841 928 2578 
Q 928 2378 1081 2264 
Q 1234 2150 1697 2047 
L 1894 2003 
Q 2506 1872 2764 1633 
Q 3022 1394 3022 966 
Q 3022 478 2636 193 
Q 2250 -91 1575 -91 
Q 1294 -91 989 -36 
Q 684 19 347 128 
L 347 722 
Q 666 556 975 473 
Q 1284 391 1588 391 
Q 1994 391 2212 530 
Q 2431 669 2431 922 
Q 2431 1156 2273 1281 
Q 2116 1406 1581 1522 
L 1381 1569 
Q 847 1681 609 1914 
Q 372 2147 372 2553 
Q 372 3047 722 3315 
Q 1072 3584 1716 3584 
Q 2034 3584 2315 3537 
Q 2597 3491 2834 3397 
z
" transform="scale(0.015625)"/>
      </defs>
      <use xlink:href="#DejaVuSans-53"/>
      <use xlink:href="#DejaVuSans-61" x="63.476562"/>
      <use xlink:href="#DejaVuSans-6d" x="124.755859"/>
      <use xlink:href="#DejaVuSans-70" x="222.167969"/>
      <use xlink:href="#DejaVuSans-6c" x="285.644531"/>
      <use xlink:href="#DejaVuSans-65" x="313.427734"/>
      <use xlink:href="#DejaVuSans-73" x="374.951172"/>
     </g>
    </g>
   </g>
   <g id="matplotlib.axis_2">
    <g id="ytick_1">
     <g id="line2d_13">
      <path d="M 57.6 285.270032 
L 414.72 285.270032 
" clip-path="url(#p17811a822b)" style="fill: none; stroke: #b0b0b0; stroke-width: 0.8; stroke-linecap: square"/>
     </g>
     <g id="line2d_14">
      <defs>
       <path id="m5f1261768e" d="M 0 0 
L -3.5 0 
" style="stroke: #000000; stroke-width: 0.8"/>
      </defs>
      <g>
       <use xlink:href="#m5f1261768e" x="57.6" y="285.270032" style="stroke: #000000; stroke-width: 0.8"/>
      </g>
     </g>
     <g id="text_8">
      <!-- −30000 -->
      <g transform="translate(10.407812 289.06925) scale(0.1 -0.1)">
       <defs>
        <path id="DejaVuSans-2212" d="M 678 2272 
L 4684 2272 
L 4684 1741 
L 678 1741 
L 678 2272 
z
" transform="scale(0.015625)"/>
       </defs>
       <use xlink:href="#DejaVuSans-2212"/>
       <use xlink:href="#DejaVuSans-33" x="83.789062"/>
       <use xlink:href="#DejaVuSans-30" x="147.412109"/>
       <use xlink:href="#DejaVuSans-30" x="211.035156"/>
       <use xlink:href="#DejaVuSans-30" x="274.658203"/>
       <use xlink:href="#DejaVuSans-30" x="338.28125"/>
      </g>
     </g>
    </g>
    <g id="ytick_2">
     <g id="line2d_15">
      <path d="M 57.6 248.355406 
L 414.72 248.355406 
" clip-path="url(#p17811a822b)" style="fill: none; stroke: #b0b0b0; stroke-width: 0.8; stroke-linecap: square"/>
     </g>
     <g id="line2d_16">
      <g>
       <use xlink:href="#m5f1261768e" x="57.6" y="248.355406" style="stroke: #000000; stroke-width: 0.8"/>
      </g>
     </g>
     <g id="text_9">
      <!-- −20000 -->
      <g transform="translate(10.407812 252.154625) scale(0.1 -0.1)">
       <use xlink:href="#DejaVuSans-2212"/>
       <use xlink:href="#DejaVuSans-32" x="83.789062"/>
       <use xlink:href="#DejaVuSans-30" x="147.412109"/>
       <use xlink:href="#DejaVuSans-30" x="211.035156"/>
       <use xlink:href="#DejaVuSans-30" x="274.658203"/>
       <use xlink:href="#DejaVuSans-30" x="338.28125"/>
      </g>
     </g>
    </g>
    <g id="ytick_3">
     <g id="line2d_17">
      <path d="M 57.6 211.44078 
L 414.72 211.44078 
" clip-path="url(#p17811a822b)" style="fill: none; stroke: #b0b0b0; stroke-width: 0.8; stroke-linecap: square"/>
     </g>
     <g id="line2d_18">
      <g>
       <use xlink:href="#m5f1261768e" x="57.6" y="211.44078" style="stroke: #000000; stroke-width: 0.8"/>
      </g>
     </g>
     <g id="text_10">
      <!-- −10000 -->
      <g transform="translate(10.407812 215.239999) scale(0.1 -0.1)">
       <use xlink:href="#DejaVuSans-2212"/>
       <use xlink:href="#DejaVuSans-31" x="83.789062"/>
       <use xlink:href="#DejaVuSans-30" x="147.412109"/>
       <use xlink:href="#DejaVuSans-30" x="211.035156"/>
       <use xlink:href="#DejaVuSans-30" x="274.658203"/>
       <use xlink:href="#DejaVuSans-30" x="338.28125"/>
      </g>
     </g>
    </g>
    <g id="ytick_4">
     <g id="line2d_19">
      <path d="M 57.6 174.526154 
L 414.72 174.526154 
" clip-path="url(#p17811a822b)" style="fill: none; stroke: #b0b0b0; stroke-width: 0.8; stroke-linecap: square"/>
     </g>
     <g id="line2d_20">
      <g>
       <use xlink:href="#m5f1261768e" x="57.6" y="174.526154" style="stroke: #000000; stroke-width: 0.8"/>
      </g>
     </g>
     <g id="text_11">
      <!-- 0 -->
      <g transform="translate(44.2375 178.325373) scale(0.1 -0.1)">
       <use xlink:href="#DejaVuSans-30"/>
      </g>
     </g>
    </g>
    <g id="ytick_5">
     <g id="line2d_21">
      <path d="M 57.6 137.611528 
L 414.72 137.611528 
" clip-path="url(#p17811a822b)" style="fill: none; stroke: #b0b0b0; stroke-width: 0.8; stroke-linecap: square"/>
     </g>
     <g id="line2d_22">
      <g>
       <use xlink:href="#m5f1261768e" x="57.6" y="137.611528" style="stroke: #000000; stroke-width: 0.8"/>
      </g>
     </g>
     <g id="text_12">
      <!-- 10000 -->
      <g transform="translate(18.7875 141.410747) scale(0.1 -0.1)">
       <use xlink:href="#DejaVuSans-31"/>
       <use xlink:href="#DejaVuSans-30" x="63.623047"/>
       <use xlink:href="#DejaVuSans-30" x="127.246094"/>
       <use xlink:href="#DejaVuSans-30" x="190.869141"/>
       <use xlink:href="#DejaVuSans-30" x="254.492188"/>
      </g>
     </g>
    </g>
    <g id="ytick_6">
     <g id="line2d_23">
      <path d="M 57.6 100.696903 
L 414.72 100.696903 
" clip-path="url(#p17811a822b)" style="fill: none; stroke: #b0b0b0; stroke-width: 0.8; stroke-linecap: square"/>
     </g>
     <g id="line2d_24">
      <g>
       <use xlink:href="#m5f1261768e" x="57.6" y="100.696903" style="stroke: #000000; stroke-width: 0.8"/>
      </g>
     </g>
     <g id="text_13">
      <!-- 20000 -->
      <g transform="translate(18.7875 104.496121) scale(0.1 -0.1)">
       <use xlink:href="#DejaVuSans-32"/>
       <use xlink:href="#DejaVuSans-30" x="63.623047"/>
       <use xlink:href="#DejaVuSans-30" x="127.246094"/>
       <use xlink:href="#DejaVuSans-30" x="190.869141"/>
       <use xlink:href="#DejaVuSans-30" x="254.492188"/>
      </g>
     </g>
    </g>
    <g id="ytick_7">
     <g id="line2d_25">
      <path d="M 57.6 63.782277 
L 414.72 63.782277 
" clip-path="url(#p17811a822b)" style="fill: none; stroke: #b0b0b0; stroke-width: 0.8; stroke-linecap: square"/>
     </g>
     <g id="line2d_26">
      <g>
       <use xlink:href="#m5f1261768e" x="57.6" y="63.782277" style="stroke: #000000; stroke-width: 0.8"/>
      </g>
     </g>
     <g id="text_14">
      <!-- 30000 -->
      <g transform="translate(18.7875 67.581496) scale(0.1 -0.1)">
       <use xlink:href="#DejaVuSans-33"/>
       <use xlink:href="#DejaVuSans-30" x="63.623047"/>
       <use xlink:href="#DejaVuSans-30" x="127.246094"/>
       <use xlink:href="#DejaVuSans-30" x="190.869141"/>
       <use xlink:href="#DejaVuSans-30" x="254.492188"/>
      </g>
     </g>
    </g>
    <g id="text_15">
     <!-- Amplitude -->
     <g transform="translate(4.328125 200.150656) rotate(-90) scale(0.1 -0.1)">
      <defs>
       <path id="DejaVuSans-41" d="M 2188 4044 
L 1331 1722 
L 3047 1722 
L 2188 4044 
z
M 1831 4666 
L 2547 4666 
L 4325 0 
L 3669 0 
L 3244 1197 
L 1141 1197 
L 716 0 
L 50 0 
L 1831 4666 
z
" transform="scale(0.015625)"/>
       <path id="DejaVuSans-69" d="M 603 3500 
L 1178 3500 
L 1178 0 
L 603 0 
L 603 3500 
z
M 603 4863 
L 1178 4863 
L 1178 4134 
L 603 4134 
L 603 4863 
z
" transform="scale(0.015625)"/>
       <path id="DejaVuSans-74" d="M 1172 4494 
L 1172 3500 
L 2356 3500 
L 2356 3053 
L 1172 3053 
L 1172 1153 
Q 1172 725 1289 603 
Q 1406 481 1766 481 
L 2356 481 
L 2356 0 
L 1766 0 
Q 1100 0 847 248 
Q 594 497 594 1153 
L 594 3053 
L 172 3053 
L 172 3500 
L 594 3500 
L 594 4494 
L 1172 4494 
z
" transform="scale(0.015625)"/>
       <path id="DejaVuSans-75" d="M 544 1381 
L 544 3500 
L 1119 3500 
L 1119 1403 
Q 1119 906 1312 657 
Q 1506 409 1894 409 
Q 2359 409 2629 706 
Q 2900 1003 2900 1516 
L 2900 3500 
L 3475 3500 
L 3475 0 
L 2900 0 
L 2900 538 
Q 2691 219 2414 64 
Q 2138 -91 1772 -91 
Q 1169 -91 856 284 
Q 544 659 544 1381 
z
M 1991 3584 
L 1991 3584 
z
" transform="scale(0.015625)"/>
       <path id="DejaVuSans-64" d="M 2906 2969 
L 2906 4863 
L 3481 4863 
L 3481 0 
L 2906 0 
L 2906 525 
Q 2725 213 2448 61 
Q 2172 -91 1784 -91 
Q 1150 -91 751 415 
Q 353 922 353 1747 
Q 353 2572 751 3078 
Q 1150 3584 1784 3584 
Q 2172 3584 2448 3432 
Q 2725 3281 2906 2969 
z
M 947 1747 
Q 947 1113 1208 752 
Q 1469 391 1925 391 
Q 2381 391 2643 752 
Q 2906 1113 2906 1747 
Q 2906 2381 2643 2742 
Q 2381 3103 1925 3103 
Q 1469 3103 1208 2742 
Q 947 2381 947 1747 
z
" transform="scale(0.015625)"/>
      </defs>
      <use xlink:href="#DejaVuSans-41"/>
      <use xlink:href="#DejaVuSans-6d" x="68.408203"/>
      <use xlink:href="#DejaVuSans-70" x="165.820312"/>
      <use xlink:href="#DejaVuSans-6c" x="229.296875"/>
      <use xlink:href="#DejaVuSans-69" x="257.080078"/>
      <use xlink:href="#DejaVuSans-74" x="284.863281"/>
      <use xlink:href="#DejaVuSans-75" x="324.072266"/>
      <use xlink:href="#DejaVuSans-64" x="387.451172"/>
      <use xlink:href="#DejaVuSans-65" x="450.927734"/>
     </g>
    </g>
   </g>
   <g id="line2d_27">
    <path d="M 73.832727 117.016859 
L 74.483338 154.367077 
L 75.133948 167.72648 
L 75.784558 127.810695 
L 76.435169 121.896972 
L 77.085779 107.382141 
L 77.736389 74.003937 
L 78.386999 108.973162 
L 79.03761 135.632905 
L 79.68822 69.555724 
L 80.33883 53.568 
L 80.989441 99.851558 
L 81.640051 105.805887 
L 82.290661 81.157991 
L 82.941272 94.244226 
L 83.591882 82.760086 
L 84.242492 73.98548 
L 84.893103 134.824474 
L 85.543713 152.1522 
L 86.194323 92.830396 
L 86.844934 105.898173 
L 87.495544 171.949513 
L 88.146154 171.776015 
L 88.796764 164.710555 
L 89.447375 186.726438 
L 90.097985 173.197228 
L 90.748595 185.622691 
L 91.399206 253.645272 
L 92.049816 246.860363 
L 92.700426 191.499499 
L 93.351037 226.738201 
L 94.001647 278.90595 
L 94.652257 261.179547 
L 95.302868 257.554531 
L 95.953478 266.33652 
L 96.604088 238.69854 
L 97.254698 258.824394 
L 97.905309 295.488 
L 98.555919 265.358282 
L 99.206529 210.665573 
L 99.85714 250.621964 
L 100.50775 272.560326 
L 101.15836 235.413138 
L 101.808971 228.222169 
L 102.459581 215.12486 
L 103.110191 177.394421 
L 104.411412 229.322225 
L 105.062022 158.630716 
L 105.712633 118.253499 
L 106.363243 162.617496 
L 107.013853 161.594961 
L 107.664463 123.414163 
L 108.315074 122.539287 
L 109.616294 74.424764 
L 110.266905 119.324023 
L 110.917515 128.966123 
L 111.568125 57.122878 
L 112.218736 53.568 
L 112.869346 107.193877 
L 113.519956 100.102577 
L 114.170567 81.43116 
L 114.821177 95.779875 
L 115.471787 77.507135 
L 116.122398 80.862674 
L 116.773008 145.622002 
L 117.423618 143.503103 
L 118.074228 86.517995 
L 118.724839 118.486061 
L 119.375449 177.545771 
L 120.026059 167.626811 
L 120.67667 168.505379 
L 121.32728 187.368753 
L 121.97789 170.044719 
L 122.628501 196.652781 
L 123.279111 261.079877 
L 123.929721 235.450053 
L 124.580332 189.919553 
L 125.230942 239.805978 
L 125.881552 279.754986 
L 126.532163 256.952822 
L 127.182773 260.921144 
L 127.833383 262.969906 
L 128.483993 236.103442 
L 129.134604 269.913547 
L 129.785214 295.488 
L 131.086435 211.880064 
L 131.737045 260.234532 
L 132.387655 267.621149 
L 133.038266 230.721289 
L 133.688876 229.019525 
L 134.339486 207.686563 
L 134.990097 176.202078 
L 135.640707 213.692572 
L 136.291317 222.581614 
L 136.941927 144.019908 
L 137.592538 122.985954 
L 138.243148 168.771164 
L 138.893758 154.016388 
L 139.544369 120.852288 
L 140.194979 122.11846 
L 140.845589 92.291442 
L 141.4962 77.902121 
L 142.14681 128.320117 
L 142.79742 118.851516 
L 143.448031 53.568 
L 144.098641 61.460347 
L 144.749251 111.734376 
L 145.399862 94.100259 
L 146.050472 83.291657 
L 146.701082 95.698662 
L 147.351692 72.970327 
L 148.002303 90.46786 
L 148.652913 153.698922 
L 149.303523 132.528385 
L 149.954134 83.945046 
L 151.255354 180.155635 
L 151.905965 164.197442 
L 152.556575 173.167696 
L 153.207185 186.209633 
L 153.857796 168.653037 
L 154.508406 209.462156 
L 155.159016 264.789797 
L 155.809627 223.209163 
L 156.460237 192.341153 
L 157.110847 252.290505 
L 157.761457 277.979393 
L 158.412068 254.165768 
L 159.062678 264.217621 
L 159.713288 258.104558 
L 160.363899 236.077601 
L 161.014509 281.430911 
L 161.665119 295.488 
L 162.31573 237.018924 
L 162.96634 216.719572 
L 163.61695 267.953381 
L 164.267561 260.932219 
L 164.918171 227.808725 
L 165.568781 228.882941 
L 166.219392 199.557962 
L 166.870002 178.003512 
L 167.520612 222.205085 
L 168.171222 212.160615 
L 168.821833 131.841772 
L 169.472443 130.427942 
L 170.123053 172.21899 
L 171.424274 119.955263 
L 172.074884 120.169368 
L 172.725495 84.982347 
L 173.376105 84.240363 
L 174.026715 134.894612 
L 174.677326 106.108587 
L 175.327936 53.568 
L 175.978546 72.719308 
L 176.629156 113.306939 
L 177.279767 88.633203 
L 177.930377 86.248518 
L 178.580987 93.84924 
L 179.231598 69.995008 
L 179.882208 102.169796 
L 180.532818 158.276336 
L 181.834039 85.421631 
L 182.484649 145.444812 
L 183.13526 180.044891 
L 183.78587 162.111766 
L 184.43648 178.021969 
L 185.087091 183.463185 
L 185.737701 169.697721 
L 186.388311 223.072579 
L 187.038921 264.453874 
L 187.689532 211.429706 
L 188.340142 198.550193 
L 188.990752 263.158171 
L 189.641363 274.21041 
L 190.291973 253.102627 
L 190.942583 266.757347 
L 192.243804 238.971708 
L 192.894414 292.224747 
L 193.545025 295.488 
L 194.195635 225.324371 
L 194.846245 224.4901 
L 195.496856 273.069748 
L 196.147466 253.320423 
L 196.798076 226.58316 
L 197.448686 227.284537 
L 198.099297 191.543797 
L 198.749907 182.710127 
L 199.400517 228.558092 
L 200.051128 198.775372 
L 200.701738 122.989645 
L 201.352348 139.549546 
L 202.002959 172.680423 
L 202.653569 137.932686 
L 203.304179 120.309643 
L 203.95479 116.459448 
L 204.6054 78.972645 
L 205.25601 92.907917 
L 205.906621 138.191088 
L 206.557231 91.83001 
L 207.207841 53.568 
L 208.509062 112.081373 
L 209.159672 84.376947 
L 209.810282 89.663121 
L 210.460893 90.371882 
L 211.111503 69.323162 
L 212.412724 158.926033 
L 213.063334 108.352996 
L 213.713944 90.848081 
L 214.364555 157.571267 
L 215.015165 177.778333 
L 215.665775 161.742619 
L 216.316385 182.374204 
L 216.966996 179.627756 
L 217.617606 173.618054 
L 218.268216 236.35077 
L 218.918827 260.157012 
L 219.569437 201.355704 
L 220.220047 207.948656 
L 220.870658 271.607929 
L 221.521268 269.245393 
L 222.171878 253.774473 
L 222.822489 267.957072 
L 223.473099 246.325101 
L 224.123709 244.800527 
L 224.77432 295.488 
L 225.42493 286.687553 
L 226.07554 216.660508 
L 226.72615 234.23187 
L 227.376761 275.192339 
L 228.027371 245.656947 
L 228.677981 226.701286 
L 229.328592 223.910541 
L 229.979202 184.507869 
L 230.629812 189.890022 
L 231.280423 231.817653 
L 231.931033 183.441036 
L 232.581643 118.020937 
L 233.232254 149.202721 
L 233.882864 170.221909 
L 234.533474 131.014885 
L 235.834695 111.029306 
L 236.485305 75.052312 
L 237.135915 103.066822 
L 237.786526 137.659518 
L 238.437136 77.278264 
L 239.087746 53.568 
L 239.738357 94.742574 
L 240.388967 108.530186 
L 241.039577 81.792923 
L 241.690188 92.834087 
L 242.340798 85.668959 
L 242.991408 71.471593 
L 243.642019 128.013726 
L 244.292629 155.600026 
L 244.943239 97.714201 
L 245.59385 99.744505 
L 246.24446 167.560364 
L 246.89507 174.105328 
L 247.54568 163.185981 
L 248.196291 185.600542 
L 248.846901 175.404722 
L 249.497511 180.543238 
L 250.148122 248.13761 
L 250.798732 252.382791 
L 251.449342 194.057683 
L 252.099953 219.64321 
L 252.750563 277.152505 
L 253.401173 263.955527 
L 254.051784 255.908138 
L 254.702394 267.432884 
L 255.353004 241.031544 
L 256.003615 253.239211 
L 256.654225 295.488 
L 257.304835 273.350299 
L 257.955445 211.699182 
L 259.256666 274.280547 
L 259.907276 238.716997 
L 260.557887 227.616769 
L 261.208497 218.720344 
L 261.859107 179.269684 
L 262.509718 198.797521 
L 263.160328 231.33038 
L 263.810938 167.383174 
L 264.461549 117.094379 
L 265.112159 158.239421 
L 265.762769 165.231051 
L 266.413379 125.629041 
L 267.06399 122.277193 
L 267.7146 104.214867 
L 268.36521 73.815672 
L 269.015821 113.665011 
L 269.666431 133.133784 
L 270.317041 63.749054 
L 270.967652 53.568 
L 271.618262 103.435968 
L 272.268872 103.362139 
L 272.919483 81.062013 
L 273.570093 95.104337 
L 274.220703 80.393859 
L 274.871314 76.676556 
L 275.521924 139.900235 
L 276.172534 148.660076 
L 276.823144 89.600366 
L 277.473755 111.295092 
L 278.124365 174.810397 
L 278.774975 169.889677 
L 279.425586 166.253587 
L 280.076196 187.23586 
L 280.726806 171.628356 
L 281.377417 190.251785 
L 282.028027 257.373649 
L 282.678637 241.972867 
L 283.329248 190.303465 
L 284.630468 279.63686 
L 285.281079 259.152934 
L 285.931689 259.012658 
L 286.582299 265.051891 
L 287.232909 237.262561 
L 287.88352 263.630678 
L 288.53413 295.488 
L 289.18474 258.850234 
L 289.835351 210.724636 
L 290.485961 255.070176 
L 291.136571 270.629691 
L 291.787182 233.117048 
L 292.437792 228.650379 
L 293.088402 211.950202 
L 293.739013 176.504778 
L 294.389623 208.43593 
L 295.040233 226.81203 
L 295.690844 151.908563 
L 296.341454 119.966337 
L 296.992064 165.65557 
L 297.642674 158.353857 
L 298.293285 122.052014 
L 298.943895 122.513447 
L 299.594505 96.595688 
L 300.245116 75.594957 
L 300.895726 123.554439 
L 301.546336 124.857525 
L 302.196947 53.568 
L 302.847557 55.723814 
L 303.498167 109.57487 
L 304.148778 97.418884 
L 304.799388 82.08824 
L 305.449998 95.957065 
L 306.100608 75.351321 
L 306.751219 84.827305 
L 307.401829 149.601399 
L 308.052439 138.848168 
L 308.70305 84.886369 
L 309.35366 124.46623 
L 310.00427 179.066653 
L 310.654881 165.973035 
L 311.305491 170.509843 
L 311.956101 187.069744 
L 312.606712 169.162459 
L 313.257322 202.1789 
L 313.907932 263.217234 
L 314.558543 230.034677 
L 315.209153 190.502804 
L 315.859763 245.494522 
L 316.510373 279.256639 
L 317.160984 255.513152 
L 317.811594 262.434644 
L 318.462204 260.961751 
L 319.112815 235.749061 
L 319.763425 275.048372 
L 320.414035 295.488 
L 321.064646 244.475679 
L 321.715256 213.615051 
L 322.365866 263.948144 
L 323.016477 264.819329 
L 323.667087 229.207789 
L 324.317697 229.111811 
L 325.618918 176.630288 
L 326.269528 217.671969 
L 326.920138 218.373347 
L 327.570749 138.24646 
L 328.221359 126.016645 
L 328.871969 170.664884 
L 329.52258 150.406138 
L 330.17319 120.265346 
L 330.8238 121.46138 
L 331.474411 88.935903 
L 332.125021 80.390167 
L 332.775631 131.598136 
L 333.426242 113.454597 
L 334.076852 53.568 
L 334.727462 66.362609 
L 335.378073 112.797517 
L 336.028683 91.560533 
L 336.679293 84.506148 
L 337.329903 95.093263 
L 337.980514 71.405147 
L 338.631124 95.458717 
L 339.281734 156.198043 
L 339.932345 127.197913 
L 340.582955 84.096396 
L 341.233565 138.09511 
L 341.884176 180.414037 
L 342.534786 163.078929 
L 343.185396 175.341967 
L 343.836007 185.161258 
L 344.486617 168.782238 
L 345.787837 265.144178 
L 346.438448 217.838085 
L 347.089058 194.659391 
L 347.739668 257.373649 
L 348.390279 276.506499 
L 349.040889 253.471773 
L 349.691499 265.476409 
L 350.34211 255.598055 
L 350.99272 236.996775 
L 351.64333 286.388545 
L 352.293941 295.488 
L 352.944551 231.503879 
L 353.595161 219.864698 
L 354.245772 270.581702 
L 354.896382 257.609902 
L 355.546992 227.070433 
L 356.197602 228.37721 
L 356.848213 195.932946 
L 357.498823 179.753265 
L 358.149433 225.353902 
L 358.800044 206.523752 
L 359.450654 127.456315 
L 360.101264 134.340893 
L 360.751875 172.79855 
L 361.402485 142.248005 
L 362.053095 119.992178 
L 362.703706 118.740772 
L 363.354316 82.099314 
L 364.004926 87.850613 
L 364.655537 136.80679 
L 365.306147 99.877398 
L 365.956757 53.568 
L 366.607367 77.857824 
L 367.257978 113.085451 
L 367.908588 86.558601 
L 368.559198 87.750943 
L 369.209809 92.48709 
L 369.860419 69.374843 
L 370.511029 107.810351 
L 371.16164 159.062618 
L 371.81225 114.942257 
L 372.46286 87.367031 
L 373.113471 151.048452 
L 373.764081 179.262301 
L 374.414691 161.724162 
L 375.065302 180.059657 
L 375.715912 181.857399 
L 376.366522 171.070945 
L 377.017132 229.085971 
L 377.667743 263.014204 
L 378.318353 206.67141 
L 378.968963 202.381931 
L 379.619574 267.248311 
L 380.270184 272.098893 
L 380.920794 253.198605 
L 381.571405 267.484565 
L 382.222015 249.617886 
L 382.872625 241.208734 
L 383.523236 295.488 
L 384.173846 293.154996 
L 384.824456 221.049657 
L 385.475066 228.642996 
L 386.125677 274.391291 
L 387.426897 226.498256 
L 388.077508 226.014674 
L 388.728118 188.243629 
L 389.378728 185.633765 
L 390.029339 230.433355 
L 390.679949 192.130739 
L 391.330559 120.283803 
L 391.98117 143.842717 
L 392.63178 171.931056 
L 393.28239 134.698965 
L 393.933001 120.715704 
L 394.583611 114.24457 
L 395.234221 76.931267 
L 395.884831 97.297066 
L 396.535442 138.445799 
L 397.186052 85.31827 
L 397.836662 53.568 
L 398.487273 89.050338 
L 398.487273 89.050338 
" clip-path="url(#p17811a822b)" style="fill: none; stroke: #0000ff; stroke-opacity: 0.5; stroke-width: 1.5; stroke-linecap: square"/>
   </g>
   <g id="line2d_28">
    <path d="M 73.832727 174.526154 
L 75.784558 174.526154 
L 77.085779 53.568 
L 90.748595 53.568 
L 91.399206 85.429014 
L 92.049816 159.01832 
L 92.700426 175.216458 
L 93.351037 197.549806 
L 94.001647 285.380775 
L 94.652257 295.488 
L 107.664463 295.488 
L 108.315074 225.660294 
L 108.965684 73.07738 
L 109.616294 53.568 
L 122.628501 53.568 
L 123.929721 164.548131 
L 124.580332 176.789021 
L 125.230942 207.354331 
L 125.881552 295.488 
L 139.544369 295.488 
L 140.194979 197.250798 
L 140.845589 53.568 
L 154.508406 53.568 
L 155.159016 121.298955 
L 155.809627 168.464773 
L 156.460237 178.974367 
L 157.110847 219.724422 
L 157.761457 295.488 
L 171.424274 295.488 
L 172.725495 53.568 
L 186.388311 53.568 
L 187.038921 135.149323 
L 187.689532 171.144775 
L 188.340142 182.149024 
L 189.641363 295.488 
L 202.653569 295.488 
L 203.304179 287.735929 
L 203.95479 139.006901 
L 204.6054 53.568 
L 218.268216 53.568 
L 218.918827 146.356603 
L 219.569437 173.008963 
L 220.220047 186.733821 
L 220.870658 252.585822 
L 221.521268 295.488 
L 234.533474 295.488 
L 235.184085 265.797566 
L 235.834695 111.313549 
L 236.485305 53.568 
L 249.497511 53.568 
L 250.148122 73.631099 
L 250.798732 155.112753 
L 252.099953 193.108977 
L 252.750563 273.003301 
L 253.401173 295.488 
L 266.413379 295.488 
L 267.06399 240.688238 
L 267.7146 85.894138 
L 268.36521 53.568 
L 281.377417 53.568 
L 282.028027 94.318055 
L 282.678637 161.702013 
L 283.329248 175.866155 
L 283.979858 201.603032 
L 284.630468 295.488 
L 298.293285 295.488 
L 298.943895 213.212682 
L 299.594505 63.586629 
L 300.245116 53.568 
L 313.257322 53.568 
L 314.558543 166.471383 
L 315.209153 177.663897 
L 315.859763 212.522379 
L 316.510373 295.488 
L 330.17319 295.488 
L 330.8238 184.297456 
L 331.474411 53.568 
L 345.137227 53.568 
L 345.787837 127.792238 
L 346.438448 169.786316 
L 347.089058 180.236847 
L 347.739668 226.077429 
L 348.390279 295.488 
L 362.053095 295.488 
L 362.703706 155.024157 
L 363.354316 53.568 
L 377.017132 53.568 
L 377.667743 140.450263 
L 378.318353 172.056566 
L 378.968963 183.998447 
L 380.270184 295.488 
L 393.28239 295.488 
L 393.933001 278.414986 
L 394.583611 126.474386 
L 395.234221 53.568 
L 398.487273 53.568 
L 398.487273 53.568 
" clip-path="url(#p17811a822b)" style="fill: none; stroke: #ff0000; stroke-opacity: 0.5; stroke-width: 1.5; stroke-linecap: square"/>
   </g>
   <g id="patch_3">
    <path d="M 57.6 307.584 
L 57.6 41.472 
" style="fill: none; stroke: #000000; stroke-width: 0.8; stroke-linejoin: miter; stroke-linecap: square"/>
   </g>
   <g id="patch_4">
    <path d="M 414.72 307.584 
L 414.72 41.472 
" style="fill: none; stroke: #000000; stroke-width: 0.8; stroke-linejoin: miter; stroke-linecap: square"/>
   </g>
   <g id="patch_5">
    <path d="M 57.6 307.584 
L 414.72 307.584 
" style="fill: none; stroke: #000000; stroke-width: 0.8; stroke-linejoin: miter; stroke-linecap: square"/>
   </g>
   <g id="patch_6">
    <path d="M 57.6 41.472 
L 414.72 41.472 
" style="fill: none; stroke: #000000; stroke-width: 0.8; stroke-linejoin: miter; stroke-linecap: square"/>
   </g>
   <g id="text_16">
    <!-- Input vs Output signals (Left) -->
    <g transform="translate(148.633125 35.472) scale(0.12 -0.12)">
     <defs>
      <path id="DejaVuSans-49" d="M 628 4666 
L 1259 4666 
L 1259 0 
L 628 0 
L 628 4666 
z
" transform="scale(0.015625)"/>
      <path id="DejaVuSans-6e" d="M 3513 2113 
L 3513 0 
L 2938 0 
L 2938 2094 
Q 2938 2591 2744 2837 
Q 2550 3084 2163 3084 
Q 1697 3084 1428 2787 
Q 1159 2491 1159 1978 
L 1159 0 
L 581 0 
L 581 3500 
L 1159 3500 
L 1159 2956 
Q 1366 3272 1645 3428 
Q 1925 3584 2291 3584 
Q 2894 3584 3203 3211 
Q 3513 2838 3513 2113 
z
" transform="scale(0.015625)"/>
      <path id="DejaVuSans-20" transform="scale(0.015625)"/>
      <path id="DejaVuSans-76" d="M 191 3500 
L 800 3500 
L 1894 563 
L 2988 3500 
L 3597 3500 
L 2284 0 
L 1503 0 
L 191 3500 
z
" transform="scale(0.015625)"/>
      <path id="DejaVuSans-4f" d="M 2522 4238 
Q 1834 4238 1429 3725 
Q 1025 3213 1025 2328 
Q 1025 1447 1429 934 
Q 1834 422 2522 422 
Q 3209 422 3611 934 
Q 4013 1447 4013 2328 
Q 4013 3213 3611 3725 
Q 3209 4238 2522 4238 
z
M 2522 4750 
Q 3503 4750 4090 4092 
Q 4678 3434 4678 2328 
Q 4678 1225 4090 567 
Q 3503 -91 2522 -91 
Q 1538 -91 948 565 
Q 359 1222 359 2328 
Q 359 3434 948 4092 
Q 1538 4750 2522 4750 
z
" transform="scale(0.015625)"/>
      <path id="DejaVuSans-67" d="M 2906 1791 
Q 2906 2416 2648 2759 
Q 2391 3103 1925 3103 
Q 1463 3103 1205 2759 
Q 947 2416 947 1791 
Q 947 1169 1205 825 
Q 1463 481 1925 481 
Q 2391 481 2648 825 
Q 2906 1169 2906 1791 
z
M 3481 434 
Q 3481 -459 3084 -895 
Q 2688 -1331 1869 -1331 
Q 1566 -1331 1297 -1286 
Q 1028 -1241 775 -1147 
L 775 -588 
Q 1028 -725 1275 -790 
Q 1522 -856 1778 -856 
Q 2344 -856 2625 -561 
Q 2906 -266 2906 331 
L 2906 616 
Q 2728 306 2450 153 
Q 2172 0 1784 0 
Q 1141 0 747 490 
Q 353 981 353 1791 
Q 353 2603 747 3093 
Q 1141 3584 1784 3584 
Q 2172 3584 2450 3431 
Q 2728 3278 2906 2969 
L 2906 3500 
L 3481 3500 
L 3481 434 
z
" transform="scale(0.015625)"/>
      <path id="DejaVuSans-28" d="M 1984 4856 
Q 1566 4138 1362 3434 
Q 1159 2731 1159 2009 
Q 1159 1288 1364 580 
Q 1569 -128 1984 -844 
L 1484 -844 
Q 1016 -109 783 600 
Q 550 1309 550 2009 
Q 550 2706 781 3412 
Q 1013 4119 1484 4856 
L 1984 4856 
z
" transform="scale(0.015625)"/>
      <path id="DejaVuSans-4c" d="M 628 4666 
L 1259 4666 
L 1259 531 
L 3531 531 
L 3531 0 
L 628 0 
L 628 4666 
z
" transform="scale(0.015625)"/>
      <path id="DejaVuSans-66" d="M 2375 4863 
L 2375 4384 
L 1825 4384 
Q 1516 4384 1395 4259 
Q 1275 4134 1275 3809 
L 1275 3500 
L 2222 3500 
L 2222 3053 
L 1275 3053 
L 1275 0 
L 697 0 
L 697 3053 
L 147 3053 
L 147 3500 
L 697 3500 
L 697 3744 
Q 697 4328 969 4595 
Q 1241 4863 1831 4863 
L 2375 4863 
z
" transform="scale(0.015625)"/>
      <path id="DejaVuSans-29" d="M 513 4856 
L 1013 4856 
Q 1481 4119 1714 3412 
Q 1947 2706 1947 2009 
Q 1947 1309 1714 600 
Q 1481 -109 1013 -844 
L 513 -844 
Q 928 -128 1133 580 
Q 1338 1288 1338 2009 
Q 1338 2731 1133 3434 
Q 928 4138 513 4856 
z
" transform="scale(0.015625)"/>
     </defs>
     <use xlink:href="#DejaVuSans-49"/>
     <use xlink:href="#DejaVuSans-6e" x="29.492188"/>
     <use xlink:href="#DejaVuSans-70" x="92.871094"/>
     <use xlink:href="#DejaVuSans-75" x="156.347656"/>
     <use xlink:href="#DejaVuSans-74" x="219.726562"/>
     <use xlink:href="#DejaVuSans-20" x="258.935547"/>
     <use xlink:href="#DejaVuSans-76" x="290.722656"/>
     <use xlink:href="#DejaVuSans-73" x="349.902344"/>
     <use xlink:href="#DejaVuSans-20" x="402.001953"/>
     <use xlink:href="#DejaVuSans-4f" x="433.789062"/>
     <use xlink:href="#DejaVuSans-75" x="512.5"/>
     <use xlink:href="#DejaVuSans-74" x="575.878906"/>
     <use xlink:href="#DejaVuSans-70" x="615.087891"/>
     <use xlink:href="#DejaVuSans-75" x="678.564453"/>
     <use xlink:href="#DejaVuSans-74" x="741.943359"/>
     <use xlink:href="#DejaVuSans-20" x="781.152344"/>
     <use xlink:href="#DejaVuSans-73" x="812.939453"/>
     <use xlink:href="#DejaVuSans-69" x="865.039062"/>
     <use xlink:href="#DejaVuSans-67" x="892.822266"/>
     <use xlink:href="#DejaVuSans-6e" x="956.298828"/>
     <use xlink:href="#DejaVuSans-61" x="1019.677734"/>
     <use xlink:href="#DejaVuSans-6c" x="1080.957031"/>
     <use xlink:href="#DejaVuSans-73" x="1108.740234"/>
     <use xlink:href="#DejaVuSans-20" x="1160.839844"/>
     <use xlink:href="#DejaVuSans-28" x="1192.626953"/>
     <use xlink:href="#DejaVuSans-4c" x="1231.640625"/>
     <use xlink:href="#DejaVuSans-65" x="1285.603516"/>
     <use xlink:href="#DejaVuSans-66" x="1347.126953"/>
     <use xlink:href="#DejaVuSans-74" x="1380.582031"/>
     <use xlink:href="#DejaVuSans-29" x="1419.791016"/>
    </g>
   </g>
   <g id="legend_1">
    <g id="patch_7">
     <path d="M 340.984063 190.706125 
L 407.72 190.706125 
Q 409.72 190.706125 409.72 188.706125 
L 409.72 160.349875 
Q 409.72 158.349875 407.72 158.349875 
L 340.984063 158.349875 
Q 338.984063 158.349875 338.984063 160.349875 
L 338.984063 188.706125 
Q 338.984063 190.706125 340.984063 190.706125 
z
" style="fill: #ffffff; opacity: 0.8; stroke: #cccccc; stroke-linejoin: miter"/>
    </g>
    <g id="line2d_29">
     <path d="M 342.984063 166.448312 
L 352.984063 166.448312 
L 362.984063 166.448312 
" style="fill: none; stroke: #0000ff; stroke-opacity: 0.5; stroke-width: 1.5; stroke-linecap: square"/>
    </g>
    <g id="text_17">
     <!-- Input -->
     <g transform="translate(370.984063 169.948312) scale(0.1 -0.1)">
      <use xlink:href="#DejaVuSans-49"/>
      <use xlink:href="#DejaVuSans-6e" x="29.492188"/>
      <use xlink:href="#DejaVuSans-70" x="92.871094"/>
      <use xlink:href="#DejaVuSans-75" x="156.347656"/>
      <use xlink:href="#DejaVuSans-74" x="219.726562"/>
     </g>
    </g>
    <g id="line2d_30">
     <path d="M 342.984063 181.126437 
L 352.984063 181.126437 
L 362.984063 181.126437 
" style="fill: none; stroke: #ff0000; stroke-opacity: 0.5; stroke-width: 1.5; stroke-linecap: square"/>
    </g>
    <g id="text_18">
     <!-- Output -->
     <g transform="translate(370.984063 184.626437) scale(0.1 -0.1)">
      <use xlink:href="#DejaVuSans-4f"/>
      <use xlink:href="#DejaVuSans-75" x="78.710938"/>
      <use xlink:href="#DejaVuSans-74" x="142.089844"/>
      <use xlink:href="#DejaVuSans-70" x="181.298828"/>
      <use xlink:href="#DejaVuSans-75" x="244.775391"/>
      <use xlink:href="#DejaVuSans-74" x="308.154297"/>
     </g>
    </g>
   </g>
  </g>
 </g>
 <defs>
  <clipPath id="p17811a822b">
   <rect x="57.6" y="41.472" width="357.12" height="266.112"/>
  </clipPath>
 </defs>
</svg>
