<?xml version="1.0" encoding="utf-8" standalone="no"?>
<!DOCTYPE svg PUBLIC "-//W3C//DTD SVG 1.1//EN"
  "http://www.w3.org/Graphics/SVG/1.1/DTD/svg11.dtd">
<svg xmlns:xlink="http://www.w3.org/1999/xlink" width="460.8pt" height="345.6pt" viewBox="0 0 460.8 345.6" xmlns="http://www.w3.org/2000/svg" version="1.1">
 <metadata>
  <rdf:RDF xmlns:dc="http://purl.org/dc/elements/1.1/" xmlns:cc="http://creativecommons.org/ns#" xmlns:rdf="http://www.w3.org/1999/02/22-rdf-syntax-ns#">
   <cc:Work>
    <dc:type rdf:resource="http://purl.org/dc/dcmitype/StillImage"/>
    <dc:date>2025-08-21T15:03:44.435666</dc:date>
    <dc:format>image/svg+xml</dc:format>
    <dc:creator>
     <cc:Agent>
      <dc:title>Matplotlib v3.7.2, https://matplotlib.org/</dc:title>
     </cc:Agent>
    </dc:creator>
   </cc:Work>
  </rdf:RDF>
 </metadata>
 <defs>
  <style type="text/css">*{stroke-linejoin: round; stroke-linecap: butt}</style>
 </defs>
 <g id="figure_1">
  <g id="patch_1">
   <path d="M 0 345.6 
L 460.8 345.6 
L 460.8 0 
L 0 0 
z
" style="fill: #ffffff"/>
  </g>
  <g id="axes_1">
   <g id="patch_2">
    <path d="M 57.6 307.584 
L 414.72 307.584 
L 414.72 41.472 
L 57.6 41.472 
z
" style="fill: #ffffff"/>
   </g>
   <g id="matplotlib.axis_1">
    <g id="xtick_1">
     <g id="line2d_1">
      <path d="M 73.832727 307.584 
L 73.832727 41.472 
" clip-path="url(#pffcb5b74a2)" style="fill: none; stroke: #b0b0b0; stroke-width: 0.8; stroke-linecap: square"/>
     </g>
     <g id="line2d_2">
      <defs>
       <path id="m507d42bca2" d="M 0 0 
L 0 3.5 
" style="stroke: #000000; stroke-width: 0.8"/>
      </defs>
      <g>
       <use xlink:href="#m507d42bca2" x="73.832727" y="307.584" style="stroke: #000000; stroke-width: 0.8"/>
      </g>
     </g>
     <g id="text_1">
      <!-- 0 -->
      <g transform="translate(70.651477 322.182437) scale(0.1 -0.1)">
       <defs>
        <path id="DejaVuSans-30" d="M 2034 4250 
Q 1547 4250 1301 3770 
Q 1056 3291 1056 2328 
Q 1056 1369 1301 889 
Q 1547 409 2034 409 
Q 2525 409 2770 889 
Q 3016 1369 3016 2328 
Q 3016 3291 2770 3770 
Q 2525 4250 2034 4250 
z
M 2034 4750 
Q 2819 4750 3233 4129 
Q 3647 3509 3647 2328 
Q 3647 1150 3233 529 
Q 2819 -91 2034 -91 
Q 1250 -91 836 529 
Q 422 1150 422 2328 
Q 422 3509 836 4129 
Q 1250 4750 2034 4750 
z
" transform="scale(0.015625)"/>
       </defs>
       <use xlink:href="#DejaVuSans-30"/>
      </g>
     </g>
    </g>
    <g id="xtick_2">
     <g id="line2d_3">
      <path d="M 138.893758 307.584 
L 138.893758 41.472 
" clip-path="url(#pffcb5b74a2)" style="fill: none; stroke: #b0b0b0; stroke-width: 0.8; stroke-linecap: square"/>
     </g>
     <g id="line2d_4">
      <g>
       <use xlink:href="#m507d42bca2" x="138.893758" y="307.584" style="stroke: #000000; stroke-width: 0.8"/>
      </g>
     </g>
     <g id="text_2">
      <!-- 100 -->
      <g transform="translate(129.350008 322.182437) scale(0.1 -0.1)">
       <defs>
        <path id="DejaVuSans-31" d="M 794 531 
L 1825 531 
L 1825 4091 
L 703 3866 
L 703 4441 
L 1819 4666 
L 2450 4666 
L 2450 531 
L 3481 531 
L 3481 0 
L 794 0 
L 794 531 
z
" transform="scale(0.015625)"/>
       </defs>
       <use xlink:href="#DejaVuSans-31"/>
       <use xlink:href="#DejaVuSans-30" x="63.623047"/>
       <use xlink:href="#DejaVuSans-30" x="127.246094"/>
      </g>
     </g>
    </g>
    <g id="xtick_3">
     <g id="line2d_5">
      <path d="M 203.95479 307.584 
L 203.95479 41.472 
" clip-path="url(#pffcb5b74a2)" style="fill: none; stroke: #b0b0b0; stroke-width: 0.8; stroke-linecap: square"/>
     </g>
     <g id="line2d_6">
      <g>
       <use xlink:href="#m507d42bca2" x="203.95479" y="307.584" style="stroke: #000000; stroke-width: 0.8"/>
      </g>
     </g>
     <g id="text_3">
      <!-- 200 -->
      <g transform="translate(194.41104 322.182437) scale(0.1 -0.1)">
       <defs>
        <path id="DejaVuSans-32" d="M 1228 531 
L 3431 531 
L 3431 0 
L 469 0 
L 469 531 
Q 828 903 1448 1529 
Q 2069 2156 2228 2338 
Q 2531 2678 2651 2914 
Q 2772 3150 2772 3378 
Q 2772 3750 2511 3984 
Q 2250 4219 1831 4219 
Q 1534 4219 1204 4116 
Q 875 4013 500 3803 
L 500 4441 
Q 881 4594 1212 4672 
Q 1544 4750 1819 4750 
Q 2544 4750 2975 4387 
Q 3406 4025 3406 3419 
Q 3406 3131 3298 2873 
Q 3191 2616 2906 2266 
Q 2828 2175 2409 1742 
Q 1991 1309 1228 531 
z
" transform="scale(0.015625)"/>
       </defs>
       <use xlink:href="#DejaVuSans-32"/>
       <use xlink:href="#DejaVuSans-30" x="63.623047"/>
       <use xlink:href="#DejaVuSans-30" x="127.246094"/>
      </g>
     </g>
    </g>
    <g id="xtick_4">
     <g id="line2d_7">
      <path d="M 269.015821 307.584 
L 269.015821 41.472 
" clip-path="url(#pffcb5b74a2)" style="fill: none; stroke: #b0b0b0; stroke-width: 0.8; stroke-linecap: square"/>
     </g>
     <g id="line2d_8">
      <g>
       <use xlink:href="#m507d42bca2" x="269.015821" y="307.584" style="stroke: #000000; stroke-width: 0.8"/>
      </g>
     </g>
     <g id="text_4">
      <!-- 300 -->
      <g transform="translate(259.472071 322.182437) scale(0.1 -0.1)">
       <defs>
        <path id="DejaVuSans-33" d="M 2597 2516 
Q 3050 2419 3304 2112 
Q 3559 1806 3559 1356 
Q 3559 666 3084 287 
Q 2609 -91 1734 -91 
Q 1441 -91 1130 -33 
Q 819 25 488 141 
L 488 750 
Q 750 597 1062 519 
Q 1375 441 1716 441 
Q 2309 441 2620 675 
Q 2931 909 2931 1356 
Q 2931 1769 2642 2001 
Q 2353 2234 1838 2234 
L 1294 2234 
L 1294 2753 
L 1863 2753 
Q 2328 2753 2575 2939 
Q 2822 3125 2822 3475 
Q 2822 3834 2567 4026 
Q 2313 4219 1838 4219 
Q 1578 4219 1281 4162 
Q 984 4106 628 3988 
L 628 4550 
Q 988 4650 1302 4700 
Q 1616 4750 1894 4750 
Q 2613 4750 3031 4423 
Q 3450 4097 3450 3541 
Q 3450 3153 3228 2886 
Q 3006 2619 2597 2516 
z
" transform="scale(0.015625)"/>
       </defs>
       <use xlink:href="#DejaVuSans-33"/>
       <use xlink:href="#DejaVuSans-30" x="63.623047"/>
       <use xlink:href="#DejaVuSans-30" x="127.246094"/>
      </g>
     </g>
    </g>
    <g id="xtick_5">
     <g id="line2d_9">
      <path d="M 334.076852 307.584 
L 334.076852 41.472 
" clip-path="url(#pffcb5b74a2)" style="fill: none; stroke: #b0b0b0; stroke-width: 0.8; stroke-linecap: square"/>
     </g>
     <g id="line2d_10">
      <g>
       <use xlink:href="#m507d42bca2" x="334.076852" y="307.584" style="stroke: #000000; stroke-width: 0.8"/>
      </g>
     </g>
     <g id="text_5">
      <!-- 400 -->
      <g transform="translate(324.533102 322.182437) scale(0.1 -0.1)">
       <defs>
        <path id="DejaVuSans-34" d="M 2419 4116 
L 825 1625 
L 2419 1625 
L 2419 4116 
z
M 2253 4666 
L 3047 4666 
L 3047 1625 
L 3713 1625 
L 3713 1100 
L 3047 1100 
L 3047 0 
L 2419 0 
L 2419 1100 
L 313 1100 
L 313 1709 
L 2253 4666 
z
" transform="scale(0.015625)"/>
       </defs>
       <use xlink:href="#DejaVuSans-34"/>
       <use xlink:href="#DejaVuSans-30" x="63.623047"/>
       <use xlink:href="#DejaVuSans-30" x="127.246094"/>
      </g>
     </g>
    </g>
    <g id="xtick_6">
     <g id="line2d_11">
      <path d="M 399.137883 307.584 
L 399.137883 41.472 
" clip-path="url(#pffcb5b74a2)" style="fill: none; stroke: #b0b0b0; stroke-width: 0.8; stroke-linecap: square"/>
     </g>
     <g id="line2d_12">
      <g>
       <use xlink:href="#m507d42bca2" x="399.137883" y="307.584" style="stroke: #000000; stroke-width: 0.8"/>
      </g>
     </g>
     <g id="text_6">
      <!-- 500 -->
      <g transform="translate(389.594133 322.182437) scale(0.1 -0.1)">
       <defs>
        <path id="DejaVuSans-35" d="M 691 4666 
L 3169 4666 
L 3169 4134 
L 1269 4134 
L 1269 2991 
Q 1406 3038 1543 3061 
Q 1681 3084 1819 3084 
Q 2600 3084 3056 2656 
Q 3513 2228 3513 1497 
Q 3513 744 3044 326 
Q 2575 -91 1722 -91 
Q 1428 -91 1123 -41 
Q 819 9 494 109 
L 494 744 
Q 775 591 1075 516 
Q 1375 441 1709 441 
Q 2250 441 2565 725 
Q 2881 1009 2881 1497 
Q 2881 1984 2565 2268 
Q 2250 2553 1709 2553 
Q 1456 2553 1204 2497 
Q 953 2441 691 2322 
L 691 4666 
z
" transform="scale(0.015625)"/>
       </defs>
       <use xlink:href="#DejaVuSans-35"/>
       <use xlink:href="#DejaVuSans-30" x="63.623047"/>
       <use xlink:href="#DejaVuSans-30" x="127.246094"/>
      </g>
     </g>
    </g>
    <g id="text_7">
     <!-- Samples -->
     <g transform="translate(214.806875 335.860562) scale(0.1 -0.1)">
      <defs>
       <path id="DejaVuSans-53" d="M 3425 4513 
L 3425 3897 
Q 3066 4069 2747 4153 
Q 2428 4238 2131 4238 
Q 1616 4238 1336 4038 
Q 1056 3838 1056 3469 
Q 1056 3159 1242 3001 
Q 1428 2844 1947 2747 
L 2328 2669 
Q 3034 2534 3370 2195 
Q 3706 1856 3706 1288 
Q 3706 609 3251 259 
Q 2797 -91 1919 -91 
Q 1588 -91 1214 -16 
Q 841 59 441 206 
L 441 856 
Q 825 641 1194 531 
Q 1563 422 1919 422 
Q 2459 422 2753 634 
Q 3047 847 3047 1241 
Q 3047 1584 2836 1778 
Q 2625 1972 2144 2069 
L 1759 2144 
Q 1053 2284 737 2584 
Q 422 2884 422 3419 
Q 422 4038 858 4394 
Q 1294 4750 2059 4750 
Q 2388 4750 2728 4690 
Q 3069 4631 3425 4513 
z
" transform="scale(0.015625)"/>
       <path id="DejaVuSans-61" d="M 2194 1759 
Q 1497 1759 1228 1600 
Q 959 1441 959 1056 
Q 959 750 1161 570 
Q 1363 391 1709 391 
Q 2188 391 2477 730 
Q 2766 1069 2766 1631 
L 2766 1759 
L 2194 1759 
z
M 3341 1997 
L 3341 0 
L 2766 0 
L 2766 531 
Q 2569 213 2275 61 
Q 1981 -91 1556 -91 
Q 1019 -91 701 211 
Q 384 513 384 1019 
Q 384 1609 779 1909 
Q 1175 2209 1959 2209 
L 2766 2209 
L 2766 2266 
Q 2766 2663 2505 2880 
Q 2244 3097 1772 3097 
Q 1472 3097 1187 3025 
Q 903 2953 641 2809 
L 641 3341 
Q 956 3463 1253 3523 
Q 1550 3584 1831 3584 
Q 2591 3584 2966 3190 
Q 3341 2797 3341 1997 
z
" transform="scale(0.015625)"/>
       <path id="DejaVuSans-6d" d="M 3328 2828 
Q 3544 3216 3844 3400 
Q 4144 3584 4550 3584 
Q 5097 3584 5394 3201 
Q 5691 2819 5691 2113 
L 5691 0 
L 5113 0 
L 5113 2094 
Q 5113 2597 4934 2840 
Q 4756 3084 4391 3084 
Q 3944 3084 3684 2787 
Q 3425 2491 3425 1978 
L 3425 0 
L 2847 0 
L 2847 2094 
Q 2847 2600 2669 2842 
Q 2491 3084 2119 3084 
Q 1678 3084 1418 2786 
Q 1159 2488 1159 1978 
L 1159 0 
L 581 0 
L 581 3500 
L 1159 3500 
L 1159 2956 
Q 1356 3278 1631 3431 
Q 1906 3584 2284 3584 
Q 2666 3584 2933 3390 
Q 3200 3197 3328 2828 
z
" transform="scale(0.015625)"/>
       <path id="DejaVuSans-70" d="M 1159 525 
L 1159 -1331 
L 581 -1331 
L 581 3500 
L 1159 3500 
L 1159 2969 
Q 1341 3281 1617 3432 
Q 1894 3584 2278 3584 
Q 2916 3584 3314 3078 
Q 3713 2572 3713 1747 
Q 3713 922 3314 415 
Q 2916 -91 2278 -91 
Q 1894 -91 1617 61 
Q 1341 213 1159 525 
z
M 3116 1747 
Q 3116 2381 2855 2742 
Q 2594 3103 2138 3103 
Q 1681 3103 1420 2742 
Q 1159 2381 1159 1747 
Q 1159 1113 1420 752 
Q 1681 391 2138 391 
Q 2594 391 2855 752 
Q 3116 1113 3116 1747 
z
" transform="scale(0.015625)"/>
       <path id="DejaVuSans-6c" d="M 603 4863 
L 1178 4863 
L 1178 0 
L 603 0 
L 603 4863 
z
" transform="scale(0.015625)"/>
       <path id="DejaVuSans-65" d="M 3597 1894 
L 3597 1613 
L 953 1613 
Q 991 1019 1311 708 
Q 1631 397 2203 397 
Q 2534 397 2845 478 
Q 3156 559 3463 722 
L 3463 178 
Q 3153 47 2828 -22 
Q 2503 -91 2169 -91 
Q 1331 -91 842 396 
Q 353 884 353 1716 
Q 353 2575 817 3079 
Q 1281 3584 2069 3584 
Q 2775 3584 3186 3129 
Q 3597 2675 3597 1894 
z
M 3022 2063 
Q 3016 2534 2758 2815 
Q 2500 3097 2075 3097 
Q 1594 3097 1305 2825 
Q 1016 2553 972 2059 
L 3022 2063 
z
" transform="scale(0.015625)"/>
       <path id="DejaVuSans-73" d="M 2834 3397 
L 2834 2853 
Q 2591 2978 2328 3040 
Q 2066 3103 1784 3103 
Q 1356 3103 1142 2972 
Q 928 2841 928 2578 
Q 928 2378 1081 2264 
Q 1234 2150 1697 2047 
L 1894 2003 
Q 2506 1872 2764 1633 
Q 3022 1394 3022 966 
Q 3022 478 2636 193 
Q 2250 -91 1575 -91 
Q 1294 -91 989 -36 
Q 684 19 347 128 
L 347 722 
Q 666 556 975 473 
Q 1284 391 1588 391 
Q 1994 391 2212 530 
Q 2431 669 2431 922 
Q 2431 1156 2273 1281 
Q 2116 1406 1581 1522 
L 1381 1569 
Q 847 1681 609 1914 
Q 372 2147 372 2553 
Q 372 3047 722 3315 
Q 1072 3584 1716 3584 
Q 2034 3584 2315 3537 
Q 2597 3491 2834 3397 
z
" transform="scale(0.015625)"/>
      </defs>
      <use xlink:href="#DejaVuSans-53"/>
      <use xlink:href="#DejaVuSans-61" x="63.476562"/>
      <use xlink:href="#DejaVuSans-6d" x="124.755859"/>
      <use xlink:href="#DejaVuSans-70" x="222.167969"/>
      <use xlink:href="#DejaVuSans-6c" x="285.644531"/>
      <use xlink:href="#DejaVuSans-65" x="313.427734"/>
      <use xlink:href="#DejaVuSans-73" x="374.951172"/>
     </g>
    </g>
   </g>
   <g id="matplotlib.axis_2">
    <g id="ytick_1">
     <g id="line2d_13">
      <path d="M 57.6 285.754467 
L 414.72 285.754467 
" clip-path="url(#pffcb5b74a2)" style="fill: none; stroke: #b0b0b0; stroke-width: 0.8; stroke-linecap: square"/>
     </g>
     <g id="line2d_14">
      <defs>
       <path id="m6eecab29c2" d="M 0 0 
L -3.5 0 
" style="stroke: #000000; stroke-width: 0.8"/>
      </defs>
      <g>
       <use xlink:href="#m6eecab29c2" x="57.6" y="285.754467" style="stroke: #000000; stroke-width: 0.8"/>
      </g>
     </g>
     <g id="text_8">
      <!-- −4000 -->
      <g transform="translate(16.770313 289.553686) scale(0.1 -0.1)">
       <defs>
        <path id="DejaVuSans-2212" d="M 678 2272 
L 4684 2272 
L 4684 1741 
L 678 1741 
L 678 2272 
z
" transform="scale(0.015625)"/>
       </defs>
       <use xlink:href="#DejaVuSans-2212"/>
       <use xlink:href="#DejaVuSans-34" x="83.789062"/>
       <use xlink:href="#DejaVuSans-30" x="147.412109"/>
       <use xlink:href="#DejaVuSans-30" x="211.035156"/>
       <use xlink:href="#DejaVuSans-30" x="274.658203"/>
      </g>
     </g>
    </g>
    <g id="ytick_2">
     <g id="line2d_15">
      <path d="M 57.6 230.134281 
L 414.72 230.134281 
" clip-path="url(#pffcb5b74a2)" style="fill: none; stroke: #b0b0b0; stroke-width: 0.8; stroke-linecap: square"/>
     </g>
     <g id="line2d_16">
      <g>
       <use xlink:href="#m6eecab29c2" x="57.6" y="230.134281" style="stroke: #000000; stroke-width: 0.8"/>
      </g>
     </g>
     <g id="text_9">
      <!-- −2000 -->
      <g transform="translate(16.770313 233.9335) scale(0.1 -0.1)">
       <use xlink:href="#DejaVuSans-2212"/>
       <use xlink:href="#DejaVuSans-32" x="83.789062"/>
       <use xlink:href="#DejaVuSans-30" x="147.412109"/>
       <use xlink:href="#DejaVuSans-30" x="211.035156"/>
       <use xlink:href="#DejaVuSans-30" x="274.658203"/>
      </g>
     </g>
    </g>
    <g id="ytick_3">
     <g id="line2d_17">
      <path d="M 57.6 174.514095 
L 414.72 174.514095 
" clip-path="url(#pffcb5b74a2)" style="fill: none; stroke: #b0b0b0; stroke-width: 0.8; stroke-linecap: square"/>
     </g>
     <g id="line2d_18">
      <g>
       <use xlink:href="#m6eecab29c2" x="57.6" y="174.514095" style="stroke: #000000; stroke-width: 0.8"/>
      </g>
     </g>
     <g id="text_10">
      <!-- 0 -->
      <g transform="translate(44.2375 178.313314) scale(0.1 -0.1)">
       <use xlink:href="#DejaVuSans-30"/>
      </g>
     </g>
    </g>
    <g id="ytick_4">
     <g id="line2d_19">
      <path d="M 57.6 118.893909 
L 414.72 118.893909 
" clip-path="url(#pffcb5b74a2)" style="fill: none; stroke: #b0b0b0; stroke-width: 0.8; stroke-linecap: square"/>
     </g>
     <g id="line2d_20">
      <g>
       <use xlink:href="#m6eecab29c2" x="57.6" y="118.893909" style="stroke: #000000; stroke-width: 0.8"/>
      </g>
     </g>
     <g id="text_11">
      <!-- 2000 -->
      <g transform="translate(25.15 122.693127) scale(0.1 -0.1)">
       <use xlink:href="#DejaVuSans-32"/>
       <use xlink:href="#DejaVuSans-30" x="63.623047"/>
       <use xlink:href="#DejaVuSans-30" x="127.246094"/>
       <use xlink:href="#DejaVuSans-30" x="190.869141"/>
      </g>
     </g>
    </g>
    <g id="ytick_5">
     <g id="line2d_21">
      <path d="M 57.6 63.273722 
L 414.72 63.273722 
" clip-path="url(#pffcb5b74a2)" style="fill: none; stroke: #b0b0b0; stroke-width: 0.8; stroke-linecap: square"/>
     </g>
     <g id="line2d_22">
      <g>
       <use xlink:href="#m6eecab29c2" x="57.6" y="63.273722" style="stroke: #000000; stroke-width: 0.8"/>
      </g>
     </g>
     <g id="text_12">
      <!-- 4000 -->
      <g transform="translate(25.15 67.072941) scale(0.1 -0.1)">
       <use xlink:href="#DejaVuSans-34"/>
       <use xlink:href="#DejaVuSans-30" x="63.623047"/>
       <use xlink:href="#DejaVuSans-30" x="127.246094"/>
       <use xlink:href="#DejaVuSans-30" x="190.869141"/>
      </g>
     </g>
    </g>
    <g id="text_13">
     <!-- Amplitude -->
     <g transform="translate(10.690625 200.150656) rotate(-90) scale(0.1 -0.1)">
      <defs>
       <path id="DejaVuSans-41" d="M 2188 4044 
L 1331 1722 
L 3047 1722 
L 2188 4044 
z
M 1831 4666 
L 2547 4666 
L 4325 0 
L 3669 0 
L 3244 1197 
L 1141 1197 
L 716 0 
L 50 0 
L 1831 4666 
z
" transform="scale(0.015625)"/>
       <path id="DejaVuSans-69" d="M 603 3500 
L 1178 3500 
L 1178 0 
L 603 0 
L 603 3500 
z
M 603 4863 
L 1178 4863 
L 1178 4134 
L 603 4134 
L 603 4863 
z
" transform="scale(0.015625)"/>
       <path id="DejaVuSans-74" d="M 1172 4494 
L 1172 3500 
L 2356 3500 
L 2356 3053 
L 1172 3053 
L 1172 1153 
Q 1172 725 1289 603 
Q 1406 481 1766 481 
L 2356 481 
L 2356 0 
L 1766 0 
Q 1100 0 847 248 
Q 594 497 594 1153 
L 594 3053 
L 172 3053 
L 172 3500 
L 594 3500 
L 594 4494 
L 1172 4494 
z
" transform="scale(0.015625)"/>
       <path id="DejaVuSans-75" d="M 544 1381 
L 544 3500 
L 1119 3500 
L 1119 1403 
Q 1119 906 1312 657 
Q 1506 409 1894 409 
Q 2359 409 2629 706 
Q 2900 1003 2900 1516 
L 2900 3500 
L 3475 3500 
L 3475 0 
L 2900 0 
L 2900 538 
Q 2691 219 2414 64 
Q 2138 -91 1772 -91 
Q 1169 -91 856 284 
Q 544 659 544 1381 
z
M 1991 3584 
L 1991 3584 
z
" transform="scale(0.015625)"/>
       <path id="DejaVuSans-64" d="M 2906 2969 
L 2906 4863 
L 3481 4863 
L 3481 0 
L 2906 0 
L 2906 525 
Q 2725 213 2448 61 
Q 2172 -91 1784 -91 
Q 1150 -91 751 415 
Q 353 922 353 1747 
Q 353 2572 751 3078 
Q 1150 3584 1784 3584 
Q 2172 3584 2448 3432 
Q 2725 3281 2906 2969 
z
M 947 1747 
Q 947 1113 1208 752 
Q 1469 391 1925 391 
Q 2381 391 2643 752 
Q 2906 1113 2906 1747 
Q 2906 2381 2643 2742 
Q 2381 3103 1925 3103 
Q 1469 3103 1208 2742 
Q 947 2381 947 1747 
z
" transform="scale(0.015625)"/>
      </defs>
      <use xlink:href="#DejaVuSans-41"/>
      <use xlink:href="#DejaVuSans-6d" x="68.408203"/>
      <use xlink:href="#DejaVuSans-70" x="165.820312"/>
      <use xlink:href="#DejaVuSans-6c" x="229.296875"/>
      <use xlink:href="#DejaVuSans-69" x="257.080078"/>
      <use xlink:href="#DejaVuSans-74" x="284.863281"/>
      <use xlink:href="#DejaVuSans-75" x="324.072266"/>
      <use xlink:href="#DejaVuSans-64" x="387.451172"/>
      <use xlink:href="#DejaVuSans-65" x="450.927734"/>
     </g>
    </g>
   </g>
   <g id="line2d_23">
    <path d="M 73.832727 174.514095 
L 76.435169 174.514095 
L 77.085779 170.676302 
L 77.736389 164.446841 
L 78.386999 159.830366 
L 79.03761 156.298484 
L 79.68822 151.237047 
L 81.640051 123.538194 
L 82.941272 116.724721 
L 83.591882 108.020162 
L 84.242492 97.341087 
L 84.893103 92.196219 
L 85.543713 91.000385 
L 86.194323 87.273833 
L 87.495544 72.617914 
L 88.146154 68.752311 
L 88.796764 69.197272 
L 89.447375 68.47421 
L 90.748595 56.349009 
L 91.399206 56.710541 
L 92.049816 59.57498 
L 92.700426 59.185639 
L 93.351037 55.959668 
L 94.001647 53.62362 
L 94.652257 55.514707 
L 95.302868 61.021105 
L 95.953478 63.718684 
L 96.604088 61.493877 
L 97.254698 61.521687 
L 98.555919 74.842721 
L 99.206529 78.096502 
L 99.85714 79.236716 
L 100.50775 82.017725 
L 101.15836 89.35959 
L 101.808971 98.981882 
L 102.459581 104.29361 
L 103.110191 105.600684 
L 103.760802 110.773362 
L 105.062022 130.880059 
L 105.712633 136.330837 
L 106.363243 140.22425 
L 107.013853 146.425901 
L 108.315074 168.145584 
L 108.965684 173.707602 
L 109.616294 176.627662 
L 110.266905 184.497918 
L 110.917515 196.261588 
L 111.568125 205.355488 
L 112.218736 210.305685 
L 112.869346 214.338148 
L 113.519956 221.151621 
L 114.821177 240.952407 
L 115.471787 243.955897 
L 116.122398 245.930414 
L 116.773008 253.355709 
L 117.423618 262.894571 
L 118.074228 268.4844 
L 119.375449 271.71037 
L 120.026059 276.410276 
L 120.67667 284.002432 
L 121.32728 288.312996 
L 121.97789 286.53315 
L 122.628501 285.615417 
L 123.929721 294.820558 
L 124.580332 294.959608 
L 125.230942 291.817068 
L 125.881552 289.258539 
L 126.532163 290.343133 
L 127.182773 293.151952 
L 127.833383 291.177436 
L 128.483993 284.085862 
L 129.134604 279.719677 
L 129.785214 280.275879 
L 130.435824 279.497196 
L 131.086435 273.990798 
L 131.737045 266.176162 
L 132.387655 259.946701 
L 133.038266 257.610653 
L 133.688876 255.775187 
L 134.339486 248.210842 
L 134.990097 237.253665 
L 135.640707 230.690483 
L 136.291317 228.187575 
L 136.941927 223.153948 
L 138.893758 195.482905 
L 139.544369 191.672922 
L 140.194979 186.945207 
L 141.4962 164.474651 
L 142.14681 158.300811 
L 142.79742 154.963599 
L 143.448031 148.344797 
L 144.749251 128.18248 
L 145.399862 121.813969 
L 146.050472 119.17201 
L 146.701082 114.305243 
L 148.002303 94.699128 
L 148.652913 91.695638 
L 149.303523 90.166083 
L 149.954134 84.937785 
L 151.255354 70.671207 
L 151.905965 68.58545 
L 152.556575 69.475373 
L 153.207185 66.777794 
L 153.857796 59.6306 
L 154.508406 55.737187 
L 155.809627 59.908701 
L 156.460237 58.184475 
L 157.110847 54.819454 
L 157.761457 53.70705 
L 158.412068 57.350173 
L 159.062678 62.63409 
L 159.713288 63.245912 
L 160.363899 60.798624 
L 161.014509 63.190292 
L 161.665119 70.615587 
L 162.31573 76.483517 
L 162.96634 78.569274 
L 163.61695 79.848538 
L 164.267561 84.103482 
L 165.568781 101.623841 
L 166.219392 104.849812 
L 166.870002 106.685278 
L 167.520612 114.249623 
L 168.171222 125.2068 
L 168.821833 133.243917 
L 170.123053 142.004096 
L 170.773664 149.790922 
L 171.424274 161.359921 
L 172.074884 170.898783 
L 173.376105 178.685609 
L 175.327936 207.469055 
L 176.629156 216.284855 
L 177.279767 224.683503 
L 177.930377 235.64068 
L 178.580987 242.676633 
L 179.231598 244.289619 
L 179.882208 247.960551 
L 181.183429 265.48091 
L 181.834039 269.374323 
L 182.484649 270.570157 
L 183.13526 272.906204 
L 183.78587 279.052235 
L 184.43648 286.310669 
L 185.087091 288.146135 
L 185.737701 285.643227 
L 186.388311 286.727821 
L 187.038921 292.150789 
L 187.689532 295.43238 
L 188.340142 293.986255 
L 188.990752 290.621234 
L 189.641363 289.175109 
L 190.291973 291.483347 
L 190.942583 293.263193 
L 191.593194 288.869198 
L 192.243804 281.833244 
L 192.894414 279.608437 
L 193.545025 280.49836 
L 194.195635 278.023262 
L 196.147466 258.667437 
L 196.798076 257.276932 
L 197.448686 253.828481 
L 198.749907 234.138935 
L 199.400517 229.68932 
L 200.051128 226.90831 
L 200.701738 220.178268 
L 202.002959 200.01595 
L 202.653569 193.758679 
L 203.304179 190.477088 
L 203.95479 183.802666 
L 205.25601 161.526781 
L 206.557231 153.100323 
L 207.207841 144.924156 
L 208.509062 125.34585 
L 209.159672 120.645945 
L 209.810282 118.059606 
L 210.460893 111.023652 
L 211.111503 100.010856 
L 211.762113 92.974902 
L 212.412724 91.361917 
L 213.063334 88.747768 
L 213.713944 82.268016 
L 214.364555 74.48119 
L 215.015165 69.308513 
L 215.665775 68.863551 
L 216.316385 69.197272 
L 216.966996 64.386126 
L 217.617606 57.461413 
L 218.268216 56.043098 
L 218.918827 58.963158 
L 219.569437 59.714031 
L 220.870658 53.957341 
L 221.521268 54.457923 
L 222.822489 63.579634 
L 224.123709 60.826434 
L 224.77432 65.63758 
L 225.42493 73.174116 
L 226.07554 77.56811 
L 226.72615 78.902995 
L 227.376761 80.849701 
L 228.027371 86.828871 
L 228.677981 96.451164 
L 229.328592 103.431497 
L 229.979202 105.183533 
L 230.629812 108.631984 
L 231.931033 128.627441 
L 232.581643 135.107193 
L 233.232254 139.056226 
L 233.882864 144.256714 
L 234.533474 153.712145 
L 235.184085 165.420195 
L 235.834695 172.762059 
L 236.485305 175.570878 
L 237.135915 181.661289 
L 238.437136 203.297541 
L 239.087746 209.165471 
L 239.738357 213.058884 
L 240.388967 218.787763 
L 241.690188 238.950081 
L 242.340798 243.594366 
L 242.991408 244.957061 
L 243.642019 250.76937 
L 244.292629 260.447283 
L 244.943239 267.399806 
L 245.59385 269.930524 
L 246.24446 271.098548 
L 246.89507 274.65824 
L 247.54568 281.888864 
L 248.196291 287.784604 
L 248.846901 287.339643 
L 249.497511 285.337316 
L 250.148122 288.479857 
L 250.798732 293.875015 
L 251.449342 295.37676 
L 252.099953 292.790421 
L 252.750563 289.703501 
L 253.401173 289.62007 
L 254.051784 292.56794 
L 254.702394 292.4567 
L 256.003615 280.331499 
L 256.654225 279.969968 
L 257.304835 280.192449 
L 257.955445 275.937505 
L 259.256666 261.337206 
L 259.907276 257.944374 
L 260.557887 256.66511 
L 261.208497 250.991851 
L 261.859107 240.145915 
L 262.509718 231.914127 
L 263.160328 228.882827 
L 263.810938 225.045034 
L 264.461549 216.729816 
L 265.762769 197.234941 
L 266.413379 192.507225 
L 267.06399 188.780673 
L 267.7146 179.798013 
L 268.36521 167.394711 
L 269.015821 159.441024 
L 269.666431 156.048193 
L 270.317041 150.653035 
L 272.268872 123.093233 
L 273.570093 116.25195 
L 274.871314 96.673644 
L 275.521924 92.057169 
L 276.172534 90.861335 
L 276.823144 86.801061 
L 278.124365 72.117332 
L 278.774975 68.64107 
L 279.425586 69.280703 
L 280.076196 68.168299 
L 281.377417 56.126529 
L 282.028027 56.933021 
L 282.678637 59.68622 
L 283.329248 58.990968 
L 283.979858 55.709377 
L 284.630468 53.568 
L 285.281079 55.876238 
L 285.931689 61.410446 
L 286.582299 63.663064 
L 287.232909 61.299206 
L 287.88352 61.799788 
L 289.18474 75.232063 
L 289.835351 78.235553 
L 290.485961 79.347956 
L 291.136571 82.434877 
L 291.787182 90.138272 
L 292.437792 99.649324 
L 293.088402 104.46047 
L 293.739013 105.767545 
L 294.389623 111.496424 
L 295.690844 131.436261 
L 296.341454 136.636748 
L 296.992064 140.585781 
L 297.642674 147.121153 
L 298.943895 168.813026 
L 299.594505 173.930083 
L 300.245116 177.017003 
L 300.895726 185.387841 
L 301.546336 197.151511 
L 302.196947 205.85607 
L 303.498167 214.72749 
L 304.148778 221.874684 
L 304.799388 232.665 
L 305.449998 241.425179 
L 306.751219 246.319755 
L 307.401829 254.162202 
L 308.052439 263.534203 
L 308.70305 268.70688 
L 310.00427 271.932851 
L 310.654881 276.966478 
L 311.305491 284.558633 
L 311.956101 288.340806 
L 312.606712 286.310669 
L 313.257322 285.782278 
L 314.558543 295.015228 
L 315.209153 294.764938 
L 315.859763 291.538967 
L 316.510373 289.202919 
L 317.160984 290.565614 
L 317.811594 293.263193 
L 318.462204 290.704664 
L 319.112815 283.52966 
L 319.763425 279.664057 
L 320.414035 280.359309 
L 321.064646 279.219096 
L 321.715256 273.406786 
L 322.365866 265.56434 
L 323.016477 259.61298 
L 324.317697 255.441466 
L 324.968308 247.348729 
L 325.618918 236.502793 
L 326.269528 230.440192 
L 326.920138 227.965094 
L 327.570749 222.542126 
L 329.52258 195.037944 
L 330.17319 191.422632 
L 330.8238 186.333385 
L 332.125021 163.751589 
L 332.775631 157.9949 
L 333.426242 154.574258 
L 334.076852 147.621735 
L 335.378073 127.487227 
L 336.028683 121.508057 
L 336.679293 118.977339 
L 337.329903 113.637801 
L 338.631124 94.254166 
L 339.281734 91.612207 
L 339.932345 89.887982 
L 340.582955 84.381583 
L 341.233565 76.566947 
L 341.884176 70.309676 
L 342.534786 68.61326 
L 343.185396 69.447563 
L 343.836007 66.305023 
L 344.486617 59.102209 
L 345.137227 55.737187 
L 345.787837 58.101045 
L 346.438448 59.908701 
L 347.089058 57.934185 
L 347.739668 54.596973 
L 348.390279 53.818291 
L 349.040889 57.795134 
L 349.691499 62.912191 
L 350.34211 63.051242 
L 350.99272 60.743004 
L 351.64333 63.690874 
L 352.293941 71.227409 
L 352.944551 76.761618 
L 353.595161 78.652704 
L 354.245772 80.015399 
L 354.896382 84.631874 
L 356.197602 102.096612 
L 356.848213 104.933242 
L 357.498823 107.018999 
L 358.149433 115.083926 
L 358.800044 126.013293 
L 359.450654 133.688878 
L 360.751875 142.476868 
L 361.402485 150.597415 
L 362.053095 162.277654 
L 362.703706 171.371554 
L 363.354316 174.820006 
L 364.004926 179.269621 
L 365.306147 200.850253 
L 365.956757 207.886207 
L 366.607367 211.97429 
L 367.257978 216.813247 
L 367.908588 225.517806 
L 368.559198 236.447172 
L 369.209809 242.954734 
L 369.860419 244.400859 
L 370.511029 248.516753 
L 371.81225 265.981491 
L 372.46286 269.541183 
L 373.113471 270.681397 
L 373.764081 273.239926 
L 375.065302 286.700011 
L 375.715912 288.007085 
L 376.366522 285.504177 
L 377.017132 287.061542 
L 377.667743 292.59575 
L 378.318353 295.488 
L 378.968963 293.735964 
L 379.619574 290.398753 
L 380.270184 289.230729 
L 380.920794 291.733637 
L 381.571405 293.179762 
L 382.222015 288.285186 
L 382.872625 281.443903 
L 383.523236 279.664057 
L 384.173846 280.47055 
L 384.824456 277.60611 
L 386.125677 263.005811 
L 386.776287 258.444956 
L 387.426897 257.165692 
L 388.077508 253.272279 
L 389.378728 233.554923 
L 390.029339 229.494649 
L 390.679949 226.546779 
L 391.330559 219.427395 
L 392.63178 199.348508 
L 393.28239 193.452768 
L 393.933001 190.143367 
L 394.583611 182.968363 
L 395.234221 170.704112 
L 395.884831 160.99839 
L 397.186052 152.627552 
L 397.836662 144.145473 
L 398.487273 133.577638 
L 398.487273 133.577638 
" clip-path="url(#pffcb5b74a2)" style="fill: none; stroke: #1f77b4; stroke-width: 1.5; stroke-linecap: square"/>
   </g>
   <g id="patch_3">
    <path d="M 57.6 307.584 
L 57.6 41.472 
" style="fill: none; stroke: #000000; stroke-width: 0.8; stroke-linejoin: miter; stroke-linecap: square"/>
   </g>
   <g id="patch_4">
    <path d="M 414.72 307.584 
L 414.72 41.472 
" style="fill: none; stroke: #000000; stroke-width: 0.8; stroke-linejoin: miter; stroke-linecap: square"/>
   </g>
   <g id="patch_5">
    <path d="M 57.6 307.584 
L 414.72 307.584 
" style="fill: none; stroke: #000000; stroke-width: 0.8; stroke-linejoin: miter; stroke-linecap: square"/>
   </g>
   <g id="patch_6">
    <path d="M 57.6 41.472 
L 414.72 41.472 
" style="fill: none; stroke: #000000; stroke-width: 0.8; stroke-linejoin: miter; stroke-linecap: square"/>
   </g>
   <g id="text_14">
    <!-- Left output (16-bit) -->
    <g transform="translate(178.9575 35.472) scale(0.12 -0.12)">
     <defs>
      <path id="DejaVuSans-4c" d="M 628 4666 
L 1259 4666 
L 1259 531 
L 3531 531 
L 3531 0 
L 628 0 
L 628 4666 
z
" transform="scale(0.015625)"/>
      <path id="DejaVuSans-66" d="M 2375 4863 
L 2375 4384 
L 1825 4384 
Q 1516 4384 1395 4259 
Q 1275 4134 1275 3809 
L 1275 3500 
L 2222 3500 
L 2222 3053 
L 1275 3053 
L 1275 0 
L 697 0 
L 697 3053 
L 147 3053 
L 147 3500 
L 697 3500 
L 697 3744 
Q 697 4328 969 4595 
Q 1241 4863 1831 4863 
L 2375 4863 
z
" transform="scale(0.015625)"/>
      <path id="DejaVuSans-20" transform="scale(0.015625)"/>
      <path id="DejaVuSans-6f" d="M 1959 3097 
Q 1497 3097 1228 2736 
Q 959 2375 959 1747 
Q 959 1119 1226 758 
Q 1494 397 1959 397 
Q 2419 397 2687 759 
Q 2956 1122 2956 1747 
Q 2956 2369 2687 2733 
Q 2419 3097 1959 3097 
z
M 1959 3584 
Q 2709 3584 3137 3096 
Q 3566 2609 3566 1747 
Q 3566 888 3137 398 
Q 2709 -91 1959 -91 
Q 1206 -91 779 398 
Q 353 888 353 1747 
Q 353 2609 779 3096 
Q 1206 3584 1959 3584 
z
" transform="scale(0.015625)"/>
      <path id="DejaVuSans-28" d="M 1984 4856 
Q 1566 4138 1362 3434 
Q 1159 2731 1159 2009 
Q 1159 1288 1364 580 
Q 1569 -128 1984 -844 
L 1484 -844 
Q 1016 -109 783 600 
Q 550 1309 550 2009 
Q 550 2706 781 3412 
Q 1013 4119 1484 4856 
L 1984 4856 
z
" transform="scale(0.015625)"/>
      <path id="DejaVuSans-36" d="M 2113 2584 
Q 1688 2584 1439 2293 
Q 1191 2003 1191 1497 
Q 1191 994 1439 701 
Q 1688 409 2113 409 
Q 2538 409 2786 701 
Q 3034 994 3034 1497 
Q 3034 2003 2786 2293 
Q 2538 2584 2113 2584 
z
M 3366 4563 
L 3366 3988 
Q 3128 4100 2886 4159 
Q 2644 4219 2406 4219 
Q 1781 4219 1451 3797 
Q 1122 3375 1075 2522 
Q 1259 2794 1537 2939 
Q 1816 3084 2150 3084 
Q 2853 3084 3261 2657 
Q 3669 2231 3669 1497 
Q 3669 778 3244 343 
Q 2819 -91 2113 -91 
Q 1303 -91 875 529 
Q 447 1150 447 2328 
Q 447 3434 972 4092 
Q 1497 4750 2381 4750 
Q 2619 4750 2861 4703 
Q 3103 4656 3366 4563 
z
" transform="scale(0.015625)"/>
      <path id="DejaVuSans-2d" d="M 313 2009 
L 1997 2009 
L 1997 1497 
L 313 1497 
L 313 2009 
z
" transform="scale(0.015625)"/>
      <path id="DejaVuSans-62" d="M 3116 1747 
Q 3116 2381 2855 2742 
Q 2594 3103 2138 3103 
Q 1681 3103 1420 2742 
Q 1159 2381 1159 1747 
Q 1159 1113 1420 752 
Q 1681 391 2138 391 
Q 2594 391 2855 752 
Q 3116 1113 3116 1747 
z
M 1159 2969 
Q 1341 3281 1617 3432 
Q 1894 3584 2278 3584 
Q 2916 3584 3314 3078 
Q 3713 2572 3713 1747 
Q 3713 922 3314 415 
Q 2916 -91 2278 -91 
Q 1894 -91 1617 61 
Q 1341 213 1159 525 
L 1159 0 
L 581 0 
L 581 4863 
L 1159 4863 
L 1159 2969 
z
" transform="scale(0.015625)"/>
      <path id="DejaVuSans-29" d="M 513 4856 
L 1013 4856 
Q 1481 4119 1714 3412 
Q 1947 2706 1947 2009 
Q 1947 1309 1714 600 
Q 1481 -109 1013 -844 
L 513 -844 
Q 928 -128 1133 580 
Q 1338 1288 1338 2009 
Q 1338 2731 1133 3434 
Q 928 4138 513 4856 
z
" transform="scale(0.015625)"/>
     </defs>
     <use xlink:href="#DejaVuSans-4c"/>
     <use xlink:href="#DejaVuSans-65" x="53.962891"/>
     <use xlink:href="#DejaVuSans-66" x="115.486328"/>
     <use xlink:href="#DejaVuSans-74" x="148.941406"/>
     <use xlink:href="#DejaVuSans-20" x="188.150391"/>
     <use xlink:href="#DejaVuSans-6f" x="219.9375"/>
     <use xlink:href="#DejaVuSans-75" x="281.119141"/>
     <use xlink:href="#DejaVuSans-74" x="344.498047"/>
     <use xlink:href="#DejaVuSans-70" x="383.707031"/>
     <use xlink:href="#DejaVuSans-75" x="447.183594"/>
     <use xlink:href="#DejaVuSans-74" x="510.5625"/>
     <use xlink:href="#DejaVuSans-20" x="549.771484"/>
     <use xlink:href="#DejaVuSans-28" x="581.558594"/>
     <use xlink:href="#DejaVuSans-31" x="620.572266"/>
     <use xlink:href="#DejaVuSans-36" x="684.195312"/>
     <use xlink:href="#DejaVuSans-2d" x="747.818359"/>
     <use xlink:href="#DejaVuSans-62" x="783.902344"/>
     <use xlink:href="#DejaVuSans-69" x="847.378906"/>
     <use xlink:href="#DejaVuSans-74" x="875.162109"/>
     <use xlink:href="#DejaVuSans-29" x="914.371094"/>
    </g>
   </g>
  </g>
 </g>
 <defs>
  <clipPath id="pffcb5b74a2">
   <rect x="57.6" y="41.472" width="357.12" height="266.112"/>
  </clipPath>
 </defs>
</svg>
