<?xml version="1.0" encoding="utf-8" standalone="no"?>
<!DOCTYPE svg PUBLIC "-//W3C//DTD SVG 1.1//EN"
  "http://www.w3.org/Graphics/SVG/1.1/DTD/svg11.dtd">
<svg xmlns:xlink="http://www.w3.org/1999/xlink" width="460.8pt" height="345.6pt" viewBox="0 0 460.8 345.6" xmlns="http://www.w3.org/2000/svg" version="1.1">
 <metadata>
  <rdf:RDF xmlns:dc="http://purl.org/dc/elements/1.1/" xmlns:cc="http://creativecommons.org/ns#" xmlns:rdf="http://www.w3.org/1999/02/22-rdf-syntax-ns#">
   <cc:Work>
    <dc:type rdf:resource="http://purl.org/dc/dcmitype/StillImage"/>
    <dc:date>2025-09-08T22:35:16.383339</dc:date>
    <dc:format>image/svg+xml</dc:format>
    <dc:creator>
     <cc:Agent>
      <dc:title>Matplotlib v3.9.2, https://matplotlib.org/</dc:title>
     </cc:Agent>
    </dc:creator>
   </cc:Work>
  </rdf:RDF>
 </metadata>
 <defs>
  <style type="text/css">*{stroke-linejoin: round; stroke-linecap: butt}</style>
 </defs>
 <g id="figure_1">
  <g id="patch_1">
   <path d="M 0 345.6 
L 460.8 345.6 
L 460.8 0 
L 0 0 
z
" style="fill: #ffffff"/>
  </g>
  <g id="axes_1">
   <g id="patch_2">
    <path d="M 57.6 307.584 
L 414.72 307.584 
L 414.72 41.472 
L 57.6 41.472 
z
" style="fill: #ffffff"/>
   </g>
   <g id="matplotlib.axis_1">
    <g id="xtick_1">
     <g id="line2d_1">
      <path d="M 73.832727 307.584 
L 73.832727 41.472 
" clip-path="url(#p95f3cd5dcf)" style="fill: none; stroke: #b0b0b0; stroke-width: 0.8; stroke-linecap: square"/>
     </g>
     <g id="line2d_2">
      <defs>
       <path id="m34373f318a" d="M 0 0 
L 0 3.5 
" style="stroke: #000000; stroke-width: 0.8"/>
      </defs>
      <g>
       <use xlink:href="#m34373f318a" x="73.832727" y="307.584" style="stroke: #000000; stroke-width: 0.8"/>
      </g>
     </g>
     <g id="text_1">
      <!-- 0 -->
      <g transform="translate(70.651477 322.182437) scale(0.1 -0.1)">
       <defs>
        <path id="DejaVuSans-30" d="M 2034 4250 
Q 1547 4250 1301 3770 
Q 1056 3291 1056 2328 
Q 1056 1369 1301 889 
Q 1547 409 2034 409 
Q 2525 409 2770 889 
Q 3016 1369 3016 2328 
Q 3016 3291 2770 3770 
Q 2525 4250 2034 4250 
z
M 2034 4750 
Q 2819 4750 3233 4129 
Q 3647 3509 3647 2328 
Q 3647 1150 3233 529 
Q 2819 -91 2034 -91 
Q 1250 -91 836 529 
Q 422 1150 422 2328 
Q 422 3509 836 4129 
Q 1250 4750 2034 4750 
z
" transform="scale(0.015625)"/>
       </defs>
       <use xlink:href="#DejaVuSans-30"/>
      </g>
     </g>
    </g>
    <g id="xtick_2">
     <g id="line2d_3">
      <path d="M 126.213261 307.584 
L 126.213261 41.472 
" clip-path="url(#p95f3cd5dcf)" style="fill: none; stroke: #b0b0b0; stroke-width: 0.8; stroke-linecap: square"/>
     </g>
     <g id="line2d_4">
      <g>
       <use xlink:href="#m34373f318a" x="126.213261" y="307.584" style="stroke: #000000; stroke-width: 0.8"/>
      </g>
     </g>
     <g id="text_2">
      <!-- 500 -->
      <g transform="translate(116.669511 322.182437) scale(0.1 -0.1)">
       <defs>
        <path id="DejaVuSans-35" d="M 691 4666 
L 3169 4666 
L 3169 4134 
L 1269 4134 
L 1269 2991 
Q 1406 3038 1543 3061 
Q 1681 3084 1819 3084 
Q 2600 3084 3056 2656 
Q 3513 2228 3513 1497 
Q 3513 744 3044 326 
Q 2575 -91 1722 -91 
Q 1428 -91 1123 -41 
Q 819 9 494 109 
L 494 744 
Q 775 591 1075 516 
Q 1375 441 1709 441 
Q 2250 441 2565 725 
Q 2881 1009 2881 1497 
Q 2881 1984 2565 2268 
Q 2250 2553 1709 2553 
Q 1456 2553 1204 2497 
Q 953 2441 691 2322 
L 691 4666 
z
" transform="scale(0.015625)"/>
       </defs>
       <use xlink:href="#DejaVuSans-35"/>
       <use xlink:href="#DejaVuSans-30" x="63.623047"/>
       <use xlink:href="#DejaVuSans-30" x="127.246094"/>
      </g>
     </g>
    </g>
    <g id="xtick_3">
     <g id="line2d_5">
      <path d="M 178.593794 307.584 
L 178.593794 41.472 
" clip-path="url(#p95f3cd5dcf)" style="fill: none; stroke: #b0b0b0; stroke-width: 0.8; stroke-linecap: square"/>
     </g>
     <g id="line2d_6">
      <g>
       <use xlink:href="#m34373f318a" x="178.593794" y="307.584" style="stroke: #000000; stroke-width: 0.8"/>
      </g>
     </g>
     <g id="text_3">
      <!-- 1000 -->
      <g transform="translate(165.868794 322.182437) scale(0.1 -0.1)">
       <defs>
        <path id="DejaVuSans-31" d="M 794 531 
L 1825 531 
L 1825 4091 
L 703 3866 
L 703 4441 
L 1819 4666 
L 2450 4666 
L 2450 531 
L 3481 531 
L 3481 0 
L 794 0 
L 794 531 
z
" transform="scale(0.015625)"/>
       </defs>
       <use xlink:href="#DejaVuSans-31"/>
       <use xlink:href="#DejaVuSans-30" x="63.623047"/>
       <use xlink:href="#DejaVuSans-30" x="127.246094"/>
       <use xlink:href="#DejaVuSans-30" x="190.869141"/>
      </g>
     </g>
    </g>
    <g id="xtick_4">
     <g id="line2d_7">
      <path d="M 230.974327 307.584 
L 230.974327 41.472 
" clip-path="url(#p95f3cd5dcf)" style="fill: none; stroke: #b0b0b0; stroke-width: 0.8; stroke-linecap: square"/>
     </g>
     <g id="line2d_8">
      <g>
       <use xlink:href="#m34373f318a" x="230.974327" y="307.584" style="stroke: #000000; stroke-width: 0.8"/>
      </g>
     </g>
     <g id="text_4">
      <!-- 1500 -->
      <g transform="translate(218.249327 322.182437) scale(0.1 -0.1)">
       <use xlink:href="#DejaVuSans-31"/>
       <use xlink:href="#DejaVuSans-35" x="63.623047"/>
       <use xlink:href="#DejaVuSans-30" x="127.246094"/>
       <use xlink:href="#DejaVuSans-30" x="190.869141"/>
      </g>
     </g>
    </g>
    <g id="xtick_5">
     <g id="line2d_9">
      <path d="M 283.354861 307.584 
L 283.354861 41.472 
" clip-path="url(#p95f3cd5dcf)" style="fill: none; stroke: #b0b0b0; stroke-width: 0.8; stroke-linecap: square"/>
     </g>
     <g id="line2d_10">
      <g>
       <use xlink:href="#m34373f318a" x="283.354861" y="307.584" style="stroke: #000000; stroke-width: 0.8"/>
      </g>
     </g>
     <g id="text_5">
      <!-- 2000 -->
      <g transform="translate(270.629861 322.182437) scale(0.1 -0.1)">
       <defs>
        <path id="DejaVuSans-32" d="M 1228 531 
L 3431 531 
L 3431 0 
L 469 0 
L 469 531 
Q 828 903 1448 1529 
Q 2069 2156 2228 2338 
Q 2531 2678 2651 2914 
Q 2772 3150 2772 3378 
Q 2772 3750 2511 3984 
Q 2250 4219 1831 4219 
Q 1534 4219 1204 4116 
Q 875 4013 500 3803 
L 500 4441 
Q 881 4594 1212 4672 
Q 1544 4750 1819 4750 
Q 2544 4750 2975 4387 
Q 3406 4025 3406 3419 
Q 3406 3131 3298 2873 
Q 3191 2616 2906 2266 
Q 2828 2175 2409 1742 
Q 1991 1309 1228 531 
z
" transform="scale(0.015625)"/>
       </defs>
       <use xlink:href="#DejaVuSans-32"/>
       <use xlink:href="#DejaVuSans-30" x="63.623047"/>
       <use xlink:href="#DejaVuSans-30" x="127.246094"/>
       <use xlink:href="#DejaVuSans-30" x="190.869141"/>
      </g>
     </g>
    </g>
    <g id="xtick_6">
     <g id="line2d_11">
      <path d="M 335.735394 307.584 
L 335.735394 41.472 
" clip-path="url(#p95f3cd5dcf)" style="fill: none; stroke: #b0b0b0; stroke-width: 0.8; stroke-linecap: square"/>
     </g>
     <g id="line2d_12">
      <g>
       <use xlink:href="#m34373f318a" x="335.735394" y="307.584" style="stroke: #000000; stroke-width: 0.8"/>
      </g>
     </g>
     <g id="text_6">
      <!-- 2500 -->
      <g transform="translate(323.010394 322.182437) scale(0.1 -0.1)">
       <use xlink:href="#DejaVuSans-32"/>
       <use xlink:href="#DejaVuSans-35" x="63.623047"/>
       <use xlink:href="#DejaVuSans-30" x="127.246094"/>
       <use xlink:href="#DejaVuSans-30" x="190.869141"/>
      </g>
     </g>
    </g>
    <g id="xtick_7">
     <g id="line2d_13">
      <path d="M 388.115927 307.584 
L 388.115927 41.472 
" clip-path="url(#p95f3cd5dcf)" style="fill: none; stroke: #b0b0b0; stroke-width: 0.8; stroke-linecap: square"/>
     </g>
     <g id="line2d_14">
      <g>
       <use xlink:href="#m34373f318a" x="388.115927" y="307.584" style="stroke: #000000; stroke-width: 0.8"/>
      </g>
     </g>
     <g id="text_7">
      <!-- 3000 -->
      <g transform="translate(375.390927 322.182437) scale(0.1 -0.1)">
       <defs>
        <path id="DejaVuSans-33" d="M 2597 2516 
Q 3050 2419 3304 2112 
Q 3559 1806 3559 1356 
Q 3559 666 3084 287 
Q 2609 -91 1734 -91 
Q 1441 -91 1130 -33 
Q 819 25 488 141 
L 488 750 
Q 750 597 1062 519 
Q 1375 441 1716 441 
Q 2309 441 2620 675 
Q 2931 909 2931 1356 
Q 2931 1769 2642 2001 
Q 2353 2234 1838 2234 
L 1294 2234 
L 1294 2753 
L 1863 2753 
Q 2328 2753 2575 2939 
Q 2822 3125 2822 3475 
Q 2822 3834 2567 4026 
Q 2313 4219 1838 4219 
Q 1578 4219 1281 4162 
Q 984 4106 628 3988 
L 628 4550 
Q 988 4650 1302 4700 
Q 1616 4750 1894 4750 
Q 2613 4750 3031 4423 
Q 3450 4097 3450 3541 
Q 3450 3153 3228 2886 
Q 3006 2619 2597 2516 
z
" transform="scale(0.015625)"/>
       </defs>
       <use xlink:href="#DejaVuSans-33"/>
       <use xlink:href="#DejaVuSans-30" x="63.623047"/>
       <use xlink:href="#DejaVuSans-30" x="127.246094"/>
       <use xlink:href="#DejaVuSans-30" x="190.869141"/>
      </g>
     </g>
    </g>
    <g id="text_8">
     <!-- Samples -->
     <g transform="translate(214.806875 335.860562) scale(0.1 -0.1)">
      <defs>
       <path id="DejaVuSans-53" d="M 3425 4513 
L 3425 3897 
Q 3066 4069 2747 4153 
Q 2428 4238 2131 4238 
Q 1616 4238 1336 4038 
Q 1056 3838 1056 3469 
Q 1056 3159 1242 3001 
Q 1428 2844 1947 2747 
L 2328 2669 
Q 3034 2534 3370 2195 
Q 3706 1856 3706 1288 
Q 3706 609 3251 259 
Q 2797 -91 1919 -91 
Q 1588 -91 1214 -16 
Q 841 59 441 206 
L 441 856 
Q 825 641 1194 531 
Q 1563 422 1919 422 
Q 2459 422 2753 634 
Q 3047 847 3047 1241 
Q 3047 1584 2836 1778 
Q 2625 1972 2144 2069 
L 1759 2144 
Q 1053 2284 737 2584 
Q 422 2884 422 3419 
Q 422 4038 858 4394 
Q 1294 4750 2059 4750 
Q 2388 4750 2728 4690 
Q 3069 4631 3425 4513 
z
" transform="scale(0.015625)"/>
       <path id="DejaVuSans-61" d="M 2194 1759 
Q 1497 1759 1228 1600 
Q 959 1441 959 1056 
Q 959 750 1161 570 
Q 1363 391 1709 391 
Q 2188 391 2477 730 
Q 2766 1069 2766 1631 
L 2766 1759 
L 2194 1759 
z
M 3341 1997 
L 3341 0 
L 2766 0 
L 2766 531 
Q 2569 213 2275 61 
Q 1981 -91 1556 -91 
Q 1019 -91 701 211 
Q 384 513 384 1019 
Q 384 1609 779 1909 
Q 1175 2209 1959 2209 
L 2766 2209 
L 2766 2266 
Q 2766 2663 2505 2880 
Q 2244 3097 1772 3097 
Q 1472 3097 1187 3025 
Q 903 2953 641 2809 
L 641 3341 
Q 956 3463 1253 3523 
Q 1550 3584 1831 3584 
Q 2591 3584 2966 3190 
Q 3341 2797 3341 1997 
z
" transform="scale(0.015625)"/>
       <path id="DejaVuSans-6d" d="M 3328 2828 
Q 3544 3216 3844 3400 
Q 4144 3584 4550 3584 
Q 5097 3584 5394 3201 
Q 5691 2819 5691 2113 
L 5691 0 
L 5113 0 
L 5113 2094 
Q 5113 2597 4934 2840 
Q 4756 3084 4391 3084 
Q 3944 3084 3684 2787 
Q 3425 2491 3425 1978 
L 3425 0 
L 2847 0 
L 2847 2094 
Q 2847 2600 2669 2842 
Q 2491 3084 2119 3084 
Q 1678 3084 1418 2786 
Q 1159 2488 1159 1978 
L 1159 0 
L 581 0 
L 581 3500 
L 1159 3500 
L 1159 2956 
Q 1356 3278 1631 3431 
Q 1906 3584 2284 3584 
Q 2666 3584 2933 3390 
Q 3200 3197 3328 2828 
z
" transform="scale(0.015625)"/>
       <path id="DejaVuSans-70" d="M 1159 525 
L 1159 -1331 
L 581 -1331 
L 581 3500 
L 1159 3500 
L 1159 2969 
Q 1341 3281 1617 3432 
Q 1894 3584 2278 3584 
Q 2916 3584 3314 3078 
Q 3713 2572 3713 1747 
Q 3713 922 3314 415 
Q 2916 -91 2278 -91 
Q 1894 -91 1617 61 
Q 1341 213 1159 525 
z
M 3116 1747 
Q 3116 2381 2855 2742 
Q 2594 3103 2138 3103 
Q 1681 3103 1420 2742 
Q 1159 2381 1159 1747 
Q 1159 1113 1420 752 
Q 1681 391 2138 391 
Q 2594 391 2855 752 
Q 3116 1113 3116 1747 
z
" transform="scale(0.015625)"/>
       <path id="DejaVuSans-6c" d="M 603 4863 
L 1178 4863 
L 1178 0 
L 603 0 
L 603 4863 
z
" transform="scale(0.015625)"/>
       <path id="DejaVuSans-65" d="M 3597 1894 
L 3597 1613 
L 953 1613 
Q 991 1019 1311 708 
Q 1631 397 2203 397 
Q 2534 397 2845 478 
Q 3156 559 3463 722 
L 3463 178 
Q 3153 47 2828 -22 
Q 2503 -91 2169 -91 
Q 1331 -91 842 396 
Q 353 884 353 1716 
Q 353 2575 817 3079 
Q 1281 3584 2069 3584 
Q 2775 3584 3186 3129 
Q 3597 2675 3597 1894 
z
M 3022 2063 
Q 3016 2534 2758 2815 
Q 2500 3097 2075 3097 
Q 1594 3097 1305 2825 
Q 1016 2553 972 2059 
L 3022 2063 
z
" transform="scale(0.015625)"/>
       <path id="DejaVuSans-73" d="M 2834 3397 
L 2834 2853 
Q 2591 2978 2328 3040 
Q 2066 3103 1784 3103 
Q 1356 3103 1142 2972 
Q 928 2841 928 2578 
Q 928 2378 1081 2264 
Q 1234 2150 1697 2047 
L 1894 2003 
Q 2506 1872 2764 1633 
Q 3022 1394 3022 966 
Q 3022 478 2636 193 
Q 2250 -91 1575 -91 
Q 1294 -91 989 -36 
Q 684 19 347 128 
L 347 722 
Q 666 556 975 473 
Q 1284 391 1588 391 
Q 1994 391 2212 530 
Q 2431 669 2431 922 
Q 2431 1156 2273 1281 
Q 2116 1406 1581 1522 
L 1381 1569 
Q 847 1681 609 1914 
Q 372 2147 372 2553 
Q 372 3047 722 3315 
Q 1072 3584 1716 3584 
Q 2034 3584 2315 3537 
Q 2597 3491 2834 3397 
z
" transform="scale(0.015625)"/>
      </defs>
      <use xlink:href="#DejaVuSans-53"/>
      <use xlink:href="#DejaVuSans-61" x="63.476562"/>
      <use xlink:href="#DejaVuSans-6d" x="124.755859"/>
      <use xlink:href="#DejaVuSans-70" x="222.167969"/>
      <use xlink:href="#DejaVuSans-6c" x="285.644531"/>
      <use xlink:href="#DejaVuSans-65" x="313.427734"/>
      <use xlink:href="#DejaVuSans-73" x="374.951172"/>
     </g>
    </g>
   </g>
   <g id="matplotlib.axis_2">
    <g id="ytick_1">
     <g id="line2d_15">
      <path d="M 57.6 293.794166 
L 414.72 293.794166 
" clip-path="url(#p95f3cd5dcf)" style="fill: none; stroke: #b0b0b0; stroke-width: 0.8; stroke-linecap: square"/>
     </g>
     <g id="line2d_16">
      <defs>
       <path id="meea868d465" d="M 0 0 
L -3.5 0 
" style="stroke: #000000; stroke-width: 0.8"/>
      </defs>
      <g>
       <use xlink:href="#meea868d465" x="57.6" y="293.794166" style="stroke: #000000; stroke-width: 0.8"/>
      </g>
     </g>
     <g id="text_9">
      <!-- −4 -->
      <g transform="translate(35.857813 297.593385) scale(0.1 -0.1)">
       <defs>
        <path id="DejaVuSans-2212" d="M 678 2272 
L 4684 2272 
L 4684 1741 
L 678 1741 
L 678 2272 
z
" transform="scale(0.015625)"/>
        <path id="DejaVuSans-34" d="M 2419 4116 
L 825 1625 
L 2419 1625 
L 2419 4116 
z
M 2253 4666 
L 3047 4666 
L 3047 1625 
L 3713 1625 
L 3713 1100 
L 3047 1100 
L 3047 0 
L 2419 0 
L 2419 1100 
L 313 1100 
L 313 1709 
L 2253 4666 
z
" transform="scale(0.015625)"/>
       </defs>
       <use xlink:href="#DejaVuSans-2212"/>
       <use xlink:href="#DejaVuSans-34" x="83.789062"/>
      </g>
     </g>
    </g>
    <g id="ytick_2">
     <g id="line2d_17">
      <path d="M 57.6 242.409813 
L 414.72 242.409813 
" clip-path="url(#p95f3cd5dcf)" style="fill: none; stroke: #b0b0b0; stroke-width: 0.8; stroke-linecap: square"/>
     </g>
     <g id="line2d_18">
      <g>
       <use xlink:href="#meea868d465" x="57.6" y="242.409813" style="stroke: #000000; stroke-width: 0.8"/>
      </g>
     </g>
     <g id="text_10">
      <!-- −2 -->
      <g transform="translate(35.857813 246.209032) scale(0.1 -0.1)">
       <use xlink:href="#DejaVuSans-2212"/>
       <use xlink:href="#DejaVuSans-32" x="83.789062"/>
      </g>
     </g>
    </g>
    <g id="ytick_3">
     <g id="line2d_19">
      <path d="M 57.6 191.02546 
L 414.72 191.02546 
" clip-path="url(#p95f3cd5dcf)" style="fill: none; stroke: #b0b0b0; stroke-width: 0.8; stroke-linecap: square"/>
     </g>
     <g id="line2d_20">
      <g>
       <use xlink:href="#meea868d465" x="57.6" y="191.02546" style="stroke: #000000; stroke-width: 0.8"/>
      </g>
     </g>
     <g id="text_11">
      <!-- 0 -->
      <g transform="translate(44.2375 194.824679) scale(0.1 -0.1)">
       <use xlink:href="#DejaVuSans-30"/>
      </g>
     </g>
    </g>
    <g id="ytick_4">
     <g id="line2d_21">
      <path d="M 57.6 139.641107 
L 414.72 139.641107 
" clip-path="url(#p95f3cd5dcf)" style="fill: none; stroke: #b0b0b0; stroke-width: 0.8; stroke-linecap: square"/>
     </g>
     <g id="line2d_22">
      <g>
       <use xlink:href="#meea868d465" x="57.6" y="139.641107" style="stroke: #000000; stroke-width: 0.8"/>
      </g>
     </g>
     <g id="text_12">
      <!-- 2 -->
      <g transform="translate(44.2375 143.440326) scale(0.1 -0.1)">
       <use xlink:href="#DejaVuSans-32"/>
      </g>
     </g>
    </g>
    <g id="ytick_5">
     <g id="line2d_23">
      <path d="M 57.6 88.256755 
L 414.72 88.256755 
" clip-path="url(#p95f3cd5dcf)" style="fill: none; stroke: #b0b0b0; stroke-width: 0.8; stroke-linecap: square"/>
     </g>
     <g id="line2d_24">
      <g>
       <use xlink:href="#meea868d465" x="57.6" y="88.256755" style="stroke: #000000; stroke-width: 0.8"/>
      </g>
     </g>
     <g id="text_13">
      <!-- 4 -->
      <g transform="translate(44.2375 92.055973) scale(0.1 -0.1)">
       <use xlink:href="#DejaVuSans-34"/>
      </g>
     </g>
    </g>
    <g id="text_14">
     <!-- Amplitude -->
     <g transform="translate(29.778125 200.150656) rotate(-90) scale(0.1 -0.1)">
      <defs>
       <path id="DejaVuSans-41" d="M 2188 4044 
L 1331 1722 
L 3047 1722 
L 2188 4044 
z
M 1831 4666 
L 2547 4666 
L 4325 0 
L 3669 0 
L 3244 1197 
L 1141 1197 
L 716 0 
L 50 0 
L 1831 4666 
z
" transform="scale(0.015625)"/>
       <path id="DejaVuSans-69" d="M 603 3500 
L 1178 3500 
L 1178 0 
L 603 0 
L 603 3500 
z
M 603 4863 
L 1178 4863 
L 1178 4134 
L 603 4134 
L 603 4863 
z
" transform="scale(0.015625)"/>
       <path id="DejaVuSans-74" d="M 1172 4494 
L 1172 3500 
L 2356 3500 
L 2356 3053 
L 1172 3053 
L 1172 1153 
Q 1172 725 1289 603 
Q 1406 481 1766 481 
L 2356 481 
L 2356 0 
L 1766 0 
Q 1100 0 847 248 
Q 594 497 594 1153 
L 594 3053 
L 172 3053 
L 172 3500 
L 594 3500 
L 594 4494 
L 1172 4494 
z
" transform="scale(0.015625)"/>
       <path id="DejaVuSans-75" d="M 544 1381 
L 544 3500 
L 1119 3500 
L 1119 1403 
Q 1119 906 1312 657 
Q 1506 409 1894 409 
Q 2359 409 2629 706 
Q 2900 1003 2900 1516 
L 2900 3500 
L 3475 3500 
L 3475 0 
L 2900 0 
L 2900 538 
Q 2691 219 2414 64 
Q 2138 -91 1772 -91 
Q 1169 -91 856 284 
Q 544 659 544 1381 
z
M 1991 3584 
L 1991 3584 
z
" transform="scale(0.015625)"/>
       <path id="DejaVuSans-64" d="M 2906 2969 
L 2906 4863 
L 3481 4863 
L 3481 0 
L 2906 0 
L 2906 525 
Q 2725 213 2448 61 
Q 2172 -91 1784 -91 
Q 1150 -91 751 415 
Q 353 922 353 1747 
Q 353 2572 751 3078 
Q 1150 3584 1784 3584 
Q 2172 3584 2448 3432 
Q 2725 3281 2906 2969 
z
M 947 1747 
Q 947 1113 1208 752 
Q 1469 391 1925 391 
Q 2381 391 2643 752 
Q 2906 1113 2906 1747 
Q 2906 2381 2643 2742 
Q 2381 3103 1925 3103 
Q 1469 3103 1208 2742 
Q 947 2381 947 1747 
z
" transform="scale(0.015625)"/>
      </defs>
      <use xlink:href="#DejaVuSans-41"/>
      <use xlink:href="#DejaVuSans-6d" x="68.408203"/>
      <use xlink:href="#DejaVuSans-70" x="165.820312"/>
      <use xlink:href="#DejaVuSans-6c" x="229.296875"/>
      <use xlink:href="#DejaVuSans-69" x="257.080078"/>
      <use xlink:href="#DejaVuSans-74" x="284.863281"/>
      <use xlink:href="#DejaVuSans-75" x="324.072266"/>
      <use xlink:href="#DejaVuSans-64" x="387.451172"/>
      <use xlink:href="#DejaVuSans-65" x="450.927734"/>
     </g>
    </g>
    <g id="text_15">
     <!-- 1e6 -->
     <g transform="translate(57.6 38.472) scale(0.1 -0.1)">
      <defs>
       <path id="DejaVuSans-36" d="M 2113 2584 
Q 1688 2584 1439 2293 
Q 1191 2003 1191 1497 
Q 1191 994 1439 701 
Q 1688 409 2113 409 
Q 2538 409 2786 701 
Q 3034 994 3034 1497 
Q 3034 2003 2786 2293 
Q 2538 2584 2113 2584 
z
M 3366 4563 
L 3366 3988 
Q 3128 4100 2886 4159 
Q 2644 4219 2406 4219 
Q 1781 4219 1451 3797 
Q 1122 3375 1075 2522 
Q 1259 2794 1537 2939 
Q 1816 3084 2150 3084 
Q 2853 3084 3261 2657 
Q 3669 2231 3669 1497 
Q 3669 778 3244 343 
Q 2819 -91 2113 -91 
Q 1303 -91 875 529 
Q 447 1150 447 2328 
Q 447 3434 972 4092 
Q 1497 4750 2381 4750 
Q 2619 4750 2861 4703 
Q 3103 4656 3366 4563 
z
" transform="scale(0.015625)"/>
      </defs>
      <use xlink:href="#DejaVuSans-31"/>
      <use xlink:href="#DejaVuSans-65" x="63.623047"/>
      <use xlink:href="#DejaVuSans-36" x="125.146484"/>
     </g>
    </g>
   </g>
   <g id="line2d_25">
    <path d="M 73.832727 264.201609 
L 74.042249 235.508972 
L 74.251772 242.08712 
L 74.461294 277.514832 
L 74.670816 242.735898 
L 74.880338 262.791571 
L 75.08986 252.518914 
L 75.299382 250.946039 
L 75.508904 266.248685 
L 75.718426 238.672321 
L 75.927949 213.553131 
L 76.137471 249.783802 
L 76.346993 259.797302 
L 76.556515 231.025995 
L 76.870798 270.870168 
L 76.975559 270.870168 
L 77.185081 245.196001 
L 77.394604 242.132363 
L 77.604126 249.68666 
L 77.813648 241.65621 
L 78.02317 254.720117 
L 78.442214 232.754848 
L 78.651736 249.015169 
L 78.861258 253.168001 
L 79.070781 230.774649 
L 79.280303 234.509906 
L 79.489825 256.196364 
L 79.908869 254.16663 
L 80.118391 257.065941 
L 80.327913 248.263365 
L 80.537436 248.052252 
L 80.746958 242.692479 
L 80.95648 240.439943 
L 81.166002 248.856931 
L 81.375524 248.726492 
L 81.585046 255.061874 
L 81.794568 252.479631 
L 82.00409 244.240021 
L 82.213613 238.674865 
L 82.423135 256.124014 
L 82.632657 261.567776 
L 82.842179 236.884634 
L 83.051701 252.172558 
L 83.261223 231.222489 
L 83.470745 247.947633 
L 83.680268 236.850771 
L 83.88979 267.788108 
L 84.099312 269.631933 
L 84.308834 239.181848 
L 84.518356 255.454964 
L 84.727878 243.810345 
L 84.9374 245.964891 
L 85.146922 225.476305 
L 85.356445 249.996379 
L 85.565967 264.27514 
L 85.985011 245.075942 
L 86.299294 262.025328 
L 86.404055 262.025328 
L 86.613577 248.362768 
L 86.8231 256.134985 
L 87.032622 260.134589 
L 87.242144 233.885689 
L 87.451666 252.729975 
L 87.661188 255.849828 
L 87.87071 255.619549 
L 88.080232 241.090828 
L 88.289754 265.510908 
L 88.499277 246.640672 
L 88.708799 243.954042 
L 88.918321 256.088379 
L 89.127843 254.836785 
L 89.337365 262.410659 
L 89.546887 240.076835 
L 89.756409 242.732147 
L 89.965932 258.095581 
L 90.175454 250.925228 
L 90.384976 263.639721 
L 90.594498 251.356728 
L 90.80402 243.839686 
L 91.013542 258.65531 
L 91.537348 235.335344 
L 91.642109 235.335344 
L 91.956392 255.380637 
L 92.061153 255.380637 
L 92.270675 262.143897 
L 92.480197 233.560117 
L 92.689719 246.394901 
L 93.004002 239.262136 
L 93.108764 239.262136 
L 93.318286 250.657696 
L 93.73733 230.546142 
L 93.946852 252.105861 
L 94.156374 255.847567 
L 94.365896 255.298807 
L 94.575418 246.944559 
L 94.784941 250.840727 
L 95.099224 236.556879 
L 95.203985 236.556879 
L 95.413507 250.544136 
L 95.623029 253.132726 
L 95.937312 234.581792 
L 96.042073 234.581792 
L 96.251596 256.244922 
L 96.461118 232.395285 
L 96.67064 263.898904 
L 96.880162 262.008319 
L 97.089684 242.934114 
L 97.299206 241.543833 
L 97.508728 241.271598 
L 97.71825 244.880116 
L 97.927773 245.943053 
L 98.137295 254.80562 
L 98.556339 271.075474 
L 98.765861 245.756528 
L 98.975383 231.545799 
L 99.184905 256.06058 
L 99.394428 245.0345 
L 99.708711 262.557541 
L 99.813472 262.557541 
L 100.022994 219.651786 
L 100.232516 248.277136 
L 100.442038 262.136215 
L 100.65156 255.965828 
L 100.861082 263.652953 
L 101.070605 263.453735 
L 101.280127 260.851349 
L 101.489649 273.904593 
L 101.699171 239.545752 
L 101.908693 240.706371 
L 102.118215 246.96925 
L 102.53726 262.203015 
L 102.746782 232.220527 
L 102.956304 244.884972 
L 103.165826 238.140236 
L 103.375348 240.137854 
L 103.58487 267.064411 
L 103.794392 248.356858 
L 104.003914 256.429674 
L 104.213437 242.268249 
L 104.52772 255.237506 
L 104.632481 255.237506 
L 104.842003 254.522338 
L 105.051525 265.950116 
L 105.261047 235.538929 
L 105.470569 262.025507 
L 105.680092 251.638032 
L 105.889614 261.516237 
L 106.099136 259.70481 
L 106.308658 251.577398 
L 106.51818 248.692527 
L 106.727702 255.269107 
L 106.937224 257.510441 
L 107.146746 241.016912 
L 107.356269 234.920338 
L 107.775313 256.919701 
L 107.984835 238.842095 
L 108.194357 260.052014 
L 108.403879 240.025759 
L 108.613401 256.571778 
L 108.822924 258.004964 
L 109.032446 252.827117 
L 109.241968 252.273913 
L 109.45149 248.865358 
L 109.661012 248.784273 
L 109.870534 249.212768 
L 110.080056 261.471122 
L 110.289578 253.330992 
L 110.603862 257.479559 
L 110.708623 257.479559 
L 110.918145 265.24764 
L 111.127667 245.252113 
L 111.337189 236.936301 
L 111.651472 260.93192 
L 111.756233 260.93192 
L 111.965756 241.359594 
L 112.175278 249.911364 
L 112.3848 256.273209 
L 112.594322 249.489472 
L 112.803844 260.208685 
L 113.013366 243.100342 
L 113.222888 245.855622 
L 113.537172 239.451642 
L 113.641933 239.451642 
L 113.851455 252.939829 
L 114.060977 253.001901 
L 114.270499 251.857238 
L 114.480021 259.647953 
L 114.689543 259.578893 
L 114.899065 259.280221 
L 115.108588 253.23033 
L 115.31811 253.320381 
L 115.527632 244.064133 
L 115.737154 246.271347 
L 115.946676 236.626273 
L 116.156198 231.149729 
L 116.36572 254.565681 
L 116.575242 260.912831 
L 116.784765 251.469723 
L 116.994287 253.78356 
L 117.413331 226.218681 
L 117.622853 250.363263 
L 117.832375 254.36076 
L 118.146658 243.486341 
L 118.25142 243.486341 
L 118.460942 244.872768 
L 118.670464 258.644032 
L 118.879986 248.320555 
L 119.194269 237.830337 
L 119.29903 237.830337 
L 119.508552 238.285885 
L 119.718074 254.327977 
L 119.927597 257.52673 
L 120.346641 237.387378 
L 120.556163 242.749387 
L 120.765685 263.006178 
L 120.975207 241.610607 
L 121.184729 236.078773 
L 121.394252 255.547662 
L 121.603774 250.776496 
L 121.813296 246.401761 
L 122.127579 250.62648 
L 122.23234 250.62648 
L 122.441862 246.107817 
L 122.651384 253.657977 
L 122.860906 246.506919 
L 123.070429 251.155713 
L 123.279951 244.367531 
L 123.594234 273.365161 
L 123.698995 273.365161 
L 123.908517 241.216078 
L 124.118039 228.873402 
L 124.327561 236.280534 
L 124.537084 259.450458 
L 124.746606 260.716106 
L 124.956128 245.537373 
L 125.16565 240.646302 
L 125.375172 236.909016 
L 125.689455 249.716591 
L 125.794216 249.716591 
L 126.003738 238.740636 
L 126.213261 260.113007 
L 126.422783 237.255141 
L 126.632305 252.003657 
L 127.051349 241.714583 
L 127.260871 264.28367 
L 127.470393 230.952952 
L 127.679916 256.437356 
L 127.889438 233.666432 
L 128.09896 249.921127 
L 128.308482 229.818566 
L 128.622765 242.641685 
L 128.727526 242.641685 
L 128.937048 230.192079 
L 129.14657 253.217484 
L 129.356093 247.668205 
L 129.565615 251.04945 
L 129.984659 257.981019 
L 130.194181 249.019357 
L 130.508464 232.833414 
L 130.613225 232.833414 
L 130.822748 259.651525 
L 131.03227 253.538662 
L 131.241792 255.449877 
L 131.451314 254.453946 
L 131.660836 246.552754 
L 131.975119 249.95576 
L 132.07988 249.95576 
L 132.289402 246.769853 
L 132.498925 244.502775 
L 132.708447 249.352482 
L 132.917969 241.362138 
L 133.127491 258.081219 
L 133.337013 247.489465 
L 133.546535 255.410979 
L 133.756057 237.989808 
L 133.96558 251.401356 
L 134.175102 248.806677 
L 134.384624 235.425832 
L 134.594146 259.770993 
L 134.803668 250.171908 
L 135.01319 263.92493 
L 135.222712 259.37279 
L 135.641757 250.629152 
L 135.851279 249.924775 
L 136.060801 243.093945 
L 136.270323 250.712754 
L 136.584606 246.806644 
L 136.689367 246.806644 
L 136.898889 247.022818 
L 137.317934 240.611053 
L 137.527456 230.904343 
L 137.736978 236.381041 
L 137.9465 240.246763 
L 138.156022 242.478283 
L 138.365544 249.995223 
L 138.575066 236.290476 
L 138.784589 243.66724 
L 138.994111 240.849322 
L 139.203633 245.127121 
L 139.413155 241.516702 
L 139.622677 254.392644 
L 139.832199 257.887859 
L 140.041721 235.256186 
L 140.251244 268.096132 
L 140.670288 245.62578 
L 140.87981 243.093456 
L 141.089332 251.95104 
L 141.298854 245.056236 
L 141.508376 250.769739 
L 141.717898 247.706281 
L 141.927421 265.259073 
L 142.136943 261.777552 
L 142.346465 245.506954 
L 142.555987 246.837397 
L 142.765509 244.609552 
L 142.975031 251.136829 
L 143.184553 236.462306 
L 143.498837 261.368019 
L 143.603598 261.368019 
L 143.81312 237.261538 
L 144.022642 254.66624 
L 144.232164 258.917833 
L 144.441686 247.420764 
L 144.651208 273.032267 
L 144.86073 229.623665 
L 145.070253 279.465408 
L 145.384536 53.568 
L 145.489297 53.568 
L 145.698819 98.949556 
L 145.908341 53.707303 
L 146.117863 84.032061 
L 146.327385 62.604375 
L 146.536908 77.589363 
L 146.74643 60.190313 
L 146.955952 67.478104 
L 147.374996 73.436505 
L 147.584518 66.602823 
L 147.79404 72.137123 
L 148.003562 67.307945 
L 148.213085 84.832784 
L 148.632129 58.751551 
L 148.841651 81.081469 
L 149.051173 71.101857 
L 149.260695 64.563918 
L 149.470217 64.521628 
L 149.67974 74.220964 
L 149.889262 74.102498 
L 150.098784 64.713035 
L 150.308306 67.406911 
L 150.517828 64.604845 
L 150.72735 69.419867 
L 151.146394 66.044455 
L 151.355917 78.045399 
L 151.565439 68.336248 
L 151.774961 68.432568 
L 151.984483 67.156592 
L 152.194005 70.09868 
L 152.403527 69.4452 
L 152.613049 64.342657 
L 152.822572 67.373434 
L 153.032094 64.313342 
L 153.241616 67.307611 
L 153.451138 65.160053 
L 153.66066 79.721762 
L 153.870182 73.814386 
L 154.079704 73.589785 
L 154.289226 83.356897 
L 154.498749 65.0161 
L 154.708271 72.600867 
L 154.917793 66.360751 
L 155.127315 75.378525 
L 155.546359 64.253684 
L 155.755881 68.20545 
L 155.965404 64.320947 
L 156.174926 68.958847 
L 156.384448 63.672219 
L 156.59397 80.862084 
L 156.803492 68.782213 
L 157.013014 83.319669 
L 157.222536 81.601299 
L 157.432058 59.687054 
L 157.641581 71.871235 
L 157.851103 62.857161 
L 158.060625 70.160573 
L 158.270147 63.293799 
L 158.479669 75.878752 
L 158.689191 70.959214 
L 158.898713 66.545581 
L 159.317758 77.083073 
L 159.52728 70.999448 
L 159.736802 65.822886 
L 159.946324 68.346679 
L 160.155846 66.040807 
L 160.365368 68.181659 
L 160.57489 66.186456 
L 160.784413 68.88398 
L 160.993935 63.919635 
L 161.203457 78.061123 
L 161.412979 75.546578 
L 161.622501 63.015039 
L 161.832023 74.220528 
L 162.041545 64.344866 
L 162.251067 83.355638 
L 162.670112 64.658208 
L 162.879634 71.232939 
L 163.089156 65.193787 
L 163.298678 69.297033 
L 163.5082 66.642569 
L 163.717722 68.956843 
L 163.927245 66.829479 
L 164.136767 67.479286 
L 164.346289 72.089696 
L 164.555811 71.52529 
L 164.765333 65.670223 
L 165.079616 77.626925 
L 165.184377 77.626925 
L 165.393899 73.922344 
L 165.603422 73.569436 
L 165.812944 69.699912 
L 166.022466 72.902853 
L 166.231988 70.623931 
L 166.44151 72.521735 
L 166.651032 73.431213 
L 166.860554 69.786906 
L 167.070077 74.76384 
L 167.279599 63.469379 
L 167.489121 79.535545 
L 167.698643 72.911768 
L 167.908165 66.983504 
L 168.117687 69.49011 
L 168.327209 68.342389 
L 168.536731 68.369263 
L 168.746254 69.739375 
L 168.955776 69.828347 
L 169.165298 75.826237 
L 169.37482 74.640929 
L 169.584342 65.455359 
L 169.793864 71.558433 
L 170.003386 66.491756 
L 170.212909 82.29879 
L 170.422431 74.798396 
L 170.631953 68.434084 
L 170.841475 71.17639 
L 171.050997 67.768888 
L 171.260519 69.472356 
L 171.574802 71.811038 
L 171.679563 71.811038 
L 171.889086 67.085862 
L 172.098608 73.130948 
L 172.30813 70.140713 
L 172.517652 71.645786 
L 172.727174 71.36903 
L 172.936696 68.812247 
L 173.146218 68.998798 
L 173.355741 71.152805 
L 173.565263 71.589854 
L 173.774785 83.763398 
L 174.193829 65.945129 
L 174.403351 72.032274 
L 174.612873 67.732765 
L 175.031918 80.152543 
L 175.24144 79.288541 
L 175.450962 67.330657 
L 175.660484 71.119071 
L 175.870006 68.964525 
L 176.28905 74.577829 
L 176.498573 69.299962 
L 176.708095 81.940204 
L 176.917617 79.165372 
L 177.127139 65.728518 
L 177.336661 72.446714 
L 177.546183 68.905741 
L 177.755705 69.794742 
L 177.965227 75.442345 
L 178.17475 74.137234 
L 178.384272 73.502457 
L 178.593794 76.424736 
L 178.803316 67.315729 
L 179.012838 72.332384 
L 179.22236 68.37638 
L 179.431882 74.056355 
L 179.641405 70.113607 
L 179.955688 81.185086 
L 180.060449 81.185086 
L 180.269971 71.837141 
L 180.479493 70.198109 
L 180.689015 69.900979 
L 180.898537 74.636253 
L 181.108059 77.574538 
L 181.317582 71.468793 
L 181.631865 83.648426 
L 181.736626 83.648426 
L 181.946148 74.99417 
L 182.15567 66.974435 
L 182.365192 81.455573 
L 182.679475 69.608782 
L 182.784237 69.608782 
L 182.993759 74.704774 
L 183.203281 69.755433 
L 183.412803 69.611711 
L 183.622325 76.342624 
L 183.831847 76.810659 
L 184.041369 69.024285 
L 184.250891 79.626932 
L 184.460414 75.397949 
L 184.669936 86.278431 
L 184.879458 79.432545 
L 185.08898 78.369403 
L 185.298502 85.541734 
L 185.508024 73.407113 
L 185.717546 69.76738 
L 185.927069 73.928536 
L 186.136591 71.109719 
L 186.346113 76.036245 
L 186.555635 73.402155 
L 186.765157 78.275909 
L 186.974679 82.512369 
L 187.184201 75.97705 
L 187.393723 79.062783 
L 187.603246 70.285822 
L 187.812768 72.952131 
L 188.02229 70.879671 
L 188.231812 71.139059 
L 188.441334 75.293381 
L 188.650856 75.719281 
L 188.860378 70.596826 
L 189.069901 71.310889 
L 189.279423 74.534024 
L 189.488945 73.887223 
L 189.698467 75.441548 
L 189.907989 85.736352 
L 190.117511 84.025484 
L 190.327033 74.816098 
L 190.536555 70.558442 
L 190.746078 72.63789 
L 190.9556 70.745198 
L 191.165122 72.794458 
L 191.374644 70.018803 
L 191.584166 78.836924 
L 191.793688 76.610131 
L 192.00321 69.514363 
L 192.212733 74.526881 
L 192.422255 68.70971 
L 192.631777 82.269373 
L 193.050821 67.754269 
L 193.260343 82.905511 
L 193.574626 70.103228 
L 193.679387 70.103228 
L 193.88891 72.899333 
L 194.203193 70.114738 
L 194.307954 70.114738 
L 194.517476 83.707312 
L 194.726998 91.503783 
L 194.93652 72.850929 
L 195.250803 88.635971 
L 195.355565 88.635971 
L 195.565087 71.02568 
L 195.774609 94.577775 
L 195.984131 94.656856 
L 196.193653 75.193259 
L 196.403175 80.24596 
L 196.612697 68.788919 
L 196.822219 73.945647 
L 197.031742 74.271372 
L 197.450786 93.939941 
L 197.660308 82.720861 
L 197.86983 78.760566 
L 198.079352 94.920432 
L 198.288874 72.978234 
L 198.498397 73.519054 
L 198.917441 79.621126 
L 199.126963 72.217874 
L 199.336485 74.752304 
L 199.546007 72.330046 
L 199.755529 86.680514 
L 199.965051 80.397184 
L 200.174574 79.643298 
L 200.384096 81.170184 
L 200.593618 68.320756 
L 200.80314 80.632807 
L 201.012662 74.489165 
L 201.222184 73.651292 
L 201.536467 74.88372 
L 201.641229 74.88372 
L 201.850751 73.192789 
L 202.060273 75.622498 
L 202.269795 73.544875 
L 202.479317 73.067463 
L 202.7936 77.72399 
L 202.898361 77.72399 
L 203.107883 73.634027 
L 203.317406 73.803749 
L 203.526928 72.25022 
L 203.73645 78.33161 
L 203.945972 74.103294 
L 204.155494 80.308648 
L 204.365016 80.37383 
L 204.574538 82.401173 
L 204.784061 80.388397 
L 204.993583 70.87145 
L 205.203105 75.227353 
L 205.412627 79.271327 
L 205.622149 80.668673 
L 205.831671 69.393893 
L 206.041193 82.128888 
L 206.250715 76.283841 
L 206.460238 72.366118 
L 206.66976 77.584661 
L 206.879282 78.525689 
L 207.088804 84.98614 
L 207.507848 69.765684 
L 207.71737 83.652254 
L 207.926893 76.166119 
L 208.136415 81.60559 
L 208.345937 81.335513 
L 208.555459 73.651009 
L 208.764981 89.409434 
L 208.974503 79.194225 
L 209.184025 74.679724 
L 209.393547 74.363684 
L 209.707831 74.991601 
L 209.812592 74.991601 
L 210.022114 73.594743 
L 210.231636 78.973118 
L 210.441158 74.712122 
L 210.65068 83.210297 
L 210.860202 81.613349 
L 211.069725 71.393951 
L 211.279247 77.329795 
L 211.488769 77.163335 
L 211.698291 81.841906 
L 211.907813 74.072386 
L 212.117335 78.31306 
L 212.326857 73.533108 
L 212.536379 83.221396 
L 212.745902 83.194959 
L 212.955424 75.684468 
L 213.164946 76.250621 
L 213.374468 76.279961 
L 213.58399 79.306011 
L 213.793512 80.11105 
L 214.003034 77.626539 
L 214.212557 77.038702 
L 214.422079 77.4534 
L 214.841123 92.176764 
L 215.050645 78.776598 
L 215.260167 75.924792 
L 215.469689 74.248635 
L 215.679211 77.485566 
L 215.888734 73.071933 
L 216.098256 84.368423 
L 216.307778 77.754024 
L 216.5173 86.489338 
L 216.726822 87.511013 
L 216.936344 81.149862 
L 217.145866 89.630001 
L 217.355389 79.774457 
L 217.564911 80.047873 
L 217.774433 76.741624 
L 217.983955 84.078975 
L 218.193477 73.501481 
L 218.402999 80.498 
L 218.612521 72.909327 
L 218.822043 91.73807 
L 219.241088 70.979511 
L 219.45061 82.939733 
L 219.660132 74.747911 
L 219.869654 78.825259 
L 220.079176 73.260205 
L 220.288698 89.093395 
L 220.602982 73.537167 
L 220.707743 73.537167 
L 220.917265 77.968271 
L 221.126787 74.467918 
L 221.336309 77.391096 
L 221.545831 75.409639 
L 221.755353 77.699351 
L 221.964875 73.992792 
L 222.174398 83.551387 
L 222.38392 87.587884 
L 222.698203 75.684802 
L 222.802964 75.684802 
L 223.012486 84.147419 
L 223.222008 81.733254 
L 223.536291 88.654752 
L 223.641053 88.654752 
L 223.850575 74.819952 
L 224.060097 80.545993 
L 224.269619 76.82926 
L 224.479141 76.920724 
L 224.793424 79.940274 
L 224.898185 79.940274 
L 225.107707 75.093959 
L 225.31723 81.653094 
L 225.631513 78.44743 
L 225.736274 78.44743 
L 225.945796 92.10498 
L 226.260079 72.345076 
L 226.36484 72.345076 
L 226.574362 87.828055 
L 226.783885 82.755854 
L 226.993407 85.167399 
L 227.202929 94.568397 
L 227.412451 79.624774 
L 227.831495 74.875293 
L 228.041017 87.860915 
L 228.250539 80.142086 
L 228.460062 90.62547 
L 228.669584 97.560585 
L 228.879106 76.896034 
L 229.088628 78.133035 
L 229.29815 84.410559 
L 229.507672 89.499511 
L 229.717194 77.145787 
L 229.926717 79.610181 
L 230.136239 78.434892 
L 230.345761 79.226263 
L 230.555283 77.507353 
L 230.764805 80.917425 
L 230.974327 77.680005 
L 231.183849 78.173346 
L 231.393371 76.805649 
L 231.602894 82.354003 
L 231.917177 77.002939 
L 232.021938 77.002939 
L 232.23146 78.119007 
L 232.440982 82.114012 
L 232.650504 81.398382 
L 232.860026 76.088426 
L 233.17431 89.277171 
L 233.279071 89.277171 
L 233.593354 75.826854 
L 233.698115 75.826854 
L 233.907637 80.325477 
L 234.117159 77.329641 
L 234.326681 78.433479 
L 234.536203 78.025976 
L 234.745726 78.119315 
L 234.955248 83.502571 
L 235.16477 83.423928 
L 235.374292 75.021841 
L 235.583814 92.154772 
L 235.898097 83.128108 
L 236.002858 83.128108 
L 236.212381 81.943956 
L 236.421903 77.20583 
L 236.736186 87.27873 
L 236.840947 87.27873 
L 237.050469 82.707167 
L 237.259991 82.563137 
L 237.469513 84.955901 
L 237.679035 73.708842 
L 237.888558 89.966209 
L 238.09808 80.996634 
L 238.307602 85.988469 
L 238.517124 85.183533 
L 238.726646 76.770913 
L 238.936168 79.827254 
L 239.14569 78.417756 
L 239.355213 77.461056 
L 239.564735 93.043592 
L 239.774257 90.291601 
L 239.983779 72.499075 
L 240.193301 91.035852 
L 240.507584 83.284471 
L 240.612345 83.284471 
L 240.821867 77.998074 
L 241.03139 85.690157 
L 241.240912 83.226226 
L 241.450434 75.290144 
L 241.659956 96.701516 
L 241.974239 77.254568 
L 242.079 77.254568 
L 242.288522 84.479619 
L 242.498045 73.709356 
L 242.707567 97.312964 
L 242.917089 87.853953 
L 243.126611 79.392388 
L 243.336133 88.334679 
L 243.545655 91.828455 
L 243.755177 87.192533 
L 243.964699 83.400419 
L 244.174222 84.6376 
L 244.488505 101.84956 
L 244.593266 101.84956 
L 244.802788 82.985028 
L 245.01231 81.330221 
L 245.221832 85.938087 
L 245.431354 85.510723 
L 245.640877 80.086463 
L 245.850399 98.864104 
L 246.059921 87.348331 
L 246.269443 77.907329 
L 246.478965 87.328907 
L 246.688487 83.05802 
L 246.898009 80.788553 
L 247.107531 81.585164 
L 247.317054 82.034623 
L 247.526576 81.72976 
L 247.840859 92.989947 
L 247.94562 92.989947 
L 248.155142 80.245137 
L 248.364664 86.21659 
L 248.678947 79.295066 
L 248.783709 79.295066 
L 248.993231 80.366739 
L 249.202753 90.038687 
L 249.621797 77.971662 
L 249.93608 89.434612 
L 250.040841 89.434612 
L 250.250363 86.685215 
L 250.459886 77.749091 
L 250.669408 82.449423 
L 250.87893 83.490136 
L 251.088452 88.174437 
L 251.402735 83.058379 
L 251.507496 83.058379 
L 251.926541 86.410001 
L 252.136063 77.113698 
L 252.345585 88.461136 
L 252.555107 81.637114 
L 252.86939 95.07998 
L 252.974151 95.07998 
L 253.183673 81.308434 
L 253.393195 86.545656 
L 253.602718 81.679275 
L 253.81224 90.677805 
L 254.021762 90.467592 
L 254.231284 79.659715 
L 254.440806 83.284471 
L 254.650328 80.015578 
L 254.85985 82.212105 
L 255.069373 80.875623 
L 255.278895 82.749405 
L 255.488417 80.152723 
L 255.697939 82.458133 
L 255.907461 79.884342 
L 256.116983 86.661065 
L 256.326505 84.029055 
L 256.536027 83.467913 
L 256.74555 92.41213 
L 256.955072 84.844782 
L 257.164594 78.785231 
L 257.374116 92.751626 
L 257.79316 84.968798 
L 258.002682 85.755955 
L 258.212205 80.465833 
L 258.421727 87.199933 
L 258.631249 79.798453 
L 258.840771 91.114521 
L 259.050293 86.042834 
L 259.259815 87.713211 
L 259.469337 99.198513 
L 259.678859 84.77639 
L 259.888382 82.417745 
L 260.097904 80.575256 
L 260.307426 89.33061 
L 260.72647 79.831493 
L 260.935992 85.21922 
L 261.145514 78.723544 
L 261.355037 102.482872 
L 261.564559 90.821399 
L 261.774081 84.825641 
L 261.983603 89.076592 
L 262.193125 78.251836 
L 262.402647 84.226371 
L 262.612169 81.248468 
L 262.926453 85.706909 
L 263.031214 85.706909 
L 263.240736 84.429365 
L 263.555019 104.096161 
L 263.65978 104.096161 
L 263.869302 85.289976 
L 264.078824 81.167358 
L 264.288346 92.341759 
L 264.497869 89.395072 
L 264.707391 79.741006 
L 264.916913 86.711267 
L 265.126435 82.551267 
L 265.335957 82.068023 
L 265.545479 88.520716 
L 265.964523 81.907473 
L 266.174046 81.18303 
L 266.383568 95.221261 
L 266.697851 84.370402 
L 266.802612 84.370402 
L 267.012134 87.82158 
L 267.221656 85.560952 
L 267.431178 95.207259 
L 267.640701 84.693712 
L 267.850223 93.459138 
L 268.059745 85.017922 
L 268.269267 85.353616 
L 268.478789 85.495848 
L 268.688311 82.93814 
L 268.897833 83.999509 
L 269.107355 83.12708 
L 269.316878 84.134907 
L 269.5264 82.768674 
L 269.735922 83.796824 
L 269.945444 84.482034 
L 270.154966 87.666502 
L 270.469249 82.211462 
L 270.57401 82.211462 
L 270.783533 90.011453 
L 271.097816 84.056392 
L 271.202577 84.056392 
L 271.412099 99.243731 
L 271.621621 87.488918 
L 271.831143 83.335264 
L 272.040665 82.991682 
L 272.250187 93.862967 
L 272.669232 81.391497 
L 272.878754 86.209062 
L 273.088276 82.674487 
L 273.297798 83.84456 
L 273.50732 87.748075 
L 273.716842 87.453668 
L 273.926365 86.131678 
L 274.135887 92.996781 
L 274.345409 83.222912 
L 274.554931 90.679527 
L 274.764453 91.973719 
L 274.973975 85.07853 
L 275.183497 84.049815 
L 275.393019 84.904465 
L 275.602542 83.317845 
L 275.916825 95.362568 
L 276.021586 95.362568 
L 276.231108 96.696506 
L 276.545391 83.45296 
L 276.650152 83.45296 
L 276.964435 94.045793 
L 277.069197 94.045793 
L 277.278719 88.462086 
L 277.488241 85.864839 
L 277.697763 87.88003 
L 277.907285 83.239869 
L 278.116807 85.328925 
L 278.43109 87.228425 
L 278.535851 87.228425 
L 278.745374 83.514493 
L 278.954896 86.00314 
L 279.164418 83.572531 
L 279.37394 88.553499 
L 279.583462 87.67976 
L 279.792984 84.747409 
L 280.212029 85.421854 
L 280.421551 83.877086 
L 280.631073 89.097325 
L 280.840595 87.757838 
L 281.050117 100.396411 
L 281.3644 81.39237 
L 281.469161 81.39237 
L 281.678683 87.101506 
L 281.888206 86.555213 
L 282.30725 98.563377 
L 282.516772 98.607747 
L 282.935816 94.260322 
L 283.145338 80.026189 
L 283.354861 93.484907 
L 283.564383 86.571605 
L 283.773905 85.7502 
L 283.983427 86.357435 
L 284.192949 84.251241 
L 284.402471 94.303717 
L 284.716754 85.761505 
L 284.821515 85.761505 
L 285.031038 94.232292 
L 285.345321 82.526089 
L 285.450082 82.526089 
L 285.659604 100.872384 
L 286.078648 82.005411 
L 286.28817 88.847957 
L 286.497693 84.180537 
L 286.811976 88.841894 
L 286.916737 88.841894 
L 287.126259 89.13201 
L 287.335781 85.355902 
L 287.754825 91.952214 
L 287.964347 90.355112 
L 288.17387 84.306711 
L 288.383392 87.601553 
L 288.592914 85.819338 
L 288.802436 86.876905 
L 289.011958 87.525709 
L 289.22148 87.791649 
L 289.431002 85.559975 
L 289.640525 86.966827 
L 289.850047 86.26967 
L 290.059569 87.090869 
L 290.269091 87.835506 
L 290.478613 96.585876 
L 290.792896 83.888057 
L 290.897657 83.888057 
L 291.107179 88.122128 
L 291.316702 85.863092 
L 291.526224 101.849509 
L 291.840507 85.094921 
L 291.945268 85.094921 
L 292.15479 108.864706 
L 292.364312 91.876037 
L 292.573834 93.954149 
L 292.783357 94.882767 
L 292.992879 83.661169 
L 293.202401 90.886246 
L 293.411923 84.534446 
L 293.621445 101.916129 
L 293.830967 89.368275 
L 294.040489 93.837018 
L 294.250011 92.266969 
L 294.459534 84.391572 
L 294.669056 88.873213 
L 294.878578 86.454114 
L 295.0881 93.214317 
L 295.297622 88.682859 
L 295.507144 85.830899 
L 295.716666 92.219156 
L 295.926189 90.488146 
L 296.135711 84.534112 
L 296.345233 89.415549 
L 296.554755 83.629671 
L 296.764277 101.828801 
L 297.183321 88.14078 
L 297.392843 110.626444 
L 297.602366 90.660437 
L 297.811888 97.72391 
L 298.126171 89.939078 
L 298.230932 89.939078 
L 298.440454 92.754864 
L 298.649976 87.965996 
L 298.859498 100.035924 
L 299.069021 85.427352 
L 299.278543 99.543225 
L 299.488065 89.8313 
L 299.697587 96.634048 
L 299.907109 98.44193 
L 300.116631 104.849867 
L 300.535675 82.68741 
L 300.745198 91.838321 
L 300.95472 85.292982 
L 301.164242 95.889104 
L 301.373764 97.3969 
L 301.583286 90.640398 
L 301.792808 96.233302 
L 302.00233 98.832862 
L 302.211853 88.07321 
L 302.421375 90.812792 
L 302.630897 86.53358 
L 302.840419 89.250014 
L 303.259463 94.404019 
L 303.468985 88.521872 
L 303.678507 90.636544 
L 303.88803 98.403263 
L 304.097552 91.363041 
L 304.307074 90.960676 
L 304.516596 91.966808 
L 304.726118 86.955189 
L 304.93564 89.248627 
L 305.145162 87.953381 
L 305.354685 89.72943 
L 305.564207 87.390414 
L 305.773729 89.883249 
L 305.983251 86.292716 
L 306.192773 99.163135 
L 306.507056 85.903788 
L 306.611817 85.903788 
L 306.821339 90.206816 
L 307.030862 91.213744 
L 307.240384 92.014184 
L 307.449906 85.857336 
L 307.659428 96.040174 
L 307.86895 105.527909 
L 308.078472 95.188606 
L 308.287994 87.03224 
L 308.497517 91.056919 
L 308.707039 92.85365 
L 308.916561 110.979738 
L 309.126083 98.300469 
L 309.335605 88.14895 
L 309.545127 93.857906 
L 309.754649 91.093556 
L 309.964171 88.768594 
L 310.173694 89.690686 
L 310.383216 90.404749 
L 310.592738 87.226267 
L 310.80226 100.463878 
L 311.221304 86.712244 
L 311.430826 92.779091 
L 311.640348 87.853028 
L 311.849871 90.291523 
L 312.059393 89.233674 
L 312.268915 89.632571 
L 312.478437 89.646727 
L 312.687959 86.786725 
L 312.897481 103.795743 
L 313.316526 85.192654 
L 313.526048 95.762467 
L 313.73557 95.060325 
L 313.945092 105.853891 
L 314.154614 93.137883 
L 314.468897 86.883636 
L 314.573658 86.883636 
L 314.78318 105.931071 
L 315.097464 90.854902 
L 315.202225 90.854902 
L 315.411747 97.166853 
L 315.621269 85.100805 
L 315.830791 97.543757 
L 316.040313 90.807782 
L 316.249835 91.47136 
L 316.459358 89.272186 
L 316.66888 91.075109 
L 316.878402 90.270302 
L 317.087924 92.015314 
L 317.297446 90.896035 
L 317.506968 91.201977 
L 317.71649 89.960326 
L 317.926012 91.003788 
L 318.135535 90.865872 
L 318.345057 90.002821 
L 318.554579 89.558397 
L 318.868862 98.324208 
L 318.973623 98.324208 
L 319.183145 97.484382 
L 319.392667 93.385581 
L 319.60219 89.691791 
L 319.811712 104.189218 
L 320.021234 95.639556 
L 320.230756 90.670123 
L 320.440278 94.827734 
L 320.6498 89.787212 
L 320.859322 91.298477 
L 321.068844 90.264521 
L 321.278367 91.637408 
L 321.487889 89.928776 
L 321.697411 91.530066 
L 321.906933 90.000123 
L 322.116455 91.916734 
L 322.325977 91.046 
L 322.535499 90.914019 
L 322.745022 90.131949 
L 322.954544 91.329513 
L 323.164066 88.111054 
L 323.373588 104.791571 
L 323.58311 107.026123 
L 323.792632 89.667204 
L 324.002154 99.319729 
L 324.211676 91.42722 
L 324.421199 98.611318 
L 324.630721 99.327308 
L 324.840243 99.442152 
L 325.259287 88.549234 
L 325.468809 92.485481 
L 325.678331 89.519936 
L 325.887854 92.709568 
L 326.097376 90.989606 
L 326.306898 93.633408 
L 326.51642 89.227379 
L 326.725942 108.153084 
L 326.935464 97.62998 
L 327.144986 88.062496 
L 327.354508 92.55115 
L 327.564031 92.055728 
L 327.773553 94.205958 
L 327.983075 87.588167 
L 328.192597 105.559767 
L 328.402119 104.291987 
L 328.611641 107.287772 
L 328.821163 93.985956 
L 329.030686 84.512634 
L 329.240208 107.061218 
L 329.554491 78.826261 
L 329.659252 78.826261 
L 329.868774 212.448907 
L 330.078296 290.199651 
L 330.287818 261.535609 
L 330.49734 261.143495 
L 330.706863 267.436203 
L 331.021146 262.843983 
L 331.125907 262.843983 
L 331.335429 269.552647 
L 331.544951 257.063166 
L 331.754473 279.850662 
L 331.963995 269.234424 
L 332.173518 272.453885 
L 332.38304 260.412321 
L 332.592562 259.922937 
L 332.802084 273.533804 
L 333.011606 258.302454 
L 333.221128 265.084033 
L 333.43065 270.242328 
L 333.640172 257.090015 
L 333.849695 267.589662 
L 334.059217 273.469651 
L 334.268739 264.617206 
L 334.478261 271.967866 
L 334.687783 295.488 
L 334.897305 266.958868 
L 335.106827 269.990133 
L 335.31635 282.487836 
L 335.525872 268.677469 
L 335.735394 258.856352 
L 335.944916 283.224405 
L 336.154438 281.263167 
L 336.36396 269.680209 
L 336.573482 271.001069 
L 336.783004 264.893859 
L 336.992527 265.519052 
L 337.202049 260.47221 
L 337.411571 290.279554 
L 337.725854 269.393869 
L 337.830615 269.393869 
L 338.040137 278.990231 
L 338.249659 266.320314 
L 338.459182 268.514118 
L 338.668704 278.089207 
L 338.878226 268.910959 
L 339.087748 285.498625 
L 339.29727 282.848374 
L 339.506792 285.746169 
L 339.716314 283.157245 
L 339.925836 274.848524 
L 340.135359 288.467921 
L 340.344881 278.542776 
L 340.554403 274.409984 
L 340.973447 280.074441 
L 341.182969 267.058014 
L 341.392491 274.944767 
L 341.602014 271.683171 
L 341.811536 276.740984 
L 342.021058 267.241918 
L 342.23058 265.120002 
L 342.440102 254.486395 
L 342.649624 282.377462 
L 342.859146 280.028683 
L 343.068668 258.89936 
L 343.278191 275.038389 
L 343.487713 287.211908 
L 343.801996 252.77247 
L 343.906757 252.77247 
L 344.116279 286.836648 
L 344.325801 268.553273 
L 344.535323 268.624826 
L 344.744846 272.688018 
L 344.954368 263.465091 
L 345.373412 272.563076 
L 345.582934 268.023372 
L 345.792456 274.145894 
L 346.001978 276.315213 
L 346.2115 256.562811 
L 346.421023 279.275003 
L 346.630545 270.675344 
L 346.840067 265.712849 
L 347.049589 265.209539 
L 347.259111 262.046138 
L 347.468633 268.683018 
L 347.678155 261.377037 
L 347.887678 269.379071 
L 348.0972 274.933128 
L 348.306722 269.838652 
L 348.516244 268.930896 
L 348.725766 269.872232 
L 349.040049 266.244548 
L 349.14481 266.244548 
L 349.354332 270.436869 
L 349.563855 271.001018 
L 349.773377 270.478645 
L 349.982899 277.482512 
L 350.192421 264.672521 
L 350.401943 268.285021 
L 350.611465 269.919403 
L 350.820987 267.470553 
L 351.03051 283.604058 
L 351.240032 268.175572 
L 351.449554 269.309137 
L 351.659076 277.104683 
L 351.868598 263.372677 
L 352.182881 275.750628 
L 352.287642 275.750628 
L 352.497164 277.433208 
L 352.706687 270.272568 
L 352.916209 273.261878 
L 353.125731 286.418353 
L 353.649536 260.581915 
L 353.754297 260.581915 
L 354.06858 280.359753 
L 354.173342 280.359753 
L 354.382864 285.934338 
L 354.592386 272.739787 
L 354.801908 261.646162 
L 355.01143 262.136523 
L 355.220952 278.023075 
L 355.430474 256.666042 
L 355.849519 271.367311 
L 356.059041 254.871341 
L 356.268563 274.823294 
L 356.478085 281.241714 
L 356.687607 270.920601 
L 356.897129 265.276852 
L 357.106651 260.320986 
L 357.316174 286.748344 
L 357.525696 266.366201 
L 357.735218 261.958965 
L 357.94474 258.388703 
L 358.154262 274.586952 
L 358.363784 264.423769 
L 358.573306 265.248822 
L 358.782828 276.707353 
L 358.992351 285.264338 
L 359.201873 269.213305 
L 359.411395 255.779868 
L 359.620917 274.571871 
L 359.830439 273.461969 
L 360.039961 276.467311 
L 360.354244 259.806448 
L 360.459006 259.806448 
L 360.668528 257.200722 
L 360.87805 282.306346 
L 361.087572 279.52581 
L 361.297094 279.052638 
L 361.506616 271.071183 
L 361.716138 276.31529 
L 361.92566 280.8663 
L 362.135183 272.381279 
L 362.344705 278.240996 
L 362.554227 281.74212 
L 362.763749 269.92169 
L 362.973271 278.306563 
L 363.182793 259.535833 
L 363.392315 266.751403 
L 363.601838 265.809091 
L 363.81136 261.642052 
L 364.125643 258.997864 
L 364.230404 258.997864 
L 364.439926 268.589345 
L 364.649448 271.031206 
L 364.85897 248.898655 
L 365.068492 253.731585 
L 365.278015 279.1496 
L 365.487537 257.347527 
L 365.906581 285.037065 
L 366.325625 255.576848 
L 366.535147 274.137801 
L 366.74467 266.684552 
L 366.954192 273.325312 
L 367.163714 272.161893 
L 367.373236 271.250489 
L 367.582758 270.835329 
L 367.79228 254.037758 
L 368.001802 272.781614 
L 368.211324 276.045857 
L 368.420847 276.316292 
L 368.630369 261.735597 
L 368.839891 263.24121 
L 369.154174 278.174145 
L 369.258935 278.174145 
L 369.468457 267.053466 
L 369.677979 267.701372 
L 369.887502 280.273735 
L 370.097024 283.276303 
L 370.306546 272.212481 
L 370.620829 257.476322 
L 370.72559 257.476322 
L 370.935112 260.236535 
L 371.144634 262.529665 
L 371.354156 249.307366 
L 371.563679 270.424562 
L 371.773201 278.052981 
L 371.982723 268.122492 
L 372.192245 272.372672 
L 372.401767 260.613311 
L 372.611289 259.024199 
L 372.820811 263.117785 
L 373.030334 260.445773 
L 373.239856 280.369619 
L 373.449378 273.0539 
L 373.6589 269.252177 
L 373.973183 263.423599 
L 374.077944 263.423599 
L 374.287466 252.53826 
L 374.496988 271.424836 
L 374.706511 266.158556 
L 374.916033 263.136103 
L 375.335077 280.234272 
L 375.544599 266.101109 
L 375.754121 266.450188 
L 375.963643 276.819242 
L 376.173166 252.104037 
L 376.382688 262.47345 
L 376.59221 262.14567 
L 376.906493 286.421436 
L 377.011254 286.421436 
L 377.220776 272.383462 
L 377.430298 279.162523 
L 377.63982 263.511235 
L 377.849343 275.153516 
L 378.268387 291.853174 
L 378.477909 266.682908 
L 378.687431 250.366732 
L 378.896953 263.654366 
L 379.106475 269.651279 
L 379.315998 275.187044 
L 379.52552 270.846968 
L 379.735042 288.370625 
L 379.944564 268.155429 
L 380.154086 275.042526 
L 380.363608 254.316827 
L 380.677891 268.409885 
L 380.782652 268.409885 
L 380.992175 251.732579 
L 381.201697 271.545692 
L 381.411219 279.029052 
L 381.620741 277.629599 
L 381.830263 277.617935 
L 382.039785 277.034235 
L 382.249307 261.155673 
L 382.45883 262.903126 
L 382.668352 255.866142 
L 382.877874 264.95439 
L 383.087396 268.749458 
L 383.296918 270.283564 
L 383.50644 269.360675 
L 383.715962 278.065082 
L 383.925484 282.124831 
L 384.135007 268.753389 
L 384.344529 272.701634 
L 384.554051 256.240297 
L 384.763573 270.245539 
L 384.973095 273.703758 
L 385.182617 258.965826 
L 385.392139 272.934508 
L 385.601662 270.738444 
L 385.811184 271.210897 
L 386.020706 263.879558 
L 386.230228 264.508091 
L 386.43975 274.606427 
L 386.649272 269.324064 
L 386.858794 288.752154 
L 387.173078 257.610178 
L 387.277839 257.610178 
L 387.696883 273.439668 
L 388.011166 260.247044 
L 388.115927 260.247044 
L 388.325449 263.098361 
L 388.534971 254.942971 
L 388.744494 274.91481 
L 388.954016 279.749512 
L 389.163538 261.552566 
L 389.37306 267.125302 
L 389.582582 268.119358 
L 389.792104 262.75514 
L 390.001626 282.972493 
L 390.211148 257.350276 
L 390.420671 279.468928 
L 390.630193 282.618532 
L 390.839715 267.16533 
L 391.049237 273.161833 
L 391.258759 257.702311 
L 391.468281 256.835071 
L 391.782564 271.548467 
L 391.887326 271.548467 
L 392.096848 257.929018 
L 392.30637 272.233934 
L 392.515892 263.329796 
L 392.725414 256.472914 
L 393.039697 276.267529 
L 393.144458 276.267529 
L 393.35398 277.241108 
L 393.563503 263.629444 
L 393.773025 260.544585 
L 393.982547 269.030197 
L 394.192069 254.556458 
L 394.506352 275.9185 
L 394.611113 275.9185 
L 394.820635 270.706149 
L 395.030158 280.23047 
L 395.344441 259.91803 
L 395.449202 259.91803 
L 395.658724 264.541594 
L 395.868246 267.217048 
L 396.077768 263.164467 
L 396.28729 269.836597 
L 396.496812 269.519067 
L 396.706335 254.282785 
L 396.915857 272.987768 
L 397.125379 274.38812 
L 397.334901 265.150421 
L 397.544423 279.841593 
L 397.753945 263.734911 
L 397.963467 267.497838 
L 398.277751 263.16511 
L 398.382512 263.16511 
L 398.487273 286.856945 
L 398.487273 286.856945 
" clip-path="url(#p95f3cd5dcf)" style="fill: none; stroke: #0000ff; stroke-width: 1.5; stroke-linecap: square"/>
   </g>
   <g id="patch_3">
    <path d="M 57.6 307.584 
L 57.6 41.472 
" style="fill: none; stroke: #000000; stroke-width: 0.8; stroke-linejoin: miter; stroke-linecap: square"/>
   </g>
   <g id="patch_4">
    <path d="M 414.72 307.584 
L 414.72 41.472 
" style="fill: none; stroke: #000000; stroke-width: 0.8; stroke-linejoin: miter; stroke-linecap: square"/>
   </g>
   <g id="patch_5">
    <path d="M 57.6 307.584 
L 414.72 307.584 
" style="fill: none; stroke: #000000; stroke-width: 0.8; stroke-linejoin: miter; stroke-linecap: square"/>
   </g>
   <g id="patch_6">
    <path d="M 57.6 41.472 
L 414.72 41.472 
" style="fill: none; stroke: #000000; stroke-width: 0.8; stroke-linejoin: miter; stroke-linecap: square"/>
   </g>
   <g id="text_16">
    <!-- Input (channel L)  -->
    <g transform="translate(183.135938 35.472) scale(0.12 -0.12)">
     <defs>
      <path id="DejaVuSans-49" d="M 628 4666 
L 1259 4666 
L 1259 0 
L 628 0 
L 628 4666 
z
" transform="scale(0.015625)"/>
      <path id="DejaVuSans-6e" d="M 3513 2113 
L 3513 0 
L 2938 0 
L 2938 2094 
Q 2938 2591 2744 2837 
Q 2550 3084 2163 3084 
Q 1697 3084 1428 2787 
Q 1159 2491 1159 1978 
L 1159 0 
L 581 0 
L 581 3500 
L 1159 3500 
L 1159 2956 
Q 1366 3272 1645 3428 
Q 1925 3584 2291 3584 
Q 2894 3584 3203 3211 
Q 3513 2838 3513 2113 
z
" transform="scale(0.015625)"/>
      <path id="DejaVuSans-20" transform="scale(0.015625)"/>
      <path id="DejaVuSans-28" d="M 1984 4856 
Q 1566 4138 1362 3434 
Q 1159 2731 1159 2009 
Q 1159 1288 1364 580 
Q 1569 -128 1984 -844 
L 1484 -844 
Q 1016 -109 783 600 
Q 550 1309 550 2009 
Q 550 2706 781 3412 
Q 1013 4119 1484 4856 
L 1984 4856 
z
" transform="scale(0.015625)"/>
      <path id="DejaVuSans-63" d="M 3122 3366 
L 3122 2828 
Q 2878 2963 2633 3030 
Q 2388 3097 2138 3097 
Q 1578 3097 1268 2742 
Q 959 2388 959 1747 
Q 959 1106 1268 751 
Q 1578 397 2138 397 
Q 2388 397 2633 464 
Q 2878 531 3122 666 
L 3122 134 
Q 2881 22 2623 -34 
Q 2366 -91 2075 -91 
Q 1284 -91 818 406 
Q 353 903 353 1747 
Q 353 2603 823 3093 
Q 1294 3584 2113 3584 
Q 2378 3584 2631 3529 
Q 2884 3475 3122 3366 
z
" transform="scale(0.015625)"/>
      <path id="DejaVuSans-68" d="M 3513 2113 
L 3513 0 
L 2938 0 
L 2938 2094 
Q 2938 2591 2744 2837 
Q 2550 3084 2163 3084 
Q 1697 3084 1428 2787 
Q 1159 2491 1159 1978 
L 1159 0 
L 581 0 
L 581 4863 
L 1159 4863 
L 1159 2956 
Q 1366 3272 1645 3428 
Q 1925 3584 2291 3584 
Q 2894 3584 3203 3211 
Q 3513 2838 3513 2113 
z
" transform="scale(0.015625)"/>
      <path id="DejaVuSans-4c" d="M 628 4666 
L 1259 4666 
L 1259 531 
L 3531 531 
L 3531 0 
L 628 0 
L 628 4666 
z
" transform="scale(0.015625)"/>
      <path id="DejaVuSans-29" d="M 513 4856 
L 1013 4856 
Q 1481 4119 1714 3412 
Q 1947 2706 1947 2009 
Q 1947 1309 1714 600 
Q 1481 -109 1013 -844 
L 513 -844 
Q 928 -128 1133 580 
Q 1338 1288 1338 2009 
Q 1338 2731 1133 3434 
Q 928 4138 513 4856 
z
" transform="scale(0.015625)"/>
     </defs>
     <use xlink:href="#DejaVuSans-49"/>
     <use xlink:href="#DejaVuSans-6e" x="29.492188"/>
     <use xlink:href="#DejaVuSans-70" x="92.871094"/>
     <use xlink:href="#DejaVuSans-75" x="156.347656"/>
     <use xlink:href="#DejaVuSans-74" x="219.726562"/>
     <use xlink:href="#DejaVuSans-20" x="258.935547"/>
     <use xlink:href="#DejaVuSans-28" x="290.722656"/>
     <use xlink:href="#DejaVuSans-63" x="329.736328"/>
     <use xlink:href="#DejaVuSans-68" x="384.716797"/>
     <use xlink:href="#DejaVuSans-61" x="448.095703"/>
     <use xlink:href="#DejaVuSans-6e" x="509.375"/>
     <use xlink:href="#DejaVuSans-6e" x="572.753906"/>
     <use xlink:href="#DejaVuSans-65" x="636.132812"/>
     <use xlink:href="#DejaVuSans-6c" x="697.65625"/>
     <use xlink:href="#DejaVuSans-20" x="725.439453"/>
     <use xlink:href="#DejaVuSans-4c" x="757.226562"/>
     <use xlink:href="#DejaVuSans-29" x="812.939453"/>
     <use xlink:href="#DejaVuSans-20" x="851.953125"/>
    </g>
   </g>
  </g>
 </g>
 <defs>
  <clipPath id="p95f3cd5dcf">
   <rect x="57.6" y="41.472" width="357.12" height="266.112"/>
  </clipPath>
 </defs>
</svg>
