<?xml version="1.0" encoding="utf-8" standalone="no"?>
<!DOCTYPE svg PUBLIC "-//W3C//DTD SVG 1.1//EN"
  "http://www.w3.org/Graphics/SVG/1.1/DTD/svg11.dtd">
<svg xmlns:xlink="http://www.w3.org/1999/xlink" width="460.8pt" height="345.6pt" viewBox="0 0 460.8 345.6" xmlns="http://www.w3.org/2000/svg" version="1.1">
 <metadata>
  <rdf:RDF xmlns:dc="http://purl.org/dc/elements/1.1/" xmlns:cc="http://creativecommons.org/ns#" xmlns:rdf="http://www.w3.org/1999/02/22-rdf-syntax-ns#">
   <cc:Work>
    <dc:type rdf:resource="http://purl.org/dc/dcmitype/StillImage"/>
    <dc:date>2025-09-08T22:35:17.445966</dc:date>
    <dc:format>image/svg+xml</dc:format>
    <dc:creator>
     <cc:Agent>
      <dc:title>Matplotlib v3.9.2, https://matplotlib.org/</dc:title>
     </cc:Agent>
    </dc:creator>
   </cc:Work>
  </rdf:RDF>
 </metadata>
 <defs>
  <style type="text/css">*{stroke-linejoin: round; stroke-linecap: butt}</style>
 </defs>
 <g id="figure_1">
  <g id="patch_1">
   <path d="M 0 345.6 
L 460.8 345.6 
L 460.8 0 
L 0 0 
z
" style="fill: #ffffff"/>
  </g>
  <g id="axes_1">
   <g id="patch_2">
    <path d="M 57.6 307.584 
L 414.72 307.584 
L 414.72 41.472 
L 57.6 41.472 
z
" style="fill: #ffffff"/>
   </g>
   <g id="matplotlib.axis_1">
    <g id="xtick_1">
     <g id="line2d_1">
      <path d="M 73.832727 307.584 
L 73.832727 41.472 
" clip-path="url(#p8defc237e5)" style="fill: none; stroke: #b0b0b0; stroke-width: 0.8; stroke-linecap: square"/>
     </g>
     <g id="line2d_2">
      <defs>
       <path id="mf06d78ed68" d="M 0 0 
L 0 3.5 
" style="stroke: #000000; stroke-width: 0.8"/>
      </defs>
      <g>
       <use xlink:href="#mf06d78ed68" x="73.832727" y="307.584" style="stroke: #000000; stroke-width: 0.8"/>
      </g>
     </g>
     <g id="text_1">
      <!-- 0 -->
      <g transform="translate(70.651477 322.182437) scale(0.1 -0.1)">
       <defs>
        <path id="DejaVuSans-30" d="M 2034 4250 
Q 1547 4250 1301 3770 
Q 1056 3291 1056 2328 
Q 1056 1369 1301 889 
Q 1547 409 2034 409 
Q 2525 409 2770 889 
Q 3016 1369 3016 2328 
Q 3016 3291 2770 3770 
Q 2525 4250 2034 4250 
z
M 2034 4750 
Q 2819 4750 3233 4129 
Q 3647 3509 3647 2328 
Q 3647 1150 3233 529 
Q 2819 -91 2034 -91 
Q 1250 -91 836 529 
Q 422 1150 422 2328 
Q 422 3509 836 4129 
Q 1250 4750 2034 4750 
z
" transform="scale(0.015625)"/>
       </defs>
       <use xlink:href="#DejaVuSans-30"/>
      </g>
     </g>
    </g>
    <g id="xtick_2">
     <g id="line2d_3">
      <path d="M 126.213261 307.584 
L 126.213261 41.472 
" clip-path="url(#p8defc237e5)" style="fill: none; stroke: #b0b0b0; stroke-width: 0.8; stroke-linecap: square"/>
     </g>
     <g id="line2d_4">
      <g>
       <use xlink:href="#mf06d78ed68" x="126.213261" y="307.584" style="stroke: #000000; stroke-width: 0.8"/>
      </g>
     </g>
     <g id="text_2">
      <!-- 500 -->
      <g transform="translate(116.669511 322.182437) scale(0.1 -0.1)">
       <defs>
        <path id="DejaVuSans-35" d="M 691 4666 
L 3169 4666 
L 3169 4134 
L 1269 4134 
L 1269 2991 
Q 1406 3038 1543 3061 
Q 1681 3084 1819 3084 
Q 2600 3084 3056 2656 
Q 3513 2228 3513 1497 
Q 3513 744 3044 326 
Q 2575 -91 1722 -91 
Q 1428 -91 1123 -41 
Q 819 9 494 109 
L 494 744 
Q 775 591 1075 516 
Q 1375 441 1709 441 
Q 2250 441 2565 725 
Q 2881 1009 2881 1497 
Q 2881 1984 2565 2268 
Q 2250 2553 1709 2553 
Q 1456 2553 1204 2497 
Q 953 2441 691 2322 
L 691 4666 
z
" transform="scale(0.015625)"/>
       </defs>
       <use xlink:href="#DejaVuSans-35"/>
       <use xlink:href="#DejaVuSans-30" x="63.623047"/>
       <use xlink:href="#DejaVuSans-30" x="127.246094"/>
      </g>
     </g>
    </g>
    <g id="xtick_3">
     <g id="line2d_5">
      <path d="M 178.593794 307.584 
L 178.593794 41.472 
" clip-path="url(#p8defc237e5)" style="fill: none; stroke: #b0b0b0; stroke-width: 0.8; stroke-linecap: square"/>
     </g>
     <g id="line2d_6">
      <g>
       <use xlink:href="#mf06d78ed68" x="178.593794" y="307.584" style="stroke: #000000; stroke-width: 0.8"/>
      </g>
     </g>
     <g id="text_3">
      <!-- 1000 -->
      <g transform="translate(165.868794 322.182437) scale(0.1 -0.1)">
       <defs>
        <path id="DejaVuSans-31" d="M 794 531 
L 1825 531 
L 1825 4091 
L 703 3866 
L 703 4441 
L 1819 4666 
L 2450 4666 
L 2450 531 
L 3481 531 
L 3481 0 
L 794 0 
L 794 531 
z
" transform="scale(0.015625)"/>
       </defs>
       <use xlink:href="#DejaVuSans-31"/>
       <use xlink:href="#DejaVuSans-30" x="63.623047"/>
       <use xlink:href="#DejaVuSans-30" x="127.246094"/>
       <use xlink:href="#DejaVuSans-30" x="190.869141"/>
      </g>
     </g>
    </g>
    <g id="xtick_4">
     <g id="line2d_7">
      <path d="M 230.974327 307.584 
L 230.974327 41.472 
" clip-path="url(#p8defc237e5)" style="fill: none; stroke: #b0b0b0; stroke-width: 0.8; stroke-linecap: square"/>
     </g>
     <g id="line2d_8">
      <g>
       <use xlink:href="#mf06d78ed68" x="230.974327" y="307.584" style="stroke: #000000; stroke-width: 0.8"/>
      </g>
     </g>
     <g id="text_4">
      <!-- 1500 -->
      <g transform="translate(218.249327 322.182437) scale(0.1 -0.1)">
       <use xlink:href="#DejaVuSans-31"/>
       <use xlink:href="#DejaVuSans-35" x="63.623047"/>
       <use xlink:href="#DejaVuSans-30" x="127.246094"/>
       <use xlink:href="#DejaVuSans-30" x="190.869141"/>
      </g>
     </g>
    </g>
    <g id="xtick_5">
     <g id="line2d_9">
      <path d="M 283.354861 307.584 
L 283.354861 41.472 
" clip-path="url(#p8defc237e5)" style="fill: none; stroke: #b0b0b0; stroke-width: 0.8; stroke-linecap: square"/>
     </g>
     <g id="line2d_10">
      <g>
       <use xlink:href="#mf06d78ed68" x="283.354861" y="307.584" style="stroke: #000000; stroke-width: 0.8"/>
      </g>
     </g>
     <g id="text_5">
      <!-- 2000 -->
      <g transform="translate(270.629861 322.182437) scale(0.1 -0.1)">
       <defs>
        <path id="DejaVuSans-32" d="M 1228 531 
L 3431 531 
L 3431 0 
L 469 0 
L 469 531 
Q 828 903 1448 1529 
Q 2069 2156 2228 2338 
Q 2531 2678 2651 2914 
Q 2772 3150 2772 3378 
Q 2772 3750 2511 3984 
Q 2250 4219 1831 4219 
Q 1534 4219 1204 4116 
Q 875 4013 500 3803 
L 500 4441 
Q 881 4594 1212 4672 
Q 1544 4750 1819 4750 
Q 2544 4750 2975 4387 
Q 3406 4025 3406 3419 
Q 3406 3131 3298 2873 
Q 3191 2616 2906 2266 
Q 2828 2175 2409 1742 
Q 1991 1309 1228 531 
z
" transform="scale(0.015625)"/>
       </defs>
       <use xlink:href="#DejaVuSans-32"/>
       <use xlink:href="#DejaVuSans-30" x="63.623047"/>
       <use xlink:href="#DejaVuSans-30" x="127.246094"/>
       <use xlink:href="#DejaVuSans-30" x="190.869141"/>
      </g>
     </g>
    </g>
    <g id="xtick_6">
     <g id="line2d_11">
      <path d="M 335.735394 307.584 
L 335.735394 41.472 
" clip-path="url(#p8defc237e5)" style="fill: none; stroke: #b0b0b0; stroke-width: 0.8; stroke-linecap: square"/>
     </g>
     <g id="line2d_12">
      <g>
       <use xlink:href="#mf06d78ed68" x="335.735394" y="307.584" style="stroke: #000000; stroke-width: 0.8"/>
      </g>
     </g>
     <g id="text_6">
      <!-- 2500 -->
      <g transform="translate(323.010394 322.182437) scale(0.1 -0.1)">
       <use xlink:href="#DejaVuSans-32"/>
       <use xlink:href="#DejaVuSans-35" x="63.623047"/>
       <use xlink:href="#DejaVuSans-30" x="127.246094"/>
       <use xlink:href="#DejaVuSans-30" x="190.869141"/>
      </g>
     </g>
    </g>
    <g id="xtick_7">
     <g id="line2d_13">
      <path d="M 388.115927 307.584 
L 388.115927 41.472 
" clip-path="url(#p8defc237e5)" style="fill: none; stroke: #b0b0b0; stroke-width: 0.8; stroke-linecap: square"/>
     </g>
     <g id="line2d_14">
      <g>
       <use xlink:href="#mf06d78ed68" x="388.115927" y="307.584" style="stroke: #000000; stroke-width: 0.8"/>
      </g>
     </g>
     <g id="text_7">
      <!-- 3000 -->
      <g transform="translate(375.390927 322.182437) scale(0.1 -0.1)">
       <defs>
        <path id="DejaVuSans-33" d="M 2597 2516 
Q 3050 2419 3304 2112 
Q 3559 1806 3559 1356 
Q 3559 666 3084 287 
Q 2609 -91 1734 -91 
Q 1441 -91 1130 -33 
Q 819 25 488 141 
L 488 750 
Q 750 597 1062 519 
Q 1375 441 1716 441 
Q 2309 441 2620 675 
Q 2931 909 2931 1356 
Q 2931 1769 2642 2001 
Q 2353 2234 1838 2234 
L 1294 2234 
L 1294 2753 
L 1863 2753 
Q 2328 2753 2575 2939 
Q 2822 3125 2822 3475 
Q 2822 3834 2567 4026 
Q 2313 4219 1838 4219 
Q 1578 4219 1281 4162 
Q 984 4106 628 3988 
L 628 4550 
Q 988 4650 1302 4700 
Q 1616 4750 1894 4750 
Q 2613 4750 3031 4423 
Q 3450 4097 3450 3541 
Q 3450 3153 3228 2886 
Q 3006 2619 2597 2516 
z
" transform="scale(0.015625)"/>
       </defs>
       <use xlink:href="#DejaVuSans-33"/>
       <use xlink:href="#DejaVuSans-30" x="63.623047"/>
       <use xlink:href="#DejaVuSans-30" x="127.246094"/>
       <use xlink:href="#DejaVuSans-30" x="190.869141"/>
      </g>
     </g>
    </g>
    <g id="text_8">
     <!-- Samples -->
     <g transform="translate(214.806875 335.860562) scale(0.1 -0.1)">
      <defs>
       <path id="DejaVuSans-53" d="M 3425 4513 
L 3425 3897 
Q 3066 4069 2747 4153 
Q 2428 4238 2131 4238 
Q 1616 4238 1336 4038 
Q 1056 3838 1056 3469 
Q 1056 3159 1242 3001 
Q 1428 2844 1947 2747 
L 2328 2669 
Q 3034 2534 3370 2195 
Q 3706 1856 3706 1288 
Q 3706 609 3251 259 
Q 2797 -91 1919 -91 
Q 1588 -91 1214 -16 
Q 841 59 441 206 
L 441 856 
Q 825 641 1194 531 
Q 1563 422 1919 422 
Q 2459 422 2753 634 
Q 3047 847 3047 1241 
Q 3047 1584 2836 1778 
Q 2625 1972 2144 2069 
L 1759 2144 
Q 1053 2284 737 2584 
Q 422 2884 422 3419 
Q 422 4038 858 4394 
Q 1294 4750 2059 4750 
Q 2388 4750 2728 4690 
Q 3069 4631 3425 4513 
z
" transform="scale(0.015625)"/>
       <path id="DejaVuSans-61" d="M 2194 1759 
Q 1497 1759 1228 1600 
Q 959 1441 959 1056 
Q 959 750 1161 570 
Q 1363 391 1709 391 
Q 2188 391 2477 730 
Q 2766 1069 2766 1631 
L 2766 1759 
L 2194 1759 
z
M 3341 1997 
L 3341 0 
L 2766 0 
L 2766 531 
Q 2569 213 2275 61 
Q 1981 -91 1556 -91 
Q 1019 -91 701 211 
Q 384 513 384 1019 
Q 384 1609 779 1909 
Q 1175 2209 1959 2209 
L 2766 2209 
L 2766 2266 
Q 2766 2663 2505 2880 
Q 2244 3097 1772 3097 
Q 1472 3097 1187 3025 
Q 903 2953 641 2809 
L 641 3341 
Q 956 3463 1253 3523 
Q 1550 3584 1831 3584 
Q 2591 3584 2966 3190 
Q 3341 2797 3341 1997 
z
" transform="scale(0.015625)"/>
       <path id="DejaVuSans-6d" d="M 3328 2828 
Q 3544 3216 3844 3400 
Q 4144 3584 4550 3584 
Q 5097 3584 5394 3201 
Q 5691 2819 5691 2113 
L 5691 0 
L 5113 0 
L 5113 2094 
Q 5113 2597 4934 2840 
Q 4756 3084 4391 3084 
Q 3944 3084 3684 2787 
Q 3425 2491 3425 1978 
L 3425 0 
L 2847 0 
L 2847 2094 
Q 2847 2600 2669 2842 
Q 2491 3084 2119 3084 
Q 1678 3084 1418 2786 
Q 1159 2488 1159 1978 
L 1159 0 
L 581 0 
L 581 3500 
L 1159 3500 
L 1159 2956 
Q 1356 3278 1631 3431 
Q 1906 3584 2284 3584 
Q 2666 3584 2933 3390 
Q 3200 3197 3328 2828 
z
" transform="scale(0.015625)"/>
       <path id="DejaVuSans-70" d="M 1159 525 
L 1159 -1331 
L 581 -1331 
L 581 3500 
L 1159 3500 
L 1159 2969 
Q 1341 3281 1617 3432 
Q 1894 3584 2278 3584 
Q 2916 3584 3314 3078 
Q 3713 2572 3713 1747 
Q 3713 922 3314 415 
Q 2916 -91 2278 -91 
Q 1894 -91 1617 61 
Q 1341 213 1159 525 
z
M 3116 1747 
Q 3116 2381 2855 2742 
Q 2594 3103 2138 3103 
Q 1681 3103 1420 2742 
Q 1159 2381 1159 1747 
Q 1159 1113 1420 752 
Q 1681 391 2138 391 
Q 2594 391 2855 752 
Q 3116 1113 3116 1747 
z
" transform="scale(0.015625)"/>
       <path id="DejaVuSans-6c" d="M 603 4863 
L 1178 4863 
L 1178 0 
L 603 0 
L 603 4863 
z
" transform="scale(0.015625)"/>
       <path id="DejaVuSans-65" d="M 3597 1894 
L 3597 1613 
L 953 1613 
Q 991 1019 1311 708 
Q 1631 397 2203 397 
Q 2534 397 2845 478 
Q 3156 559 3463 722 
L 3463 178 
Q 3153 47 2828 -22 
Q 2503 -91 2169 -91 
Q 1331 -91 842 396 
Q 353 884 353 1716 
Q 353 2575 817 3079 
Q 1281 3584 2069 3584 
Q 2775 3584 3186 3129 
Q 3597 2675 3597 1894 
z
M 3022 2063 
Q 3016 2534 2758 2815 
Q 2500 3097 2075 3097 
Q 1594 3097 1305 2825 
Q 1016 2553 972 2059 
L 3022 2063 
z
" transform="scale(0.015625)"/>
       <path id="DejaVuSans-73" d="M 2834 3397 
L 2834 2853 
Q 2591 2978 2328 3040 
Q 2066 3103 1784 3103 
Q 1356 3103 1142 2972 
Q 928 2841 928 2578 
Q 928 2378 1081 2264 
Q 1234 2150 1697 2047 
L 1894 2003 
Q 2506 1872 2764 1633 
Q 3022 1394 3022 966 
Q 3022 478 2636 193 
Q 2250 -91 1575 -91 
Q 1294 -91 989 -36 
Q 684 19 347 128 
L 347 722 
Q 666 556 975 473 
Q 1284 391 1588 391 
Q 1994 391 2212 530 
Q 2431 669 2431 922 
Q 2431 1156 2273 1281 
Q 2116 1406 1581 1522 
L 1381 1569 
Q 847 1681 609 1914 
Q 372 2147 372 2553 
Q 372 3047 722 3315 
Q 1072 3584 1716 3584 
Q 2034 3584 2315 3537 
Q 2597 3491 2834 3397 
z
" transform="scale(0.015625)"/>
      </defs>
      <use xlink:href="#DejaVuSans-53"/>
      <use xlink:href="#DejaVuSans-61" x="63.476562"/>
      <use xlink:href="#DejaVuSans-6d" x="124.755859"/>
      <use xlink:href="#DejaVuSans-70" x="222.167969"/>
      <use xlink:href="#DejaVuSans-6c" x="285.644531"/>
      <use xlink:href="#DejaVuSans-65" x="313.427734"/>
      <use xlink:href="#DejaVuSans-73" x="374.951172"/>
     </g>
    </g>
   </g>
   <g id="matplotlib.axis_2">
    <g id="ytick_1">
     <g id="line2d_15">
      <path d="M 57.6 251.943607 
L 414.72 251.943607 
" clip-path="url(#p8defc237e5)" style="fill: none; stroke: #b0b0b0; stroke-width: 0.8; stroke-linecap: square"/>
     </g>
     <g id="line2d_16">
      <defs>
       <path id="m8012d34a0a" d="M 0 0 
L -3.5 0 
" style="stroke: #000000; stroke-width: 0.8"/>
      </defs>
      <g>
       <use xlink:href="#m8012d34a0a" x="57.6" y="251.943607" style="stroke: #000000; stroke-width: 0.8"/>
      </g>
     </g>
     <g id="text_9">
      <!-- −2 -->
      <g transform="translate(35.857813 255.742825) scale(0.1 -0.1)">
       <defs>
        <path id="DejaVuSans-2212" d="M 678 2272 
L 4684 2272 
L 4684 1741 
L 678 1741 
L 678 2272 
z
" transform="scale(0.015625)"/>
       </defs>
       <use xlink:href="#DejaVuSans-2212"/>
       <use xlink:href="#DejaVuSans-32" x="83.789062"/>
      </g>
     </g>
    </g>
    <g id="ytick_2">
     <g id="line2d_17">
      <path d="M 57.6 193.70617 
L 414.72 193.70617 
" clip-path="url(#p8defc237e5)" style="fill: none; stroke: #b0b0b0; stroke-width: 0.8; stroke-linecap: square"/>
     </g>
     <g id="line2d_18">
      <g>
       <use xlink:href="#m8012d34a0a" x="57.6" y="193.70617" style="stroke: #000000; stroke-width: 0.8"/>
      </g>
     </g>
     <g id="text_10">
      <!-- 0 -->
      <g transform="translate(44.2375 197.505389) scale(0.1 -0.1)">
       <use xlink:href="#DejaVuSans-30"/>
      </g>
     </g>
    </g>
    <g id="ytick_3">
     <g id="line2d_19">
      <path d="M 57.6 135.468734 
L 414.72 135.468734 
" clip-path="url(#p8defc237e5)" style="fill: none; stroke: #b0b0b0; stroke-width: 0.8; stroke-linecap: square"/>
     </g>
     <g id="line2d_20">
      <g>
       <use xlink:href="#m8012d34a0a" x="57.6" y="135.468734" style="stroke: #000000; stroke-width: 0.8"/>
      </g>
     </g>
     <g id="text_11">
      <!-- 2 -->
      <g transform="translate(44.2375 139.267952) scale(0.1 -0.1)">
       <use xlink:href="#DejaVuSans-32"/>
      </g>
     </g>
    </g>
    <g id="ytick_4">
     <g id="line2d_21">
      <path d="M 57.6 77.231297 
L 414.72 77.231297 
" clip-path="url(#p8defc237e5)" style="fill: none; stroke: #b0b0b0; stroke-width: 0.8; stroke-linecap: square"/>
     </g>
     <g id="line2d_22">
      <g>
       <use xlink:href="#m8012d34a0a" x="57.6" y="77.231297" style="stroke: #000000; stroke-width: 0.8"/>
      </g>
     </g>
     <g id="text_12">
      <!-- 4 -->
      <g transform="translate(44.2375 81.030516) scale(0.1 -0.1)">
       <defs>
        <path id="DejaVuSans-34" d="M 2419 4116 
L 825 1625 
L 2419 1625 
L 2419 4116 
z
M 2253 4666 
L 3047 4666 
L 3047 1625 
L 3713 1625 
L 3713 1100 
L 3047 1100 
L 3047 0 
L 2419 0 
L 2419 1100 
L 313 1100 
L 313 1709 
L 2253 4666 
z
" transform="scale(0.015625)"/>
       </defs>
       <use xlink:href="#DejaVuSans-34"/>
      </g>
     </g>
    </g>
    <g id="text_13">
     <!-- Amplitude -->
     <g transform="translate(29.778125 200.150656) rotate(-90) scale(0.1 -0.1)">
      <defs>
       <path id="DejaVuSans-41" d="M 2188 4044 
L 1331 1722 
L 3047 1722 
L 2188 4044 
z
M 1831 4666 
L 2547 4666 
L 4325 0 
L 3669 0 
L 3244 1197 
L 1141 1197 
L 716 0 
L 50 0 
L 1831 4666 
z
" transform="scale(0.015625)"/>
       <path id="DejaVuSans-69" d="M 603 3500 
L 1178 3500 
L 1178 0 
L 603 0 
L 603 3500 
z
M 603 4863 
L 1178 4863 
L 1178 4134 
L 603 4134 
L 603 4863 
z
" transform="scale(0.015625)"/>
       <path id="DejaVuSans-74" d="M 1172 4494 
L 1172 3500 
L 2356 3500 
L 2356 3053 
L 1172 3053 
L 1172 1153 
Q 1172 725 1289 603 
Q 1406 481 1766 481 
L 2356 481 
L 2356 0 
L 1766 0 
Q 1100 0 847 248 
Q 594 497 594 1153 
L 594 3053 
L 172 3053 
L 172 3500 
L 594 3500 
L 594 4494 
L 1172 4494 
z
" transform="scale(0.015625)"/>
       <path id="DejaVuSans-75" d="M 544 1381 
L 544 3500 
L 1119 3500 
L 1119 1403 
Q 1119 906 1312 657 
Q 1506 409 1894 409 
Q 2359 409 2629 706 
Q 2900 1003 2900 1516 
L 2900 3500 
L 3475 3500 
L 3475 0 
L 2900 0 
L 2900 538 
Q 2691 219 2414 64 
Q 2138 -91 1772 -91 
Q 1169 -91 856 284 
Q 544 659 544 1381 
z
M 1991 3584 
L 1991 3584 
z
" transform="scale(0.015625)"/>
       <path id="DejaVuSans-64" d="M 2906 2969 
L 2906 4863 
L 3481 4863 
L 3481 0 
L 2906 0 
L 2906 525 
Q 2725 213 2448 61 
Q 2172 -91 1784 -91 
Q 1150 -91 751 415 
Q 353 922 353 1747 
Q 353 2572 751 3078 
Q 1150 3584 1784 3584 
Q 2172 3584 2448 3432 
Q 2725 3281 2906 2969 
z
M 947 1747 
Q 947 1113 1208 752 
Q 1469 391 1925 391 
Q 2381 391 2643 752 
Q 2906 1113 2906 1747 
Q 2906 2381 2643 2742 
Q 2381 3103 1925 3103 
Q 1469 3103 1208 2742 
Q 947 2381 947 1747 
z
" transform="scale(0.015625)"/>
      </defs>
      <use xlink:href="#DejaVuSans-41"/>
      <use xlink:href="#DejaVuSans-6d" x="68.408203"/>
      <use xlink:href="#DejaVuSans-70" x="165.820312"/>
      <use xlink:href="#DejaVuSans-6c" x="229.296875"/>
      <use xlink:href="#DejaVuSans-69" x="257.080078"/>
      <use xlink:href="#DejaVuSans-74" x="284.863281"/>
      <use xlink:href="#DejaVuSans-75" x="324.072266"/>
      <use xlink:href="#DejaVuSans-64" x="387.451172"/>
      <use xlink:href="#DejaVuSans-65" x="450.927734"/>
     </g>
    </g>
    <g id="text_14">
     <!-- 1e6 -->
     <g transform="translate(57.6 38.472) scale(0.1 -0.1)">
      <defs>
       <path id="DejaVuSans-36" d="M 2113 2584 
Q 1688 2584 1439 2293 
Q 1191 2003 1191 1497 
Q 1191 994 1439 701 
Q 1688 409 2113 409 
Q 2538 409 2786 701 
Q 3034 994 3034 1497 
Q 3034 2003 2786 2293 
Q 2538 2584 2113 2584 
z
M 3366 4563 
L 3366 3988 
Q 3128 4100 2886 4159 
Q 2644 4219 2406 4219 
Q 1781 4219 1451 3797 
Q 1122 3375 1075 2522 
Q 1259 2794 1537 2939 
Q 1816 3084 2150 3084 
Q 2853 3084 3261 2657 
Q 3669 2231 3669 1497 
Q 3669 778 3244 343 
Q 2819 -91 2113 -91 
Q 1303 -91 875 529 
Q 447 1150 447 2328 
Q 447 3434 972 4092 
Q 1497 4750 2381 4750 
Q 2619 4750 2861 4703 
Q 3103 4656 3366 4563 
z
" transform="scale(0.015625)"/>
      </defs>
      <use xlink:href="#DejaVuSans-31"/>
      <use xlink:href="#DejaVuSans-65" x="63.623047"/>
      <use xlink:href="#DejaVuSans-36" x="125.146484"/>
     </g>
    </g>
   </g>
   <g id="line2d_23">
    <path d="M 73.832727 258.485622 
L 73.937488 258.485622 
L 74.14701 260.034883 
L 74.356533 258.669128 
L 74.566055 257.654282 
L 74.775577 260.879122 
L 74.985099 258.76289 
L 75.194621 259.736678 
L 75.508904 261.318029 
L 75.613665 261.318029 
L 75.823188 263.581281 
L 76.03271 264.208411 
L 76.242232 258.476478 
L 76.556515 262.096255 
L 76.661276 262.096255 
L 76.870798 256.835056 
L 77.185081 258.656024 
L 77.289842 258.656024 
L 77.604126 256.829844 
L 77.708887 256.829844 
L 77.918409 254.955501 
L 78.127931 255.293191 
L 78.337453 259.952099 
L 78.546975 259.809883 
L 78.756497 256.749476 
L 78.96602 258.785312 
L 79.175542 259.059231 
L 79.385064 254.521574 
L 79.594586 253.312216 
L 79.804108 254.903845 
L 80.223152 256.993666 
L 80.432674 257.25917 
L 80.642197 257.229295 
L 80.851719 258.960519 
L 81.270763 256.80454 
L 81.480285 258.850916 
L 81.689807 260.459813 
L 82.108852 259.973501 
L 82.423135 256.768753 
L 82.527896 256.768753 
L 82.842179 259.187936 
L 82.94694 259.187936 
L 83.156462 258.530639 
L 83.365984 259.858424 
L 83.575506 257.862743 
L 83.785029 257.774601 
L 83.994551 255.713607 
L 84.308834 260.319722 
L 84.832639 260.301378 
L 85.042161 258.291749 
L 85.251684 259.319378 
L 85.461206 256.298136 
L 85.670728 258.422784 
L 85.985011 262.792338 
L 86.089772 262.792338 
L 86.299294 260.221971 
L 86.508816 258.128539 
L 86.718338 260.713757 
L 86.927861 259.911129 
L 87.242144 262.909512 
L 87.346905 262.909512 
L 87.556427 263.861228 
L 87.765949 264.170586 
L 87.975471 263.217093 
L 88.289754 262.368428 
L 88.394516 262.368428 
L 88.604038 263.995466 
L 88.81356 262.25437 
L 89.023082 261.75545 
L 89.232604 261.75015 
L 89.442126 261.150596 
L 89.651648 264.378814 
L 89.965932 261.462283 
L 90.070693 261.462283 
L 90.280215 261.742521 
L 90.489737 262.855468 
L 90.699259 262.643716 
L 90.908781 263.177433 
L 91.118303 263.164505 
L 91.327825 263.454993 
L 91.537348 263.24563 
L 91.74687 260.865698 
L 91.956392 260.329099 
L 92.165914 260.29931 
L 92.375436 259.99205 
L 92.584958 261.261684 
L 92.79448 257.857531 
L 93.004002 257.296006 
L 93.213525 257.26578 
L 93.423047 255.071015 
L 93.632569 254.807433 
L 93.842091 255.250416 
L 94.051613 254.708429 
L 94.261135 255.799071 
L 94.470657 255.851921 
L 94.68018 255.077247 
L 94.889702 256.591973 
L 95.099224 257.095116 
L 95.308746 257.125981 
L 95.518268 256.819827 
L 95.72779 256.806986 
L 96.042073 259.375053 
L 96.146834 259.375053 
L 96.356357 257.391835 
L 96.565879 257.436795 
L 96.775401 254.844792 
L 96.984923 256.763541 
L 97.194445 258.02738 
L 97.403967 257.924271 
L 97.613489 258.48865 
L 97.823012 257.43927 
L 98.032534 256.505316 
L 98.242056 256.56664 
L 98.451578 258.8554 
L 98.6611 259.234322 
L 98.870622 263.611797 
L 99.184905 258.111155 
L 99.289666 258.111155 
L 99.499189 259.596676 
L 99.708711 259.991729 
L 100.022994 263.286832 
L 100.127755 263.286832 
L 100.337277 260.311453 
L 100.546799 259.572594 
L 100.756321 259.860404 
L 100.965844 258.150436 
L 101.280127 263.78683 
L 101.384888 263.78683 
L 101.59441 264.328991 
L 101.803932 267.596257 
L 102.118215 263.633462 
L 102.222976 263.633462 
L 102.432498 266.725025 
L 102.642021 267.050543 
L 102.851543 267.058085 
L 103.061065 264.370806 
L 103.375348 259.382071 
L 103.480109 259.382071 
L 103.689631 257.037897 
L 103.899153 256.263805 
L 104.213437 259.040392 
L 104.318198 259.040392 
L 104.52772 258.508363 
L 104.946764 257.458838 
L 105.261047 262.36671 
L 105.365808 262.36671 
L 105.57533 262.07232 
L 105.784853 264.549362 
L 105.994375 262.803549 
L 106.203897 264.292797 
L 106.622941 265.716964 
L 107.041985 265.703278 
L 107.251508 266.041463 
L 107.46103 263.219743 
L 107.670552 263.149742 
L 107.880074 260.84814 
L 108.089596 261.44586 
L 108.299118 258.879802 
L 108.50864 258.919112 
L 108.718162 257.611798 
L 108.927685 258.503501 
L 109.137207 258.81312 
L 109.346729 258.283101 
L 109.661012 261.135221 
L 109.765773 261.135221 
L 109.975295 261.938316 
L 110.184817 261.066123 
L 110.39434 263.627056 
L 110.603862 262.866446 
L 110.813384 264.548547 
L 111.022906 264.651277 
L 111.232428 265.47094 
L 111.651472 262.877918 
L 111.860994 262.595933 
L 112.070517 263.970686 
L 112.3848 261.773707 
L 112.489561 261.773707 
L 112.699083 262.10668 
L 112.908605 261.495595 
L 113.118127 261.804457 
L 113.327649 259.298005 
L 113.537172 259.366317 
L 113.746694 260.05381 
L 114.060977 258.365944 
L 114.165738 258.365944 
L 114.37526 259.683537 
L 114.689543 260.285654 
L 114.794304 260.285654 
L 115.003826 261.427486 
L 115.213349 261.322426 
L 115.422871 262.468829 
L 115.632393 263.313622 
L 115.841915 263.432805 
L 116.051437 264.204596 
L 116.36572 259.885329 
L 116.470481 259.885329 
L 116.680004 260.191862 
L 116.889526 260.33501 
L 117.099048 259.417275 
L 117.413331 257.939296 
L 117.518092 257.939296 
L 117.727614 254.872193 
L 118.041897 256.50054 
L 118.146658 256.50054 
L 118.460942 259.282426 
L 118.565703 259.282426 
L 118.775225 258.185466 
L 119.089508 257.572313 
L 119.194269 257.572313 
L 119.403791 256.411263 
L 119.613313 255.524365 
L 119.822836 256.890003 
L 120.032358 257.338694 
L 120.24188 257.697 
L 120.451402 257.985391 
L 120.660924 257.295161 
L 120.870446 257.054844 
L 121.079968 257.548523 
L 121.394252 255.946528 
L 121.499013 255.946528 
L 121.708535 257.951614 
L 121.918057 259.365182 
L 122.23234 257.412393 
L 122.546623 257.322707 
L 122.860906 259.544116 
L 122.965668 259.544116 
L 123.17519 257.676878 
L 123.384712 258.757125 
L 123.594234 259.695155 
L 123.803756 259.72506 
L 124.013278 262.281421 
L 124.2228 261.694563 
L 124.432322 259.507601 
L 124.641845 257.884058 
L 124.851367 259.394068 
L 125.060889 260.192852 
L 125.270411 260.083104 
L 125.479933 258.89375 
L 125.794216 256.552488 
L 125.898977 256.552488 
L 126.1085 253.876158 
L 126.318022 253.596007 
L 126.527544 257.131427 
L 126.737066 257.241728 
L 127.051349 255.107122 
L 127.15611 255.107122 
L 127.365632 254.674506 
L 127.575154 257.349555 
L 127.784677 256.675515 
L 127.994199 258.2435 
L 128.203721 256.427103 
L 128.413243 257.692399 
L 128.622765 254.263961 
L 128.832287 254.002679 
L 129.251332 250.780576 
L 129.460854 252.082357 
L 129.670376 250.201958 
L 129.879898 252.476305 
L 130.08942 252.108127 
L 130.298942 254.859817 
L 130.508464 254.757785 
L 130.717986 256.110088 
L 130.927509 255.870965 
L 131.241792 260.438119 
L 131.346553 260.438119 
L 131.765597 261.45873 
L 132.07988 260.393917 
L 132.184641 260.393917 
L 132.394164 259.485675 
L 132.603686 259.23109 
L 132.813208 259.540593 
L 133.02273 261.410073 
L 133.232252 259.340256 
L 133.441774 259.854347 
L 133.651296 258.953443 
L 133.860818 259.061765 
L 134.070341 258.092694 
L 134.279863 258.446865 
L 134.489385 258.316821 
L 134.698907 257.033005 
L 134.908429 258.76091 
L 135.117951 258.853653 
L 135.327473 261.407103 
L 135.536996 261.553279 
L 135.746518 262.626303 
L 135.95604 262.085132 
L 136.165562 263.435804 
L 136.375084 262.495648 
L 136.584606 262.711359 
L 136.794128 264.238665 
L 137.00365 262.771489 
L 137.213173 262.415105 
L 137.527456 258.187097 
L 137.632217 258.187097 
L 137.841739 255.237108 
L 138.051261 253.624659 
L 138.260783 252.529388 
L 138.679828 252.378495 
L 138.88935 250.949057 
L 139.308394 249.895105 
L 139.517916 249.87248 
L 139.727438 249.974977 
L 139.93696 252.633167 
L 140.146482 255.067113 
L 140.356005 254.502327 
L 140.565527 257.401503 
L 140.775049 258.701479 
L 140.984571 259.757964 
L 141.194093 259.693029 
L 141.403615 260.949415 
L 141.613137 260.941378 
L 141.82266 261.988545 
L 142.032182 261.231866 
L 142.241704 262.066059 
L 142.451226 265.0675 
L 142.660748 262.511081 
L 142.87027 260.853731 
L 143.079792 260.738741 
L 143.289314 261.649021 
L 143.498837 259.896132 
L 143.708359 260.26661 
L 143.917881 261.46601 
L 144.232164 259.085176 
L 144.336925 259.085176 
L 144.546447 258.761522 
L 144.755969 258.978136 
L 144.965492 261.942625 
L 145.175014 260.246664 
L 145.384536 263.452634 
L 146.013102 214.759469 
L 146.222624 193.986467 
L 146.536908 152.45869 
L 146.641669 152.45869 
L 146.955952 109.151207 
L 147.060713 109.151207 
L 147.374996 67.019275 
L 147.479757 67.019275 
L 147.689279 56.840274 
L 147.898801 58.315428 
L 148.108324 55.281054 
L 148.317846 56.820241 
L 148.527368 56.910858 
L 148.73689 58.511281 
L 148.946412 56.379383 
L 149.155934 58.743648 
L 149.365456 59.153756 
L 149.67974 57.606009 
L 149.784501 57.606009 
L 149.994023 58.468185 
L 150.203545 58.690594 
L 150.413067 58.396932 
L 150.622589 56.424837 
L 150.832111 55.050812 
L 151.041633 56.258162 
L 151.251156 54.842614 
L 151.460678 54.270256 
L 151.6702 55.79596 
L 151.879722 56.227675 
L 152.194005 54.786531 
L 152.298766 54.786531 
L 152.508288 55.396015 
L 152.71781 55.626693 
L 152.927333 55.597021 
L 153.346377 54.883293 
L 153.555899 55.026265 
L 153.765421 53.568 
L 153.974943 54.856532 
L 154.289226 56.193635 
L 154.393988 56.193635 
L 154.60351 57.694064 
L 154.813032 57.192844 
L 155.022554 58.127409 
L 155.232076 58.012827 
L 155.441598 59.265077 
L 155.65112 59.852227 
L 155.860642 59.749671 
L 156.070165 58.446346 
L 156.279687 57.371953 
L 156.489209 56.847874 
L 156.698731 54.620147 
L 156.908253 56.413452 
L 157.117775 55.981301 
L 157.327297 57.900545 
L 157.53682 58.604781 
L 157.746342 57.155193 
L 157.955864 58.017282 
L 158.165386 57.41202 
L 158.374908 58.072899 
L 158.58443 57.431763 
L 158.793952 58.813184 
L 159.003474 57.692463 
L 159.212997 57.439363 
L 159.422519 55.925131 
L 159.632041 55.413806 
L 159.841563 56.69404 
L 160.051085 56.009546 
L 160.260607 56.630794 
L 160.470129 56.164545 
L 160.679652 56.717714 
L 160.889174 55.620841 
L 161.203457 55.088812 
L 161.308218 55.088812 
L 161.51774 56.007887 
L 161.727262 55.834019 
L 161.936784 54.930407 
L 162.146306 55.880783 
L 162.355829 55.4279 
L 162.565351 57.387415 
L 162.774873 58.487549 
L 162.984395 58.314613 
L 163.193917 58.580438 
L 163.403439 58.724634 
L 163.717722 56.72511 
L 163.822483 56.72511 
L 164.032006 57.397548 
L 164.241528 56.561113 
L 164.45105 56.915837 
L 164.660572 55.640845 
L 164.870094 54.919138 
L 165.184377 55.100664 
L 165.289138 55.100664 
L 165.498661 56.507738 
L 165.812944 57.815111 
L 166.127227 57.899206 
L 166.336749 58.586524 
L 166.546271 58.942413 
L 166.965315 59.207014 
L 167.174838 59.672885 
L 167.38436 60.005479 
L 167.593882 58.403251 
L 167.803404 59.038504 
L 168.012926 58.964077 
L 168.327209 58.27044 
L 168.43197 58.27044 
L 168.746254 57.542297 
L 168.851015 57.542297 
L 169.060537 57.124473 
L 169.479581 57.249392 
L 169.689103 58.513698 
L 169.898625 56.920234 
L 170.108147 56.76707 
L 170.31767 56.711424 
L 170.527192 58.160983 
L 170.736714 58.89163 
L 170.946236 58.898968 
L 171.155758 59.061596 
L 171.574802 58.109443 
L 171.784325 57.61524 
L 171.993847 58.334501 
L 172.203369 57.82836 
L 172.412891 58.57971 
L 172.622413 57.203763 
L 172.831935 56.847001 
L 173.041457 57.179129 
L 173.250979 56.911586 
L 173.565263 57.240948 
L 173.670024 57.240948 
L 173.879546 57.389861 
L 174.193829 60.017767 
L 174.29859 60.017767 
L 174.508112 59.204539 
L 174.717634 59.41862 
L 174.927157 58.975783 
L 175.136679 58.980209 
L 175.346201 60.263587 
L 175.555723 61.428103 
L 175.765245 60.995544 
L 175.974767 60.942257 
L 176.184289 59.267465 
L 176.393811 58.420984 
L 176.603334 59.397975 
L 176.812856 59.088734 
L 177.022378 60.696612 
L 177.2319 61.574512 
L 177.441422 59.942117 
L 177.650944 59.167821 
L 177.860466 59.346085 
L 178.069989 59.196211 
L 178.279511 59.929304 
L 178.489033 60.29853 
L 178.698555 60.176843 
L 178.908077 60.983169 
L 179.117599 59.32809 
L 179.327121 58.554784 
L 179.536643 58.854445 
L 179.746166 59.036612 
L 179.955688 59.173324 
L 180.269971 60.436931 
L 180.374732 60.436931 
L 180.689015 59.802667 
L 180.793776 59.802667 
L 181.003298 59.064391 
L 181.212821 59.892848 
L 181.422343 60.486112 
L 181.631865 60.83609 
L 181.841387 61.050258 
L 182.050909 62.58202 
L 182.260431 62.556715 
L 182.469953 60.948489 
L 182.679475 62.037004 
L 182.888998 62.767593 
L 183.308042 62.742289 
L 183.517564 61.8574 
L 183.727086 61.647221 
L 183.936608 61.691773 
L 184.14613 60.917943 
L 184.355653 60.242331 
L 184.565175 61.674214 
L 184.774697 60.988672 
L 185.08898 63.189669 
L 185.193741 63.189669 
L 185.403263 63.604407 
L 185.612785 65.390957 
L 185.822307 65.820487 
L 186.03183 65.076358 
L 186.241352 64.750199 
L 186.450874 64.986207 
L 186.660396 64.579826 
L 186.869918 64.353981 
L 187.07944 63.448331 
L 187.288962 63.796852 
L 187.917529 62.439658 
L 188.127051 62.80009 
L 188.336573 62.455033 
L 188.755617 62.374287 
L 188.965139 62.636501 
L 189.279423 60.499798 
L 189.384184 60.499798 
L 189.593706 60.336471 
L 189.803228 59.750748 
L 190.536555 63.684891 
L 190.641317 63.684891 
L 190.850839 63.149019 
L 191.060361 62.800323 
L 191.269883 62.817095 
L 191.479405 62.984993 
L 191.688927 62.474018 
L 191.898449 63.034175 
L 192.107971 63.166403 
L 192.317494 61.330555 
L 192.527016 60.255609 
L 192.736538 59.564534 
L 192.94606 60.889873 
L 193.155582 61.557623 
L 193.365104 61.219147 
L 193.574626 62.363425 
L 193.784149 63.18568 
L 193.993671 62.197274 
L 194.203193 61.777324 
L 194.412715 62.027483 
L 194.622237 61.528155 
L 194.831759 63.225456 
L 195.041281 64.270527 
L 195.250803 63.626887 
L 195.460326 64.816939 
L 195.669848 65.465471 
L 195.87937 64.757159 
L 196.088892 67.52696 
L 196.298414 69.989297 
L 196.717458 71.528367 
L 197.031742 67.852944 
L 197.136503 67.852944 
L 197.450786 68.27735 
L 197.555547 68.27735 
L 197.974591 70.201165 
L 198.184113 68.411121 
L 198.393635 68.440939 
L 198.81268 67.428976 
L 199.022202 68.155779 
L 199.231724 68.79808 
L 199.650768 67.90396 
L 199.86029 65.458337 
L 200.069813 65.906474 
L 200.279335 66.09167 
L 200.488857 64.362746 
L 200.698379 65.289827 
L 200.907901 64.701542 
L 201.117423 65.315102 
L 201.326945 64.73433 
L 201.536467 64.89655 
L 201.74599 64.82882 
L 201.955512 65.117823 
L 202.165034 63.59142 
L 202.479317 62.360892 
L 202.584078 62.360892 
L 202.7936 61.443885 
L 203.003122 62.225752 
L 203.212645 61.896565 
L 203.422167 61.799774 
L 203.631689 61.817042 
L 203.841211 61.601592 
L 204.050733 61.991783 
L 204.260255 62.094834 
L 204.574538 63.398013 
L 204.679299 63.398013 
L 204.888822 64.454324 
L 205.098344 65.038154 
L 205.307866 64.262665 
L 205.517388 64.442968 
L 205.831671 66.014476 
L 205.936432 66.014476 
L 206.145954 65.002979 
L 206.355477 65.91125 
L 206.879282 64.00444 
L 206.984043 64.00444 
L 207.193565 63.79362 
L 207.403087 65.390986 
L 207.612609 65.993656 
L 207.822131 64.917894 
L 208.241176 66.021959 
L 208.450698 65.962761 
L 208.66022 66.534449 
L 208.869742 66.679868 
L 209.079264 68.018077 
L 209.288786 68.093756 
L 209.498309 66.927348 
L 209.707831 66.226955 
L 209.917353 66.780764 
L 210.126875 65.800628 
L 210.441158 65.211702 
L 210.545919 65.211702 
L 210.755441 64.462128 
L 210.964963 65.543946 
L 211.279247 63.778886 
L 211.384008 63.778886 
L 211.698291 64.39565 
L 211.803052 64.39565 
L 212.012574 65.208528 
L 212.222096 65.104487 
L 212.431618 65.638466 
L 212.641141 65.022809 
L 212.850663 65.985823 
L 213.060185 65.984076 
L 213.269707 65.313122 
L 213.479229 65.862738 
L 213.688751 65.743934 
L 213.898273 65.986405 
L 214.107795 65.790524 
L 214.317318 66.19277 
L 214.52684 66.048545 
L 214.736362 66.492197 
L 214.945884 66.289881 
L 215.155406 67.306386 
L 215.364928 67.656306 
L 215.57445 67.619441 
L 215.888734 67.183534 
L 215.993495 67.183534 
L 216.203017 66.386904 
L 216.412539 67.149902 
L 216.622061 67.230852 
L 216.831583 68.253443 
L 217.041105 68.941227 
L 217.250627 67.693286 
L 217.46015 68.921601 
L 217.774433 70.013553 
L 218.088716 69.929371 
L 218.298238 71.175041 
L 218.50776 69.945212 
L 218.717282 70.255763 
L 218.926805 68.718906 
L 219.241088 69.734276 
L 219.345849 69.734276 
L 219.555371 67.623576 
L 219.764893 67.981795 
L 219.974415 67.382007 
L 220.183937 67.617811 
L 220.393459 66.393427 
L 220.602982 68.157992 
L 220.812504 68.442773 
L 221.022026 68.513823 
L 221.231548 66.955505 
L 221.44107 65.662314 
L 221.650592 66.387894 
L 221.860114 65.535706 
L 222.069637 65.869727 
L 222.279159 65.322848 
L 222.488681 66.487509 
L 222.698203 66.317136 
L 222.907725 66.343197 
L 223.326769 67.285566 
L 223.641053 68.965017 
L 223.745814 68.965017 
L 223.955336 70.463991 
L 224.164858 70.138123 
L 224.37438 70.879748 
L 224.688663 68.911788 
L 224.793424 68.911788 
L 225.002946 68.359843 
L 225.212469 68.841437 
L 225.421991 67.816837 
L 225.631513 67.807781 
L 226.050557 66.132436 
L 226.260079 68.088573 
L 226.469601 68.57139 
L 226.679123 68.063909 
L 226.888646 69.298281 
L 227.202929 70.386448 
L 227.30769 70.386448 
L 227.517212 72.590385 
L 227.831495 72.115633 
L 227.936256 72.115633 
L 228.250539 71.231094 
L 228.355301 71.231094 
L 228.564823 70.702589 
L 228.774345 72.771387 
L 228.983867 73.872832 
L 229.29815 72.413576 
L 229.402911 72.413576 
L 229.612433 71.263998 
L 229.821955 72.381546 
L 230.031478 72.261897 
L 230.241 72.797769 
L 230.450522 71.731004 
L 230.660044 71.627371 
L 230.974327 68.259238 
L 231.498133 68.352534 
L 231.812416 66.683216 
L 231.917177 66.683216 
L 232.126699 67.011646 
L 232.336221 66.716586 
L 232.545743 66.680829 
L 232.860026 67.44799 
L 232.964787 67.44799 
L 233.17431 66.90149 
L 233.802876 69.495036 
L 234.012398 68.756353 
L 234.640965 68.860306 
L 234.850487 68.397668 
L 235.060009 68.026579 
L 235.269531 68.865635 
L 235.479053 69.027506 
L 235.688575 67.414242 
L 236.002858 69.668409 
L 236.107619 69.668409 
L 236.421903 70.507785 
L 236.526664 70.507785 
L 236.736186 70.36886 
L 237.15523 71.756017 
L 237.469513 71.56858 
L 237.574274 71.56858 
L 237.783797 72.692825 
L 237.993319 70.605275 
L 238.202841 70.839593 
L 238.412363 70.598374 
L 238.831407 71.958946 
L 239.14569 70.623037 
L 239.250451 70.623037 
L 239.564735 69.560204 
L 239.669496 69.560204 
L 240.08854 72.352194 
L 240.298062 70.375412 
L 240.507584 71.511566 
L 240.717106 71.639688 
L 240.926629 71.424792 
L 241.136151 71.563659 
L 241.345673 72.227158 
L 241.555195 72.771358 
L 241.764717 72.525654 
L 241.974239 72.939635 
L 242.183761 72.676809 
L 242.393283 73.215011 
L 242.812328 70.955253 
L 243.02185 72.542863 
L 243.231372 73.658256 
L 243.440894 72.945546 
L 243.650416 73.523669 
L 243.859938 75.395333 
L 244.069461 74.319192 
L 244.278983 73.802131 
L 244.593266 75.595466 
L 244.698027 75.595466 
L 244.907549 78.780122 
L 245.117071 77.158617 
L 245.326593 76.420312 
L 245.536115 77.161092 
L 245.745638 76.841514 
L 245.95516 75.512652 
L 246.164682 76.833536 
L 246.374204 77.280333 
L 246.583726 76.518646 
L 246.793248 75.883304 
L 247.00277 73.756648 
L 247.212293 73.508091 
L 247.421815 73.536918 
L 247.736098 72.667288 
L 247.840859 72.667288 
L 248.050381 73.467004 
L 248.364664 71.998372 
L 248.469425 71.998372 
L 248.678947 72.938732 
L 248.88847 72.436493 
L 249.097992 72.010631 
L 249.307514 71.962906 
L 249.517036 72.919601 
L 249.726558 73.381424 
L 250.040841 72.453294 
L 250.145602 72.453294 
L 250.355125 72.050932 
L 250.564647 72.779773 
L 250.774169 71.821505 
L 250.983691 71.771508 
L 251.297974 73.129868 
L 251.402735 73.129868 
L 251.612257 72.629899 
L 251.821779 72.283911 
L 252.031302 72.976266 
L 252.240824 73.394964 
L 252.450346 72.000615 
L 252.86939 72.641605 
L 253.288434 74.56708 
L 253.497957 73.790047 
L 253.707479 73.894729 
L 253.917001 73.738653 
L 254.126523 74.484266 
L 254.336045 74.943469 
L 254.545567 75.231598 
L 254.755089 74.645759 
L 254.964611 74.462253 
L 255.383656 72.214026 
L 255.593178 72.37712 
L 255.8027 71.653607 
L 256.012222 71.741749 
L 256.221744 70.520248 
L 256.431266 70.089466 
L 256.640789 70.583931 
L 256.850311 70.604692 
L 257.059833 72.007632 
L 257.269355 72.305575 
L 257.478877 72.069014 
L 257.79316 74.396561 
L 257.897921 74.396561 
L 258.316966 75.345191 
L 258.526488 74.64407 
L 258.73601 75.0029 
L 258.945532 74.587638 
L 259.155054 74.440792 
L 259.364576 74.576369 
L 259.574098 75.586759 
L 259.783621 76.316358 
L 259.993143 75.644036 
L 260.412187 74.769018 
L 260.621709 75.772246 
L 261.040753 75.746912 
L 261.355037 74.251404 
L 261.459798 74.251404 
L 261.66932 75.922877 
L 261.878842 74.97483 
L 262.088364 74.98042 
L 262.297886 75.734013 
L 262.926453 74.248987 
L 263.135975 74.65266 
L 263.345497 74.707869 
L 263.555019 75.353577 
L 263.764541 74.285007 
L 263.974063 75.787329 
L 264.183585 75.839888 
L 264.393107 74.944779 
L 264.60263 76.539349 
L 264.812152 77.124286 
L 265.021674 76.953709 
L 265.231196 77.328612 
L 265.440718 76.971471 
L 265.859762 76.192691 
L 266.069285 74.181898 
L 266.278807 73.799103 
L 266.488329 73.800879 
L 266.697851 74.126747 
L 266.907373 74.153682 
L 267.116895 74.677586 
L 267.535939 75.143864 
L 267.745462 76.63084 
L 267.954984 76.197728 
L 268.164506 77.004725 
L 268.478789 77.828726 
L 268.58355 77.828726 
L 268.793072 76.728097 
L 269.002594 75.970428 
L 269.212117 75.928468 
L 269.421639 75.397167 
L 269.631161 75.235791 
L 269.840683 73.828105 
L 270.050205 73.726597 
L 270.259727 72.710645 
L 270.469249 73.010393 
L 270.678771 73.002007 
L 270.888294 72.630307 
L 271.097816 73.43081 
L 271.307338 73.793658 
L 271.51686 73.898835 
L 271.726382 75.608715 
L 271.935904 76.142898 
L 272.354949 75.922003 
L 272.564471 76.623269 
L 272.773993 77.164382 
L 272.983515 77.071581 
L 273.297798 76.128455 
L 273.612081 76.10449 
L 273.821603 74.803524 
L 274.031126 74.799535 
L 274.240648 75.115997 
L 274.45017 76.248278 
L 274.659692 75.044132 
L 274.869214 75.114133 
L 275.078736 76.311757 
L 275.288258 76.18381 
L 275.602542 76.459389 
L 275.707303 76.459389 
L 275.916825 75.958023 
L 276.126347 76.142053 
L 276.335869 77.186716 
L 276.754913 78.478132 
L 276.964435 77.660303 
L 277.173958 77.185057 
L 277.38348 78.199873 
L 277.593002 78.69923 
L 277.802524 78.807901 
L 278.012046 79.324234 
L 278.326329 77.527813 
L 278.43109 77.527813 
L 278.640613 76.349 
L 278.850135 75.929574 
L 279.059657 75.936563 
L 279.269179 75.736109 
L 279.478701 74.550832 
L 279.688223 74.561198 
L 279.897745 74.766572 
L 280.107267 74.412052 
L 280.31679 74.60278 
L 280.526312 74.613292 
L 280.735834 74.341323 
L 281.154878 75.033038 
L 281.3644 76.661939 
L 281.573922 77.772236 
L 281.783445 76.961804 
L 281.992967 76.896374 
L 282.412011 77.644346 
L 282.726294 80.79869 
L 282.831055 80.79869 
L 283.040577 81.715085 
L 283.250099 82.450973 
L 283.459622 80.145644 
L 283.669144 80.157146 
L 283.878666 80.743277 
L 284.088188 80.590345 
L 284.29771 80.567982 
L 284.507232 79.948307 
L 284.821515 78.623638 
L 284.926277 78.623638 
L 285.135799 77.329719 
L 285.345321 77.326545 
L 285.554843 78.266497 
L 285.764365 77.026272 
L 285.973887 78.64472 
L 286.183409 79.68353 
L 286.392931 79.191016 
L 286.602454 79.711222 
L 286.811976 78.565575 
L 287.021498 78.02254 
L 287.23102 78.371149 
L 287.440542 77.793929 
L 287.650064 77.457171 
L 287.859586 77.974989 
L 288.069109 76.965472 
L 288.278631 76.4478 
L 288.488153 76.708238 
L 288.697675 76.567187 
L 288.907197 76.752644 
L 289.116719 76.810677 
L 289.431002 76.510056 
L 289.954808 76.517889 
L 290.16433 75.874802 
L 290.373852 75.505373 
L 290.897657 77.441767 
L 291.002418 77.441767 
L 291.211941 77.103524 
L 291.421463 77.171022 
L 291.630985 76.952777 
L 291.840507 78.796254 
L 292.050029 79.619207 
L 292.259551 79.486251 
L 292.469073 81.950422 
L 292.678595 82.407703 
L 292.888118 82.109876 
L 293.09764 82.61529 
L 293.307162 82.589636 
L 293.516684 82.90243 
L 293.726206 82.75209 
L 293.935728 82.759632 
L 294.14525 82.208443 
L 294.354773 83.197781 
L 294.564295 81.31942 
L 294.773817 80.472385 
L 295.0881 78.943507 
L 295.192861 78.943507 
L 295.402383 80.024627 
L 295.611905 79.775283 
L 295.821427 79.922012 
L 296.03095 78.824586 
L 296.240472 78.951311 
L 296.449994 77.898494 
L 296.659516 77.575801 
L 296.869038 77.48958 
L 297.07856 78.955766 
L 297.288082 80.260139 
L 297.497605 79.685976 
L 297.707127 82.169337 
L 298.02141 83.33889 
L 298.126171 83.33889 
L 298.440454 84.349805 
L 298.545215 84.349805 
L 298.859498 85.218474 
L 298.964259 85.218474 
L 299.173782 85.015575 
L 299.383304 83.594989 
L 299.592826 84.885414 
L 299.802348 82.53201 
L 300.01187 83.20806 
L 300.221392 83.289301 
L 300.430914 84.515403 
L 300.640437 85.483396 
L 300.849959 84.344068 
L 301.059481 84.782305 
L 301.269003 83.113832 
L 301.478525 84.297799 
L 301.688047 84.05489 
L 301.897569 84.146469 
L 302.107091 84.101102 
L 302.316614 84.145333 
L 302.526136 82.246705 
L 302.735658 81.377599 
L 302.94518 81.812866 
L 303.154702 81.51996 
L 303.364224 82.126532 
L 303.573746 81.958488 
L 303.783269 80.954067 
L 303.992791 80.95363 
L 304.202313 81.199218 
L 304.411835 80.353843 
L 304.621357 80.680642 
L 304.830879 80.81124 
L 305.145162 80.858791 
L 305.249923 80.858791 
L 305.564207 80.024248 
L 305.668968 80.024248 
L 305.983251 79.810954 
L 306.088012 79.810954 
L 306.297534 78.440394 
L 306.507056 79.323128 
L 306.716578 79.6614 
L 306.926101 78.975246 
L 307.135623 79.34322 
L 307.554667 80.02518 
L 307.764189 79.586972 
L 308.078472 82.336391 
L 308.183233 82.336391 
L 308.392755 83.343142 
L 308.602278 81.970281 
L 308.8118 81.642929 
L 309.440366 85.582342 
L 309.649888 85.144891 
L 309.85941 86.050338 
L 310.068933 85.49053 
L 310.278455 83.593854 
L 310.487977 82.971645 
L 310.697499 83.353333 
L 310.907021 82.919814 
L 311.116543 83.781058 
L 311.326065 82.062762 
L 311.535587 80.751314 
L 311.74511 81.275305 
L 311.954632 80.595732 
L 312.164154 80.504969 
L 312.478437 80.551035 
L 312.79272 80.465251 
L 313.002242 80.415487 
L 313.211764 80.792575 
L 313.421287 81.071765 
L 313.630809 80.89979 
L 314.049853 82.053095 
L 314.259375 83.814282 
L 314.468897 84.25613 
L 314.678419 84.385504 
L 314.887942 84.072798 
L 315.097464 86.239406 
L 315.411747 84.834078 
L 315.516508 84.834078 
L 315.72603 86.189205 
L 315.935552 84.982613 
L 316.145074 85.263667 
L 316.354596 83.560891 
L 316.66888 83.20212 
L 316.773641 83.20212 
L 316.983163 83.676463 
L 317.192685 81.904124 
L 317.402207 81.137806 
L 317.611729 81.142436 
L 317.821251 80.467406 
L 318.030774 81.017342 
L 318.240296 80.277232 
L 318.449818 80.283783 
L 318.65934 80.117603 
L 318.868862 80.149983 
L 319.078384 80.420991 
L 319.287906 81.332436 
L 319.497428 81.951383 
L 319.706951 82.233136 
L 319.916473 82.062209 
L 320.125995 83.672503 
L 320.335517 84.197164 
L 320.545039 84.175005 
L 320.754561 84.721039 
L 320.964083 84.746926 
L 321.173606 84.501222 
L 321.383128 83.589107 
L 321.59265 82.927384 
L 321.802172 82.536174 
L 322.011694 82.744228 
L 322.221216 81.138418 
L 322.430738 80.717128 
L 322.64026 80.759641 
L 322.849783 80.316746 
L 323.268827 80.359259 
L 323.478349 80.115565 
L 323.792632 83.53914 
L 323.897393 83.53914 
L 324.106915 83.32832 
L 324.316438 84.383029 
L 324.52596 84.327616 
L 324.840243 86.135947 
L 324.945004 86.135947 
L 325.154526 87.189579 
L 325.364048 87.75026 
L 325.57357 87.799849 
L 325.887854 84.425979 
L 325.992615 84.425979 
L 326.202137 84.770279 
L 326.411659 83.82756 
L 326.621181 84.077224 
L 326.830703 83.015236 
L 327.040225 84.014066 
L 327.249747 83.808983 
L 327.45927 82.878552 
L 327.668792 83.331465 
L 327.878314 83.282837 
L 328.087836 83.813147 
L 328.297358 83.233568 
L 328.50688 84.882473 
L 328.821163 88.132617 
L 328.925924 88.132617 
L 329.135447 86.529312 
L 329.344969 85.04481 
L 329.554491 87.194936 
L 329.764013 87.580701 
L 329.973535 86.083504 
L 330.287818 122.394895 
L 330.392579 122.394895 
L 330.706863 157.79784 
L 330.811624 157.79784 
L 331.125907 195.336382 
L 331.230668 195.336382 
L 331.44019 215.518303 
L 331.754473 252.139779 
L 331.859234 252.139779 
L 332.068756 274.889885 
L 332.278279 281.316357 
L 332.487801 279.308068 
L 332.802084 279.042796 
L 332.906845 279.042796 
L 333.116367 279.732881 
L 333.325889 278.914324 
L 333.535411 279.167832 
L 333.744934 279.24587 
L 333.954456 279.248928 
L 334.163978 277.861333 
L 334.3735 278.340627 
L 334.583022 277.453759 
L 334.792544 278.761509 
L 335.002066 282.786444 
L 335.211588 282.042344 
L 335.525872 285.334652 
L 335.630633 285.334652 
L 335.840155 285.157552 
L 336.049677 285.357452 
L 336.259199 287.126851 
L 336.468721 288.008857 
L 336.678243 288.581826 
L 336.887766 288.472427 
L 337.097288 285.010066 
L 337.30681 284.847118 
L 337.516332 283.769958 
L 337.830615 285.937497 
L 337.935376 285.937497 
L 338.144898 287.130025 
L 338.35442 286.650848 
L 338.563943 284.959749 
L 338.773465 284.827783 
L 338.982987 285.629974 
L 339.192509 286.084576 
L 339.506792 290.878012 
L 339.611553 290.878012 
L 339.821075 290.364969 
L 340.135359 291.335205 
L 340.24012 291.335205 
L 340.554403 293.791048 
L 340.659164 293.791048 
L 340.868686 294.458275 
L 341.078208 294.224626 
L 341.28773 295.488 
L 341.497252 293.401061 
L 341.811536 290.91508 
L 341.916297 290.91508 
L 342.23058 289.328081 
L 342.335341 289.328081 
L 342.649624 283.963306 
L 342.754385 283.963306 
L 342.963907 284.864997 
L 343.17343 285.318171 
L 343.382952 282.921759 
L 343.697235 285.213198 
L 344.011518 285.278541 
L 344.22104 282.565986 
L 344.430562 284.783552 
L 344.640084 285.172083 
L 344.849607 286.772156 
L 345.16389 283.801086 
L 345.268651 283.801086 
L 345.478173 284.587437 
L 345.687695 284.307315 
L 345.897217 282.135728 
L 346.106739 282.349081 
L 346.316262 285.013444 
L 346.525784 281.587306 
L 346.735306 282.800712 
L 346.944828 283.032759 
L 347.15435 282.24338 
L 347.363872 282.440805 
L 347.678155 281.571437 
L 347.782916 281.571437 
L 347.992439 280.819271 
L 348.201961 280.279818 
L 348.411483 280.123392 
L 348.621005 281.62583 
L 348.830527 280.4552 
L 349.040049 280.364291 
L 349.249571 280.655769 
L 349.459094 280.772914 
L 349.668616 281.722504 
L 349.878138 281.984835 
L 350.08766 283.014851 
L 350.297182 283.931945 
L 350.506704 282.770749 
L 350.716226 282.594901 
L 350.925748 282.706775 
L 351.135271 282.434981 
L 351.344793 284.168273 
L 351.554315 284.386809 
L 351.763837 284.259182 
L 351.973359 284.949936 
L 352.287642 283.104071 
L 352.392403 283.104071 
L 352.601926 284.357807 
L 352.811448 285.393094 
L 353.02097 285.433074 
L 353.230492 286.088478 
L 353.440014 286.406978 
L 353.649536 287.751273 
L 353.963819 284.911994 
L 354.06858 284.911994 
L 354.697147 287.968877 
L 355.01143 286.461489 
L 355.116191 286.461489 
L 355.325713 285.202395 
L 355.744758 281.605476 
L 355.95428 281.662462 
L 356.163802 282.883031 
L 356.373324 281.383825 
L 356.582846 280.757277 
L 356.792368 280.22621 
L 357.00189 280.020312 
L 357.211412 280.431206 
L 357.420935 280.225744 
L 357.735218 282.310965 
L 358.049501 282.391536 
L 358.259023 280.92273 
L 358.468545 283.153952 
L 358.782828 280.167099 
L 358.88759 280.167099 
L 359.097112 280.822008 
L 359.306634 283.084008 
L 359.516156 284.090351 
L 359.725678 280.585622 
L 360.039961 282.816087 
L 360.144722 282.816087 
L 360.354244 284.862056 
L 360.668528 283.884977 
L 360.773289 283.884977 
L 360.982811 282.974173 
L 361.192333 283.607796 
L 361.401855 282.958361 
L 361.716138 285.802415 
L 361.820899 285.802415 
L 362.030422 285.999724 
L 362.239944 286.837673 
L 362.449466 286.375268 
L 363.078032 291.165443 
L 363.287554 290.712792 
L 363.497076 288.450501 
L 363.706599 287.058364 
L 364.125643 284.802275 
L 364.335165 282.513806 
L 364.544687 280.999196 
L 364.85897 278.69474 
L 364.963731 278.69474 
L 365.278015 273.534379 
L 365.382776 273.534379 
L 365.592298 275.754099 
L 365.80182 274.689839 
L 366.011342 274.717647 
L 366.220864 277.365296 
L 366.430386 279.214626 
L 366.639908 278.827463 
L 366.849431 279.455379 
L 367.058953 278.963477 
L 367.268475 281.727862 
L 367.477997 283.813636 
L 367.687519 282.919691 
L 367.897041 284.446124 
L 368.211324 281.69918 
L 368.525608 281.592751 
L 368.73513 283.939866 
L 368.944652 282.536285 
L 369.258935 281.620094 
L 369.363696 281.620094 
L 369.573218 282.300511 
L 369.78274 281.825527 
L 369.992263 281.470861 
L 370.201785 284.440009 
L 370.411307 285.627703 
L 370.935112 283.558148 
L 371.039873 283.558148 
L 371.458918 282.522862 
L 371.66844 279.256003 
L 372.087484 280.808992 
L 372.297006 279.433831 
L 372.611289 276.887167 
L 372.71605 276.887167 
L 372.925572 276.083898 
L 373.135095 276.722355 
L 373.344617 276.746028 
L 373.6589 281.452399 
L 373.763661 281.452399 
L 373.973183 281.319734 
L 374.182705 280.079976 
L 374.392227 279.54821 
L 374.60175 277.303535 
L 374.811272 278.527075 
L 375.020794 279.334478 
L 375.230316 279.336546 
L 375.439838 280.177407 
L 375.64936 280.162091 
L 375.858882 279.375245 
L 376.068404 279.058142 
L 376.277927 280.158247 
L 376.487449 278.877227 
L 376.696971 280.001588 
L 376.906493 278.951451 
L 377.430298 282.993245 
L 377.535059 282.993245 
L 377.954104 282.578857 
L 378.163626 283.563798 
L 378.373148 283.872048 
L 378.58267 288.370512 
L 378.792192 288.846894 
L 379.001714 287.513868 
L 379.315998 284.436136 
L 379.420759 284.436136 
L 379.630281 284.753443 
L 379.839803 283.812355 
L 380.049325 286.625718 
L 380.258847 285.833747 
L 380.468369 285.324403 
L 380.677891 281.076389 
L 380.887414 280.301919 
L 381.096936 282.343898 
L 381.306458 280.994682 
L 381.725502 281.643884 
L 381.935024 282.411482 
L 382.144546 281.194582 
L 382.354068 282.199411 
L 382.563591 280.627815 
L 382.773113 281.599536 
L 382.982635 281.149856 
L 383.192157 280.758791 
L 383.401679 282.684616 
L 383.611201 282.54176 
L 383.820723 281.447595 
L 384.030246 281.496893 
L 384.239768 282.006936 
L 384.44929 281.069779 
L 384.658812 282.376453 
L 384.868334 281.622394 
L 385.077856 283.249723 
L 385.287378 284.239905 
L 385.4969 283.132695 
L 385.706423 283.432705 
L 385.915945 283.588607 
L 386.43975 280.267646 
L 386.544511 280.267646 
L 386.754033 280.483212 
L 387.068316 284.058321 
L 387.592122 283.955328 
L 387.801644 282.689974 
L 388.011166 282.995662 
L 388.325449 282.17367 
L 388.43021 282.17367 
L 388.639732 282.014128 
L 388.849255 279.788789 
L 389.058777 280.421509 
L 389.37306 277.977109 
L 389.477821 277.977109 
L 389.687343 279.05392 
L 389.896865 279.774346 
L 390.106387 278.565191 
L 390.31591 280.307131 
L 390.525432 279.979312 
L 390.839715 284.964058 
L 390.944476 284.964058 
L 391.153998 284.087032 
L 391.36352 283.341505 
L 391.992087 281.168375 
L 392.201609 282.163537 
L 392.411131 279.329354 
L 392.620653 281.013755 
L 392.934936 276.228327 
L 393.039697 276.228327 
L 393.249219 276.010198 
L 393.458742 276.361661 
L 393.668264 278.572878 
L 393.877786 279.341816 
L 394.192069 278.7724 
L 394.29683 278.7724 
L 394.715874 277.242823 
L 395.030158 280.278303 
L 395.134919 280.278303 
L 395.344441 281.975022 
L 395.553963 281.522663 
L 395.763485 279.562187 
L 395.973007 279.665413 
L 396.182529 280.420548 
L 396.392051 279.756729 
L 396.601574 281.486002 
L 396.811096 282.326631 
L 397.020618 279.878096 
L 397.23014 280.136321 
L 397.544423 278.669378 
L 397.649184 278.669378 
L 397.858706 280.924127 
L 398.068228 280.83284 
L 398.277751 280.864638 
L 398.487273 281.125367 
L 398.487273 281.125367 
" clip-path="url(#p8defc237e5)" style="fill: none; stroke: #ff0000; stroke-width: 1.5; stroke-linecap: square"/>
   </g>
   <g id="patch_3">
    <path d="M 57.6 307.584 
L 57.6 41.472 
" style="fill: none; stroke: #000000; stroke-width: 0.8; stroke-linejoin: miter; stroke-linecap: square"/>
   </g>
   <g id="patch_4">
    <path d="M 414.72 307.584 
L 414.72 41.472 
" style="fill: none; stroke: #000000; stroke-width: 0.8; stroke-linejoin: miter; stroke-linecap: square"/>
   </g>
   <g id="patch_5">
    <path d="M 57.6 307.584 
L 414.72 307.584 
" style="fill: none; stroke: #000000; stroke-width: 0.8; stroke-linejoin: miter; stroke-linecap: square"/>
   </g>
   <g id="patch_6">
    <path d="M 57.6 41.472 
L 414.72 41.472 
" style="fill: none; stroke: #000000; stroke-width: 0.8; stroke-linejoin: miter; stroke-linecap: square"/>
   </g>
   <g id="text_15">
    <!-- Output order 9 moving average FIR (channel L) -->
    <g transform="translate(94.085625 35.472) scale(0.12 -0.12)">
     <defs>
      <path id="DejaVuSans-4f" d="M 2522 4238 
Q 1834 4238 1429 3725 
Q 1025 3213 1025 2328 
Q 1025 1447 1429 934 
Q 1834 422 2522 422 
Q 3209 422 3611 934 
Q 4013 1447 4013 2328 
Q 4013 3213 3611 3725 
Q 3209 4238 2522 4238 
z
M 2522 4750 
Q 3503 4750 4090 4092 
Q 4678 3434 4678 2328 
Q 4678 1225 4090 567 
Q 3503 -91 2522 -91 
Q 1538 -91 948 565 
Q 359 1222 359 2328 
Q 359 3434 948 4092 
Q 1538 4750 2522 4750 
z
" transform="scale(0.015625)"/>
      <path id="DejaVuSans-20" transform="scale(0.015625)"/>
      <path id="DejaVuSans-6f" d="M 1959 3097 
Q 1497 3097 1228 2736 
Q 959 2375 959 1747 
Q 959 1119 1226 758 
Q 1494 397 1959 397 
Q 2419 397 2687 759 
Q 2956 1122 2956 1747 
Q 2956 2369 2687 2733 
Q 2419 3097 1959 3097 
z
M 1959 3584 
Q 2709 3584 3137 3096 
Q 3566 2609 3566 1747 
Q 3566 888 3137 398 
Q 2709 -91 1959 -91 
Q 1206 -91 779 398 
Q 353 888 353 1747 
Q 353 2609 779 3096 
Q 1206 3584 1959 3584 
z
" transform="scale(0.015625)"/>
      <path id="DejaVuSans-72" d="M 2631 2963 
Q 2534 3019 2420 3045 
Q 2306 3072 2169 3072 
Q 1681 3072 1420 2755 
Q 1159 2438 1159 1844 
L 1159 0 
L 581 0 
L 581 3500 
L 1159 3500 
L 1159 2956 
Q 1341 3275 1631 3429 
Q 1922 3584 2338 3584 
Q 2397 3584 2469 3576 
Q 2541 3569 2628 3553 
L 2631 2963 
z
" transform="scale(0.015625)"/>
      <path id="DejaVuSans-39" d="M 703 97 
L 703 672 
Q 941 559 1184 500 
Q 1428 441 1663 441 
Q 2288 441 2617 861 
Q 2947 1281 2994 2138 
Q 2813 1869 2534 1725 
Q 2256 1581 1919 1581 
Q 1219 1581 811 2004 
Q 403 2428 403 3163 
Q 403 3881 828 4315 
Q 1253 4750 1959 4750 
Q 2769 4750 3195 4129 
Q 3622 3509 3622 2328 
Q 3622 1225 3098 567 
Q 2575 -91 1691 -91 
Q 1453 -91 1209 -44 
Q 966 3 703 97 
z
M 1959 2075 
Q 2384 2075 2632 2365 
Q 2881 2656 2881 3163 
Q 2881 3666 2632 3958 
Q 2384 4250 1959 4250 
Q 1534 4250 1286 3958 
Q 1038 3666 1038 3163 
Q 1038 2656 1286 2365 
Q 1534 2075 1959 2075 
z
" transform="scale(0.015625)"/>
      <path id="DejaVuSans-76" d="M 191 3500 
L 800 3500 
L 1894 563 
L 2988 3500 
L 3597 3500 
L 2284 0 
L 1503 0 
L 191 3500 
z
" transform="scale(0.015625)"/>
      <path id="DejaVuSans-6e" d="M 3513 2113 
L 3513 0 
L 2938 0 
L 2938 2094 
Q 2938 2591 2744 2837 
Q 2550 3084 2163 3084 
Q 1697 3084 1428 2787 
Q 1159 2491 1159 1978 
L 1159 0 
L 581 0 
L 581 3500 
L 1159 3500 
L 1159 2956 
Q 1366 3272 1645 3428 
Q 1925 3584 2291 3584 
Q 2894 3584 3203 3211 
Q 3513 2838 3513 2113 
z
" transform="scale(0.015625)"/>
      <path id="DejaVuSans-67" d="M 2906 1791 
Q 2906 2416 2648 2759 
Q 2391 3103 1925 3103 
Q 1463 3103 1205 2759 
Q 947 2416 947 1791 
Q 947 1169 1205 825 
Q 1463 481 1925 481 
Q 2391 481 2648 825 
Q 2906 1169 2906 1791 
z
M 3481 434 
Q 3481 -459 3084 -895 
Q 2688 -1331 1869 -1331 
Q 1566 -1331 1297 -1286 
Q 1028 -1241 775 -1147 
L 775 -588 
Q 1028 -725 1275 -790 
Q 1522 -856 1778 -856 
Q 2344 -856 2625 -561 
Q 2906 -266 2906 331 
L 2906 616 
Q 2728 306 2450 153 
Q 2172 0 1784 0 
Q 1141 0 747 490 
Q 353 981 353 1791 
Q 353 2603 747 3093 
Q 1141 3584 1784 3584 
Q 2172 3584 2450 3431 
Q 2728 3278 2906 2969 
L 2906 3500 
L 3481 3500 
L 3481 434 
z
" transform="scale(0.015625)"/>
      <path id="DejaVuSans-46" d="M 628 4666 
L 3309 4666 
L 3309 4134 
L 1259 4134 
L 1259 2759 
L 3109 2759 
L 3109 2228 
L 1259 2228 
L 1259 0 
L 628 0 
L 628 4666 
z
" transform="scale(0.015625)"/>
      <path id="DejaVuSans-49" d="M 628 4666 
L 1259 4666 
L 1259 0 
L 628 0 
L 628 4666 
z
" transform="scale(0.015625)"/>
      <path id="DejaVuSans-52" d="M 2841 2188 
Q 3044 2119 3236 1894 
Q 3428 1669 3622 1275 
L 4263 0 
L 3584 0 
L 2988 1197 
Q 2756 1666 2539 1819 
Q 2322 1972 1947 1972 
L 1259 1972 
L 1259 0 
L 628 0 
L 628 4666 
L 2053 4666 
Q 2853 4666 3247 4331 
Q 3641 3997 3641 3322 
Q 3641 2881 3436 2590 
Q 3231 2300 2841 2188 
z
M 1259 4147 
L 1259 2491 
L 2053 2491 
Q 2509 2491 2742 2702 
Q 2975 2913 2975 3322 
Q 2975 3731 2742 3939 
Q 2509 4147 2053 4147 
L 1259 4147 
z
" transform="scale(0.015625)"/>
      <path id="DejaVuSans-28" d="M 1984 4856 
Q 1566 4138 1362 3434 
Q 1159 2731 1159 2009 
Q 1159 1288 1364 580 
Q 1569 -128 1984 -844 
L 1484 -844 
Q 1016 -109 783 600 
Q 550 1309 550 2009 
Q 550 2706 781 3412 
Q 1013 4119 1484 4856 
L 1984 4856 
z
" transform="scale(0.015625)"/>
      <path id="DejaVuSans-63" d="M 3122 3366 
L 3122 2828 
Q 2878 2963 2633 3030 
Q 2388 3097 2138 3097 
Q 1578 3097 1268 2742 
Q 959 2388 959 1747 
Q 959 1106 1268 751 
Q 1578 397 2138 397 
Q 2388 397 2633 464 
Q 2878 531 3122 666 
L 3122 134 
Q 2881 22 2623 -34 
Q 2366 -91 2075 -91 
Q 1284 -91 818 406 
Q 353 903 353 1747 
Q 353 2603 823 3093 
Q 1294 3584 2113 3584 
Q 2378 3584 2631 3529 
Q 2884 3475 3122 3366 
z
" transform="scale(0.015625)"/>
      <path id="DejaVuSans-68" d="M 3513 2113 
L 3513 0 
L 2938 0 
L 2938 2094 
Q 2938 2591 2744 2837 
Q 2550 3084 2163 3084 
Q 1697 3084 1428 2787 
Q 1159 2491 1159 1978 
L 1159 0 
L 581 0 
L 581 4863 
L 1159 4863 
L 1159 2956 
Q 1366 3272 1645 3428 
Q 1925 3584 2291 3584 
Q 2894 3584 3203 3211 
Q 3513 2838 3513 2113 
z
" transform="scale(0.015625)"/>
      <path id="DejaVuSans-4c" d="M 628 4666 
L 1259 4666 
L 1259 531 
L 3531 531 
L 3531 0 
L 628 0 
L 628 4666 
z
" transform="scale(0.015625)"/>
      <path id="DejaVuSans-29" d="M 513 4856 
L 1013 4856 
Q 1481 4119 1714 3412 
Q 1947 2706 1947 2009 
Q 1947 1309 1714 600 
Q 1481 -109 1013 -844 
L 513 -844 
Q 928 -128 1133 580 
Q 1338 1288 1338 2009 
Q 1338 2731 1133 3434 
Q 928 4138 513 4856 
z
" transform="scale(0.015625)"/>
     </defs>
     <use xlink:href="#DejaVuSans-4f"/>
     <use xlink:href="#DejaVuSans-75" x="78.710938"/>
     <use xlink:href="#DejaVuSans-74" x="142.089844"/>
     <use xlink:href="#DejaVuSans-70" x="181.298828"/>
     <use xlink:href="#DejaVuSans-75" x="244.775391"/>
     <use xlink:href="#DejaVuSans-74" x="308.154297"/>
     <use xlink:href="#DejaVuSans-20" x="347.363281"/>
     <use xlink:href="#DejaVuSans-6f" x="379.150391"/>
     <use xlink:href="#DejaVuSans-72" x="440.332031"/>
     <use xlink:href="#DejaVuSans-64" x="479.695312"/>
     <use xlink:href="#DejaVuSans-65" x="543.171875"/>
     <use xlink:href="#DejaVuSans-72" x="604.695312"/>
     <use xlink:href="#DejaVuSans-20" x="645.808594"/>
     <use xlink:href="#DejaVuSans-39" x="677.595703"/>
     <use xlink:href="#DejaVuSans-20" x="741.21875"/>
     <use xlink:href="#DejaVuSans-6d" x="773.005859"/>
     <use xlink:href="#DejaVuSans-6f" x="870.417969"/>
     <use xlink:href="#DejaVuSans-76" x="931.599609"/>
     <use xlink:href="#DejaVuSans-69" x="990.779297"/>
     <use xlink:href="#DejaVuSans-6e" x="1018.5625"/>
     <use xlink:href="#DejaVuSans-67" x="1081.941406"/>
     <use xlink:href="#DejaVuSans-20" x="1145.417969"/>
     <use xlink:href="#DejaVuSans-61" x="1177.205078"/>
     <use xlink:href="#DejaVuSans-76" x="1238.484375"/>
     <use xlink:href="#DejaVuSans-65" x="1297.664062"/>
     <use xlink:href="#DejaVuSans-72" x="1359.1875"/>
     <use xlink:href="#DejaVuSans-61" x="1400.300781"/>
     <use xlink:href="#DejaVuSans-67" x="1461.580078"/>
     <use xlink:href="#DejaVuSans-65" x="1525.056641"/>
     <use xlink:href="#DejaVuSans-20" x="1586.580078"/>
     <use xlink:href="#DejaVuSans-46" x="1618.367188"/>
     <use xlink:href="#DejaVuSans-49" x="1675.886719"/>
     <use xlink:href="#DejaVuSans-52" x="1705.378906"/>
     <use xlink:href="#DejaVuSans-20" x="1774.861328"/>
     <use xlink:href="#DejaVuSans-28" x="1806.648438"/>
     <use xlink:href="#DejaVuSans-63" x="1845.662109"/>
     <use xlink:href="#DejaVuSans-68" x="1900.642578"/>
     <use xlink:href="#DejaVuSans-61" x="1964.021484"/>
     <use xlink:href="#DejaVuSans-6e" x="2025.300781"/>
     <use xlink:href="#DejaVuSans-6e" x="2088.679688"/>
     <use xlink:href="#DejaVuSans-65" x="2152.058594"/>
     <use xlink:href="#DejaVuSans-6c" x="2213.582031"/>
     <use xlink:href="#DejaVuSans-20" x="2241.365234"/>
     <use xlink:href="#DejaVuSans-4c" x="2273.152344"/>
     <use xlink:href="#DejaVuSans-29" x="2328.865234"/>
    </g>
   </g>
  </g>
 </g>
 <defs>
  <clipPath id="p8defc237e5">
   <rect x="57.6" y="41.472" width="357.12" height="266.112"/>
  </clipPath>
 </defs>
</svg>
