<?xml version="1.0" encoding="utf-8" standalone="no"?>
<!DOCTYPE svg PUBLIC "-//W3C//DTD SVG 1.1//EN"
  "http://www.w3.org/Graphics/SVG/1.1/DTD/svg11.dtd">
<svg xmlns:xlink="http://www.w3.org/1999/xlink" width="460.8pt" height="345.6pt" viewBox="0 0 460.8 345.6" xmlns="http://www.w3.org/2000/svg" version="1.1">
 <metadata>
  <rdf:RDF xmlns:dc="http://purl.org/dc/elements/1.1/" xmlns:cc="http://creativecommons.org/ns#" xmlns:rdf="http://www.w3.org/1999/02/22-rdf-syntax-ns#">
   <cc:Work>
    <dc:type rdf:resource="http://purl.org/dc/dcmitype/StillImage"/>
    <dc:date>2025-09-08T22:29:00.183303</dc:date>
    <dc:format>image/svg+xml</dc:format>
    <dc:creator>
     <cc:Agent>
      <dc:title>Matplotlib v3.9.2, https://matplotlib.org/</dc:title>
     </cc:Agent>
    </dc:creator>
   </cc:Work>
  </rdf:RDF>
 </metadata>
 <defs>
  <style type="text/css">*{stroke-linejoin: round; stroke-linecap: butt}</style>
 </defs>
 <g id="figure_1">
  <g id="patch_1">
   <path d="M 0 345.6 
L 460.8 345.6 
L 460.8 0 
L 0 0 
z
" style="fill: #ffffff"/>
  </g>
  <g id="axes_1">
   <g id="patch_2">
    <path d="M 57.6 307.584 
L 414.72 307.584 
L 414.72 41.472 
L 57.6 41.472 
z
" style="fill: #ffffff"/>
   </g>
   <g id="matplotlib.axis_1">
    <g id="xtick_1">
     <g id="line2d_1">
      <path d="M 73.832727 307.584 
L 73.832727 41.472 
" clip-path="url(#p82efa2a02d)" style="fill: none; stroke: #b0b0b0; stroke-width: 0.8; stroke-linecap: square"/>
     </g>
     <g id="line2d_2">
      <defs>
       <path id="m967887fb6e" d="M 0 0 
L 0 3.5 
" style="stroke: #000000; stroke-width: 0.8"/>
      </defs>
      <g>
       <use xlink:href="#m967887fb6e" x="73.832727" y="307.584" style="stroke: #000000; stroke-width: 0.8"/>
      </g>
     </g>
     <g id="text_1">
      <!-- 0 -->
      <g transform="translate(70.651477 322.182437) scale(0.1 -0.1)">
       <defs>
        <path id="DejaVuSans-30" d="M 2034 4250 
Q 1547 4250 1301 3770 
Q 1056 3291 1056 2328 
Q 1056 1369 1301 889 
Q 1547 409 2034 409 
Q 2525 409 2770 889 
Q 3016 1369 3016 2328 
Q 3016 3291 2770 3770 
Q 2525 4250 2034 4250 
z
M 2034 4750 
Q 2819 4750 3233 4129 
Q 3647 3509 3647 2328 
Q 3647 1150 3233 529 
Q 2819 -91 2034 -91 
Q 1250 -91 836 529 
Q 422 1150 422 2328 
Q 422 3509 836 4129 
Q 1250 4750 2034 4750 
z
" transform="scale(0.015625)"/>
       </defs>
       <use xlink:href="#DejaVuSans-30"/>
      </g>
     </g>
    </g>
    <g id="xtick_2">
     <g id="line2d_3">
      <path d="M 114.424693 307.584 
L 114.424693 41.472 
" clip-path="url(#p82efa2a02d)" style="fill: none; stroke: #b0b0b0; stroke-width: 0.8; stroke-linecap: square"/>
     </g>
     <g id="line2d_4">
      <g>
       <use xlink:href="#m967887fb6e" x="114.424693" y="307.584" style="stroke: #000000; stroke-width: 0.8"/>
      </g>
     </g>
     <g id="text_2">
      <!-- 500 -->
      <g transform="translate(104.880943 322.182437) scale(0.1 -0.1)">
       <defs>
        <path id="DejaVuSans-35" d="M 691 4666 
L 3169 4666 
L 3169 4134 
L 1269 4134 
L 1269 2991 
Q 1406 3038 1543 3061 
Q 1681 3084 1819 3084 
Q 2600 3084 3056 2656 
Q 3513 2228 3513 1497 
Q 3513 744 3044 326 
Q 2575 -91 1722 -91 
Q 1428 -91 1123 -41 
Q 819 9 494 109 
L 494 744 
Q 775 591 1075 516 
Q 1375 441 1709 441 
Q 2250 441 2565 725 
Q 2881 1009 2881 1497 
Q 2881 1984 2565 2268 
Q 2250 2553 1709 2553 
Q 1456 2553 1204 2497 
Q 953 2441 691 2322 
L 691 4666 
z
" transform="scale(0.015625)"/>
       </defs>
       <use xlink:href="#DejaVuSans-35"/>
       <use xlink:href="#DejaVuSans-30" x="63.623047"/>
       <use xlink:href="#DejaVuSans-30" x="127.246094"/>
      </g>
     </g>
    </g>
    <g id="xtick_3">
     <g id="line2d_5">
      <path d="M 155.01666 307.584 
L 155.01666 41.472 
" clip-path="url(#p82efa2a02d)" style="fill: none; stroke: #b0b0b0; stroke-width: 0.8; stroke-linecap: square"/>
     </g>
     <g id="line2d_6">
      <g>
       <use xlink:href="#m967887fb6e" x="155.01666" y="307.584" style="stroke: #000000; stroke-width: 0.8"/>
      </g>
     </g>
     <g id="text_3">
      <!-- 1000 -->
      <g transform="translate(142.29166 322.182437) scale(0.1 -0.1)">
       <defs>
        <path id="DejaVuSans-31" d="M 794 531 
L 1825 531 
L 1825 4091 
L 703 3866 
L 703 4441 
L 1819 4666 
L 2450 4666 
L 2450 531 
L 3481 531 
L 3481 0 
L 794 0 
L 794 531 
z
" transform="scale(0.015625)"/>
       </defs>
       <use xlink:href="#DejaVuSans-31"/>
       <use xlink:href="#DejaVuSans-30" x="63.623047"/>
       <use xlink:href="#DejaVuSans-30" x="127.246094"/>
       <use xlink:href="#DejaVuSans-30" x="190.869141"/>
      </g>
     </g>
    </g>
    <g id="xtick_4">
     <g id="line2d_7">
      <path d="M 195.608626 307.584 
L 195.608626 41.472 
" clip-path="url(#p82efa2a02d)" style="fill: none; stroke: #b0b0b0; stroke-width: 0.8; stroke-linecap: square"/>
     </g>
     <g id="line2d_8">
      <g>
       <use xlink:href="#m967887fb6e" x="195.608626" y="307.584" style="stroke: #000000; stroke-width: 0.8"/>
      </g>
     </g>
     <g id="text_4">
      <!-- 1500 -->
      <g transform="translate(182.883626 322.182437) scale(0.1 -0.1)">
       <use xlink:href="#DejaVuSans-31"/>
       <use xlink:href="#DejaVuSans-35" x="63.623047"/>
       <use xlink:href="#DejaVuSans-30" x="127.246094"/>
       <use xlink:href="#DejaVuSans-30" x="190.869141"/>
      </g>
     </g>
    </g>
    <g id="xtick_5">
     <g id="line2d_9">
      <path d="M 236.200592 307.584 
L 236.200592 41.472 
" clip-path="url(#p82efa2a02d)" style="fill: none; stroke: #b0b0b0; stroke-width: 0.8; stroke-linecap: square"/>
     </g>
     <g id="line2d_10">
      <g>
       <use xlink:href="#m967887fb6e" x="236.200592" y="307.584" style="stroke: #000000; stroke-width: 0.8"/>
      </g>
     </g>
     <g id="text_5">
      <!-- 2000 -->
      <g transform="translate(223.475592 322.182437) scale(0.1 -0.1)">
       <defs>
        <path id="DejaVuSans-32" d="M 1228 531 
L 3431 531 
L 3431 0 
L 469 0 
L 469 531 
Q 828 903 1448 1529 
Q 2069 2156 2228 2338 
Q 2531 2678 2651 2914 
Q 2772 3150 2772 3378 
Q 2772 3750 2511 3984 
Q 2250 4219 1831 4219 
Q 1534 4219 1204 4116 
Q 875 4013 500 3803 
L 500 4441 
Q 881 4594 1212 4672 
Q 1544 4750 1819 4750 
Q 2544 4750 2975 4387 
Q 3406 4025 3406 3419 
Q 3406 3131 3298 2873 
Q 3191 2616 2906 2266 
Q 2828 2175 2409 1742 
Q 1991 1309 1228 531 
z
" transform="scale(0.015625)"/>
       </defs>
       <use xlink:href="#DejaVuSans-32"/>
       <use xlink:href="#DejaVuSans-30" x="63.623047"/>
       <use xlink:href="#DejaVuSans-30" x="127.246094"/>
       <use xlink:href="#DejaVuSans-30" x="190.869141"/>
      </g>
     </g>
    </g>
    <g id="xtick_6">
     <g id="line2d_11">
      <path d="M 276.792558 307.584 
L 276.792558 41.472 
" clip-path="url(#p82efa2a02d)" style="fill: none; stroke: #b0b0b0; stroke-width: 0.8; stroke-linecap: square"/>
     </g>
     <g id="line2d_12">
      <g>
       <use xlink:href="#m967887fb6e" x="276.792558" y="307.584" style="stroke: #000000; stroke-width: 0.8"/>
      </g>
     </g>
     <g id="text_6">
      <!-- 2500 -->
      <g transform="translate(264.067558 322.182437) scale(0.1 -0.1)">
       <use xlink:href="#DejaVuSans-32"/>
       <use xlink:href="#DejaVuSans-35" x="63.623047"/>
       <use xlink:href="#DejaVuSans-30" x="127.246094"/>
       <use xlink:href="#DejaVuSans-30" x="190.869141"/>
      </g>
     </g>
    </g>
    <g id="xtick_7">
     <g id="line2d_13">
      <path d="M 317.384524 307.584 
L 317.384524 41.472 
" clip-path="url(#p82efa2a02d)" style="fill: none; stroke: #b0b0b0; stroke-width: 0.8; stroke-linecap: square"/>
     </g>
     <g id="line2d_14">
      <g>
       <use xlink:href="#m967887fb6e" x="317.384524" y="307.584" style="stroke: #000000; stroke-width: 0.8"/>
      </g>
     </g>
     <g id="text_7">
      <!-- 3000 -->
      <g transform="translate(304.659524 322.182437) scale(0.1 -0.1)">
       <defs>
        <path id="DejaVuSans-33" d="M 2597 2516 
Q 3050 2419 3304 2112 
Q 3559 1806 3559 1356 
Q 3559 666 3084 287 
Q 2609 -91 1734 -91 
Q 1441 -91 1130 -33 
Q 819 25 488 141 
L 488 750 
Q 750 597 1062 519 
Q 1375 441 1716 441 
Q 2309 441 2620 675 
Q 2931 909 2931 1356 
Q 2931 1769 2642 2001 
Q 2353 2234 1838 2234 
L 1294 2234 
L 1294 2753 
L 1863 2753 
Q 2328 2753 2575 2939 
Q 2822 3125 2822 3475 
Q 2822 3834 2567 4026 
Q 2313 4219 1838 4219 
Q 1578 4219 1281 4162 
Q 984 4106 628 3988 
L 628 4550 
Q 988 4650 1302 4700 
Q 1616 4750 1894 4750 
Q 2613 4750 3031 4423 
Q 3450 4097 3450 3541 
Q 3450 3153 3228 2886 
Q 3006 2619 2597 2516 
z
" transform="scale(0.015625)"/>
       </defs>
       <use xlink:href="#DejaVuSans-33"/>
       <use xlink:href="#DejaVuSans-30" x="63.623047"/>
       <use xlink:href="#DejaVuSans-30" x="127.246094"/>
       <use xlink:href="#DejaVuSans-30" x="190.869141"/>
      </g>
     </g>
    </g>
    <g id="xtick_8">
     <g id="line2d_15">
      <path d="M 357.97649 307.584 
L 357.97649 41.472 
" clip-path="url(#p82efa2a02d)" style="fill: none; stroke: #b0b0b0; stroke-width: 0.8; stroke-linecap: square"/>
     </g>
     <g id="line2d_16">
      <g>
       <use xlink:href="#m967887fb6e" x="357.97649" y="307.584" style="stroke: #000000; stroke-width: 0.8"/>
      </g>
     </g>
     <g id="text_8">
      <!-- 3500 -->
      <g transform="translate(345.25149 322.182437) scale(0.1 -0.1)">
       <use xlink:href="#DejaVuSans-33"/>
       <use xlink:href="#DejaVuSans-35" x="63.623047"/>
       <use xlink:href="#DejaVuSans-30" x="127.246094"/>
       <use xlink:href="#DejaVuSans-30" x="190.869141"/>
      </g>
     </g>
    </g>
    <g id="xtick_9">
     <g id="line2d_17">
      <path d="M 398.568457 307.584 
L 398.568457 41.472 
" clip-path="url(#p82efa2a02d)" style="fill: none; stroke: #b0b0b0; stroke-width: 0.8; stroke-linecap: square"/>
     </g>
     <g id="line2d_18">
      <g>
       <use xlink:href="#m967887fb6e" x="398.568457" y="307.584" style="stroke: #000000; stroke-width: 0.8"/>
      </g>
     </g>
     <g id="text_9">
      <!-- 4000 -->
      <g transform="translate(385.843457 322.182437) scale(0.1 -0.1)">
       <defs>
        <path id="DejaVuSans-34" d="M 2419 4116 
L 825 1625 
L 2419 1625 
L 2419 4116 
z
M 2253 4666 
L 3047 4666 
L 3047 1625 
L 3713 1625 
L 3713 1100 
L 3047 1100 
L 3047 0 
L 2419 0 
L 2419 1100 
L 313 1100 
L 313 1709 
L 2253 4666 
z
" transform="scale(0.015625)"/>
       </defs>
       <use xlink:href="#DejaVuSans-34"/>
       <use xlink:href="#DejaVuSans-30" x="63.623047"/>
       <use xlink:href="#DejaVuSans-30" x="127.246094"/>
       <use xlink:href="#DejaVuSans-30" x="190.869141"/>
      </g>
     </g>
    </g>
    <g id="text_10">
     <!-- Samples -->
     <g transform="translate(214.806875 335.860562) scale(0.1 -0.1)">
      <defs>
       <path id="DejaVuSans-53" d="M 3425 4513 
L 3425 3897 
Q 3066 4069 2747 4153 
Q 2428 4238 2131 4238 
Q 1616 4238 1336 4038 
Q 1056 3838 1056 3469 
Q 1056 3159 1242 3001 
Q 1428 2844 1947 2747 
L 2328 2669 
Q 3034 2534 3370 2195 
Q 3706 1856 3706 1288 
Q 3706 609 3251 259 
Q 2797 -91 1919 -91 
Q 1588 -91 1214 -16 
Q 841 59 441 206 
L 441 856 
Q 825 641 1194 531 
Q 1563 422 1919 422 
Q 2459 422 2753 634 
Q 3047 847 3047 1241 
Q 3047 1584 2836 1778 
Q 2625 1972 2144 2069 
L 1759 2144 
Q 1053 2284 737 2584 
Q 422 2884 422 3419 
Q 422 4038 858 4394 
Q 1294 4750 2059 4750 
Q 2388 4750 2728 4690 
Q 3069 4631 3425 4513 
z
" transform="scale(0.015625)"/>
       <path id="DejaVuSans-61" d="M 2194 1759 
Q 1497 1759 1228 1600 
Q 959 1441 959 1056 
Q 959 750 1161 570 
Q 1363 391 1709 391 
Q 2188 391 2477 730 
Q 2766 1069 2766 1631 
L 2766 1759 
L 2194 1759 
z
M 3341 1997 
L 3341 0 
L 2766 0 
L 2766 531 
Q 2569 213 2275 61 
Q 1981 -91 1556 -91 
Q 1019 -91 701 211 
Q 384 513 384 1019 
Q 384 1609 779 1909 
Q 1175 2209 1959 2209 
L 2766 2209 
L 2766 2266 
Q 2766 2663 2505 2880 
Q 2244 3097 1772 3097 
Q 1472 3097 1187 3025 
Q 903 2953 641 2809 
L 641 3341 
Q 956 3463 1253 3523 
Q 1550 3584 1831 3584 
Q 2591 3584 2966 3190 
Q 3341 2797 3341 1997 
z
" transform="scale(0.015625)"/>
       <path id="DejaVuSans-6d" d="M 3328 2828 
Q 3544 3216 3844 3400 
Q 4144 3584 4550 3584 
Q 5097 3584 5394 3201 
Q 5691 2819 5691 2113 
L 5691 0 
L 5113 0 
L 5113 2094 
Q 5113 2597 4934 2840 
Q 4756 3084 4391 3084 
Q 3944 3084 3684 2787 
Q 3425 2491 3425 1978 
L 3425 0 
L 2847 0 
L 2847 2094 
Q 2847 2600 2669 2842 
Q 2491 3084 2119 3084 
Q 1678 3084 1418 2786 
Q 1159 2488 1159 1978 
L 1159 0 
L 581 0 
L 581 3500 
L 1159 3500 
L 1159 2956 
Q 1356 3278 1631 3431 
Q 1906 3584 2284 3584 
Q 2666 3584 2933 3390 
Q 3200 3197 3328 2828 
z
" transform="scale(0.015625)"/>
       <path id="DejaVuSans-70" d="M 1159 525 
L 1159 -1331 
L 581 -1331 
L 581 3500 
L 1159 3500 
L 1159 2969 
Q 1341 3281 1617 3432 
Q 1894 3584 2278 3584 
Q 2916 3584 3314 3078 
Q 3713 2572 3713 1747 
Q 3713 922 3314 415 
Q 2916 -91 2278 -91 
Q 1894 -91 1617 61 
Q 1341 213 1159 525 
z
M 3116 1747 
Q 3116 2381 2855 2742 
Q 2594 3103 2138 3103 
Q 1681 3103 1420 2742 
Q 1159 2381 1159 1747 
Q 1159 1113 1420 752 
Q 1681 391 2138 391 
Q 2594 391 2855 752 
Q 3116 1113 3116 1747 
z
" transform="scale(0.015625)"/>
       <path id="DejaVuSans-6c" d="M 603 4863 
L 1178 4863 
L 1178 0 
L 603 0 
L 603 4863 
z
" transform="scale(0.015625)"/>
       <path id="DejaVuSans-65" d="M 3597 1894 
L 3597 1613 
L 953 1613 
Q 991 1019 1311 708 
Q 1631 397 2203 397 
Q 2534 397 2845 478 
Q 3156 559 3463 722 
L 3463 178 
Q 3153 47 2828 -22 
Q 2503 -91 2169 -91 
Q 1331 -91 842 396 
Q 353 884 353 1716 
Q 353 2575 817 3079 
Q 1281 3584 2069 3584 
Q 2775 3584 3186 3129 
Q 3597 2675 3597 1894 
z
M 3022 2063 
Q 3016 2534 2758 2815 
Q 2500 3097 2075 3097 
Q 1594 3097 1305 2825 
Q 1016 2553 972 2059 
L 3022 2063 
z
" transform="scale(0.015625)"/>
       <path id="DejaVuSans-73" d="M 2834 3397 
L 2834 2853 
Q 2591 2978 2328 3040 
Q 2066 3103 1784 3103 
Q 1356 3103 1142 2972 
Q 928 2841 928 2578 
Q 928 2378 1081 2264 
Q 1234 2150 1697 2047 
L 1894 2003 
Q 2506 1872 2764 1633 
Q 3022 1394 3022 966 
Q 3022 478 2636 193 
Q 2250 -91 1575 -91 
Q 1294 -91 989 -36 
Q 684 19 347 128 
L 347 722 
Q 666 556 975 473 
Q 1284 391 1588 391 
Q 1994 391 2212 530 
Q 2431 669 2431 922 
Q 2431 1156 2273 1281 
Q 2116 1406 1581 1522 
L 1381 1569 
Q 847 1681 609 1914 
Q 372 2147 372 2553 
Q 372 3047 722 3315 
Q 1072 3584 1716 3584 
Q 2034 3584 2315 3537 
Q 2597 3491 2834 3397 
z
" transform="scale(0.015625)"/>
      </defs>
      <use xlink:href="#DejaVuSans-53"/>
      <use xlink:href="#DejaVuSans-61" x="63.476562"/>
      <use xlink:href="#DejaVuSans-6d" x="124.755859"/>
      <use xlink:href="#DejaVuSans-70" x="222.167969"/>
      <use xlink:href="#DejaVuSans-6c" x="285.644531"/>
      <use xlink:href="#DejaVuSans-65" x="313.427734"/>
      <use xlink:href="#DejaVuSans-73" x="374.951172"/>
     </g>
    </g>
   </g>
   <g id="matplotlib.axis_2">
    <g id="ytick_1">
     <g id="line2d_19">
      <path d="M 57.6 295.327097 
L 414.72 295.327097 
" clip-path="url(#p82efa2a02d)" style="fill: none; stroke: #b0b0b0; stroke-width: 0.8; stroke-linecap: square"/>
     </g>
     <g id="line2d_20">
      <defs>
       <path id="mf297362d2f" d="M 0 0 
L -3.5 0 
" style="stroke: #000000; stroke-width: 0.8"/>
      </defs>
      <g>
       <use xlink:href="#mf297362d2f" x="57.6" y="295.327097" style="stroke: #000000; stroke-width: 0.8"/>
      </g>
     </g>
     <g id="text_11">
      <!-- −4 -->
      <g transform="translate(35.857813 299.126316) scale(0.1 -0.1)">
       <defs>
        <path id="DejaVuSans-2212" d="M 678 2272 
L 4684 2272 
L 4684 1741 
L 678 1741 
L 678 2272 
z
" transform="scale(0.015625)"/>
       </defs>
       <use xlink:href="#DejaVuSans-2212"/>
       <use xlink:href="#DejaVuSans-34" x="83.789062"/>
      </g>
     </g>
    </g>
    <g id="ytick_2">
     <g id="line2d_21">
      <path d="M 57.6 243.204387 
L 414.72 243.204387 
" clip-path="url(#p82efa2a02d)" style="fill: none; stroke: #b0b0b0; stroke-width: 0.8; stroke-linecap: square"/>
     </g>
     <g id="line2d_22">
      <g>
       <use xlink:href="#mf297362d2f" x="57.6" y="243.204387" style="stroke: #000000; stroke-width: 0.8"/>
      </g>
     </g>
     <g id="text_12">
      <!-- −2 -->
      <g transform="translate(35.857813 247.003606) scale(0.1 -0.1)">
       <use xlink:href="#DejaVuSans-2212"/>
       <use xlink:href="#DejaVuSans-32" x="83.789062"/>
      </g>
     </g>
    </g>
    <g id="ytick_3">
     <g id="line2d_23">
      <path d="M 57.6 191.081677 
L 414.72 191.081677 
" clip-path="url(#p82efa2a02d)" style="fill: none; stroke: #b0b0b0; stroke-width: 0.8; stroke-linecap: square"/>
     </g>
     <g id="line2d_24">
      <g>
       <use xlink:href="#mf297362d2f" x="57.6" y="191.081677" style="stroke: #000000; stroke-width: 0.8"/>
      </g>
     </g>
     <g id="text_13">
      <!-- 0 -->
      <g transform="translate(44.2375 194.880896) scale(0.1 -0.1)">
       <use xlink:href="#DejaVuSans-30"/>
      </g>
     </g>
    </g>
    <g id="ytick_4">
     <g id="line2d_25">
      <path d="M 57.6 138.958968 
L 414.72 138.958968 
" clip-path="url(#p82efa2a02d)" style="fill: none; stroke: #b0b0b0; stroke-width: 0.8; stroke-linecap: square"/>
     </g>
     <g id="line2d_26">
      <g>
       <use xlink:href="#mf297362d2f" x="57.6" y="138.958968" style="stroke: #000000; stroke-width: 0.8"/>
      </g>
     </g>
     <g id="text_14">
      <!-- 2 -->
      <g transform="translate(44.2375 142.758186) scale(0.1 -0.1)">
       <use xlink:href="#DejaVuSans-32"/>
      </g>
     </g>
    </g>
    <g id="ytick_5">
     <g id="line2d_27">
      <path d="M 57.6 86.836258 
L 414.72 86.836258 
" clip-path="url(#p82efa2a02d)" style="fill: none; stroke: #b0b0b0; stroke-width: 0.8; stroke-linecap: square"/>
     </g>
     <g id="line2d_28">
      <g>
       <use xlink:href="#mf297362d2f" x="57.6" y="86.836258" style="stroke: #000000; stroke-width: 0.8"/>
      </g>
     </g>
     <g id="text_15">
      <!-- 4 -->
      <g transform="translate(44.2375 90.635477) scale(0.1 -0.1)">
       <use xlink:href="#DejaVuSans-34"/>
      </g>
     </g>
    </g>
    <g id="text_16">
     <!-- Amplitude -->
     <g transform="translate(29.778125 200.150656) rotate(-90) scale(0.1 -0.1)">
      <defs>
       <path id="DejaVuSans-41" d="M 2188 4044 
L 1331 1722 
L 3047 1722 
L 2188 4044 
z
M 1831 4666 
L 2547 4666 
L 4325 0 
L 3669 0 
L 3244 1197 
L 1141 1197 
L 716 0 
L 50 0 
L 1831 4666 
z
" transform="scale(0.015625)"/>
       <path id="DejaVuSans-69" d="M 603 3500 
L 1178 3500 
L 1178 0 
L 603 0 
L 603 3500 
z
M 603 4863 
L 1178 4863 
L 1178 4134 
L 603 4134 
L 603 4863 
z
" transform="scale(0.015625)"/>
       <path id="DejaVuSans-74" d="M 1172 4494 
L 1172 3500 
L 2356 3500 
L 2356 3053 
L 1172 3053 
L 1172 1153 
Q 1172 725 1289 603 
Q 1406 481 1766 481 
L 2356 481 
L 2356 0 
L 1766 0 
Q 1100 0 847 248 
Q 594 497 594 1153 
L 594 3053 
L 172 3053 
L 172 3500 
L 594 3500 
L 594 4494 
L 1172 4494 
z
" transform="scale(0.015625)"/>
       <path id="DejaVuSans-75" d="M 544 1381 
L 544 3500 
L 1119 3500 
L 1119 1403 
Q 1119 906 1312 657 
Q 1506 409 1894 409 
Q 2359 409 2629 706 
Q 2900 1003 2900 1516 
L 2900 3500 
L 3475 3500 
L 3475 0 
L 2900 0 
L 2900 538 
Q 2691 219 2414 64 
Q 2138 -91 1772 -91 
Q 1169 -91 856 284 
Q 544 659 544 1381 
z
M 1991 3584 
L 1991 3584 
z
" transform="scale(0.015625)"/>
       <path id="DejaVuSans-64" d="M 2906 2969 
L 2906 4863 
L 3481 4863 
L 3481 0 
L 2906 0 
L 2906 525 
Q 2725 213 2448 61 
Q 2172 -91 1784 -91 
Q 1150 -91 751 415 
Q 353 922 353 1747 
Q 353 2572 751 3078 
Q 1150 3584 1784 3584 
Q 2172 3584 2448 3432 
Q 2725 3281 2906 2969 
z
M 947 1747 
Q 947 1113 1208 752 
Q 1469 391 1925 391 
Q 2381 391 2643 752 
Q 2906 1113 2906 1747 
Q 2906 2381 2643 2742 
Q 2381 3103 1925 3103 
Q 1469 3103 1208 2742 
Q 947 2381 947 1747 
z
" transform="scale(0.015625)"/>
      </defs>
      <use xlink:href="#DejaVuSans-41"/>
      <use xlink:href="#DejaVuSans-6d" x="68.408203"/>
      <use xlink:href="#DejaVuSans-70" x="165.820312"/>
      <use xlink:href="#DejaVuSans-6c" x="229.296875"/>
      <use xlink:href="#DejaVuSans-69" x="257.080078"/>
      <use xlink:href="#DejaVuSans-74" x="284.863281"/>
      <use xlink:href="#DejaVuSans-75" x="324.072266"/>
      <use xlink:href="#DejaVuSans-64" x="387.451172"/>
      <use xlink:href="#DejaVuSans-65" x="450.927734"/>
     </g>
    </g>
    <g id="text_17">
     <!-- 1e6 -->
     <g transform="translate(57.6 38.472) scale(0.1 -0.1)">
      <defs>
       <path id="DejaVuSans-36" d="M 2113 2584 
Q 1688 2584 1439 2293 
Q 1191 2003 1191 1497 
Q 1191 994 1439 701 
Q 1688 409 2113 409 
Q 2538 409 2786 701 
Q 3034 994 3034 1497 
Q 3034 2003 2786 2293 
Q 2538 2584 2113 2584 
z
M 3366 4563 
L 3366 3988 
Q 3128 4100 2886 4159 
Q 2644 4219 2406 4219 
Q 1781 4219 1451 3797 
Q 1122 3375 1075 2522 
Q 1259 2794 1537 2939 
Q 1816 3084 2150 3084 
Q 2853 3084 3261 2657 
Q 3669 2231 3669 1497 
Q 3669 778 3244 343 
Q 2819 -91 2113 -91 
Q 1303 -91 875 529 
Q 447 1150 447 2328 
Q 447 3434 972 4092 
Q 1497 4750 2381 4750 
Q 2619 4750 2861 4703 
Q 3103 4656 3366 4563 
z
" transform="scale(0.015625)"/>
      </defs>
      <use xlink:href="#DejaVuSans-31"/>
      <use xlink:href="#DejaVuSans-65" x="63.623047"/>
      <use xlink:href="#DejaVuSans-36" x="125.146484"/>
     </g>
    </g>
   </g>
   <g id="line2d_29">
    <path d="M 73.832727 241.219867 
L 73.913911 241.219867 
L 74.076279 222.798294 
L 74.238647 243.665569 
L 74.482199 251.523198 
L 74.563383 251.523198 
L 74.725751 242.008328 
L 74.888118 249.190394 
L 75.050486 241.163158 
L 75.212854 253.364824 
L 75.375222 249.197821 
L 75.53759 246.797649 
L 75.699958 256.394456 
L 75.862326 250.193261 
L 76.024693 249.981017 
L 76.187061 249.198577 
L 76.349429 261.637401 
L 76.511797 240.364612 
L 76.674165 256.659943 
L 76.836533 244.7406 
L 77.080085 253.318903 
L 77.161268 253.318903 
L 77.323636 269.264257 
L 77.486004 260.420154 
L 77.648372 256.097956 
L 77.81074 257.861841 
L 77.973108 243.967542 
L 78.135476 253.204494 
L 78.297844 253.153388 
L 78.460211 262.974349 
L 78.622579 259.926082 
L 78.784947 261.820613 
L 78.947315 247.054744 
L 79.109683 247.323697 
L 79.353235 258.661638 
L 79.434419 258.661638 
L 79.596786 245.833978 
L 79.840338 253.915943 
L 79.921522 253.915943 
L 80.08389 234.048252 
L 80.327442 259.104628 
L 80.408626 259.104628 
L 80.570994 247.893216 
L 80.733362 241.006321 
L 80.976913 252.495339 
L 81.058097 252.495339 
L 81.220465 231.461714 
L 81.382833 263.108825 
L 81.545201 271.813005 
L 81.707569 244.778832 
L 81.869937 240.20152 
L 82.032304 252.262689 
L 82.194672 248.115728 
L 82.35704 250.663981 
L 82.519408 243.548866 
L 82.681776 245.104208 
L 82.844144 259.784048 
L 83.087696 247.526272 
L 83.168879 247.526272 
L 83.331247 245.582277 
L 83.493615 259.87839 
L 83.655983 259.666225 
L 83.818351 244.318901 
L 83.980719 241.253304 
L 84.143087 243.270583 
L 84.305455 233.850159 
L 84.467822 244.773255 
L 84.63019 244.622307 
L 84.792558 249.139548 
L 85.03611 236.618084 
L 85.117294 236.618084 
L 85.279662 245.972963 
L 85.604397 239.140275 
L 85.766765 230.023049 
L 85.929133 234.408185 
L 86.091501 258.079609 
L 86.253869 246.61118 
L 86.416237 263.923738 
L 86.578605 255.93635 
L 86.90334 262.103561 
L 87.065708 243.043615 
L 87.228076 257.851625 
L 87.390444 243.730827 
L 87.552812 256.771251 
L 87.877548 234.363151 
L 88.039915 259.496122 
L 88.202283 267.549993 
L 88.364651 245.333287 
L 88.689387 249.591191 
L 88.851755 240.529502 
L 89.095307 265.565968 
L 89.17649 265.565968 
L 89.338858 242.324269 
L 89.501226 244.521163 
L 89.663594 263.048702 
L 89.907146 245.618216 
L 89.98833 245.618216 
L 90.150698 242.253773 
L 90.313066 260.790642 
L 90.475433 247.112105 
L 90.637801 247.789883 
L 90.800169 253.553117 
L 90.962537 253.853318 
L 91.124905 238.968635 
L 91.287273 262.08636 
L 91.530825 248.052946 
L 91.612008 248.052946 
L 91.774376 237.581885 
L 91.936744 232.902334 
L 92.099112 240.387494 
L 92.26148 236.945649 
L 92.423848 251.620042 
L 92.586216 232.699524 
L 92.748584 256.373425 
L 92.910951 255.909089 
L 93.073319 259.698749 
L 93.235687 241.980025 
L 93.398055 258.452547 
L 93.560423 247.908696 
L 93.722791 253.017738 
L 94.047526 240.872782 
L 94.209894 256.098555 
L 94.372262 240.763976 
L 94.53463 254.199986 
L 94.696998 241.889019 
L 94.859366 252.274729 
L 95.021734 249.585249 
L 95.184101 250.278872 
L 95.346469 240.465704 
L 95.508837 249.761945 
L 95.671205 255.198944 
L 95.833573 246.840285 
L 95.995941 250.023184 
L 96.158309 244.194745 
L 96.320677 242.320282 
L 96.483044 251.572532 
L 96.645412 247.922196 
L 96.80778 259.081147 
L 97.051332 242.776173 
L 97.132516 242.776173 
L 97.294884 240.292083 
L 97.457252 263.082451 
L 97.619619 251.800699 
L 97.781987 247.592859 
L 97.944355 263.807244 
L 98.106723 233.870357 
L 98.350275 266.557994 
L 98.431459 266.557994 
L 98.593827 255.822826 
L 98.756195 252.107207 
L 98.918562 267.354194 
L 99.08093 245.339829 
L 99.243298 256.231833 
L 99.568034 242.091776 
L 99.730402 240.020993 
L 99.89277 243.96431 
L 100.055137 262.449629 
L 100.298689 249.728509 
L 100.379873 249.728509 
L 100.623425 241.065897 
L 100.704609 241.065897 
L 100.866977 272.885117 
L 101.029345 239.999284 
L 101.191712 236.729496 
L 101.35408 236.803588 
L 101.516448 252.807475 
L 101.678816 251.311058 
L 101.841184 239.638099 
L 102.003552 253.985084 
L 102.16592 232.879191 
L 102.328288 237.8714 
L 102.490655 240.447226 
L 102.653023 238.141943 
L 103.302495 260.423098 
L 103.464863 238.291327 
L 103.62723 238.452855 
L 103.870782 245.081378 
L 103.951966 245.081378 
L 104.114334 254.89056 
L 104.276702 254.344548 
L 104.43907 249.874166 
L 104.601438 259.369699 
L 104.763805 234.733639 
L 105.007357 248.694003 
L 105.088541 248.694003 
L 105.250909 252.008643 
L 105.575645 231.636951 
L 105.738013 248.254583 
L 105.900381 240.04119 
L 106.062748 236.198939 
L 106.225116 248.914352 
L 106.387484 251.155733 
L 106.549852 232.88985 
L 106.71222 257.979508 
L 106.874588 243.430131 
L 107.036956 257.65189 
L 107.361691 233.361431 
L 107.524059 251.966658 
L 107.686427 236.765851 
L 107.848795 255.523147 
L 108.011163 259.050056 
L 108.173531 249.424164 
L 108.335899 245.907002 
L 108.498266 244.246789 
L 108.660634 245.029177 
L 108.823002 257.452 
L 108.98537 241.064594 
L 109.228922 255.720092 
L 109.310106 255.720092 
L 109.472474 240.035431 
L 109.634841 266.840733 
L 109.797209 229.71946 
L 110.121945 255.12201 
L 110.284313 253.448376 
L 110.609049 234.134906 
L 110.771416 262.152608 
L 110.933784 238.71081 
L 111.096152 252.350099 
L 111.25852 238.388692 
L 111.502072 254.118049 
L 111.583256 254.118049 
L 111.745624 234.146425 
L 111.907992 244.885736 
L 112.070359 234.267506 
L 112.232727 233.452697 
L 112.395095 249.468807 
L 112.557463 257.8234 
L 112.719831 242.835489 
L 112.963383 241.455644 
L 113.044567 241.455644 
L 113.206934 235.937022 
L 113.369302 260.877973 
L 113.53167 260.454919 
L 113.694038 248.857434 
L 113.856406 248.326304 
L 114.018774 256.170563 
L 114.181142 251.485852 
L 114.34351 264.26595 
L 114.505877 246.640759 
L 114.668245 240.744821 
L 114.830613 271.018238 
L 114.992981 252.163812 
L 115.155349 257.084743 
L 115.317717 247.501931 
L 115.480085 241.814535 
L 115.642452 239.295653 
L 115.80482 255.499535 
L 115.967188 229.94953 
L 116.21074 254.817119 
L 116.291924 254.817119 
L 116.454292 242.815265 
L 116.61666 250.966423 
L 116.779027 255.299879 
L 117.022579 246.811852 
L 117.103763 246.811852 
L 117.266131 259.676128 
L 117.428499 242.834551 
L 117.590867 239.423224 
L 117.753235 237.702392 
L 117.915603 245.834864 
L 118.07797 243.687982 
L 118.240338 227.645498 
L 118.402706 230.726966 
L 118.565074 260.610349 
L 118.727442 237.261564 
L 118.88981 241.537112 
L 119.052178 237.913672 
L 119.214545 242.772811 
L 119.376913 243.087737 
L 119.539281 233.364089 
L 119.701649 262.763043 
L 119.864017 247.11935 
L 120.026385 250.620276 
L 120.188753 245.413817 
L 120.351121 243.91336 
L 120.513488 236.665229 
L 120.675856 244.266309 
L 120.838224 240.607504 
L 121.000592 239.372456 
L 121.16296 260.929471 
L 121.487696 239.164669 
L 121.650063 249.375117 
L 121.812431 233.472739 
L 121.974799 260.213956 
L 122.218351 231.552746 
L 122.299535 231.552746 
L 122.543087 236.39062 
L 122.624271 236.39062 
L 122.786638 261.917404 
L 123.03019 235.791496 
L 123.111374 235.791496 
L 123.273742 250.344313 
L 123.598478 232.268 
L 123.84203 255.14325 
L 123.923214 255.14325 
L 124.085581 256.261517 
L 124.247949 242.448686 
L 124.410317 236.964543 
L 124.735053 260.386274 
L 124.897421 253.213277 
L 125.059789 253.288412 
L 125.30334 234.174858 
L 125.384524 234.174858 
L 125.546892 260.299698 
L 125.790444 251.175904 
L 125.871628 251.175904 
L 126.033996 243.910832 
L 126.196364 254.56388 
L 126.358732 255.728145 
L 126.521099 244.334512 
L 126.683467 252.195346 
L 126.845835 254.012057 
L 127.089387 238.649384 
L 127.170571 238.649384 
L 127.332939 246.895092 
L 127.495307 244.098083 
L 127.657674 247.600938 
L 127.820042 247.43683 
L 127.98241 244.173088 
L 128.144778 224.803299 
L 128.307146 255.872525 
L 128.469514 250.00244 
L 128.631882 250.126257 
L 128.794249 250.723818 
L 128.956617 259.082789 
L 129.281353 236.904498 
L 129.443721 248.506726 
L 129.606089 245.076296 
L 129.849641 259.309783 
L 129.930825 259.309783 
L 130.093192 259.572247 
L 130.25556 261.990715 
L 130.417928 238.004391 
L 130.580296 242.455671 
L 130.742664 269.225999 
L 130.905032 250.731011 
L 131.0674 254.901166 
L 131.229767 227.891256 
L 131.392135 264.799608 
L 131.716871 219.987629 
L 131.879239 251.817822 
L 132.041607 242.872731 
L 132.203975 251.507457 
L 132.366342 238.997251 
L 132.52871 246.835412 
L 132.691078 237.506854 
L 133.015814 253.243951 
L 133.178182 246.560543 
L 133.34055 250.021647 
L 133.502918 242.882373 
L 133.665285 242.630334 
L 133.827653 254.379965 
L 134.071205 236.256951 
L 134.152389 236.256951 
L 134.314757 255.764188 
L 134.477125 256.389478 
L 134.639493 256.709668 
L 134.80186 262.415385 
L 134.964228 248.726371 
L 135.20778 236.075278 
L 135.288964 236.075278 
L 135.451332 239.216896 
L 135.6137 233.96264 
L 135.776068 248.724417 
L 135.938436 244.341158 
L 136.100803 219.375005 
L 136.263171 242.595203 
L 136.425539 233.356218 
L 136.587907 250.189664 
L 136.750275 250.465602 
L 136.993827 230.887244 
L 137.075011 230.887244 
L 137.237378 254.323073 
L 137.48093 247.895249 
L 137.562114 247.895249 
L 137.724482 257.056128 
L 137.88685 227.497443 
L 138.049218 242.508914 
L 138.211586 242.151066 
L 138.373953 254.772059 
L 138.536321 252.350359 
L 138.698689 242.832935 
L 138.861057 256.800388 
L 139.023425 235.96655 
L 139.185793 248.84052 
L 139.348161 255.009113 
L 139.591712 236.917529 
L 139.672896 236.917529 
L 139.835264 244.627676 
L 139.997632 228.867254 
L 140.16 240.304619 
L 140.322368 246.202981 
L 140.484736 245.845263 
L 140.647104 246.741252 
L 140.809471 243.427577 
L 140.971839 245.430418 
L 141.134207 238.641227 
L 141.296575 258.213591 
L 141.458943 254.409754 
L 141.621311 252.812583 
L 141.946047 236.26563 
L 142.108414 242.467424 
L 142.43315 248.513971 
L 142.595518 241.026857 
L 142.757886 258.172362 
L 142.920254 254.982791 
L 143.082622 256.219063 
L 143.244989 244.031549 
L 143.407357 248.447567 
L 143.569725 249.933768 
L 143.732093 234.424317 
L 143.894461 254.621997 
L 144.056829 256.263289 
L 144.219197 253.716 
L 144.381564 240.493042 
L 144.543932 253.981826 
L 144.7063 232.254136 
L 144.868668 251.759236 
L 145.031036 236.878645 
L 145.193404 246.245852 
L 145.355772 246.952062 
L 145.51814 249.418978 
L 145.680507 238.212126 
L 145.842875 247.225837 
L 146.086427 232.922349 
L 146.167611 232.922349 
L 146.329979 236.008378 
L 146.492347 227.313007 
L 146.654715 248.941221 
L 146.817082 237.151716 
L 146.97945 247.653009 
L 147.223002 229.711043 
L 147.304186 229.711043 
L 147.466554 237.090732 
L 147.628922 238.193362 
L 147.79129 243.654936 
L 147.953658 246.073977 
L 148.116025 266.697552 
L 148.278393 237.889695 
L 148.440761 254.524137 
L 148.603129 241.472688 
L 148.927865 257.303659 
L 149.090233 234.630775 
L 149.2526 246.823736 
L 149.414968 236.435211 
L 149.577336 251.067906 
L 149.739704 235.569192 
L 149.902072 238.662467 
L 150.06444 234.219918 
L 150.226808 265.879825 
L 150.389175 251.828637 
L 150.551543 247.798301 
L 150.713911 231.780835 
L 150.957463 240.514777 
L 151.038647 240.514777 
L 151.363383 265.178514 
L 151.525751 237.569349 
L 151.688118 252.161493 
L 151.850486 238.974212 
L 152.012854 239.552071 
L 152.175222 229.756598 
L 152.33759 245.004706 
L 152.499958 245.107309 
L 152.662326 235.17663 
L 152.824693 234.830926 
L 152.987061 236.403182 
L 153.149429 246.696557 
L 153.311797 233.41225 
L 153.474165 250.123964 
L 153.636533 233.001836 
L 153.798901 231.635257 
L 153.961268 225.315508 
L 154.20482 248.601694 
L 154.286004 248.601694 
L 154.448372 249.807423 
L 154.61074 247.018701 
L 154.773108 237.533827 
L 154.935476 250.220938 
L 155.097844 229.708723 
L 155.260211 236.467162 
L 155.503763 228.666686 
L 155.584947 228.666686 
L 155.747315 250.558615 
L 155.990867 230.936291 
L 156.072051 230.936291 
L 156.234419 248.047734 
L 156.396786 243.645841 
L 156.559154 247.954226 
L 156.721522 243.195292 
L 156.88389 243.547668 
L 157.046258 249.096286 
L 157.208626 241.998059 
L 157.370994 238.448503 
L 157.533362 245.852039 
L 157.695729 241.816047 
L 157.858097 241.862905 
L 158.020465 249.086357 
L 158.264017 237.948907 
L 158.345201 237.948907 
L 158.507569 247.628902 
L 158.832304 241.127949 
L 159.075856 253.265452 
L 159.15704 253.265452 
L 159.319408 252.980158 
L 159.481776 243.688633 
L 159.644144 245.350905 
L 159.806512 255.622441 
L 159.968879 247.109004 
L 160.131247 252.17249 
L 160.455983 239.250932 
L 160.699535 264.731353 
L 160.780719 264.731353 
L 160.943087 253.99199 
L 161.105455 250.573209 
L 161.267822 234.435758 
L 161.43019 280.113677 
L 161.754926 53.568 
L 161.917294 94.885385 
L 162.079662 76.338614 
L 162.24203 81.548174 
L 162.485581 69.271113 
L 162.566765 69.271113 
L 162.729133 67.666177 
L 162.891501 71.738133 
L 163.053869 71.06145 
L 163.216237 63.155139 
L 163.378605 63.814282 
L 163.70334 98.279043 
L 163.865708 56.399957 
L 164.028076 70.004427 
L 164.190444 66.67178 
L 164.352812 73.759061 
L 164.51518 61.36686 
L 164.677548 69.458624 
L 164.839915 61.963796 
L 165.002283 63.923245 
L 165.164651 62.771411 
L 165.489387 69.886891 
L 165.651755 61.51184 
L 165.814123 64.491434 
L 165.97649 62.363108 
L 166.138858 63.775738 
L 166.463594 63.023711 
L 166.707146 68.055116 
L 166.78833 68.055116 
L 166.950698 64.857987 
L 167.113066 76.700997 
L 167.275433 64.038228 
L 167.600169 74.364075 
L 167.762537 60.613974 
L 168.006089 79.02322 
L 168.087273 79.02322 
L 168.249641 64.63584 
L 168.412008 71.309554 
L 168.574376 73.324826 
L 168.736744 64.448954 
L 168.899112 69.090351 
L 169.06148 63.926372 
L 169.223848 70.805215 
L 169.386216 67.515073 
L 169.548584 73.576866 
L 169.710951 59.662239 
L 169.954503 87.751559 
L 170.035687 87.751559 
L 170.198055 59.126444 
L 170.360423 69.087094 
L 170.522791 70.411402 
L 170.685159 64.564224 
L 170.847526 64.69943 
L 171.009894 64.156807 
L 171.172262 66.425604 
L 171.33463 66.664587 
L 171.496998 71.882826 
L 171.659366 71.218704 
L 171.821734 66.475981 
L 171.984101 75.250265 
L 172.146469 61.771724 
L 172.390021 75.262645 
L 172.471205 75.262645 
L 172.633573 68.642096 
L 172.795941 76.538947 
L 173.039493 66.673265 
L 173.120677 66.673265 
L 173.283044 74.080423 
L 173.445412 67.996999 
L 173.60778 64.554373 
L 174.0137 72.359253 
L 174.094884 72.359253 
L 174.257252 63.95345 
L 174.419619 66.947378 
L 174.581987 67.920978 
L 174.744355 67.803833 
L 174.906723 64.010602 
L 175.069091 65.796926 
L 175.231459 64.692967 
L 175.393827 65.896428 
L 175.556195 63.902839 
L 175.718562 67.536026 
L 175.88093 80.180214 
L 176.043298 84.147586 
L 176.28685 67.615096 
L 176.368034 67.615096 
L 176.530402 80.765422 
L 176.69277 77.93349 
L 176.855137 64.022903 
L 177.179873 76.008573 
L 177.261057 75.678219 
L 177.342241 75.678219 
L 177.504609 67.012975 
L 177.666977 64.806151 
L 177.910529 80.210106 
L 177.991712 80.210106 
L 178.15408 64.051701 
L 178.316448 66.776703 
L 178.478816 66.929552 
L 178.641184 63.688927 
L 178.803552 70.361207 
L 178.96592 72.88809 
L 179.128288 68.498602 
L 179.290655 69.938987 
L 179.453023 69.721062 
L 179.615391 73.290452 
L 179.777759 68.023843 
L 179.940127 74.375751 
L 180.102495 66.599668 
L 180.264863 70.089361 
L 180.42723 66.706181 
L 180.589598 75.343904 
L 180.751966 76.347527 
L 180.914334 64.559741 
L 181.076702 68.720202 
L 181.23907 66.034892 
L 181.401438 70.113963 
L 181.563805 69.74126 
L 181.726173 71.420497 
L 181.888541 65.336135 
L 182.050909 68.052276 
L 182.213277 65.660547 
L 182.375645 67.941828 
L 182.538013 66.092827 
L 182.700381 67.886942 
L 182.862748 66.791818 
L 183.025116 72.199184 
L 183.187484 68.293291 
L 183.349852 67.967524 
L 183.51222 63.934034 
L 183.674588 73.373874 
L 183.836956 78.460373 
L 183.999323 66.778605 
L 184.161691 64.843966 
L 184.405243 90.917466 
L 184.486427 90.917466 
L 184.648795 62.413641 
L 184.811163 70.784287 
L 184.973531 66.132336 
L 185.135899 68.195248 
L 185.298266 65.565319 
L 185.541818 81.068176 
L 185.623002 81.068176 
L 185.78537 64.429799 
L 185.947738 68.893119 
L 186.110106 68.660782 
L 186.272474 73.506631 
L 186.434841 67.984386 
L 186.597209 81.979855 
L 186.759577 74.683066 
L 186.921945 77.085662 
L 187.084313 63.505794 
L 187.246681 73.604778 
L 187.571416 72.788823 
L 187.733784 83.786193 
L 187.896152 66.628023 
L 188.05852 83.7796 
L 188.220888 72.91264 
L 188.383256 69.727552 
L 188.545624 69.374629 
L 188.707992 70.041252 
L 188.870359 82.180162 
L 189.032727 77.816319 
L 189.195095 75.838262 
L 189.357463 66.223837 
L 189.519831 80.232363 
L 189.682199 85.008106 
L 189.844567 65.037889 
L 190.006934 73.189724 
L 190.169302 77.148366 
L 190.33167 66.248126 
L 190.494038 70.941281 
L 190.656406 72.863697 
L 190.818774 69.175468 
L 190.981142 68.663597 
L 191.14351 70.034528 
L 191.305877 78.403351 
L 191.468245 67.150188 
L 191.711797 90.935083 
L 191.792981 90.935083 
L 191.955349 64.070804 
L 192.117717 73.522007 
L 192.280085 78.584607 
L 192.442452 64.370823 
L 192.686004 85.165516 
L 192.767188 85.165516 
L 192.929556 66.980294 
L 193.254292 72.735892 
L 193.41666 83.320008 
L 193.579027 74.342731 
L 193.741395 70.531284 
L 193.984947 68.642044 
L 194.066131 68.642044 
L 194.228499 70.079354 
L 194.390867 70.061398 
L 194.553235 69.525993 
L 194.715603 69.587211 
L 194.87797 68.679364 
L 195.040338 71.809307 
L 195.202706 72.232934 
L 195.365074 71.866094 
L 195.608626 74.272808 
L 195.68981 74.272808 
L 195.852178 87.006803 
L 196.014545 67.06872 
L 196.176913 78.180552 
L 196.339281 68.106614 
L 196.501649 71.558857 
L 196.664017 70.011673 
L 196.826385 76.250995 
L 196.988753 74.137654 
L 197.151121 73.141772 
L 197.313488 73.303065 
L 197.638224 99.397284 
L 197.800592 63.56954 
L 197.96296 75.278855 
L 198.125328 75.954808 
L 198.287696 68.653563 
L 198.531247 82.58208 
L 198.612431 82.58208 
L 198.774799 70.268168 
L 198.937167 69.67754 
L 199.099535 71.401915 
L 199.261903 68.753274 
L 199.424271 80.222537 
L 199.586638 74.242108 
L 199.749006 74.574364 
L 199.911374 76.933542 
L 200.073742 74.363085 
L 200.23611 89.601159 
L 200.398478 74.025668 
L 200.560846 74.56579 
L 200.723214 81.234187 
L 200.885581 71.148495 
L 201.047949 72.201478 
L 201.210317 71.775896 
L 201.372685 71.710169 
L 201.535053 69.738367 
L 201.859789 76.257693 
L 202.022156 75.748845 
L 202.184524 70.242524 
L 202.346892 70.226184 
L 202.590444 80.942899 
L 202.671628 80.942899 
L 202.833996 71.997522 
L 202.996364 82.083162 
L 203.158732 78.817961 
L 203.321099 77.150425 
L 203.483467 71.2143 
L 203.645835 74.808317 
L 203.808203 70.282059 
L 203.970571 72.112348 
L 204.132939 71.342079 
L 204.295307 71.731774 
L 204.457674 70.326937 
L 204.701226 76.331499 
L 204.78241 76.331499 
L 204.944778 70.626929 
L 205.107146 70.736204 
L 205.431882 83.934378 
L 205.594249 77.414635 
L 205.756617 80.1854 
L 205.918985 71.399231 
L 206.081353 81.198196 
L 206.243721 75.554818 
L 206.487273 70.785747 
L 206.568457 70.785747 
L 206.812008 91.126921 
L 206.893192 91.126921 
L 207.05556 73.666204 
L 207.217928 73.895231 
L 207.380296 76.043547 
L 207.542664 84.090251 
L 207.705032 70.576344 
L 207.8674 77.14993 
L 208.029767 72.502591 
L 208.192135 79.727737 
L 208.354503 74.167599 
L 208.516871 74.079407 
L 208.679239 79.930989 
L 208.841607 73.129288 
L 209.003975 74.427196 
L 209.166342 74.459877 
L 209.32871 76.10341 
L 209.491078 72.652235 
L 209.653446 72.272052 
L 209.815814 74.334939 
L 209.978182 70.537174 
L 210.14055 84.718017 
L 210.302918 89.400513 
L 210.465285 72.822937 
L 210.627653 90.897738 
L 210.871205 79.789293 
L 210.952389 79.789293 
L 211.114757 71.81233 
L 211.277125 73.628624 
L 211.439493 74.477833 
L 211.60186 78.534778 
L 211.764228 71.329256 
L 212.00778 81.464804 
L 212.088964 81.464804 
L 212.251332 70.038125 
L 212.4137 75.164471 
L 212.576068 70.356777 
L 212.819619 88.272082 
L 212.900803 88.272082 
L 213.063171 69.786085 
L 213.225539 77.430897 
L 213.387907 80.378489 
L 213.550275 71.83443 
L 213.712643 74.005888 
L 213.875011 73.526567 
L 214.037378 74.197126 
L 214.199746 73.279271 
L 214.362114 73.828019 
L 214.524482 73.666908 
L 214.68685 72.710665 
L 214.930402 79.547079 
L 215.011586 79.547079 
L 215.173953 72.440408 
L 215.336321 74.318181 
L 215.498689 73.600477 
L 215.661057 73.236426 
L 215.985793 76.988584 
L 216.148161 72.861638 
L 216.310529 74.374239 
L 216.472896 73.46892 
L 216.635264 74.191236 
L 216.797632 73.477989 
L 216.96 79.611425 
L 217.122368 82.756978 
L 217.284736 73.308199 
L 217.447104 74.473715 
L 217.609471 74.480543 
L 217.771839 75.665058 
L 217.934207 73.498916 
L 218.421311 80.709051 
L 218.583679 71.416119 
L 218.746047 78.070756 
L 218.908414 78.468791 
L 219.070782 74.602901 
L 219.23315 72.38263 
L 219.476702 91.186576 
L 219.557886 91.186576 
L 219.720254 71.000284 
L 219.882622 76.528314 
L 220.044989 73.476087 
L 220.288541 77.692918 
L 220.369725 77.692918 
L 220.532093 77.559197 
L 220.694461 80.576242 
L 220.856829 79.642881 
L 221.019197 74.314845 
L 221.181564 77.683771 
L 221.343932 78.223293 
L 221.5063 74.089128 
L 221.668668 75.479449 
L 221.831036 75.514788 
L 221.993404 77.776784 
L 222.155772 74.681841 
L 222.31814 75.959577 
L 222.480507 73.975552 
L 222.642875 75.595526 
L 222.805243 73.588698 
L 223.048795 84.152981 
L 223.129979 84.152981 
L 223.292347 72.250838 
L 223.535899 86.077064 
L 223.617082 86.077064 
L 223.77945 78.465507 
L 223.941818 76.64791 
L 224.266554 85.138595 
L 224.59129 75.423104 
L 224.834841 76.954522 
L 224.916025 76.954522 
L 225.078393 80.8938 
L 225.240761 74.325296 
L 225.403129 77.17732 
L 225.565497 74.993613 
L 225.809049 80.976623 
L 225.890233 80.976623 
L 226.0526 75.619268 
L 226.214968 76.86461 
L 226.377336 77.571863 
L 226.539704 83.549712 
L 226.702072 74.177554 
L 226.86444 77.444684 
L 227.026808 79.149696 
L 227.189175 73.490655 
L 227.432727 87.672462 
L 227.513911 87.672462 
L 227.676279 73.381771 
L 228.001015 89.665869 
L 228.244567 76.500689 
L 228.325751 76.500689 
L 228.488118 76.350393 
L 228.73167 82.25488 
L 228.812854 82.25488 
L 228.975222 76.806832 
L 229.13759 77.320189 
L 229.462326 83.842772 
L 229.624693 75.357013 
L 229.787061 76.997028 
L 229.949429 75.653799 
L 230.192981 79.05809 
L 230.274165 79.05809 
L 230.436533 76.047013 
L 230.761268 78.338745 
L 230.923636 91.330408 
L 231.248372 75.321621 
L 231.41074 78.40468 
L 231.573108 73.844438 
L 231.81666 94.486751 
L 231.897844 94.486751 
L 232.060211 73.918087 
L 232.222579 78.137186 
L 232.384947 77.642672 
L 232.547315 80.329832 
L 232.709683 76.389929 
L 233.196786 80.951265 
L 233.359154 78.248207 
L 233.521522 93.721511 
L 233.68389 85.480494 
L 233.846258 83.225796 
L 234.008626 94.094058 
L 234.170994 77.022881 
L 234.414545 85.054834 
L 234.495729 85.054834 
L 234.658097 80.497302 
L 234.820465 77.831252 
L 234.982833 77.26056 
L 235.307569 88.349719 
L 235.469937 88.171563 
L 235.794672 78.558911 
L 235.95704 81.507649 
L 236.119408 78.108362 
L 236.281776 81.39105 
L 236.606512 75.820801 
L 236.768879 81.855021 
L 236.931247 82.926481 
L 237.174799 91.807722 
L 237.255983 91.807722 
L 237.418351 77.775637 
L 237.580719 91.429676 
L 237.743087 80.249302 
L 237.905455 80.763962 
L 238.067822 85.645228 
L 238.23019 77.808266 
L 238.392558 85.032134 
L 238.554926 74.965493 
L 238.717294 83.311043 
L 238.879662 83.495661 
L 239.04203 78.481013 
L 239.204397 77.567433 
L 239.366765 82.731256 
L 239.529133 82.291027 
L 239.691501 79.473821 
L 239.853869 80.187928 
L 240.097421 77.174584 
L 240.178605 77.174584 
L 240.422156 92.038912 
L 240.50334 92.038912 
L 240.665708 76.910608 
L 240.990444 91.473068 
L 241.152812 85.205625 
L 241.31518 81.810847 
L 241.477548 81.264966 
L 241.639915 81.578953 
L 241.802283 88.368561 
L 241.964651 75.617131 
L 242.127019 84.784708 
L 242.289387 89.358788 
L 242.451755 78.21855 
L 242.614123 84.608168 
L 242.77649 77.769148 
L 242.938858 79.980792 
L 243.101226 78.517578 
L 243.263594 78.965364 
L 243.507146 87.035002 
L 243.58833 87.035002 
L 243.750698 77.921711 
L 243.913066 79.323916 
L 244.075433 80.082301 
L 244.237801 86.096428 
L 244.400169 86.668423 
L 244.562537 91.52248 
L 244.724905 81.702953 
L 244.887273 81.499023 
L 245.049641 87.587085 
L 245.212008 78.836777 
L 245.374376 81.020015 
L 245.536744 79.641369 
L 245.86148 89.959529 
L 246.023848 79.649448 
L 246.2674 90.850723 
L 246.348584 90.850723 
L 246.510951 77.533344 
L 246.754503 86.741342 
L 246.835687 86.741342 
L 246.998055 87.330251 
L 247.160423 78.760808 
L 247.322791 80.143285 
L 247.566342 79.495582 
L 247.647526 79.495582 
L 247.891078 91.826642 
L 247.972262 91.826642 
L 248.13463 77.031298 
L 248.296998 90.212376 
L 248.459366 92.219622 
L 248.621734 77.776757 
L 248.784101 81.080555 
L 248.946469 80.024497 
L 249.108837 80.645253 
L 249.271205 89.95515 
L 249.433573 84.490136 
L 249.595941 85.333586 
L 249.758309 89.536761 
L 249.920677 82.226864 
L 250.083044 90.084389 
L 250.245412 90.024317 
L 250.40778 98.373958 
L 250.570148 76.923014 
L 250.732516 82.746267 
L 250.894884 79.658439 
L 251.057252 81.192723 
L 251.219619 80.78601 
L 251.544355 81.088348 
L 251.706723 80.981027 
L 251.869091 88.35699 
L 252.031459 77.366708 
L 252.193827 84.208022 
L 252.356195 84.197572 
L 252.518562 91.914547 
L 252.68093 94.940088 
L 252.924482 78.314742 
L 253.005666 78.314742 
L 253.249218 96.726255 
L 253.330402 96.726255 
L 253.49277 78.857392 
L 253.655137 83.361576 
L 253.817505 80.003778 
L 253.979873 82.40197 
L 254.142241 78.690208 
L 254.304609 86.588049 
L 254.466977 89.5727 
L 254.629345 82.440593 
L 254.791712 91.436765 
L 254.95408 79.39866 
L 255.116448 89.448387 
L 255.278816 80.888535 
L 255.522368 89.727296 
L 255.603552 89.727296 
L 255.76592 78.408537 
L 256.009471 96.521465 
L 256.090655 96.521465 
L 256.253023 83.466629 
L 256.415391 82.606708 
L 256.577759 89.328166 
L 256.740127 87.568582 
L 256.902495 80.581767 
L 257.064863 82.919471 
L 257.22723 81.299288 
L 257.389598 82.471684 
L 257.551966 80.667483 
L 257.714334 84.339788 
L 257.876702 83.66248 
L 258.201438 85.246828 
L 258.363805 84.260249 
L 258.526173 84.163119 
L 258.769725 89.344898 
L 258.850909 89.344898 
L 259.013277 87.18819 
L 259.175645 98.817731 
L 259.338013 83.44346 
L 259.500381 94.112692 
L 259.662748 80.925204 
L 259.825116 83.163613 
L 259.987484 82.227828 
L 260.31222 84.486722 
L 260.474588 80.805608 
L 260.636956 87.562483 
L 260.799323 82.620729 
L 260.961691 85.747779 
L 261.124059 78.835005 
L 261.286427 94.834722 
L 261.448795 103.334529 
L 261.611163 81.463423 
L 261.773531 85.41409 
L 261.935899 86.372027 
L 262.098266 80.913685 
L 262.260634 83.214589 
L 262.423002 82.534232 
L 262.666554 88.540644 
L 262.747738 88.540644 
L 262.910106 79.581715 
L 263.153658 103.884189 
L 263.234841 103.884189 
L 263.397209 84.86701 
L 263.559577 83.793282 
L 263.721945 84.167862 
L 263.884313 90.020721 
L 264.046681 80.954366 
L 264.290233 94.229369 
L 264.371416 94.229369 
L 264.533784 82.900446 
L 264.777336 91.234111 
L 264.85852 91.234111 
L 265.020888 81.659378 
L 265.183256 83.854213 
L 265.345624 83.168487 
L 265.507992 83.612286 
L 265.670359 83.11282 
L 265.832727 85.661699 
L 265.995095 82.118266 
L 266.157463 89.893646 
L 266.319831 91.656253 
L 266.482199 82.370358 
L 266.644567 91.990568 
L 266.969302 89.739779 
L 267.13167 85.057127 
L 267.294038 85.218968 
L 267.456406 89.753853 
L 267.618774 84.636523 
L 268.024693 89.764251 
L 268.105877 89.764251 
L 268.349429 83.879206 
L 268.430613 83.879206 
L 268.592981 83.232155 
L 268.755349 85.824191 
L 268.917717 97.655343 
L 269.161268 83.114045 
L 269.242452 83.114045 
L 269.40482 83.638139 
L 269.648372 91.471139 
L 269.729556 91.471139 
L 269.973108 83.14167 
L 270.054292 83.14167 
L 270.379027 103.871601 
L 270.541395 92.114308 
L 270.703763 85.685336 
L 270.866131 99.182642 
L 271.028499 88.169869 
L 271.190867 88.754061 
L 271.353235 98.041311 
L 271.515603 81.539574 
L 271.67797 87.7894 
L 271.840338 89.734463 
L 272.002706 83.572125 
L 272.165074 86.238098 
L 272.327442 85.685753 
L 272.48981 86.55529 
L 272.652178 86.528186 
L 272.895729 83.794663 
L 272.976913 83.794663 
L 273.139281 85.626698 
L 273.301649 82.366188 
L 273.545201 100.370936 
L 273.626385 100.370936 
L 273.788753 90.801076 
L 273.951121 87.588519 
L 274.113488 90.266036 
L 274.275856 90.897008 
L 274.438224 84.572907 
L 274.600592 83.93456 
L 274.925328 99.488759 
L 275.087696 86.341535 
L 275.412431 84.469756 
L 275.737167 95.43283 
L 275.899535 88.600377 
L 276.061903 85.47437 
L 276.224271 86.494541 
L 276.386638 91.13831 
L 276.549006 82.666102 
L 276.711374 92.170444 
L 276.873742 93.961745 
L 277.03611 84.533763 
L 277.198478 91.322512 
L 277.360846 88.129031 
L 277.523214 86.124939 
L 277.847949 87.00378 
L 277.929133 86.913478 
L 278.010317 86.913478 
L 278.172685 88.327958 
L 278.335053 96.364967 
L 278.497421 86.443383 
L 278.659789 86.380914 
L 278.822156 85.73209 
L 278.984524 89.369239 
L 279.146892 83.449324 
L 279.390444 95.134871 
L 279.471628 95.134871 
L 279.633996 86.501005 
L 279.796364 97.223584 
L 279.958732 101.120356 
L 280.121099 90.794144 
L 280.283467 85.519768 
L 280.445835 87.05215 
L 280.608203 85.811656 
L 280.851755 87.533894 
L 280.932939 87.533894 
L 281.095307 87.646427 
L 281.257674 93.306953 
L 281.501226 85.749213 
L 281.58241 85.749213 
L 281.744778 86.855621 
L 281.907146 99.080169 
L 282.069514 99.465147 
L 282.231882 83.547966 
L 282.394249 89.580988 
L 282.556617 92.072844 
L 282.718985 91.434966 
L 282.881353 86.292592 
L 283.043721 88.923616 
L 283.287273 87.296658 
L 283.368457 87.296658 
L 283.530825 84.750255 
L 283.774376 98.570122 
L 283.85556 98.570122 
L 284.017928 84.796696 
L 284.180296 94.550653 
L 284.342664 83.746397 
L 284.586216 101.988642 
L 284.6674 101.988642 
L 284.829767 83.335436 
L 284.992135 89.651536 
L 285.154503 84.186886 
L 285.398055 99.325823 
L 285.479239 99.325823 
L 285.641607 84.016862 
L 285.803975 90.802718 
L 285.966342 89.555838 
L 286.12871 90.144669 
L 286.291078 98.26841 
L 286.53463 84.489407 
L 286.615814 84.489407 
L 286.859366 108.206439 
L 286.94055 108.206439 
L 287.102918 87.703814 
L 287.346469 93.451255 
L 287.427653 93.451255 
L 287.590021 85.192594 
L 287.833573 95.400879 
L 287.914757 95.400879 
L 288.077125 89.09179 
L 288.320677 86.551407 
L 288.40186 86.551407 
L 288.645412 95.128798 
L 288.726596 95.128798 
L 288.888964 86.764328 
L 289.051332 93.5205 
L 289.2137 86.880484 
L 289.457252 94.663212 
L 289.538436 94.663212 
L 289.700803 86.50997 
L 289.863171 88.68135 
L 290.025539 87.168019 
L 290.187907 88.613173 
L 290.350275 87.108833 
L 290.512643 89.063696 
L 290.675011 86.138361 
L 290.918562 95.350007 
L 290.999746 95.350007 
L 291.162114 86.798782 
L 291.324482 88.616092 
L 291.48685 88.990932 
L 291.649218 94.436713 
L 291.811586 90.219465 
L 291.973953 94.522429 
L 292.136321 84.156734 
L 292.379873 104.609528 
L 292.461057 104.609528 
L 292.623425 84.285946 
L 292.785793 92.744549 
L 292.948161 85.352064 
L 293.110529 95.23406 
L 293.272896 101.154653 
L 293.435264 89.990985 
L 293.597632 87.492144 
L 293.922368 104.275578 
L 294.084736 89.979987 
L 294.571839 88.212532 
L 294.815391 89.705378 
L 294.896575 89.705378 
L 295.058943 90.534025 
L 295.221311 87.330876 
L 295.383679 91.802927 
L 295.546047 85.196112 
L 295.708414 100.931203 
L 295.870782 109.98695 
L 296.03315 87.365095 
L 296.195518 98.518338 
L 296.357886 87.01212 
L 296.520254 95.415447 
L 296.682622 94.898703 
L 296.844989 95.226789 
L 297.007357 101.69196 
L 297.169725 90.768968 
L 297.332093 103.036882 
L 297.494461 94.832872 
L 297.738013 91.818615 
L 297.819197 91.818615 
L 297.981564 94.218501 
L 298.143932 95.431032 
L 298.3063 92.321495 
L 298.468668 95.84228 
L 298.631036 95.421884 
L 298.793404 101.378807 
L 298.955772 102.659409 
L 299.11814 95.496081 
L 299.280507 97.43588 
L 299.442875 98.632826 
L 299.605243 108.188977 
L 299.767611 95.510154 
L 299.929979 100.646821 
L 300.173531 95.625398 
L 300.254715 95.625398 
L 300.417082 97.073366 
L 300.57945 94.964377 
L 300.904186 112.567546 
L 301.147738 96.128981 
L 301.228922 96.128981 
L 301.39129 98.723754 
L 301.553658 97.026482 
L 301.716025 98.910848 
L 301.878393 97.626649 
L 302.040761 99.895707 
L 302.203129 98.104692 
L 302.365497 100.435203 
L 302.527865 97.875483 
L 302.690233 101.766052 
L 302.8526 102.511016 
L 303.014968 99.166041 
L 303.25852 100.246336 
L 303.502072 100.258611 
L 303.66444 96.737644 
L 303.826808 95.375704 
L 303.989175 111.318425 
L 304.151543 98.4333 
L 304.313911 116.796678 
L 304.476279 70.416744 
L 304.801015 285.11631 
L 304.963383 251.695568 
L 305.125751 273.524923 
L 305.288118 261.64092 
L 305.450486 287.98676 
L 305.612854 255.0794 
L 305.856406 288.150426 
L 305.93759 288.150426 
L 306.099958 266.776023 
L 306.262326 260.73547 
L 306.505877 269.574726 
L 306.587061 269.574726 
L 306.749429 262.508684 
L 306.911797 282.352608 
L 307.074165 264.867915 
L 307.236533 275.792756 
L 307.398901 257.067621 
L 307.723636 280.756559 
L 307.886004 270.580616 
L 308.048372 291.204634 
L 308.21074 270.679545 
L 308.373108 281.037734 
L 308.535476 284.743164 
L 308.697844 269.462453 
L 308.860211 278.939848 
L 309.022579 265.800807 
L 309.184947 270.77433 
L 309.347315 269.755044 
L 309.509683 278.392038 
L 309.672051 262.992748 
L 309.834419 270.62406 
L 309.996786 242.852194 
L 310.159154 270.400819 
L 310.321522 281.963955 
L 310.48389 281.308851 
L 310.727442 271.19582 
L 310.808626 271.19582 
L 310.970994 277.735891 
L 311.133362 266.540168 
L 311.295729 280.510227 
L 311.458097 275.636805 
L 311.620465 273.625885 
L 311.782833 263.661639 
L 311.945201 262.425549 
L 312.107569 275.781368 
L 312.269937 268.162748 
L 312.432304 279.535766 
L 312.594672 266.969268 
L 312.75704 266.29996 
L 313.000592 278.277446 
L 313.081776 278.277446 
L 313.325328 259.027174 
L 313.406512 259.027174 
L 313.568879 276.400872 
L 313.731247 258.674303 
L 313.974799 267.667399 
L 314.055983 267.667399 
L 314.218351 266.235745 
L 314.380719 257.374102 
L 314.543087 264.1923 
L 314.867822 265.21414 
L 315.03019 273.210728 
L 315.192558 266.610585 
L 315.354926 264.57707 
L 315.517294 274.154097 
L 315.679662 277.386122 
L 315.84203 265.095378 
L 316.004397 268.447181 
L 316.166765 270.149274 
L 316.329133 265.697213 
L 316.491501 272.858039 
L 316.735053 262.453017 
L 316.816237 262.453017 
L 316.978605 278.538503 
L 317.30334 266.68916 
L 317.465708 270.128582 
L 317.628076 268.257611 
L 317.790444 274.893666 
L 317.952812 256.243561 
L 318.11518 264.422787 
L 318.277548 264.978754 
L 318.439915 268.489322 
L 318.602283 265.619264 
L 318.764651 268.571546 
L 318.927019 280.575667 
L 319.089387 263.996996 
L 319.251755 257.773388 
L 319.414123 276.837582 
L 319.57649 279.564121 
L 319.738858 269.539256 
L 319.901226 266.57793 
L 320.063594 278.716319 
L 320.225962 269.104787 
L 320.38833 274.316407 
L 320.550698 276.868126 
L 320.713066 260.863692 
L 320.875433 278.731331 
L 321.037801 268.241792 
L 321.200169 266.060482 
L 321.362537 272.96867 
L 321.524905 274.084278 
L 321.687273 265.756815 
L 321.849641 265.333735 
L 322.012008 268.738651 
L 322.174376 264.130118 
L 322.336744 281.112374 
L 322.580296 255.39211 
L 322.66148 255.39211 
L 322.823848 272.736515 
L 323.148584 268.322973 
L 323.310951 278.270566 
L 323.473319 277.811495 
L 323.635687 268.729035 
L 323.798055 281.096607 
L 323.960423 274.856059 
L 324.285159 278.430166 
L 324.772262 272.989493 
L 324.93463 276.036117 
L 325.096998 260.69299 
L 325.259366 259.126989 
L 325.421734 283.951368 
L 325.584101 258.569693 
L 325.746469 273.70459 
L 326.071205 286.962132 
L 326.314757 266.901196 
L 326.395941 266.901196 
L 326.558309 276.58523 
L 326.720677 270.98673 
L 326.883044 292.307811 
L 327.045412 254.355833 
L 327.20778 256.189249 
L 327.370148 268.424377 
L 327.532516 255.924101 
L 327.694884 268.603601 
L 327.857252 270.414944 
L 328.019619 257.663592 
L 328.181987 273.130042 
L 328.344355 271.62664 
L 328.506723 259.833226 
L 328.669091 272.620438 
L 328.831459 262.677484 
L 328.993827 258.422785 
L 329.156195 258.475299 
L 329.318562 258.797548 
L 329.48093 252.072806 
L 329.643298 262.113099 
L 329.88685 269.470715 
L 329.968034 269.470715 
L 330.130402 275.806204 
L 330.29277 275.806699 
L 330.536321 266.070594 
L 330.617505 266.070594 
L 330.779873 266.297953 
L 330.942241 258.948729 
L 331.104609 280.090925 
L 331.266977 265.439518 
L 331.429345 267.057668 
L 331.591712 261.738962 
L 331.835264 281.335902 
L 331.916448 281.335902 
L 332.078816 275.099212 
L 332.241184 273.31096 
L 332.484736 271.313513 
L 332.56592 271.313513 
L 332.728288 270.199807 
L 332.890655 271.704277 
L 333.053023 269.807792 
L 333.215391 277.560029 
L 333.377759 269.594011 
L 333.540127 278.401185 
L 333.702495 268.118704 
L 333.864863 265.830256 
L 334.02723 264.844069 
L 334.189598 266.725959 
L 334.351966 251.869605 
L 334.514334 276.002055 
L 334.676702 274.578532 
L 334.83907 265.728747 
L 335.001438 266.695337 
L 335.163805 263.40371 
L 335.407357 277.065306 
L 335.488541 277.065306 
L 335.650909 259.603625 
L 335.975645 280.704644 
L 336.138013 252.205901 
L 336.462748 271.487655 
L 336.625116 284.887857 
L 336.787484 264.299256 
L 336.949852 279.712723 
L 337.11222 253.70078 
L 337.274588 265.684495 
L 337.436956 265.874665 
L 337.599323 261.833252 
L 337.761691 295.488 
L 337.924059 265.693591 
L 338.086427 271.685956 
L 338.248795 269.751083 
L 338.411163 253.064988 
L 338.573531 274.522917 
L 338.898266 259.436129 
L 339.060634 267.978311 
L 339.38537 262.158915 
L 339.547738 276.404729 
L 339.710106 277.222482 
L 339.872474 267.984358 
L 340.034841 269.96132 
L 340.197209 279.703419 
L 340.359577 260.573759 
L 340.521945 254.927619 
L 340.846681 274.374211 
L 341.009049 262.356721 
L 341.171416 260.030302 
L 341.333784 269.794162 
L 341.496152 259.000383 
L 341.65852 270.882198 
L 341.820888 254.920191 
L 341.983256 258.201655 
L 342.145624 256.418954 
L 342.307992 282.058532 
L 342.470359 271.383644 
L 342.632727 270.688223 
L 342.795095 256.482126 
L 342.957463 268.331495 
L 343.201015 256.09621 
L 343.282199 256.09621 
L 343.444567 278.575406 
L 343.606934 276.435951 
L 343.769302 277.986158 
L 343.93167 270.915739 
L 344.094038 266.928143 
L 344.256406 273.09353 
L 344.418774 264.26694 
L 344.581142 269.663386 
L 344.905877 246.33691 
L 345.068245 280.997313 
L 345.230613 259.894913 
L 345.474165 279.034294 
L 345.555349 279.034294 
L 345.717717 259.156777 
L 345.880085 261.935256 
L 346.042452 262.027618 
L 346.20482 270.762941 
L 346.367188 273.100332 
L 346.529556 281.705114 
L 346.691924 260.501335 
L 347.01666 286.733053 
L 347.179027 258.146848 
L 347.341395 284.568475 
L 347.666131 256.701381 
L 347.828499 268.608423 
L 347.990867 265.325995 
L 348.153235 266.154043 
L 348.315603 249.91258 
L 348.47797 254.588404 
L 348.640338 246.322107 
L 348.802706 263.182657 
L 348.965074 271.53149 
L 349.208626 252.850815 
L 349.28981 252.850815 
L 349.452178 259.165612 
L 349.614545 281.756741 
L 349.776913 263.269572 
L 349.939281 272.696224 
L 350.101649 273.086337 
L 350.345201 257.65163 
L 350.426385 257.65163 
L 350.588753 256.270091 
L 350.751121 263.541444 
L 350.913488 266.161548 
L 351.075856 267.163216 
L 351.238224 280.967812 
L 351.725328 258.717122 
L 352.050063 270.713503 
L 352.212431 270.268635 
L 352.374799 274.857936 
L 352.537167 255.750662 
L 352.699535 280.847382 
L 353.024271 258.762677 
L 353.186638 279.299338 
L 353.349006 262.150289 
L 353.511374 259.779018 
L 353.673742 265.955116 
L 353.83611 268.834844 
L 353.998478 262.333239 
L 354.160846 269.497376 
L 354.323214 265.944197 
L 354.485581 267.626353 
L 354.647949 265.505688 
L 354.810317 272.686191 
L 354.972685 269.812588 
L 355.135053 274.016701 
L 355.297421 272.177213 
L 355.459789 276.434179 
L 355.70334 252.270195 
L 355.784524 252.270195 
L 355.946892 268.532923 
L 356.271628 260.63039 
L 356.433996 281.083576 
L 356.596364 274.566075 
L 356.758732 270.47379 
L 356.921099 269.843158 
L 357.083467 272.416326 
L 357.245835 266.023527 
L 357.408203 262.049066 
L 357.570571 282.950039 
L 357.814123 249.98808 
L 357.895307 249.98808 
L 358.057674 251.145152 
L 358.220042 267.319767 
L 358.38241 275.066713 
L 358.544778 257.907083 
L 358.78833 272.908468 
L 358.869514 272.908468 
L 359.031882 261.611835 
L 359.194249 263.683244 
L 359.437801 284.731775 
L 359.518985 284.731775 
L 359.762537 265.25232 
L 359.843721 265.25232 
L 360.006089 269.471106 
L 360.168457 269.479654 
L 360.330825 241.829234 
L 360.493192 256.766195 
L 360.65556 259.068377 
L 360.817928 270.159933 
L 360.980296 275.343354 
L 361.305032 255.28002 
L 361.4674 260.050317 
L 361.629767 259.560285 
L 361.792135 248.392864 
L 361.954503 262.809928 
L 362.116871 259.480511 
L 362.279239 269.094232 
L 362.441607 250.576128 
L 362.603975 267.354012 
L 362.766342 255.583635 
L 362.92871 277.227799 
L 363.091078 263.945655 
L 363.253446 274.125794 
L 363.415814 277.049279 
L 363.578182 254.265817 
L 363.74055 275.311612 
L 363.902918 266.164285 
L 364.065285 277.757287 
L 364.227653 263.787593 
L 364.390021 260.148308 
L 364.552389 264.217501 
L 364.714757 264.982637 
L 364.877125 269.357009 
L 365.20186 261.566019 
L 365.364228 273.878472 
L 365.526596 254.579413 
L 365.688964 272.469465 
L 365.851332 273.100775 
L 366.0137 250.75358 
L 366.176068 273.121103 
L 366.338436 258.295814 
L 366.500803 265.329956 
L 366.663171 257.175749 
L 366.825539 267.061082 
L 366.987907 265.59586 
L 367.150275 254.499874 
L 367.312643 284.176955 
L 367.475011 243.927955 
L 367.637378 271.862105 
L 367.962114 247.893711 
L 368.124482 275.511893 
L 368.28685 257.781155 
L 368.530402 271.0302 
L 368.611586 271.0302 
L 368.773953 269.058111 
L 368.936321 258.363704 
L 369.098689 257.470738 
L 369.261057 263.882483 
L 369.585793 270.962076 
L 369.748161 260.363131 
L 369.910529 265.275749 
L 370.072896 261.884515 
L 370.397632 257.989176 
L 370.56 249.345511 
L 370.884736 266.468004 
L 371.047104 258.17833 
L 371.209471 258.060376 
L 371.371839 270.925512 
L 371.534207 252.067541 
L 371.696575 265.229672 
L 371.858943 264.976538 
L 372.021311 259.586998 
L 372.183679 273.412834 
L 372.346047 261.494663 
L 372.508414 276.723329 
L 372.751966 256.730621 
L 372.83315 256.730621 
L 372.995518 268.199494 
L 373.157886 272.534592 
L 373.320254 255.623796 
L 373.644989 262.669066 
L 373.807357 249.41228 
L 373.969725 282.10797 
L 374.132093 246.123937 
L 374.294461 262.212784 
L 374.456829 264.478428 
L 374.619197 258.545195 
L 374.781564 278.280235 
L 374.943932 243.744066 
L 375.1063 264.487002 
L 375.268668 273.320602 
L 375.431036 276.966039 
L 375.755772 260.031735 
L 375.91814 276.510069 
L 376.242875 243.861238 
L 376.405243 256.056753 
L 376.567611 258.823869 
L 376.729979 257.153675 
L 376.892347 257.097253 
L 377.054715 250.045128 
L 377.217082 266.561772 
L 377.37945 255.373112 
L 377.541818 275.756922 
L 377.704186 271.661067 
L 377.866554 271.232306 
L 378.028922 261.728798 
L 378.353658 270.785328 
L 378.678393 254.020892 
L 378.840761 255.88738 
L 379.003129 280.48943 
L 379.165497 248.586943 
L 379.409049 263.35534 
L 379.490233 263.35534 
L 379.6526 264.371394 
L 379.814968 249.405999 
L 379.977336 258.852537 
L 380.139704 256.31781 
L 380.302072 255.808779 
L 380.46444 271.575143 
L 380.707992 246.890636 
L 380.789175 246.890636 
L 380.951543 261.77696 
L 381.276279 273.152585 
L 381.438647 271.958871 
L 381.601015 262.65799 
L 381.763383 259.370454 
L 381.925751 266.972213 
L 382.169302 256.477409 
L 382.250486 256.477409 
L 382.412854 270.102937 
L 382.575222 263.757962 
L 382.73759 270.540143 
L 382.899958 271.453124 
L 383.062326 267.721789 
L 383.224693 253.491456 
L 383.387061 272.130354 
L 383.711797 258.20976 
L 383.874165 261.416114 
L 384.036533 260.683191 
L 384.198901 275.29879 
L 384.361268 252.962488 
L 384.523636 279.963355 
L 384.686004 268.481843 
L 384.929556 259.392867 
L 385.01074 259.392867 
L 385.173108 268.452367 
L 385.41666 260.646418 
L 385.497844 260.646418 
L 385.660211 273.808028 
L 385.822579 251.079165 
L 385.984947 270.004477 
L 386.147315 251.16548 
L 386.309683 282.004376 
L 386.472051 277.357975 
L 386.634419 253.703543 
L 386.796786 263.656036 
L 386.959154 262.774953 
L 387.121522 272.095641 
L 387.28389 251.296855 
L 387.446258 268.523932 
L 387.68981 254.171866 
L 387.770994 254.171866 
L 387.933362 256.898014 
L 388.095729 268.800677 
L 388.258097 269.477204 
L 388.420465 254.17799 
L 388.582833 286.784837 
L 388.826385 250.626401 
L 388.907569 250.626401 
L 389.069937 247.449548 
L 389.232304 259.087428 
L 389.394672 257.907318 
L 389.55704 252.814095 
L 389.719408 270.383566 
L 389.881776 264.56198 
L 390.044144 261.74751 
L 390.206512 251.63534 
L 390.368879 259.917091 
L 390.531247 257.284686 
L 390.774799 275.293212 
L 390.855983 275.293212 
L 391.018351 274.643503 
L 391.180719 264.346531 
L 391.343087 267.423491 
L 391.505455 262.470218 
L 391.83019 268.481791 
L 391.992558 260.862754 
L 392.154926 256.778001 
L 392.398478 264.034394 
L 392.479662 264.034394 
L 392.64203 241.654049 
L 392.804397 261.26243 
L 392.966765 261.113855 
L 393.129133 259.262378 
L 393.291501 251.938981 
L 393.453869 259.65851 
L 393.778605 269.066686 
L 393.940973 263.544415 
L 394.10334 269.22235 
L 394.428076 258.16126 
L 394.590444 241.951383 
L 394.833996 278.894579 
L 394.91518 278.894579 
L 395.077548 263.254039 
L 395.239915 276.662658 
L 395.402283 258.025193 
L 395.564651 261.858349 
L 395.727019 254.052739 
L 395.970571 272.216539 
L 396.051755 272.216539 
L 396.214123 253.004916 
L 396.37649 255.079843 
L 396.538858 264.893429 
L 396.701226 262.882326 
L 396.863594 263.406967 
L 397.025962 273.00599 
L 397.18833 265.398394 
L 397.350698 260.598934 
L 397.513066 265.080471 
L 397.675433 284.202808 
L 397.837801 267.151723 
L 398.000169 268.756243 
L 398.162537 256.150704 
L 398.324905 251.164203 
L 398.487273 263.277625 
L 398.487273 263.277625 
" clip-path="url(#p82efa2a02d)" style="fill: none; stroke: #0000ff; stroke-width: 1.5; stroke-linecap: square"/>
   </g>
   <g id="patch_3">
    <path d="M 57.6 307.584 
L 57.6 41.472 
" style="fill: none; stroke: #000000; stroke-width: 0.8; stroke-linejoin: miter; stroke-linecap: square"/>
   </g>
   <g id="patch_4">
    <path d="M 414.72 307.584 
L 414.72 41.472 
" style="fill: none; stroke: #000000; stroke-width: 0.8; stroke-linejoin: miter; stroke-linecap: square"/>
   </g>
   <g id="patch_5">
    <path d="M 57.6 307.584 
L 414.72 307.584 
" style="fill: none; stroke: #000000; stroke-width: 0.8; stroke-linejoin: miter; stroke-linecap: square"/>
   </g>
   <g id="patch_6">
    <path d="M 57.6 41.472 
L 414.72 41.472 
" style="fill: none; stroke: #000000; stroke-width: 0.8; stroke-linejoin: miter; stroke-linecap: square"/>
   </g>
   <g id="text_18">
    <!-- Input (channel L)  -->
    <g transform="translate(183.135938 35.472) scale(0.12 -0.12)">
     <defs>
      <path id="DejaVuSans-49" d="M 628 4666 
L 1259 4666 
L 1259 0 
L 628 0 
L 628 4666 
z
" transform="scale(0.015625)"/>
      <path id="DejaVuSans-6e" d="M 3513 2113 
L 3513 0 
L 2938 0 
L 2938 2094 
Q 2938 2591 2744 2837 
Q 2550 3084 2163 3084 
Q 1697 3084 1428 2787 
Q 1159 2491 1159 1978 
L 1159 0 
L 581 0 
L 581 3500 
L 1159 3500 
L 1159 2956 
Q 1366 3272 1645 3428 
Q 1925 3584 2291 3584 
Q 2894 3584 3203 3211 
Q 3513 2838 3513 2113 
z
" transform="scale(0.015625)"/>
      <path id="DejaVuSans-20" transform="scale(0.015625)"/>
      <path id="DejaVuSans-28" d="M 1984 4856 
Q 1566 4138 1362 3434 
Q 1159 2731 1159 2009 
Q 1159 1288 1364 580 
Q 1569 -128 1984 -844 
L 1484 -844 
Q 1016 -109 783 600 
Q 550 1309 550 2009 
Q 550 2706 781 3412 
Q 1013 4119 1484 4856 
L 1984 4856 
z
" transform="scale(0.015625)"/>
      <path id="DejaVuSans-63" d="M 3122 3366 
L 3122 2828 
Q 2878 2963 2633 3030 
Q 2388 3097 2138 3097 
Q 1578 3097 1268 2742 
Q 959 2388 959 1747 
Q 959 1106 1268 751 
Q 1578 397 2138 397 
Q 2388 397 2633 464 
Q 2878 531 3122 666 
L 3122 134 
Q 2881 22 2623 -34 
Q 2366 -91 2075 -91 
Q 1284 -91 818 406 
Q 353 903 353 1747 
Q 353 2603 823 3093 
Q 1294 3584 2113 3584 
Q 2378 3584 2631 3529 
Q 2884 3475 3122 3366 
z
" transform="scale(0.015625)"/>
      <path id="DejaVuSans-68" d="M 3513 2113 
L 3513 0 
L 2938 0 
L 2938 2094 
Q 2938 2591 2744 2837 
Q 2550 3084 2163 3084 
Q 1697 3084 1428 2787 
Q 1159 2491 1159 1978 
L 1159 0 
L 581 0 
L 581 4863 
L 1159 4863 
L 1159 2956 
Q 1366 3272 1645 3428 
Q 1925 3584 2291 3584 
Q 2894 3584 3203 3211 
Q 3513 2838 3513 2113 
z
" transform="scale(0.015625)"/>
      <path id="DejaVuSans-4c" d="M 628 4666 
L 1259 4666 
L 1259 531 
L 3531 531 
L 3531 0 
L 628 0 
L 628 4666 
z
" transform="scale(0.015625)"/>
      <path id="DejaVuSans-29" d="M 513 4856 
L 1013 4856 
Q 1481 4119 1714 3412 
Q 1947 2706 1947 2009 
Q 1947 1309 1714 600 
Q 1481 -109 1013 -844 
L 513 -844 
Q 928 -128 1133 580 
Q 1338 1288 1338 2009 
Q 1338 2731 1133 3434 
Q 928 4138 513 4856 
z
" transform="scale(0.015625)"/>
     </defs>
     <use xlink:href="#DejaVuSans-49"/>
     <use xlink:href="#DejaVuSans-6e" x="29.492188"/>
     <use xlink:href="#DejaVuSans-70" x="92.871094"/>
     <use xlink:href="#DejaVuSans-75" x="156.347656"/>
     <use xlink:href="#DejaVuSans-74" x="219.726562"/>
     <use xlink:href="#DejaVuSans-20" x="258.935547"/>
     <use xlink:href="#DejaVuSans-28" x="290.722656"/>
     <use xlink:href="#DejaVuSans-63" x="329.736328"/>
     <use xlink:href="#DejaVuSans-68" x="384.716797"/>
     <use xlink:href="#DejaVuSans-61" x="448.095703"/>
     <use xlink:href="#DejaVuSans-6e" x="509.375"/>
     <use xlink:href="#DejaVuSans-6e" x="572.753906"/>
     <use xlink:href="#DejaVuSans-65" x="636.132812"/>
     <use xlink:href="#DejaVuSans-6c" x="697.65625"/>
     <use xlink:href="#DejaVuSans-20" x="725.439453"/>
     <use xlink:href="#DejaVuSans-4c" x="757.226562"/>
     <use xlink:href="#DejaVuSans-29" x="812.939453"/>
     <use xlink:href="#DejaVuSans-20" x="851.953125"/>
    </g>
   </g>
  </g>
 </g>
 <defs>
  <clipPath id="p82efa2a02d">
   <rect x="57.6" y="41.472" width="357.12" height="266.112"/>
  </clipPath>
 </defs>
</svg>
