<?xml version="1.0" encoding="utf-8" standalone="no"?>
<!DOCTYPE svg PUBLIC "-//W3C//DTD SVG 1.1//EN"
  "http://www.w3.org/Graphics/SVG/1.1/DTD/svg11.dtd">
<svg xmlns:xlink="http://www.w3.org/1999/xlink" width="460.8pt" height="345.6pt" viewBox="0 0 460.8 345.6" xmlns="http://www.w3.org/2000/svg" version="1.1">
 <metadata>
  <rdf:RDF xmlns:dc="http://purl.org/dc/elements/1.1/" xmlns:cc="http://creativecommons.org/ns#" xmlns:rdf="http://www.w3.org/1999/02/22-rdf-syntax-ns#">
   <cc:Work>
    <dc:type rdf:resource="http://purl.org/dc/dcmitype/StillImage"/>
    <dc:date>2025-09-08T22:29:01.435838</dc:date>
    <dc:format>image/svg+xml</dc:format>
    <dc:creator>
     <cc:Agent>
      <dc:title>Matplotlib v3.9.2, https://matplotlib.org/</dc:title>
     </cc:Agent>
    </dc:creator>
   </cc:Work>
  </rdf:RDF>
 </metadata>
 <defs>
  <style type="text/css">*{stroke-linejoin: round; stroke-linecap: butt}</style>
 </defs>
 <g id="figure_1">
  <g id="patch_1">
   <path d="M 0 345.6 
L 460.8 345.6 
L 460.8 0 
L 0 0 
z
" style="fill: #ffffff"/>
  </g>
  <g id="axes_1">
   <g id="patch_2">
    <path d="M 57.6 307.584 
L 414.72 307.584 
L 414.72 41.472 
L 57.6 41.472 
z
" style="fill: #ffffff"/>
   </g>
   <g id="matplotlib.axis_1">
    <g id="xtick_1">
     <g id="line2d_1">
      <path d="M 73.832727 307.584 
L 73.832727 41.472 
" clip-path="url(#p30524fd2d6)" style="fill: none; stroke: #b0b0b0; stroke-width: 0.8; stroke-linecap: square"/>
     </g>
     <g id="line2d_2">
      <defs>
       <path id="mecce8f2bab" d="M 0 0 
L 0 3.5 
" style="stroke: #000000; stroke-width: 0.8"/>
      </defs>
      <g>
       <use xlink:href="#mecce8f2bab" x="73.832727" y="307.584" style="stroke: #000000; stroke-width: 0.8"/>
      </g>
     </g>
     <g id="text_1">
      <!-- 0 -->
      <g transform="translate(70.651477 322.182437) scale(0.1 -0.1)">
       <defs>
        <path id="DejaVuSans-30" d="M 2034 4250 
Q 1547 4250 1301 3770 
Q 1056 3291 1056 2328 
Q 1056 1369 1301 889 
Q 1547 409 2034 409 
Q 2525 409 2770 889 
Q 3016 1369 3016 2328 
Q 3016 3291 2770 3770 
Q 2525 4250 2034 4250 
z
M 2034 4750 
Q 2819 4750 3233 4129 
Q 3647 3509 3647 2328 
Q 3647 1150 3233 529 
Q 2819 -91 2034 -91 
Q 1250 -91 836 529 
Q 422 1150 422 2328 
Q 422 3509 836 4129 
Q 1250 4750 2034 4750 
z
" transform="scale(0.015625)"/>
       </defs>
       <use xlink:href="#DejaVuSans-30"/>
      </g>
     </g>
    </g>
    <g id="xtick_2">
     <g id="line2d_3">
      <path d="M 114.424693 307.584 
L 114.424693 41.472 
" clip-path="url(#p30524fd2d6)" style="fill: none; stroke: #b0b0b0; stroke-width: 0.8; stroke-linecap: square"/>
     </g>
     <g id="line2d_4">
      <g>
       <use xlink:href="#mecce8f2bab" x="114.424693" y="307.584" style="stroke: #000000; stroke-width: 0.8"/>
      </g>
     </g>
     <g id="text_2">
      <!-- 500 -->
      <g transform="translate(104.880943 322.182437) scale(0.1 -0.1)">
       <defs>
        <path id="DejaVuSans-35" d="M 691 4666 
L 3169 4666 
L 3169 4134 
L 1269 4134 
L 1269 2991 
Q 1406 3038 1543 3061 
Q 1681 3084 1819 3084 
Q 2600 3084 3056 2656 
Q 3513 2228 3513 1497 
Q 3513 744 3044 326 
Q 2575 -91 1722 -91 
Q 1428 -91 1123 -41 
Q 819 9 494 109 
L 494 744 
Q 775 591 1075 516 
Q 1375 441 1709 441 
Q 2250 441 2565 725 
Q 2881 1009 2881 1497 
Q 2881 1984 2565 2268 
Q 2250 2553 1709 2553 
Q 1456 2553 1204 2497 
Q 953 2441 691 2322 
L 691 4666 
z
" transform="scale(0.015625)"/>
       </defs>
       <use xlink:href="#DejaVuSans-35"/>
       <use xlink:href="#DejaVuSans-30" x="63.623047"/>
       <use xlink:href="#DejaVuSans-30" x="127.246094"/>
      </g>
     </g>
    </g>
    <g id="xtick_3">
     <g id="line2d_5">
      <path d="M 155.01666 307.584 
L 155.01666 41.472 
" clip-path="url(#p30524fd2d6)" style="fill: none; stroke: #b0b0b0; stroke-width: 0.8; stroke-linecap: square"/>
     </g>
     <g id="line2d_6">
      <g>
       <use xlink:href="#mecce8f2bab" x="155.01666" y="307.584" style="stroke: #000000; stroke-width: 0.8"/>
      </g>
     </g>
     <g id="text_3">
      <!-- 1000 -->
      <g transform="translate(142.29166 322.182437) scale(0.1 -0.1)">
       <defs>
        <path id="DejaVuSans-31" d="M 794 531 
L 1825 531 
L 1825 4091 
L 703 3866 
L 703 4441 
L 1819 4666 
L 2450 4666 
L 2450 531 
L 3481 531 
L 3481 0 
L 794 0 
L 794 531 
z
" transform="scale(0.015625)"/>
       </defs>
       <use xlink:href="#DejaVuSans-31"/>
       <use xlink:href="#DejaVuSans-30" x="63.623047"/>
       <use xlink:href="#DejaVuSans-30" x="127.246094"/>
       <use xlink:href="#DejaVuSans-30" x="190.869141"/>
      </g>
     </g>
    </g>
    <g id="xtick_4">
     <g id="line2d_7">
      <path d="M 195.608626 307.584 
L 195.608626 41.472 
" clip-path="url(#p30524fd2d6)" style="fill: none; stroke: #b0b0b0; stroke-width: 0.8; stroke-linecap: square"/>
     </g>
     <g id="line2d_8">
      <g>
       <use xlink:href="#mecce8f2bab" x="195.608626" y="307.584" style="stroke: #000000; stroke-width: 0.8"/>
      </g>
     </g>
     <g id="text_4">
      <!-- 1500 -->
      <g transform="translate(182.883626 322.182437) scale(0.1 -0.1)">
       <use xlink:href="#DejaVuSans-31"/>
       <use xlink:href="#DejaVuSans-35" x="63.623047"/>
       <use xlink:href="#DejaVuSans-30" x="127.246094"/>
       <use xlink:href="#DejaVuSans-30" x="190.869141"/>
      </g>
     </g>
    </g>
    <g id="xtick_5">
     <g id="line2d_9">
      <path d="M 236.200592 307.584 
L 236.200592 41.472 
" clip-path="url(#p30524fd2d6)" style="fill: none; stroke: #b0b0b0; stroke-width: 0.8; stroke-linecap: square"/>
     </g>
     <g id="line2d_10">
      <g>
       <use xlink:href="#mecce8f2bab" x="236.200592" y="307.584" style="stroke: #000000; stroke-width: 0.8"/>
      </g>
     </g>
     <g id="text_5">
      <!-- 2000 -->
      <g transform="translate(223.475592 322.182437) scale(0.1 -0.1)">
       <defs>
        <path id="DejaVuSans-32" d="M 1228 531 
L 3431 531 
L 3431 0 
L 469 0 
L 469 531 
Q 828 903 1448 1529 
Q 2069 2156 2228 2338 
Q 2531 2678 2651 2914 
Q 2772 3150 2772 3378 
Q 2772 3750 2511 3984 
Q 2250 4219 1831 4219 
Q 1534 4219 1204 4116 
Q 875 4013 500 3803 
L 500 4441 
Q 881 4594 1212 4672 
Q 1544 4750 1819 4750 
Q 2544 4750 2975 4387 
Q 3406 4025 3406 3419 
Q 3406 3131 3298 2873 
Q 3191 2616 2906 2266 
Q 2828 2175 2409 1742 
Q 1991 1309 1228 531 
z
" transform="scale(0.015625)"/>
       </defs>
       <use xlink:href="#DejaVuSans-32"/>
       <use xlink:href="#DejaVuSans-30" x="63.623047"/>
       <use xlink:href="#DejaVuSans-30" x="127.246094"/>
       <use xlink:href="#DejaVuSans-30" x="190.869141"/>
      </g>
     </g>
    </g>
    <g id="xtick_6">
     <g id="line2d_11">
      <path d="M 276.792558 307.584 
L 276.792558 41.472 
" clip-path="url(#p30524fd2d6)" style="fill: none; stroke: #b0b0b0; stroke-width: 0.8; stroke-linecap: square"/>
     </g>
     <g id="line2d_12">
      <g>
       <use xlink:href="#mecce8f2bab" x="276.792558" y="307.584" style="stroke: #000000; stroke-width: 0.8"/>
      </g>
     </g>
     <g id="text_6">
      <!-- 2500 -->
      <g transform="translate(264.067558 322.182437) scale(0.1 -0.1)">
       <use xlink:href="#DejaVuSans-32"/>
       <use xlink:href="#DejaVuSans-35" x="63.623047"/>
       <use xlink:href="#DejaVuSans-30" x="127.246094"/>
       <use xlink:href="#DejaVuSans-30" x="190.869141"/>
      </g>
     </g>
    </g>
    <g id="xtick_7">
     <g id="line2d_13">
      <path d="M 317.384524 307.584 
L 317.384524 41.472 
" clip-path="url(#p30524fd2d6)" style="fill: none; stroke: #b0b0b0; stroke-width: 0.8; stroke-linecap: square"/>
     </g>
     <g id="line2d_14">
      <g>
       <use xlink:href="#mecce8f2bab" x="317.384524" y="307.584" style="stroke: #000000; stroke-width: 0.8"/>
      </g>
     </g>
     <g id="text_7">
      <!-- 3000 -->
      <g transform="translate(304.659524 322.182437) scale(0.1 -0.1)">
       <defs>
        <path id="DejaVuSans-33" d="M 2597 2516 
Q 3050 2419 3304 2112 
Q 3559 1806 3559 1356 
Q 3559 666 3084 287 
Q 2609 -91 1734 -91 
Q 1441 -91 1130 -33 
Q 819 25 488 141 
L 488 750 
Q 750 597 1062 519 
Q 1375 441 1716 441 
Q 2309 441 2620 675 
Q 2931 909 2931 1356 
Q 2931 1769 2642 2001 
Q 2353 2234 1838 2234 
L 1294 2234 
L 1294 2753 
L 1863 2753 
Q 2328 2753 2575 2939 
Q 2822 3125 2822 3475 
Q 2822 3834 2567 4026 
Q 2313 4219 1838 4219 
Q 1578 4219 1281 4162 
Q 984 4106 628 3988 
L 628 4550 
Q 988 4650 1302 4700 
Q 1616 4750 1894 4750 
Q 2613 4750 3031 4423 
Q 3450 4097 3450 3541 
Q 3450 3153 3228 2886 
Q 3006 2619 2597 2516 
z
" transform="scale(0.015625)"/>
       </defs>
       <use xlink:href="#DejaVuSans-33"/>
       <use xlink:href="#DejaVuSans-30" x="63.623047"/>
       <use xlink:href="#DejaVuSans-30" x="127.246094"/>
       <use xlink:href="#DejaVuSans-30" x="190.869141"/>
      </g>
     </g>
    </g>
    <g id="xtick_8">
     <g id="line2d_15">
      <path d="M 357.97649 307.584 
L 357.97649 41.472 
" clip-path="url(#p30524fd2d6)" style="fill: none; stroke: #b0b0b0; stroke-width: 0.8; stroke-linecap: square"/>
     </g>
     <g id="line2d_16">
      <g>
       <use xlink:href="#mecce8f2bab" x="357.97649" y="307.584" style="stroke: #000000; stroke-width: 0.8"/>
      </g>
     </g>
     <g id="text_8">
      <!-- 3500 -->
      <g transform="translate(345.25149 322.182437) scale(0.1 -0.1)">
       <use xlink:href="#DejaVuSans-33"/>
       <use xlink:href="#DejaVuSans-35" x="63.623047"/>
       <use xlink:href="#DejaVuSans-30" x="127.246094"/>
       <use xlink:href="#DejaVuSans-30" x="190.869141"/>
      </g>
     </g>
    </g>
    <g id="xtick_9">
     <g id="line2d_17">
      <path d="M 398.568457 307.584 
L 398.568457 41.472 
" clip-path="url(#p30524fd2d6)" style="fill: none; stroke: #b0b0b0; stroke-width: 0.8; stroke-linecap: square"/>
     </g>
     <g id="line2d_18">
      <g>
       <use xlink:href="#mecce8f2bab" x="398.568457" y="307.584" style="stroke: #000000; stroke-width: 0.8"/>
      </g>
     </g>
     <g id="text_9">
      <!-- 4000 -->
      <g transform="translate(385.843457 322.182437) scale(0.1 -0.1)">
       <defs>
        <path id="DejaVuSans-34" d="M 2419 4116 
L 825 1625 
L 2419 1625 
L 2419 4116 
z
M 2253 4666 
L 3047 4666 
L 3047 1625 
L 3713 1625 
L 3713 1100 
L 3047 1100 
L 3047 0 
L 2419 0 
L 2419 1100 
L 313 1100 
L 313 1709 
L 2253 4666 
z
" transform="scale(0.015625)"/>
       </defs>
       <use xlink:href="#DejaVuSans-34"/>
       <use xlink:href="#DejaVuSans-30" x="63.623047"/>
       <use xlink:href="#DejaVuSans-30" x="127.246094"/>
       <use xlink:href="#DejaVuSans-30" x="190.869141"/>
      </g>
     </g>
    </g>
    <g id="text_10">
     <!-- Samples -->
     <g transform="translate(214.806875 335.860562) scale(0.1 -0.1)">
      <defs>
       <path id="DejaVuSans-53" d="M 3425 4513 
L 3425 3897 
Q 3066 4069 2747 4153 
Q 2428 4238 2131 4238 
Q 1616 4238 1336 4038 
Q 1056 3838 1056 3469 
Q 1056 3159 1242 3001 
Q 1428 2844 1947 2747 
L 2328 2669 
Q 3034 2534 3370 2195 
Q 3706 1856 3706 1288 
Q 3706 609 3251 259 
Q 2797 -91 1919 -91 
Q 1588 -91 1214 -16 
Q 841 59 441 206 
L 441 856 
Q 825 641 1194 531 
Q 1563 422 1919 422 
Q 2459 422 2753 634 
Q 3047 847 3047 1241 
Q 3047 1584 2836 1778 
Q 2625 1972 2144 2069 
L 1759 2144 
Q 1053 2284 737 2584 
Q 422 2884 422 3419 
Q 422 4038 858 4394 
Q 1294 4750 2059 4750 
Q 2388 4750 2728 4690 
Q 3069 4631 3425 4513 
z
" transform="scale(0.015625)"/>
       <path id="DejaVuSans-61" d="M 2194 1759 
Q 1497 1759 1228 1600 
Q 959 1441 959 1056 
Q 959 750 1161 570 
Q 1363 391 1709 391 
Q 2188 391 2477 730 
Q 2766 1069 2766 1631 
L 2766 1759 
L 2194 1759 
z
M 3341 1997 
L 3341 0 
L 2766 0 
L 2766 531 
Q 2569 213 2275 61 
Q 1981 -91 1556 -91 
Q 1019 -91 701 211 
Q 384 513 384 1019 
Q 384 1609 779 1909 
Q 1175 2209 1959 2209 
L 2766 2209 
L 2766 2266 
Q 2766 2663 2505 2880 
Q 2244 3097 1772 3097 
Q 1472 3097 1187 3025 
Q 903 2953 641 2809 
L 641 3341 
Q 956 3463 1253 3523 
Q 1550 3584 1831 3584 
Q 2591 3584 2966 3190 
Q 3341 2797 3341 1997 
z
" transform="scale(0.015625)"/>
       <path id="DejaVuSans-6d" d="M 3328 2828 
Q 3544 3216 3844 3400 
Q 4144 3584 4550 3584 
Q 5097 3584 5394 3201 
Q 5691 2819 5691 2113 
L 5691 0 
L 5113 0 
L 5113 2094 
Q 5113 2597 4934 2840 
Q 4756 3084 4391 3084 
Q 3944 3084 3684 2787 
Q 3425 2491 3425 1978 
L 3425 0 
L 2847 0 
L 2847 2094 
Q 2847 2600 2669 2842 
Q 2491 3084 2119 3084 
Q 1678 3084 1418 2786 
Q 1159 2488 1159 1978 
L 1159 0 
L 581 0 
L 581 3500 
L 1159 3500 
L 1159 2956 
Q 1356 3278 1631 3431 
Q 1906 3584 2284 3584 
Q 2666 3584 2933 3390 
Q 3200 3197 3328 2828 
z
" transform="scale(0.015625)"/>
       <path id="DejaVuSans-70" d="M 1159 525 
L 1159 -1331 
L 581 -1331 
L 581 3500 
L 1159 3500 
L 1159 2969 
Q 1341 3281 1617 3432 
Q 1894 3584 2278 3584 
Q 2916 3584 3314 3078 
Q 3713 2572 3713 1747 
Q 3713 922 3314 415 
Q 2916 -91 2278 -91 
Q 1894 -91 1617 61 
Q 1341 213 1159 525 
z
M 3116 1747 
Q 3116 2381 2855 2742 
Q 2594 3103 2138 3103 
Q 1681 3103 1420 2742 
Q 1159 2381 1159 1747 
Q 1159 1113 1420 752 
Q 1681 391 2138 391 
Q 2594 391 2855 752 
Q 3116 1113 3116 1747 
z
" transform="scale(0.015625)"/>
       <path id="DejaVuSans-6c" d="M 603 4863 
L 1178 4863 
L 1178 0 
L 603 0 
L 603 4863 
z
" transform="scale(0.015625)"/>
       <path id="DejaVuSans-65" d="M 3597 1894 
L 3597 1613 
L 953 1613 
Q 991 1019 1311 708 
Q 1631 397 2203 397 
Q 2534 397 2845 478 
Q 3156 559 3463 722 
L 3463 178 
Q 3153 47 2828 -22 
Q 2503 -91 2169 -91 
Q 1331 -91 842 396 
Q 353 884 353 1716 
Q 353 2575 817 3079 
Q 1281 3584 2069 3584 
Q 2775 3584 3186 3129 
Q 3597 2675 3597 1894 
z
M 3022 2063 
Q 3016 2534 2758 2815 
Q 2500 3097 2075 3097 
Q 1594 3097 1305 2825 
Q 1016 2553 972 2059 
L 3022 2063 
z
" transform="scale(0.015625)"/>
       <path id="DejaVuSans-73" d="M 2834 3397 
L 2834 2853 
Q 2591 2978 2328 3040 
Q 2066 3103 1784 3103 
Q 1356 3103 1142 2972 
Q 928 2841 928 2578 
Q 928 2378 1081 2264 
Q 1234 2150 1697 2047 
L 1894 2003 
Q 2506 1872 2764 1633 
Q 3022 1394 3022 966 
Q 3022 478 2636 193 
Q 2250 -91 1575 -91 
Q 1294 -91 989 -36 
Q 684 19 347 128 
L 347 722 
Q 666 556 975 473 
Q 1284 391 1588 391 
Q 1994 391 2212 530 
Q 2431 669 2431 922 
Q 2431 1156 2273 1281 
Q 2116 1406 1581 1522 
L 1381 1569 
Q 847 1681 609 1914 
Q 372 2147 372 2553 
Q 372 3047 722 3315 
Q 1072 3584 1716 3584 
Q 2034 3584 2315 3537 
Q 2597 3491 2834 3397 
z
" transform="scale(0.015625)"/>
      </defs>
      <use xlink:href="#DejaVuSans-53"/>
      <use xlink:href="#DejaVuSans-61" x="63.476562"/>
      <use xlink:href="#DejaVuSans-6d" x="124.755859"/>
      <use xlink:href="#DejaVuSans-70" x="222.167969"/>
      <use xlink:href="#DejaVuSans-6c" x="285.644531"/>
      <use xlink:href="#DejaVuSans-65" x="313.427734"/>
      <use xlink:href="#DejaVuSans-73" x="374.951172"/>
     </g>
    </g>
   </g>
   <g id="matplotlib.axis_2">
    <g id="ytick_1">
     <g id="line2d_19">
      <path d="M 57.6 252.701307 
L 414.72 252.701307 
" clip-path="url(#p30524fd2d6)" style="fill: none; stroke: #b0b0b0; stroke-width: 0.8; stroke-linecap: square"/>
     </g>
     <g id="line2d_20">
      <defs>
       <path id="mb860c89af6" d="M 0 0 
L -3.5 0 
" style="stroke: #000000; stroke-width: 0.8"/>
      </defs>
      <g>
       <use xlink:href="#mb860c89af6" x="57.6" y="252.701307" style="stroke: #000000; stroke-width: 0.8"/>
      </g>
     </g>
     <g id="text_11">
      <!-- −2 -->
      <g transform="translate(35.857813 256.500526) scale(0.1 -0.1)">
       <defs>
        <path id="DejaVuSans-2212" d="M 678 2272 
L 4684 2272 
L 4684 1741 
L 678 1741 
L 678 2272 
z
" transform="scale(0.015625)"/>
       </defs>
       <use xlink:href="#DejaVuSans-2212"/>
       <use xlink:href="#DejaVuSans-32" x="83.789062"/>
      </g>
     </g>
    </g>
    <g id="ytick_2">
     <g id="line2d_21">
      <path d="M 57.6 195.092193 
L 414.72 195.092193 
" clip-path="url(#p30524fd2d6)" style="fill: none; stroke: #b0b0b0; stroke-width: 0.8; stroke-linecap: square"/>
     </g>
     <g id="line2d_22">
      <g>
       <use xlink:href="#mb860c89af6" x="57.6" y="195.092193" style="stroke: #000000; stroke-width: 0.8"/>
      </g>
     </g>
     <g id="text_12">
      <!-- 0 -->
      <g transform="translate(44.2375 198.891411) scale(0.1 -0.1)">
       <use xlink:href="#DejaVuSans-30"/>
      </g>
     </g>
    </g>
    <g id="ytick_3">
     <g id="line2d_23">
      <path d="M 57.6 137.483078 
L 414.72 137.483078 
" clip-path="url(#p30524fd2d6)" style="fill: none; stroke: #b0b0b0; stroke-width: 0.8; stroke-linecap: square"/>
     </g>
     <g id="line2d_24">
      <g>
       <use xlink:href="#mb860c89af6" x="57.6" y="137.483078" style="stroke: #000000; stroke-width: 0.8"/>
      </g>
     </g>
     <g id="text_13">
      <!-- 2 -->
      <g transform="translate(44.2375 141.282297) scale(0.1 -0.1)">
       <use xlink:href="#DejaVuSans-32"/>
      </g>
     </g>
    </g>
    <g id="ytick_4">
     <g id="line2d_25">
      <path d="M 57.6 79.873964 
L 414.72 79.873964 
" clip-path="url(#p30524fd2d6)" style="fill: none; stroke: #b0b0b0; stroke-width: 0.8; stroke-linecap: square"/>
     </g>
     <g id="line2d_26">
      <g>
       <use xlink:href="#mb860c89af6" x="57.6" y="79.873964" style="stroke: #000000; stroke-width: 0.8"/>
      </g>
     </g>
     <g id="text_14">
      <!-- 4 -->
      <g transform="translate(44.2375 83.673182) scale(0.1 -0.1)">
       <use xlink:href="#DejaVuSans-34"/>
      </g>
     </g>
    </g>
    <g id="text_15">
     <!-- Amplitude -->
     <g transform="translate(29.778125 200.150656) rotate(-90) scale(0.1 -0.1)">
      <defs>
       <path id="DejaVuSans-41" d="M 2188 4044 
L 1331 1722 
L 3047 1722 
L 2188 4044 
z
M 1831 4666 
L 2547 4666 
L 4325 0 
L 3669 0 
L 3244 1197 
L 1141 1197 
L 716 0 
L 50 0 
L 1831 4666 
z
" transform="scale(0.015625)"/>
       <path id="DejaVuSans-69" d="M 603 3500 
L 1178 3500 
L 1178 0 
L 603 0 
L 603 3500 
z
M 603 4863 
L 1178 4863 
L 1178 4134 
L 603 4134 
L 603 4863 
z
" transform="scale(0.015625)"/>
       <path id="DejaVuSans-74" d="M 1172 4494 
L 1172 3500 
L 2356 3500 
L 2356 3053 
L 1172 3053 
L 1172 1153 
Q 1172 725 1289 603 
Q 1406 481 1766 481 
L 2356 481 
L 2356 0 
L 1766 0 
Q 1100 0 847 248 
Q 594 497 594 1153 
L 594 3053 
L 172 3053 
L 172 3500 
L 594 3500 
L 594 4494 
L 1172 4494 
z
" transform="scale(0.015625)"/>
       <path id="DejaVuSans-75" d="M 544 1381 
L 544 3500 
L 1119 3500 
L 1119 1403 
Q 1119 906 1312 657 
Q 1506 409 1894 409 
Q 2359 409 2629 706 
Q 2900 1003 2900 1516 
L 2900 3500 
L 3475 3500 
L 3475 0 
L 2900 0 
L 2900 538 
Q 2691 219 2414 64 
Q 2138 -91 1772 -91 
Q 1169 -91 856 284 
Q 544 659 544 1381 
z
M 1991 3584 
L 1991 3584 
z
" transform="scale(0.015625)"/>
       <path id="DejaVuSans-64" d="M 2906 2969 
L 2906 4863 
L 3481 4863 
L 3481 0 
L 2906 0 
L 2906 525 
Q 2725 213 2448 61 
Q 2172 -91 1784 -91 
Q 1150 -91 751 415 
Q 353 922 353 1747 
Q 353 2572 751 3078 
Q 1150 3584 1784 3584 
Q 2172 3584 2448 3432 
Q 2725 3281 2906 2969 
z
M 947 1747 
Q 947 1113 1208 752 
Q 1469 391 1925 391 
Q 2381 391 2643 752 
Q 2906 1113 2906 1747 
Q 2906 2381 2643 2742 
Q 2381 3103 1925 3103 
Q 1469 3103 1208 2742 
Q 947 2381 947 1747 
z
" transform="scale(0.015625)"/>
      </defs>
      <use xlink:href="#DejaVuSans-41"/>
      <use xlink:href="#DejaVuSans-6d" x="68.408203"/>
      <use xlink:href="#DejaVuSans-70" x="165.820312"/>
      <use xlink:href="#DejaVuSans-6c" x="229.296875"/>
      <use xlink:href="#DejaVuSans-69" x="257.080078"/>
      <use xlink:href="#DejaVuSans-74" x="284.863281"/>
      <use xlink:href="#DejaVuSans-75" x="324.072266"/>
      <use xlink:href="#DejaVuSans-64" x="387.451172"/>
      <use xlink:href="#DejaVuSans-65" x="450.927734"/>
     </g>
    </g>
    <g id="text_16">
     <!-- 1e6 -->
     <g transform="translate(57.6 38.472) scale(0.1 -0.1)">
      <defs>
       <path id="DejaVuSans-36" d="M 2113 2584 
Q 1688 2584 1439 2293 
Q 1191 2003 1191 1497 
Q 1191 994 1439 701 
Q 1688 409 2113 409 
Q 2538 409 2786 701 
Q 3034 994 3034 1497 
Q 3034 2003 2786 2293 
Q 2538 2584 2113 2584 
z
M 3366 4563 
L 3366 3988 
Q 3128 4100 2886 4159 
Q 2644 4219 2406 4219 
Q 1781 4219 1451 3797 
Q 1122 3375 1075 2522 
Q 1259 2794 1537 2939 
Q 1816 3084 2150 3084 
Q 2853 3084 3261 2657 
Q 3669 2231 3669 1497 
Q 3669 778 3244 343 
Q 2819 -91 2113 -91 
Q 1303 -91 875 529 
Q 447 1150 447 2328 
Q 447 3434 972 4092 
Q 1497 4750 2381 4750 
Q 2619 4750 2861 4703 
Q 3103 4656 3366 4563 
z
" transform="scale(0.015625)"/>
      </defs>
      <use xlink:href="#DejaVuSans-31"/>
      <use xlink:href="#DejaVuSans-65" x="63.623047"/>
      <use xlink:href="#DejaVuSans-36" x="125.146484"/>
     </g>
    </g>
   </g>
   <g id="line2d_27">
    <path d="M 73.832727 263.403036 
L 73.995095 262.119274 
L 74.238647 249.136859 
L 74.319831 249.136859 
L 74.482199 250.992823 
L 74.644567 247.970245 
L 74.969302 256.125219 
L 75.13167 257.651803 
L 75.294038 255.75943 
L 75.456406 256.26832 
L 75.618774 258.254884 
L 75.781142 257.593733 
L 75.94351 261.802366 
L 76.105877 260.926017 
L 76.430613 261.805823 
L 76.592981 263.254519 
L 76.755349 260.538739 
L 76.917717 262.384219 
L 77.242452 257.654712 
L 77.486004 264.716927 
L 77.567188 264.716927 
L 77.729556 269.04942 
L 77.973108 272.271786 
L 78.054292 272.271786 
L 78.21666 265.281928 
L 78.379027 263.288134 
L 78.541395 262.474492 
L 79.028499 270.677511 
L 79.515603 262.777862 
L 79.67797 261.904997 
L 79.840338 261.567667 
L 80.002706 262.059447 
L 80.165074 262.288731 
L 80.327442 255.487687 
L 80.48981 256.080428 
L 80.652178 258.843908 
L 80.814545 257.179753 
L 80.976913 259.102371 
L 81.139281 258.770226 
L 81.464017 252.403727 
L 81.707569 265.428745 
L 81.788753 265.428745 
L 81.951121 263.296574 
L 82.113488 265.711491 
L 82.438224 256.16664 
L 82.600592 257.792801 
L 82.76296 258.717715 
L 82.925328 256.739735 
L 83.087696 259.963858 
L 83.331247 262.253878 
L 83.412431 262.253878 
L 83.574799 262.385976 
L 83.737167 262.412044 
L 83.899535 263.708479 
L 84.143087 261.626083 
L 84.224271 261.626083 
L 84.467822 249.903751 
L 84.549006 249.903751 
L 84.711374 250.029281 
L 85.198478 254.737098 
L 85.360846 252.483718 
L 85.523214 252.85691 
L 85.685581 251.532274 
L 86.010317 249.016484 
L 86.172685 245.820964 
L 86.335053 249.615878 
L 86.497421 251.680186 
L 86.740973 266.996001 
L 86.984524 266.950519 
L 87.146892 271.231308 
L 87.30926 265.461813 
L 87.471628 265.991039 
L 87.633996 262.071718 
L 87.796364 260.598336 
L 87.958732 262.925715 
L 88.121099 256.435501 
L 88.364651 263.770006 
L 88.445835 263.770006 
L 88.608203 262.07529 
L 88.770571 265.404175 
L 89.095307 255.20114 
L 89.420042 262.73958 
L 89.58241 260.731615 
L 89.907146 264.4841 
L 90.069514 261.389914 
L 90.231882 262.30008 
L 90.475433 261.049617 
L 90.556617 261.049617 
L 90.718985 259.044733 
L 90.881353 259.64479 
L 91.043721 262.766973 
L 91.287273 258.599933 
L 91.368457 258.599933 
L 91.530825 262.550248 
L 91.693192 262.725668 
L 91.85556 261.122925 
L 92.017928 260.739738 
L 92.180296 252.675758 
L 92.423848 245.793398 
L 92.505032 245.793398 
L 92.6674 249.672335 
L 92.829767 249.61631 
L 93.073319 259.273326 
L 93.154503 259.273326 
L 93.398055 264.069948 
L 93.479239 264.069948 
L 93.641607 264.644426 
L 93.885159 260.587736 
L 93.966342 260.587736 
L 94.12871 262.863872 
L 94.291078 258.0063 
L 94.453446 260.269301 
L 94.615814 256.883383 
L 94.778182 257.983833 
L 94.94055 258.264648 
L 95.102918 257.208068 
L 95.265285 259.64551 
L 95.427653 258.562055 
L 95.752389 257.474453 
L 95.914757 259.025578 
L 96.077125 258.07546 
L 96.239493 260.716319 
L 96.564228 255.619468 
L 96.726596 256.927051 
L 96.888964 256.346524 
L 97.051332 260.459844 
L 97.2137 262.803498 
L 97.457252 258.26462 
L 97.538436 258.26462 
L 97.700803 259.370254 
L 97.863171 259.646173 
L 98.025539 260.977087 
L 98.187907 267.474675 
L 98.350275 259.402947 
L 98.512643 259.307373 
L 98.675011 264.547729 
L 98.837378 262.34153 
L 99.08093 271.77387 
L 99.162114 271.77387 
L 99.324482 265.910962 
L 99.48685 266.023991 
L 99.649218 265.92692 
L 99.811586 258.946539 
L 100.136321 254.087181 
L 100.379873 260.529752 
L 100.461057 260.529752 
L 100.623425 263.21209 
L 100.785793 263.522747 
L 100.948161 257.614097 
L 101.110529 262.634991 
L 101.35408 257.636911 
L 101.435264 257.636911 
L 101.597632 256.459179 
L 101.76 250.911421 
L 101.922368 254.037032 
L 102.084736 254.840737 
L 102.247104 259.588247 
L 102.490655 250.368167 
L 102.571839 250.368167 
L 102.734207 250.591748 
L 102.896575 246.21406 
L 103.140127 251.055645 
L 103.221311 251.055645 
L 103.464863 261.040284 
L 103.546047 261.040284 
L 103.870782 257.854817 
L 104.114334 250.046391 
L 104.195518 250.046391 
L 104.43907 259.024109 
L 104.520254 259.024109 
L 104.844989 265.318251 
L 105.088541 256.142905 
L 105.169725 256.142905 
L 105.332093 255.816808 
L 105.494461 253.782861 
L 105.656829 256.450336 
L 105.819197 253.781565 
L 105.981564 253.660153 
L 106.225116 248.090763 
L 106.3063 248.090763 
L 106.468668 252.864773 
L 106.631036 253.666404 
L 106.793404 251.690383 
L 106.955772 257.708663 
L 107.11814 256.193284 
L 107.442875 263.180463 
L 107.605243 256.378123 
L 107.767611 258.736899 
L 107.929979 252.965762 
L 108.092347 254.027498 
L 108.254715 261.125661 
L 108.417082 260.423118 
L 108.57945 262.948961 
L 108.823002 255.958959 
L 108.904186 255.958959 
L 109.066554 258.177169 
L 109.228922 256.83914 
L 109.553658 260.725047 
L 109.716025 255.912583 
L 109.878393 263.034913 
L 110.121945 253.352377 
L 110.203129 253.352377 
L 110.365497 257.52103 
L 110.527865 253.820508 
L 110.690233 258.46556 
L 110.8526 257.237823 
L 111.014968 259.180489 
L 111.177336 255.108274 
L 111.420888 257.891802 
L 111.502072 257.891802 
L 111.66444 253.634345 
L 111.826808 257.891601 
L 111.989175 252.861662 
L 112.151543 254.656878 
L 112.476279 245.499131 
L 112.719831 253.307787 
L 112.801015 253.307787 
L 113.044567 258.038475 
L 113.125751 258.038475 
L 113.450486 249.776781 
L 113.694038 259.860075 
L 113.775222 259.860075 
L 114.099958 265.328649 
L 114.424693 261.549635 
L 114.587061 265.807237 
L 114.749429 265.341496 
L 114.911797 261.079142 
L 115.074165 266.476223 
L 115.236533 263.132215 
L 115.480085 267.88514 
L 115.561268 267.88514 
L 115.723636 259.815716 
L 115.886004 256.260053 
L 116.048372 255.822051 
L 116.21074 250.972055 
L 116.373108 251.747675 
L 116.535476 256.036472 
L 116.697844 252.53162 
L 116.860211 258.338906 
L 117.022579 261.289501 
L 117.184947 260.310262 
L 117.509683 263.82122 
L 117.753235 257.102528 
L 117.834419 257.102528 
L 118.07797 250.760888 
L 118.159154 250.760888 
L 118.321522 250.996711 
L 118.48389 247.742344 
L 118.646258 245.814944 
L 118.808626 249.897616 
L 118.970994 248.121901 
L 119.133362 251.960368 
L 119.295729 253.946154 
L 119.458097 249.017377 
L 119.620465 250.627235 
L 119.782833 248.3689 
L 119.945201 255.235158 
L 120.432304 261.847042 
L 120.594672 256.638602 
L 120.75704 253.749966 
L 121.000592 250.666208 
L 121.081776 250.666208 
L 121.244144 249.41151 
L 121.406512 256.116059 
L 121.568879 258.463342 
L 121.731247 258.064658 
L 121.893615 260.828542 
L 122.055983 253.241854 
L 122.299535 257.518121 
L 122.380719 257.518121 
L 122.543087 252.593521 
L 122.705455 252.691341 
L 122.867822 246.108607 
L 123.111374 254.268909 
L 123.192558 254.268909 
L 123.354926 254.811817 
L 123.517294 258.667422 
L 123.760846 250.078134 
L 123.84203 250.078134 
L 124.004397 252.852387 
L 124.491501 260.125221 
L 124.735053 254.767113 
L 124.816237 254.767113 
L 125.140973 258.881239 
L 125.30334 263.391773 
L 125.465708 263.232801 
L 125.628076 255.990183 
L 125.790444 257.948288 
L 126.11518 260.554985 
L 126.277548 263.245187 
L 126.439915 261.660302 
L 126.602283 261.698468 
L 126.764651 259.808083 
L 126.927019 262.09721 
L 127.089387 261.944747 
L 127.332939 257.906608 
L 127.414123 257.906608 
L 127.738858 253.702698 
L 127.901226 253.924262 
L 128.063594 256.352371 
L 128.225962 255.600256 
L 128.38833 250.26882 
L 128.550698 252.554375 
L 128.875433 254.908226 
L 129.037801 262.07045 
L 129.281353 263.747481 
L 129.362537 263.747481 
L 129.524905 260.094112 
L 129.687273 259.481497 
L 129.849641 255.611288 
L 130.012008 255.625316 
L 130.174376 261.816221 
L 130.417928 269.547509 
L 130.499112 269.547509 
L 130.742664 260.771221 
L 130.823848 260.771221 
L 130.986216 263.438696 
L 131.148584 260.327487 
L 131.310951 264.996302 
L 131.473319 260.971931 
L 131.635687 259.748861 
L 131.798055 259.171502 
L 131.960423 249.524366 
L 132.122791 256.135646 
L 132.285159 250.076924 
L 132.447526 250.868819 
L 132.609894 256.121474 
L 132.853446 253.262074 
L 132.93463 253.262074 
L 133.096998 250.438018 
L 133.259366 254.374593 
L 133.421734 254.298635 
L 133.584101 257.756651 
L 133.746469 258.197476 
L 133.908837 255.264798 
L 134.071205 257.425399 
L 134.395941 254.622888 
L 134.558309 258.251974 
L 134.720677 258.80724 
L 135.045412 268.855018 
L 135.532516 257.524918 
L 135.776068 247.035393 
L 135.857252 247.035393 
L 136.100803 250.885266 
L 136.181987 250.885266 
L 136.344355 245.402636 
L 136.506723 247.787941 
L 136.669091 243.541487 
L 136.831459 245.157509 
L 136.993827 253.748324 
L 137.237378 252.352052 
L 137.318562 252.352052 
L 137.48093 253.494153 
L 137.643298 253.862938 
L 137.968034 263.272321 
L 138.130402 255.859986 
L 138.29277 253.292694 
L 138.455137 251.705476 
L 138.617505 251.074368 
L 138.779873 257.941576 
L 138.942241 258.03113 
L 139.104609 262.078948 
L 139.266977 256.882692 
L 139.429345 255.912871 
L 139.591712 259.27733 
L 139.75408 256.147657 
L 139.916448 256.410441 
L 140.078816 255.246363 
L 140.241184 248.022986 
L 140.403552 246.594626 
L 140.56592 249.160334 
L 140.728288 249.496772 
L 140.890655 254.43563 
L 141.053023 255.298557 
L 141.215391 255.085086 
L 141.377759 253.09449 
L 141.621311 259.29902 
L 141.702495 259.29902 
L 141.946047 263.535249 
L 142.02723 263.535249 
L 142.189598 257.470708 
L 142.43315 251.732927 
L 142.514334 251.732927 
L 142.83907 253.580077 
L 143.082622 260.957183 
L 143.163805 260.957183 
L 143.326173 263.086214 
L 143.488541 263.916448 
L 143.650909 261.229329 
L 143.813277 259.834209 
L 143.975645 253.812011 
L 144.219197 258.897917 
L 144.300381 258.897917 
L 144.543932 261.619861 
L 144.625116 261.619861 
L 144.787484 261.442972 
L 144.949852 254.808908 
L 145.274588 253.269506 
L 145.436956 251.131949 
L 145.599323 255.19319 
L 145.761691 254.546556 
L 146.005243 255.185787 
L 146.086427 255.185787 
L 146.492347 248.094854 
L 146.573531 248.094854 
L 146.735899 242.592636 
L 146.898266 245.066026 
L 147.38537 252.414299 
L 147.547738 247.100722 
L 147.710106 247.083871 
L 147.872474 244.470031 
L 148.197209 250.544797 
L 148.359577 258.725608 
L 148.521945 258.6417 
L 148.684313 261.645036 
L 148.846681 260.373632 
L 149.009049 254.67923 
L 149.171416 260.043589 
L 149.333784 254.546758 
L 149.496152 256.025353 
L 149.739704 251.634761 
L 149.820888 251.634761 
L 149.983256 251.89406 
L 150.145624 249.63898 
L 150.307992 249.026854 
L 150.551543 257.61234 
L 150.632727 257.61234 
L 150.795095 260.136714 
L 150.957463 259.462745 
L 151.119831 251.295155 
L 151.282199 248.168968 
L 151.444567 248.221335 
L 151.606934 257.449623 
L 151.769302 257.794587 
L 151.93167 261.012747 
L 152.418774 249.282437 
L 152.581142 247.304889 
L 152.74351 248.999576 
L 152.905877 247.790562 
L 153.068245 249.192682 
L 153.230613 246.81596 
L 153.392981 247.255086 
L 153.555349 246.767569 
L 153.717717 250.993255 
L 153.880085 250.05342 
L 154.042452 245.891737 
L 154.286004 240.234897 
L 154.367188 240.234897 
L 154.61074 249.566623 
L 154.691924 249.566623 
L 154.854292 255.56353 
L 155.01666 255.504279 
L 155.179027 255.9517 
L 155.341395 250.398124 
L 155.503763 247.482584 
L 155.666131 246.016605 
L 155.828499 240.060859 
L 155.990867 245.821973 
L 156.153235 246.498678 
L 156.315603 246.141646 
L 156.47797 251.496931 
L 156.640338 249.586815 
L 156.88389 255.471528 
L 156.965074 255.471528 
L 157.127442 254.228093 
L 157.28981 255.734139 
L 157.533362 252.776746 
L 157.614545 252.776746 
L 157.776913 253.413471 
L 157.939281 251.401847 
L 158.101649 251.364488 
L 158.264017 254.303878 
L 158.588753 252.65185 
L 158.751121 254.245088 
L 158.994672 252.457045 
L 159.075856 252.457045 
L 159.238224 254.951779 
L 159.481776 258.65135 
L 159.56296 258.65135 
L 159.725328 259.358905 
L 159.887696 258.909438 
L 160.050063 259.560709 
L 160.212431 257.938437 
L 160.374799 260.282638 
L 160.537167 260.936357 
L 160.699535 256.412659 
L 161.349006 265.924212 
L 161.511374 261.243529 
L 161.673742 265.493901 
L 161.83611 254.285328 
L 162.079662 161.290016 
L 162.160846 161.290016 
L 162.404397 68.54372 
L 162.485581 68.54372 
L 162.647949 74.229307 
L 162.810317 67.151711 
L 163.053869 62.04472 
L 163.135053 62.04472 
L 163.540973 58.438563 
L 163.622156 58.438563 
L 163.784524 59.65495 
L 163.946892 67.17559 
L 164.10926 65.309026 
L 164.271628 67.01944 
L 164.596364 57.627916 
L 164.758732 59.000338 
L 164.921099 58.849546 
L 165.245835 54.830878 
L 165.408203 55.218962 
L 165.570571 54.029247 
L 165.732939 56.218509 
L 165.895307 55.552202 
L 166.057674 56.027477 
L 166.38241 53.568 
L 166.544778 54.114826 
L 166.707146 53.709286 
L 166.950698 55.644578 
L 167.031882 55.644578 
L 167.194249 56.022321 
L 167.356617 59.801565 
L 167.600169 59.307567 
L 167.681353 59.307567 
L 167.843721 61.934226 
L 168.006089 57.489164 
L 168.330825 61.960813 
L 168.493192 59.272771 
L 168.65556 62.228119 
L 168.817928 63.557132 
L 168.980296 59.530054 
L 169.142664 60.760901 
L 169.305032 58.720818 
L 169.4674 58.024612 
L 169.710951 60.111531 
L 169.792135 60.111531 
L 169.954503 58.933281 
L 170.116871 59.623294 
L 170.279239 65.21495 
L 170.441607 61.222062 
L 170.603975 63.826311 
L 170.766342 63.027474 
L 170.92871 56.620448 
L 171.091078 58.160368 
L 171.33463 55.696714 
L 171.415814 55.696714 
L 171.578182 56.277069 
L 171.821734 60.213269 
L 172.065285 60.227182 
L 172.227653 62.599525 
L 172.390021 59.805684 
L 172.552389 58.963468 
L 172.714757 61.391347 
L 172.877125 59.565426 
L 173.039493 63.645822 
L 173.20186 64.3051 
L 173.364228 61.93172 
L 173.526596 63.434425 
L 173.770148 59.415642 
L 174.0137 59.323151 
L 174.176068 58.729201 
L 174.338436 59.934556 
L 174.500803 59.768527 
L 174.663171 59.936745 
L 174.906723 57.570019 
L 175.150275 57.585804 
L 175.637378 55.848918 
L 175.799746 55.819134 
L 175.962114 56.29968 
L 176.205666 65.622102 
L 176.28685 65.622102 
L 176.449218 69.400108 
L 176.611586 69.421971 
L 176.773953 69.58368 
L 177.098689 64.121788 
L 177.261057 63.975835 
L 177.423425 62.661426 
L 177.585793 62.038268 
L 177.748161 62.864469 
L 178.072896 60.968726 
L 178.235264 62.220947 
L 178.397632 61.402696 
L 178.56 61.947188 
L 178.722368 60.704099 
L 178.884736 56.139037 
L 179.128288 59.571129 
L 179.209471 59.571129 
L 179.371839 60.004666 
L 179.534207 61.731644 
L 179.696575 61.554784 
L 179.858943 61.66594 
L 180.021311 61.534764 
L 180.183679 62.760715 
L 180.42723 61.013719 
L 180.508414 61.013719 
L 180.670782 60.649629 
L 180.83315 60.917137 
L 180.995518 63.610622 
L 181.157886 62.082714 
L 181.320254 62.639218 
L 181.563805 58.344573 
L 181.644989 58.344573 
L 181.807357 59.776304 
L 181.969725 60.522428 
L 182.294461 59.759684 
L 182.538013 57.670892 
L 182.619197 57.670892 
L 182.781564 57.879985 
L 182.943932 57.834301 
L 183.1063 58.146888 
L 183.268668 59.323266 
L 183.431036 59.931272 
L 183.593404 59.953538 
L 183.755772 59.16389 
L 183.91814 59.488489 
L 184.080507 62.297797 
L 184.242875 61.969281 
L 184.567611 62.857297 
L 184.729979 66.299384 
L 184.892347 65.093279 
L 185.054715 66.734678 
L 185.37945 57.81866 
L 185.541818 58.689508 
L 185.704186 59.17282 
L 185.866554 63.299793 
L 186.028922 62.259343 
L 186.19129 63.178871 
L 186.516025 60.019443 
L 186.678393 61.00165 
L 186.840761 64.617687 
L 187.003129 66.281755 
L 187.165497 67.270674 
L 187.490233 63.719014 
L 187.814968 62.172497 
L 187.977336 67.77628 
L 188.139704 65.848506 
L 188.302072 68.721242 
L 188.46444 68.755462 
L 188.626808 64.870851 
L 188.789175 65.629764 
L 188.951543 61.833669 
L 189.195095 66.629455 
L 189.276279 66.629455 
L 189.438647 68.415453 
L 189.601015 67.360659 
L 189.763383 66.822446 
L 189.925751 68.809643 
L 190.088118 65.825347 
L 190.250486 67.750125 
L 190.412854 66.897971 
L 190.575222 61.714303 
L 190.73759 63.345505 
L 190.899958 63.255405 
L 191.062326 61.052375 
L 191.224693 61.719805 
L 191.387061 61.469263 
L 191.549429 62.999966 
L 191.711797 62.440351 
L 192.036533 70.401787 
L 192.198901 66.441477 
L 192.361268 68.202098 
L 192.523636 68.757133 
L 192.686004 61.41704 
L 192.929556 68.022069 
L 193.01074 68.022069 
L 193.173108 64.815604 
L 193.335476 66.105299 
L 193.497844 65.111858 
L 193.660211 64.601903 
L 193.822579 66.636253 
L 193.984947 67.048792 
L 194.147315 66.226796 
L 194.309683 62.171057 
L 194.472051 60.993008 
L 194.715603 60.798232 
L 194.796786 60.798232 
L 194.959154 61.059403 
L 195.121522 60.672558 
L 195.365074 61.903492 
L 195.446258 61.903492 
L 195.852178 64.477726 
L 195.933362 64.477726 
L 196.095729 68.559966 
L 196.258097 67.23438 
L 196.420465 68.595856 
L 196.745201 62.623548 
L 196.907569 63.436729 
L 197.069937 62.903586 
L 197.232304 64.570045 
L 197.719408 66.881841 
L 197.881776 73.861444 
L 198.044144 71.216495 
L 198.206512 71.762427 
L 198.368879 70.715641 
L 198.531247 62.220687 
L 198.774799 67.294178 
L 198.855983 67.294178 
L 199.018351 65.722889 
L 199.180719 66.005808 
L 199.343087 65.114537 
L 199.505455 61.293411 
L 199.667822 64.043958 
L 199.911374 66.181804 
L 199.992558 66.181804 
L 200.154926 68.442155 
L 200.317294 66.82308 
L 200.479662 71.067028 
L 200.64203 70.915401 
L 200.804397 70.261163 
L 200.966765 72.159757 
L 201.129133 67.061005 
L 201.372685 65.786058 
L 201.453869 65.786058 
L 201.616237 63.154445 
L 201.778605 62.764805 
L 201.940973 62.643279 
L 202.184524 64.99762 
L 202.265708 64.99762 
L 202.428076 65.136918 
L 202.671628 64.224534 
L 202.752812 64.224534 
L 202.91518 65.65975 
L 203.077548 66.144675 
L 203.239915 69.420934 
L 203.402283 70.616467 
L 203.564651 69.568557 
L 203.727019 69.35212 
L 203.970571 64.98339 
L 204.051755 64.98339 
L 204.214123 63.591295 
L 204.37649 63.626609 
L 204.538858 62.7765 
L 204.701226 62.788915 
L 204.863594 63.143758 
L 205.025962 64.522402 
L 205.18833 64.217131 
L 205.513066 64.591619 
L 205.756617 68.567944 
L 205.837801 68.567944 
L 206.000169 71.178905 
L 206.243721 69.609546 
L 206.324905 69.609546 
L 206.487273 69.095644 
L 206.649641 67.232392 
L 206.974376 66.485922 
L 207.136744 70.788718 
L 207.299112 70.850619 
L 207.46148 71.70983 
L 207.8674 68.064383 
L 207.948584 68.064383 
L 208.110951 68.96369 
L 208.354503 66.779844 
L 208.435687 66.779844 
L 208.598055 67.772161 
L 208.760423 66.923723 
L 208.922791 68.976307 
L 209.085159 67.153065 
L 209.409894 67.329925 
L 209.572262 66.272308 
L 209.73463 66.140498 
L 209.896998 65.544993 
L 210.059366 65.510456 
L 210.221734 63.972437 
L 210.465285 72.039239 
L 210.546469 72.039239 
L 210.708837 71.621458 
L 210.871205 77.247362 
L 211.033573 77.146258 
L 211.195941 74.490536 
L 211.358309 74.211304 
L 211.520677 69.43957 
L 211.683044 66.711174 
L 211.845412 66.36454 
L 212.00778 66.231059 
L 212.170148 66.754899 
L 212.332516 68.685496 
L 212.494884 66.337752 
L 212.657252 67.397471 
L 212.819619 65.969572 
L 212.981987 65.610984 
L 213.144355 70.649275 
L 213.306723 69.163162 
L 213.469091 71.117839 
L 213.631459 71.176283 
L 213.793827 66.634323 
L 213.956195 67.800303 
L 214.199746 65.013491 
L 214.28093 65.013491 
L 214.443298 65.412722 
L 214.605666 65.363553 
L 214.768034 65.402352 
L 214.930402 64.991599 
L 215.255137 67.196703 
L 215.417505 66.857789 
L 215.579873 67.301984 
L 215.904609 65.02219 
L 216.148161 66.366297 
L 216.229345 66.366297 
L 216.391712 66.16213 
L 216.55408 66.476532 
L 216.878816 65.381527 
L 217.041184 65.551848 
L 217.36592 69.565389 
L 217.528288 69.321385 
L 217.690655 69.596526 
L 217.934207 66.219192 
L 218.340127 66.316091 
L 218.583679 68.573648 
L 218.664863 68.573648 
L 218.82723 67.998161 
L 218.989598 68.947848 
L 219.151966 69.186033 
L 219.314334 67.498806 
L 219.63907 68.484066 
L 219.801438 71.998193 
L 219.963805 71.002736 
L 220.126173 72.148236 
L 220.450909 65.827796 
L 220.613277 67.677077 
L 220.775645 67.961925 
L 220.938013 69.923804 
L 221.100381 71.066769 
L 221.262748 70.133357 
L 221.425116 70.167778 
L 221.749852 67.983039 
L 221.91222 68.304844 
L 222.074588 67.705507 
L 222.236956 67.582137 
L 222.480507 67.878594 
L 222.561691 67.878594 
L 222.805243 66.850559 
L 222.886427 66.850559 
L 223.048795 66.548515 
L 223.211163 67.317798 
L 223.373531 70.129958 
L 223.535899 69.205793 
L 223.77945 72.609512 
L 223.860634 72.609512 
L 224.023002 71.037964 
L 224.18537 72.25294 
L 224.347738 72.268466 
L 224.510106 72.009138 
L 224.672474 73.025622 
L 224.997209 71.966565 
L 225.159577 69.705177 
L 225.403129 69.056326 
L 225.484313 69.056326 
L 225.646681 69.375653 
L 225.890233 68.136308 
L 225.971416 68.136308 
L 226.133784 69.974183 
L 226.296152 69.54367 
L 226.45852 70.060654 
L 226.620888 69.840242 
L 226.783256 70.551225 
L 226.945624 70.152858 
L 227.270359 70.749112 
L 227.432727 67.969645 
L 227.676279 72.746132 
L 227.757463 72.746132 
L 227.919831 71.152376 
L 228.163383 74.921394 
L 228.244567 74.921394 
L 228.406934 73.798708 
L 228.569302 74.660512 
L 228.73167 74.010911 
L 228.894038 71.230465 
L 229.056406 70.856207 
L 229.381142 71.208775 
L 229.462326 71.125587 
L 229.54351 71.125587 
L 229.705877 71.564338 
L 229.868245 71.163725 
L 230.030613 71.074431 
L 230.355349 68.264316 
L 230.517717 69.286993 
L 230.680085 69.024468 
L 230.923636 69.583449 
L 231.00482 69.583449 
L 231.248372 75.622901 
L 231.329556 75.622901 
L 231.491924 75.253309 
L 231.654292 75.271543 
L 231.81666 70.439895 
L 231.979027 69.978705 
L 232.141395 75.274308 
L 232.303763 74.034589 
L 232.466131 75.22076 
L 232.790867 69.562652 
L 232.953235 70.245666 
L 233.115603 69.97257 
L 233.359154 70.387845 
L 233.440338 70.387845 
L 233.602706 70.901315 
L 233.765074 75.480577 
L 233.927442 77.402734 
L 234.08981 78.031221 
L 234.252178 82.409658 
L 234.414545 77.7956 
L 234.576913 76.807402 
L 234.739281 77.312806 
L 234.901649 73.555799 
L 235.064017 73.779178 
L 235.307569 71.358127 
L 235.388753 71.358127 
L 235.632304 76.38504 
L 235.713488 76.38504 
L 235.875856 78.480774 
L 236.200592 75.933241 
L 236.36296 73.152622 
L 236.525328 72.198212 
L 236.687696 72.436425 
L 236.850063 70.865079 
L 237.012431 71.900315 
L 237.174799 72.324577 
L 237.499535 78.821675 
L 237.661903 77.694467 
L 237.824271 80.044026 
L 238.149006 75.141692 
L 238.311374 77.316177 
L 238.473742 73.552371 
L 238.63611 74.873925 
L 238.798478 73.271729 
L 238.960846 72.626766 
L 239.123214 74.198285 
L 239.285581 72.388091 
L 239.447949 73.107053 
L 239.772685 72.614005 
L 240.097421 73.6124 
L 240.340973 71.147853 
L 240.422156 71.147853 
L 240.746892 75.555296 
L 240.90926 74.997784 
L 241.233996 78.288388 
L 241.396364 76.400249 
L 241.558732 77.754265 
L 241.721099 77.776589 
L 241.883467 75.042719 
L 242.045835 75.916678 
L 242.208203 74.205256 
L 242.532939 77.327497 
L 242.695307 74.522912 
L 242.857674 77.007248 
L 243.101226 72.477472 
L 243.344778 72.560112 
L 243.507146 71.000921 
L 243.750698 74.47213 
L 243.831882 74.47213 
L 243.994249 74.307483 
L 244.156617 74.406542 
L 244.318985 73.523682 
L 244.481353 73.264326 
L 244.724905 79.051824 
L 244.806089 79.051824 
L 244.968457 79.499648 
L 245.130825 78.22931 
L 245.293192 78.483136 
L 245.45556 74.977909 
L 245.780296 74.275884 
L 245.942664 72.802992 
L 246.105032 75.876381 
L 246.2674 75.497687 
L 246.592135 79.311727 
L 246.754503 75.878195 
L 246.998055 76.81996 
L 247.079239 76.81996 
L 247.241607 75.847202 
L 247.403975 76.186347 
L 247.566342 75.903515 
L 247.809894 71.830032 
L 247.891078 71.830032 
L 248.13463 77.245922 
L 248.215814 77.245922 
L 248.378182 76.47154 
L 248.54055 79.432764 
L 248.702918 80.964014 
L 248.865285 77.081823 
L 249.027653 78.200678 
L 249.271205 72.187467 
L 249.352389 72.187467 
L 249.514757 75.552531 
L 249.758309 77.961629 
L 249.839493 77.961629 
L 250.00186 80.418485 
L 250.164228 78.28303 
L 250.40778 81.124946 
L 250.488964 81.124946 
L 250.651332 83.566794 
L 250.894884 80.073608 
L 250.976068 80.073608 
L 251.300803 72.461946 
L 251.463171 73.529357 
L 251.625539 73.018421 
L 251.787907 73.413533 
L 251.950275 73.355031 
L 252.112643 75.446991 
L 252.275011 74.471467 
L 252.518562 76.222266 
L 252.599746 76.222266 
L 252.762114 77.205279 
L 252.924482 82.061065 
L 253.08685 82.551549 
L 253.330402 79.757046 
L 253.411586 79.757046 
L 253.573953 80.250612 
L 253.736321 78.281676 
L 253.898689 79.676191 
L 254.223425 73.59601 
L 254.385793 73.549808 
L 254.791712 77.096052 
L 254.872896 77.096052 
L 255.035264 80.618101 
L 255.197632 78.631565 
L 255.36 78.59723 
L 255.522368 78.168359 
L 255.684736 76.496197 
L 255.847104 79.350153 
L 256.009471 76.299692 
L 256.253023 81.368603 
L 256.334207 81.368603 
L 256.496575 79.638688 
L 256.658943 80.798705 
L 256.821311 81.138916 
L 256.983679 78.665123 
L 257.146047 77.867985 
L 257.308414 77.954399 
L 257.551966 74.32756 
L 257.795518 74.351237 
L 258.201438 75.890351 
L 258.282622 75.890351 
L 258.444989 77.155706 
L 258.607357 77.133728 
L 258.769725 77.272048 
L 259.175645 79.828049 
L 259.256829 79.828049 
L 259.419197 83.877336 
L 259.581564 83.037568 
L 259.743932 84.354973 
L 260.149852 77.963069 
L 260.231036 77.963069 
L 260.393404 74.888989 
L 260.555772 75.873068 
L 260.71814 75.221538 
L 260.880507 76.695582 
L 261.042875 76.594248 
L 261.205243 76.942697 
L 261.367611 76.398204 
L 261.692347 84.131162 
L 261.854715 82.947323 
L 262.017082 84.765237 
L 262.341818 76.231656 
L 262.504186 76.715515 
L 262.666554 75.91976 
L 262.828922 75.589919 
L 262.99129 77.697376 
L 263.153658 76.693537 
L 263.478393 83.894763 
L 263.640761 82.87969 
L 263.803129 84.043394 
L 264.209049 77.550502 
L 264.290233 77.550502 
L 264.614968 81.41351 
L 264.777336 79.446072 
L 264.939704 81.091878 
L 265.102072 82.065011 
L 265.26444 78.591758 
L 265.426808 78.85529 
L 265.751543 75.715248 
L 265.995095 76.616283 
L 266.076279 76.616283 
L 266.238647 76.326106 
L 266.482199 80.422402 
L 266.563383 80.422402 
L 266.725751 79.512956 
L 266.888118 82.240834 
L 267.050486 82.668351 
L 267.212854 82.13878 
L 267.375222 82.881188 
L 267.53759 81.010102 
L 267.862326 79.133859 
L 268.024693 79.347416 
L 268.187061 80.480098 
L 268.349429 80.482978 
L 268.511797 81.243044 
L 268.998901 77.933631 
L 269.242452 82.799066 
L 269.486004 82.766431 
L 269.648372 82.162399 
L 269.81074 79.260887 
L 269.973108 79.33045 
L 270.135476 80.3003 
L 270.297844 80.163104 
L 270.460211 80.558878 
L 270.622579 83.985324 
L 270.784947 85.502374 
L 270.947315 86.205234 
L 271.109683 89.132958 
L 271.272051 84.794358 
L 271.434419 83.865872 
L 271.596786 87.27999 
L 271.759154 82.404962 
L 271.921522 82.299826 
L 272.08389 82.570733 
L 272.246258 78.572689 
L 272.408626 79.870939 
L 272.652178 78.411239 
L 272.733362 78.411239 
L 272.895729 79.228021 
L 273.301649 78.173343 
L 273.382833 78.173343 
L 273.545201 77.023321 
L 274.032304 84.656643 
L 274.194672 86.099665 
L 274.35704 85.864908 
L 274.600592 81.526193 
L 274.681776 81.526193 
L 274.844144 80.516536 
L 275.006512 80.381327 
L 275.168879 82.75537 
L 275.412431 83.753822 
L 275.493615 83.753822 
L 275.818351 78.951267 
L 275.980719 81.463341 
L 276.143087 82.242793 
L 276.305455 82.520382 
L 276.467822 82.266067 
L 276.711374 79.439677 
L 276.792558 79.439677 
L 277.03611 83.353208 
L 277.117294 83.353208 
L 277.279662 81.528267 
L 277.44203 83.920169 
L 277.766765 80.638033 
L 277.929133 81.138743 
L 278.091501 79.945428 
L 278.253869 79.609538 
L 278.416237 80.218264 
L 278.578605 82.986699 
L 278.822156 82.684712 
L 278.90334 82.684712 
L 279.390444 79.207109 
L 279.71518 82.894121 
L 279.877548 82.101593 
L 280.121099 88.891461 
L 280.202283 88.891461 
L 280.364651 87.692039 
L 280.527019 87.420902 
L 280.770571 80.380377 
L 280.851755 80.380377 
L 281.014123 79.231219 
L 281.17649 79.787752 
L 281.338858 79.951966 
L 281.501226 82.023014 
L 281.663594 82.741428 
L 281.825962 82.248294 
L 281.98833 82.029783 
L 282.313066 86.451686 
L 282.475433 85.843449 
L 282.637801 86.596515 
L 282.881353 82.441429 
L 282.962537 82.441429 
L 283.124905 83.199795 
L 283.287273 83.018154 
L 283.530825 80.777937 
L 283.612008 80.777937 
L 283.774376 80.351774 
L 283.936744 81.016468 
L 284.099112 83.908503 
L 284.26148 83.217741 
L 284.423848 85.925715 
L 284.6674 82.458136 
L 284.748584 82.458136 
L 284.910951 87.208526 
L 285.073319 84.109616 
L 285.235687 85.741279 
L 285.479239 80.434673 
L 285.560423 80.434673 
L 285.722791 84.853033 
L 285.885159 83.296089 
L 286.047526 85.124141 
L 286.209894 84.393427 
L 286.372262 81.856552 
L 286.53463 85.794452 
L 286.696998 86.347241 
L 286.859366 84.94731 
L 287.184101 88.781024 
L 287.346469 87.371963 
L 287.508837 89.146755 
L 287.671205 88.972718 
L 287.833573 82.613651 
L 288.158309 84.482693 
L 288.320677 83.278115 
L 288.483044 84.073927 
L 288.726596 81.733586 
L 288.80778 81.733586 
L 288.970148 83.401687 
L 289.132516 83.040189 
L 289.294884 84.965832 
L 289.538436 82.951587 
L 289.619619 82.951587 
L 289.781987 85.134165 
L 289.944355 83.197059 
L 290.106723 83.694658 
L 290.350275 80.876305 
L 290.431459 80.876305 
L 290.675011 81.147413 
L 290.756195 81.147413 
L 290.918562 80.86291 
L 291.243298 84.011997 
L 291.405666 83.386161 
L 291.568034 84.070816 
L 291.730402 83.303261 
L 291.89277 83.050905 
L 292.217505 85.628106 
L 292.379873 84.292323 
L 292.542241 84.539063 
L 292.704609 88.515244 
L 292.866977 85.686752 
L 293.029345 88.0597 
L 293.272896 82.712163 
L 293.35408 82.712163 
L 293.516448 87.37323 
L 293.678816 86.612386 
L 293.841184 87.203715 
L 294.003552 86.822285 
L 294.16592 87.684636 
L 294.328288 87.681583 
L 294.490655 88.292988 
L 294.896575 82.226835 
L 295.140127 82.226979 
L 295.302495 82.672269 
L 295.464863 82.428669 
L 295.62723 83.197549 
L 295.789598 81.95155 
L 296.114334 91.084668 
L 296.276702 89.85843 
L 296.43907 93.539566 
L 296.682622 85.667194 
L 296.763805 85.667194 
L 296.926173 87.748841 
L 297.088541 86.839338 
L 297.250909 90.895595 
L 297.413277 89.61169 
L 297.575645 91.860404 
L 297.738013 91.751552 
L 297.900381 89.367773 
L 298.062748 89.657806 
L 298.225116 87.221171 
L 298.387484 87.386451 
L 298.549852 87.181017 
L 298.71222 88.292816 
L 298.874588 88.625335 
L 299.199323 93.125299 
L 299.361691 93.029639 
L 299.524059 93.586143 
L 299.686427 92.827373 
L 299.848795 94.355282 
L 300.011163 94.359171 
L 300.173531 95.246409 
L 300.335899 95.096366 
L 300.498266 91.624869 
L 300.660634 92.056822 
L 300.823002 90.486657 
L 300.98537 91.350074 
L 301.147738 96.031448 
L 301.310106 98.145472 
L 301.472474 98.467277 
L 301.634841 97.77902 
L 301.797209 93.484808 
L 301.959577 91.878493 
L 302.203129 92.616149 
L 302.284313 92.616149 
L 302.527865 93.335255 
L 302.771416 93.404011 
L 303.096152 95.138363 
L 303.25852 94.787667 
L 303.420888 95.311363 
L 303.66444 94.26907 
L 303.745624 94.26907 
L 304.070359 92.383639 
L 304.232727 95.443028 
L 304.395095 94.938661 
L 304.557463 100.481291 
L 304.719831 93.58476 
L 304.882199 104.549733 
L 305.125751 193.407587 
L 305.206934 193.407587 
L 305.369302 249.529407 
L 305.53167 280.10075 
L 305.775222 281.828908 
L 305.856406 281.828908 
L 306.018774 282.332671 
L 306.181142 289.657641 
L 306.34351 283.796806 
L 306.505877 285.359655 
L 306.830613 277.261427 
L 306.992981 276.082312 
L 307.155349 282.055456 
L 307.317717 282.125076 
L 307.480085 283.84321 
L 307.80482 277.390817 
L 307.967188 281.781092 
L 308.129556 280.340893 
L 308.291924 289.773464 
L 308.454292 291.496985 
L 308.61666 291.57467 
L 308.779027 295.488 
L 308.941395 289.480291 
L 309.103763 291.762735 
L 309.347315 283.692764 
L 309.753235 283.622251 
L 309.915603 282.846342 
L 310.07797 282.804806 
L 310.240338 275.371156 
L 310.402706 273.163057 
L 310.565074 278.405083 
L 310.970994 290.756736 
L 311.052178 290.756736 
L 311.214545 289.588452 
L 311.376913 285.507653 
L 311.620465 287.96062 
L 311.701649 287.96062 
L 311.945201 286.029592 
L 312.026385 286.029592 
L 312.188753 281.032519 
L 312.351121 281.072471 
L 312.513488 279.562911 
L 312.675856 283.949182 
L 312.838224 285.204687 
L 313.000592 282.584826 
L 313.16296 283.858967 
L 313.325328 283.511267 
L 313.487696 283.924526 
L 313.650063 281.914947 
L 313.812431 282.917115 
L 313.974799 277.500476 
L 314.137167 275.825577 
L 314.299535 278.213014 
L 314.461903 275.404224 
L 314.624271 275.044974 
L 314.786638 275.539289 
L 314.949006 274.677053 
L 315.111374 274.394768 
L 315.273742 278.77067 
L 315.43611 279.438878 
L 315.598478 279.447203 
L 315.760846 281.917453 
L 315.923214 283.071162 
L 316.085581 282.652488 
L 316.247949 283.721857 
L 316.572685 279.385446 
L 316.735053 281.530406 
L 316.897421 281.649859 
L 317.059789 279.523276 
L 317.222156 283.071508 
L 317.384524 283.76227 
L 317.546892 283.157028 
L 317.70926 285.277879 
L 317.871628 282.437116 
L 318.033996 282.308849 
L 318.196364 279.422575 
L 318.358732 277.845986 
L 318.683467 275.170389 
L 318.845835 277.761013 
L 319.008203 278.907377 
L 319.170571 283.217057 
L 319.495307 279.807807 
L 319.657674 282.091836 
L 319.820042 281.812345 
L 320.063594 285.776572 
L 320.144778 285.776572 
L 320.307146 286.295688 
L 320.469514 283.40564 
L 320.794249 287.568965 
L 320.956617 282.636011 
L 321.118985 285.295968 
L 321.443721 280.631157 
L 321.606089 283.975942 
L 321.768457 282.691892 
L 321.930825 282.005249 
L 322.093192 281.804453 
L 322.417928 277.885132 
L 322.580296 282.128101 
L 322.742664 283.472064 
L 322.905032 279.784216 
L 323.0674 282.162292 
L 323.229767 279.506627 
L 323.392135 278.988634 
L 323.554503 285.310313 
L 323.716871 286.712605 
L 323.879239 285.946548 
L 324.041607 289.476114 
L 324.203975 288.532621 
L 324.366342 288.078978 
L 324.52871 290.759559 
L 324.691078 289.721702 
L 324.853446 289.651793 
L 325.096998 288.111527 
L 325.178182 288.111527 
L 325.421734 279.235288 
L 325.502918 279.235288 
L 325.665285 282.264231 
L 325.827653 277.437999 
L 326.071205 285.92529 
L 326.152389 285.92529 
L 326.314757 286.757195 
L 326.477125 292.295533 
L 326.639493 290.415661 
L 326.80186 290.347625 
L 326.964228 285.933384 
L 327.126596 289.71741 
L 327.370148 280.615228 
L 327.451332 280.615228 
L 327.6137 279.907212 
L 327.776068 269.853845 
L 328.019619 277.721493 
L 328.100803 277.721493 
L 328.263171 274.748114 
L 328.425539 279.502364 
L 328.587907 280.337696 
L 328.750275 277.413803 
L 328.912643 281.546594 
L 329.156195 275.009976 
L 329.237378 275.009976 
L 329.399746 274.634768 
L 329.643298 267.885054 
L 329.724482 267.885054 
L 330.211586 273.852897 
L 330.373953 280.410773 
L 330.536321 284.19454 
L 330.698689 285.885626 
L 331.023425 282.318844 
L 331.185793 277.660744 
L 331.348161 279.94339 
L 331.510529 279.769007 
L 331.672896 279.978935 
L 331.835264 280.749918 
L 331.997632 278.486859 
L 332.16 282.879266 
L 332.403552 288.298786 
L 332.484736 288.298786 
L 332.647104 288.445574 
L 332.809471 285.676246 
L 332.971839 284.322461 
L 333.296575 283.15337 
L 333.458943 284.879397 
L 333.621311 284.711985 
L 333.783679 286.562447 
L 333.946047 286.095727 
L 334.108414 282.854609 
L 334.43315 278.316106 
L 334.595518 273.826224 
L 334.83907 279.326627 
L 334.920254 279.326627 
L 335.082622 279.051083 
L 335.244989 283.147667 
L 335.407357 279.66655 
L 335.569725 278.307781 
L 335.732093 281.440219 
L 335.894461 279.480674 
L 336.056829 279.84606 
L 336.219197 282.897557 
L 336.381564 276.028534 
L 336.543932 275.351425 
L 336.7063 277.219775 
L 337.031036 281.717232 
L 337.193404 287.950798 
L 337.436956 277.729846 
L 337.51814 277.729846 
L 337.680507 278.165141 
L 337.842875 273.224785 
L 338.005243 284.771207 
L 338.167611 284.773713 
L 338.411163 288.567273 
L 338.492347 288.567273 
L 338.654715 276.845172 
L 338.817082 279.28486 
L 338.97945 279.047972 
L 339.141818 276.19779 
L 339.304186 280.31857 
L 339.547738 275.643878 
L 339.628922 275.643878 
L 339.79129 280.33254 
L 339.953658 282.886842 
L 340.116025 283.359265 
L 340.278393 285.515171 
L 340.440761 286.426662 
L 340.684313 278.218602 
L 340.765497 278.218602 
L 341.009049 274.462286 
L 341.090233 274.462286 
L 341.414968 276.364914 
L 341.577336 278.60248 
L 341.739704 274.354471 
L 341.902072 276.710165 
L 342.307992 271.381696 
L 342.389175 271.381696 
L 342.632727 279.018994 
L 342.713911 279.018994 
L 342.876279 282.469204 
L 343.038647 282.48666 
L 343.282199 276.187938 
L 343.363383 276.187938 
L 343.525751 272.155963 
L 343.688118 278.260657 
L 344.175222 288.924997 
L 344.33759 285.706692 
L 344.499958 284.783132 
L 344.662326 280.992308 
L 344.987061 279.598398 
L 345.149429 272.205132 
L 345.311797 276.827976 
L 345.474165 274.128816 
L 345.636533 276.140526 
L 345.798901 285.175277 
L 345.961268 279.140434 
L 346.123636 279.704197 
L 346.367188 275.100797 
L 346.448372 275.100797 
L 346.691924 284.416306 
L 346.773108 284.416306 
L 347.01666 283.377326 
L 347.097844 283.377326 
L 347.260211 287.144241 
L 347.422579 280.634728 
L 347.584947 287.284837 
L 347.747315 289.389269 
L 347.909683 281.091079 
L 348.072051 283.98176 
L 348.234419 278.664785 
L 348.47797 274.028259 
L 348.559154 274.028259 
L 348.802706 264.903263 
L 348.88389 264.903263 
L 349.046258 264.082218 
L 349.208626 270.055851 
L 349.452178 274.261202 
L 349.533362 274.261202 
L 349.695729 273.151218 
L 349.858097 275.976599 
L 350.020465 275.973978 
L 350.264017 285.304062 
L 350.345201 285.304062 
L 350.507569 280.468324 
L 350.994672 271.739823 
L 351.15704 272.2664 
L 351.644144 285.428873 
L 351.806512 285.526722 
L 352.212431 276.395101 
L 352.293615 276.395101 
L 352.455983 277.432094 
L 352.618351 281.892047 
L 352.780719 279.993827 
L 352.943087 282.793947 
L 353.105455 283.738535 
L 353.267822 279.291169 
L 353.43019 285.798032 
L 353.673742 276.788715 
L 353.754926 276.788715 
L 353.917294 278.776114 
L 354.079662 275.884598 
L 354.24203 275.93515 
L 354.404397 278.620483 
L 354.566765 278.617459 
L 354.729133 278.283556 
L 354.972685 280.041268 
L 355.053869 280.041268 
L 355.459789 284.71933 
L 355.540973 284.71933 
L 355.70334 285.754969 
L 355.865708 284.570237 
L 356.028076 278.561348 
L 356.51518 273.501453 
L 356.677548 281.463003 
L 356.921099 284.183594 
L 357.002283 284.183594 
L 357.164651 286.729225 
L 357.408203 281.97391 
L 357.489387 281.97391 
L 357.651755 279.646041 
L 357.814123 283.267667 
L 358.301226 274.389353 
L 358.463594 270.070484 
L 358.707146 274.425503 
L 358.78833 274.425503 
L 358.950698 278.001157 
L 359.113066 279.545398 
L 359.275433 275.827622 
L 359.518985 279.662603 
L 359.600169 279.662603 
L 359.843721 286.560632 
L 359.924905 286.560632 
L 360.087273 286.994199 
L 360.249641 286.243321 
L 360.65556 270.586806 
L 360.736744 270.586806 
L 360.899112 267.71237 
L 361.06148 267.900349 
L 361.223848 277.160784 
L 361.386216 280.84503 
L 361.710951 277.004807 
L 361.954503 266.645795 
L 362.035687 266.645795 
L 362.198055 268.726435 
L 362.360423 268.568989 
L 362.522791 271.203367 
L 362.847526 273.062212 
L 363.009894 271.985469 
L 363.33463 277.927071 
L 363.659366 285.729506 
L 363.821734 279.384755 
L 363.984101 282.525344 
L 364.146469 280.325454 
L 364.308837 280.521094 
L 364.471205 283.152103 
L 364.633573 278.962249 
L 364.795941 278.424324 
L 364.958309 274.894499 
L 365.20186 278.362769 
L 365.283044 278.362769 
L 365.445412 277.630125 
L 365.60778 280.088162 
L 365.770148 276.004914 
L 366.094884 280.667306 
L 366.257252 274.277563 
L 366.419619 279.400885 
L 366.581987 275.484502 
L 366.744355 273.337324 
L 366.906723 275.111858 
L 367.069091 273.437391 
L 367.231459 275.454488 
L 367.393827 272.461983 
L 367.556195 279.922824 
L 367.718562 273.530776 
L 368.043298 278.39719 
L 368.205666 268.371591 
L 368.368034 277.098681 
L 368.530402 273.207905 
L 368.69277 272.390374 
L 368.855137 278.783315 
L 369.017505 277.000054 
L 369.179873 277.161014 
L 369.423425 273.689489 
L 369.504609 273.689489 
L 369.666977 272.990633 
L 369.829345 276.47175 
L 369.991712 277.270961 
L 370.15408 277.655934 
L 370.56 272.901425 
L 370.641184 272.901425 
L 370.803552 268.499656 
L 370.96592 266.76303 
L 371.128288 268.336507 
L 371.290655 268.388788 
L 371.615391 275.031608 
L 371.777759 271.052547 
L 372.021311 274.911983 
L 372.102495 274.911983 
L 372.264863 271.778969 
L 372.42723 277.67699 
L 372.589598 276.644952 
L 372.751966 279.890764 
L 372.914334 281.307488 
L 373.076702 276.697952 
L 373.23907 278.550603 
L 373.563805 274.881364 
L 373.726173 275.042525 
L 373.888541 273.514386 
L 374.050909 267.125362 
L 374.213277 274.443333 
L 374.375645 271.351394 
L 374.538013 271.225316 
L 374.700381 275.388295 
L 374.862748 268.877572 
L 375.025116 277.762828 
L 375.187484 272.659639 
L 375.349852 272.662001 
L 375.51222 276.744673 
L 375.674588 276.381534 
L 375.836956 283.933081 
L 375.999323 282.702031 
L 376.161691 283.583336 
L 376.567611 272.509452 
L 376.648795 272.509452 
L 376.811163 267.6225 
L 376.973531 264.604416 
L 377.135899 268.261702 
L 377.298266 266.600601 
L 377.460634 268.738705 
L 377.623002 268.246724 
L 377.866554 279.375451 
L 377.947738 279.375451 
L 378.19129 282.422166 
L 378.272474 282.422166 
L 378.434841 279.230247 
L 378.597209 278.988289 
L 378.840761 275.216015 
L 378.921945 275.216015 
L 379.084313 272.917671 
L 379.246681 275.599058 
L 379.409049 270.98428 
L 379.571416 271.312047 
L 379.733784 273.375577 
L 379.896152 268.921902 
L 380.05852 269.14822 
L 380.220888 270.155486 
L 380.46444 265.844942 
L 380.545624 265.844942 
L 380.707992 271.970606 
L 380.870359 271.479113 
L 381.032727 268.874231 
L 381.195095 270.523321 
L 381.357463 268.769008 
L 381.601015 280.138541 
L 381.682199 280.138541 
L 381.844567 280.381997 
L 382.088118 277.056252 
L 382.169302 277.056252 
L 382.33167 273.907251 
L 382.494038 272.199458 
L 382.656406 275.165002 
L 382.818774 274.276871 
L 383.062326 281.171876 
L 383.14351 281.171876 
L 383.305877 280.513922 
L 383.468245 277.677134 
L 383.630613 278.116519 
L 383.955349 274.688863 
L 384.117717 276.878585 
L 384.280085 273.715557 
L 384.442452 275.577512 
L 384.60482 274.127606 
L 384.767188 279.252484 
L 384.929556 281.407382 
L 385.091924 278.171881 
L 385.254292 279.94869 
L 385.41666 276.768033 
L 385.660211 274.670399 
L 385.741395 274.670399 
L 385.903763 278.653522 
L 386.066131 273.853041 
L 386.228499 275.558242 
L 386.390867 272.938496 
L 386.715603 282.464509 
L 386.87797 277.960312 
L 387.040338 281.411645 
L 387.202706 276.09827 
L 387.365074 274.644216 
L 387.527442 273.979205 
L 387.68981 275.324263 
L 387.852178 274.658762 
L 388.014545 269.706164 
L 388.176913 271.253833 
L 388.339281 271.330309 
L 388.501649 273.847741 
L 388.664017 273.84944 
L 388.826385 282.107621 
L 388.988753 282.152354 
L 389.151121 276.943597 
L 389.313488 275.084436 
L 389.475856 267.431238 
L 389.638224 264.376486 
L 389.800592 264.980978 
L 389.96296 271.317981 
L 390.206512 273.891783 
L 390.287696 273.891783 
L 390.450063 273.56609 
L 390.693615 268.663209 
L 390.774799 268.663209 
L 390.937167 269.534057 
L 391.099535 276.071078 
L 391.261903 280.140212 
L 391.424271 282.091519 
L 391.586638 282.789021 
L 391.83019 276.397837 
L 391.911374 276.397837 
L 392.073742 277.540485 
L 392.317294 274.154798 
L 392.398478 274.154798 
L 392.64203 271.915445 
L 392.723214 271.915445 
L 392.885581 266.607773 
L 393.047949 267.846888 
L 393.210317 267.966945 
L 393.372685 266.648359 
L 393.535053 269.490245 
L 393.697421 269.047058 
L 393.859789 269.523947 
L 394.10334 275.439769 
L 394.184524 275.439769 
L 394.346892 278.082414 
L 394.50926 278.685668 
L 394.91518 266.45459 
L 394.996364 266.45459 
L 395.158732 270.287527 
L 395.321099 271.694744 
L 395.483467 281.285971 
L 395.645835 281.443301 
L 395.808203 276.735916 
L 396.051755 270.318031 
L 396.132939 270.318031 
L 396.295307 274.23931 
L 396.457674 271.792968 
L 396.78241 272.700196 
L 396.944778 270.121036 
L 397.269514 277.948531 
L 397.431882 278.08806 
L 397.594249 277.457125 
L 397.756617 277.919524 
L 397.918985 281.013393 
L 398.081353 281.497857 
L 398.243721 283.751842 
L 398.406089 281.284415 
L 398.487273 272.155358 
L 398.487273 272.155358 
" clip-path="url(#p30524fd2d6)" style="fill: none; stroke: #ff0000; stroke-width: 1.5; stroke-linecap: square"/>
   </g>
   <g id="patch_3">
    <path d="M 57.6 307.584 
L 57.6 41.472 
" style="fill: none; stroke: #000000; stroke-width: 0.8; stroke-linejoin: miter; stroke-linecap: square"/>
   </g>
   <g id="patch_4">
    <path d="M 414.72 307.584 
L 414.72 41.472 
" style="fill: none; stroke: #000000; stroke-width: 0.8; stroke-linejoin: miter; stroke-linecap: square"/>
   </g>
   <g id="patch_5">
    <path d="M 57.6 307.584 
L 414.72 307.584 
" style="fill: none; stroke: #000000; stroke-width: 0.8; stroke-linejoin: miter; stroke-linecap: square"/>
   </g>
   <g id="patch_6">
    <path d="M 57.6 41.472 
L 414.72 41.472 
" style="fill: none; stroke: #000000; stroke-width: 0.8; stroke-linejoin: miter; stroke-linecap: square"/>
   </g>
   <g id="text_17">
    <!-- Output order 3 moving average FIR (channel L) -->
    <g transform="translate(94.085625 35.472) scale(0.12 -0.12)">
     <defs>
      <path id="DejaVuSans-4f" d="M 2522 4238 
Q 1834 4238 1429 3725 
Q 1025 3213 1025 2328 
Q 1025 1447 1429 934 
Q 1834 422 2522 422 
Q 3209 422 3611 934 
Q 4013 1447 4013 2328 
Q 4013 3213 3611 3725 
Q 3209 4238 2522 4238 
z
M 2522 4750 
Q 3503 4750 4090 4092 
Q 4678 3434 4678 2328 
Q 4678 1225 4090 567 
Q 3503 -91 2522 -91 
Q 1538 -91 948 565 
Q 359 1222 359 2328 
Q 359 3434 948 4092 
Q 1538 4750 2522 4750 
z
" transform="scale(0.015625)"/>
      <path id="DejaVuSans-20" transform="scale(0.015625)"/>
      <path id="DejaVuSans-6f" d="M 1959 3097 
Q 1497 3097 1228 2736 
Q 959 2375 959 1747 
Q 959 1119 1226 758 
Q 1494 397 1959 397 
Q 2419 397 2687 759 
Q 2956 1122 2956 1747 
Q 2956 2369 2687 2733 
Q 2419 3097 1959 3097 
z
M 1959 3584 
Q 2709 3584 3137 3096 
Q 3566 2609 3566 1747 
Q 3566 888 3137 398 
Q 2709 -91 1959 -91 
Q 1206 -91 779 398 
Q 353 888 353 1747 
Q 353 2609 779 3096 
Q 1206 3584 1959 3584 
z
" transform="scale(0.015625)"/>
      <path id="DejaVuSans-72" d="M 2631 2963 
Q 2534 3019 2420 3045 
Q 2306 3072 2169 3072 
Q 1681 3072 1420 2755 
Q 1159 2438 1159 1844 
L 1159 0 
L 581 0 
L 581 3500 
L 1159 3500 
L 1159 2956 
Q 1341 3275 1631 3429 
Q 1922 3584 2338 3584 
Q 2397 3584 2469 3576 
Q 2541 3569 2628 3553 
L 2631 2963 
z
" transform="scale(0.015625)"/>
      <path id="DejaVuSans-76" d="M 191 3500 
L 800 3500 
L 1894 563 
L 2988 3500 
L 3597 3500 
L 2284 0 
L 1503 0 
L 191 3500 
z
" transform="scale(0.015625)"/>
      <path id="DejaVuSans-6e" d="M 3513 2113 
L 3513 0 
L 2938 0 
L 2938 2094 
Q 2938 2591 2744 2837 
Q 2550 3084 2163 3084 
Q 1697 3084 1428 2787 
Q 1159 2491 1159 1978 
L 1159 0 
L 581 0 
L 581 3500 
L 1159 3500 
L 1159 2956 
Q 1366 3272 1645 3428 
Q 1925 3584 2291 3584 
Q 2894 3584 3203 3211 
Q 3513 2838 3513 2113 
z
" transform="scale(0.015625)"/>
      <path id="DejaVuSans-67" d="M 2906 1791 
Q 2906 2416 2648 2759 
Q 2391 3103 1925 3103 
Q 1463 3103 1205 2759 
Q 947 2416 947 1791 
Q 947 1169 1205 825 
Q 1463 481 1925 481 
Q 2391 481 2648 825 
Q 2906 1169 2906 1791 
z
M 3481 434 
Q 3481 -459 3084 -895 
Q 2688 -1331 1869 -1331 
Q 1566 -1331 1297 -1286 
Q 1028 -1241 775 -1147 
L 775 -588 
Q 1028 -725 1275 -790 
Q 1522 -856 1778 -856 
Q 2344 -856 2625 -561 
Q 2906 -266 2906 331 
L 2906 616 
Q 2728 306 2450 153 
Q 2172 0 1784 0 
Q 1141 0 747 490 
Q 353 981 353 1791 
Q 353 2603 747 3093 
Q 1141 3584 1784 3584 
Q 2172 3584 2450 3431 
Q 2728 3278 2906 2969 
L 2906 3500 
L 3481 3500 
L 3481 434 
z
" transform="scale(0.015625)"/>
      <path id="DejaVuSans-46" d="M 628 4666 
L 3309 4666 
L 3309 4134 
L 1259 4134 
L 1259 2759 
L 3109 2759 
L 3109 2228 
L 1259 2228 
L 1259 0 
L 628 0 
L 628 4666 
z
" transform="scale(0.015625)"/>
      <path id="DejaVuSans-49" d="M 628 4666 
L 1259 4666 
L 1259 0 
L 628 0 
L 628 4666 
z
" transform="scale(0.015625)"/>
      <path id="DejaVuSans-52" d="M 2841 2188 
Q 3044 2119 3236 1894 
Q 3428 1669 3622 1275 
L 4263 0 
L 3584 0 
L 2988 1197 
Q 2756 1666 2539 1819 
Q 2322 1972 1947 1972 
L 1259 1972 
L 1259 0 
L 628 0 
L 628 4666 
L 2053 4666 
Q 2853 4666 3247 4331 
Q 3641 3997 3641 3322 
Q 3641 2881 3436 2590 
Q 3231 2300 2841 2188 
z
M 1259 4147 
L 1259 2491 
L 2053 2491 
Q 2509 2491 2742 2702 
Q 2975 2913 2975 3322 
Q 2975 3731 2742 3939 
Q 2509 4147 2053 4147 
L 1259 4147 
z
" transform="scale(0.015625)"/>
      <path id="DejaVuSans-28" d="M 1984 4856 
Q 1566 4138 1362 3434 
Q 1159 2731 1159 2009 
Q 1159 1288 1364 580 
Q 1569 -128 1984 -844 
L 1484 -844 
Q 1016 -109 783 600 
Q 550 1309 550 2009 
Q 550 2706 781 3412 
Q 1013 4119 1484 4856 
L 1984 4856 
z
" transform="scale(0.015625)"/>
      <path id="DejaVuSans-63" d="M 3122 3366 
L 3122 2828 
Q 2878 2963 2633 3030 
Q 2388 3097 2138 3097 
Q 1578 3097 1268 2742 
Q 959 2388 959 1747 
Q 959 1106 1268 751 
Q 1578 397 2138 397 
Q 2388 397 2633 464 
Q 2878 531 3122 666 
L 3122 134 
Q 2881 22 2623 -34 
Q 2366 -91 2075 -91 
Q 1284 -91 818 406 
Q 353 903 353 1747 
Q 353 2603 823 3093 
Q 1294 3584 2113 3584 
Q 2378 3584 2631 3529 
Q 2884 3475 3122 3366 
z
" transform="scale(0.015625)"/>
      <path id="DejaVuSans-68" d="M 3513 2113 
L 3513 0 
L 2938 0 
L 2938 2094 
Q 2938 2591 2744 2837 
Q 2550 3084 2163 3084 
Q 1697 3084 1428 2787 
Q 1159 2491 1159 1978 
L 1159 0 
L 581 0 
L 581 4863 
L 1159 4863 
L 1159 2956 
Q 1366 3272 1645 3428 
Q 1925 3584 2291 3584 
Q 2894 3584 3203 3211 
Q 3513 2838 3513 2113 
z
" transform="scale(0.015625)"/>
      <path id="DejaVuSans-4c" d="M 628 4666 
L 1259 4666 
L 1259 531 
L 3531 531 
L 3531 0 
L 628 0 
L 628 4666 
z
" transform="scale(0.015625)"/>
      <path id="DejaVuSans-29" d="M 513 4856 
L 1013 4856 
Q 1481 4119 1714 3412 
Q 1947 2706 1947 2009 
Q 1947 1309 1714 600 
Q 1481 -109 1013 -844 
L 513 -844 
Q 928 -128 1133 580 
Q 1338 1288 1338 2009 
Q 1338 2731 1133 3434 
Q 928 4138 513 4856 
z
" transform="scale(0.015625)"/>
     </defs>
     <use xlink:href="#DejaVuSans-4f"/>
     <use xlink:href="#DejaVuSans-75" x="78.710938"/>
     <use xlink:href="#DejaVuSans-74" x="142.089844"/>
     <use xlink:href="#DejaVuSans-70" x="181.298828"/>
     <use xlink:href="#DejaVuSans-75" x="244.775391"/>
     <use xlink:href="#DejaVuSans-74" x="308.154297"/>
     <use xlink:href="#DejaVuSans-20" x="347.363281"/>
     <use xlink:href="#DejaVuSans-6f" x="379.150391"/>
     <use xlink:href="#DejaVuSans-72" x="440.332031"/>
     <use xlink:href="#DejaVuSans-64" x="479.695312"/>
     <use xlink:href="#DejaVuSans-65" x="543.171875"/>
     <use xlink:href="#DejaVuSans-72" x="604.695312"/>
     <use xlink:href="#DejaVuSans-20" x="645.808594"/>
     <use xlink:href="#DejaVuSans-33" x="677.595703"/>
     <use xlink:href="#DejaVuSans-20" x="741.21875"/>
     <use xlink:href="#DejaVuSans-6d" x="773.005859"/>
     <use xlink:href="#DejaVuSans-6f" x="870.417969"/>
     <use xlink:href="#DejaVuSans-76" x="931.599609"/>
     <use xlink:href="#DejaVuSans-69" x="990.779297"/>
     <use xlink:href="#DejaVuSans-6e" x="1018.5625"/>
     <use xlink:href="#DejaVuSans-67" x="1081.941406"/>
     <use xlink:href="#DejaVuSans-20" x="1145.417969"/>
     <use xlink:href="#DejaVuSans-61" x="1177.205078"/>
     <use xlink:href="#DejaVuSans-76" x="1238.484375"/>
     <use xlink:href="#DejaVuSans-65" x="1297.664062"/>
     <use xlink:href="#DejaVuSans-72" x="1359.1875"/>
     <use xlink:href="#DejaVuSans-61" x="1400.300781"/>
     <use xlink:href="#DejaVuSans-67" x="1461.580078"/>
     <use xlink:href="#DejaVuSans-65" x="1525.056641"/>
     <use xlink:href="#DejaVuSans-20" x="1586.580078"/>
     <use xlink:href="#DejaVuSans-46" x="1618.367188"/>
     <use xlink:href="#DejaVuSans-49" x="1675.886719"/>
     <use xlink:href="#DejaVuSans-52" x="1705.378906"/>
     <use xlink:href="#DejaVuSans-20" x="1774.861328"/>
     <use xlink:href="#DejaVuSans-28" x="1806.648438"/>
     <use xlink:href="#DejaVuSans-63" x="1845.662109"/>
     <use xlink:href="#DejaVuSans-68" x="1900.642578"/>
     <use xlink:href="#DejaVuSans-61" x="1964.021484"/>
     <use xlink:href="#DejaVuSans-6e" x="2025.300781"/>
     <use xlink:href="#DejaVuSans-6e" x="2088.679688"/>
     <use xlink:href="#DejaVuSans-65" x="2152.058594"/>
     <use xlink:href="#DejaVuSans-6c" x="2213.582031"/>
     <use xlink:href="#DejaVuSans-20" x="2241.365234"/>
     <use xlink:href="#DejaVuSans-4c" x="2273.152344"/>
     <use xlink:href="#DejaVuSans-29" x="2328.865234"/>
    </g>
   </g>
  </g>
 </g>
 <defs>
  <clipPath id="p30524fd2d6">
   <rect x="57.6" y="41.472" width="357.12" height="266.112"/>
  </clipPath>
 </defs>
</svg>
